<?xml version="1.0" encoding="utf-8" standalone="no"?>
<!DOCTYPE svg PUBLIC "-//W3C//DTD SVG 1.1//EN"
  "http://www.w3.org/Graphics/SVG/1.1/DTD/svg11.dtd">
<svg xmlns:xlink="http://www.w3.org/1999/xlink" width="576pt" height="720pt" viewBox="0 0 576 720" xmlns="http://www.w3.org/2000/svg" version="1.1">
 <metadata>
  <rdf:RDF xmlns:dc="http://purl.org/dc/elements/1.1/" xmlns:cc="http://creativecommons.org/ns#" xmlns:rdf="http://www.w3.org/1999/02/22-rdf-syntax-ns#">
   <cc:Work>
    <dc:type rdf:resource="http://purl.org/dc/dcmitype/StillImage"/>
    <dc:date>2026-06-10T15:01:56.242996</dc:date>
    <dc:format>image/svg+xml</dc:format>
    <dc:creator>
     <cc:Agent>
      <dc:title>Matplotlib v3.10.0, https://matplotlib.org/</dc:title>
     </cc:Agent>
    </dc:creator>
   </cc:Work>
  </rdf:RDF>
 </metadata>
 <defs>
  <style type="text/css">*{stroke-linejoin: round; stroke-linecap: butt}</style>
 </defs>
 <g id="figure_1">
  <g id="patch_1">
   <path d="M 0 720 
L 576 720 
L 576 0 
L 0 0 
z
" style="fill: #ffffff"/>
  </g>
  <g id="axes_1">
   <g id="patch_2">
    <path d="M 72 506.4 
L 518.4 506.4 
L 518.4 86.4 
L 72 86.4 
z
" style="fill: #ffffff"/>
   </g>
   <g id="matplotlib.axis_1">
    <g id="xtick_1">
     <g id="line2d_1">
      <defs>
       <path id="m83f22e3bea" d="M 0 0 
L 0 3.5 
" style="stroke: #000000; stroke-width: 0.8"/>
      </defs>
      <g>
       <use xlink:href="#m83f22e3bea" x="72" y="506.4" style="stroke: #000000; stroke-width: 0.8"/>
      </g>
     </g>
    </g>
    <g id="xtick_2">
     <g id="line2d_2">
      <g>
       <use xlink:href="#m83f22e3bea" x="171.2" y="506.4" style="stroke: #000000; stroke-width: 0.8"/>
      </g>
     </g>
    </g>
    <g id="xtick_3">
     <g id="line2d_3">
      <g>
       <use xlink:href="#m83f22e3bea" x="270.4" y="506.4" style="stroke: #000000; stroke-width: 0.8"/>
      </g>
     </g>
    </g>
    <g id="xtick_4">
     <g id="line2d_4">
      <g>
       <use xlink:href="#m83f22e3bea" x="369.6" y="506.4" style="stroke: #000000; stroke-width: 0.8"/>
      </g>
     </g>
    </g>
    <g id="xtick_5">
     <g id="line2d_5">
      <g>
       <use xlink:href="#m83f22e3bea" x="468.8" y="506.4" style="stroke: #000000; stroke-width: 0.8"/>
      </g>
     </g>
    </g>
   </g>
   <g id="matplotlib.axis_2">
    <g id="ytick_1">
     <g id="line2d_6">
      <defs>
       <path id="m0862a463bd" d="M 0 0 
L -3.5 0 
" style="stroke: #000000; stroke-width: 0.8"/>
      </defs>
      <g>
       <use xlink:href="#m0862a463bd" x="72" y="486.008433" style="stroke: #000000; stroke-width: 0.8"/>
      </g>
     </g>
     <g id="text_1">
      <!-- 0 -->
      <g transform="translate(58.6375 489.807651) scale(0.1 -0.1)">
       <defs>
        <path id="DejaVuSans-30" d="M 2034 4250 
Q 1547 4250 1301 3770 
Q 1056 3291 1056 2328 
Q 1056 1369 1301 889 
Q 1547 409 2034 409 
Q 2525 409 2770 889 
Q 3016 1369 3016 2328 
Q 3016 3291 2770 3770 
Q 2525 4250 2034 4250 
z
M 2034 4750 
Q 2819 4750 3233 4129 
Q 3647 3509 3647 2328 
Q 3647 1150 3233 529 
Q 2819 -91 2034 -91 
Q 1250 -91 836 529 
Q 422 1150 422 2328 
Q 422 3509 836 4129 
Q 1250 4750 2034 4750 
z
" transform="scale(0.015625)"/>
       </defs>
       <use xlink:href="#DejaVuSans-30"/>
      </g>
     </g>
    </g>
    <g id="ytick_2">
     <g id="line2d_7">
      <g>
       <use xlink:href="#m0862a463bd" x="72" y="439.102606" style="stroke: #000000; stroke-width: 0.8"/>
      </g>
     </g>
     <g id="text_2">
      <!-- 5000 -->
      <g transform="translate(39.55 442.901825) scale(0.1 -0.1)">
       <defs>
        <path id="DejaVuSans-35" d="M 691 4666 
L 3169 4666 
L 3169 4134 
L 1269 4134 
L 1269 2991 
Q 1406 3038 1543 3061 
Q 1681 3084 1819 3084 
Q 2600 3084 3056 2656 
Q 3513 2228 3513 1497 
Q 3513 744 3044 326 
Q 2575 -91 1722 -91 
Q 1428 -91 1123 -41 
Q 819 9 494 109 
L 494 744 
Q 775 591 1075 516 
Q 1375 441 1709 441 
Q 2250 441 2565 725 
Q 2881 1009 2881 1497 
Q 2881 1984 2565 2268 
Q 2250 2553 1709 2553 
Q 1456 2553 1204 2497 
Q 953 2441 691 2322 
L 691 4666 
z
" transform="scale(0.015625)"/>
       </defs>
       <use xlink:href="#DejaVuSans-35"/>
       <use xlink:href="#DejaVuSans-30" transform="translate(63.623047 0)"/>
       <use xlink:href="#DejaVuSans-30" transform="translate(127.246094 0)"/>
       <use xlink:href="#DejaVuSans-30" transform="translate(190.869141 0)"/>
      </g>
     </g>
    </g>
    <g id="ytick_3">
     <g id="line2d_8">
      <g>
       <use xlink:href="#m0862a463bd" x="72" y="392.196779" style="stroke: #000000; stroke-width: 0.8"/>
      </g>
     </g>
     <g id="text_3">
      <!-- 10000 -->
      <g transform="translate(33.1875 395.995998) scale(0.1 -0.1)">
       <defs>
        <path id="DejaVuSans-31" d="M 794 531 
L 1825 531 
L 1825 4091 
L 703 3866 
L 703 4441 
L 1819 4666 
L 2450 4666 
L 2450 531 
L 3481 531 
L 3481 0 
L 794 0 
L 794 531 
z
" transform="scale(0.015625)"/>
       </defs>
       <use xlink:href="#DejaVuSans-31"/>
       <use xlink:href="#DejaVuSans-30" transform="translate(63.623047 0)"/>
       <use xlink:href="#DejaVuSans-30" transform="translate(127.246094 0)"/>
       <use xlink:href="#DejaVuSans-30" transform="translate(190.869141 0)"/>
       <use xlink:href="#DejaVuSans-30" transform="translate(254.492188 0)"/>
      </g>
     </g>
    </g>
    <g id="ytick_4">
     <g id="line2d_9">
      <g>
       <use xlink:href="#m0862a463bd" x="72" y="345.290952" style="stroke: #000000; stroke-width: 0.8"/>
      </g>
     </g>
     <g id="text_4">
      <!-- 15000 -->
      <g transform="translate(33.1875 349.090171) scale(0.1 -0.1)">
       <use xlink:href="#DejaVuSans-31"/>
       <use xlink:href="#DejaVuSans-35" transform="translate(63.623047 0)"/>
       <use xlink:href="#DejaVuSans-30" transform="translate(127.246094 0)"/>
       <use xlink:href="#DejaVuSans-30" transform="translate(190.869141 0)"/>
       <use xlink:href="#DejaVuSans-30" transform="translate(254.492188 0)"/>
      </g>
     </g>
    </g>
    <g id="ytick_5">
     <g id="line2d_10">
      <g>
       <use xlink:href="#m0862a463bd" x="72" y="298.385125" style="stroke: #000000; stroke-width: 0.8"/>
      </g>
     </g>
     <g id="text_5">
      <!-- 20000 -->
      <g transform="translate(33.1875 302.184344) scale(0.1 -0.1)">
       <defs>
        <path id="DejaVuSans-32" d="M 1228 531 
L 3431 531 
L 3431 0 
L 469 0 
L 469 531 
Q 828 903 1448 1529 
Q 2069 2156 2228 2338 
Q 2531 2678 2651 2914 
Q 2772 3150 2772 3378 
Q 2772 3750 2511 3984 
Q 2250 4219 1831 4219 
Q 1534 4219 1204 4116 
Q 875 4013 500 3803 
L 500 4441 
Q 881 4594 1212 4672 
Q 1544 4750 1819 4750 
Q 2544 4750 2975 4387 
Q 3406 4025 3406 3419 
Q 3406 3131 3298 2873 
Q 3191 2616 2906 2266 
Q 2828 2175 2409 1742 
Q 1991 1309 1228 531 
z
" transform="scale(0.015625)"/>
       </defs>
       <use xlink:href="#DejaVuSans-32"/>
       <use xlink:href="#DejaVuSans-30" transform="translate(63.623047 0)"/>
       <use xlink:href="#DejaVuSans-30" transform="translate(127.246094 0)"/>
       <use xlink:href="#DejaVuSans-30" transform="translate(190.869141 0)"/>
       <use xlink:href="#DejaVuSans-30" transform="translate(254.492188 0)"/>
      </g>
     </g>
    </g>
    <g id="ytick_6">
     <g id="line2d_11">
      <g>
       <use xlink:href="#m0862a463bd" x="72" y="251.479298" style="stroke: #000000; stroke-width: 0.8"/>
      </g>
     </g>
     <g id="text_6">
      <!-- 25000 -->
      <g transform="translate(33.1875 255.278517) scale(0.1 -0.1)">
       <use xlink:href="#DejaVuSans-32"/>
       <use xlink:href="#DejaVuSans-35" transform="translate(63.623047 0)"/>
       <use xlink:href="#DejaVuSans-30" transform="translate(127.246094 0)"/>
       <use xlink:href="#DejaVuSans-30" transform="translate(190.869141 0)"/>
       <use xlink:href="#DejaVuSans-30" transform="translate(254.492188 0)"/>
      </g>
     </g>
    </g>
    <g id="ytick_7">
     <g id="line2d_12">
      <g>
       <use xlink:href="#m0862a463bd" x="72" y="204.573472" style="stroke: #000000; stroke-width: 0.8"/>
      </g>
     </g>
     <g id="text_7">
      <!-- 30000 -->
      <g transform="translate(33.1875 208.37269) scale(0.1 -0.1)">
       <defs>
        <path id="DejaVuSans-33" d="M 2597 2516 
Q 3050 2419 3304 2112 
Q 3559 1806 3559 1356 
Q 3559 666 3084 287 
Q 2609 -91 1734 -91 
Q 1441 -91 1130 -33 
Q 819 25 488 141 
L 488 750 
Q 750 597 1062 519 
Q 1375 441 1716 441 
Q 2309 441 2620 675 
Q 2931 909 2931 1356 
Q 2931 1769 2642 2001 
Q 2353 2234 1838 2234 
L 1294 2234 
L 1294 2753 
L 1863 2753 
Q 2328 2753 2575 2939 
Q 2822 3125 2822 3475 
Q 2822 3834 2567 4026 
Q 2313 4219 1838 4219 
Q 1578 4219 1281 4162 
Q 984 4106 628 3988 
L 628 4550 
Q 988 4650 1302 4700 
Q 1616 4750 1894 4750 
Q 2613 4750 3031 4423 
Q 3450 4097 3450 3541 
Q 3450 3153 3228 2886 
Q 3006 2619 2597 2516 
z
" transform="scale(0.015625)"/>
       </defs>
       <use xlink:href="#DejaVuSans-33"/>
       <use xlink:href="#DejaVuSans-30" transform="translate(63.623047 0)"/>
       <use xlink:href="#DejaVuSans-30" transform="translate(127.246094 0)"/>
       <use xlink:href="#DejaVuSans-30" transform="translate(190.869141 0)"/>
       <use xlink:href="#DejaVuSans-30" transform="translate(254.492188 0)"/>
      </g>
     </g>
    </g>
    <g id="ytick_8">
     <g id="line2d_13">
      <g>
       <use xlink:href="#m0862a463bd" x="72" y="157.667645" style="stroke: #000000; stroke-width: 0.8"/>
      </g>
     </g>
     <g id="text_8">
      <!-- 35000 -->
      <g transform="translate(33.1875 161.466864) scale(0.1 -0.1)">
       <use xlink:href="#DejaVuSans-33"/>
       <use xlink:href="#DejaVuSans-35" transform="translate(63.623047 0)"/>
       <use xlink:href="#DejaVuSans-30" transform="translate(127.246094 0)"/>
       <use xlink:href="#DejaVuSans-30" transform="translate(190.869141 0)"/>
       <use xlink:href="#DejaVuSans-30" transform="translate(254.492188 0)"/>
      </g>
     </g>
    </g>
    <g id="ytick_9">
     <g id="line2d_14">
      <g>
       <use xlink:href="#m0862a463bd" x="72" y="110.761818" style="stroke: #000000; stroke-width: 0.8"/>
      </g>
     </g>
     <g id="text_9">
      <!-- 40000 -->
      <g transform="translate(33.1875 114.561037) scale(0.1 -0.1)">
       <defs>
        <path id="DejaVuSans-34" d="M 2419 4116 
L 825 1625 
L 2419 1625 
L 2419 4116 
z
M 2253 4666 
L 3047 4666 
L 3047 1625 
L 3713 1625 
L 3713 1100 
L 3047 1100 
L 3047 0 
L 2419 0 
L 2419 1100 
L 313 1100 
L 313 1709 
L 2253 4666 
z
" transform="scale(0.015625)"/>
       </defs>
       <use xlink:href="#DejaVuSans-34"/>
       <use xlink:href="#DejaVuSans-30" transform="translate(63.623047 0)"/>
       <use xlink:href="#DejaVuSans-30" transform="translate(127.246094 0)"/>
       <use xlink:href="#DejaVuSans-30" transform="translate(190.869141 0)"/>
       <use xlink:href="#DejaVuSans-30" transform="translate(254.492188 0)"/>
      </g>
     </g>
    </g>
    <g id="text_10">
     <!-- Intensitiy (a.u.) -->
     <g transform="translate(27.107812 334.453125) rotate(-90) scale(0.1 -0.1)">
      <defs>
       <path id="DejaVuSans-49" d="M 628 4666 
L 1259 4666 
L 1259 0 
L 628 0 
L 628 4666 
z
" transform="scale(0.015625)"/>
       <path id="DejaVuSans-6e" d="M 3513 2113 
L 3513 0 
L 2938 0 
L 2938 2094 
Q 2938 2591 2744 2837 
Q 2550 3084 2163 3084 
Q 1697 3084 1428 2787 
Q 1159 2491 1159 1978 
L 1159 0 
L 581 0 
L 581 3500 
L 1159 3500 
L 1159 2956 
Q 1366 3272 1645 3428 
Q 1925 3584 2291 3584 
Q 2894 3584 3203 3211 
Q 3513 2838 3513 2113 
z
" transform="scale(0.015625)"/>
       <path id="DejaVuSans-74" d="M 1172 4494 
L 1172 3500 
L 2356 3500 
L 2356 3053 
L 1172 3053 
L 1172 1153 
Q 1172 725 1289 603 
Q 1406 481 1766 481 
L 2356 481 
L 2356 0 
L 1766 0 
Q 1100 0 847 248 
Q 594 497 594 1153 
L 594 3053 
L 172 3053 
L 172 3500 
L 594 3500 
L 594 4494 
L 1172 4494 
z
" transform="scale(0.015625)"/>
       <path id="DejaVuSans-65" d="M 3597 1894 
L 3597 1613 
L 953 1613 
Q 991 1019 1311 708 
Q 1631 397 2203 397 
Q 2534 397 2845 478 
Q 3156 559 3463 722 
L 3463 178 
Q 3153 47 2828 -22 
Q 2503 -91 2169 -91 
Q 1331 -91 842 396 
Q 353 884 353 1716 
Q 353 2575 817 3079 
Q 1281 3584 2069 3584 
Q 2775 3584 3186 3129 
Q 3597 2675 3597 1894 
z
M 3022 2063 
Q 3016 2534 2758 2815 
Q 2500 3097 2075 3097 
Q 1594 3097 1305 2825 
Q 1016 2553 972 2059 
L 3022 2063 
z
" transform="scale(0.015625)"/>
       <path id="DejaVuSans-73" d="M 2834 3397 
L 2834 2853 
Q 2591 2978 2328 3040 
Q 2066 3103 1784 3103 
Q 1356 3103 1142 2972 
Q 928 2841 928 2578 
Q 928 2378 1081 2264 
Q 1234 2150 1697 2047 
L 1894 2003 
Q 2506 1872 2764 1633 
Q 3022 1394 3022 966 
Q 3022 478 2636 193 
Q 2250 -91 1575 -91 
Q 1294 -91 989 -36 
Q 684 19 347 128 
L 347 722 
Q 666 556 975 473 
Q 1284 391 1588 391 
Q 1994 391 2212 530 
Q 2431 669 2431 922 
Q 2431 1156 2273 1281 
Q 2116 1406 1581 1522 
L 1381 1569 
Q 847 1681 609 1914 
Q 372 2147 372 2553 
Q 372 3047 722 3315 
Q 1072 3584 1716 3584 
Q 2034 3584 2315 3537 
Q 2597 3491 2834 3397 
z
" transform="scale(0.015625)"/>
       <path id="DejaVuSans-69" d="M 603 3500 
L 1178 3500 
L 1178 0 
L 603 0 
L 603 3500 
z
M 603 4863 
L 1178 4863 
L 1178 4134 
L 603 4134 
L 603 4863 
z
" transform="scale(0.015625)"/>
       <path id="DejaVuSans-79" d="M 2059 -325 
Q 1816 -950 1584 -1140 
Q 1353 -1331 966 -1331 
L 506 -1331 
L 506 -850 
L 844 -850 
Q 1081 -850 1212 -737 
Q 1344 -625 1503 -206 
L 1606 56 
L 191 3500 
L 800 3500 
L 1894 763 
L 2988 3500 
L 3597 3500 
L 2059 -325 
z
" transform="scale(0.015625)"/>
       <path id="DejaVuSans-20" transform="scale(0.015625)"/>
       <path id="DejaVuSans-28" d="M 1984 4856 
Q 1566 4138 1362 3434 
Q 1159 2731 1159 2009 
Q 1159 1288 1364 580 
Q 1569 -128 1984 -844 
L 1484 -844 
Q 1016 -109 783 600 
Q 550 1309 550 2009 
Q 550 2706 781 3412 
Q 1013 4119 1484 4856 
L 1984 4856 
z
" transform="scale(0.015625)"/>
       <path id="DejaVuSans-61" d="M 2194 1759 
Q 1497 1759 1228 1600 
Q 959 1441 959 1056 
Q 959 750 1161 570 
Q 1363 391 1709 391 
Q 2188 391 2477 730 
Q 2766 1069 2766 1631 
L 2766 1759 
L 2194 1759 
z
M 3341 1997 
L 3341 0 
L 2766 0 
L 2766 531 
Q 2569 213 2275 61 
Q 1981 -91 1556 -91 
Q 1019 -91 701 211 
Q 384 513 384 1019 
Q 384 1609 779 1909 
Q 1175 2209 1959 2209 
L 2766 2209 
L 2766 2266 
Q 2766 2663 2505 2880 
Q 2244 3097 1772 3097 
Q 1472 3097 1187 3025 
Q 903 2953 641 2809 
L 641 3341 
Q 956 3463 1253 3523 
Q 1550 3584 1831 3584 
Q 2591 3584 2966 3190 
Q 3341 2797 3341 1997 
z
" transform="scale(0.015625)"/>
       <path id="DejaVuSans-2e" d="M 684 794 
L 1344 794 
L 1344 0 
L 684 0 
L 684 794 
z
" transform="scale(0.015625)"/>
       <path id="DejaVuSans-75" d="M 544 1381 
L 544 3500 
L 1119 3500 
L 1119 1403 
Q 1119 906 1312 657 
Q 1506 409 1894 409 
Q 2359 409 2629 706 
Q 2900 1003 2900 1516 
L 2900 3500 
L 3475 3500 
L 3475 0 
L 2900 0 
L 2900 538 
Q 2691 219 2414 64 
Q 2138 -91 1772 -91 
Q 1169 -91 856 284 
Q 544 659 544 1381 
z
M 1991 3584 
L 1991 3584 
z
" transform="scale(0.015625)"/>
       <path id="DejaVuSans-29" d="M 513 4856 
L 1013 4856 
Q 1481 4119 1714 3412 
Q 1947 2706 1947 2009 
Q 1947 1309 1714 600 
Q 1481 -109 1013 -844 
L 513 -844 
Q 928 -128 1133 580 
Q 1338 1288 1338 2009 
Q 1338 2731 1133 3434 
Q 928 4138 513 4856 
z
" transform="scale(0.015625)"/>
      </defs>
      <use xlink:href="#DejaVuSans-49"/>
      <use xlink:href="#DejaVuSans-6e" transform="translate(29.492188 0)"/>
      <use xlink:href="#DejaVuSans-74" transform="translate(92.871094 0)"/>
      <use xlink:href="#DejaVuSans-65" transform="translate(132.080078 0)"/>
      <use xlink:href="#DejaVuSans-6e" transform="translate(193.603516 0)"/>
      <use xlink:href="#DejaVuSans-73" transform="translate(256.982422 0)"/>
      <use xlink:href="#DejaVuSans-69" transform="translate(309.082031 0)"/>
      <use xlink:href="#DejaVuSans-74" transform="translate(336.865234 0)"/>
      <use xlink:href="#DejaVuSans-69" transform="translate(376.074219 0)"/>
      <use xlink:href="#DejaVuSans-79" transform="translate(403.857422 0)"/>
      <use xlink:href="#DejaVuSans-20" transform="translate(463.037109 0)"/>
      <use xlink:href="#DejaVuSans-28" transform="translate(494.824219 0)"/>
      <use xlink:href="#DejaVuSans-61" transform="translate(533.837891 0)"/>
      <use xlink:href="#DejaVuSans-2e" transform="translate(595.117188 0)"/>
      <use xlink:href="#DejaVuSans-75" transform="translate(626.904297 0)"/>
      <use xlink:href="#DejaVuSans-2e" transform="translate(690.283203 0)"/>
      <use xlink:href="#DejaVuSans-29" transform="translate(722.070312 0)"/>
     </g>
    </g>
   </g>
   <g id="line2d_15">
    <path d="M 518.29584 487.309091 
L 517.68576 486.707287 
L 517.07568 487.034219 
L 516.4656 486.70447 
L 515.24544 486.832988 
L 514.63536 486.531382 
L 514.03024 486.73637 
L 513.42016 486.134567 
L 512.20992 486.403826 
L 511.6048 486.271092 
L 510.99968 486.607417 
L 510.39952 486.099448 
L 509.7944 486.210624 
L 508.58912 486.273509 
L 507.98896 485.906258 
L 507.3888 486.270737 
L 506.7936 485.744018 
L 506.19344 485.658201 
L 504.99808 485.805539 
L 504.40288 485.700972 
L 503.80768 485.117965 
L 503.21248 485.5106 
L 502.61728 485.14336 
L 502.02208 485.217035 
L 501.43184 485.403295 
L 500.2464 484.978405 
L 499.65616 485.089616 
L 497.88544 484.71028 
L 497.30016 484.934076 
L 496.70992 484.548086 
L 496.12464 484.462304 
L 495.53936 483.541598 
L 494.95408 484.225071 
L 493.78352 484.044126 
L 493.2032 484.192884 
L 492.61792 484.032053 
L 492.0376 483.580417 
L 491.45728 484.057516 
L 490.87696 484.046795 
L 490.29664 483.576397 
L 489.71632 483.76268 
L 489.136 483.695671 
L 488.56064 482.953231 
L 487.98528 483.139525 
L 487.40496 483.185091 
L 486.8296 482.864803 
L 486.25424 483.004191 
L 485.67888 482.65576 
L 484.53312 483.018979 
L 483.38736 481.956262 
L 482.81696 482.705438 
L 481.67616 481.699018 
L 481.11072 481.791524 
L 480.54032 481.302387 
L 479.96992 481.507455 
L 479.40448 480.999566 
L 478.83904 481.983283 
L 478.2736 481.156434 
L 476.57728 480.711602 
L 476.01184 480.869776 
L 475.45136 479.620787 
L 474.89088 480.454417 
L 474.32544 480.359299 
L 473.76496 479.541843 
L 473.20448 480.009607 
L 472.64896 479.614316 
L 472.08848 480.222797 
L 471.528 479.264624 
L 470.97248 479.319628 
L 470.41696 478.821143 
L 469.85648 478.125643 
L 468.74544 479.089337 
L 468.19488 478.187474 
L 467.63936 478.777204 
L 467.08384 478.194289 
L 465.98272 476.756428 
L 465.43216 477.327408 
L 464.8816 477.701383 
L 464.33104 477.099717 
L 463.78048 476.028993 
L 462.68432 477.020865 
L 462.13376 476.42858 
L 461.58816 475.442298 
L 461.04256 476.172769 
L 460.49696 475.177105 
L 459.95136 474.875648 
L 459.40576 475.596738 
L 458.31952 475.021978 
L 457.77392 474.758046 
L 457.23328 473.931254 
L 456.69264 473.310849 
L 456.152 473.844327 
L 455.61136 472.332711 
L 455.07072 472.809902 
L 454.53008 473.071326 
L 453.9944 472.235165 
L 453.45376 471.905576 
L 452.91808 471.857433 
L 452.3824 471.077559 
L 451.84672 470.785506 
L 451.31104 470.990655 
L 450.23968 470.519122 
L 449.70896 470.564802 
L 449.17328 470.300893 
L 448.64256 469.324026 
L 448.11184 468.956935 
L 447.57616 468.402209 
L 447.04544 468.110167 
L 446.51472 468.972009 
L 445.98896 467.31971 
L 445.45824 467.252816 
L 444.93248 467.07336 
L 444.40176 468.976511 
L 443.876 466.26414 
L 443.35024 466.159733 
L 442.82448 465.454931 
L 442.29872 466.570076 
L 441.77296 464.598817 
L 441.2472 465.86406 
L 440.72144 463.939707 
L 440.20064 463.666451 
L 439.67984 463.130522 
L 439.15408 463.982993 
L 438.63328 461.927316 
L 438.11248 462.648463 
L 437.59168 463.116318 
L 436.55504 461.078211 
L 435.5184 460.156463 
L 435.00256 459.97703 
L 434.48176 459.581818 
L 433.96592 459.580627 
L 433.45008 458.575651 
L 432.93424 459.015375 
L 432.42336 457.391253 
L 431.90752 456.639569 
L 431.39664 456.553958 
L 430.8808 457.275117 
L 430.36992 456.908072 
L 429.85904 455.837439 
L 429.34816 455.892546 
L 428.83728 455.741268 
L 428.3264 453.835712 
L 427.81552 453.806388 
L 426.28784 452.892887 
L 425.78192 452.047414 
L 425.276 451.558425 
L 424.77008 450.028127 
L 424.26416 450.768071 
L 423.75824 450.447943 
L 423.25232 449.264748 
L 422.75136 449.788936 
L 422.24544 448.305544 
L 421.74448 448.642109 
L 421.24352 446.61462 
L 420.23664 446.321479 
L 419.73568 444.61295 
L 419.23472 446.347308 
L 418.73872 443.916441 
L 418.23776 444.459392 
L 417.74176 443.717134 
L 417.2408 443.837933 
L 416.7448 442.213846 
L 416.2488 441.058817 
L 415.74784 440.279023 
L 415.25184 440.821986 
L 414.7608 440.745802 
L 414.2648 438.324316 
L 413.7688 439.317574 
L 413.27776 438.209463 
L 412.78176 438.273986 
L 412.29072 437.606789 
L 411.79968 438.159144 
L 411.30368 436.084761 
L 410.81264 435.755286 
L 409.83552 434.317711 
L 409.34448 433.641133 
L 408.85344 434.296681 
L 408.36736 431.434303 
L 407.87632 432.40881 
L 407.39024 431.009894 
L 405.932 428.013935 
L 405.44592 427.403037 
L 404.95984 426.576371 
L 404.47872 425.12118 
L 403.99264 425.917456 
L 403.51152 425.325332 
L 403.02544 422.688102 
L 402.54432 423.00595 
L 402.0632 422.132391 
L 401.58208 423.876177 
L 401.10096 421.679873 
L 400.61984 420.487354 
L 400.13872 421.611983 
L 399.66256 420.128659 
L 399.18144 419.302005 
L 398.70528 417.959399 
L 398.22416 415.931956 
L 397.748 417.356794 
L 397.27184 414.757112 
L 396.79568 412.861017 
L 396.31952 414.163899 
L 395.84336 411.573598 
L 394.896 411.956038 
L 394.41984 409.281306 
L 393.94864 410.921922 
L 393.47744 407.853193 
L 392.53008 405.683956 
L 392.05888 405.804823 
L 391.58768 404.621708 
L 391.11648 401.543597 
L 390.65024 401.195417 
L 389.7128 398.83858 
L 389.2416 399.100165 
L 388.77536 398.489312 
L 388.30912 397.672074 
L 387.84288 399.209508 
L 387.37664 395.00567 
L 386.9104 396.796396 
L 386.44416 392.949041 
L 385.97792 393.023014 
L 385.51168 391.783623 
L 385.0504 389.812513 
L 384.58416 389.633194 
L 384.12288 389.23812 
L 383.6616 390.025073 
L 383.20032 387.86634 
L 382.73904 388.052898 
L 382.27776 389.018092 
L 381.3552 382.148949 
L 380.89392 382.269839 
L 380.4376 381.105521 
L 379.97632 382.680491 
L 379.52 383.176639 
L 378.60736 377.236254 
L 378.14608 380.293449 
L 377.68976 376.380449 
L 377.2384 377.889774 
L 376.32576 373.863147 
L 375.86944 372.286057 
L 375.41808 370.202396 
L 374.96176 369.901145 
L 374.5104 366.813699 
L 374.05904 370.677697 
L 373.60768 366.539561 
L 373.15632 369.174626 
L 372.70496 366.237279 
L 371.80224 363.289508 
L 371.35088 361.233991 
L 370.90448 362.621372 
L 370.45312 361.935505 
L 370.00672 357.647281 
L 369.56032 356.980188 
L 369.11392 359.587121 
L 368.21616 356.46112 
L 367.76976 353.045345 
L 367.32832 354.066872 
L 366.88192 353.108962 
L 366.43552 349.017743 
L 365.99408 348.650859 
L 365.54768 347.524088 
L 365.10624 348.883337 
L 364.65984 344.510683 
L 364.2184 342.764767 
L 363.77696 341.994492 
L 363.33552 342.969114 
L 362.89408 340.491467 
L 362.45264 342.854501 
L 361.57472 339.84112 
L 361.13328 339.990199 
L 360.6968 338.741496 
L 360.26032 338.721726 
L 359.81888 335.718733 
L 359.3824 336.496362 
L 358.94592 333.052467 
L 358.50944 333.736284 
L 357.63648 328.499577 
L 357.2 328.658049 
L 356.76848 327.465645 
L 356.332 327.40835 
L 355.90048 326.985201 
L 355.03248 322.42395 
L 354.60096 321.794415 
L 354.16944 323.622746 
L 353.73296 321.70798 
L 353.30144 321.67884 
L 352.87488 317.475093 
L 352.44336 317.108231 
L 352.01184 313.242195 
L 351.58528 313.184923 
L 351.15376 311.36398 
L 350.7272 311.925865 
L 350.29568 308.810322 
L 349.86912 310.038269 
L 349.44256 308.217338 
L 349.016 304.689035 
L 348.58944 307.136534 
L 348.16288 307.979854 
L 347.73632 302.218833 
L 347.30976 301.645597 
L 346.8832 298.201724 
L 346.4616 299.973791 
L 346.03504 297.449272 
L 345.61344 299.699778 
L 345.19184 297.00641 
L 344.76528 296.442555 
L 344.34368 294.593492 
L 343.92208 296.843998 
L 343.50048 292.968603 
L 343.07888 291.982607 
L 342.66224 290.621376 
L 342.24064 289.644761 
L 341.4024 288.798521 
L 340.9808 284.116346 
L 340.56416 282.839545 
L 340.14256 287.613585 
L 339.72592 285.426811 
L 339.30928 280.547643 
L 338.89264 283.126501 
L 338.476 280.423763 
L 338.05936 280.844954 
L 337.64272 278.020261 
L 337.23104 276.049265 
L 336.8144 275.935729 
L 336.39776 276.066103 
L 335.98608 271.196328 
L 335.15776 267.010415 
L 334.74608 264.185734 
L 334.3344 265.826487 
L 333.92272 264.287025 
L 333.51104 261.321626 
L 333.09936 266.536603 
L 332.68768 262.576801 
L 332.276 266.19698 
L 331.86928 264.620005 
L 331.4576 260.660203 
L 331.05088 257.901201 
L 330.23248 254.259419 
L 329.82576 255.187215 
L 329.41408 255.523986 
L 328.60064 249.855884 
L 328.19392 252.697438 
L 327.38544 249.440306 
L 326.97872 249.514416 
L 326.57696 245.958027 
L 326.17024 246.210379 
L 325.76848 246.631604 
L 325.36176 243.337875 
L 324.96 242.248732 
L 324.55824 239.217688 
L 324.15648 239.798393 
L 323.74976 236.701669 
L 323.35296 232.41356 
L 322.9512 231.465134 
L 322.54944 234.109695 
L 322.14768 233.029934 
L 321.74592 229.689311 
L 321.34912 233.150045 
L 320.94736 233.196023 
L 320.55056 232.050604 
L 320.15376 233.212952 
L 319.752 232.93059 
L 319.3552 228.248472 
L 318.9584 229.279484 
L 318.5616 226.417312 
L 318.1648 220.750172 
L 317.768 220.936879 
L 317.3712 222.136751 
L 316.97936 216.722914 
L 316.58256 217.70702 
L 316.18576 218.372166 
L 315.79392 214.90023 
L 315.40208 215.387146 
L 315.00528 214.448113 
L 314.61344 211.914294 
L 313.82976 215.533614 
L 312.65424 205.765106 
L 312.2624 203.784775 
L 311.87056 205.481861 
L 311.48368 201.709739 
L 311.09184 202.055938 
L 310.7 199.597167 
L 310.31312 204.333763 
L 309.92624 201.049461 
L 309.14752 206.526264 
L 308.76064 201.225012 
L 308.37376 201.111544 
L 307.98688 198.061772 
L 307.6 196.531749 
L 307.21312 200.142604 
L 306.8312 194.400449 
L 306.44432 194.587179 
L 306.05744 190.299093 
L 305.67552 189.041135 
L 305.28864 188.824474 
L 304.90672 187.219413 
L 304.5248 187.950262 
L 304.13792 189.459736 
L 303.756 189.402567 
L 302.99216 192.140104 
L 302.61024 190.957195 
L 302.22832 186.059344 
L 301.85136 184.923353 
L 301.46944 180.822902 
L 301.08752 178.017051 
L 300.71056 177.003015 
L 300.32864 176.701936 
L 299.95168 175.096886 
L 299.56976 175.912165 
L 299.1928 175.460999 
L 298.81584 174.615823 
L 298.43888 172.776244 
L 298.06192 175.373957 
L 297.68496 176.639544 
L 296.93104 170.296135 
L 296.55408 168.888089 
L 296.17712 174.69416 
L 295.80512 171.22227 
L 295.42816 165.977328 
L 295.05616 163.49046 
L 294.6792 160.037321 
L 294.3072 155.017538 
L 293.93024 160.579699 
L 293.55824 157.933351 
L 293.18624 153.044905 
L 292.81424 155.398718 
L 292.44224 156.711222 
L 292.07024 159.383996 
L 291.69824 155.930868 
L 291.32624 159.091461 
L 290.9592 160.797986 
L 290.5872 159.558813 
L 290.22016 157.878737 
L 289.84816 155.279295 
L 289.48112 154.668671 
L 289.10912 147.922755 
L 288.74208 146.880598 
L 288.37504 141.16662 
L 288.00304 145.462335 
L 287.636 141.981075 
L 287.26896 144.166039 
L 286.90192 142.298339 
L 286.53984 146.725413 
L 286.1728 148.169265 
L 285.80576 147.549261 
L 285.43872 147.173166 
L 285.07664 146.628223 
L 284.7096 147.856308 
L 284.34752 152.274 
L 283.98048 146.644454 
L 283.6184 143.378972 
L 283.25632 143.593903 
L 282.88928 143.349145 
L 282.5272 140.38386 
L 282.16512 134.735563 
L 281.80304 135.944897 
L 281.44096 133.814536 
L 281.07888 133.063207 
L 280.35968 138.361904 
L 279.9976 136.240925 
L 279.64048 138.106952 
L 279.2784 142.215066 
L 278.92128 141.219838 
L 278.5592 136.781711 
L 278.20208 137.812814 
L 277.84496 133.036976 
L 277.48288 132.970472 
L 277.12576 131.252894 
L 276.76864 124.450724 
L 276.41152 126.917146 
L 276.0544 126.175209 
L 275.34512 120.563635 
L 274.988 120.375187 
L 274.63088 123.33881 
L 274.27872 119.66058 
L 273.9216 125.241549 
L 273.56944 125.747318 
L 273.21232 123.54192 
L 272.86016 131.102326 
L 272.508 133.606284 
L 272.15088 130.63163 
L 271.79872 133.614027 
L 271.44656 130.311044 
L 271.0944 132.073889 
L 270.74224 125.159157 
L 270.39008 125.467922 
L 270.04288 123.103067 
L 269.69072 121.601267 
L 268.99136 112.903312 
L 268.6392 116.805064 
L 268.28704 117.901847 
L 267.93984 120.152525 
L 267.59264 117.065319 
L 267.24048 124.156667 
L 266.89328 127.486179 
L 266.54608 126.678597 
L 266.19888 130.148826 
L 265.85168 131.836634 
L 265.50448 127.361017 
L 265.15728 127.669793 
L 264.81008 127.537655 
L 264.46288 122.705553 
L 264.11568 123.09876 
L 263.77344 119.936517 
L 263.42624 114.935554 
L 263.084 112.279894 
L 262.7368 114.249137 
L 262.39456 107.578338 
L 262.04736 109.753967 
L 261.70512 116.601427 
L 261.36288 116.666305 
L 261.02064 114.37651 
L 260.6784 118.550339 
L 260.33616 120.453925 
L 259.65168 127.26307 
L 259.30944 124.532361 
L 258.9672 126.407804 
L 258.62496 124.230583 
L 258.28768 121.124638 
L 257.94544 120.317068 
L 257.6032 119.894125 
L 256.24912 105.490909 
L 255.91184 107.33822 
L 255.5696 107.290524 
L 255.23232 112.852776 
L 254.89504 113.030239 
L 254.55776 112.278967 
L 254.22048 123.207246 
L 253.8832 118.891131 
L 253.2136 127.895503 
L 252.87632 123.42929 
L 252.544 130.773975 
L 252.20672 125.510362 
L 251.86944 127.310767 
L 251.53712 124.767704 
L 251.2048 119.222667 
L 250.5352 112.832548 
L 250.20288 113.657323 
L 249.87056 109.003497 
L 249.53328 114.612655 
L 249.20096 108.842471 
L 248.20896 122.986978 
L 247.87664 127.029492 
L 247.54432 127.71355 
L 247.212 128.89481 
L 246.88464 127.158538 
L 246.55232 129.549968 
L 246.22496 123.9768 
L 245.89264 126.752857 
L 245.56528 121.132783 
L 244.9056 114.45187 
L 244.57824 110.895652 
L 244.25088 115.266519 
L 243.59616 112.46942 
L 243.2688 117.065435 
L 242.94144 124.025504 
L 242.61408 124.428138 
L 242.28672 130.131131 
L 241.63696 136.743352 
L 241.3096 142.146147 
L 240.9872 142.802084 
L 240.65984 142.313507 
L 240.33744 135.999239 
L 240.01008 132.958985 
L 239.68768 135.706922 
L 239.36528 126.79407 
L 239.03792 126.080346 
L 238.71552 120.647907 
L 238.39312 124.868686 
L 238.07072 121.209287 
L 237.74832 123.60074 
L 237.42592 127.230507 
L 237.10352 129.22795 
L 236.78112 133.186058 
L 236.45872 142.922963 
L 236.14128 141.899683 
L 235.81888 142.818292 
L 235.49648 146.691969 
L 235.17904 148.642518 
L 234.85664 148.238384 
L 233.89936 142.588712 
L 233.58192 137.578436 
L 233.26448 140.832967 
L 232.94704 132.276612 
L 232.62464 135.934522 
L 232.3072 132.115654 
L 231.98976 132.677791 
L 231.67232 131.598224 
L 231.35984 137.301251 
L 231.0424 135.968392 
L 230.72496 139.373022 
L 230.40752 145.076038 
L 230.09504 145.50685 
L 229.14768 162.221899 
L 228.83024 159.069094 
L 228.51776 161.235422 
L 228.20528 162.304153 
L 227.88784 162.894433 
L 227.57536 164.150788 
L 226.63792 155.958866 
L 226.32544 149.0067 
L 226.01296 148.799593 
L 225.70048 146.012665 
L 225.388 147.081397 
L 225.07552 150.223366 
L 224.768 148.759194 
L 224.45552 154.903135 
L 224.14304 154.855508 
L 223.83552 156.355784 
L 223.52304 163.390937 
L 223.21552 167.592988 
L 222.90304 168.980679 
L 222.59552 175.950175 
L 222.28304 176.634278 
L 221.97552 179.513586 
L 221.668 186.408032 
L 221.36048 181.219538 
L 221.05296 182.353949 
L 220.74544 175.073454 
L 220.43792 176.08591 
L 220.1304 170.418976 
L 219.82288 168.269979 
L 219.51536 169.338722 
L 219.20784 166.83324 
L 218.90032 159.552746 
L 218.59776 162.281966 
L 217.98272 169.616617 
L 217.68016 172.383362 
L 217.37264 179.324714 
L 217.07008 179.539783 
L 216.76752 186.7532 
L 216.46 187.437315 
L 215.85488 197.980347 
L 214.94224 202.56563 
L 214.63968 202.105254 
L 214.33712 200.031318 
L 214.03952 193.764012 
L 213.73696 193.650739 
L 213.4344 185.375853 
L 213.13184 188.508463 
L 212.53168 183.53506 
L 211.93152 190.935413 
L 211.62896 190.65328 
L 211.33136 190.615068 
L 210.7312 193.277933 
L 210.13104 201.231775 
L 209.83344 208.351392 
L 209.53584 208.894812 
L 209.23824 215.470322 
L 208.94064 214.634711 
L 208.64304 221.219602 
L 208.34544 219.708547 
L 208.04784 220.036201 
L 207.75024 215.804608 
L 207.45264 215.203526 
L 207.15504 213.551754 
L 206.8624 210.755491 
L 206.5648 205.97979 
L 206.2672 208.840358 
L 205.97456 206.925925 
L 205.67696 202.225274 
L 205.09168 205.197752 
L 204.79408 207.242158 
L 204.50144 210.984568 
L 204.2088 216.912788 
L 203.9112 217.099724 
L 203.32592 229.490892 
L 203.03328 231.413355 
L 202.448 239.010748 
L 202.15536 240.36096 
L 201.2824 234.589527 
L 200.98976 229.551165 
L 200.69712 228.462274 
L 200.40944 224.634095 
L 199.82416 224.135541 
L 199.53648 218.646895 
L 198.95616 224.16168 
L 198.66848 223.129088 
L 198.3808 225.19228 
L 198.08816 229.929093 
L 197.80048 229.449989 
L 197.5128 233.192409 
L 196.64976 250.001465 
L 196.36208 250.526146 
L 196.0744 256.416853 
L 195.78672 257.982843 
L 195.49904 264.201892 
L 195.21136 264.839147 
L 194.64096 267.727228 
L 194.35328 264.949739 
L 194.07056 258.419795 
L 193.78288 256.833714 
L 193.21248 250.265581 
L 192.92976 250.302453 
L 192.64208 249.476246 
L 192.35936 244.822535 
L 192.07664 249.972142 
L 191.79392 250.478072 
L 191.5112 252.184791 
L 191.22352 254.70766 
L 190.9408 254.266092 
L 190.65808 262.380148 
L 190.09264 270.73746 
L 189.80992 274.479892 
L 189.53216 276.205385 
L 188.96672 285.453908 
L 188.684 283.567641 
L 188.40624 285.039843 
L 188.12352 282.684517 
L 187.8408 283.546932 
L 187.56304 282.25169 
L 187.28032 274.70858 
L 187.00256 275.186378 
L 186.7248 276.799297 
L 186.44208 270.203685 
L 186.16432 270.315617 
L 185.88656 272.622742 
L 185.6088 270.267428 
L 185.32608 270.70769 
L 185.04832 266.147803 
L 184.77056 278.333295 
L 184.4928 277.216295 
L 184.21504 279.889285 
L 183.93728 280.245128 
L 182.55344 303.319599 
L 182.27568 303.90059 
L 182.00288 303.862436 
L 181.72512 304.340234 
L 181.45232 305.071335 
L 181.17456 300.305061 
L 180.90176 300.585866 
L 180.3512 292.610604 
L 180.0784 292.994602 
L 179.52784 290.09455 
L 179.25504 291.53862 
L 178.98224 290.224627 
L 178.70944 293.71379 
L 178.43664 294.529322 
L 177.34544 318.064146 
L 177.07264 318.832771 
L 176.79984 324.160643 
L 176.52704 324.544641 
L 176.2592 326.607879 
L 175.9864 326.672917 
L 175.44576 322.356332 
L 175.17296 319.550734 
L 174.90512 318.668286 
L 174.63232 316.331746 
L 174.36448 315.833926 
L 174.09168 311.546103 
L 173.82384 311.798776 
L 173.556 311.25405 
L 173.28816 311.769395 
L 173.01536 312.913268 
L 172.74752 316.655734 
L 172.47968 318.822165 
L 172.21184 321.964237 
L 171.944 328.248999 
L 171.67616 330.828201 
L 171.40832 335.762075 
L 170.87264 339.175582 
L 170.6048 344.681708 
L 170.07408 342.898061 
L 169.80624 343.075685 
L 169.27552 338.346352 
L 169.00768 337.079276 
L 168.7448 334.451942 
L 168.47696 333.438158 
L 168.21408 331.908421 
L 167.94624 328.74635 
L 167.68336 331.597617 
L 167.42048 329.580059 
L 167.1576 333.331918 
L 166.88976 331.971031 
L 166.62688 336.726675 
L 166.364 335.2157 
L 166.10112 338.770555 
L 165.83824 344.999041 
L 165.0496 355.663605 
L 164.78672 354.893742 
L 164.52384 359.27414 
L 164.26096 361.431201 
L 163.99808 362.349948 
L 163.74016 360.651361 
L 163.47728 357.686306 
L 163.2144 357.085304 
L 162.95648 358.332404 
L 162.43072 351.933235 
L 162.1728 349.427868 
L 161.90992 348.545431 
L 161.652 346.237069 
L 161.39408 349.078966 
L 161.1312 348.853211 
L 160.87328 351.226051 
L 160.61536 350.268576 
L 160.09456 354.470136 
L 159.83664 359.291459 
L 159.57872 360.519796 
L 159.3208 366.316761 
L 159.06288 368.070443 
L 158.80496 372.488376 
L 158.54704 372.619117 
L 158.28912 376.042647 
L 158.0312 377.683755 
L 157.77328 377.908307 
L 157.52032 378.705122 
L 157.2624 378.226087 
L 157.00448 375.777007 
L 156.74656 376.189183 
L 156.4936 374.98781 
L 156.23568 372.191627 
L 155.98272 371.918989 
L 155.7248 370.999039 
L 155.47184 368.62502 
L 155.21392 369.618828 
L 154.96096 370.106064 
L 154.70304 367.882133 
L 154.45008 369.044813 
L 154.19712 371.398901 
L 153.94416 371.492129 
L 153.68624 373.583533 
L 153.43328 374.577352 
L 153.18032 378.967154 
L 152.92736 379.520058 
L 152.6744 380.663976 
L 152.42144 386.029419 
L 152.16848 387.135812 
L 151.91552 388.851981 
L 151.4096 395.436391 
L 151.15664 393.390713 
L 150.65568 396.344623 
L 150.40272 393.45464 
L 150.15472 392.281421 
L 149.90176 389.147528 
L 149.6488 388.096253 
L 149.4008 386.341403 
L 148.89984 388.694918 
L 148.64688 385.776792 
L 148.39888 386.798766 
L 148.15088 385.606785 
L 147.89792 385.803206 
L 147.40192 389.901629 
L 147.14896 390.229386 
L 146.90096 391.57032 
L 146.40496 396.550573 
L 146.15696 399.880314 
L 145.90896 399.251204 
L 145.41296 407.561771 
L 145.16496 407.458005 
L 144.91696 408.47998 
L 144.66896 410.336878 
L 144.42592 410.223742 
L 144.17792 409.641537 
L 143.92992 408.768516 
L 143.68192 404.902903 
L 143.43888 406.131275 
L 143.19088 404.076227 
L 142.94288 403.597215 
L 142.2088 400.527878 
L 141.96576 403.519909 
L 141.71776 403.219139 
L 141.47472 404.963475 
L 141.22672 403.602633 
L 140.74064 408.020039 
L 140.4976 411.293505 
L 139.76352 416.413926 
L 139.52048 420.55984 
L 139.27744 420.305987 
L 139.0344 422.491237 
L 138.79136 422.76273 
L 138.54832 422.705881 
L 138.30528 421.617105 
L 138.06224 422.282606 
L 137.82416 421.672281 
L 137.33808 418.772378 
L 137.09504 419.175207 
L 136.85696 417.242137 
L 136.61392 417.457343 
L 136.37088 416.199705 
L 136.1328 417.60633 
L 135.88976 416.020352 
L 135.65168 418.759103 
L 135.40864 417.632802 
L 134.93248 419.658034 
L 134.68944 420.295392 
L 134.45136 423.231147 
L 134.21328 424.065521 
L 133.73216 427.188338 
L 133.256 433.622717 
L 133.01792 432.824769 
L 132.77984 435.441564 
L 132.54176 434.92505 
L 132.30368 435.130886 
L 132.0656 436.237314 
L 131.82752 434.735777 
L 131.58944 434.622654 
L 131.35136 431.657656 
L 131.11328 431.028568 
L 130.8752 431.647175 
L 130.63712 430.727271 
L 130.404 426.983647 
L 130.16592 428.380891 
L 129.92784 430.86635 
L 129.69472 430.068413 
L 129.22352 432.628383 
L 128.75232 433.518505 
L 128.04304 439.689674 
L 127.80992 439.548418 
L 127.33872 443.768855 
L 127.1056 444.340568 
L 126.87248 446.300693 
L 126.63936 445.774809 
L 126.40624 444.854917 
L 126.16816 443.437811 
L 125.93504 443.568609 
L 125.70192 441.935748 
L 125.4688 442.385505 
L 125.23568 440.677595 
L 124.76944 439.513254 
L 124.54128 439.887973 
L 124.30816 439.211991 
L 124.07504 439.596081 
L 123.84192 439.4173 
L 123.38064 440.860934 
L 122.22496 449.695323 
L 121.99184 450.126318 
L 121.76368 451.176482 
L 121.53056 451.691908 
L 121.3024 451.531901 
L 121.06928 451.550125 
L 120.84112 451.999894 
L 120.61296 449.879224 
L 120.37984 450.291457 
L 119.92352 447.888825 
L 119.69536 449.379903 
L 119.4672 448.103538 
L 119.23904 449.181845 
L 119.00592 448.627818 
L 118.77776 449.293354 
L 118.5496 449.23654 
L 117.64192 451.842408 
L 116.95744 455.96854 
L 116.72928 456.42769 
L 116.50608 455.6673 
L 116.27792 457.505482 
L 116.04976 457.842677 
L 115.82656 460.290645 
L 115.5984 459.136235 
L 115.3752 460.242697 
L 115.14704 460.495462 
L 114.92384 458.684381 
L 114.69568 459.894025 
L 114.47248 459.461976 
L 114.02112 457.18131 
L 113.79792 458.372203 
L 113.56976 457.902618 
L 113.34656 455.744434 
L 113.12336 456.747704 
L 112.90016 456.015457 
L 112.2256 458.021469 
L 112.0024 459.381222 
L 111.7792 460.04677 
L 111.556 461.472191 
L 111.3328 462.025165 
L 111.1096 463.00029 
L 110.8864 462.577623 
L 110.22176 466.028357 
L 109.99856 466.093509 
L 109.77536 466.017945 
L 109.55216 467.086882 
L 109.33392 467.292764 
L 109.11072 467.254723 
L 108.88752 466.513096 
L 108.66928 466.381256 
L 108.44608 465.97735 
L 108.22784 465.188828 
L 107.7864 464.653082 
L 107.34496 464.06105 
L 107.12176 462.681503 
L 106.90352 464.754236 
L 106.68528 463.5248 
L 106.24384 465.146722 
L 106.0256 465.0055 
L 105.80736 466.384028 
L 105.58416 466.449181 
L 105.36592 467.114739 
L 105.14768 468.36193 
L 104.92944 468.192565 
L 104.27472 471.427555 
L 103.83824 472.139516 
L 103.62 471.547999 
L 103.40176 472.889001 
L 103.18352 471.246793 
L 102.97024 472.503377 
L 102.53376 471.160862 
L 102.31552 470.756968 
L 102.10224 471.535112 
L 101.884 470.286914 
L 101.66576 471.158858 
L 101.45248 469.779334 
L 101.23424 470.773234 
L 101.02096 470.997889 
L 100.80272 470.012363 
L 100.58944 470.387117 
L 100.3712 471.184012 
L 100.15792 470.883322 
L 99.94464 469.822758 
L 99.51312 472.636111 
L 99.29984 472.053986 
L 98.65504 474.763654 
L 98.44176 474.162767 
L 98.22848 475.33492 
L 98.01024 475.540802 
L 97.79696 476.525331 
L 97.58368 476.684319 
L 97.3704 477.312364 
L 97.15712 476.486329 
L 96.94384 477.508384 
L 96.73056 477.132645 
L 96.51728 477.366681 
L 96.30896 477.375581 
L 96.09568 476.239968 
L 95.8824 476.727296 
L 95.66912 476.78309 
L 95.45584 477.139082 
L 95.03424 476.866055 
L 94.82096 476.302692 
L 94.61264 476.142731 
L 94.39936 477.014687 
L 94.18608 475.316204 
L 93.97776 476.291364 
L 93.76448 476.272109 
L 93.55616 476.459251 
L 93.34288 476.834005 
L 92.92624 478.268361 
L 92.71296 478.249107 
L 92.29632 478.679678 
L 92.08304 478.763616 
L 91.87472 480.517413 
L 91.6664 480.26364 
L 91.45808 480.647787 
L 91.2448 480.712963 
L 91.03648 480.496715 
L 90.82816 480.571283 
L 90.61984 481.44325 
L 90.41152 480.579702 
L 90.2032 480.438503 
L 89.99488 480.756982 
L 89.78656 480.597021 
L 89.57824 479.958621 
L 89.36992 480.708633 
L 89.1616 480.680008 
L 88.95328 480.032227 
L 88.5416 480.350236 
L 88.33328 480.321611 
L 88.12496 480.79957 
L 87.91664 480.33003 
L 87.71328 480.789238 
L 87.50496 479.953833 
L 87.29664 480.891468 
L 87.09328 480.440703 
L 86.88496 480.468365 
L 86.47328 481.358625 
L 86.0616 482.802374 
L 85.85824 482.68933 
L 85.64992 482.923378 
L 85.44656 483.49516 
L 85.2432 483.185112 
L 85.03488 483.681833 
L 84.4248 483.671043 
L 84.21648 484.083333 
L 83.40304 483.781257 
L 83.19968 484.04346 
L 82.99632 482.729627 
L 82.79296 483.920566 
L 82.38624 483.000272 
L 82.18288 483.478242 
L 81.97952 483.505916 
L 81.77616 484.18089 
L 81.5728 483.429927 
L 81.17104 484.385878 
L 80.96768 483.888207 
L 80.76432 483.962787 
L 80.36256 484.899975 
L 79.9608 484.495657 
L 79.75744 485.086201 
L 79.55408 484.982539 
L 79.35568 485.113417 
L 78.95392 485.750408 
L 78.55216 485.627526 
L 78.1504 486.142562 
L 77.952 485.945099 
L 77.7536 485.503726 
L 77.55024 485.916028 
L 77.15344 485.474197 
L 76.95504 485.72703 
L 76.55328 485.285188 
L 76.35488 485.93203 
L 76.15648 485.500038 
L 75.95808 485.462055 
L 75.75968 485.855606 
L 75.56128 485.995865 
L 75.36288 485.742116 
L 75.16448 486.116904 
L 74.96608 486.050778 
L 74.76768 486.753907 
L 74.37088 486.490318 
L 74.17744 486.668113 
L 73.97904 486.658274 
L 73.78064 487.220686 
L 73.58224 487.088891 
L 73.3888 487.238543 
L 72.992 486.974954 
L 72.00992 487.263503 
L 72.00992 487.263503 
" clip-path="url(#p64e3283605)" style="fill: none; stroke-dasharray: 3.7,1.6; stroke-dashoffset: 0; stroke: #1fa187"/>
   </g>
   <g id="line2d_16">
    <path d="M 72.00992 477.048994 
L 76.481723 475.367912 
L 80.953526 473.422754 
L 84.530968 471.655707 
L 88.10841 469.683161 
L 91.685852 467.487849 
L 95.263295 465.052008 
L 98.840737 462.357518 
L 102.418179 459.386048 
L 105.995621 456.119238 
L 109.573064 452.538894 
L 113.150506 448.627212 
L 116.727948 444.367018 
L 120.30539 439.74203 
L 123.882833 434.737145 
L 127.460275 429.338724 
L 131.037717 423.534913 
L 134.615159 417.315949 
L 138.192602 410.674488 
L 141.770044 403.60592 
L 145.347486 396.108691 
L 149.819289 386.137431 
L 154.291092 375.511047 
L 158.762894 364.250787 
L 163.234697 352.388232 
L 168.600861 337.418655 
L 173.967024 321.738036 
L 180.227548 302.703991 
L 188.276793 277.416409 
L 206.164004 220.84949 
L 211.530168 204.655424 
L 216.00197 191.728418 
L 220.473773 179.458226 
L 224.051215 170.20193 
L 227.628658 161.512863 
L 231.2061 153.452482 
L 233.889182 147.854864 
L 236.572263 142.666683 
L 239.255345 137.909535 
L 241.938427 133.603427 
L 244.621508 129.766631 
L 247.30459 126.415557 
L 249.093311 124.458565 
L 250.882032 122.727673 
L 252.670753 121.226223 
L 254.459474 119.957124 
L 256.248196 118.92284 
L 258.036917 118.125383 
L 259.825638 117.566308 
L 261.614359 117.246705 
L 263.40308 117.167199 
L 265.191801 117.327946 
L 266.980522 117.728631 
L 268.769243 118.368471 
L 270.557965 119.246219 
L 272.346686 120.360165 
L 274.135407 121.708142 
L 275.924128 123.287536 
L 277.712849 125.095289 
L 279.50157 127.127916 
L 282.184652 130.589835 
L 284.867734 134.533946 
L 287.550815 138.943407 
L 290.233897 143.799543 
L 292.916979 149.081977 
L 295.60006 154.768774 
L 299.177503 162.939647 
L 302.754945 171.72903 
L 306.332387 181.074969 
L 310.80419 193.441646 
L 315.275993 206.447427 
L 320.642156 222.712444 
L 327.79704 245.143647 
L 347.472973 307.324348 
L 353.733497 326.18438 
L 359.09966 341.677209 
L 364.465823 356.430214 
L 368.937626 368.095012 
L 373.409429 379.145742 
L 377.881232 389.554351 
L 382.353035 399.302911 
L 385.930477 406.620508 
L 389.507919 413.509704 
L 393.085361 419.973371 
L 396.662804 426.017305 
L 400.240246 431.649901 
L 403.817688 436.881839 
L 407.39513 441.725759 
L 410.972573 446.195949 
L 414.550015 450.308043 
L 418.127457 454.078729 
L 421.704899 457.525477 
L 425.282342 460.666281 
L 428.859784 463.519432 
L 432.437226 466.103299 
L 436.014668 468.436147 
L 439.592111 470.535962 
L 443.169553 472.420313 
L 447.641356 474.498642 
L 452.113158 476.298704 
L 456.584961 477.850531 
L 461.056764 479.182195 
L 466.422927 480.526032 
L 471.789091 481.631059 
L 478.049615 482.666903 
L 484.310139 483.477906 
L 491.465023 484.184601 
L 499.514268 484.762286 
L 509.352234 485.239986 
L 518.29584 485.521669 
L 518.29584 485.521669 
" clip-path="url(#p64e3283605)" style="fill: none; stroke-dasharray: 3.7,1.6; stroke-dashoffset: 0; stroke: #46327e"/>
   </g>
   <g id="patch_3">
    <path d="M 72 506.4 
L 72 86.4 
" style="fill: none; stroke: #000000; stroke-width: 0.8; stroke-linejoin: miter; stroke-linecap: square"/>
   </g>
   <g id="patch_4">
    <path d="M 518.4 506.4 
L 518.4 86.4 
" style="fill: none; stroke: #000000; stroke-width: 0.8; stroke-linejoin: miter; stroke-linecap: square"/>
   </g>
   <g id="patch_5">
    <path d="M 72 506.4 
L 518.4 506.4 
" style="fill: none; stroke: #000000; stroke-width: 0.8; stroke-linejoin: miter; stroke-linecap: square"/>
   </g>
   <g id="patch_6">
    <path d="M 72 86.4 
L 518.4 86.4 
" style="fill: none; stroke: #000000; stroke-width: 0.8; stroke-linejoin: miter; stroke-linecap: square"/>
   </g>
   <g id="legend_1">
    <g id="patch_7">
     <path d="M 360.178125 123.75625 
L 511.4 123.75625 
Q 513.4 123.75625 513.4 121.75625 
L 513.4 93.4 
Q 513.4 91.4 511.4 91.4 
L 360.178125 91.4 
Q 358.178125 91.4 358.178125 93.4 
L 358.178125 121.75625 
Q 358.178125 123.75625 360.178125 123.75625 
z
" style="fill: #ffffff; opacity: 0.8; stroke: #cccccc; stroke-linejoin: miter"/>
    </g>
    <g id="line2d_17">
     <path d="M 362.178125 99.498437 
L 372.178125 99.498437 
L 382.178125 99.498437 
" style="fill: none; stroke-dasharray: 3.7,1.6; stroke-dashoffset: 0; stroke: #1fa187"/>
    </g>
    <g id="text_11">
     <!-- Baseline-corrected data -->
     <g transform="translate(390.178125 102.998437) scale(0.1 -0.1)">
      <defs>
       <path id="DejaVuSans-42" d="M 1259 2228 
L 1259 519 
L 2272 519 
Q 2781 519 3026 730 
Q 3272 941 3272 1375 
Q 3272 1813 3026 2020 
Q 2781 2228 2272 2228 
L 1259 2228 
z
M 1259 4147 
L 1259 2741 
L 2194 2741 
Q 2656 2741 2882 2914 
Q 3109 3088 3109 3444 
Q 3109 3797 2882 3972 
Q 2656 4147 2194 4147 
L 1259 4147 
z
M 628 4666 
L 2241 4666 
Q 2963 4666 3353 4366 
Q 3744 4066 3744 3513 
Q 3744 3084 3544 2831 
Q 3344 2578 2956 2516 
Q 3422 2416 3680 2098 
Q 3938 1781 3938 1306 
Q 3938 681 3513 340 
Q 3088 0 2303 0 
L 628 0 
L 628 4666 
z
" transform="scale(0.015625)"/>
       <path id="DejaVuSans-6c" d="M 603 4863 
L 1178 4863 
L 1178 0 
L 603 0 
L 603 4863 
z
" transform="scale(0.015625)"/>
       <path id="DejaVuSans-2d" d="M 313 2009 
L 1997 2009 
L 1997 1497 
L 313 1497 
L 313 2009 
z
" transform="scale(0.015625)"/>
       <path id="DejaVuSans-63" d="M 3122 3366 
L 3122 2828 
Q 2878 2963 2633 3030 
Q 2388 3097 2138 3097 
Q 1578 3097 1268 2742 
Q 959 2388 959 1747 
Q 959 1106 1268 751 
Q 1578 397 2138 397 
Q 2388 397 2633 464 
Q 2878 531 3122 666 
L 3122 134 
Q 2881 22 2623 -34 
Q 2366 -91 2075 -91 
Q 1284 -91 818 406 
Q 353 903 353 1747 
Q 353 2603 823 3093 
Q 1294 3584 2113 3584 
Q 2378 3584 2631 3529 
Q 2884 3475 3122 3366 
z
" transform="scale(0.015625)"/>
       <path id="DejaVuSans-6f" d="M 1959 3097 
Q 1497 3097 1228 2736 
Q 959 2375 959 1747 
Q 959 1119 1226 758 
Q 1494 397 1959 397 
Q 2419 397 2687 759 
Q 2956 1122 2956 1747 
Q 2956 2369 2687 2733 
Q 2419 3097 1959 3097 
z
M 1959 3584 
Q 2709 3584 3137 3096 
Q 3566 2609 3566 1747 
Q 3566 888 3137 398 
Q 2709 -91 1959 -91 
Q 1206 -91 779 398 
Q 353 888 353 1747 
Q 353 2609 779 3096 
Q 1206 3584 1959 3584 
z
" transform="scale(0.015625)"/>
       <path id="DejaVuSans-72" d="M 2631 2963 
Q 2534 3019 2420 3045 
Q 2306 3072 2169 3072 
Q 1681 3072 1420 2755 
Q 1159 2438 1159 1844 
L 1159 0 
L 581 0 
L 581 3500 
L 1159 3500 
L 1159 2956 
Q 1341 3275 1631 3429 
Q 1922 3584 2338 3584 
Q 2397 3584 2469 3576 
Q 2541 3569 2628 3553 
L 2631 2963 
z
" transform="scale(0.015625)"/>
       <path id="DejaVuSans-64" d="M 2906 2969 
L 2906 4863 
L 3481 4863 
L 3481 0 
L 2906 0 
L 2906 525 
Q 2725 213 2448 61 
Q 2172 -91 1784 -91 
Q 1150 -91 751 415 
Q 353 922 353 1747 
Q 353 2572 751 3078 
Q 1150 3584 1784 3584 
Q 2172 3584 2448 3432 
Q 2725 3281 2906 2969 
z
M 947 1747 
Q 947 1113 1208 752 
Q 1469 391 1925 391 
Q 2381 391 2643 752 
Q 2906 1113 2906 1747 
Q 2906 2381 2643 2742 
Q 2381 3103 1925 3103 
Q 1469 3103 1208 2742 
Q 947 2381 947 1747 
z
" transform="scale(0.015625)"/>
      </defs>
      <use xlink:href="#DejaVuSans-42"/>
      <use xlink:href="#DejaVuSans-61" transform="translate(68.603516 0)"/>
      <use xlink:href="#DejaVuSans-73" transform="translate(129.882812 0)"/>
      <use xlink:href="#DejaVuSans-65" transform="translate(181.982422 0)"/>
      <use xlink:href="#DejaVuSans-6c" transform="translate(243.505859 0)"/>
      <use xlink:href="#DejaVuSans-69" transform="translate(271.289062 0)"/>
      <use xlink:href="#DejaVuSans-6e" transform="translate(299.072266 0)"/>
      <use xlink:href="#DejaVuSans-65" transform="translate(362.451172 0)"/>
      <use xlink:href="#DejaVuSans-2d" transform="translate(423.974609 0)"/>
      <use xlink:href="#DejaVuSans-63" transform="translate(460.058594 0)"/>
      <use xlink:href="#DejaVuSans-6f" transform="translate(515.039062 0)"/>
      <use xlink:href="#DejaVuSans-72" transform="translate(576.220703 0)"/>
      <use xlink:href="#DejaVuSans-72" transform="translate(615.583984 0)"/>
      <use xlink:href="#DejaVuSans-65" transform="translate(654.447266 0)"/>
      <use xlink:href="#DejaVuSans-63" transform="translate(715.970703 0)"/>
      <use xlink:href="#DejaVuSans-74" transform="translate(770.951172 0)"/>
      <use xlink:href="#DejaVuSans-65" transform="translate(810.160156 0)"/>
      <use xlink:href="#DejaVuSans-64" transform="translate(871.683594 0)"/>
      <use xlink:href="#DejaVuSans-20" transform="translate(935.160156 0)"/>
      <use xlink:href="#DejaVuSans-64" transform="translate(966.947266 0)"/>
      <use xlink:href="#DejaVuSans-61" transform="translate(1030.423828 0)"/>
      <use xlink:href="#DejaVuSans-74" transform="translate(1091.703125 0)"/>
      <use xlink:href="#DejaVuSans-61" transform="translate(1130.912109 0)"/>
     </g>
    </g>
    <g id="line2d_18">
     <path d="M 362.178125 114.176562 
L 372.178125 114.176562 
L 382.178125 114.176562 
" style="fill: none; stroke-dasharray: 3.7,1.6; stroke-dashoffset: 0; stroke: #46327e"/>
    </g>
    <g id="text_12">
     <!-- Gaussian fit -->
     <g transform="translate(390.178125 117.676562) scale(0.1 -0.1)">
      <defs>
       <path id="DejaVuSans-47" d="M 3809 666 
L 3809 1919 
L 2778 1919 
L 2778 2438 
L 4434 2438 
L 4434 434 
Q 4069 175 3628 42 
Q 3188 -91 2688 -91 
Q 1594 -91 976 548 
Q 359 1188 359 2328 
Q 359 3472 976 4111 
Q 1594 4750 2688 4750 
Q 3144 4750 3555 4637 
Q 3966 4525 4313 4306 
L 4313 3634 
Q 3963 3931 3569 4081 
Q 3175 4231 2741 4231 
Q 1884 4231 1454 3753 
Q 1025 3275 1025 2328 
Q 1025 1384 1454 906 
Q 1884 428 2741 428 
Q 3075 428 3337 486 
Q 3600 544 3809 666 
z
" transform="scale(0.015625)"/>
       <path id="DejaVuSans-66" d="M 2375 4863 
L 2375 4384 
L 1825 4384 
Q 1516 4384 1395 4259 
Q 1275 4134 1275 3809 
L 1275 3500 
L 2222 3500 
L 2222 3053 
L 1275 3053 
L 1275 0 
L 697 0 
L 697 3053 
L 147 3053 
L 147 3500 
L 697 3500 
L 697 3744 
Q 697 4328 969 4595 
Q 1241 4863 1831 4863 
L 2375 4863 
z
" transform="scale(0.015625)"/>
      </defs>
      <use xlink:href="#DejaVuSans-47"/>
      <use xlink:href="#DejaVuSans-61" transform="translate(77.490234 0)"/>
      <use xlink:href="#DejaVuSans-75" transform="translate(138.769531 0)"/>
      <use xlink:href="#DejaVuSans-73" transform="translate(202.148438 0)"/>
      <use xlink:href="#DejaVuSans-73" transform="translate(254.248047 0)"/>
      <use xlink:href="#DejaVuSans-69" transform="translate(306.347656 0)"/>
      <use xlink:href="#DejaVuSans-61" transform="translate(334.130859 0)"/>
      <use xlink:href="#DejaVuSans-6e" transform="translate(395.410156 0)"/>
      <use xlink:href="#DejaVuSans-20" transform="translate(458.789062 0)"/>
      <use xlink:href="#DejaVuSans-66" transform="translate(490.576172 0)"/>
      <use xlink:href="#DejaVuSans-69" transform="translate(525.78125 0)"/>
      <use xlink:href="#DejaVuSans-74" transform="translate(553.564453 0)"/>
     </g>
    </g>
   </g>
  </g>
  <g id="axes_2">
   <g id="patch_8">
    <path d="M 72 640.8 
L 518.4 640.8 
L 518.4 556.8 
L 72 556.8 
z
" style="fill: #ffffff"/>
   </g>
   <g id="matplotlib.axis_3">
    <g id="xtick_6">
     <g id="line2d_19">
      <g>
       <use xlink:href="#m83f22e3bea" x="72" y="640.8" style="stroke: #000000; stroke-width: 0.8"/>
      </g>
     </g>
     <g id="text_13">
      <!-- 1.2 -->
      <g transform="translate(64.048438 655.398437) scale(0.1 -0.1)">
       <use xlink:href="#DejaVuSans-31"/>
       <use xlink:href="#DejaVuSans-2e" transform="translate(63.623047 0)"/>
       <use xlink:href="#DejaVuSans-32" transform="translate(95.410156 0)"/>
      </g>
     </g>
    </g>
    <g id="xtick_7">
     <g id="line2d_20">
      <g>
       <use xlink:href="#m83f22e3bea" x="171.2" y="640.8" style="stroke: #000000; stroke-width: 0.8"/>
      </g>
     </g>
     <g id="text_14">
      <!-- 1.4 -->
      <g transform="translate(163.248437 655.398437) scale(0.1 -0.1)">
       <use xlink:href="#DejaVuSans-31"/>
       <use xlink:href="#DejaVuSans-2e" transform="translate(63.623047 0)"/>
       <use xlink:href="#DejaVuSans-34" transform="translate(95.410156 0)"/>
      </g>
     </g>
    </g>
    <g id="xtick_8">
     <g id="line2d_21">
      <g>
       <use xlink:href="#m83f22e3bea" x="270.4" y="640.8" style="stroke: #000000; stroke-width: 0.8"/>
      </g>
     </g>
     <g id="text_15">
      <!-- 1.6 -->
      <g transform="translate(262.448438 655.398437) scale(0.1 -0.1)">
       <defs>
        <path id="DejaVuSans-36" d="M 2113 2584 
Q 1688 2584 1439 2293 
Q 1191 2003 1191 1497 
Q 1191 994 1439 701 
Q 1688 409 2113 409 
Q 2538 409 2786 701 
Q 3034 994 3034 1497 
Q 3034 2003 2786 2293 
Q 2538 2584 2113 2584 
z
M 3366 4563 
L 3366 3988 
Q 3128 4100 2886 4159 
Q 2644 4219 2406 4219 
Q 1781 4219 1451 3797 
Q 1122 3375 1075 2522 
Q 1259 2794 1537 2939 
Q 1816 3084 2150 3084 
Q 2853 3084 3261 2657 
Q 3669 2231 3669 1497 
Q 3669 778 3244 343 
Q 2819 -91 2113 -91 
Q 1303 -91 875 529 
Q 447 1150 447 2328 
Q 447 3434 972 4092 
Q 1497 4750 2381 4750 
Q 2619 4750 2861 4703 
Q 3103 4656 3366 4563 
z
" transform="scale(0.015625)"/>
       </defs>
       <use xlink:href="#DejaVuSans-31"/>
       <use xlink:href="#DejaVuSans-2e" transform="translate(63.623047 0)"/>
       <use xlink:href="#DejaVuSans-36" transform="translate(95.410156 0)"/>
      </g>
     </g>
    </g>
    <g id="xtick_9">
     <g id="line2d_22">
      <g>
       <use xlink:href="#m83f22e3bea" x="369.6" y="640.8" style="stroke: #000000; stroke-width: 0.8"/>
      </g>
     </g>
     <g id="text_16">
      <!-- 1.8 -->
      <g transform="translate(361.648438 655.398437) scale(0.1 -0.1)">
       <defs>
        <path id="DejaVuSans-38" d="M 2034 2216 
Q 1584 2216 1326 1975 
Q 1069 1734 1069 1313 
Q 1069 891 1326 650 
Q 1584 409 2034 409 
Q 2484 409 2743 651 
Q 3003 894 3003 1313 
Q 3003 1734 2745 1975 
Q 2488 2216 2034 2216 
z
M 1403 2484 
Q 997 2584 770 2862 
Q 544 3141 544 3541 
Q 544 4100 942 4425 
Q 1341 4750 2034 4750 
Q 2731 4750 3128 4425 
Q 3525 4100 3525 3541 
Q 3525 3141 3298 2862 
Q 3072 2584 2669 2484 
Q 3125 2378 3379 2068 
Q 3634 1759 3634 1313 
Q 3634 634 3220 271 
Q 2806 -91 2034 -91 
Q 1263 -91 848 271 
Q 434 634 434 1313 
Q 434 1759 690 2068 
Q 947 2378 1403 2484 
z
M 1172 3481 
Q 1172 3119 1398 2916 
Q 1625 2713 2034 2713 
Q 2441 2713 2670 2916 
Q 2900 3119 2900 3481 
Q 2900 3844 2670 4047 
Q 2441 4250 2034 4250 
Q 1625 4250 1398 4047 
Q 1172 3844 1172 3481 
z
" transform="scale(0.015625)"/>
       </defs>
       <use xlink:href="#DejaVuSans-31"/>
       <use xlink:href="#DejaVuSans-2e" transform="translate(63.623047 0)"/>
       <use xlink:href="#DejaVuSans-38" transform="translate(95.410156 0)"/>
      </g>
     </g>
    </g>
    <g id="xtick_10">
     <g id="line2d_23">
      <g>
       <use xlink:href="#m83f22e3bea" x="468.8" y="640.8" style="stroke: #000000; stroke-width: 0.8"/>
      </g>
     </g>
     <g id="text_17">
      <!-- 2.0 -->
      <g transform="translate(460.848437 655.398437) scale(0.1 -0.1)">
       <use xlink:href="#DejaVuSans-32"/>
       <use xlink:href="#DejaVuSans-2e" transform="translate(63.623047 0)"/>
       <use xlink:href="#DejaVuSans-30" transform="translate(95.410156 0)"/>
      </g>
     </g>
    </g>
   </g>
   <g id="matplotlib.axis_4">
    <g id="ytick_10">
     <g id="line2d_24">
      <g>
       <use xlink:href="#m0862a463bd" x="72" y="622.8" style="stroke: #000000; stroke-width: 0.8"/>
      </g>
     </g>
     <g id="text_18">
      <!-- −20 -->
      <g transform="translate(43.895313 626.599219) scale(0.1 -0.1)">
       <defs>
        <path id="DejaVuSans-2212" d="M 678 2272 
L 4684 2272 
L 4684 1741 
L 678 1741 
L 678 2272 
z
" transform="scale(0.015625)"/>
       </defs>
       <use xlink:href="#DejaVuSans-2212"/>
       <use xlink:href="#DejaVuSans-32" transform="translate(83.789062 0)"/>
       <use xlink:href="#DejaVuSans-30" transform="translate(147.412109 0)"/>
      </g>
     </g>
    </g>
    <g id="ytick_11">
     <g id="line2d_25">
      <g>
       <use xlink:href="#m0862a463bd" x="72" y="598.8" style="stroke: #000000; stroke-width: 0.8"/>
      </g>
     </g>
     <g id="text_19">
      <!-- 0 -->
      <g transform="translate(58.6375 602.599219) scale(0.1 -0.1)">
       <use xlink:href="#DejaVuSans-30"/>
      </g>
     </g>
    </g>
    <g id="ytick_12">
     <g id="line2d_26">
      <g>
       <use xlink:href="#m0862a463bd" x="72" y="574.8" style="stroke: #000000; stroke-width: 0.8"/>
      </g>
     </g>
     <g id="text_20">
      <!-- 20 -->
      <g transform="translate(52.275 578.599219) scale(0.1 -0.1)">
       <use xlink:href="#DejaVuSans-32"/>
       <use xlink:href="#DejaVuSans-30" transform="translate(63.623047 0)"/>
      </g>
     </g>
    </g>
    <g id="text_21">
     <!-- Residuals -->
     <g transform="translate(37.815625 622.520312) rotate(-90) scale(0.1 -0.1)">
      <defs>
       <path id="DejaVuSans-52" d="M 2841 2188 
Q 3044 2119 3236 1894 
Q 3428 1669 3622 1275 
L 4263 0 
L 3584 0 
L 2988 1197 
Q 2756 1666 2539 1819 
Q 2322 1972 1947 1972 
L 1259 1972 
L 1259 0 
L 628 0 
L 628 4666 
L 2053 4666 
Q 2853 4666 3247 4331 
Q 3641 3997 3641 3322 
Q 3641 2881 3436 2590 
Q 3231 2300 2841 2188 
z
M 1259 4147 
L 1259 2491 
L 2053 2491 
Q 2509 2491 2742 2702 
Q 2975 2913 2975 3322 
Q 2975 3731 2742 3939 
Q 2509 4147 2053 4147 
L 1259 4147 
z
" transform="scale(0.015625)"/>
      </defs>
      <use xlink:href="#DejaVuSans-52"/>
      <use xlink:href="#DejaVuSans-65" transform="translate(64.982422 0)"/>
      <use xlink:href="#DejaVuSans-73" transform="translate(126.505859 0)"/>
      <use xlink:href="#DejaVuSans-69" transform="translate(178.605469 0)"/>
      <use xlink:href="#DejaVuSans-64" transform="translate(206.388672 0)"/>
      <use xlink:href="#DejaVuSans-75" transform="translate(269.865234 0)"/>
      <use xlink:href="#DejaVuSans-61" transform="translate(333.244141 0)"/>
      <use xlink:href="#DejaVuSans-6c" transform="translate(394.523438 0)"/>
      <use xlink:href="#DejaVuSans-73" transform="translate(422.306641 0)"/>
     </g>
    </g>
   </g>
   <g id="line2d_27">
    <path d="M 518.29584 630.541025 
L 517.68576 619.79721 
L 517.07568 625.370519 
L 516.4656 619.651596 
L 515.85552 620.995484 
L 515.24544 621.685642 
L 514.63536 616.749701 
L 514.03024 620.029427 
L 513.42016 610.575221 
L 512.81504 613.424895 
L 512.20992 614.911448 
L 511.6048 612.990705 
L 510.99968 618.043731 
L 510.39952 610.699351 
L 509.7944 612.430444 
L 509.19424 612.398623 
L 508.58912 613.545748 
L 507.98896 608.641619 
L 507.3888 613.736379 
L 506.7936 606.870356 
L 506.19344 605.974463 
L 504.99808 608.328281 
L 504.40288 607.237105 
L 503.80768 600.291751 
L 503.21248 605.399948 
L 502.61728 601.278151 
L 502.02208 602.483278 
L 501.43184 604.969429 
L 500.83664 602.236412 
L 500.2464 600.753104 
L 499.65616 602.350835 
L 499.06592 601.235184 
L 498.47568 600.972861 
L 497.88544 599.325902 
L 497.30016 602.07603 
L 496.70992 598.434354 
L 496.12464 597.972685 
L 495.53936 589.106368 
L 494.95408 596.464529 
L 494.3688 596.263976 
L 493.78352 595.625628 
L 493.2032 597.521268 
L 492.61792 596.463042 
L 492.0376 592.736764 
L 491.45728 597.640352 
L 490.87696 598.009861 
L 490.29664 594.276281 
L 489.71632 596.438615 
L 489.136 596.35347 
L 488.56064 590.483469 
L 487.98528 592.6417 
L 487.40496 593.584753 
L 486.8296 591.493927 
L 486.25424 593.210668 
L 485.67888 590.976685 
L 485.10848 592.601437 
L 484.53312 595.009648 
L 483.38736 588.00963 
L 482.81696 594.303334 
L 481.67616 588.064399 
L 481.11072 589.394642 
L 480.54032 586.546138 
L 479.96992 588.69026 
L 479.40448 585.810737 
L 478.83904 593.301765 
L 478.2736 588.290073 
L 477.70816 588.084582 
L 477.14272 588.521026 
L 476.57728 587.4211 
L 476.01184 589.15948 
L 475.45136 581.850208 
L 474.89088 587.909476 
L 474.32544 588.037343 
L 473.76496 583.707966 
L 473.20448 587.339561 
L 472.64896 585.687678 
L 472.08848 590.077438 
L 471.528 585.151577 
L 470.97248 586.245162 
L 470.41696 584.143708 
L 469.85648 580.99278 
L 468.74544 588.014951 
L 468.19488 583.823598 
L 467.63936 587.844165 
L 467.08384 585.496593 
L 466.53328 582.015635 
L 465.98272 579.562525 
L 465.43216 583.404776 
L 464.8816 586.16579 
L 464.33104 583.934791 
L 463.78048 579.41769 
L 462.68432 586.075069 
L 462.13376 584.045863 
L 461.58816 580.179879 
L 461.04256 584.551899 
L 460.49696 580.750009 
L 459.95136 580.265404 
L 459.40576 584.497478 
L 458.86016 583.800313 
L 458.31952 583.672496 
L 457.77392 583.403891 
L 457.23328 580.674921 
L 456.69264 578.916046 
L 456.152 582.172485 
L 455.61136 576.672669 
L 455.07072 579.678274 
L 454.53008 581.737535 
L 453.9944 579.234898 
L 453.45376 578.875499 
L 452.91808 579.666577 
L 452.3824 577.532344 
L 451.84672 577.387008 
L 451.31104 579.206967 
L 450.77536 579.478595 
L 450.23968 579.400448 
L 449.70896 580.576936 
L 449.17328 580.590763 
L 448.64256 577.957273 
L 448.11184 577.638257 
L 447.57616 576.666625 
L 447.04544 576.668954 
L 446.51472 580.812866 
L 445.98896 575.979686 
L 445.45824 576.824808 
L 444.93248 577.268401 
L 444.40176 584.889287 
L 443.876 576.653308 
L 443.35024 577.385392 
L 442.82448 576.113877 
L 442.29872 580.902587 
L 441.77296 575.503475 
L 441.2472 580.725771 
L 440.72144 575.611967 
L 440.20064 575.856992 
L 439.67984 575.284388 
L 439.15408 579.087761 
L 438.63328 573.821809 
L 438.11248 577.186459 
L 437.59168 579.735045 
L 436.55504 575.855362 
L 436.03424 575.758269 
L 435.5184 575.447701 
L 435.00256 576.084294 
L 434.48176 576.115269 
L 433.96592 577.273756 
L 433.45008 575.590346 
L 432.93424 577.998778 
L 432.42336 574.639167 
L 431.90752 573.766112 
L 431.39664 574.729177 
L 430.8808 577.883753 
L 430.36992 578.070789 
L 429.85904 576.400255 
L 429.34816 577.739169 
L 428.83728 578.53135 
L 428.3264 574.783005 
L 427.81552 575.93033 
L 427.30464 576.452678 
L 426.28784 577.270028 
L 425.78192 576.381482 
L 425.276 576.39997 
L 424.77008 573.891938 
L 424.26416 576.934909 
L 423.75824 577.398347 
L 423.25232 575.814629 
L 422.75136 578.290781 
L 422.24544 576.05212 
L 421.74448 578.079941 
L 421.24352 574.642478 
L 420.23664 576.518153 
L 419.73568 573.93628 
L 419.23472 579.092469 
L 418.73872 574.948403 
L 418.23776 577.428223 
L 417.74176 577.070396 
L 417.2408 578.6113 
L 416.7448 576.386576 
L 416.2488 575.209008 
L 415.74784 574.869603 
L 415.25184 577.309679 
L 414.7608 578.426009 
L 414.2648 574.710467 
L 413.7688 578.061625 
L 413.27776 577.090552 
L 412.78176 578.527563 
L 412.29072 578.478464 
L 411.79968 580.868656 
L 411.30368 578.066556 
L 410.81264 578.724698 
L 410.3216 578.474878 
L 409.34448 578.553058 
L 408.85344 581.116707 
L 408.36736 576.999554 
L 407.87632 580.162753 
L 407.39024 578.862349 
L 406.90416 578.374006 
L 406.41808 578.336287 
L 405.932 577.337851 
L 405.44592 577.571985 
L 404.95984 577.428331 
L 404.47872 576.164433 
L 403.99264 578.934638 
L 403.51152 579.222503 
L 403.02544 575.958645 
L 402.54432 577.867983 
L 402.0632 577.710116 
L 401.58208 582.04892 
L 401.10096 579.6405 
L 400.61984 578.972762 
L 400.13872 582.214794 
L 399.66256 581.065082 
L 399.18144 581.044061 
L 398.70528 580.172977 
L 398.22416 578.22043 
L 397.748 581.89621 
L 397.27184 579.045066 
L 396.79568 577.370274 
L 396.31952 580.822311 
L 395.84336 578.083228 
L 394.896 581.419032 
L 394.41984 578.632092 
L 393.94864 582.532662 
L 393.47744 579.178524 
L 393.00128 578.992453 
L 392.53008 578.649572 
L 392.05888 580.213053 
L 391.58768 579.819236 
L 391.11648 576.626009 
L 390.65024 577.499294 
L 390.17904 577.065835 
L 389.7128 576.839139 
L 389.2416 578.626961 
L 388.77536 579.131937 
L 388.30912 579.345838 
L 387.84288 582.921878 
L 387.37664 578.336424 
L 386.9104 582.253959 
L 386.44416 578.245635 
L 385.97792 579.750247 
L 385.51168 579.430978 
L 385.0504 578.10431 
L 384.58416 579.267995 
L 384.12288 580.120182 
L 383.6616 582.57064 
L 383.20032 581.043221 
L 382.73904 582.67784 
L 382.27776 585.338889 
L 381.3552 579.033227 
L 380.89392 580.594946 
L 380.4376 580.462869 
L 379.97632 583.898554 
L 379.52 585.903802 
L 378.60736 581.056151 
L 378.14608 586.326921 
L 377.68976 582.762092 
L 377.2384 586.017777 
L 376.32576 583.753228 
L 375.86944 583.189125 
L 375.41808 582.003121 
L 374.96176 583.026796 
L 374.5104 580.652108 
L 374.05904 586.702206 
L 373.60768 583.086898 
L 373.15632 587.610741 
L 372.70496 585.470783 
L 371.80224 584.723705 
L 371.35088 583.685884 
L 370.90448 586.663827 
L 370.45312 587.230162 
L 370.00672 583.625366 
L 369.56032 584.222076 
L 369.11392 588.56279 
L 368.66256 587.878453 
L 368.21616 587.713251 
L 367.76976 585.209855 
L 367.32832 587.698127 
L 366.88192 587.975175 
L 366.43552 584.77527 
L 365.99408 585.715016 
L 365.54768 585.831132 
L 365.10624 588.661272 
L 364.65984 585.235501 
L 364.2184 584.68382 
L 363.77696 585.197571 
L 363.33552 587.589907 
L 362.89408 586.26924 
L 362.45264 590.1275 
L 362.01616 589.670298 
L 361.57472 589.564727 
L 361.13328 591.045004 
L 360.6968 591.038695 
L 360.26032 592.319661 
L 359.81888 590.511247 
L 359.3824 592.618487 
L 358.94592 590.365851 
L 358.50944 592.369704 
L 357.63648 589.626644 
L 357.2 591.091004 
L 356.76848 591.171046 
L 356.332 592.409494 
L 355.90048 593.261758 
L 355.03248 591.288189 
L 354.60096 591.94356 
L 354.16944 595.01627 
L 353.73296 594.414644 
L 353.30144 595.64795 
L 352.87488 592.801973 
L 352.44336 593.712528 
L 352.01184 591.243991 
L 351.58528 592.443814 
L 351.15376 591.964087 
L 350.7272 593.749323 
L 350.29568 592.045226 
L 349.86912 594.453559 
L 349.44256 593.972341 
L 349.016 591.894021 
L 348.58944 595.426562 
L 348.16288 597.4402 
L 347.73632 593.306762 
L 347.30976 594.00794 
L 346.8832 592.059448 
L 346.4616 594.906087 
L 346.03504 593.815172 
L 345.61344 597.076635 
L 345.19184 595.822901 
L 344.76528 596.523455 
L 344.34368 596.047084 
L 343.92208 599.264025 
L 343.50048 596.969028 
L 343.07888 597.273138 
L 342.66224 597.229029 
L 342.24064 597.542141 
L 341.4024 599.128986 
L 340.9808 596.182266 
L 340.56416 596.224358 
L 340.14256 601.561713 
L 339.72592 600.797139 
L 339.30928 597.704395 
L 338.89264 601.078143 
L 338.476 599.881457 
L 338.05936 601.375967 
L 337.64272 600.083454 
L 337.23104 599.514954 
L 336.39776 601.774603 
L 335.98608 598.757525 
L 335.5744 598.305368 
L 335.15776 597.459798 
L 334.74608 596.197741 
L 334.3344 598.673219 
L 333.92272 598.485818 
L 333.51104 597.115707 
L 333.09936 602.52589 
L 332.68768 600.331215 
L 332.276 604.387874 
L 331.86928 604.143028 
L 331.4576 601.962196 
L 331.05088 600.76056 
L 330.23248 599.911583 
L 329.41408 603.029186 
L 328.60064 600.53367 
L 328.19392 603.83763 
L 327.79216 603.695842 
L 327.38544 603.26005 
L 326.97872 604.330284 
L 326.57696 602.506364 
L 325.76848 605.030321 
L 325.36176 603.433767 
L 324.96 603.559996 
L 324.55824 602.165908 
L 324.15648 603.594201 
L 323.74976 602.16492 
L 323.35296 599.792641 
L 322.9512 600.027676 
L 322.54944 603.034537 
L 322.14768 603.155842 
L 321.74592 601.537154 
L 321.34912 605.127316 
L 320.94736 606.098169 
L 320.55056 606.1418 
L 320.15376 607.940252 
L 319.752 608.642206 
L 319.3552 605.993091 
L 318.9584 607.673761 
L 318.5616 606.407363 
L 318.1648 603.032777 
L 317.768 604.067577 
L 317.3712 605.854638 
L 316.97936 602.674416 
L 316.18576 605.659668 
L 315.79392 603.935309 
L 315.40208 605.150893 
L 315.00528 605.314197 
L 314.61344 604.285655 
L 313.82976 608.620763 
L 313.43792 607.094094 
L 313.04608 605.041394 
L 312.65424 603.926352 
L 312.2624 603.29843 
L 311.87056 605.347357 
L 311.48368 603.400166 
L 311.09184 604.454499 
L 310.7 603.470649 
L 310.31312 607.676494 
L 309.92624 606.077967 
L 309.14752 611.554001 
L 308.76064 608.49977 
L 308.37376 609.167598 
L 307.98688 607.730557 
L 307.6 607.379221 
L 307.21312 610.68706 
L 306.8312 607.319814 
L 306.44432 608.178145 
L 306.05744 605.858565 
L 305.67552 605.677272 
L 305.28864 606.237173 
L 304.90672 605.803065 
L 304.5248 607.010754 
L 304.13792 608.766565 
L 303.756 609.404362 
L 302.99216 612.656394 
L 302.61024 612.486268 
L 302.22832 609.721614 
L 301.85136 609.572113 
L 301.46944 607.365902 
L 301.08752 606.0606 
L 300.71056 605.988525 
L 300.32864 606.413948 
L 299.95168 605.923997 
L 299.56976 607.109685 
L 299.1928 607.406365 
L 298.81584 607.426374 
L 298.43888 606.758068 
L 298.06192 609.133151 
L 297.68496 610.583836 
L 296.93104 607.390977 
L 296.55408 606.99796 
L 296.17712 611.521451 
L 295.80512 609.701238 
L 295.42816 606.681619 
L 295.05616 605.531427 
L 294.6792 603.730382 
L 294.3072 600.85945 
L 293.93024 605.162171 
L 293.55824 603.891284 
L 293.18624 601.103614 
L 292.81424 603.203898 
L 292.44224 604.592414 
L 292.07024 606.888455 
L 291.69824 605.054397 
L 291.32624 607.662174 
L 290.9592 609.277004 
L 290.5872 608.914725 
L 290.22016 608.246453 
L 289.84816 606.965307 
L 289.48112 607.004582 
L 289.10912 602.947836 
L 288.74208 602.692357 
L 288.37504 599.318521 
L 288.00304 602.61581 
L 287.636 600.722541 
L 287.26896 602.592851 
L 286.90192 601.763368 
L 286.53984 605.100309 
L 286.1728 606.454014 
L 285.80576 606.433018 
L 285.43872 606.567867 
L 285.07664 606.580178 
L 284.7096 607.763277 
L 284.34752 611.039406 
L 283.98048 607.682688 
L 283.6184 605.878846 
L 283.25632 606.364293 
L 282.88928 606.545475 
L 282.5272 604.927036 
L 282.16512 601.542095 
L 281.80304 602.659548 
L 281.44096 601.578055 
L 281.07888 601.396626 
L 280.35968 605.467639 
L 279.9976 604.370244 
L 279.64048 605.872623 
L 279.2784 608.837085 
L 278.92128 608.454152 
L 278.5592 605.821374 
L 278.20208 606.751599 
L 277.84496 603.887304 
L 277.48288 604.093888 
L 277.12576 603.215171 
L 276.76864 599.020093 
L 276.41152 600.856697 
L 276.0544 600.598165 
L 275.34512 597.378019 
L 274.988 597.463381 
L 274.63088 599.589924 
L 274.27872 597.394035 
L 273.9216 601.205552 
L 273.56944 601.713281 
L 273.21232 600.459108 
L 272.86016 605.528131 
L 272.508 607.311156 
L 272.15088 605.54028 
L 271.79872 607.620306 
L 271.44656 605.624114 
L 271.0944 606.901946 
L 270.74224 602.558615 
L 270.39008 602.884336 
L 270.04288 601.473358 
L 269.69072 600.616909 
L 268.99136 595.206063 
L 268.6392 597.825109 
L 268.28704 598.625161 
L 267.93984 600.16306 
L 267.59264 598.247605 
L 267.24048 602.899919 
L 266.89328 605.115467 
L 266.54608 604.654204 
L 266.19888 606.948293 
L 265.85168 608.08586 
L 265.50448 605.240258 
L 265.15728 605.476493 
L 264.81008 605.422463 
L 264.46288 602.330423 
L 264.11568 602.603942 
L 263.77344 600.577795 
L 263.42624 597.359992 
L 263.084 595.64938 
L 262.7368 596.916538 
L 262.39456 592.604151 
L 262.04736 593.992752 
L 261.70512 598.390022 
L 261.36288 598.405884 
L 261.02064 596.896725 
L 260.6784 599.552624 
L 260.33616 600.738196 
L 259.65168 605.030909 
L 259.30944 603.208818 
L 258.9672 604.354686 
L 258.62496 602.878234 
L 258.28768 600.79704 
L 257.94544 600.193167 
L 257.6032 599.831964 
L 256.24912 590.114556 
L 255.91184 591.192868 
L 255.5696 591.03834 
L 255.23232 594.510397 
L 254.89504 594.493168 
L 254.55776 593.869098 
L 254.22048 600.804049 
L 253.8832 597.860975 
L 253.2136 603.389557 
L 252.87632 600.331081 
L 252.544 604.930267 
L 252.20672 601.342088 
L 251.86944 602.332301 
L 251.53712 600.499579 
L 251.2048 596.709678 
L 250.5352 592.158422 
L 250.20288 592.488803 
L 249.87056 589.248365 
L 249.53328 592.679526 
L 249.20096 588.698451 
L 248.54128 595.413282 
L 247.87664 599.625203 
L 247.54432 599.827503 
L 247.212 600.349895 
L 246.88464 598.964202 
L 246.55232 600.268414 
L 246.22496 596.360053 
L 245.89264 597.906256 
L 245.56528 593.951594 
L 244.57824 586.373627 
L 244.25088 588.94578 
L 243.59616 586.496046 
L 243.2688 589.206887 
L 242.94144 593.473472 
L 242.61408 593.419479 
L 242.28672 596.856241 
L 241.63696 600.569365 
L 241.3096 603.806219 
L 240.9872 603.90893 
L 240.65984 603.244714 
L 240.33744 598.721651 
L 240.01008 596.352175 
L 239.68768 597.819705 
L 239.36528 591.543829 
L 239.03792 590.695508 
L 238.71552 586.709463 
L 238.39312 589.136521 
L 238.07072 586.314857 
L 237.74832 587.517438 
L 237.42592 589.543776 
L 237.10352 590.479341 
L 236.78112 592.722455 
L 236.45872 598.830307 
L 236.14128 597.747761 
L 235.81888 597.954063 
L 235.49648 600.138337 
L 235.17904 601.038043 
L 234.85664 600.346998 
L 233.89936 595.265852 
L 233.58192 591.451368 
L 233.26448 593.204526 
L 232.94704 586.976973 
L 232.62464 588.98708 
L 232.3072 585.942547 
L 231.98976 585.857019 
L 231.67232 584.653778 
L 231.35984 588.057486 
L 231.0424 586.6743 
L 230.72496 588.508149 
L 230.40752 591.907711 
L 230.09504 591.723277 
L 229.14768 601.681288 
L 228.83024 599.030529 
L 228.51776 600.025055 
L 228.20528 600.265067 
L 227.88784 600.165603 
L 227.57536 600.528677 
L 226.63792 593.346826 
L 226.32544 588.017828 
L 226.01296 587.339922 
L 225.70048 584.870055 
L 225.388 585.065098 
L 225.07552 586.696977 
L 224.768 585.136116 
L 224.45552 588.855224 
L 224.14304 588.26531 
L 223.83552 588.759848 
L 223.52304 593.110587 
L 223.21552 595.496324 
L 222.90304 595.90501 
L 222.59552 600.235305 
L 222.28304 600.151267 
L 221.97552 601.616652 
L 221.668 605.909802 
L 221.36048 601.693755 
L 221.05296 601.927067 
L 220.74544 596.210748 
L 220.43792 596.345766 
L 220.1304 591.744927 
L 219.82288 589.625499 
L 219.51536 589.784213 
L 219.20784 587.397391 
L 218.90032 581.598894 
L 218.59776 582.934167 
L 218.29024 585.467102 
L 217.68016 588.29822 
L 217.37264 592.652741 
L 217.07008 592.193952 
L 216.76752 596.767557 
L 216.46 596.636677 
L 215.85488 603.018211 
L 215.55232 603.43578 
L 215.24976 603.58727 
L 214.94224 604.482894 
L 214.63968 603.527336 
L 214.33712 601.392038 
L 214.03952 596.200934 
L 213.73696 595.47605 
L 213.4344 588.777413 
L 213.13184 590.412682 
L 212.53168 585.445205 
L 211.93152 589.559672 
L 211.33136 587.983836 
L 211.0288 588.149565 
L 210.7312 588.603595 
L 210.13104 593.157622 
L 209.83344 597.791169 
L 209.53584 597.528619 
L 209.23824 601.774291 
L 208.94064 600.481439 
L 208.64304 604.749942 
L 208.34544 602.947246 
L 208.04784 602.521188 
L 207.75024 598.65472 
L 207.45264 597.515831 
L 207.15504 595.576852 
L 206.8624 592.7743 
L 206.5648 588.446672 
L 206.2672 589.909447 
L 205.97456 587.750744 
L 205.67696 583.445468 
L 205.38432 583.717961 
L 205.09168 584.284664 
L 204.79408 585.120554 
L 204.50144 587.275034 
L 204.2088 591.118297 
L 203.9112 590.535162 
L 203.32592 598.682749 
L 203.03328 599.464478 
L 202.74064 602.287916 
L 202.448 603.95294 
L 202.15536 604.299784 
L 201.2824 597.658251 
L 200.98976 592.97734 
L 200.69712 591.384743 
L 200.40944 587.639565 
L 199.82416 585.741086 
L 199.53648 580.646524 
L 199.2488 581.810705 
L 198.95616 583.502845 
L 198.66848 581.924394 
L 198.3808 582.811134 
L 198.08816 585.826402 
L 197.80048 584.685267 
L 197.5128 586.92929 
L 196.64976 598.219316 
L 196.36208 597.901446 
L 196.0744 601.933175 
L 195.78672 602.46682 
L 195.49904 606.790271 
L 195.21136 606.577681 
L 194.64096 607.483594 
L 194.35328 604.468679 
L 194.07056 598.369154 
L 193.78288 596.305071 
L 193.21248 589.355588 
L 192.92976 588.619008 
L 192.64208 587.149014 
L 192.35936 582.501043 
L 192.07664 586.009798 
L 191.79392 585.652317 
L 191.5112 586.298965 
L 191.22352 587.619541 
L 190.9408 586.466654 
L 190.65808 592.518561 
L 190.09264 598.038828 
L 189.80992 600.446838 
L 189.53216 601.164711 
L 188.96672 607.531116 
L 188.684 605.167569 
L 188.40624 605.68581 
L 188.12352 602.90617 
L 187.8408 602.884443 
L 187.56304 601.01545 
L 187.28032 593.724576 
L 187.00256 593.364689 
L 186.7248 593.98918 
L 186.44208 587.46116 
L 186.16432 586.767814 
L 185.88656 587.99025 
L 185.6088 585.135388 
L 185.32608 584.707921 
L 185.04832 579.895042 
L 184.77056 589.824343 
L 184.4928 588.044745 
L 184.21504 589.614068 
L 183.93728 589.1346 
L 183.10896 598.070554 
L 182.8312 600.339318 
L 182.55344 605.844169 
L 182.27568 605.602498 
L 182.00288 604.816056 
L 181.72512 604.479482 
L 181.45232 604.385486 
L 181.17456 599.28742 
L 180.90176 598.773317 
L 180.3512 589.922958 
L 180.0784 589.481231 
L 179.52784 585.2036 
L 179.25504 585.729005 
L 178.98224 583.707174 
L 178.70944 586.129484 
L 178.43664 586.079996 
L 177.34544 604.907372 
L 177.07264 604.863915 
L 176.79984 609.118657 
L 176.52704 608.724287 
L 176.2592 609.933392 
L 175.9864 609.238946 
L 175.44576 603.616285 
L 175.17296 600.160559 
L 174.90512 598.547028 
L 174.63232 595.515547 
L 174.36448 594.256162 
L 174.09168 589.318018 
L 173.82384 588.766636 
L 173.556 587.440295 
L 173.28816 587.139995 
L 173.01536 587.437693 
L 172.74752 590.293363 
L 172.47968 591.620286 
L 172.21184 593.913722 
L 171.944 599.314949 
L 171.67616 601.08644 
L 171.40832 605.198798 
L 170.87264 607.07057 
L 170.6048 611.804682 
L 169.80624 607.964449 
L 168.7448 596.20682 
L 168.21408 592.052259 
L 167.94624 588.020767 
L 167.68336 590.15161 
L 167.42048 587.289686 
L 167.1576 590.361456 
L 166.88976 588.152618 
L 166.62688 592.286346 
L 166.364 589.933828 
L 166.10112 592.846826 
L 165.83824 598.568612 
L 165.0496 607.484665 
L 164.78672 605.928636 
L 164.52384 609.815051 
L 164.26096 611.365652 
L 163.99808 611.609487 
L 163.74016 609.079511 
L 163.47728 605.170146 
L 163.2144 603.77628 
L 162.95648 604.377714 
L 162.43072 595.957482 
L 162.1728 592.483426 
L 161.90992 590.741248 
L 161.652 587.453405 
L 161.39408 589.775433 
L 161.1312 588.737467 
L 160.87328 590.56472 
L 160.61536 588.736881 
L 160.09456 591.814701 
L 159.83664 596.397125 
L 159.57872 597.007118 
L 159.3208 602.722103 
L 159.06288 603.945149 
L 158.80496 608.167236 
L 158.54704 607.590016 
L 158.28912 610.72774 
L 158.0312 611.868076 
L 157.77328 611.409603 
L 157.52032 611.615755 
L 157.2624 610.355858 
L 157.00448 606.837229 
L 156.74656 606.584153 
L 156.4936 604.489587 
L 156.23568 600.531624 
L 155.98272 599.487781 
L 155.7248 597.675114 
L 155.47184 594.177464 
L 155.21392 594.577153 
L 154.96096 594.403446 
L 154.70304 591.03563 
L 154.45008 591.650538 
L 154.19712 593.676989 
L 153.94416 593.04226 
L 153.68624 594.762714 
L 153.43328 595.203984 
L 153.18032 599.702613 
L 152.92736 599.63769 
L 152.6744 600.284129 
L 152.42144 606.017373 
L 152.16848 606.645423 
L 151.91552 608.017637 
L 151.4096 614.630535 
L 151.15664 611.452438 
L 150.65568 613.713223 
L 150.40272 609.472788 
L 150.15472 607.344191 
L 149.90176 602.763661 
L 149.6488 600.745951 
L 149.4008 597.856698 
L 149.14784 598.912366 
L 148.89984 599.367959 
L 148.64688 594.980994 
L 148.39888 595.551265 
L 148.15088 593.328955 
L 147.89792 592.841928 
L 147.64992 594.373045 
L 147.40192 596.621519 
L 147.14896 596.316063 
L 146.90096 597.325357 
L 146.40496 602.335355 
L 146.15696 605.95309 
L 145.90896 604.45651 
L 145.41296 613.938285 
L 145.16496 613.148081 
L 144.91696 613.834439 
L 144.66896 615.627498 
L 144.42592 614.843851 
L 143.92992 611.610809 
L 143.68192 605.800015 
L 143.43888 606.782207 
L 143.19088 603.355709 
L 142.94288 602.031409 
L 142.2088 595.838522 
L 141.96576 599.226256 
L 141.71776 598.12646 
L 141.47472 599.838062 
L 141.22672 597.282451 
L 140.98368 599.201416 
L 140.2496 607.44554 
L 140.00656 608.566346 
L 139.76352 611.101414 
L 139.52048 616.288335 
L 139.27744 615.315081 
L 139.0344 617.7833 
L 138.79136 617.558355 
L 138.54832 616.868189 
L 138.30528 614.705599 
L 138.06224 615.040659 
L 137.82416 613.56333 
L 137.33808 608.140804 
L 137.09504 608.090427 
L 136.85696 604.663668 
L 136.61392 604.334404 
L 136.37088 601.853892 
L 136.1328 603.278884 
L 135.88976 600.302497 
L 135.65168 603.701805 
L 135.40864 601.393894 
L 135.17056 602.637761 
L 134.68944 603.448998 
L 134.45136 607.221001 
L 134.21328 607.861543 
L 133.73216 611.349443 
L 133.256 619.944953 
L 133.01792 618.158015 
L 132.77984 621.592007 
L 132.54176 620.236855 
L 132.30368 619.989124 
L 132.0656 621.134959 
L 131.82752 618.245962 
L 131.58944 617.501584 
L 131.35136 612.303747 
L 131.11328 610.733231 
L 130.8752 611.115502 
L 130.63712 609.078427 
L 130.404 602.579424 
L 130.16592 604.182534 
L 129.92784 607.530416 
L 129.69472 605.674046 
L 129.45664 607.701948 
L 129.22352 608.597683 
L 128.98544 608.658125 
L 128.75232 608.870587 
L 128.04304 617.197319 
L 127.80992 616.421807 
L 127.33872 622.275782 
L 127.1056 622.69661 
L 126.87248 625.426612 
L 126.40624 621.98666 
L 126.16816 619.079598 
L 125.93504 618.769581 
L 125.70192 615.485863 
L 125.4688 615.707305 
L 125.23568 612.270189 
L 124.76944 609.183733 
L 124.54128 609.28175 
L 124.30816 607.564253 
L 124.07504 607.667483 
L 123.84192 606.799763 
L 123.6088 607.754214 
L 123.38064 608.206472 
L 122.68624 616.459292 
L 122.45312 617.608719 
L 122.22496 621.106428 
L 121.99184 621.367479 
L 121.76368 622.747992 
L 121.53056 623.17294 
L 121.06928 621.937885 
L 120.84112 622.264585 
L 120.61296 617.935049 
L 120.37984 618.17697 
L 119.92352 612.784836 
L 119.69536 615.013755 
L 119.4672 612.157534 
L 119.23904 613.641152 
L 119.00592 612.096424 
L 118.77776 612.826674 
L 118.5496 612.214633 
L 118.09328 614.004655 
L 117.87008 614.029368 
L 117.64192 615.129953 
L 116.95744 621.544782 
L 116.72928 621.958612 
L 116.50608 620.038814 
L 116.27792 623.121199 
L 116.04976 623.316229 
L 115.82656 627.632754 
L 115.5984 624.937338 
L 115.3752 626.665598 
L 115.14704 626.720273 
L 114.92384 622.716433 
L 114.69568 624.657233 
L 114.47248 623.363121 
L 114.02112 617.913671 
L 113.79792 619.847658 
L 113.56976 618.444295 
L 113.34656 613.632444 
L 113.12336 615.19943 
L 112.90016 613.249451 
L 112.2256 615.962267 
L 112.0024 618.313085 
L 111.7792 619.246093 
L 111.556 621.766127 
L 111.3328 622.488201 
L 111.1096 624.100589 
L 110.8864 622.793871 
L 110.44 627.791902 
L 110.22176 628.848014 
L 109.99856 628.587818 
L 109.77536 628.027963 
L 109.55216 629.918566 
L 109.33392 629.978281 
L 109.11072 629.506039 
L 108.88752 627.509997 
L 108.66928 626.835945 
L 108.44608 625.557811 
L 108.22784 623.44097 
L 107.7864 621.454962 
L 107.34496 619.326423 
L 107.12176 615.838308 
L 106.90352 620.048846 
L 106.68528 616.889792 
L 106.24384 619.714389 
L 106.0256 618.993232 
L 105.80736 621.723956 
L 105.58416 621.471624 
L 105.36592 622.603409 
L 105.14768 625.081765 
L 104.92944 624.314451 
L 104.49296 628.760209 
L 104.27472 630.715283 
L 104.05648 631.50221 
L 103.83824 631.680809 
L 103.62 629.941317 
L 103.40176 632.758398 
L 103.18352 628.523543 
L 102.97024 631.1674 
L 102.53376 627.262017 
L 102.31552 625.935043 
L 102.10224 627.462268 
L 101.884 624.086216 
L 101.66576 625.842435 
L 101.45248 622.129061 
L 101.23424 624.194175 
L 101.02096 624.394607 
L 100.80272 621.606579 
L 100.58944 622.175447 
L 100.3712 623.790883 
L 100.15792 622.69291 
L 99.94464 619.68892 
L 99.51312 626.045681 
L 99.29984 624.237844 
L 98.65504 630.129621 
L 98.44176 628.27145 
L 98.22848 630.965764 
L 98.01024 631.178513 
L 97.79696 633.421059 
L 97.58368 633.533993 
L 97.3704 634.874811 
L 97.15712 632.416796 
L 96.94384 634.804036 
L 96.73056 633.521024 
L 96.51728 633.84637 
L 96.30896 633.584476 
L 96.09568 630.262146 
L 95.8824 631.264081 
L 95.66912 631.115693 
L 95.45584 631.778235 
L 95.03424 630.454897 
L 94.82096 628.621818 
L 94.61264 627.888692 
L 94.39936 629.979771 
L 94.18608 625.002114 
L 93.97776 627.395049 
L 93.76448 627.03911 
L 93.55616 627.265037 
L 93.34288 628.012566 
L 92.92624 631.473912 
L 92.71296 631.137607 
L 92.29632 631.813328 
L 92.08304 631.776072 
L 91.87472 636.538646 
L 91.6664 635.556422 
L 91.45808 636.412881 
L 91.2448 636.346387 
L 91.03648 635.467975 
L 90.82816 635.435038 
L 90.61984 637.74275 
L 90.41152 634.960257 
L 90.2032 634.293644 
L 89.99488 634.987341 
L 89.78656 634.264107 
L 89.57824 632.108247 
L 89.36992 634.101582 
L 89.1616 633.768344 
L 88.95328 631.56439 
L 88.5416 632.029631 
L 88.33328 631.69178 
L 88.12496 632.906341 
L 87.91664 631.21664 
L 87.71328 632.390447 
L 87.50496 629.556292 
L 87.29664 632.219135 
L 87.09328 630.57418 
L 86.88496 630.412545 
L 86.47328 632.733796 
L 86.0616 636.858035 
L 85.85824 636.283002 
L 85.64992 636.812603 
L 85.44656 638.439535 
L 85.2432 637.23349 
L 85.03488 638.629522 
L 84.83152 638.395207 
L 84.62816 638.467214 
L 84.4248 637.988269 
L 84.21648 639.137922 
L 84.01312 638.69248 
L 83.6064 637.516207 
L 83.40304 637.346955 
L 83.19968 638.026938 
L 82.99632 633.413242 
L 82.79296 637.222408 
L 82.38624 633.700895 
L 82.18288 635.125607 
L 81.97952 635.019803 
L 81.77616 637.141429 
L 81.5728 634.357745 
L 81.17104 637.287124 
L 80.96768 635.362234 
L 80.76432 635.430056 
L 80.36256 638.359616 
L 79.9608 636.567814 
L 79.75744 638.492746 
L 79.55408 637.945683 
L 79.35568 638.244336 
L 78.95392 640.209304 
L 78.55216 639.435308 
L 78.1504 641.003767 
L 77.952 640.120589 
L 77.7536 638.328005 
L 77.55024 639.696754 
L 77.15344 637.728959 
L 76.95504 638.519593 
L 76.55328 636.525944 
L 76.35488 638.826026 
L 76.15648 637.022106 
L 75.95808 636.717581 
L 75.75968 638.074038 
L 75.56128 638.463313 
L 75.36288 637.328353 
L 75.16448 638.634312 
L 74.96608 638.227986 
L 74.76768 640.839019 
L 74.37088 639.522264 
L 74.17744 640.090986 
L 73.97904 639.914425 
L 73.78064 642.026817 
L 73.58224 641.369694 
L 73.3888 641.846517 
L 72.992 640.52315 
L 72.79856 640.624176 
L 72.60016 641.1464 
L 72.40176 640.363917 
L 72.20832 640.508487 
L 72.00992 641.079508 
L 72.00992 641.079508 
" clip-path="url(#p10873b9bd2)" style="fill: none; stroke-dasharray: 3.7,1.6; stroke-dashoffset: 0; stroke: #808080"/>
   </g>
   <g id="line2d_28">
    <path d="M 72 598.8 
L 518.4 598.8 
" clip-path="url(#p10873b9bd2)" style="fill: none; stroke-dasharray: 5.55,2.4; stroke-dashoffset: 0; stroke: #000000; stroke-width: 1.5"/>
   </g>
   <g id="patch_9">
    <path d="M 72 640.8 
L 72 556.8 
" style="fill: none; stroke: #000000; stroke-width: 0.8; stroke-linejoin: miter; stroke-linecap: square"/>
   </g>
   <g id="patch_10">
    <path d="M 518.4 640.8 
L 518.4 556.8 
" style="fill: none; stroke: #000000; stroke-width: 0.8; stroke-linejoin: miter; stroke-linecap: square"/>
   </g>
   <g id="patch_11">
    <path d="M 72 640.8 
L 518.4 640.8 
" style="fill: none; stroke: #000000; stroke-width: 0.8; stroke-linejoin: miter; stroke-linecap: square"/>
   </g>
   <g id="patch_12">
    <path d="M 72 556.8 
L 518.4 556.8 
" style="fill: none; stroke: #000000; stroke-width: 0.8; stroke-linejoin: miter; stroke-linecap: square"/>
   </g>
  </g>
  <g id="text_22">
   <!-- Photon energy (eV) -->
   <g transform="translate(229.8825 710.304375) scale(0.12 -0.12)">
    <defs>
     <path id="DejaVuSans-50" d="M 1259 4147 
L 1259 2394 
L 2053 2394 
Q 2494 2394 2734 2622 
Q 2975 2850 2975 3272 
Q 2975 3691 2734 3919 
Q 2494 4147 2053 4147 
L 1259 4147 
z
M 628 4666 
L 2053 4666 
Q 2838 4666 3239 4311 
Q 3641 3956 3641 3272 
Q 3641 2581 3239 2228 
Q 2838 1875 2053 1875 
L 1259 1875 
L 1259 0 
L 628 0 
L 628 4666 
z
" transform="scale(0.015625)"/>
     <path id="DejaVuSans-68" d="M 3513 2113 
L 3513 0 
L 2938 0 
L 2938 2094 
Q 2938 2591 2744 2837 
Q 2550 3084 2163 3084 
Q 1697 3084 1428 2787 
Q 1159 2491 1159 1978 
L 1159 0 
L 581 0 
L 581 4863 
L 1159 4863 
L 1159 2956 
Q 1366 3272 1645 3428 
Q 1925 3584 2291 3584 
Q 2894 3584 3203 3211 
Q 3513 2838 3513 2113 
z
" transform="scale(0.015625)"/>
     <path id="DejaVuSans-67" d="M 2906 1791 
Q 2906 2416 2648 2759 
Q 2391 3103 1925 3103 
Q 1463 3103 1205 2759 
Q 947 2416 947 1791 
Q 947 1169 1205 825 
Q 1463 481 1925 481 
Q 2391 481 2648 825 
Q 2906 1169 2906 1791 
z
M 3481 434 
Q 3481 -459 3084 -895 
Q 2688 -1331 1869 -1331 
Q 1566 -1331 1297 -1286 
Q 1028 -1241 775 -1147 
L 775 -588 
Q 1028 -725 1275 -790 
Q 1522 -856 1778 -856 
Q 2344 -856 2625 -561 
Q 2906 -266 2906 331 
L 2906 616 
Q 2728 306 2450 153 
Q 2172 0 1784 0 
Q 1141 0 747 490 
Q 353 981 353 1791 
Q 353 2603 747 3093 
Q 1141 3584 1784 3584 
Q 2172 3584 2450 3431 
Q 2728 3278 2906 2969 
L 2906 3500 
L 3481 3500 
L 3481 434 
z
" transform="scale(0.015625)"/>
     <path id="DejaVuSans-56" d="M 1831 0 
L 50 4666 
L 709 4666 
L 2188 738 
L 3669 4666 
L 4325 4666 
L 2547 0 
L 1831 0 
z
" transform="scale(0.015625)"/>
    </defs>
    <use xlink:href="#DejaVuSans-50"/>
    <use xlink:href="#DejaVuSans-68" transform="translate(60.302734 0)"/>
    <use xlink:href="#DejaVuSans-6f" transform="translate(123.681641 0)"/>
    <use xlink:href="#DejaVuSans-74" transform="translate(184.863281 0)"/>
    <use xlink:href="#DejaVuSans-6f" transform="translate(224.072266 0)"/>
    <use xlink:href="#DejaVuSans-6e" transform="translate(285.253906 0)"/>
    <use xlink:href="#DejaVuSans-20" transform="translate(348.632812 0)"/>
    <use xlink:href="#DejaVuSans-65" transform="translate(380.419922 0)"/>
    <use xlink:href="#DejaVuSans-6e" transform="translate(441.943359 0)"/>
    <use xlink:href="#DejaVuSans-65" transform="translate(505.322266 0)"/>
    <use xlink:href="#DejaVuSans-72" transform="translate(566.845703 0)"/>
    <use xlink:href="#DejaVuSans-67" transform="translate(606.208984 0)"/>
    <use xlink:href="#DejaVuSans-79" transform="translate(669.685547 0)"/>
    <use xlink:href="#DejaVuSans-20" transform="translate(728.865234 0)"/>
    <use xlink:href="#DejaVuSans-28" transform="translate(760.652344 0)"/>
    <use xlink:href="#DejaVuSans-65" transform="translate(799.666016 0)"/>
    <use xlink:href="#DejaVuSans-56" transform="translate(861.189453 0)"/>
    <use xlink:href="#DejaVuSans-29" transform="translate(929.597656 0)"/>
   </g>
  </g>
  <g id="text_23">
   <!-- Excitation power 1.1 mW -->
   <g transform="translate(212.689687 23.518125) scale(0.12 -0.12)">
    <defs>
     <path id="DejaVuSans-45" d="M 628 4666 
L 3578 4666 
L 3578 4134 
L 1259 4134 
L 1259 2753 
L 3481 2753 
L 3481 2222 
L 1259 2222 
L 1259 531 
L 3634 531 
L 3634 0 
L 628 0 
L 628 4666 
z
" transform="scale(0.015625)"/>
     <path id="DejaVuSans-78" d="M 3513 3500 
L 2247 1797 
L 3578 0 
L 2900 0 
L 1881 1375 
L 863 0 
L 184 0 
L 1544 1831 
L 300 3500 
L 978 3500 
L 1906 2253 
L 2834 3500 
L 3513 3500 
z
" transform="scale(0.015625)"/>
     <path id="DejaVuSans-70" d="M 1159 525 
L 1159 -1331 
L 581 -1331 
L 581 3500 
L 1159 3500 
L 1159 2969 
Q 1341 3281 1617 3432 
Q 1894 3584 2278 3584 
Q 2916 3584 3314 3078 
Q 3713 2572 3713 1747 
Q 3713 922 3314 415 
Q 2916 -91 2278 -91 
Q 1894 -91 1617 61 
Q 1341 213 1159 525 
z
M 3116 1747 
Q 3116 2381 2855 2742 
Q 2594 3103 2138 3103 
Q 1681 3103 1420 2742 
Q 1159 2381 1159 1747 
Q 1159 1113 1420 752 
Q 1681 391 2138 391 
Q 2594 391 2855 752 
Q 3116 1113 3116 1747 
z
" transform="scale(0.015625)"/>
     <path id="DejaVuSans-77" d="M 269 3500 
L 844 3500 
L 1563 769 
L 2278 3500 
L 2956 3500 
L 3675 769 
L 4391 3500 
L 4966 3500 
L 4050 0 
L 3372 0 
L 2619 2869 
L 1863 0 
L 1184 0 
L 269 3500 
z
" transform="scale(0.015625)"/>
     <path id="DejaVuSans-6d" d="M 3328 2828 
Q 3544 3216 3844 3400 
Q 4144 3584 4550 3584 
Q 5097 3584 5394 3201 
Q 5691 2819 5691 2113 
L 5691 0 
L 5113 0 
L 5113 2094 
Q 5113 2597 4934 2840 
Q 4756 3084 4391 3084 
Q 3944 3084 3684 2787 
Q 3425 2491 3425 1978 
L 3425 0 
L 2847 0 
L 2847 2094 
Q 2847 2600 2669 2842 
Q 2491 3084 2119 3084 
Q 1678 3084 1418 2786 
Q 1159 2488 1159 1978 
L 1159 0 
L 581 0 
L 581 3500 
L 1159 3500 
L 1159 2956 
Q 1356 3278 1631 3431 
Q 1906 3584 2284 3584 
Q 2666 3584 2933 3390 
Q 3200 3197 3328 2828 
z
" transform="scale(0.015625)"/>
     <path id="DejaVuSans-57" d="M 213 4666 
L 850 4666 
L 1831 722 
L 2809 4666 
L 3519 4666 
L 4500 722 
L 5478 4666 
L 6119 4666 
L 4947 0 
L 4153 0 
L 3169 4050 
L 2175 0 
L 1381 0 
L 213 4666 
z
" transform="scale(0.015625)"/>
    </defs>
    <use xlink:href="#DejaVuSans-45"/>
    <use xlink:href="#DejaVuSans-78" transform="translate(63.183594 0)"/>
    <use xlink:href="#DejaVuSans-63" transform="translate(120.613281 0)"/>
    <use xlink:href="#DejaVuSans-69" transform="translate(175.59375 0)"/>
    <use xlink:href="#DejaVuSans-74" transform="translate(203.376953 0)"/>
    <use xlink:href="#DejaVuSans-61" transform="translate(242.585938 0)"/>
    <use xlink:href="#DejaVuSans-74" transform="translate(303.865234 0)"/>
    <use xlink:href="#DejaVuSans-69" transform="translate(343.074219 0)"/>
    <use xlink:href="#DejaVuSans-6f" transform="translate(370.857422 0)"/>
    <use xlink:href="#DejaVuSans-6e" transform="translate(432.039062 0)"/>
    <use xlink:href="#DejaVuSans-20" transform="translate(495.417969 0)"/>
    <use xlink:href="#DejaVuSans-70" transform="translate(527.205078 0)"/>
    <use xlink:href="#DejaVuSans-6f" transform="translate(590.681641 0)"/>
    <use xlink:href="#DejaVuSans-77" transform="translate(651.863281 0)"/>
    <use xlink:href="#DejaVuSans-65" transform="translate(733.650391 0)"/>
    <use xlink:href="#DejaVuSans-72" transform="translate(795.173828 0)"/>
    <use xlink:href="#DejaVuSans-20" transform="translate(836.287109 0)"/>
    <use xlink:href="#DejaVuSans-31" transform="translate(868.074219 0)"/>
    <use xlink:href="#DejaVuSans-2e" transform="translate(931.697266 0)"/>
    <use xlink:href="#DejaVuSans-31" transform="translate(963.484375 0)"/>
    <use xlink:href="#DejaVuSans-20" transform="translate(1027.107422 0)"/>
    <use xlink:href="#DejaVuSans-6d" transform="translate(1058.894531 0)"/>
    <use xlink:href="#DejaVuSans-57" transform="translate(1156.306641 0)"/>
   </g>
  </g>
 </g>
 <defs>
  <clipPath id="p64e3283605">
   <rect x="72" y="86.4" width="446.4" height="420"/>
  </clipPath>
  <clipPath id="p10873b9bd2">
   <rect x="72" y="556.8" width="446.4" height="84"/>
  </clipPath>
 </defs>
</svg>
