<?xml version="1.0" encoding="utf-8" standalone="no"?>
<!DOCTYPE svg PUBLIC "-//W3C//DTD SVG 1.1//EN"
  "http://www.w3.org/Graphics/SVG/1.1/DTD/svg11.dtd">
<svg xmlns:xlink="http://www.w3.org/1999/xlink" width="576pt" height="720pt" viewBox="0 0 576 720" xmlns="http://www.w3.org/2000/svg" version="1.1">
 <metadata>
  <rdf:RDF xmlns:dc="http://purl.org/dc/elements/1.1/" xmlns:cc="http://creativecommons.org/ns#" xmlns:rdf="http://www.w3.org/1999/02/22-rdf-syntax-ns#">
   <cc:Work>
    <dc:type rdf:resource="http://purl.org/dc/dcmitype/StillImage"/>
    <dc:date>2026-06-10T15:01:55.273395</dc:date>
    <dc:format>image/svg+xml</dc:format>
    <dc:creator>
     <cc:Agent>
      <dc:title>Matplotlib v3.10.0, https://matplotlib.org/</dc:title>
     </cc:Agent>
    </dc:creator>
   </cc:Work>
  </rdf:RDF>
 </metadata>
 <defs>
  <style type="text/css">*{stroke-linejoin: round; stroke-linecap: butt}</style>
 </defs>
 <g id="figure_1">
  <g id="patch_1">
   <path d="M 0 720 
L 576 720 
L 576 0 
L 0 0 
z
" style="fill: #ffffff"/>
  </g>
  <g id="axes_1">
   <g id="patch_2">
    <path d="M 72 506.4 
L 518.4 506.4 
L 518.4 86.4 
L 72 86.4 
z
" style="fill: #ffffff"/>
   </g>
   <g id="matplotlib.axis_1">
    <g id="xtick_1">
     <g id="line2d_1">
      <defs>
       <path id="m3c964b94b2" d="M 0 0 
L 0 3.5 
" style="stroke: #000000; stroke-width: 0.8"/>
      </defs>
      <g>
       <use xlink:href="#m3c964b94b2" x="72" y="506.4" style="stroke: #000000; stroke-width: 0.8"/>
      </g>
     </g>
    </g>
    <g id="xtick_2">
     <g id="line2d_2">
      <g>
       <use xlink:href="#m3c964b94b2" x="171.2" y="506.4" style="stroke: #000000; stroke-width: 0.8"/>
      </g>
     </g>
    </g>
    <g id="xtick_3">
     <g id="line2d_3">
      <g>
       <use xlink:href="#m3c964b94b2" x="270.4" y="506.4" style="stroke: #000000; stroke-width: 0.8"/>
      </g>
     </g>
    </g>
    <g id="xtick_4">
     <g id="line2d_4">
      <g>
       <use xlink:href="#m3c964b94b2" x="369.6" y="506.4" style="stroke: #000000; stroke-width: 0.8"/>
      </g>
     </g>
    </g>
    <g id="xtick_5">
     <g id="line2d_5">
      <g>
       <use xlink:href="#m3c964b94b2" x="468.8" y="506.4" style="stroke: #000000; stroke-width: 0.8"/>
      </g>
     </g>
    </g>
   </g>
   <g id="matplotlib.axis_2">
    <g id="ytick_1">
     <g id="line2d_6">
      <defs>
       <path id="mdc943b8954" d="M 0 0 
L -3.5 0 
" style="stroke: #000000; stroke-width: 0.8"/>
      </defs>
      <g>
       <use xlink:href="#mdc943b8954" x="72" y="484.898454" style="stroke: #000000; stroke-width: 0.8"/>
      </g>
     </g>
     <g id="text_1">
      <!-- 0 -->
      <g transform="translate(58.6375 488.697672) scale(0.1 -0.1)">
       <defs>
        <path id="DejaVuSans-30" d="M 2034 4250 
Q 1547 4250 1301 3770 
Q 1056 3291 1056 2328 
Q 1056 1369 1301 889 
Q 1547 409 2034 409 
Q 2525 409 2770 889 
Q 3016 1369 3016 2328 
Q 3016 3291 2770 3770 
Q 2525 4250 2034 4250 
z
M 2034 4750 
Q 2819 4750 3233 4129 
Q 3647 3509 3647 2328 
Q 3647 1150 3233 529 
Q 2819 -91 2034 -91 
Q 1250 -91 836 529 
Q 422 1150 422 2328 
Q 422 3509 836 4129 
Q 1250 4750 2034 4750 
z
" transform="scale(0.015625)"/>
       </defs>
       <use xlink:href="#DejaVuSans-30"/>
      </g>
     </g>
    </g>
    <g id="ytick_2">
     <g id="line2d_7">
      <g>
       <use xlink:href="#mdc943b8954" x="72" y="437.280922" style="stroke: #000000; stroke-width: 0.8"/>
      </g>
     </g>
     <g id="text_2">
      <!-- 2000 -->
      <g transform="translate(39.55 441.080141) scale(0.1 -0.1)">
       <defs>
        <path id="DejaVuSans-32" d="M 1228 531 
L 3431 531 
L 3431 0 
L 469 0 
L 469 531 
Q 828 903 1448 1529 
Q 2069 2156 2228 2338 
Q 2531 2678 2651 2914 
Q 2772 3150 2772 3378 
Q 2772 3750 2511 3984 
Q 2250 4219 1831 4219 
Q 1534 4219 1204 4116 
Q 875 4013 500 3803 
L 500 4441 
Q 881 4594 1212 4672 
Q 1544 4750 1819 4750 
Q 2544 4750 2975 4387 
Q 3406 4025 3406 3419 
Q 3406 3131 3298 2873 
Q 3191 2616 2906 2266 
Q 2828 2175 2409 1742 
Q 1991 1309 1228 531 
z
" transform="scale(0.015625)"/>
       </defs>
       <use xlink:href="#DejaVuSans-32"/>
       <use xlink:href="#DejaVuSans-30" transform="translate(63.623047 0)"/>
       <use xlink:href="#DejaVuSans-30" transform="translate(127.246094 0)"/>
       <use xlink:href="#DejaVuSans-30" transform="translate(190.869141 0)"/>
      </g>
     </g>
    </g>
    <g id="ytick_3">
     <g id="line2d_8">
      <g>
       <use xlink:href="#mdc943b8954" x="72" y="389.663391" style="stroke: #000000; stroke-width: 0.8"/>
      </g>
     </g>
     <g id="text_3">
      <!-- 4000 -->
      <g transform="translate(39.55 393.46261) scale(0.1 -0.1)">
       <defs>
        <path id="DejaVuSans-34" d="M 2419 4116 
L 825 1625 
L 2419 1625 
L 2419 4116 
z
M 2253 4666 
L 3047 4666 
L 3047 1625 
L 3713 1625 
L 3713 1100 
L 3047 1100 
L 3047 0 
L 2419 0 
L 2419 1100 
L 313 1100 
L 313 1709 
L 2253 4666 
z
" transform="scale(0.015625)"/>
       </defs>
       <use xlink:href="#DejaVuSans-34"/>
       <use xlink:href="#DejaVuSans-30" transform="translate(63.623047 0)"/>
       <use xlink:href="#DejaVuSans-30" transform="translate(127.246094 0)"/>
       <use xlink:href="#DejaVuSans-30" transform="translate(190.869141 0)"/>
      </g>
     </g>
    </g>
    <g id="ytick_4">
     <g id="line2d_9">
      <g>
       <use xlink:href="#mdc943b8954" x="72" y="342.04586" style="stroke: #000000; stroke-width: 0.8"/>
      </g>
     </g>
     <g id="text_4">
      <!-- 6000 -->
      <g transform="translate(39.55 345.845079) scale(0.1 -0.1)">
       <defs>
        <path id="DejaVuSans-36" d="M 2113 2584 
Q 1688 2584 1439 2293 
Q 1191 2003 1191 1497 
Q 1191 994 1439 701 
Q 1688 409 2113 409 
Q 2538 409 2786 701 
Q 3034 994 3034 1497 
Q 3034 2003 2786 2293 
Q 2538 2584 2113 2584 
z
M 3366 4563 
L 3366 3988 
Q 3128 4100 2886 4159 
Q 2644 4219 2406 4219 
Q 1781 4219 1451 3797 
Q 1122 3375 1075 2522 
Q 1259 2794 1537 2939 
Q 1816 3084 2150 3084 
Q 2853 3084 3261 2657 
Q 3669 2231 3669 1497 
Q 3669 778 3244 343 
Q 2819 -91 2113 -91 
Q 1303 -91 875 529 
Q 447 1150 447 2328 
Q 447 3434 972 4092 
Q 1497 4750 2381 4750 
Q 2619 4750 2861 4703 
Q 3103 4656 3366 4563 
z
" transform="scale(0.015625)"/>
       </defs>
       <use xlink:href="#DejaVuSans-36"/>
       <use xlink:href="#DejaVuSans-30" transform="translate(63.623047 0)"/>
       <use xlink:href="#DejaVuSans-30" transform="translate(127.246094 0)"/>
       <use xlink:href="#DejaVuSans-30" transform="translate(190.869141 0)"/>
      </g>
     </g>
    </g>
    <g id="ytick_5">
     <g id="line2d_10">
      <g>
       <use xlink:href="#mdc943b8954" x="72" y="294.428329" style="stroke: #000000; stroke-width: 0.8"/>
      </g>
     </g>
     <g id="text_5">
      <!-- 8000 -->
      <g transform="translate(39.55 298.227547) scale(0.1 -0.1)">
       <defs>
        <path id="DejaVuSans-38" d="M 2034 2216 
Q 1584 2216 1326 1975 
Q 1069 1734 1069 1313 
Q 1069 891 1326 650 
Q 1584 409 2034 409 
Q 2484 409 2743 651 
Q 3003 894 3003 1313 
Q 3003 1734 2745 1975 
Q 2488 2216 2034 2216 
z
M 1403 2484 
Q 997 2584 770 2862 
Q 544 3141 544 3541 
Q 544 4100 942 4425 
Q 1341 4750 2034 4750 
Q 2731 4750 3128 4425 
Q 3525 4100 3525 3541 
Q 3525 3141 3298 2862 
Q 3072 2584 2669 2484 
Q 3125 2378 3379 2068 
Q 3634 1759 3634 1313 
Q 3634 634 3220 271 
Q 2806 -91 2034 -91 
Q 1263 -91 848 271 
Q 434 634 434 1313 
Q 434 1759 690 2068 
Q 947 2378 1403 2484 
z
M 1172 3481 
Q 1172 3119 1398 2916 
Q 1625 2713 2034 2713 
Q 2441 2713 2670 2916 
Q 2900 3119 2900 3481 
Q 2900 3844 2670 4047 
Q 2441 4250 2034 4250 
Q 1625 4250 1398 4047 
Q 1172 3844 1172 3481 
z
" transform="scale(0.015625)"/>
       </defs>
       <use xlink:href="#DejaVuSans-38"/>
       <use xlink:href="#DejaVuSans-30" transform="translate(63.623047 0)"/>
       <use xlink:href="#DejaVuSans-30" transform="translate(127.246094 0)"/>
       <use xlink:href="#DejaVuSans-30" transform="translate(190.869141 0)"/>
      </g>
     </g>
    </g>
    <g id="ytick_6">
     <g id="line2d_11">
      <g>
       <use xlink:href="#mdc943b8954" x="72" y="246.810797" style="stroke: #000000; stroke-width: 0.8"/>
      </g>
     </g>
     <g id="text_6">
      <!-- 10000 -->
      <g transform="translate(33.1875 250.610016) scale(0.1 -0.1)">
       <defs>
        <path id="DejaVuSans-31" d="M 794 531 
L 1825 531 
L 1825 4091 
L 703 3866 
L 703 4441 
L 1819 4666 
L 2450 4666 
L 2450 531 
L 3481 531 
L 3481 0 
L 794 0 
L 794 531 
z
" transform="scale(0.015625)"/>
       </defs>
       <use xlink:href="#DejaVuSans-31"/>
       <use xlink:href="#DejaVuSans-30" transform="translate(63.623047 0)"/>
       <use xlink:href="#DejaVuSans-30" transform="translate(127.246094 0)"/>
       <use xlink:href="#DejaVuSans-30" transform="translate(190.869141 0)"/>
       <use xlink:href="#DejaVuSans-30" transform="translate(254.492188 0)"/>
      </g>
     </g>
    </g>
    <g id="ytick_7">
     <g id="line2d_12">
      <g>
       <use xlink:href="#mdc943b8954" x="72" y="199.193266" style="stroke: #000000; stroke-width: 0.8"/>
      </g>
     </g>
     <g id="text_7">
      <!-- 12000 -->
      <g transform="translate(33.1875 202.992485) scale(0.1 -0.1)">
       <use xlink:href="#DejaVuSans-31"/>
       <use xlink:href="#DejaVuSans-32" transform="translate(63.623047 0)"/>
       <use xlink:href="#DejaVuSans-30" transform="translate(127.246094 0)"/>
       <use xlink:href="#DejaVuSans-30" transform="translate(190.869141 0)"/>
       <use xlink:href="#DejaVuSans-30" transform="translate(254.492188 0)"/>
      </g>
     </g>
    </g>
    <g id="ytick_8">
     <g id="line2d_13">
      <g>
       <use xlink:href="#mdc943b8954" x="72" y="151.575735" style="stroke: #000000; stroke-width: 0.8"/>
      </g>
     </g>
     <g id="text_8">
      <!-- 14000 -->
      <g transform="translate(33.1875 155.374954) scale(0.1 -0.1)">
       <use xlink:href="#DejaVuSans-31"/>
       <use xlink:href="#DejaVuSans-34" transform="translate(63.623047 0)"/>
       <use xlink:href="#DejaVuSans-30" transform="translate(127.246094 0)"/>
       <use xlink:href="#DejaVuSans-30" transform="translate(190.869141 0)"/>
       <use xlink:href="#DejaVuSans-30" transform="translate(254.492188 0)"/>
      </g>
     </g>
    </g>
    <g id="ytick_9">
     <g id="line2d_14">
      <g>
       <use xlink:href="#mdc943b8954" x="72" y="103.958204" style="stroke: #000000; stroke-width: 0.8"/>
      </g>
     </g>
     <g id="text_9">
      <!-- 16000 -->
      <g transform="translate(33.1875 107.757423) scale(0.1 -0.1)">
       <use xlink:href="#DejaVuSans-31"/>
       <use xlink:href="#DejaVuSans-36" transform="translate(63.623047 0)"/>
       <use xlink:href="#DejaVuSans-30" transform="translate(127.246094 0)"/>
       <use xlink:href="#DejaVuSans-30" transform="translate(190.869141 0)"/>
       <use xlink:href="#DejaVuSans-30" transform="translate(254.492188 0)"/>
      </g>
     </g>
    </g>
    <g id="text_10">
     <!-- Intensitiy (a.u.) -->
     <g transform="translate(27.107812 334.453125) rotate(-90) scale(0.1 -0.1)">
      <defs>
       <path id="DejaVuSans-49" d="M 628 4666 
L 1259 4666 
L 1259 0 
L 628 0 
L 628 4666 
z
" transform="scale(0.015625)"/>
       <path id="DejaVuSans-6e" d="M 3513 2113 
L 3513 0 
L 2938 0 
L 2938 2094 
Q 2938 2591 2744 2837 
Q 2550 3084 2163 3084 
Q 1697 3084 1428 2787 
Q 1159 2491 1159 1978 
L 1159 0 
L 581 0 
L 581 3500 
L 1159 3500 
L 1159 2956 
Q 1366 3272 1645 3428 
Q 1925 3584 2291 3584 
Q 2894 3584 3203 3211 
Q 3513 2838 3513 2113 
z
" transform="scale(0.015625)"/>
       <path id="DejaVuSans-74" d="M 1172 4494 
L 1172 3500 
L 2356 3500 
L 2356 3053 
L 1172 3053 
L 1172 1153 
Q 1172 725 1289 603 
Q 1406 481 1766 481 
L 2356 481 
L 2356 0 
L 1766 0 
Q 1100 0 847 248 
Q 594 497 594 1153 
L 594 3053 
L 172 3053 
L 172 3500 
L 594 3500 
L 594 4494 
L 1172 4494 
z
" transform="scale(0.015625)"/>
       <path id="DejaVuSans-65" d="M 3597 1894 
L 3597 1613 
L 953 1613 
Q 991 1019 1311 708 
Q 1631 397 2203 397 
Q 2534 397 2845 478 
Q 3156 559 3463 722 
L 3463 178 
Q 3153 47 2828 -22 
Q 2503 -91 2169 -91 
Q 1331 -91 842 396 
Q 353 884 353 1716 
Q 353 2575 817 3079 
Q 1281 3584 2069 3584 
Q 2775 3584 3186 3129 
Q 3597 2675 3597 1894 
z
M 3022 2063 
Q 3016 2534 2758 2815 
Q 2500 3097 2075 3097 
Q 1594 3097 1305 2825 
Q 1016 2553 972 2059 
L 3022 2063 
z
" transform="scale(0.015625)"/>
       <path id="DejaVuSans-73" d="M 2834 3397 
L 2834 2853 
Q 2591 2978 2328 3040 
Q 2066 3103 1784 3103 
Q 1356 3103 1142 2972 
Q 928 2841 928 2578 
Q 928 2378 1081 2264 
Q 1234 2150 1697 2047 
L 1894 2003 
Q 2506 1872 2764 1633 
Q 3022 1394 3022 966 
Q 3022 478 2636 193 
Q 2250 -91 1575 -91 
Q 1294 -91 989 -36 
Q 684 19 347 128 
L 347 722 
Q 666 556 975 473 
Q 1284 391 1588 391 
Q 1994 391 2212 530 
Q 2431 669 2431 922 
Q 2431 1156 2273 1281 
Q 2116 1406 1581 1522 
L 1381 1569 
Q 847 1681 609 1914 
Q 372 2147 372 2553 
Q 372 3047 722 3315 
Q 1072 3584 1716 3584 
Q 2034 3584 2315 3537 
Q 2597 3491 2834 3397 
z
" transform="scale(0.015625)"/>
       <path id="DejaVuSans-69" d="M 603 3500 
L 1178 3500 
L 1178 0 
L 603 0 
L 603 3500 
z
M 603 4863 
L 1178 4863 
L 1178 4134 
L 603 4134 
L 603 4863 
z
" transform="scale(0.015625)"/>
       <path id="DejaVuSans-79" d="M 2059 -325 
Q 1816 -950 1584 -1140 
Q 1353 -1331 966 -1331 
L 506 -1331 
L 506 -850 
L 844 -850 
Q 1081 -850 1212 -737 
Q 1344 -625 1503 -206 
L 1606 56 
L 191 3500 
L 800 3500 
L 1894 763 
L 2988 3500 
L 3597 3500 
L 2059 -325 
z
" transform="scale(0.015625)"/>
       <path id="DejaVuSans-20" transform="scale(0.015625)"/>
       <path id="DejaVuSans-28" d="M 1984 4856 
Q 1566 4138 1362 3434 
Q 1159 2731 1159 2009 
Q 1159 1288 1364 580 
Q 1569 -128 1984 -844 
L 1484 -844 
Q 1016 -109 783 600 
Q 550 1309 550 2009 
Q 550 2706 781 3412 
Q 1013 4119 1484 4856 
L 1984 4856 
z
" transform="scale(0.015625)"/>
       <path id="DejaVuSans-61" d="M 2194 1759 
Q 1497 1759 1228 1600 
Q 959 1441 959 1056 
Q 959 750 1161 570 
Q 1363 391 1709 391 
Q 2188 391 2477 730 
Q 2766 1069 2766 1631 
L 2766 1759 
L 2194 1759 
z
M 3341 1997 
L 3341 0 
L 2766 0 
L 2766 531 
Q 2569 213 2275 61 
Q 1981 -91 1556 -91 
Q 1019 -91 701 211 
Q 384 513 384 1019 
Q 384 1609 779 1909 
Q 1175 2209 1959 2209 
L 2766 2209 
L 2766 2266 
Q 2766 2663 2505 2880 
Q 2244 3097 1772 3097 
Q 1472 3097 1187 3025 
Q 903 2953 641 2809 
L 641 3341 
Q 956 3463 1253 3523 
Q 1550 3584 1831 3584 
Q 2591 3584 2966 3190 
Q 3341 2797 3341 1997 
z
" transform="scale(0.015625)"/>
       <path id="DejaVuSans-2e" d="M 684 794 
L 1344 794 
L 1344 0 
L 684 0 
L 684 794 
z
" transform="scale(0.015625)"/>
       <path id="DejaVuSans-75" d="M 544 1381 
L 544 3500 
L 1119 3500 
L 1119 1403 
Q 1119 906 1312 657 
Q 1506 409 1894 409 
Q 2359 409 2629 706 
Q 2900 1003 2900 1516 
L 2900 3500 
L 3475 3500 
L 3475 0 
L 2900 0 
L 2900 538 
Q 2691 219 2414 64 
Q 2138 -91 1772 -91 
Q 1169 -91 856 284 
Q 544 659 544 1381 
z
M 1991 3584 
L 1991 3584 
z
" transform="scale(0.015625)"/>
       <path id="DejaVuSans-29" d="M 513 4856 
L 1013 4856 
Q 1481 4119 1714 3412 
Q 1947 2706 1947 2009 
Q 1947 1309 1714 600 
Q 1481 -109 1013 -844 
L 513 -844 
Q 928 -128 1133 580 
Q 1338 1288 1338 2009 
Q 1338 2731 1133 3434 
Q 928 4138 513 4856 
z
" transform="scale(0.015625)"/>
      </defs>
      <use xlink:href="#DejaVuSans-49"/>
      <use xlink:href="#DejaVuSans-6e" transform="translate(29.492188 0)"/>
      <use xlink:href="#DejaVuSans-74" transform="translate(92.871094 0)"/>
      <use xlink:href="#DejaVuSans-65" transform="translate(132.080078 0)"/>
      <use xlink:href="#DejaVuSans-6e" transform="translate(193.603516 0)"/>
      <use xlink:href="#DejaVuSans-73" transform="translate(256.982422 0)"/>
      <use xlink:href="#DejaVuSans-69" transform="translate(309.082031 0)"/>
      <use xlink:href="#DejaVuSans-74" transform="translate(336.865234 0)"/>
      <use xlink:href="#DejaVuSans-69" transform="translate(376.074219 0)"/>
      <use xlink:href="#DejaVuSans-79" transform="translate(403.857422 0)"/>
      <use xlink:href="#DejaVuSans-20" transform="translate(463.037109 0)"/>
      <use xlink:href="#DejaVuSans-28" transform="translate(494.824219 0)"/>
      <use xlink:href="#DejaVuSans-61" transform="translate(533.837891 0)"/>
      <use xlink:href="#DejaVuSans-2e" transform="translate(595.117188 0)"/>
      <use xlink:href="#DejaVuSans-75" transform="translate(626.904297 0)"/>
      <use xlink:href="#DejaVuSans-2e" transform="translate(690.283203 0)"/>
      <use xlink:href="#DejaVuSans-29" transform="translate(722.070312 0)"/>
     </g>
    </g>
   </g>
   <g id="line2d_15">
    <path d="M 518.29584 485.987104 
L 516.4656 485.443269 
L 515.85552 485.634995 
L 515.24544 486.398131 
L 514.63536 485.661314 
L 514.03024 485.495898 
L 513.42016 486.068564 
L 512.81504 485.903148 
L 512.20992 485.523453 
L 511.6048 486.096109 
L 510.99968 485.573562 
L 510.39952 486.003354 
L 509.7944 484.957014 
L 509.19424 485.553468 
L 508.58912 485.792801 
L 507.98896 485.34167 
L 507.3888 485.485758 
L 506.7936 485.058425 
L 505.59328 484.822807 
L 504.99808 485.276399 
L 504.40288 485.206197 
L 503.80768 485.421701 
L 503.21248 484.97056 
L 502.61728 485.281298 
L 502.02208 485.330141 
L 501.43184 485.093268 
L 500.83664 485.094493 
L 500.2464 484.762385 
L 499.65616 484.025528 
L 499.06592 485.098137 
L 497.88544 484.552965 
L 497.30016 484.93511 
L 496.70992 484.126826 
L 496.12464 484.889911 
L 495.53936 484.700646 
L 494.95408 484.916129 
L 494.3688 484.0126 
L 493.78352 484.68045 
L 493.2032 484.729262 
L 492.61792 484.111439 
L 492.0376 484.422147 
L 491.45728 483.661461 
L 490.87696 484.448344 
L 490.29664 483.973363 
L 489.71632 484.069793 
L 489.136 483.856708 
L 488.56064 483.310291 
L 487.98528 484.097164 
L 487.40496 483.931697 
L 486.8296 483.385279 
L 486.25424 483.600742 
L 485.67888 483.125751 
L 485.10848 482.888837 
L 484.53312 483.151918 
L 483.96272 482.581681 
L 483.38736 482.773336 
L 482.81696 482.845936 
L 482.24656 482.347126 
L 481.67616 482.372108 
L 481.11072 482.063758 
L 480.54032 482.255402 
L 479.96992 482.066106 
L 479.40448 481.995843 
L 478.83904 482.616035 
L 478.2736 481.760083 
L 477.70816 482.189804 
L 477.14272 482.405247 
L 476.57728 481.025502 
L 476.01184 481.383797 
L 475.45136 482.051596 
L 474.89088 481.219443 
L 474.32544 481.172989 
L 473.76496 481.316995 
L 473.20448 480.794356 
L 472.64896 481.414527 
L 472.08848 480.701417 
L 471.528 480.583527 
L 470.97248 480.346582 
L 470.41696 481.061989 
L 469.85648 480.706011 
L 469.30096 479.82623 
L 468.74544 481.23209 
L 468.19488 479.780888 
L 467.63936 479.329665 
L 467.08384 479.235573 
L 466.53328 479.474794 
L 465.98272 478.880708 
L 465.43216 479.215164 
L 464.8816 478.787739 
L 464.33104 477.598434 
L 463.22992 478.814947 
L 462.68432 479.077966 
L 462.13376 477.841043 
L 461.58816 478.056445 
L 461.04256 477.986142 
L 460.49696 476.820635 
L 459.95136 478.036005 
L 459.40576 477.465717 
L 458.31952 477.491762 
L 457.77392 476.135785 
L 456.152 476.472445 
L 455.61136 475.783104 
L 453.9944 475.738814 
L 453.45376 475.216134 
L 452.91808 473.574431 
L 452.3824 474.361223 
L 451.84672 473.600445 
L 451.31104 474.672942 
L 450.77536 474.578809 
L 450.23968 472.579975 
L 449.17328 473.415477 
L 448.64256 473.154672 
L 448.11184 473.465279 
L 447.57616 472.752118 
L 447.04544 471.824668 
L 446.51472 471.468629 
L 445.98896 471.779225 
L 445.45824 470.685114 
L 444.93248 470.090977 
L 444.40176 471.996771 
L 443.876 470.950267 
L 443.35024 470.427556 
L 442.29872 468.644063 
L 441.77296 467.883264 
L 441.2472 468.789079 
L 440.72144 470.432966 
L 439.67984 467.173309 
L 439.15408 468.388638 
L 438.63328 468.38971 
L 438.11248 465.91467 
L 437.59168 466.558578 
L 437.07584 465.678716 
L 436.55504 467.417827 
L 436.03424 465.252301 
L 435.5184 464.15816 
L 435.00256 465.373468 
L 434.48176 466.064994 
L 433.96592 464.161355 
L 433.45008 463.162448 
L 432.93424 463.73492 
L 432.42336 463.807398 
L 431.90752 463.689416 
L 431.39664 462.404794 
L 430.8808 462.31062 
L 430.36992 464.025903 
L 429.85904 461.9794 
L 429.34816 463.480404 
L 428.83728 462.81481 
L 428.3264 461.411144 
L 427.81552 458.174203 
L 427.30464 458.484769 
L 426.79872 459.866718 
L 425.78192 456.940333 
L 425.276 457.893724 
L 424.77008 458.275706 
L 424.26416 458.229129 
L 423.75824 454.516003 
L 423.25232 456.683642 
L 422.75136 455.113295 
L 422.24544 455.852407 
L 421.74448 453.615414 
L 421.24352 453.14027 
L 420.7376 453.950809 
L 420.23664 453.118533 
L 419.73568 453.500505 
L 419.23472 455.215767 
L 418.73872 452.454971 
L 418.23776 452.932177 
L 417.74176 450.528512 
L 417.2408 451.219998 
L 416.7448 451.411489 
L 416.2488 449.698278 
L 415.74784 450.389763 
L 415.25184 448.105143 
L 414.7608 450.48703 
L 414.2648 448.845246 
L 413.7688 446.46539 
L 413.27776 445.823564 
L 412.29072 445.516081 
L 411.79968 446.70753 
L 411.30368 444.637188 
L 410.81264 443.804892 
L 410.3216 444.401122 
L 409.83552 444.687827 
L 409.34448 442.355579 
L 408.85344 442.689912 
L 408.36736 440.381462 
L 407.87632 440.334855 
L 407.39024 442.240557 
L 406.90416 438.836903 
L 406.41808 439.48074 
L 405.932 436.815159 
L 405.44592 437.792319 
L 404.95984 437.840937 
L 404.47872 435.294389 
L 403.99264 434.581126 
L 403.51152 433.034547 
L 403.02544 433.583149 
L 402.54432 434.91743 
L 400.61984 430.231063 
L 400.13872 429.184468 
L 399.66256 429.92352 
L 399.18144 429.638804 
L 398.70528 427.377952 
L 398.22416 428.926512 
L 397.27184 425.142878 
L 396.79568 425.691459 
L 396.31952 426.025762 
L 395.84336 421.764973 
L 395.3672 423.813507 
L 394.896 423.100213 
L 394.41984 421.958373 
L 393.94864 422.483135 
L 393.47744 417.198559 
L 393.00128 419.889929 
L 392.53008 416.105305 
L 392.05888 418.034785 
L 391.58768 416.39295 
L 391.11648 416.870095 
L 390.65024 415.60919 
L 390.17904 415.586351 
L 389.7128 412.039804 
L 389.2416 413.802623 
L 388.77536 412.660761 
L 388.30912 410.542741 
L 387.84288 413.281708 
L 387.37664 408.520915 
L 386.9104 411.021795 
L 386.44416 405.403886 
L 385.97792 408.119044 
L 385.51168 406.905757 
L 385.0504 407.78763 
L 384.58416 405.407713 
L 384.12288 405.694368 
L 383.6616 399.6717 
L 383.20032 401.148792 
L 381.81648 399.794541 
L 381.3552 397.390805 
L 380.89392 398.43934 
L 380.4376 397.24984 
L 379.97632 397.512686 
L 379.52 396.966024 
L 378.60736 393.587057 
L 378.14608 395.326046 
L 377.68976 390.303336 
L 377.2384 389.851898 
L 376.78208 391.114702 
L 376.32576 385.639625 
L 375.86944 387.473839 
L 375.41808 388.260457 
L 374.5104 382.738692 
L 374.05904 382.192019 
L 373.60768 382.859593 
L 373.15632 379.289207 
L 372.70496 382.528128 
L 372.2536 381.457663 
L 371.80224 379.506273 
L 371.35088 381.364285 
L 370.90448 377.293905 
L 370.45312 378.628125 
L 370.00672 373.153027 
L 369.56032 372.820623 
L 369.11392 374.369112 
L 368.66256 370.060654 
L 368.21616 368.133063 
L 367.76976 369.062523 
L 367.32832 367.682524 
L 366.43552 362.541668 
L 365.99408 368.732855 
L 365.54768 361.305439 
L 365.10624 362.115845 
L 364.65984 361.164413 
L 364.2184 361.665306 
L 363.77696 360.094836 
L 363.33552 356.548238 
L 362.89408 356.406294 
L 362.45264 359.240446 
L 362.01616 357.836627 
L 361.57472 358.623225 
L 361.13328 355.60042 
L 360.6968 354.172792 
L 360.26032 351.721388 
L 359.81888 352.269898 
L 359.3824 352.104135 
L 358.94592 350.128905 
L 358.50944 349.606011 
L 358.07296 351.440184 
L 357.63648 347.560254 
L 357.2 345.370745 
L 356.76848 343.919299 
L 356.332 343.944006 
L 355.90048 344.20679 
L 355.464 341.303019 
L 355.03248 339.494441 
L 354.60096 339.209624 
L 354.16944 340.186671 
L 353.73296 336.33055 
L 353.30144 337.569493 
L 352.87488 336.975152 
L 352.44336 332.452375 
L 352.01184 331.286633 
L 351.15376 329.859873 
L 350.7272 328.098903 
L 349.86912 331.005338 
L 349.44256 322.363634 
L 349.016 320.626472 
L 348.58944 323.912959 
L 348.16288 321.390108 
L 347.73632 322.295719 
L 347.30976 318.749091 
L 346.8832 318.511881 
L 346.4616 314.274788 
L 345.61344 318.681155 
L 345.19184 314.586915 
L 344.76528 317.278184 
L 344.34368 315.517203 
L 343.92208 318.494166 
L 343.50048 313.638046 
L 343.07888 312.662754 
L 342.66224 309.830368 
L 342.24064 304.569499 
L 341.4024 303.071271 
L 340.56416 303.953921 
L 340.14256 300.050151 
L 339.30928 305.242177 
L 338.89264 298.314683 
L 338.476 298.410776 
L 338.05936 294.173673 
L 337.64272 291.127009 
L 337.23104 292.127824 
L 336.8144 295.771422 
L 336.39776 287.653491 
L 335.98608 290.178067 
L 335.15776 283.727596 
L 334.74608 282.823711 
L 334.3344 283.895952 
L 333.92272 283.325389 
L 333.51104 281.040595 
L 333.09936 279.589107 
L 332.68768 281.732744 
L 332.276 274.876666 
L 331.86928 277.472659 
L 331.4576 282.830478 
L 331.05088 276.498184 
L 330.6392 279.189421 
L 330.23248 270.714338 
L 329.82576 279.952976 
L 329.41408 271.168389 
L 329.00736 267.907425 
L 328.60064 269.360597 
L 328.19392 267.837673 
L 327.79216 269.814627 
L 327.38544 267.077456 
L 326.97872 266.387839 
L 326.57696 267.579104 
L 326.17024 267.00853 
L 325.76848 265.366552 
L 324.96 257.725603 
L 323.74976 251.775902 
L 323.35296 253.657611 
L 322.9512 250.92043 
L 322.54944 253.135472 
L 322.14768 250.041159 
L 321.74592 251.708599 
L 320.94736 244.686657 
L 320.55056 253.782422 
L 320.15376 248.450075 
L 319.3552 246.094651 
L 318.9584 239.524248 
L 318.5616 242.405925 
L 318.1648 239.54969 
L 317.768 239.860021 
L 317.3712 239.170383 
L 316.97936 240.290201 
L 316.58256 237.076835 
L 316.18576 230.339771 
L 315.79392 226.102617 
L 315.00528 237.365786 
L 314.61344 234.533349 
L 314.2216 224.629709 
L 313.82976 228.844667 
L 313.43792 227.94074 
L 313.04608 223.013132 
L 312.65424 219.680711 
L 312.2624 220.348163 
L 311.87056 222.444141 
L 311.48368 220.825941 
L 310.7 215.970566 
L 310.31312 217.757019 
L 309.92624 216.400716 
L 309.5344 223.710813 
L 309.14752 220.140295 
L 308.76064 222.045792 
L 308.37376 216.641999 
L 307.98688 217.571337 
L 307.6 216.976914 
L 306.8312 211.335819 
L 306.44432 209.908089 
L 306.05744 204.59953 
L 305.67552 204.076523 
L 305.28864 212.196109 
L 304.90672 208.363683 
L 304.5248 198.221935 
L 304.13792 202.936867 
L 303.756 204.461414 
L 303.37408 200.152813 
L 302.99216 206.939098 
L 302.61024 210.082641 
L 301.85136 199.513111 
L 301.46944 195.847347 
L 301.08752 189.776897 
L 300.71056 189.611012 
L 300.32864 190.040356 
L 299.95168 188.612605 
L 299.56976 188.970523 
L 299.1928 191.304558 
L 298.81584 186.234066 
L 298.43888 186.568165 
L 298.06192 185.211841 
L 297.68496 181.546067 
L 297.308 185.570524 
L 296.93104 187.190296 
L 296.55408 187.857717 
L 296.17712 185.882365 
L 295.80512 185.145059 
L 295.42816 182.098313 
L 295.05616 175.242154 
L 294.6792 175.028651 
L 294.3072 167.720125 
L 293.93024 171.911244 
L 293.55824 168.412121 
L 293.18624 168.770018 
L 292.81424 169.437429 
L 292.44224 168.223948 
L 292.07024 174.534036 
L 291.69824 167.130276 
L 291.32624 177.059296 
L 290.9592 170.655494 
L 290.5872 166.323064 
L 290.22016 164.96672 
L 289.84816 164.181796 
L 289.48112 162.27785 
L 289.10912 154.969325 
L 288.74208 161.946048 
L 288.37504 162.613449 
L 287.636 150.424882 
L 287.26896 154.80645 
L 286.90192 156.164305 
L 286.53984 156.022198 
L 286.1728 164.5703 
L 285.80576 157.809366 
L 285.43872 161.143349 
L 285.07664 159.167966 
L 284.7096 160.882953 
L 284.34752 156.812399 
L 283.98048 160.527322 
L 283.6184 149.980784 
L 283.25632 158.552685 
L 282.88928 145.696707 
L 282.5272 147.983093 
L 282.16512 147.983838 
L 281.80304 146.532249 
L 281.44096 145.937775 
L 281.07888 145.914711 
L 280.72176 148.058235 
L 280.35968 146.701881 
L 279.9976 139.750466 
L 279.64048 149.203281 
L 279.2784 149.465923 
L 278.92128 143.466849 
L 278.5592 140.729586 
L 278.20208 145.325412 
L 277.84496 142.707183 
L 277.48288 143.660279 
L 277.12576 141.80393 
L 276.76864 135.090593 
L 276.41152 139.68642 
L 276.0544 135.211107 
L 275.69728 127.831125 
L 275.34512 129.236567 
L 274.988 132.213397 
L 274.63088 130.071343 
L 274.27872 133.50053 
L 273.9216 130.71564 
L 273.56944 134.763854 
L 273.21232 133.693195 
L 272.86016 138.69376 
L 272.508 136.123139 
L 272.15088 139.099969 
L 271.79872 135.910319 
L 271.0944 138.149793 
L 270.74224 133.483999 
L 270.39008 137.603641 
L 270.04288 128.033231 
L 269.69072 128.53394 
L 269.33856 125.606187 
L 268.99136 126.79734 
L 268.6392 123.60769 
L 268.28704 126.227379 
L 267.93984 124.085304 
L 267.59264 125.60978 
L 267.24048 130.943668 
L 266.89328 132.491952 
L 266.54608 132.587902 
L 266.19888 133.68382 
L 265.85168 132.779801 
L 265.50448 136.494683 
L 265.15728 128.781358 
L 264.46288 122.211567 
L 264.11568 127.545445 
L 263.77344 123.189146 
L 263.42624 123.475565 
L 263.084 116.095552 
L 262.7368 114.334418 
L 262.39456 118.43023 
L 262.04736 107.074164 
L 261.70512 116.28886 
L 261.36288 113.503939 
L 261.02064 121.813903 
L 260.6784 121.290814 
L 260.33616 126.815152 
L 259.99392 123.411203 
L 259.65168 128.030808 
L 259.30944 127.769616 
L 258.9672 130.294049 
L 258.62496 124.175901 
L 258.28768 130.414491 
L 257.94544 126.581984 
L 257.6032 117.821063 
L 257.26592 117.631287 
L 256.92864 123.63179 
L 256.24912 105.490909 
L 255.5696 110.635001 
L 255.23232 111.159488 
L 254.89504 119.183736 
L 254.55776 121.422454 
L 254.22048 121.708853 
L 253.8832 126.280831 
L 253.55088 121.73404 
L 253.2136 127.305985 
L 252.87632 125.354361 
L 252.544 132.235778 
L 252.20672 128.61754 
L 251.86944 128.023015 
L 251.53712 126.880878 
L 251.2048 114.858135 
L 250.86752 117.906351 
L 250.20288 111.741249 
L 249.87056 116.884626 
L 249.53328 111.052173 
L 249.20096 117.671693 
L 248.86864 117.648569 
L 248.54128 120.292015 
L 248.20896 118.626086 
L 247.87664 125.721782 
L 247.54432 128.841414 
L 247.212 133.222911 
L 246.88464 134.056891 
L 246.55232 129.819615 
L 245.89264 127.916271 
L 245.56528 130.416865 
L 245.23792 117.679849 
L 244.9056 117.037697 
L 244.57824 118.252617 
L 244.25088 108.396462 
L 243.92352 115.44453 
L 243.59616 117.63561 
L 243.2688 118.945766 
L 242.94144 119.755938 
L 242.61408 121.32799 
L 242.28672 128.137971 
L 241.95936 144.23337 
L 241.63696 138.805635 
L 241.3096 139.115823 
L 240.9872 140.259307 
L 240.65984 144.117001 
L 240.33744 138.427369 
L 240.01008 138.28519 
L 239.68768 127.286204 
L 239.36528 127.42972 
L 239.03792 126.692322 
L 238.71552 119.955105 
L 238.39312 131.741108 
L 238.07072 122.599205 
L 237.74832 124.361717 
L 237.42592 123.552883 
L 237.10352 130.243809 
L 236.78112 130.006385 
L 236.45872 143.768515 
L 236.14128 140.102619 
L 235.81888 146.198326 
L 235.49648 142.675292 
L 235.17904 145.152057 
L 234.85664 154.009581 
L 234.22176 141.892226 
L 233.89936 139.940571 
L 233.58192 135.798499 
L 233.26448 137.680045 
L 232.94704 131.490419 
L 232.62464 131.443465 
L 232.3072 129.896549 
L 231.98976 130.849552 
L 231.67232 131.397807 
L 231.35984 131.493686 
L 231.0424 135.994196 
L 230.72496 136.947199 
L 230.40752 142.20959 
L 230.09504 130.805834 
L 229.7776 146.305994 
L 229.46016 155.925389 
L 229.14768 158.925936 
L 228.83024 158.283753 
L 228.51776 160.760507 
L 228.20528 160.618298 
L 227.88784 164.237884 
L 227.57536 164.190909 
L 226.9504 158.240004 
L 226.63792 152.00275 
L 226.32544 154.860445 
L 225.70048 142.243086 
L 225.388 145.31506 
L 225.07552 145.529982 
L 224.768 151.935172 
L 224.45552 148.602588 
L 224.14304 154.079247 
L 223.83552 153.722749 
L 223.52304 155.985225 
L 223.21552 167.795005 
L 222.90304 172.747872 
L 222.59552 173.700855 
L 222.28304 180.891745 
L 221.97552 179.51147 
L 221.668 179.702573 
L 221.36048 175.512863 
L 221.05296 177.75152 
L 220.74544 176.775993 
L 220.43792 169.657805 
L 220.1304 170.848876 
L 219.82288 173.992266 
L 219.20784 157.089309 
L 218.90032 163.946866 
L 218.29024 161.638671 
L 217.98272 165.948691 
L 217.68016 172.330062 
L 217.37264 181.830393 
L 217.07008 181.902442 
L 216.76752 182.18877 
L 216.46 183.570311 
L 216.15744 191.713531 
L 215.85488 193.761708 
L 215.55232 200.738299 
L 215.24976 202.215065 
L 214.94224 197.596797 
L 214.33712 194.383859 
L 214.03952 194.122575 
L 213.73696 188.837652 
L 213.4344 181.457557 
L 213.13184 185.719949 
L 212.82928 187.29195 
L 212.53168 180.483256 
L 212.22912 180.674349 
L 211.93152 184.531981 
L 211.62896 185.842086 
L 211.33136 193.294842 
L 211.0288 196.914397 
L 210.7312 194.891264 
L 210.4336 203.796355 
L 210.13104 201.582763 
L 209.83344 205.202307 
L 209.23824 215.679389 
L 208.94064 215.727619 
L 208.64304 221.608997 
L 208.34544 218.585896 
L 208.04784 214.253313 
L 207.75024 215.563408 
L 207.45264 220.063877 
L 207.15504 214.517047 
L 206.8624 203.208486 
L 206.2672 203.638268 
L 205.97456 196.567667 
L 205.67696 204.28232 
L 205.38432 200.973503 
L 205.09168 206.592974 
L 204.79408 205.617427 
L 204.50144 213.33207 
L 204.2088 209.666122 
L 203.9112 218.166464 
L 203.61856 221.286014 
L 203.03328 233.763012 
L 202.74064 240.311025 
L 202.448 239.525938 
L 202.15536 240.050333 
L 201.86272 233.551142 
L 201.57008 238.480159 
L 201.2824 230.338153 
L 200.98976 231.838708 
L 200.69712 218.887341 
L 200.40944 224.911551 
L 200.1168 226.293062 
L 199.82416 228.269792 
L 199.53648 217.246925 
L 199.2488 223.128282 
L 198.95616 221.747976 
L 198.66848 222.939006 
L 198.3808 224.820491 
L 198.08816 224.844902 
L 197.80048 227.583502 
L 197.5128 235.250517 
L 197.22512 235.846328 
L 196.93744 240.941996 
L 196.64976 249.299465 
L 196.36208 251.966638 
L 196.0744 257.395629 
L 195.78672 258.277145 
L 194.64096 263.255535 
L 194.35328 260.137179 
L 194.07056 260.232996 
L 193.50016 255.59146 
L 193.21248 252.235017 
L 192.92976 253.35461 
L 192.64208 244.474533 
L 192.35936 243.784661 
L 192.07664 251.904031 
L 191.79392 245.381011 
L 191.5112 254.190837 
L 190.9408 256.025285 
L 190.65808 262.763748 
L 190.09264 269.978968 
L 189.80992 275.550801 
L 189.53216 274.956153 
L 189.24944 283.623126 
L 188.96672 282.59993 
L 188.684 283.433819 
L 188.40624 286.981897 
L 187.8408 278.078582 
L 187.56304 282.340923 
L 187.00256 271.08053 
L 186.7248 274.152433 
L 186.44208 270.367421 
L 186.16432 268.939466 
L 185.88656 272.297074 
L 185.6088 264.893119 
L 185.32608 274.75053 
L 185.04832 272.703548 
L 184.77056 272.966016 
L 184.4928 276.299815 
L 184.21504 283.014458 
L 183.93728 283.800719 
L 183.65952 285.610757 
L 183.38176 285.801799 
L 182.8312 297.278757 
L 182.27568 305.37488 
L 182.00288 301.185099 
L 181.72512 308.780667 
L 181.45232 299.805324 
L 181.17456 301.520127 
L 180.90176 300.115971 
L 180.3512 294.164912 
L 180.0784 294.641649 
L 179.52784 286.881125 
L 179.25504 295.190945 
L 178.98224 294.048686 
L 178.70944 292.382634 
L 178.16384 302.216777 
L 177.89104 301.812589 
L 177.61824 310.098601 
L 177.34544 314.122844 
L 177.07264 320.00417 
L 176.52704 324.671811 
L 176.2592 327.838928 
L 175.9864 326.10145 
L 175.7136 327.149597 
L 175.44576 322.364586 
L 175.17296 322.960367 
L 174.63232 314.199854 
L 174.36448 314.438493 
L 173.82384 311.130187 
L 173.556 313.773511 
L 173.28816 311.7027 
L 173.01536 313.84605 
L 172.74752 312.799015 
L 172.47968 316.680395 
L 172.21184 317.919002 
L 171.944 327.966853 
L 171.67616 330.586368 
L 171.14048 340.039551 
L 170.87264 343.230476 
L 170.6048 340.87396 
L 170.34192 345.350549 
L 170.07408 341.089331 
L 169.80624 339.304225 
L 169.27552 341.543341 
L 169.00768 341.186761 
L 168.7448 335.806521 
L 168.47696 335.426132 
L 168.21408 333.831485 
L 167.94624 330.570236 
L 167.68336 330.49935 
L 167.42048 331.166537 
L 167.1576 332.881309 
L 166.88976 336.191279 
L 166.62688 336.477525 
L 165.57536 347.955514 
L 165.31248 353.384453 
L 164.78672 357.004468 
L 164.52384 360.004913 
L 164.26096 360.267351 
L 163.99808 364.220147 
L 163.47728 356.388135 
L 163.2144 356.293441 
L 162.95648 354.294035 
L 162.6936 349.675676 
L 162.43072 350.819037 
L 162.1728 348.27203 
L 161.90992 348.201145 
L 161.652 347.320751 
L 161.1312 351.107417 
L 160.87328 348.703262 
L 160.61536 354.894072 
L 160.35248 351.204255 
L 160.09456 350.395287 
L 159.83664 360.681205 
L 159.57872 359.205592 
L 159.3208 363.563127 
L 159.06288 364.849331 
L 158.80496 369.254484 
L 158.28912 374.160151 
L 158.0312 378.708156 
L 157.77328 378.470599 
L 157.52032 375.899773 
L 157.2624 378.733547 
L 157.00448 376.448436 
L 156.74656 372.13958 
L 156.4936 375.449519 
L 156.23568 372.283484 
L 155.98272 370.998332 
L 155.7248 368.832265 
L 155.47184 371.618411 
L 155.21392 369.166639 
L 154.96096 369.524291 
L 154.70304 368.929603 
L 154.45008 368.692036 
L 154.19712 365.930739 
L 153.94416 369.478766 
L 153.68624 370.431647 
L 153.43328 376.693873 
L 153.18032 376.408689 
L 152.92736 379.432923 
L 152.42144 387.862267 
L 152.16848 389.791297 
L 151.91552 390.363228 
L 151.66256 390.53041 
L 151.4096 397.721178 
L 151.15664 396.602687 
L 150.90864 393.722336 
L 150.65568 395.770411 
L 150.40272 395.128095 
L 150.15472 390.176382 
L 149.90176 389.915006 
L 149.6488 388.010825 
L 149.4008 387.130412 
L 149.14784 386.773801 
L 148.89984 388.631395 
L 148.39888 384.275422 
L 148.15088 383.490243 
L 147.89792 383.919321 
L 147.64992 386.562604 
L 147.40192 385.825043 
L 147.14896 386.444592 
L 146.90096 393.182983 
L 146.65296 395.278664 
L 146.40496 395.969629 
L 146.15696 399.636689 
L 145.90896 400.494315 
L 145.66096 401.828116 
L 145.41296 408.352229 
L 145.16496 407.876564 
L 144.66896 410.020373 
L 144.42592 410.139917 
L 144.17792 408.1643 
L 143.92992 409.426675 
L 143.68192 400.951265 
L 143.43888 403.880243 
L 143.19088 404.571208 
L 142.69984 402.405621 
L 142.2088 403.478026 
L 141.96576 402.859498 
L 141.71776 399.383929 
L 141.47472 405.074724 
L 141.22672 406.265672 
L 140.98368 402.909137 
L 140.4976 410.243237 
L 140.2496 409.648528 
L 139.76352 418.934947 
L 139.52048 416.364101 
L 138.79136 423.055864 
L 138.06224 423.319261 
L 137.82416 422.391209 
L 137.33808 417.773309 
L 137.09504 418.130941 
L 136.85696 418.179048 
L 136.61392 415.941524 
L 136.37088 418.132431 
L 136.1328 416.013941 
L 135.88976 418.014377 
L 135.65168 414.49117 
L 135.40864 416.110666 
L 134.93248 420.849591 
L 134.68944 421.231031 
L 134.45136 423.493354 
L 134.21328 424.184298 
L 133.49408 429.328471 
L 133.256 429.495623 
L 133.01792 433.734073 
L 132.54176 433.258877 
L 132.30368 433.235559 
L 132.0656 433.759842 
L 131.82752 434.926961 
L 131.58944 432.308487 
L 131.35136 431.47567 
L 131.11328 431.142837 
L 130.8752 429.214817 
L 130.63712 426.215403 
L 130.404 428.096775 
L 130.16592 427.930603 
L 129.92784 430.478631 
L 129.69472 430.955286 
L 129.22352 428.813467 
L 128.98544 429.385368 
L 128.75232 433.242867 
L 128.28112 436.529447 
L 128.04304 436.887068 
L 127.80992 440.458863 
L 127.5768 441.530737 
L 127.33872 441.483609 
L 126.87248 443.032139 
L 126.63936 443.699264 
L 126.40624 443.985449 
L 126.16816 444.866863 
L 125.93504 441.248411 
L 125.70192 441.153655 
L 125.4688 442.035059 
L 124.76944 437.560451 
L 124.54128 437.918052 
L 124.30816 438.632794 
L 124.07504 440.823681 
L 123.84192 439.87181 
L 123.6088 440.277039 
L 123.38064 442.610767 
L 123.14752 441.468426 
L 122.9144 446.183041 
L 122.68624 444.754985 
L 122.45312 449.445792 
L 122.22496 449.08913 
L 121.99184 447.899171 
L 121.76368 450.685266 
L 121.53056 449.06675 
L 121.3024 450.876686 
L 121.06928 448.234393 
L 120.84112 452.234735 
L 120.61296 451.425706 
L 120.37984 449.830999 
L 120.15168 449.617189 
L 119.92352 451.165229 
L 119.69536 446.618224 
L 119.4672 445.952048 
L 119.23904 448.619099 
L 119.00592 447.381523 
L 118.77776 448.953371 
L 118.5496 447.191992 
L 118.32144 447.906725 
L 117.87008 451.8361 
L 117.64192 451.598482 
L 117.41376 454.051254 
L 116.95744 453.290313 
L 116.72928 455.790703 
L 116.27792 455.982102 
L 116.04976 458.768197 
L 115.82656 458.221055 
L 115.5984 459.578624 
L 115.3752 459.317187 
L 115.14704 460.198581 
L 114.92384 458.865749 
L 114.69568 459.080498 
L 114.47248 460.390439 
L 114.24432 459.771881 
L 114.02112 458.153344 
L 113.79792 455.368178 
L 113.12336 457.083797 
L 112.90016 455.465261 
L 112.4488 457.013759 
L 112.2256 458.299892 
L 112.0024 457.967028 
L 111.7792 460.657878 
L 111.556 459.967883 
L 111.3328 460.873076 
L 111.1096 463.182986 
L 110.6632 463.564844 
L 110.44 463.755774 
L 109.77536 466.995134 
L 109.55216 466.233713 
L 109.33392 465.019915 
L 109.11072 466.353665 
L 108.88752 465.4732 
L 108.66928 465.140326 
L 108.44608 465.950284 
L 108.22784 466.069777 
L 108.00464 463.475081 
L 107.7864 463.570765 
L 107.5632 464.666427 
L 107.34496 464.02404 
L 106.90352 465.096343 
L 106.46208 464.073474 
L 106.24384 466.050051 
L 105.80736 465.146216 
L 105.58416 466.646628 
L 105.36592 465.123316 
L 105.14768 466.95704 
L 104.92944 467.457473 
L 104.7112 468.743596 
L 104.49296 470.791599 
L 104.27472 470.36349 
L 104.05648 471.482951 
L 103.83824 470.483432 
L 103.40176 473.127103 
L 103.18352 470.937146 
L 102.53376 472.676523 
L 102.31552 470.629419 
L 102.10224 470.725093 
L 101.884 470.201749 
L 101.45248 470.393107 
L 101.23424 470.822114 
L 101.02096 469.036895 
L 100.80272 469.156388 
L 100.58944 470.84725 
L 100.15792 471.229078 
L 99.94464 469.753373 
L 99.7264 470.468086 
L 99.51312 472.206564 
L 99.0816 471.636042 
L 98.86832 473.803079 
L 98.65504 472.779741 
L 98.44176 474.446793 
L 98.22848 473.51869 
L 98.01024 475.209562 
L 97.79696 475.900455 
L 97.58368 475.638997 
L 97.3704 476.306082 
L 97.15712 475.449405 
L 96.94384 477.711677 
L 96.73056 476.259781 
L 96.30896 477.522513 
L 95.8824 476.047248 
L 95.66912 475.071527 
L 95.45584 476.690962 
L 95.24752 475.120012 
L 95.03424 475.572818 
L 94.82096 474.954229 
L 94.61264 475.645112 
L 94.39936 475.002714 
L 94.18608 476.622149 
L 93.97776 475.574992 
L 93.76448 478.051543 
L 93.34288 476.147709 
L 93.13456 476.433843 
L 92.92624 477.62471 
L 92.71296 476.648989 
L 92.29632 478.459313 
L 91.87472 479.555384 
L 91.6664 478.532036 
L 91.45808 479.127684 
L 91.2448 481.009015 
L 91.03648 479.771388 
L 90.82816 480.914637 
L 90.61984 480.296038 
L 90.2032 480.177852 
L 89.99488 480.297324 
L 89.78656 480.178709 
L 89.57824 478.9887 
L 89.36992 479.298642 
L 88.95328 480.25185 
L 88.74496 479.299929 
L 88.5416 480.300315 
L 88.33328 478.896027 
L 88.12496 479.301205 
L 87.91664 480.444454 
L 87.50496 480.373875 
L 87.29664 480.374304 
L 87.09328 479.684268 
L 86.6816 481.827904 
L 86.47328 480.756938 
L 86.0616 482.591061 
L 85.85824 482.686714 
L 85.64992 481.877645 
L 85.44656 481.687593 
L 85.03488 482.974114 
L 84.83152 483.426899 
L 84.62816 483.451126 
L 84.4248 482.856325 
L 84.21648 484.332898 
L 84.01312 483.571436 
L 83.80976 483.714707 
L 83.6064 482.548496 
L 83.40304 483.40603 
L 83.19968 482.501715 
L 82.99632 483.216397 
L 82.79296 481.978759 
L 82.5896 483.145808 
L 82.38624 483.193844 
L 82.18288 482.813322 
L 81.97952 483.528003 
L 81.3744 482.648324 
L 81.17104 483.505858 
L 80.96768 483.768173 
L 80.76432 483.554313 
L 80.56592 483.649956 
L 80.1592 484.222204 
L 79.9608 483.936907 
L 79.75744 484.508736 
L 79.55408 484.509154 
L 79.35568 484.295284 
L 79.15232 485.248053 
L 78.95392 485.343696 
L 78.75056 485.129836 
L 78.55216 485.225479 
L 78.35376 484.821138 
L 78.1504 485.273923 
L 77.55024 485.227541 
L 77.35184 485.513655 
L 77.15344 484.918844 
L 76.75168 485.562507 
L 76.55328 485.27721 
L 76.35488 484.491929 
L 76.15648 485.539923 
L 75.95808 484.659407 
L 75.75968 484.683624 
L 75.16448 486.160993 
L 74.96608 484.923345 
L 74.37088 486.47214 
L 74.17744 486.23445 
L 73.97904 486.353903 
L 73.78064 486.711442 
L 73.58224 486.497572 
L 73.3888 486.87891 
L 73.1904 486.950745 
L 72.992 486.498786 
L 72.79856 486.380141 
L 72.60016 487.309091 
L 72.40176 486.428575 
L 72.20832 486.619443 
L 72.00992 486.548425 
L 72.00992 486.548425 
" clip-path="url(#pd900a61d1b)" style="fill: none; stroke-dasharray: 3.7,1.6; stroke-dashoffset: 0; stroke: #1fa187"/>
   </g>
   <g id="line2d_16">
    <path d="M 72.00992 476.865283 
L 76.481723 475.286585 
L 80.953526 473.447257 
L 84.530968 471.766383 
L 88.10841 469.880396 
L 91.685852 467.771012 
L 95.263295 465.41933 
L 98.840737 462.805971 
L 102.418179 459.911242 
L 105.995621 456.715322 
L 109.573064 453.198481 
L 113.150506 449.341323 
L 116.727948 445.125054 
L 120.30539 440.531777 
L 123.882833 435.544805 
L 127.460275 430.148998 
L 131.037717 424.331109 
L 134.615159 418.08015 
L 138.192602 411.387757 
L 141.770044 404.248558 
L 145.347486 396.660534 
L 148.924928 388.625367 
L 153.396731 377.961728 
L 157.868534 366.629426 
L 162.340337 354.660571 
L 166.812139 342.099249 
L 172.178303 326.324012 
L 178.438827 307.108389 
L 185.593711 284.372176 
L 206.164004 218.426374 
L 211.530168 202.196307 
L 216.00197 189.327802 
L 220.473773 177.206833 
L 224.051215 168.140803 
L 227.628658 159.708787 
L 231.2061 151.974884 
L 233.889182 146.668783 
L 236.572263 141.812577 
L 239.255345 137.42794 
L 241.938427 133.534628 
L 244.621508 130.150323 
L 246.410229 128.184641 
L 248.198951 126.456131 
L 249.987672 124.968339 
L 251.776393 123.724327 
L 253.565114 122.72666 
L 255.353835 121.977402 
L 257.142556 121.478102 
L 258.931277 121.229797 
L 260.719998 121.233001 
L 262.50872 121.487708 
L 264.297441 121.993389 
L 266.086162 122.748997 
L 267.874883 123.752966 
L 269.663604 125.003221 
L 271.452325 126.497184 
L 273.241046 128.231781 
L 275.029767 130.203454 
L 277.712849 133.596538 
L 280.395931 137.498347 
L 283.079012 141.891162 
L 285.762094 146.755193 
L 288.445176 152.068737 
L 291.128257 157.808329 
L 294.7057 166.080362 
L 298.283142 175.001959 
L 301.860584 184.506324 
L 306.332387 197.100069 
L 310.80419 210.355493 
L 316.170353 226.93516 
L 323.325238 249.782725 
L 341.212449 307.25088 
L 347.472973 326.460875 
L 352.839136 342.230039 
L 357.310939 354.785588 
L 361.782742 366.748159 
L 366.254545 378.07379 
L 370.726347 388.730491 
L 374.30379 396.75999 
L 377.881232 404.342301 
L 381.458674 411.47579 
L 385.036116 418.16252 
L 388.613559 424.407905 
L 392.191001 430.220344 
L 395.768443 435.610857 
L 399.345885 440.592716 
L 402.923328 445.181084 
L 406.50077 449.392664 
L 410.078212 453.245368 
L 413.655654 456.758 
L 417.233097 459.94996 
L 420.810539 462.840981 
L 424.387981 465.450883 
L 427.965423 467.799358 
L 431.542866 469.90578 
L 435.120308 471.789041 
L 439.592111 473.857074 
L 444.063913 475.638994 
L 448.535716 477.166841 
L 453.007519 478.470442 
L 458.373682 479.777323 
L 463.739846 480.843827 
L 470.00037 481.834968 
L 476.260894 482.603361 
L 483.415778 483.265548 
L 492.359384 483.847939 
L 503.09171 484.293647 
L 516.507119 484.605584 
L 518.29584 484.633357 
L 518.29584 484.633357 
" clip-path="url(#pd900a61d1b)" style="fill: none; stroke-dasharray: 3.7,1.6; stroke-dashoffset: 0; stroke: #46327e"/>
   </g>
   <g id="patch_3">
    <path d="M 72 506.4 
L 72 86.4 
" style="fill: none; stroke: #000000; stroke-width: 0.8; stroke-linejoin: miter; stroke-linecap: square"/>
   </g>
   <g id="patch_4">
    <path d="M 518.4 506.4 
L 518.4 86.4 
" style="fill: none; stroke: #000000; stroke-width: 0.8; stroke-linejoin: miter; stroke-linecap: square"/>
   </g>
   <g id="patch_5">
    <path d="M 72 506.4 
L 518.4 506.4 
" style="fill: none; stroke: #000000; stroke-width: 0.8; stroke-linejoin: miter; stroke-linecap: square"/>
   </g>
   <g id="patch_6">
    <path d="M 72 86.4 
L 518.4 86.4 
" style="fill: none; stroke: #000000; stroke-width: 0.8; stroke-linejoin: miter; stroke-linecap: square"/>
   </g>
   <g id="legend_1">
    <g id="patch_7">
     <path d="M 360.178125 123.75625 
L 511.4 123.75625 
Q 513.4 123.75625 513.4 121.75625 
L 513.4 93.4 
Q 513.4 91.4 511.4 91.4 
L 360.178125 91.4 
Q 358.178125 91.4 358.178125 93.4 
L 358.178125 121.75625 
Q 358.178125 123.75625 360.178125 123.75625 
z
" style="fill: #ffffff; opacity: 0.8; stroke: #cccccc; stroke-linejoin: miter"/>
    </g>
    <g id="line2d_17">
     <path d="M 362.178125 99.498437 
L 372.178125 99.498437 
L 382.178125 99.498437 
" style="fill: none; stroke-dasharray: 3.7,1.6; stroke-dashoffset: 0; stroke: #1fa187"/>
    </g>
    <g id="text_11">
     <!-- Baseline-corrected data -->
     <g transform="translate(390.178125 102.998437) scale(0.1 -0.1)">
      <defs>
       <path id="DejaVuSans-42" d="M 1259 2228 
L 1259 519 
L 2272 519 
Q 2781 519 3026 730 
Q 3272 941 3272 1375 
Q 3272 1813 3026 2020 
Q 2781 2228 2272 2228 
L 1259 2228 
z
M 1259 4147 
L 1259 2741 
L 2194 2741 
Q 2656 2741 2882 2914 
Q 3109 3088 3109 3444 
Q 3109 3797 2882 3972 
Q 2656 4147 2194 4147 
L 1259 4147 
z
M 628 4666 
L 2241 4666 
Q 2963 4666 3353 4366 
Q 3744 4066 3744 3513 
Q 3744 3084 3544 2831 
Q 3344 2578 2956 2516 
Q 3422 2416 3680 2098 
Q 3938 1781 3938 1306 
Q 3938 681 3513 340 
Q 3088 0 2303 0 
L 628 0 
L 628 4666 
z
" transform="scale(0.015625)"/>
       <path id="DejaVuSans-6c" d="M 603 4863 
L 1178 4863 
L 1178 0 
L 603 0 
L 603 4863 
z
" transform="scale(0.015625)"/>
       <path id="DejaVuSans-2d" d="M 313 2009 
L 1997 2009 
L 1997 1497 
L 313 1497 
L 313 2009 
z
" transform="scale(0.015625)"/>
       <path id="DejaVuSans-63" d="M 3122 3366 
L 3122 2828 
Q 2878 2963 2633 3030 
Q 2388 3097 2138 3097 
Q 1578 3097 1268 2742 
Q 959 2388 959 1747 
Q 959 1106 1268 751 
Q 1578 397 2138 397 
Q 2388 397 2633 464 
Q 2878 531 3122 666 
L 3122 134 
Q 2881 22 2623 -34 
Q 2366 -91 2075 -91 
Q 1284 -91 818 406 
Q 353 903 353 1747 
Q 353 2603 823 3093 
Q 1294 3584 2113 3584 
Q 2378 3584 2631 3529 
Q 2884 3475 3122 3366 
z
" transform="scale(0.015625)"/>
       <path id="DejaVuSans-6f" d="M 1959 3097 
Q 1497 3097 1228 2736 
Q 959 2375 959 1747 
Q 959 1119 1226 758 
Q 1494 397 1959 397 
Q 2419 397 2687 759 
Q 2956 1122 2956 1747 
Q 2956 2369 2687 2733 
Q 2419 3097 1959 3097 
z
M 1959 3584 
Q 2709 3584 3137 3096 
Q 3566 2609 3566 1747 
Q 3566 888 3137 398 
Q 2709 -91 1959 -91 
Q 1206 -91 779 398 
Q 353 888 353 1747 
Q 353 2609 779 3096 
Q 1206 3584 1959 3584 
z
" transform="scale(0.015625)"/>
       <path id="DejaVuSans-72" d="M 2631 2963 
Q 2534 3019 2420 3045 
Q 2306 3072 2169 3072 
Q 1681 3072 1420 2755 
Q 1159 2438 1159 1844 
L 1159 0 
L 581 0 
L 581 3500 
L 1159 3500 
L 1159 2956 
Q 1341 3275 1631 3429 
Q 1922 3584 2338 3584 
Q 2397 3584 2469 3576 
Q 2541 3569 2628 3553 
L 2631 2963 
z
" transform="scale(0.015625)"/>
       <path id="DejaVuSans-64" d="M 2906 2969 
L 2906 4863 
L 3481 4863 
L 3481 0 
L 2906 0 
L 2906 525 
Q 2725 213 2448 61 
Q 2172 -91 1784 -91 
Q 1150 -91 751 415 
Q 353 922 353 1747 
Q 353 2572 751 3078 
Q 1150 3584 1784 3584 
Q 2172 3584 2448 3432 
Q 2725 3281 2906 2969 
z
M 947 1747 
Q 947 1113 1208 752 
Q 1469 391 1925 391 
Q 2381 391 2643 752 
Q 2906 1113 2906 1747 
Q 2906 2381 2643 2742 
Q 2381 3103 1925 3103 
Q 1469 3103 1208 2742 
Q 947 2381 947 1747 
z
" transform="scale(0.015625)"/>
      </defs>
      <use xlink:href="#DejaVuSans-42"/>
      <use xlink:href="#DejaVuSans-61" transform="translate(68.603516 0)"/>
      <use xlink:href="#DejaVuSans-73" transform="translate(129.882812 0)"/>
      <use xlink:href="#DejaVuSans-65" transform="translate(181.982422 0)"/>
      <use xlink:href="#DejaVuSans-6c" transform="translate(243.505859 0)"/>
      <use xlink:href="#DejaVuSans-69" transform="translate(271.289062 0)"/>
      <use xlink:href="#DejaVuSans-6e" transform="translate(299.072266 0)"/>
      <use xlink:href="#DejaVuSans-65" transform="translate(362.451172 0)"/>
      <use xlink:href="#DejaVuSans-2d" transform="translate(423.974609 0)"/>
      <use xlink:href="#DejaVuSans-63" transform="translate(460.058594 0)"/>
      <use xlink:href="#DejaVuSans-6f" transform="translate(515.039062 0)"/>
      <use xlink:href="#DejaVuSans-72" transform="translate(576.220703 0)"/>
      <use xlink:href="#DejaVuSans-72" transform="translate(615.583984 0)"/>
      <use xlink:href="#DejaVuSans-65" transform="translate(654.447266 0)"/>
      <use xlink:href="#DejaVuSans-63" transform="translate(715.970703 0)"/>
      <use xlink:href="#DejaVuSans-74" transform="translate(770.951172 0)"/>
      <use xlink:href="#DejaVuSans-65" transform="translate(810.160156 0)"/>
      <use xlink:href="#DejaVuSans-64" transform="translate(871.683594 0)"/>
      <use xlink:href="#DejaVuSans-20" transform="translate(935.160156 0)"/>
      <use xlink:href="#DejaVuSans-64" transform="translate(966.947266 0)"/>
      <use xlink:href="#DejaVuSans-61" transform="translate(1030.423828 0)"/>
      <use xlink:href="#DejaVuSans-74" transform="translate(1091.703125 0)"/>
      <use xlink:href="#DejaVuSans-61" transform="translate(1130.912109 0)"/>
     </g>
    </g>
    <g id="line2d_18">
     <path d="M 362.178125 114.176562 
L 372.178125 114.176562 
L 382.178125 114.176562 
" style="fill: none; stroke-dasharray: 3.7,1.6; stroke-dashoffset: 0; stroke: #46327e"/>
    </g>
    <g id="text_12">
     <!-- Gaussian fit -->
     <g transform="translate(390.178125 117.676562) scale(0.1 -0.1)">
      <defs>
       <path id="DejaVuSans-47" d="M 3809 666 
L 3809 1919 
L 2778 1919 
L 2778 2438 
L 4434 2438 
L 4434 434 
Q 4069 175 3628 42 
Q 3188 -91 2688 -91 
Q 1594 -91 976 548 
Q 359 1188 359 2328 
Q 359 3472 976 4111 
Q 1594 4750 2688 4750 
Q 3144 4750 3555 4637 
Q 3966 4525 4313 4306 
L 4313 3634 
Q 3963 3931 3569 4081 
Q 3175 4231 2741 4231 
Q 1884 4231 1454 3753 
Q 1025 3275 1025 2328 
Q 1025 1384 1454 906 
Q 1884 428 2741 428 
Q 3075 428 3337 486 
Q 3600 544 3809 666 
z
" transform="scale(0.015625)"/>
       <path id="DejaVuSans-66" d="M 2375 4863 
L 2375 4384 
L 1825 4384 
Q 1516 4384 1395 4259 
Q 1275 4134 1275 3809 
L 1275 3500 
L 2222 3500 
L 2222 3053 
L 1275 3053 
L 1275 0 
L 697 0 
L 697 3053 
L 147 3053 
L 147 3500 
L 697 3500 
L 697 3744 
Q 697 4328 969 4595 
Q 1241 4863 1831 4863 
L 2375 4863 
z
" transform="scale(0.015625)"/>
      </defs>
      <use xlink:href="#DejaVuSans-47"/>
      <use xlink:href="#DejaVuSans-61" transform="translate(77.490234 0)"/>
      <use xlink:href="#DejaVuSans-75" transform="translate(138.769531 0)"/>
      <use xlink:href="#DejaVuSans-73" transform="translate(202.148438 0)"/>
      <use xlink:href="#DejaVuSans-73" transform="translate(254.248047 0)"/>
      <use xlink:href="#DejaVuSans-69" transform="translate(306.347656 0)"/>
      <use xlink:href="#DejaVuSans-61" transform="translate(334.130859 0)"/>
      <use xlink:href="#DejaVuSans-6e" transform="translate(395.410156 0)"/>
      <use xlink:href="#DejaVuSans-20" transform="translate(458.789062 0)"/>
      <use xlink:href="#DejaVuSans-66" transform="translate(490.576172 0)"/>
      <use xlink:href="#DejaVuSans-69" transform="translate(525.78125 0)"/>
      <use xlink:href="#DejaVuSans-74" transform="translate(553.564453 0)"/>
     </g>
    </g>
   </g>
  </g>
  <g id="axes_2">
   <g id="patch_8">
    <path d="M 72 640.8 
L 518.4 640.8 
L 518.4 556.8 
L 72 556.8 
z
" style="fill: #ffffff"/>
   </g>
   <g id="matplotlib.axis_3">
    <g id="xtick_6">
     <g id="line2d_19">
      <g>
       <use xlink:href="#m3c964b94b2" x="72" y="640.8" style="stroke: #000000; stroke-width: 0.8"/>
      </g>
     </g>
     <g id="text_13">
      <!-- 1.2 -->
      <g transform="translate(64.048438 655.398437) scale(0.1 -0.1)">
       <use xlink:href="#DejaVuSans-31"/>
       <use xlink:href="#DejaVuSans-2e" transform="translate(63.623047 0)"/>
       <use xlink:href="#DejaVuSans-32" transform="translate(95.410156 0)"/>
      </g>
     </g>
    </g>
    <g id="xtick_7">
     <g id="line2d_20">
      <g>
       <use xlink:href="#m3c964b94b2" x="171.2" y="640.8" style="stroke: #000000; stroke-width: 0.8"/>
      </g>
     </g>
     <g id="text_14">
      <!-- 1.4 -->
      <g transform="translate(163.248437 655.398437) scale(0.1 -0.1)">
       <use xlink:href="#DejaVuSans-31"/>
       <use xlink:href="#DejaVuSans-2e" transform="translate(63.623047 0)"/>
       <use xlink:href="#DejaVuSans-34" transform="translate(95.410156 0)"/>
      </g>
     </g>
    </g>
    <g id="xtick_8">
     <g id="line2d_21">
      <g>
       <use xlink:href="#m3c964b94b2" x="270.4" y="640.8" style="stroke: #000000; stroke-width: 0.8"/>
      </g>
     </g>
     <g id="text_15">
      <!-- 1.6 -->
      <g transform="translate(262.448438 655.398437) scale(0.1 -0.1)">
       <use xlink:href="#DejaVuSans-31"/>
       <use xlink:href="#DejaVuSans-2e" transform="translate(63.623047 0)"/>
       <use xlink:href="#DejaVuSans-36" transform="translate(95.410156 0)"/>
      </g>
     </g>
    </g>
    <g id="xtick_9">
     <g id="line2d_22">
      <g>
       <use xlink:href="#m3c964b94b2" x="369.6" y="640.8" style="stroke: #000000; stroke-width: 0.8"/>
      </g>
     </g>
     <g id="text_16">
      <!-- 1.8 -->
      <g transform="translate(361.648438 655.398437) scale(0.1 -0.1)">
       <use xlink:href="#DejaVuSans-31"/>
       <use xlink:href="#DejaVuSans-2e" transform="translate(63.623047 0)"/>
       <use xlink:href="#DejaVuSans-38" transform="translate(95.410156 0)"/>
      </g>
     </g>
    </g>
    <g id="xtick_10">
     <g id="line2d_23">
      <g>
       <use xlink:href="#m3c964b94b2" x="468.8" y="640.8" style="stroke: #000000; stroke-width: 0.8"/>
      </g>
     </g>
     <g id="text_17">
      <!-- 2.0 -->
      <g transform="translate(460.848437 655.398437) scale(0.1 -0.1)">
       <use xlink:href="#DejaVuSans-32"/>
       <use xlink:href="#DejaVuSans-2e" transform="translate(63.623047 0)"/>
       <use xlink:href="#DejaVuSans-30" transform="translate(95.410156 0)"/>
      </g>
     </g>
    </g>
   </g>
   <g id="matplotlib.axis_4">
    <g id="ytick_10">
     <g id="line2d_24">
      <g>
       <use xlink:href="#mdc943b8954" x="72" y="622.8" style="stroke: #000000; stroke-width: 0.8"/>
      </g>
     </g>
     <g id="text_18">
      <!-- −20 -->
      <g transform="translate(43.895313 626.599219) scale(0.1 -0.1)">
       <defs>
        <path id="DejaVuSans-2212" d="M 678 2272 
L 4684 2272 
L 4684 1741 
L 678 1741 
L 678 2272 
z
" transform="scale(0.015625)"/>
       </defs>
       <use xlink:href="#DejaVuSans-2212"/>
       <use xlink:href="#DejaVuSans-32" transform="translate(83.789062 0)"/>
       <use xlink:href="#DejaVuSans-30" transform="translate(147.412109 0)"/>
      </g>
     </g>
    </g>
    <g id="ytick_11">
     <g id="line2d_25">
      <g>
       <use xlink:href="#mdc943b8954" x="72" y="598.8" style="stroke: #000000; stroke-width: 0.8"/>
      </g>
     </g>
     <g id="text_19">
      <!-- 0 -->
      <g transform="translate(58.6375 602.599219) scale(0.1 -0.1)">
       <use xlink:href="#DejaVuSans-30"/>
      </g>
     </g>
    </g>
    <g id="ytick_12">
     <g id="line2d_26">
      <g>
       <use xlink:href="#mdc943b8954" x="72" y="574.8" style="stroke: #000000; stroke-width: 0.8"/>
      </g>
     </g>
     <g id="text_20">
      <!-- 20 -->
      <g transform="translate(52.275 578.599219) scale(0.1 -0.1)">
       <use xlink:href="#DejaVuSans-32"/>
       <use xlink:href="#DejaVuSans-30" transform="translate(63.623047 0)"/>
      </g>
     </g>
    </g>
    <g id="text_21">
     <!-- Residuals -->
     <g transform="translate(37.815625 622.520312) rotate(-90) scale(0.1 -0.1)">
      <defs>
       <path id="DejaVuSans-52" d="M 2841 2188 
Q 3044 2119 3236 1894 
Q 3428 1669 3622 1275 
L 4263 0 
L 3584 0 
L 2988 1197 
Q 2756 1666 2539 1819 
Q 2322 1972 1947 1972 
L 1259 1972 
L 1259 0 
L 628 0 
L 628 4666 
L 2053 4666 
Q 2853 4666 3247 4331 
Q 3641 3997 3641 3322 
Q 3641 2881 3436 2590 
Q 3231 2300 2841 2188 
z
M 1259 4147 
L 1259 2491 
L 2053 2491 
Q 2509 2491 2742 2702 
Q 2975 2913 2975 3322 
Q 2975 3731 2742 3939 
Q 2509 4147 2053 4147 
L 1259 4147 
z
" transform="scale(0.015625)"/>
      </defs>
      <use xlink:href="#DejaVuSans-52"/>
      <use xlink:href="#DejaVuSans-65" transform="translate(64.982422 0)"/>
      <use xlink:href="#DejaVuSans-73" transform="translate(126.505859 0)"/>
      <use xlink:href="#DejaVuSans-69" transform="translate(178.605469 0)"/>
      <use xlink:href="#DejaVuSans-64" transform="translate(206.388672 0)"/>
      <use xlink:href="#DejaVuSans-75" transform="translate(269.865234 0)"/>
      <use xlink:href="#DejaVuSans-61" transform="translate(333.244141 0)"/>
      <use xlink:href="#DejaVuSans-6c" transform="translate(394.523438 0)"/>
      <use xlink:href="#DejaVuSans-73" transform="translate(422.306641 0)"/>
     </g>
    </g>
   </g>
   <g id="line2d_27">
    <path d="M 518.29584 619.247874 
L 517.68576 616.58278 
L 517.07568 614.701972 
L 516.4656 610.833896 
L 515.85552 613.480532 
L 515.24544 623.969853 
L 514.63536 613.642105 
L 514.03024 611.32467 
L 513.42016 618.825388 
L 512.81504 616.500958 
L 512.20992 611.516933 
L 511.6048 618.657115 
L 510.99968 612.036013 
L 510.39952 617.205601 
L 509.7944 604.558466 
L 509.19424 611.647068 
L 508.58912 614.377188 
L 507.98896 609.158333 
L 507.3888 610.778812 
L 506.7936 606.047559 
L 506.19344 605.087563 
L 505.59328 603.652876 
L 504.99808 608.525827 
L 504.40288 607.82831 
L 503.80768 610.067285 
L 503.21248 605.552305 
L 502.61728 608.705059 
L 502.02208 609.217739 
L 501.43184 606.982311 
L 500.83664 607.063983 
L 500.2464 604.052148 
L 499.65616 597.43569 
L 499.06592 607.315605 
L 497.88544 602.708398 
L 497.30016 606.145923 
L 496.70992 599.399461 
L 496.12464 605.974177 
L 495.53936 604.527777 
L 494.95408 606.408106 
L 494.3688 599.305194 
L 493.78352 604.775175 
L 493.2032 605.292036 
L 492.61792 600.708728 
L 492.0376 603.250744 
L 491.45728 597.77764 
L 490.87696 603.781993 
L 490.29664 600.52729 
L 489.71632 601.429879 
L 489.136 600.14583 
L 488.56064 596.601631 
L 487.98528 602.236052 
L 487.40496 601.331512 
L 486.8296 597.937085 
L 486.25424 599.612202 
L 485.67888 596.807614 
L 485.10848 595.594541 
L 484.53312 597.551168 
L 483.96272 594.319383 
L 483.38736 595.820107 
L 482.81696 596.570257 
L 482.24656 593.926285 
L 481.67616 594.4185 
L 481.11072 592.982805 
L 480.54032 594.436421 
L 479.96992 593.724226 
L 479.40448 593.693762 
L 478.83904 597.4381 
L 478.2736 593.145809 
L 477.70816 595.802727 
L 477.14272 597.274435 
L 476.57728 590.46524 
L 476.01184 592.713001 
L 475.45136 596.466175 
L 474.89088 592.672344 
L 474.32544 592.843808 
L 473.76496 593.938202 
L 473.20448 591.825079 
L 472.64896 595.165278 
L 472.08848 592.218535 
L 471.528 592.093605 
L 470.97248 591.435745 
L 470.41696 595.074734 
L 469.85648 593.889072 
L 469.30096 590.447096 
L 468.74544 596.970501 
L 468.19488 591.150988 
L 467.63936 589.699722 
L 467.08384 589.778989 
L 466.53328 591.230764 
L 465.98272 589.273493 
L 465.43216 591.095843 
L 464.8816 589.865186 
L 464.33104 585.692024 
L 463.22992 591.403207 
L 462.68432 592.863411 
L 462.13376 588.709456 
L 461.58816 590.009293 
L 461.04256 590.247497 
L 460.49696 586.54895 
L 459.95136 591.411645 
L 459.40576 589.895491 
L 458.86016 590.325569 
L 458.31952 590.995471 
L 457.77392 586.897863 
L 456.69264 589.104819 
L 456.152 589.63858 
L 455.61136 587.932474 
L 453.9944 589.430913 
L 453.45376 588.356046 
L 452.91808 583.883517 
L 452.3824 586.872621 
L 451.84672 585.171812 
L 451.31104 588.946814 
L 450.77536 589.232132 
L 450.23968 584.004184 
L 449.17328 587.606565 
L 448.64256 587.459532 
L 448.11184 588.909783 
L 447.57616 587.53593 
L 447.04544 585.614365 
L 446.51472 585.27755 
L 445.98896 586.722671 
L 445.45824 584.461296 
L 444.93248 583.551626 
L 444.40176 589.109596 
L 443.876 587.038579 
L 443.35024 586.340093 
L 442.29872 583.194156 
L 441.77296 582.004508 
L 441.2472 584.878288 
L 440.72144 589.469395 
L 440.20064 585.851581 
L 439.67984 583.042059 
L 439.15408 586.549244 
L 438.63328 587.200248 
L 438.11248 582.216536 
L 437.59168 584.365039 
L 437.07584 583.077485 
L 436.55504 587.613079 
L 436.03424 583.535372 
L 435.5184 581.859655 
L 435.00256 585.176121 
L 434.48176 587.33314 
L 433.96592 583.997928 
L 433.45008 582.619991 
L 432.93424 584.517729 
L 432.42336 585.361777 
L 431.90752 585.821273 
L 431.39664 583.938496 
L 430.8808 584.47003 
L 430.36992 588.551041 
L 429.85904 585.241467 
L 429.34816 588.84587 
L 428.83728 588.253067 
L 428.3264 586.283749 
L 427.81552 580.922146 
L 427.30464 582.261743 
L 426.79872 585.552534 
L 425.78192 581.704233 
L 425.276 584.173155 
L 424.77008 585.593108 
L 424.26416 586.243389 
L 423.75824 580.497761 
L 423.25232 585.028459 
L 422.75136 583.07803 
L 422.24544 585.100663 
L 421.74448 582.081152 
L 421.24352 582.063553 
L 420.7376 584.190139 
L 420.23664 583.588791 
L 419.73568 584.981121 
L 419.23472 588.507616 
L 418.73872 584.825226 
L 418.23776 586.351426 
L 417.74176 583.329275 
L 417.2408 585.195417 
L 416.7448 586.260085 
L 416.2488 584.399953 
L 415.74784 586.239459 
L 415.25184 583.569123 
L 414.7608 587.913017 
L 414.2648 586.243492 
L 413.7688 583.526794 
L 413.27776 583.387954 
L 412.29072 584.552327 
L 411.79968 587.043069 
L 411.30368 584.911065 
L 410.81264 584.546591 
L 410.3216 586.179736 
L 409.83552 587.362121 
L 409.34448 584.965552 
L 408.85344 586.229734 
L 408.36736 583.921676 
L 407.87632 584.684545 
L 407.39024 588.020881 
L 406.90416 584.340741 
L 406.41808 586.001833 
L 405.932 583.365934 
L 405.44592 585.455054 
L 404.95984 586.338656 
L 404.47872 583.928595 
L 403.99264 583.872366 
L 403.51152 582.779606 
L 403.02544 584.31033 
L 402.54432 586.782499 
L 401.58208 585.513952 
L 401.10096 584.520938 
L 400.61984 584.458649 
L 400.13872 584.068128 
L 399.66256 585.779411 
L 399.18144 586.2901 
L 398.70528 584.506636 
L 398.22416 587.142388 
L 397.27184 584.516727 
L 396.31952 587.209147 
L 395.84336 583.324951 
L 395.3672 586.451274 
L 394.896 586.51326 
L 394.41984 586.12592 
L 393.94864 587.540894 
L 393.47744 582.720663 
L 393.00128 586.47004 
L 392.53008 583.323511 
L 392.05888 586.225616 
L 391.58768 585.372937 
L 391.11648 586.73426 
L 390.65024 586.288012 
L 390.17904 587.129886 
L 389.7128 584.381338 
L 389.2416 587.041447 
L 388.77536 586.754425 
L 388.30912 585.506688 
L 387.84288 589.087498 
L 387.37664 585.258061 
L 386.9104 588.577109 
L 386.44416 583.982668 
L 385.97792 587.489147 
L 385.51168 587.194601 
L 385.0504 588.896712 
L 384.58416 587.507612 
L 384.12288 588.641175 
L 383.6616 583.871536 
L 383.20032 586.133242 
L 381.81648 587.519793 
L 381.3552 586.215059 
L 380.89392 588.043087 
L 380.4376 587.84239 
L 379.97632 588.953033 
L 379.52 589.331465 
L 379.06368 588.580938 
L 378.60736 588.095575 
L 378.14608 590.488492 
L 377.68976 587.006007 
L 377.2384 587.489062 
L 376.78208 589.447173 
L 376.32576 585.664854 
L 375.86944 588.106271 
L 375.41808 589.636765 
L 374.96176 588.401619 
L 374.5104 586.781436 
L 374.05904 587.210588 
L 373.60768 588.638189 
L 373.15632 586.594541 
L 372.70496 590.110171 
L 372.2536 590.111932 
L 371.80224 589.411703 
L 371.35088 591.768609 
L 370.90448 589.384764 
L 370.45312 591.313722 
L 370.00672 587.864275 
L 369.56032 588.478809 
L 369.11392 590.555523 
L 368.66256 588.09294 
L 368.21616 587.484664 
L 367.76976 589.075852 
L 367.32832 588.886651 
L 366.88192 588.010419 
L 366.43552 586.753363 
L 365.99408 592.273749 
L 365.54768 587.58805 
L 365.10624 589.062415 
L 364.65984 589.234755 
L 364.2184 590.468222 
L 363.77696 590.178886 
L 363.33552 588.458601 
L 362.89408 589.226003 
L 362.45264 592.135629 
L 362.01616 591.971961 
L 361.57472 593.387469 
L 361.13328 592.087557 
L 360.6968 591.92264 
L 360.26032 591.043126 
L 359.81888 592.28665 
L 359.3824 593.01518 
L 358.94592 592.485663 
L 358.50944 592.967968 
L 358.07296 595.069827 
L 357.63648 593.24696 
L 357.2 592.5959 
L 356.76848 592.445338 
L 355.90048 594.312201 
L 355.464 593.205179 
L 355.03248 592.831294 
L 354.60096 593.474244 
L 354.16944 594.947728 
L 353.73296 593.245645 
L 353.30144 594.885278 
L 352.87488 595.310496 
L 352.44336 593.196999 
L 352.01184 593.272622 
L 351.15376 594.001009 
L 350.7272 593.692468 
L 349.86912 597.165549 
L 349.44256 592.524076 
L 349.016 592.252963 
L 348.58944 595.123877 
L 348.16288 594.361094 
L 347.73632 595.730691 
L 347.30976 594.345214 
L 346.8832 595.006746 
L 346.4616 593.20822 
L 345.61344 597.490661 
L 345.19184 595.796858 
L 344.76528 598.215571 
L 344.34368 597.936705 
L 343.92208 600.494469 
L 343.50048 598.369937 
L 343.07888 598.565915 
L 342.66224 597.65563 
L 342.24064 595.333176 
L 341.4024 596.010159 
L 340.56416 598.065351 
L 340.14256 596.576934 
L 339.30928 601.079352 
L 338.89264 597.862509 
L 338.476 598.672178 
L 338.05936 597.016978 
L 337.64272 596.048273 
L 337.23104 597.360791 
L 336.8144 600.159379 
L 336.39776 596.353526 
L 335.98608 598.505182 
L 335.5744 597.663773 
L 335.15776 596.402361 
L 334.74608 596.640919 
L 334.3344 597.966831 
L 333.92272 598.383201 
L 333.51104 597.8599 
L 333.09936 597.795051 
L 332.68768 599.685015 
L 332.276 596.688333 
L 331.86928 598.80643 
L 331.4576 602.40673 
L 331.05088 599.703876 
L 330.6392 601.853312 
L 330.23248 598.027315 
L 329.82576 603.641134 
L 329.41408 599.678206 
L 329.00736 598.649462 
L 328.60064 600.110018 
L 328.19392 599.999095 
L 327.79216 601.712894 
L 327.38544 600.964091 
L 326.97872 601.285351 
L 326.57696 602.572462 
L 326.17024 602.948539 
L 325.76848 602.761353 
L 324.96 600.162527 
L 323.74976 599.11623 
L 323.35296 600.720267 
L 322.9512 599.986395 
L 322.54944 601.754436 
L 322.14768 600.840905 
L 321.74592 602.321051 
L 320.94736 600.07842 
L 320.55056 605.236821 
L 320.15376 603.203592 
L 319.3552 603.278293 
L 318.9584 600.653101 
L 318.5616 602.685615 
L 318.1648 601.893955 
L 317.768 602.653677 
L 317.3712 602.920734 
L 316.97936 604.058358 
L 316.58256 603.093257 
L 316.18576 600.425243 
L 315.79392 598.968965 
L 315.00528 605.570646 
L 314.61344 604.782406 
L 314.2216 600.612201 
L 313.82976 603.201238 
L 313.43792 603.338285 
L 313.04608 601.5606 
L 312.65424 600.545854 
L 312.2624 601.426749 
L 311.87056 602.976545 
L 311.48368 602.760975 
L 311.09184 602.014357 
L 310.7 601.581895 
L 310.31312 602.959119 
L 309.92624 602.860687 
L 309.5344 606.807267 
L 309.14752 605.667528 
L 308.76064 607.072585 
L 308.37376 605.083857 
L 307.98688 606.029169 
L 307.6 606.265602 
L 306.8312 604.676849 
L 306.44432 604.526076 
L 306.05744 602.597086 
L 305.67552 602.853466 
L 305.28864 607.054487 
L 304.90672 605.790615 
L 304.5248 601.662506 
L 304.13792 604.291305 
L 303.756 605.457619 
L 303.37408 603.981532 
L 302.99216 607.512772 
L 302.61024 609.388855 
L 301.85136 605.544762 
L 301.46944 604.35709 
L 301.08752 602.095651 
L 300.71056 602.469165 
L 300.32864 603.109907 
L 299.95168 602.913799 
L 299.56976 603.514565 
L 299.1928 604.981308 
L 298.81584 603.162181 
L 298.43888 603.735255 
L 298.06192 603.557641 
L 297.68496 602.36002 
L 297.308 604.54703 
L 296.93104 605.668022 
L 296.55408 606.364971 
L 296.17712 605.899328 
L 295.80512 605.968433 
L 295.42816 605.030951 
L 295.05616 602.426635 
L 294.6792 602.724828 
L 294.3072 599.928374 
L 293.93024 602.135964 
L 293.55824 600.994045 
L 292.81424 602.180587 
L 292.44224 602.021142 
L 292.07024 605.104644 
L 291.69824 602.268393 
L 291.32624 606.894476 
L 290.9592 604.481888 
L 290.5872 602.96579 
L 290.22016 602.721467 
L 289.84816 602.723668 
L 289.48112 602.239497 
L 289.10912 599.448885 
L 288.74208 602.752217 
L 288.37504 603.355649 
L 287.636 598.801957 
L 287.26896 600.975218 
L 286.90192 601.85732 
L 286.53984 602.094267 
L 286.1728 606.010906 
L 285.80576 603.440569 
L 285.43872 605.137574 
L 285.07664 604.582669 
L 284.7096 605.585437 
L 284.34752 604.141613 
L 283.98048 605.977576 
L 283.6184 601.80608 
L 283.25632 605.670532 
L 282.88928 600.534223 
L 282.5272 601.749858 
L 282.16512 602.002129 
L 281.80304 601.6424 
L 281.44096 601.638151 
L 281.07888 601.869057 
L 280.72176 602.997383 
L 280.35968 602.663255 
L 279.9976 599.993488 
L 279.64048 604.154501 
L 279.2784 604.483148 
L 278.92128 602.200221 
L 278.5592 601.275622 
L 278.20208 603.391373 
L 277.84496 602.50638 
L 277.48288 603.102861 
L 277.12576 602.527645 
L 276.76864 599.937772 
L 276.41152 602.028636 
L 276.0544 600.360719 
L 275.69728 597.490318 
L 275.34512 598.246876 
L 274.988 599.65004 
L 274.63088 598.935321 
L 274.27872 600.5131 
L 273.9216 599.526084 
L 273.56944 601.349316 
L 273.21232 601.061138 
L 272.86016 603.266093 
L 272.508 602.35057 
L 272.15088 603.715054 
L 271.79872 602.538232 
L 271.0944 603.715443 
L 270.74224 601.922998 
L 270.39008 603.732671 
L 270.04288 599.921043 
L 269.69072 600.238898 
L 269.33856 599.147663 
L 268.99136 599.73924 
L 268.6392 598.534012 
L 268.28704 599.703955 
L 267.93984 598.919189 
L 267.59264 599.631221 
L 267.24048 601.898333 
L 266.89328 602.611229 
L 266.54608 602.72627 
L 266.19888 603.246172 
L 265.85168 602.94488 
L 265.50448 604.52683 
L 265.15728 601.436751 
L 264.46288 598.864818 
L 264.11568 601.09202 
L 263.77344 599.359088 
L 263.42624 599.518134 
L 263.084 596.54462 
L 262.7368 595.860948 
L 262.39456 597.562416 
L 262.04736 592.957233 
L 261.70512 596.738875 
L 261.36288 595.622177 
L 261.02064 599.026616 
L 260.6784 598.824772 
L 260.33616 601.085336 
L 259.99392 599.701163 
L 259.65168 601.585236 
L 259.30944 601.475218 
L 258.9672 602.497481 
L 258.62496 599.991431 
L 258.28768 602.521308 
L 257.94544 600.939866 
L 257.6032 597.344171 
L 257.26592 597.241018 
L 256.92864 599.659679 
L 256.24912 592.18706 
L 255.5696 594.200148 
L 255.23232 594.365968 
L 254.89504 597.590511 
L 254.55776 598.449746 
L 254.22048 598.508196 
L 253.8832 600.313999 
L 253.55088 598.391514 
L 253.2136 600.599668 
L 252.87632 599.729257 
L 252.544 602.468313 
L 252.20672 600.909086 
L 251.86944 600.582688 
L 251.53712 600.029698 
L 251.2048 595.018093 
L 250.86752 596.170861 
L 250.20288 593.445768 
L 249.87056 595.448985 
L 249.53328 592.947031 
L 249.20096 595.55011 
L 248.86864 595.425298 
L 248.54128 596.393614 
L 248.20896 595.587356 
L 247.87664 598.377499 
L 247.54432 599.531976 
L 247.212 601.203091 
L 246.88464 601.414592 
L 246.55232 599.533211 
L 245.89264 598.464998 
L 245.56528 599.349582 
L 245.23792 593.946322 
L 244.9056 593.523521 
L 244.57824 593.866165 
L 244.25088 589.631751 
L 243.92352 592.377418 
L 243.59616 593.113915 
L 243.2688 593.483411 
L 242.94144 593.643043 
L 242.61408 594.115322 
L 242.28672 596.756679 
L 241.95936 603.250416 
L 241.63696 600.816989 
L 241.3096 600.758125 
L 240.9872 601.045376 
L 240.65984 602.456033 
L 240.33744 599.894601 
L 240.01008 599.634247 
L 239.68768 594.848323 
L 239.36528 594.700285 
L 239.03792 594.178046 
L 238.71552 591.149053 
L 238.39312 595.855762 
L 238.07072 591.811553 
L 237.74832 592.323457 
L 237.42592 591.755818 
L 237.10352 594.329072 
L 236.78112 593.996006 
L 236.45872 599.53911 
L 236.14128 597.766519 
L 235.81888 600.091005 
L 235.49648 598.366793 
L 235.17904 599.168865 
L 234.85664 602.656821 
L 234.22176 597.046829 
L 233.89936 595.963077 
L 233.58192 593.951597 
L 233.26448 594.485514 
L 232.94704 591.595479 
L 232.62464 591.30011 
L 232.3072 590.36853 
L 231.98976 590.495497 
L 231.67232 590.447773 
L 231.35984 590.209039 
L 231.0424 591.841102 
L 230.72496 591.959469 
L 230.40752 593.916859 
L 230.09504 588.751722 
L 229.7776 595.088091 
L 229.46016 598.914494 
L 229.14768 599.91119 
L 228.83024 599.338395 
L 228.51776 600.107666 
L 228.20528 599.749008 
L 227.88784 601.003344 
L 227.57536 600.681299 
L 226.9504 597.496329 
L 226.63792 594.483497 
L 226.32544 595.402134 
L 225.70048 589.277805 
L 225.388 590.279951 
L 225.07552 590.038588 
L 224.768 592.497328 
L 224.45552 590.705847 
L 224.14304 592.755859 
L 223.83552 592.263017 
L 223.52304 592.908151 
L 223.21552 597.743761 
L 222.90304 599.573964 
L 222.59552 599.654246 
L 222.28304 602.472167 
L 221.97552 601.52432 
L 221.668 601.265377 
L 221.36048 599.06883 
L 221.05296 599.707867 
L 220.74544 598.923275 
L 220.43792 595.410952 
L 220.1304 595.576925 
L 219.82288 596.609465 
L 219.20784 588.339563 
L 218.90032 591.018941 
L 218.29024 589.228081 
L 217.98272 590.772326 
L 217.68016 593.255038 
L 217.37264 597.138617 
L 216.76752 596.543131 
L 216.46 596.778137 
L 216.15744 600.074932 
L 215.85488 600.620539 
L 215.55232 603.400373 
L 215.24976 603.689933 
L 214.94224 601.201418 
L 214.33712 598.957311 
L 214.03952 598.448905 
L 213.4344 591.848308 
L 213.13184 593.391251 
L 212.82928 593.701374 
L 212.53168 590.161435 
L 212.22912 589.82831 
L 211.93152 591.192101 
L 211.62896 591.374132 
L 211.33136 594.40654 
L 211.0288 595.662626 
L 210.7312 594.307391 
L 210.4336 598.030711 
L 210.13104 596.576796 
L 209.83344 597.84645 
L 209.23824 601.910785 
L 208.94064 601.516959 
L 208.64304 603.861024 
L 208.04784 599.558223 
L 207.75024 599.74942 
L 207.45264 601.449015 
L 207.15504 598.393841 
L 206.8624 592.600688 
L 206.2672 591.910711 
L 205.97456 588.095249 
L 205.67696 591.322008 
L 205.38432 589.290848 
L 205.09168 591.532163 
L 204.79408 590.605444 
L 204.50144 593.863163 
L 204.2088 591.646619 
L 203.9112 595.287713 
L 203.61856 596.346122 
L 203.32592 599.62249 
L 203.03328 601.49994 
L 202.74064 604.240209 
L 202.448 603.417361 
L 202.15536 603.229971 
L 201.86272 599.607175 
L 201.57008 601.568415 
L 201.2824 597.129571 
L 200.98976 597.406669 
L 200.69712 590.565814 
L 200.40944 593.070812 
L 200.1168 593.281261 
L 199.82416 593.786786 
L 199.53648 587.85054 
L 199.2488 590.296142 
L 198.95616 589.124962 
L 198.66848 589.240404 
L 198.3808 589.701078 
L 198.08816 589.224356 
L 197.80048 590.116156 
L 197.5128 593.48978 
L 197.22512 593.312691 
L 196.93744 595.406622 
L 196.64976 599.158607 
L 196.36208 600.040614 
L 196.0744 602.328594 
L 195.78672 602.311114 
L 195.21136 602.798396 
L 194.92864 603.081756 
L 194.64096 602.99158 
L 194.35328 600.918175 
L 194.07056 600.500012 
L 193.50016 597.150328 
L 193.21248 594.924061 
L 192.92976 595.021486 
L 192.64208 589.906927 
L 192.35936 589.050693 
L 192.07664 592.794086 
L 191.79392 588.885746 
L 191.5112 593.006588 
L 190.9408 592.973788 
L 190.65808 596.035632 
L 190.09264 598.877914 
L 189.80992 601.352158 
L 189.53216 600.561488 
L 189.24944 604.702065 
L 188.96672 603.677813 
L 188.684 603.644741 
L 188.40624 605.07815 
L 187.8408 599.315368 
L 187.56304 601.135699 
L 187.00256 594.047575 
L 186.7248 595.221239 
L 186.44208 592.651133 
L 186.16432 591.367445 
L 185.88656 592.700415 
L 185.6088 588.130141 
L 185.32608 593.030666 
L 185.04832 591.396119 
L 184.77056 591.031365 
L 184.4928 592.367175 
L 184.21504 595.587022 
L 183.93728 595.522048 
L 183.65952 596.028374 
L 183.38176 595.632167 
L 182.8312 601.07712 
L 182.55344 602.527839 
L 182.27568 604.657659 
L 182.00288 601.810211 
L 181.72512 605.623188 
L 181.45232 600.046307 
L 181.17456 600.524316 
L 180.90176 599.233315 
L 180.3512 594.823107 
L 180.0784 594.592898 
L 179.52784 589.087535 
L 179.25504 593.380164 
L 178.70944 590.724378 
L 178.16384 595.437497 
L 177.89104 594.693501 
L 177.61824 599.052157 
L 177.34544 600.922872 
L 177.07264 603.899854 
L 176.79984 604.567302 
L 176.2592 607.098518 
L 175.9864 605.581192 
L 175.7136 605.72203 
L 175.44576 602.378577 
L 175.17296 602.24218 
L 174.63232 595.972091 
L 174.36448 595.614452 
L 173.82384 592.585093 
L 173.556 593.685041 
L 173.28816 591.910309 
L 173.01536 592.700154 
L 172.74752 591.544716 
L 172.47968 593.419454 
L 172.21184 593.673064 
L 171.944 599.381516 
L 171.67616 600.510545 
L 171.14048 605.417557 
L 170.87264 606.931299 
L 170.6048 604.976004 
L 170.34192 607.315558 
L 170.07408 604.153088 
L 169.80624 602.539688 
L 169.54336 602.903754 
L 169.27552 602.98959 
L 169.00768 602.273517 
L 168.7448 598.356793 
L 168.47696 597.611792 
L 168.21408 596.094106 
L 167.94624 593.487767 
L 167.68336 592.93666 
L 167.42048 592.861249 
L 167.1576 593.466035 
L 166.88976 595.103054 
L 166.62688 594.788007 
L 165.57536 600.332762 
L 165.31248 603.431905 
L 165.0496 603.946225 
L 164.78672 604.875855 
L 164.52384 606.398637 
L 164.26096 606.102156 
L 163.99808 608.277056 
L 163.47728 602.077494 
L 163.2144 601.530107 
L 162.95648 599.700613 
L 162.6936 596.075101 
L 162.43072 596.353589 
L 162.1728 594.125103 
L 161.90992 593.571247 
L 161.652 592.469619 
L 161.1312 594.071777 
L 160.87328 591.911865 
L 160.61536 595.706983 
L 160.35248 592.638036 
L 160.09456 591.573698 
L 159.83664 598.270402 
L 159.57872 596.750848 
L 159.3208 599.329858 
L 159.06288 599.757018 
L 158.80496 602.395679 
L 158.28912 604.942915 
L 158.0312 607.725241 
L 157.77328 607.099076 
L 157.52032 604.804689 
L 157.2624 606.380768 
L 157.00448 604.271645 
L 156.74656 600.686623 
L 156.4936 602.623903 
L 156.23568 599.848912 
L 155.98272 598.442307 
L 155.7248 596.374727 
L 155.47184 597.943505 
L 155.21392 595.655244 
L 154.96096 595.440164 
L 154.45008 593.851695 
L 154.19712 591.310102 
L 153.94416 593.470629 
L 153.68624 593.690735 
L 153.43328 597.914521 
L 153.18032 597.228273 
L 152.92736 599.042005 
L 152.42144 604.51721 
L 152.16848 605.537935 
L 151.91552 605.528055 
L 151.66256 605.209191 
L 151.4096 610.295508 
L 151.15664 608.999843 
L 150.90864 606.342785 
L 150.65568 607.489683 
L 150.40272 606.549897 
L 150.15472 602.248903 
L 149.90176 601.589565 
L 149.4008 598.490525 
L 149.14784 597.743735 
L 148.89984 598.758876 
L 148.39888 594.365654 
L 148.15088 593.270723 
L 147.89792 593.135907 
L 147.64992 594.793641 
L 147.40192 593.733697 
L 147.14896 593.758687 
L 146.90096 598.765045 
L 146.65296 600.02103 
L 146.40496 600.138472 
L 146.15696 602.697865 
L 145.90896 602.964753 
L 145.66096 603.627743 
L 145.41296 608.590219 
L 145.16496 607.77666 
L 144.91696 608.485765 
L 144.66896 608.723943 
L 144.42592 608.415389 
L 144.17792 606.338288 
L 143.92992 606.978576 
L 143.68192 599.393488 
L 143.43888 601.441591 
L 143.19088 601.591937 
L 142.69984 598.873654 
L 142.2088 598.917077 
L 141.96576 597.948664 
L 141.71776 594.49127 
L 141.47472 598.991081 
L 141.22672 599.588269 
L 140.98368 596.221965 
L 140.4976 601.796308 
L 140.2496 600.840708 
L 139.76352 608.243496 
L 139.52048 605.551795 
L 139.27744 607.401246 
L 139.0344 610.225436 
L 138.79136 610.34818 
L 138.06224 609.412512 
L 137.82416 608.182379 
L 137.33808 603.154203 
L 137.09504 603.072644 
L 136.85696 602.715041 
L 136.61392 600.231609 
L 136.37088 601.848925 
L 136.1328 599.46984 
L 135.88976 600.920769 
L 135.65168 597.209125 
L 135.40864 598.307301 
L 134.93248 601.968936 
L 134.68944 601.922535 
L 134.45136 603.679531 
L 134.21328 603.946568 
L 133.49408 607.728185 
L 133.256 607.511793 
L 133.01792 611.254482 
L 132.54176 610.057607 
L 132.30368 609.666446 
L 132.0656 609.814035 
L 131.82752 610.599834 
L 131.58944 607.638643 
L 131.11328 605.727067 
L 130.8752 603.417285 
L 130.63712 600.01739 
L 130.404 601.525884 
L 130.16592 600.966903 
L 129.92784 603.160806 
L 129.69472 603.269993 
L 129.22352 600.31551 
L 128.98544 600.511811 
L 128.75232 604.109865 
L 128.28112 606.77562 
L 128.04304 606.780896 
L 127.80992 610.157167 
L 127.5768 610.934641 
L 127.33872 610.533723 
L 127.1056 611.195671 
L 126.63936 611.854769 
L 126.40624 611.82201 
L 126.16816 612.421044 
L 125.93504 608.198648 
L 125.70192 607.748091 
L 125.4688 608.352211 
L 124.76944 602.421584 
L 124.54128 602.456707 
L 124.30816 602.879067 
L 124.07504 604.93573 
L 123.84192 603.527233 
L 123.6088 603.619349 
L 123.38064 605.872296 
L 123.14752 604.245055 
L 122.9144 609.185467 
L 122.68624 607.247537 
L 122.45312 612.20911 
L 122.22496 611.487252 
L 121.99184 609.80665 
L 121.76368 612.665232 
L 121.53056 610.489579 
L 121.3024 612.251134 
L 121.06928 608.880965 
L 120.84112 613.189795 
L 120.61296 611.940713 
L 120.37984 609.761643 
L 120.15168 609.19222 
L 119.92352 610.689659 
L 119.69536 605.016939 
L 119.4672 603.895686 
L 119.23904 606.723619 
L 119.00592 604.916615 
L 118.77776 606.463082 
L 118.5496 604.025296 
L 118.32144 604.551805 
L 117.87008 608.657559 
L 117.64192 608.05343 
L 117.41376 610.729615 
L 116.95744 609.181288 
L 116.72928 611.954111 
L 116.27792 611.598133 
L 116.04976 614.770409 
L 115.82656 613.804757 
L 115.5984 615.218086 
L 115.3752 614.610452 
L 115.14704 615.438403 
L 114.92384 613.471882 
L 114.69568 613.456664 
L 114.47248 614.84825 
L 114.24432 613.773245 
L 114.02112 611.412196 
L 113.79792 607.530183 
L 113.12336 608.862283 
L 112.90016 606.450272 
L 112.4488 607.884361 
L 112.2256 609.292614 
L 112.0024 608.562227 
L 111.7792 611.859037 
L 111.556 610.658353 
L 111.3328 611.592476 
L 111.1096 614.427788 
L 110.8864 614.355436 
L 110.44 614.408896 
L 109.77536 618.082186 
L 109.55216 616.781753 
L 109.33392 614.851951 
L 109.11072 616.449605 
L 108.66928 614.25034 
L 108.44608 615.131415 
L 108.22784 615.051329 
L 108.00464 611.120356 
L 107.7864 610.99473 
L 107.5632 612.291329 
L 107.34496 611.11503 
L 107.12176 611.500679 
L 106.90352 612.137199 
L 106.46208 610.135567 
L 106.24384 612.759033 
L 105.80736 610.930801 
L 105.58416 612.883004 
L 105.36592 610.380667 
L 105.14768 612.849552 
L 104.92944 613.349919 
L 104.7112 615.031526 
L 104.49296 617.871591 
L 104.27472 617.000904 
L 104.05648 618.467263 
L 103.83824 616.727671 
L 103.40176 620.318275 
L 103.18352 616.742776 
L 102.97024 617.367767 
L 102.752 617.588709 
L 102.53376 618.774077 
L 102.31552 615.36865 
L 102.10224 615.29658 
L 101.884 614.248506 
L 101.45248 614.097155 
L 101.23424 614.549597 
L 101.02096 611.483981 
L 100.80272 611.438131 
L 100.58944 613.921386 
L 100.3712 614.117786 
L 100.15792 614.091305 
L 99.94464 611.476829 
L 99.7264 612.408014 
L 99.51312 615.027235 
L 99.0816 613.655294 
L 98.86832 617.022068 
L 98.65504 615.119563 
L 98.44176 617.686929 
L 98.22848 615.934959 
L 98.01024 618.563048 
L 97.79696 619.532134 
L 97.58368 618.899219 
L 97.3704 619.839382 
L 97.15712 618.191519 
L 96.94384 621.867539 
L 96.73056 619.195886 
L 96.51728 620.485553 
L 96.30896 621.00805 
L 95.8824 618.077243 
L 95.66912 616.180825 
L 95.45584 618.828752 
L 95.24752 615.87901 
L 95.03424 616.48455 
L 94.82096 615.193357 
L 94.61264 616.232784 
L 94.39936 614.891181 
L 94.18608 617.603708 
L 93.97776 615.534643 
L 93.76448 619.824466 
L 93.34288 616.005933 
L 93.13456 616.345554 
L 92.92624 618.351514 
L 92.71296 616.37372 
L 92.29632 619.376887 
L 91.87472 621.089866 
L 91.6664 619.006207 
L 91.45808 619.963064 
L 91.2448 623.360266 
L 91.03648 620.857791 
L 90.82816 622.882101 
L 90.61984 621.547386 
L 90.2032 621.011721 
L 89.99488 621.08887 
L 89.78656 620.704714 
L 89.57824 618.226465 
L 89.36992 618.671183 
L 89.1616 619.776666 
L 88.95328 620.233469 
L 88.74496 618.192485 
L 88.5416 620.027605 
L 88.33328 617.068769 
L 88.12496 617.718468 
L 87.91664 619.860996 
L 87.50496 619.419642 
L 87.29664 619.269299 
L 87.09328 617.710619 
L 86.6816 621.819313 
L 86.47328 619.464526 
L 86.0616 622.997303 
L 85.85824 623.06842 
L 85.64992 621.237168 
L 85.44656 620.701868 
L 85.03488 623.1619 
L 84.83152 624.003162 
L 84.62816 623.934062 
L 84.4248 622.534434 
L 84.21648 625.593905 
L 84.01312 623.830878 
L 83.80976 624.023735 
L 83.6064 621.359188 
L 83.40304 623.112353 
L 83.19968 621.002289 
L 82.99632 622.454432 
L 82.79296 619.588244 
L 82.5896 622.055974 
L 82.38624 622.042449 
L 82.18288 621.068124 
L 81.97952 622.555019 
L 81.3744 620.202523 
L 81.17104 622.040929 
L 80.96768 622.527419 
L 80.76432 621.920528 
L 80.56592 622.029495 
L 80.1592 623.136846 
L 79.9608 622.362616 
L 79.75744 623.596784 
L 79.55408 623.492492 
L 79.35568 622.883033 
L 79.15232 625.043927 
L 78.95392 625.177349 
L 78.75056 624.568067 
L 78.55216 624.702776 
L 78.35376 623.63082 
L 78.1504 624.629426 
L 77.55024 624.233877 
L 77.35184 624.846378 
L 77.15344 623.284099 
L 76.75168 624.697214 
L 76.55328 623.89405 
L 76.35488 621.828203 
L 76.15648 624.375546 
L 75.95808 622.055886 
L 75.75968 622.021154 
L 75.16448 625.538674 
L 74.96608 622.259022 
L 74.37088 626.034806 
L 74.17744 625.337011 
L 73.97904 625.574448 
L 73.78064 626.445069 
L 73.58224 625.804768 
L 73.3888 626.750447 
L 73.1904 626.873589 
L 72.992 625.58971 
L 72.79856 625.198457 
L 72.60016 627.643477 
L 72.40176 625.183417 
L 72.20832 625.63445 
L 72.00992 625.369637 
L 72.00992 625.369637 
" clip-path="url(#p2c921d2920)" style="fill: none; stroke-dasharray: 3.7,1.6; stroke-dashoffset: 0; stroke: #808080"/>
   </g>
   <g id="line2d_28">
    <path d="M 72 598.8 
L 518.4 598.8 
" clip-path="url(#p2c921d2920)" style="fill: none; stroke-dasharray: 5.55,2.4; stroke-dashoffset: 0; stroke: #000000; stroke-width: 1.5"/>
   </g>
   <g id="patch_9">
    <path d="M 72 640.8 
L 72 556.8 
" style="fill: none; stroke: #000000; stroke-width: 0.8; stroke-linejoin: miter; stroke-linecap: square"/>
   </g>
   <g id="patch_10">
    <path d="M 518.4 640.8 
L 518.4 556.8 
" style="fill: none; stroke: #000000; stroke-width: 0.8; stroke-linejoin: miter; stroke-linecap: square"/>
   </g>
   <g id="patch_11">
    <path d="M 72 640.8 
L 518.4 640.8 
" style="fill: none; stroke: #000000; stroke-width: 0.8; stroke-linejoin: miter; stroke-linecap: square"/>
   </g>
   <g id="patch_12">
    <path d="M 72 556.8 
L 518.4 556.8 
" style="fill: none; stroke: #000000; stroke-width: 0.8; stroke-linejoin: miter; stroke-linecap: square"/>
   </g>
  </g>
  <g id="text_22">
   <!-- Photon energy (eV) -->
   <g transform="translate(229.8825 710.304375) scale(0.12 -0.12)">
    <defs>
     <path id="DejaVuSans-50" d="M 1259 4147 
L 1259 2394 
L 2053 2394 
Q 2494 2394 2734 2622 
Q 2975 2850 2975 3272 
Q 2975 3691 2734 3919 
Q 2494 4147 2053 4147 
L 1259 4147 
z
M 628 4666 
L 2053 4666 
Q 2838 4666 3239 4311 
Q 3641 3956 3641 3272 
Q 3641 2581 3239 2228 
Q 2838 1875 2053 1875 
L 1259 1875 
L 1259 0 
L 628 0 
L 628 4666 
z
" transform="scale(0.015625)"/>
     <path id="DejaVuSans-68" d="M 3513 2113 
L 3513 0 
L 2938 0 
L 2938 2094 
Q 2938 2591 2744 2837 
Q 2550 3084 2163 3084 
Q 1697 3084 1428 2787 
Q 1159 2491 1159 1978 
L 1159 0 
L 581 0 
L 581 4863 
L 1159 4863 
L 1159 2956 
Q 1366 3272 1645 3428 
Q 1925 3584 2291 3584 
Q 2894 3584 3203 3211 
Q 3513 2838 3513 2113 
z
" transform="scale(0.015625)"/>
     <path id="DejaVuSans-67" d="M 2906 1791 
Q 2906 2416 2648 2759 
Q 2391 3103 1925 3103 
Q 1463 3103 1205 2759 
Q 947 2416 947 1791 
Q 947 1169 1205 825 
Q 1463 481 1925 481 
Q 2391 481 2648 825 
Q 2906 1169 2906 1791 
z
M 3481 434 
Q 3481 -459 3084 -895 
Q 2688 -1331 1869 -1331 
Q 1566 -1331 1297 -1286 
Q 1028 -1241 775 -1147 
L 775 -588 
Q 1028 -725 1275 -790 
Q 1522 -856 1778 -856 
Q 2344 -856 2625 -561 
Q 2906 -266 2906 331 
L 2906 616 
Q 2728 306 2450 153 
Q 2172 0 1784 0 
Q 1141 0 747 490 
Q 353 981 353 1791 
Q 353 2603 747 3093 
Q 1141 3584 1784 3584 
Q 2172 3584 2450 3431 
Q 2728 3278 2906 2969 
L 2906 3500 
L 3481 3500 
L 3481 434 
z
" transform="scale(0.015625)"/>
     <path id="DejaVuSans-56" d="M 1831 0 
L 50 4666 
L 709 4666 
L 2188 738 
L 3669 4666 
L 4325 4666 
L 2547 0 
L 1831 0 
z
" transform="scale(0.015625)"/>
    </defs>
    <use xlink:href="#DejaVuSans-50"/>
    <use xlink:href="#DejaVuSans-68" transform="translate(60.302734 0)"/>
    <use xlink:href="#DejaVuSans-6f" transform="translate(123.681641 0)"/>
    <use xlink:href="#DejaVuSans-74" transform="translate(184.863281 0)"/>
    <use xlink:href="#DejaVuSans-6f" transform="translate(224.072266 0)"/>
    <use xlink:href="#DejaVuSans-6e" transform="translate(285.253906 0)"/>
    <use xlink:href="#DejaVuSans-20" transform="translate(348.632812 0)"/>
    <use xlink:href="#DejaVuSans-65" transform="translate(380.419922 0)"/>
    <use xlink:href="#DejaVuSans-6e" transform="translate(441.943359 0)"/>
    <use xlink:href="#DejaVuSans-65" transform="translate(505.322266 0)"/>
    <use xlink:href="#DejaVuSans-72" transform="translate(566.845703 0)"/>
    <use xlink:href="#DejaVuSans-67" transform="translate(606.208984 0)"/>
    <use xlink:href="#DejaVuSans-79" transform="translate(669.685547 0)"/>
    <use xlink:href="#DejaVuSans-20" transform="translate(728.865234 0)"/>
    <use xlink:href="#DejaVuSans-28" transform="translate(760.652344 0)"/>
    <use xlink:href="#DejaVuSans-65" transform="translate(799.666016 0)"/>
    <use xlink:href="#DejaVuSans-56" transform="translate(861.189453 0)"/>
    <use xlink:href="#DejaVuSans-29" transform="translate(929.597656 0)"/>
   </g>
  </g>
  <g id="text_23">
   <!-- Excitation power 0.2 mW -->
   <g transform="translate(212.689687 23.518125) scale(0.12 -0.12)">
    <defs>
     <path id="DejaVuSans-45" d="M 628 4666 
L 3578 4666 
L 3578 4134 
L 1259 4134 
L 1259 2753 
L 3481 2753 
L 3481 2222 
L 1259 2222 
L 1259 531 
L 3634 531 
L 3634 0 
L 628 0 
L 628 4666 
z
" transform="scale(0.015625)"/>
     <path id="DejaVuSans-78" d="M 3513 3500 
L 2247 1797 
L 3578 0 
L 2900 0 
L 1881 1375 
L 863 0 
L 184 0 
L 1544 1831 
L 300 3500 
L 978 3500 
L 1906 2253 
L 2834 3500 
L 3513 3500 
z
" transform="scale(0.015625)"/>
     <path id="DejaVuSans-70" d="M 1159 525 
L 1159 -1331 
L 581 -1331 
L 581 3500 
L 1159 3500 
L 1159 2969 
Q 1341 3281 1617 3432 
Q 1894 3584 2278 3584 
Q 2916 3584 3314 3078 
Q 3713 2572 3713 1747 
Q 3713 922 3314 415 
Q 2916 -91 2278 -91 
Q 1894 -91 1617 61 
Q 1341 213 1159 525 
z
M 3116 1747 
Q 3116 2381 2855 2742 
Q 2594 3103 2138 3103 
Q 1681 3103 1420 2742 
Q 1159 2381 1159 1747 
Q 1159 1113 1420 752 
Q 1681 391 2138 391 
Q 2594 391 2855 752 
Q 3116 1113 3116 1747 
z
" transform="scale(0.015625)"/>
     <path id="DejaVuSans-77" d="M 269 3500 
L 844 3500 
L 1563 769 
L 2278 3500 
L 2956 3500 
L 3675 769 
L 4391 3500 
L 4966 3500 
L 4050 0 
L 3372 0 
L 2619 2869 
L 1863 0 
L 1184 0 
L 269 3500 
z
" transform="scale(0.015625)"/>
     <path id="DejaVuSans-6d" d="M 3328 2828 
Q 3544 3216 3844 3400 
Q 4144 3584 4550 3584 
Q 5097 3584 5394 3201 
Q 5691 2819 5691 2113 
L 5691 0 
L 5113 0 
L 5113 2094 
Q 5113 2597 4934 2840 
Q 4756 3084 4391 3084 
Q 3944 3084 3684 2787 
Q 3425 2491 3425 1978 
L 3425 0 
L 2847 0 
L 2847 2094 
Q 2847 2600 2669 2842 
Q 2491 3084 2119 3084 
Q 1678 3084 1418 2786 
Q 1159 2488 1159 1978 
L 1159 0 
L 581 0 
L 581 3500 
L 1159 3500 
L 1159 2956 
Q 1356 3278 1631 3431 
Q 1906 3584 2284 3584 
Q 2666 3584 2933 3390 
Q 3200 3197 3328 2828 
z
" transform="scale(0.015625)"/>
     <path id="DejaVuSans-57" d="M 213 4666 
L 850 4666 
L 1831 722 
L 2809 4666 
L 3519 4666 
L 4500 722 
L 5478 4666 
L 6119 4666 
L 4947 0 
L 4153 0 
L 3169 4050 
L 2175 0 
L 1381 0 
L 213 4666 
z
" transform="scale(0.015625)"/>
    </defs>
    <use xlink:href="#DejaVuSans-45"/>
    <use xlink:href="#DejaVuSans-78" transform="translate(63.183594 0)"/>
    <use xlink:href="#DejaVuSans-63" transform="translate(120.613281 0)"/>
    <use xlink:href="#DejaVuSans-69" transform="translate(175.59375 0)"/>
    <use xlink:href="#DejaVuSans-74" transform="translate(203.376953 0)"/>
    <use xlink:href="#DejaVuSans-61" transform="translate(242.585938 0)"/>
    <use xlink:href="#DejaVuSans-74" transform="translate(303.865234 0)"/>
    <use xlink:href="#DejaVuSans-69" transform="translate(343.074219 0)"/>
    <use xlink:href="#DejaVuSans-6f" transform="translate(370.857422 0)"/>
    <use xlink:href="#DejaVuSans-6e" transform="translate(432.039062 0)"/>
    <use xlink:href="#DejaVuSans-20" transform="translate(495.417969 0)"/>
    <use xlink:href="#DejaVuSans-70" transform="translate(527.205078 0)"/>
    <use xlink:href="#DejaVuSans-6f" transform="translate(590.681641 0)"/>
    <use xlink:href="#DejaVuSans-77" transform="translate(651.863281 0)"/>
    <use xlink:href="#DejaVuSans-65" transform="translate(733.650391 0)"/>
    <use xlink:href="#DejaVuSans-72" transform="translate(795.173828 0)"/>
    <use xlink:href="#DejaVuSans-20" transform="translate(836.287109 0)"/>
    <use xlink:href="#DejaVuSans-30" transform="translate(868.074219 0)"/>
    <use xlink:href="#DejaVuSans-2e" transform="translate(931.697266 0)"/>
    <use xlink:href="#DejaVuSans-32" transform="translate(963.484375 0)"/>
    <use xlink:href="#DejaVuSans-20" transform="translate(1027.107422 0)"/>
    <use xlink:href="#DejaVuSans-6d" transform="translate(1058.894531 0)"/>
    <use xlink:href="#DejaVuSans-57" transform="translate(1156.306641 0)"/>
   </g>
  </g>
 </g>
 <defs>
  <clipPath id="pd900a61d1b">
   <rect x="72" y="86.4" width="446.4" height="420"/>
  </clipPath>
  <clipPath id="p2c921d2920">
   <rect x="72" y="556.8" width="446.4" height="84"/>
  </clipPath>
 </defs>
</svg>
