<?xml version="1.0" encoding="utf-8" standalone="no"?>
<!DOCTYPE svg PUBLIC "-//W3C//DTD SVG 1.1//EN"
  "http://www.w3.org/Graphics/SVG/1.1/DTD/svg11.dtd">
<svg xmlns:xlink="http://www.w3.org/1999/xlink" width="576pt" height="720pt" viewBox="0 0 576 720" xmlns="http://www.w3.org/2000/svg" version="1.1">
 <metadata>
  <rdf:RDF xmlns:dc="http://purl.org/dc/elements/1.1/" xmlns:cc="http://creativecommons.org/ns#" xmlns:rdf="http://www.w3.org/1999/02/22-rdf-syntax-ns#">
   <cc:Work>
    <dc:type rdf:resource="http://purl.org/dc/dcmitype/StillImage"/>
    <dc:date>2026-06-10T15:01:55.478961</dc:date>
    <dc:format>image/svg+xml</dc:format>
    <dc:creator>
     <cc:Agent>
      <dc:title>Matplotlib v3.10.0, https://matplotlib.org/</dc:title>
     </cc:Agent>
    </dc:creator>
   </cc:Work>
  </rdf:RDF>
 </metadata>
 <defs>
  <style type="text/css">*{stroke-linejoin: round; stroke-linecap: butt}</style>
 </defs>
 <g id="figure_1">
  <g id="patch_1">
   <path d="M 0 720 
L 576 720 
L 576 0 
L 0 0 
z
" style="fill: #ffffff"/>
  </g>
  <g id="axes_1">
   <g id="patch_2">
    <path d="M 72 506.4 
L 518.4 506.4 
L 518.4 86.4 
L 72 86.4 
z
" style="fill: #ffffff"/>
   </g>
   <g id="matplotlib.axis_1">
    <g id="xtick_1">
     <g id="line2d_1">
      <defs>
       <path id="m71d7b5dcd4" d="M 0 0 
L 0 3.5 
" style="stroke: #000000; stroke-width: 0.8"/>
      </defs>
      <g>
       <use xlink:href="#m71d7b5dcd4" x="72" y="506.4" style="stroke: #000000; stroke-width: 0.8"/>
      </g>
     </g>
    </g>
    <g id="xtick_2">
     <g id="line2d_2">
      <g>
       <use xlink:href="#m71d7b5dcd4" x="171.2" y="506.4" style="stroke: #000000; stroke-width: 0.8"/>
      </g>
     </g>
    </g>
    <g id="xtick_3">
     <g id="line2d_3">
      <g>
       <use xlink:href="#m71d7b5dcd4" x="270.4" y="506.4" style="stroke: #000000; stroke-width: 0.8"/>
      </g>
     </g>
    </g>
    <g id="xtick_4">
     <g id="line2d_4">
      <g>
       <use xlink:href="#m71d7b5dcd4" x="369.6" y="506.4" style="stroke: #000000; stroke-width: 0.8"/>
      </g>
     </g>
    </g>
    <g id="xtick_5">
     <g id="line2d_5">
      <g>
       <use xlink:href="#m71d7b5dcd4" x="468.8" y="506.4" style="stroke: #000000; stroke-width: 0.8"/>
      </g>
     </g>
    </g>
   </g>
   <g id="matplotlib.axis_2">
    <g id="ytick_1">
     <g id="line2d_6">
      <defs>
       <path id="m36befe8d0f" d="M 0 0 
L -3.5 0 
" style="stroke: #000000; stroke-width: 0.8"/>
      </defs>
      <g>
       <use xlink:href="#m36befe8d0f" x="72" y="485.555001" style="stroke: #000000; stroke-width: 0.8"/>
      </g>
     </g>
     <g id="text_1">
      <!-- 0 -->
      <g transform="translate(58.6375 489.35422) scale(0.1 -0.1)">
       <defs>
        <path id="DejaVuSans-30" d="M 2034 4250 
Q 1547 4250 1301 3770 
Q 1056 3291 1056 2328 
Q 1056 1369 1301 889 
Q 1547 409 2034 409 
Q 2525 409 2770 889 
Q 3016 1369 3016 2328 
Q 3016 3291 2770 3770 
Q 2525 4250 2034 4250 
z
M 2034 4750 
Q 2819 4750 3233 4129 
Q 3647 3509 3647 2328 
Q 3647 1150 3233 529 
Q 2819 -91 2034 -91 
Q 1250 -91 836 529 
Q 422 1150 422 2328 
Q 422 3509 836 4129 
Q 1250 4750 2034 4750 
z
" transform="scale(0.015625)"/>
       </defs>
       <use xlink:href="#DejaVuSans-30"/>
      </g>
     </g>
    </g>
    <g id="ytick_2">
     <g id="line2d_7">
      <g>
       <use xlink:href="#m36befe8d0f" x="72" y="408.225227" style="stroke: #000000; stroke-width: 0.8"/>
      </g>
     </g>
     <g id="text_2">
      <!-- 5000 -->
      <g transform="translate(39.55 412.024446) scale(0.1 -0.1)">
       <defs>
        <path id="DejaVuSans-35" d="M 691 4666 
L 3169 4666 
L 3169 4134 
L 1269 4134 
L 1269 2991 
Q 1406 3038 1543 3061 
Q 1681 3084 1819 3084 
Q 2600 3084 3056 2656 
Q 3513 2228 3513 1497 
Q 3513 744 3044 326 
Q 2575 -91 1722 -91 
Q 1428 -91 1123 -41 
Q 819 9 494 109 
L 494 744 
Q 775 591 1075 516 
Q 1375 441 1709 441 
Q 2250 441 2565 725 
Q 2881 1009 2881 1497 
Q 2881 1984 2565 2268 
Q 2250 2553 1709 2553 
Q 1456 2553 1204 2497 
Q 953 2441 691 2322 
L 691 4666 
z
" transform="scale(0.015625)"/>
       </defs>
       <use xlink:href="#DejaVuSans-35"/>
       <use xlink:href="#DejaVuSans-30" transform="translate(63.623047 0)"/>
       <use xlink:href="#DejaVuSans-30" transform="translate(127.246094 0)"/>
       <use xlink:href="#DejaVuSans-30" transform="translate(190.869141 0)"/>
      </g>
     </g>
    </g>
    <g id="ytick_3">
     <g id="line2d_8">
      <g>
       <use xlink:href="#m36befe8d0f" x="72" y="330.895453" style="stroke: #000000; stroke-width: 0.8"/>
      </g>
     </g>
     <g id="text_3">
      <!-- 10000 -->
      <g transform="translate(33.1875 334.694672) scale(0.1 -0.1)">
       <defs>
        <path id="DejaVuSans-31" d="M 794 531 
L 1825 531 
L 1825 4091 
L 703 3866 
L 703 4441 
L 1819 4666 
L 2450 4666 
L 2450 531 
L 3481 531 
L 3481 0 
L 794 0 
L 794 531 
z
" transform="scale(0.015625)"/>
       </defs>
       <use xlink:href="#DejaVuSans-31"/>
       <use xlink:href="#DejaVuSans-30" transform="translate(63.623047 0)"/>
       <use xlink:href="#DejaVuSans-30" transform="translate(127.246094 0)"/>
       <use xlink:href="#DejaVuSans-30" transform="translate(190.869141 0)"/>
       <use xlink:href="#DejaVuSans-30" transform="translate(254.492188 0)"/>
      </g>
     </g>
    </g>
    <g id="ytick_4">
     <g id="line2d_9">
      <g>
       <use xlink:href="#m36befe8d0f" x="72" y="253.565679" style="stroke: #000000; stroke-width: 0.8"/>
      </g>
     </g>
     <g id="text_4">
      <!-- 15000 -->
      <g transform="translate(33.1875 257.364898) scale(0.1 -0.1)">
       <use xlink:href="#DejaVuSans-31"/>
       <use xlink:href="#DejaVuSans-35" transform="translate(63.623047 0)"/>
       <use xlink:href="#DejaVuSans-30" transform="translate(127.246094 0)"/>
       <use xlink:href="#DejaVuSans-30" transform="translate(190.869141 0)"/>
       <use xlink:href="#DejaVuSans-30" transform="translate(254.492188 0)"/>
      </g>
     </g>
    </g>
    <g id="ytick_5">
     <g id="line2d_10">
      <g>
       <use xlink:href="#m36befe8d0f" x="72" y="176.235905" style="stroke: #000000; stroke-width: 0.8"/>
      </g>
     </g>
     <g id="text_5">
      <!-- 20000 -->
      <g transform="translate(33.1875 180.035124) scale(0.1 -0.1)">
       <defs>
        <path id="DejaVuSans-32" d="M 1228 531 
L 3431 531 
L 3431 0 
L 469 0 
L 469 531 
Q 828 903 1448 1529 
Q 2069 2156 2228 2338 
Q 2531 2678 2651 2914 
Q 2772 3150 2772 3378 
Q 2772 3750 2511 3984 
Q 2250 4219 1831 4219 
Q 1534 4219 1204 4116 
Q 875 4013 500 3803 
L 500 4441 
Q 881 4594 1212 4672 
Q 1544 4750 1819 4750 
Q 2544 4750 2975 4387 
Q 3406 4025 3406 3419 
Q 3406 3131 3298 2873 
Q 3191 2616 2906 2266 
Q 2828 2175 2409 1742 
Q 1991 1309 1228 531 
z
" transform="scale(0.015625)"/>
       </defs>
       <use xlink:href="#DejaVuSans-32"/>
       <use xlink:href="#DejaVuSans-30" transform="translate(63.623047 0)"/>
       <use xlink:href="#DejaVuSans-30" transform="translate(127.246094 0)"/>
       <use xlink:href="#DejaVuSans-30" transform="translate(190.869141 0)"/>
       <use xlink:href="#DejaVuSans-30" transform="translate(254.492188 0)"/>
      </g>
     </g>
    </g>
    <g id="ytick_6">
     <g id="line2d_11">
      <g>
       <use xlink:href="#m36befe8d0f" x="72" y="98.906131" style="stroke: #000000; stroke-width: 0.8"/>
      </g>
     </g>
     <g id="text_6">
      <!-- 25000 -->
      <g transform="translate(33.1875 102.70535) scale(0.1 -0.1)">
       <use xlink:href="#DejaVuSans-32"/>
       <use xlink:href="#DejaVuSans-35" transform="translate(63.623047 0)"/>
       <use xlink:href="#DejaVuSans-30" transform="translate(127.246094 0)"/>
       <use xlink:href="#DejaVuSans-30" transform="translate(190.869141 0)"/>
       <use xlink:href="#DejaVuSans-30" transform="translate(254.492188 0)"/>
      </g>
     </g>
    </g>
    <g id="text_7">
     <!-- Intensitiy (a.u.) -->
     <g transform="translate(27.107812 334.453125) rotate(-90) scale(0.1 -0.1)">
      <defs>
       <path id="DejaVuSans-49" d="M 628 4666 
L 1259 4666 
L 1259 0 
L 628 0 
L 628 4666 
z
" transform="scale(0.015625)"/>
       <path id="DejaVuSans-6e" d="M 3513 2113 
L 3513 0 
L 2938 0 
L 2938 2094 
Q 2938 2591 2744 2837 
Q 2550 3084 2163 3084 
Q 1697 3084 1428 2787 
Q 1159 2491 1159 1978 
L 1159 0 
L 581 0 
L 581 3500 
L 1159 3500 
L 1159 2956 
Q 1366 3272 1645 3428 
Q 1925 3584 2291 3584 
Q 2894 3584 3203 3211 
Q 3513 2838 3513 2113 
z
" transform="scale(0.015625)"/>
       <path id="DejaVuSans-74" d="M 1172 4494 
L 1172 3500 
L 2356 3500 
L 2356 3053 
L 1172 3053 
L 1172 1153 
Q 1172 725 1289 603 
Q 1406 481 1766 481 
L 2356 481 
L 2356 0 
L 1766 0 
Q 1100 0 847 248 
Q 594 497 594 1153 
L 594 3053 
L 172 3053 
L 172 3500 
L 594 3500 
L 594 4494 
L 1172 4494 
z
" transform="scale(0.015625)"/>
       <path id="DejaVuSans-65" d="M 3597 1894 
L 3597 1613 
L 953 1613 
Q 991 1019 1311 708 
Q 1631 397 2203 397 
Q 2534 397 2845 478 
Q 3156 559 3463 722 
L 3463 178 
Q 3153 47 2828 -22 
Q 2503 -91 2169 -91 
Q 1331 -91 842 396 
Q 353 884 353 1716 
Q 353 2575 817 3079 
Q 1281 3584 2069 3584 
Q 2775 3584 3186 3129 
Q 3597 2675 3597 1894 
z
M 3022 2063 
Q 3016 2534 2758 2815 
Q 2500 3097 2075 3097 
Q 1594 3097 1305 2825 
Q 1016 2553 972 2059 
L 3022 2063 
z
" transform="scale(0.015625)"/>
       <path id="DejaVuSans-73" d="M 2834 3397 
L 2834 2853 
Q 2591 2978 2328 3040 
Q 2066 3103 1784 3103 
Q 1356 3103 1142 2972 
Q 928 2841 928 2578 
Q 928 2378 1081 2264 
Q 1234 2150 1697 2047 
L 1894 2003 
Q 2506 1872 2764 1633 
Q 3022 1394 3022 966 
Q 3022 478 2636 193 
Q 2250 -91 1575 -91 
Q 1294 -91 989 -36 
Q 684 19 347 128 
L 347 722 
Q 666 556 975 473 
Q 1284 391 1588 391 
Q 1994 391 2212 530 
Q 2431 669 2431 922 
Q 2431 1156 2273 1281 
Q 2116 1406 1581 1522 
L 1381 1569 
Q 847 1681 609 1914 
Q 372 2147 372 2553 
Q 372 3047 722 3315 
Q 1072 3584 1716 3584 
Q 2034 3584 2315 3537 
Q 2597 3491 2834 3397 
z
" transform="scale(0.015625)"/>
       <path id="DejaVuSans-69" d="M 603 3500 
L 1178 3500 
L 1178 0 
L 603 0 
L 603 3500 
z
M 603 4863 
L 1178 4863 
L 1178 4134 
L 603 4134 
L 603 4863 
z
" transform="scale(0.015625)"/>
       <path id="DejaVuSans-79" d="M 2059 -325 
Q 1816 -950 1584 -1140 
Q 1353 -1331 966 -1331 
L 506 -1331 
L 506 -850 
L 844 -850 
Q 1081 -850 1212 -737 
Q 1344 -625 1503 -206 
L 1606 56 
L 191 3500 
L 800 3500 
L 1894 763 
L 2988 3500 
L 3597 3500 
L 2059 -325 
z
" transform="scale(0.015625)"/>
       <path id="DejaVuSans-20" transform="scale(0.015625)"/>
       <path id="DejaVuSans-28" d="M 1984 4856 
Q 1566 4138 1362 3434 
Q 1159 2731 1159 2009 
Q 1159 1288 1364 580 
Q 1569 -128 1984 -844 
L 1484 -844 
Q 1016 -109 783 600 
Q 550 1309 550 2009 
Q 550 2706 781 3412 
Q 1013 4119 1484 4856 
L 1984 4856 
z
" transform="scale(0.015625)"/>
       <path id="DejaVuSans-61" d="M 2194 1759 
Q 1497 1759 1228 1600 
Q 959 1441 959 1056 
Q 959 750 1161 570 
Q 1363 391 1709 391 
Q 2188 391 2477 730 
Q 2766 1069 2766 1631 
L 2766 1759 
L 2194 1759 
z
M 3341 1997 
L 3341 0 
L 2766 0 
L 2766 531 
Q 2569 213 2275 61 
Q 1981 -91 1556 -91 
Q 1019 -91 701 211 
Q 384 513 384 1019 
Q 384 1609 779 1909 
Q 1175 2209 1959 2209 
L 2766 2209 
L 2766 2266 
Q 2766 2663 2505 2880 
Q 2244 3097 1772 3097 
Q 1472 3097 1187 3025 
Q 903 2953 641 2809 
L 641 3341 
Q 956 3463 1253 3523 
Q 1550 3584 1831 3584 
Q 2591 3584 2966 3190 
Q 3341 2797 3341 1997 
z
" transform="scale(0.015625)"/>
       <path id="DejaVuSans-2e" d="M 684 794 
L 1344 794 
L 1344 0 
L 684 0 
L 684 794 
z
" transform="scale(0.015625)"/>
       <path id="DejaVuSans-75" d="M 544 1381 
L 544 3500 
L 1119 3500 
L 1119 1403 
Q 1119 906 1312 657 
Q 1506 409 1894 409 
Q 2359 409 2629 706 
Q 2900 1003 2900 1516 
L 2900 3500 
L 3475 3500 
L 3475 0 
L 2900 0 
L 2900 538 
Q 2691 219 2414 64 
Q 2138 -91 1772 -91 
Q 1169 -91 856 284 
Q 544 659 544 1381 
z
M 1991 3584 
L 1991 3584 
z
" transform="scale(0.015625)"/>
       <path id="DejaVuSans-29" d="M 513 4856 
L 1013 4856 
Q 1481 4119 1714 3412 
Q 1947 2706 1947 2009 
Q 1947 1309 1714 600 
Q 1481 -109 1013 -844 
L 513 -844 
Q 928 -128 1133 580 
Q 1338 1288 1338 2009 
Q 1338 2731 1133 3434 
Q 928 4138 513 4856 
z
" transform="scale(0.015625)"/>
      </defs>
      <use xlink:href="#DejaVuSans-49"/>
      <use xlink:href="#DejaVuSans-6e" transform="translate(29.492188 0)"/>
      <use xlink:href="#DejaVuSans-74" transform="translate(92.871094 0)"/>
      <use xlink:href="#DejaVuSans-65" transform="translate(132.080078 0)"/>
      <use xlink:href="#DejaVuSans-6e" transform="translate(193.603516 0)"/>
      <use xlink:href="#DejaVuSans-73" transform="translate(256.982422 0)"/>
      <use xlink:href="#DejaVuSans-69" transform="translate(309.082031 0)"/>
      <use xlink:href="#DejaVuSans-74" transform="translate(336.865234 0)"/>
      <use xlink:href="#DejaVuSans-69" transform="translate(376.074219 0)"/>
      <use xlink:href="#DejaVuSans-79" transform="translate(403.857422 0)"/>
      <use xlink:href="#DejaVuSans-20" transform="translate(463.037109 0)"/>
      <use xlink:href="#DejaVuSans-28" transform="translate(494.824219 0)"/>
      <use xlink:href="#DejaVuSans-61" transform="translate(533.837891 0)"/>
      <use xlink:href="#DejaVuSans-2e" transform="translate(595.117188 0)"/>
      <use xlink:href="#DejaVuSans-75" transform="translate(626.904297 0)"/>
      <use xlink:href="#DejaVuSans-2e" transform="translate(690.283203 0)"/>
      <use xlink:href="#DejaVuSans-29" transform="translate(722.070312 0)"/>
     </g>
    </g>
   </g>
   <g id="line2d_12">
    <path d="M 518.29584 486.313211 
L 517.68576 486.483578 
L 517.07568 486.530216 
L 515.85552 486.051254 
L 515.24544 486.592803 
L 514.03024 486.175702 
L 513.42016 486.438864 
L 512.81504 485.975125 
L 512.20992 486.315615 
L 511.6048 485.650818 
L 510.39952 485.960613 
L 509.7944 486.285637 
L 509.19424 485.914691 
L 508.58912 486.054124 
L 507.3888 485.667949 
L 506.7936 485.822843 
L 506.19344 485.622023 
L 505.59328 486.132637 
L 504.40288 485.885651 
L 503.80768 485.360044 
L 503.21248 485.004562 
L 502.61728 485.174923 
L 502.02208 485.824728 
L 501.43184 485.747631 
L 500.83664 485.191092 
L 500.2464 485.315053 
L 499.65616 485.268888 
L 499.06592 484.743279 
L 497.30016 485.192489 
L 496.70992 484.837005 
L 496.12464 485.223885 
L 494.95408 484.497447 
L 494.3688 484.946191 
L 493.78352 484.34325 
L 493.2032 484.157888 
L 492.61792 484.297313 
L 490.87696 484.390796 
L 490.29664 484.159036 
L 489.71632 484.329391 
L 489.136 484.32962 
L 488.56064 483.138968 
L 487.98528 483.185594 
L 487.40496 484.438565 
L 486.8296 483.680961 
L 486.25424 483.882245 
L 485.67888 483.696881 
L 484.53312 483.001366 
L 483.96272 483.635695 
L 483.38736 483.079148 
L 482.81696 482.816452 
L 482.24656 482.955871 
L 481.67616 482.275594 
L 481.11072 482.786194 
L 480.54032 482.183247 
L 479.96992 481.951483 
L 479.40448 482.415685 
L 478.2736 481.42631 
L 477.70816 482.416355 
L 477.14272 481.689678 
L 476.57728 481.674436 
L 476.01184 482.030376 
L 475.45136 480.978912 
L 474.89088 481.891625 
L 474.32544 481.19588 
L 473.20448 481.459244 
L 472.64896 481.026417 
L 472.08848 480.268807 
L 471.528 480.454619 
L 470.97248 480.346577 
L 470.41696 479.681761 
L 469.85648 480.037699 
L 468.74544 479.666955 
L 468.19488 479.125864 
L 467.63936 479.574596 
L 466.53328 479.234782 
L 465.98272 477.611074 
L 465.43216 478.276327 
L 464.8816 479.17357 
L 464.33104 478.694343 
L 463.78048 478.972948 
L 463.22992 477.782287 
L 462.68432 479.097108 
L 462.13376 477.195013 
L 461.58816 477.550946 
L 461.04256 478.66471 
L 460.49696 476.778079 
L 459.40576 477.010499 
L 458.86016 476.206485 
L 458.31952 476.979996 
L 457.77392 475.57281 
L 457.23328 475.573024 
L 456.69264 475.851624 
L 456.152 474.800153 
L 454.53008 474.6616 
L 453.9944 475.326847 
L 453.45376 474.569229 
L 452.91808 474.136394 
L 452.3824 474.012878 
L 451.84672 474.198681 
L 451.31104 473.008014 
L 450.77536 472.791702 
L 450.23968 472.266071 
L 449.70896 472.204417 
L 449.17328 471.292137 
L 448.64256 471.709928 
L 448.11184 471.694671 
L 447.57616 470.797858 
L 447.04544 471.030057 
L 446.51472 469.421807 
L 445.98896 470.81395 
L 445.45824 470.489375 
L 444.93248 468.942987 
L 443.35024 470.227286 
L 442.82448 468.13959 
L 442.29872 468.712038 
L 441.77296 468.341063 
L 441.2472 468.34127 
L 440.72144 466.717553 
L 440.20064 466.09912 
L 439.67984 467.135545 
L 438.63328 465.048054 
L 438.11248 466.826845 
L 437.59168 465.60524 
L 437.07584 466.285946 
L 436.55504 464.182782 
L 436.03424 464.306715 
L 435.5184 464.786363 
L 435.00256 463.147176 
L 434.48176 463.626826 
L 433.96592 463.364109 
L 433.45008 462.637413 
L 432.93424 462.606684 
L 432.42336 460.472584 
L 431.90752 462.746284 
L 431.39664 460.921503 
L 430.8808 460.90624 
L 430.36992 462.190116 
L 429.85904 460.643723 
L 429.34816 459.453046 
L 428.83728 459.097531 
L 428.3264 459.252392 
L 427.30464 457.737132 
L 426.79872 457.443479 
L 426.28784 458.201512 
L 425.78192 456.454059 
L 425.276 455.619098 
L 424.26416 454.799802 
L 423.75824 454.073102 
L 423.25232 454.351689 
L 422.75136 452.511438 
L 422.24544 452.527104 
L 421.74448 451.088968 
L 421.24352 451.41395 
L 420.7376 452.171982 
L 420.23664 450.486391 
L 419.73568 450.74951 
L 419.23472 451.492074 
L 418.23776 448.6158 
L 417.74176 449.2501 
L 417.2408 449.002842 
L 416.7448 446.976998 
L 416.2488 447.704094 
L 415.74784 445.817445 
L 415.25184 446.157892 
L 414.7608 446.266348 
L 414.2648 445.539644 
L 413.7688 445.725431 
L 413.27776 442.292183 
L 412.78176 443.730713 
L 411.79968 442.01438 
L 411.30368 441.859916 
L 410.81264 440.437242 
L 410.3216 440.097185 
L 409.83552 439.602467 
L 409.34448 438.767499 
L 408.85344 439.974037 
L 408.36736 437.685268 
L 407.87632 437.468939 
L 407.39024 436.16999 
L 406.90416 435.350487 
L 406.41808 434.113402 
L 405.44592 435.05721 
L 404.95984 432.984964 
L 404.47872 433.526462 
L 403.51152 430.000606 
L 403.02544 429.846139 
L 402.54432 431.48572 
L 402.0632 429.042289 
L 401.58208 430.774666 
L 401.10096 427.697131 
L 400.61984 427.991174 
L 400.13872 427.372726 
L 399.66256 425.223147 
L 399.18144 425.625451 
L 398.70528 424.125442 
L 398.22416 421.450022 
L 397.748 421.465676 
L 397.27184 421.960774 
L 396.79568 421.125801 
L 396.31952 421.172387 
L 395.84336 418.264975 
L 395.3672 419.162189 
L 394.896 417.167267 
L 394.41984 419.178029 
L 393.94864 416.425275 
L 393.47744 416.178006 
L 393.00128 417.353606 
L 392.53008 414.368863 
L 392.05888 413.827741 
L 391.58768 412.838106 
L 390.17904 409.111367 
L 389.7128 407.936139 
L 389.2416 408.276576 
L 388.77536 408.957262 
L 388.30912 408.106819 
L 387.84288 405.106608 
L 387.37664 404.163369 
L 386.9104 401.998319 
L 386.44416 403.545099 
L 385.97792 403.050372 
L 385.51168 401.937008 
L 385.0504 399.632763 
L 384.58416 401.318736 
L 384.12288 398.163863 
L 383.6616 398.07125 
L 382.27776 394.499161 
L 381.81648 392.318643 
L 381.3552 393.973682 
L 380.89392 391.932359 
L 380.4376 391.70055 
L 379.97632 390.37066 
L 379.52 393.262973 
L 379.06368 387.679944 
L 378.60736 390.572258 
L 378.14608 387.030736 
L 377.68976 386.737063 
L 376.78208 382.174965 
L 376.32576 383.30416 
L 375.86944 381.664949 
L 375.41808 381.958981 
L 374.96176 378.757708 
L 373.60768 375.680518 
L 373.15632 376.39213 
L 372.70496 372.695945 
L 372.2536 373.577683 
L 371.80224 374.072772 
L 371.35088 373.005799 
L 370.90448 372.526531 
L 370.45312 366.046474 
L 370.00672 368.490271 
L 369.56032 368.676039 
L 369.11392 368.645283 
L 368.66256 366.418364 
L 368.21616 366.232949 
L 367.76976 365.90834 
L 366.88192 360.279083 
L 366.43552 360.464851 
L 365.99408 359.212283 
L 365.54768 358.686617 
L 365.10624 356.103977 
L 364.65984 355.222594 
L 364.2184 355.083574 
L 363.77696 352.701992 
L 363.33552 352.11446 
L 362.89408 352.625011 
L 362.45264 349.361869 
L 362.01616 348.480482 
L 361.57472 349.377681 
L 360.6968 345.264084 
L 360.26032 346.93458 
L 359.81888 347.909109 
L 359.3824 343.59428 
L 358.94592 344.584274 
L 358.07296 340.130423 
L 357.63648 339.867674 
L 357.2 342.311468 
L 356.76848 337.56359 
L 356.332 339.512473 
L 355.90048 335.800814 
L 355.464 338.136346 
L 355.03248 331.88827 
L 354.60096 335.631202 
L 354.16944 330.991586 
L 353.30144 331.796158 
L 352.87488 331.502474 
L 352.44336 325.764775 
L 352.01184 324.079156 
L 351.58528 321.65117 
L 350.7272 323.693015 
L 350.29568 320.553596 
L 349.44256 317.615402 
L 349.016 317.723832 
L 348.58944 316.687781 
L 348.16288 315.15682 
L 347.73632 314.723942 
L 347.30976 314.646781 
L 346.8832 309.218399 
L 346.4616 310.950753 
L 346.03504 310.688 
L 345.61344 306.110244 
L 345.19184 308.615895 
L 344.76528 308.384074 
L 344.34368 309.389528 
L 343.50048 302.553909 
L 343.07888 302.585007 
L 342.66224 302.894491 
L 342.24064 300.342775 
L 341.81904 299.260324 
L 341.4024 295.394 
L 340.9808 293.878503 
L 340.56416 296.600676 
L 340.14256 293.32206 
L 339.72592 294.312046 
L 339.30928 290.33746 
L 338.89264 290.863467 
L 338.476 291.667861 
L 337.64272 286.208708 
L 337.23104 286.610985 
L 336.8144 281.522851 
L 336.39776 280.765184 
L 335.98608 279.667263 
L 335.5744 276.450507 
L 335.15776 278.059131 
L 334.74608 275.832196 
L 333.92272 272.337216 
L 333.51104 272.043525 
L 333.09936 275.941108 
L 332.68768 276.668171 
L 331.4576 267.961324 
L 331.05088 267.280983 
L 330.6392 267.203816 
L 330.23248 262.842577 
L 329.82576 265.580212 
L 329.41408 264.049245 
L 329.00736 258.86831 
L 328.60064 261.064637 
L 328.19392 258.26546 
L 327.79216 263.415781 
L 327.38544 256.827445 
L 326.97872 254.755168 
L 326.57696 255.745148 
L 325.76848 252.806935 
L 325.36176 256.982904 
L 324.96 250.564691 
L 324.55824 253.549779 
L 324.15648 251.771353 
L 323.74976 244.564379 
L 323.35296 245.074912 
L 322.9512 241.456037 
L 322.54944 241.626321 
L 322.14768 236.27526 
L 321.74592 237.095114 
L 321.34912 241.255613 
L 320.94736 237.126361 
L 320.55056 237.544099 
L 320.15376 237.389596 
L 319.752 238.395042 
L 319.3552 236.199033 
L 318.9584 235.410426 
L 318.5616 233.168019 
L 318.1648 232.363946 
L 317.768 226.548904 
L 317.3712 223.440404 
L 316.97936 227.291581 
L 316.58256 226.038996 
L 316.18576 222.744904 
L 315.79392 224.755633 
L 315.00528 220.564671 
L 314.61344 221.260793 
L 314.2216 222.869407 
L 313.82976 220.998182 
L 313.43792 216.93079 
L 312.65424 212.832622 
L 312.2624 210.992328 
L 311.87056 209.693342 
L 311.48368 212.35364 
L 311.09184 205.595172 
L 310.7 209.740203 
L 310.31312 212.647955 
L 309.92624 208.441368 
L 309.5344 205.456594 
L 309.14752 208.596335 
L 308.76064 206.400322 
L 308.37376 208.503845 
L 307.98688 208.148281 
L 307.6 209.091857 
L 307.21312 202.348853 
L 306.8312 199.797122 
L 306.44432 199.286898 
L 306.05744 196.379451 
L 305.67552 197.1529 
L 305.28864 190.62642 
L 304.90672 194.41573 
L 304.5248 193.688981 
L 303.756 198.375468 
L 303.37408 197.370332 
L 302.99216 195.375375 
L 302.61024 194.896081 
L 302.22832 193.798149 
L 301.85136 192.066111 
L 301.46944 188.215239 
L 301.08752 181.286642 
L 300.71056 182.075555 
L 300.32864 184.101746 
L 299.95168 183.746178 
L 298.81584 177.544779 
L 298.43888 182.339373 
L 298.06192 180.251618 
L 297.68496 181.983954 
L 297.308 179.076504 
L 296.93104 177.17434 
L 296.55408 176.78784 
L 296.17712 175.396053 
L 295.80512 174.576504 
L 295.05616 164.570327 
L 294.6792 169.179331 
L 293.93024 161.400251 
L 293.55824 162.761402 
L 293.18624 158.616673 
L 292.81424 159.204526 
L 292.44224 161.385373 
L 292.07024 160.967939 
L 291.69824 161.787782 
L 291.32624 161.958054 
L 290.9592 163.303737 
L 290.5872 165.097935 
L 290.22016 160.380964 
L 289.84816 158.324139 
L 289.48112 155.43215 
L 289.10912 158.63375 
L 288.74208 149.586311 
L 288.37504 151.055722 
L 288.00304 150.932141 
L 287.636 151.56639 
L 287.26896 141.451801 
L 286.90192 149.076661 
L 286.53984 143.81838 
L 286.1728 150.453419 
L 285.80576 152.680662 
L 285.43872 147.607973 
L 285.07664 148.783529 
L 284.7096 156.068139 
L 284.34752 147.20629 
L 283.98048 150.670808 
L 283.6184 144.391774 
L 283.25632 146.278763 
L 282.5272 136.844819 
L 282.16512 136.102596 
L 281.80304 134.973724 
L 281.44096 139.319801 
L 281.07888 140.108707 
L 280.72176 136.474349 
L 280.35968 137.309653 
L 279.9976 141.763991 
L 279.64048 138.392554 
L 279.2784 140.758988 
L 278.92128 145.38345 
L 278.5592 140.80567 
L 278.20208 141.130596 
L 277.48288 134.526918 
L 277.12576 133.877489 
L 276.76864 130.150335 
L 276.41152 128.124436 
L 276.0544 133.816048 
L 275.69728 125.541903 
L 275.34512 119.989765 
L 274.63088 125.78978 
L 274.27872 125.573395 
L 273.9216 127.8161 
L 273.56944 128.527673 
L 273.21232 122.155841 
L 272.508 137.127163 
L 271.79872 132.286599 
L 271.44656 129.100752 
L 271.0944 128.76064 
L 270.74224 126.224362 
L 270.39008 122.744662 
L 270.04288 120.564099 
L 269.69072 120.208521 
L 269.33856 120.997424 
L 268.99136 117.842506 
L 268.6392 116.961086 
L 268.28704 119.250186 
L 267.93984 114.966254 
L 267.59264 116.760442 
L 267.24048 122.173665 
L 266.89328 122.111939 
L 266.19888 129.953452 
L 265.85168 127.216115 
L 265.50448 125.80885 
L 265.15728 125.468736 
L 264.81008 127.247458 
L 264.46288 124.309064 
L 264.11568 123.056459 
L 263.77344 117.983761 
L 263.42624 115.772266 
L 263.084 115.695072 
L 262.7368 112.849473 
L 262.39456 112.540289 
L 262.04736 112.045516 
L 261.70512 114.334612 
L 261.36288 117.69086 
L 261.02064 112.896549 
L 260.6784 115.139248 
L 260.33616 121.789743 
L 259.99392 119.94943 
L 259.65168 126.491664 
L 259.30944 125.362784 
L 258.9672 121.511897 
L 258.62496 125.254793 
L 258.28768 116.470264 
L 257.94544 118.480973 
L 257.6032 114.521824 
L 257.26592 113.377476 
L 256.92864 108.660493 
L 256.5864 110.330952 
L 256.24912 108.722626 
L 255.91184 108.954748 
L 255.5696 109.527124 
L 255.23232 110.687203 
L 254.89504 111.321441 
L 254.55776 105.490909 
L 253.8832 123.833798 
L 253.55088 124.622693 
L 253.2136 123.354618 
L 252.87632 124.282708 
L 252.544 132.093147 
L 252.20672 125.643977 
L 251.86944 127.298967 
L 251.53712 119.442393 
L 251.2048 118.39084 
L 250.5352 109.993091 
L 250.20288 113.380266 
L 249.87056 107.59613 
L 249.53328 110.890512 
L 249.20096 107.967578 
L 248.54128 114.463539 
L 248.20896 122.382239 
L 247.87664 127.331476 
L 247.54432 124.625065 
L 247.212 126.527509 
L 246.88464 126.682298 
L 246.55232 132.482162 
L 245.89264 124.687581 
L 245.56528 118.532261 
L 245.23792 115.377335 
L 244.9056 114.000996 
L 244.57824 115.625051 
L 244.25088 113.429015 
L 243.92352 108.959483 
L 243.59616 117.512285 
L 243.2688 111.820943 
L 242.28672 130.813524 
L 241.95936 133.319138 
L 241.63696 132.375842 
L 241.3096 132.546096 
L 240.9872 141.702069 
L 240.65984 139.830818 
L 240.33744 136.088184 
L 240.01008 134.866503 
L 239.68768 132.531271 
L 239.03792 120.731004 
L 238.71552 121.303372 
L 238.39312 118.210308 
L 238.07072 118.148572 
L 237.74832 125.061981 
L 237.42592 124.180549 
L 237.10352 126.052057 
L 236.78112 127.072937 
L 236.45872 137.729107 
L 236.14128 137.497243 
L 235.81888 146.591352 
L 235.49648 142.168216 
L 235.17904 142.601388 
L 234.85664 141.797286 
L 234.5392 145.725764 
L 233.89936 137.358935 
L 233.58192 135.456748 
L 233.26448 137.560243 
L 232.94704 135.379669 
L 232.62464 128.868629 
L 232.3072 132.240333 
L 231.98976 133.972645 
L 231.67232 133.075745 
L 231.35984 130.848771 
L 230.40752 141.690782 
L 230.09504 147.846355 
L 229.7776 148.836301 
L 229.14768 159.105944 
L 228.83024 159.152467 
L 228.51776 157.5132 
L 228.20528 160.266263 
L 227.88784 161.333539 
L 227.57536 159.833465 
L 227.26288 155.936168 
L 226.9504 158.843891 
L 226.63792 154.8074 
L 226.32544 149.16245 
L 226.01296 149.348165 
L 225.388 145.249934 
L 225.07552 148.37418 
L 224.768 146.038942 
L 224.45552 153.184337 
L 224.14304 157.081881 
L 223.83552 156.200443 
L 223.52304 160.592897 
L 223.21552 161.938557 
L 222.59552 169.346994 
L 222.28304 176.647048 
L 221.97552 177.853514 
L 221.668 179.616754 
L 221.36048 179.415818 
L 221.05296 175.503053 
L 220.74544 175.17839 
L 220.43792 169.177721 
L 220.1304 168.249885 
L 219.82288 162.821456 
L 219.51536 162.280269 
L 219.20784 164.182703 
L 218.90032 164.105495 
L 218.59776 163.688034 
L 218.29024 163.920144 
L 217.98272 165.838044 
L 217.68016 175.1796 
L 217.37264 170.94205 
L 217.07008 179.819628 
L 216.76752 180.082669 
L 216.46 184.026608 
L 216.15744 192.038093 
L 215.85488 192.455793 
L 215.55232 200.420879 
L 214.94224 194.91524 
L 214.63968 196.276364 
L 214.33712 193.013167 
L 214.03952 186.254662 
L 213.73696 189.069585 
L 213.13184 184.600163 
L 212.82928 183.749655 
L 212.53168 180.486456 
L 212.22912 183.517903 
L 211.93152 184.507842 
L 211.62896 184.848212 
L 211.33136 188.97774 
L 211.0288 189.952214 
L 210.4336 195.829512 
L 210.13104 202.201605 
L 209.53584 209.115122 
L 209.23824 210.569039 
L 208.94064 218.503191 
L 208.64304 219.292073 
L 208.04784 216.632164 
L 207.75024 216.322962 
L 207.45264 210.600676 
L 207.15504 209.873894 
L 206.8624 209.812146 
L 206.5648 202.373139 
L 206.2672 202.311393 
L 205.97456 203.06934 
L 205.67696 195.738595 
L 205.38432 198.955629 
L 205.09168 200.888989 
L 204.2088 215.056152 
L 203.9112 217.298833 
L 203.32592 226.176523 
L 203.03328 232.966192 
L 202.74064 234.961416 
L 202.448 234.141836 
L 202.15536 231.590069 
L 201.86272 235.271082 
L 201.57008 233.972057 
L 201.2824 228.033244 
L 200.98976 228.930385 
L 200.69712 223.269961 
L 200.40944 221.831741 
L 200.1168 223.316588 
L 199.82416 218.259337 
L 199.53648 219.094612 
L 199.2488 224.631537 
L 198.95616 224.074879 
L 198.66848 225.234939 
L 198.3808 227.245627 
L 198.08816 224.817587 
L 197.5128 235.257334 
L 197.22512 233.169544 
L 196.93744 245.604285 
L 196.64976 246.114775 
L 196.36208 252.656988 
L 195.78672 256.075191 
L 195.49904 264.442386 
L 195.21136 263.282553 
L 194.92864 264.195156 
L 194.64096 260.79276 
L 194.35328 262.370401 
L 194.07056 255.008718 
L 193.78288 254.637648 
L 193.50016 248.807095 
L 193.21248 250.322872 
L 192.92976 243.688089 
L 192.35936 245.977276 
L 191.79392 245.065008 
L 191.5112 249.055336 
L 191.22352 256.417244 
L 190.9408 256.711209 
L 190.65808 261.397505 
L 190.37536 269.176992 
L 190.09264 271.991907 
L 189.80992 270.754743 
L 189.53216 280.220017 
L 189.24944 277.204267 
L 188.96672 281.782301 
L 188.684 283.777521 
L 188.40624 283.499244 
L 188.12352 285.061417 
L 187.8408 282.803499 
L 187.56304 276.246044 
L 187.28032 279.988917 
L 186.7248 271.436463 
L 186.44208 270.601413 
L 186.16432 270.214874 
L 185.88656 272.411149 
L 185.6088 267.106436 
L 185.32608 271.143162 
L 185.04832 271.870172 
L 184.77056 270.849529 
L 184.4928 272.891144 
L 184.21504 280.608765 
L 183.93728 279.820111 
L 183.38176 291.435263 
L 183.10896 292.332396 
L 182.8312 299.04473 
L 182.27568 304.96841 
L 182.00288 305.57169 
L 181.72512 306.762678 
L 181.45232 302.726172 
L 181.17456 301.720995 
L 180.90176 296.41628 
L 180.0784 289.828108 
L 179.80064 288.451748 
L 179.52784 289.472609 
L 179.25504 294.46822 
L 178.98224 291.777252 
L 178.70944 300.237237 
L 178.43664 298.164906 
L 178.16384 300.268384 
L 177.07264 321.611833 
L 176.79984 318.859 
L 176.52704 328.246943 
L 176.2592 324.179502 
L 175.9864 324.33427 
L 175.44576 322.01459 
L 175.17296 324.272727 
L 174.90512 318.906147 
L 174.63232 317.730842 
L 174.36448 316.014226 
L 174.09168 310.895103 
L 173.82384 309.657933 
L 173.556 312.209921 
L 173.28816 312.070833 
L 173.01536 317.839742 
L 172.74752 313.153663 
L 172.47968 321.196066 
L 171.40832 336.414988 
L 171.14048 337.698768 
L 170.87264 342.57065 
L 170.6048 342.338766 
L 170.34192 343.746272 
L 170.07408 342.694693 
L 169.80624 342.168956 
L 169.54336 339.261461 
L 169.27552 340.313251 
L 169.00768 338.6585 
L 168.7448 335.781936 
L 168.47696 335.379927 
L 168.21408 332.565227 
L 167.94624 331.126999 
L 167.68336 328.095776 
L 167.42048 332.689268 
L 167.1576 332.534713 
L 166.88976 330.957291 
L 166.364 337.777985 
L 166.10112 338.953501 
L 165.83824 340.778588 
L 165.57536 348.109554 
L 165.31248 350.259426 
L 164.78672 359.353615 
L 164.52384 358.472159 
L 164.26096 364.1792 
L 163.99808 360.915988 
L 163.47728 358.797357 
L 163.2144 360.962695 
L 162.95648 353.72473 
L 162.6936 355.673544 
L 162.43072 354.343576 
L 161.90992 347.012919 
L 161.652 348.018308 
L 161.39408 348.296797 
L 161.1312 350.910647 
L 160.87328 350.276645 
L 160.61536 352.256389 
L 160.35248 352.039969 
L 159.83664 358.55134 
L 159.57872 361.861156 
L 159.3208 362.216975 
L 159.06288 367.908548 
L 158.54704 370.445169 
L 158.0312 378.998045 
L 157.77328 376.817448 
L 157.2624 378.53437 
L 157.00448 380.112 
L 156.74656 376.786921 
L 156.4936 378.287219 
L 156.23568 370.600741 
L 155.98272 372.673279 
L 155.7248 370.616409 
L 155.47184 366.363371 
L 155.21392 369.31747 
L 154.96096 369.363968 
L 154.70304 367.121506 
L 154.45008 366.719492 
L 154.19712 370.709808 
L 153.68624 374.514634 
L 153.43328 375.458158 
L 152.6744 384.521507 
L 152.16848 388.79031 
L 151.91552 394.110699 
L 151.66256 392.19302 
L 151.4096 395.827619 
L 151.15664 397.018598 
L 150.90864 396.260864 
L 150.65568 396.27643 
L 150.15472 392.843186 
L 149.90176 392.069988 
L 149.6488 389.34808 
L 149.4008 388.064503 
L 149.14784 387.879012 
L 148.89984 386.224253 
L 148.64688 386.564604 
L 148.39888 384.708787 
L 148.15088 384.693419 
L 147.89792 385.961727 
L 147.64992 382.38919 
L 147.40192 386.766153 
L 147.14896 388.575769 
L 146.90096 393.834292 
L 146.65296 392.937364 
L 145.66096 404.490824 
L 145.16496 407.97086 
L 144.66896 410.770394 
L 144.42592 411.095275 
L 143.92992 405.806114 
L 143.68192 406.780567 
L 143.43888 405.790842 
L 142.94288 401.383241 
L 142.69984 403.022728 
L 142.45184 403.347611 
L 142.2088 402.34242 
L 141.71776 405.513135 
L 141.47472 402.682961 
L 141.22672 404.740031 
L 140.98368 404.600933 
L 140.74064 406.967321 
L 140.4976 407.013814 
L 140.2496 413.44775 
L 140.00656 414.592326 
L 139.76352 415.025469 
L 139.52048 416.80415 
L 139.27744 421.041917 
L 139.0344 421.103877 
L 138.79136 424.893132 
L 138.54832 424.568443 
L 138.30528 424.924256 
L 138.06224 422.619925 
L 137.82416 424.25941 
L 137.58112 421.754021 
L 136.61392 416.851696 
L 136.37088 417.424032 
L 135.88976 415.336318 
L 135.65168 417.439782 
L 135.40864 416.434591 
L 135.17056 419.032965 
L 134.93248 419.156787 
L 134.68944 422.868712 
L 134.45136 423.781297 
L 134.21328 425.993023 
L 133.97024 426.952008 
L 133.73216 428.777085 
L 133.49408 432.071427 
L 133.256 432.597364 
L 132.77984 434.561728 
L 132.54176 436.340407 
L 132.30368 434.778439 
L 132.0656 435.845684 
L 131.58944 432.845477 
L 131.35136 432.969299 
L 131.11328 432.103299 
L 130.8752 430.262945 
L 130.63712 431.531247 
L 130.404 427.958704 
L 130.16592 430.974659 
L 129.92784 429.861204 
L 129.69472 429.443715 
L 129.22352 432.707218 
L 128.98544 432.475323 
L 128.75232 432.429017 
L 128.51424 437.053431 
L 128.28112 436.99166 
L 128.04304 438.476485 
L 127.80992 441.399643 
L 127.5768 441.600792 
L 127.33872 442.234991 
L 127.1056 443.224904 
L 126.87248 445.467559 
L 126.63936 444.276773 
L 126.40624 445.344016 
L 126.16816 443.519127 
L 125.93504 444.973019 
L 125.70192 442.359365 
L 125.4688 442.127467 
L 125.23568 442.838993 
L 125.00256 439.390178 
L 124.76944 440.163567 
L 124.54128 439.436758 
L 124.30816 440.504001 
L 124.07504 438.261529 
L 123.84192 439.916478 
L 123.6088 440.736266 
L 123.14752 443.458456 
L 122.22496 448.562586 
L 121.99184 451.949722 
L 121.76368 451.594095 
L 121.53056 453.511966 
L 121.3024 451.826267 
L 121.06928 452.599656 
L 120.84112 449.583885 
L 120.61296 450.63566 
L 120.37984 451.037867 
L 120.15168 449.444964 
L 119.92352 446.614784 
L 119.4672 449.816417 
L 119.23904 447.775001 
L 119.00592 449.631008 
L 118.77776 448.93513 
L 118.5496 450.404486 
L 118.32144 450.203519 
L 118.09328 452.306979 
L 117.87008 450.342891 
L 117.64192 452.229827 
L 117.41376 451.843268 
L 117.1856 455.725313 
L 116.95744 456.452303 
L 116.72928 456.23587 
L 116.50608 457.411371 
L 116.27792 457.117608 
L 116.04976 458.726157 
L 115.5984 459.020188 
L 115.14704 460.381371 
L 114.92384 460.226799 
L 114.69568 461.309506 
L 114.47248 458.386529 
L 114.24432 456.979217 
L 113.79792 458.448659 
L 113.34656 455.958819 
L 113.12336 456.067169 
L 112.90016 455.448619 
L 112.672 456.948906 
L 112.2256 458.031699 
L 111.7792 459.284618 
L 111.556 461.52727 
L 111.1096 463.058576 
L 110.8864 463.027732 
L 110.6632 464.620813 
L 110.22176 465.502547 
L 109.99856 466.121273 
L 109.77536 466.105896 
L 109.33392 467.281482 
L 109.11072 467.049581 
L 108.88752 467.126999 
L 108.44608 465.472316 
L 108.22784 465.503335 
L 107.7864 464.699279 
L 107.5632 465.07055 
L 107.34496 464.915977 
L 107.12176 464.544882 
L 106.90352 464.978015 
L 106.68528 465.009033 
L 106.46208 465.751487 
L 106.24384 464.31324 
L 106.0256 464.669043 
L 105.58416 466.138483 
L 105.36592 467.85529 
L 105.14768 468.133763 
L 104.92944 470.531073 
L 104.7112 469.974384 
L 104.49296 469.757947 
L 104.27472 470.871582 
L 103.83824 471.583188 
L 103.62 471.10383 
L 103.40176 472.69691 
L 103.18352 471.475185 
L 102.97024 472.635216 
L 102.752 471.274298 
L 102.53376 471.119725 
L 102.31552 471.846711 
L 102.10224 471.398283 
L 101.884 472.032473 
L 101.66576 470.841681 
L 101.45248 471.754256 
L 101.02096 469.604659 
L 100.80272 470.16152 
L 100.58944 470.238934 
L 100.3712 470.486475 
L 100.15792 471.043334 
L 99.94464 471.058884 
L 99.7264 472.234383 
L 99.51312 470.935327 
L 99.29984 472.652132 
L 99.0816 471.600533 
L 98.65504 474.446437 
L 98.22848 474.307412 
L 98.01024 475.7149 
L 97.79696 475.15821 
L 97.58368 476.70489 
L 97.3704 476.627644 
L 97.15712 477.246367 
L 96.94384 476.658745 
L 96.73056 477.045478 
L 96.51728 475.978411 
L 96.30896 477.447759 
L 96.09568 477.200388 
L 95.8824 477.16954 
L 95.66912 476.84484 
L 95.45584 477.030515 
L 95.24752 476.9842 
L 94.82096 476.025479 
L 94.61264 476.798859 
L 94.39936 475.793656 
L 94.18608 476.474242 
L 93.97776 476.103142 
L 93.76448 475.484588 
L 93.55616 477.278721 
L 93.34288 476.056995 
L 92.50464 478.439083 
L 92.29632 478.006118 
L 92.08304 479.243479 
L 91.87472 479.351823 
L 91.6664 479.290041 
L 91.2448 479.800584 
L 91.03648 480.697692 
L 90.82816 480.991627 
L 90.61984 479.862695 
L 90.41152 480.837132 
L 90.2032 480.203111 
L 89.99488 480.342386 
L 89.78656 480.667254 
L 89.57824 480.775598 
L 89.36992 480.218906 
L 89.1616 479.089973 
L 88.95328 480.327332 
L 88.74496 480.605801 
L 88.5416 479.801652 
L 88.33328 479.863598 
L 88.12496 480.66791 
L 87.71328 480.822732 
L 87.29664 480.266122 
L 86.88496 480.853991 
L 86.47328 481.117075 
L 86.0616 482.060661 
L 85.85824 483.01963 
L 85.64992 482.741325 
L 85.44656 483.143521 
L 85.2432 483.159067 
L 84.83152 483.917061 
L 84.4248 483.329516 
L 84.21648 483.979168 
L 84.01312 483.468872 
L 83.80976 483.685475 
L 83.6064 483.716488 
L 83.40304 483.036066 
L 83.19968 483.422795 
L 82.99632 483.422875 
L 82.79296 483.763207 
L 82.5896 483.191047 
L 82.38624 484.196414 
L 82.18288 483.63972 
L 81.97952 483.670732 
L 81.77616 483.856404 
L 81.3744 483.067799 
L 81.17104 483.964905 
L 80.96768 483.14529 
L 80.76432 483.918668 
L 80.56592 483.82595 
L 80.36256 484.351873 
L 80.1592 484.460215 
L 79.9608 484.692283 
L 79.75744 484.537703 
L 78.75056 485.466058 
L 78.55216 485.249613 
L 78.1504 486.440651 
L 77.952 485.992216 
L 77.55024 485.636658 
L 77.35184 485.234622 
L 77.15344 485.977066 
L 76.95504 485.389438 
L 76.75168 485.838031 
L 76.55328 485.312267 
L 76.35488 485.606198 
L 76.15648 485.343355 
L 75.95808 485.85381 
L 75.75968 485.46724 
L 75.36288 486.055103 
L 75.16448 485.86959 
L 74.96608 486.039793 
L 74.76768 485.653223 
L 74.56928 486.61219 
L 74.37088 486.241086 
L 74.17744 487.122722 
L 73.97904 486.411366 
L 73.58224 486.860036 
L 72.992 486.489086 
L 72.79856 486.721152 
L 72.60016 487.231606 
L 72.40176 486.953298 
L 72.20832 487.309091 
L 72.00992 486.767861 
L 72.00992 486.767861 
" clip-path="url(#p1717449657)" style="fill: none; stroke-dasharray: 3.7,1.6; stroke-dashoffset: 0; stroke: #1fa187"/>
   </g>
   <g id="line2d_13">
    <path d="M 72.00992 477.303032 
L 76.481723 475.700304 
L 80.953526 473.836138 
L 84.530968 472.135019 
L 88.10841 470.228657 
L 91.685852 468.098974 
L 95.263295 465.727299 
L 98.840737 463.094494 
L 102.418179 460.181119 
L 105.995621 456.967615 
L 109.573064 453.434512 
L 113.150506 449.562664 
L 116.727948 445.333515 
L 120.30539 440.729376 
L 123.882833 435.733733 
L 127.460275 430.331572 
L 131.037717 424.509712 
L 134.615159 418.257163 
L 138.192602 411.565475 
L 141.770044 404.429095 
L 145.347486 396.845721 
L 148.924928 388.81664 
L 153.396731 378.161825 
L 157.868534 366.838474 
L 162.340337 354.877084 
L 166.812139 342.319803 
L 172.178303 326.541708 
L 178.438827 307.306478 
L 185.593711 284.516721 
L 207.952725 212.56198 
L 213.318889 196.364982 
L 217.790691 183.549205 
L 221.368134 173.842973 
L 224.945576 164.69763 
L 228.523018 156.17998 
L 232.10046 148.353516 
L 234.783542 142.973164 
L 237.466624 138.038413 
L 240.149705 133.570861 
L 242.832787 129.590244 
L 245.515869 126.114295 
L 247.30459 124.085159 
L 249.093311 122.291367 
L 250.882032 120.736527 
L 252.670753 119.423777 
L 254.459474 118.355776 
L 256.248196 117.534689 
L 258.036917 116.962185 
L 259.825638 116.639428 
L 261.614359 116.567075 
L 263.40308 116.745274 
L 265.191801 117.173661 
L 266.980522 117.851366 
L 268.769243 118.777009 
L 270.557965 119.948711 
L 272.346686 121.364098 
L 274.135407 123.020309 
L 275.924128 124.914003 
L 277.712849 127.041377 
L 280.395931 130.66115 
L 283.079012 134.780806 
L 285.762094 139.382036 
L 288.445176 144.444563 
L 291.128257 149.946292 
L 293.811339 155.863475 
L 297.388781 164.355504 
L 300.966224 173.477752 
L 304.543666 183.16353 
L 309.015469 195.957573 
L 314.381632 212.134224 
L 320.642156 231.836184 
L 330.480122 263.728024 
L 341.212449 298.402085 
L 347.472973 317.970981 
L 352.839136 334.113539 
L 358.2053 349.535122 
L 362.677102 361.759207 
L 367.148905 373.361959 
L 371.620708 384.307925 
L 376.092511 394.572979 
L 379.669953 402.285348 
L 383.247395 409.55071 
L 386.824838 416.370368 
L 390.40228 422.748969 
L 393.979722 428.694165 
L 397.557164 434.216249 
L 401.134606 439.327805 
L 404.712049 444.043353 
L 408.289491 448.379008 
L 411.866933 452.352151 
L 415.444375 455.98112 
L 419.021818 459.284917 
L 422.59926 462.282944 
L 426.176702 464.994757 
L 429.754144 467.439851 
L 433.331587 469.637467 
L 436.909029 471.606427 
L 440.486471 473.364992 
L 444.958274 475.294049 
L 449.430077 476.954419 
L 453.90188 478.376653 
L 458.373682 479.589077 
L 463.739846 480.803528 
L 469.106009 481.793821 
L 475.366533 482.713502 
L 482.521418 483.513498 
L 490.570663 484.165811 
L 499.514268 484.663767 
L 511.140956 485.06706 
L 518.29584 485.222974 
L 518.29584 485.222974 
" clip-path="url(#p1717449657)" style="fill: none; stroke-dasharray: 3.7,1.6; stroke-dashoffset: 0; stroke: #46327e"/>
   </g>
   <g id="patch_3">
    <path d="M 72 506.4 
L 72 86.4 
" style="fill: none; stroke: #000000; stroke-width: 0.8; stroke-linejoin: miter; stroke-linecap: square"/>
   </g>
   <g id="patch_4">
    <path d="M 518.4 506.4 
L 518.4 86.4 
" style="fill: none; stroke: #000000; stroke-width: 0.8; stroke-linejoin: miter; stroke-linecap: square"/>
   </g>
   <g id="patch_5">
    <path d="M 72 506.4 
L 518.4 506.4 
" style="fill: none; stroke: #000000; stroke-width: 0.8; stroke-linejoin: miter; stroke-linecap: square"/>
   </g>
   <g id="patch_6">
    <path d="M 72 86.4 
L 518.4 86.4 
" style="fill: none; stroke: #000000; stroke-width: 0.8; stroke-linejoin: miter; stroke-linecap: square"/>
   </g>
   <g id="legend_1">
    <g id="patch_7">
     <path d="M 360.178125 123.75625 
L 511.4 123.75625 
Q 513.4 123.75625 513.4 121.75625 
L 513.4 93.4 
Q 513.4 91.4 511.4 91.4 
L 360.178125 91.4 
Q 358.178125 91.4 358.178125 93.4 
L 358.178125 121.75625 
Q 358.178125 123.75625 360.178125 123.75625 
z
" style="fill: #ffffff; opacity: 0.8; stroke: #cccccc; stroke-linejoin: miter"/>
    </g>
    <g id="line2d_14">
     <path d="M 362.178125 99.498437 
L 372.178125 99.498437 
L 382.178125 99.498437 
" style="fill: none; stroke-dasharray: 3.7,1.6; stroke-dashoffset: 0; stroke: #1fa187"/>
    </g>
    <g id="text_8">
     <!-- Baseline-corrected data -->
     <g transform="translate(390.178125 102.998437) scale(0.1 -0.1)">
      <defs>
       <path id="DejaVuSans-42" d="M 1259 2228 
L 1259 519 
L 2272 519 
Q 2781 519 3026 730 
Q 3272 941 3272 1375 
Q 3272 1813 3026 2020 
Q 2781 2228 2272 2228 
L 1259 2228 
z
M 1259 4147 
L 1259 2741 
L 2194 2741 
Q 2656 2741 2882 2914 
Q 3109 3088 3109 3444 
Q 3109 3797 2882 3972 
Q 2656 4147 2194 4147 
L 1259 4147 
z
M 628 4666 
L 2241 4666 
Q 2963 4666 3353 4366 
Q 3744 4066 3744 3513 
Q 3744 3084 3544 2831 
Q 3344 2578 2956 2516 
Q 3422 2416 3680 2098 
Q 3938 1781 3938 1306 
Q 3938 681 3513 340 
Q 3088 0 2303 0 
L 628 0 
L 628 4666 
z
" transform="scale(0.015625)"/>
       <path id="DejaVuSans-6c" d="M 603 4863 
L 1178 4863 
L 1178 0 
L 603 0 
L 603 4863 
z
" transform="scale(0.015625)"/>
       <path id="DejaVuSans-2d" d="M 313 2009 
L 1997 2009 
L 1997 1497 
L 313 1497 
L 313 2009 
z
" transform="scale(0.015625)"/>
       <path id="DejaVuSans-63" d="M 3122 3366 
L 3122 2828 
Q 2878 2963 2633 3030 
Q 2388 3097 2138 3097 
Q 1578 3097 1268 2742 
Q 959 2388 959 1747 
Q 959 1106 1268 751 
Q 1578 397 2138 397 
Q 2388 397 2633 464 
Q 2878 531 3122 666 
L 3122 134 
Q 2881 22 2623 -34 
Q 2366 -91 2075 -91 
Q 1284 -91 818 406 
Q 353 903 353 1747 
Q 353 2603 823 3093 
Q 1294 3584 2113 3584 
Q 2378 3584 2631 3529 
Q 2884 3475 3122 3366 
z
" transform="scale(0.015625)"/>
       <path id="DejaVuSans-6f" d="M 1959 3097 
Q 1497 3097 1228 2736 
Q 959 2375 959 1747 
Q 959 1119 1226 758 
Q 1494 397 1959 397 
Q 2419 397 2687 759 
Q 2956 1122 2956 1747 
Q 2956 2369 2687 2733 
Q 2419 3097 1959 3097 
z
M 1959 3584 
Q 2709 3584 3137 3096 
Q 3566 2609 3566 1747 
Q 3566 888 3137 398 
Q 2709 -91 1959 -91 
Q 1206 -91 779 398 
Q 353 888 353 1747 
Q 353 2609 779 3096 
Q 1206 3584 1959 3584 
z
" transform="scale(0.015625)"/>
       <path id="DejaVuSans-72" d="M 2631 2963 
Q 2534 3019 2420 3045 
Q 2306 3072 2169 3072 
Q 1681 3072 1420 2755 
Q 1159 2438 1159 1844 
L 1159 0 
L 581 0 
L 581 3500 
L 1159 3500 
L 1159 2956 
Q 1341 3275 1631 3429 
Q 1922 3584 2338 3584 
Q 2397 3584 2469 3576 
Q 2541 3569 2628 3553 
L 2631 2963 
z
" transform="scale(0.015625)"/>
       <path id="DejaVuSans-64" d="M 2906 2969 
L 2906 4863 
L 3481 4863 
L 3481 0 
L 2906 0 
L 2906 525 
Q 2725 213 2448 61 
Q 2172 -91 1784 -91 
Q 1150 -91 751 415 
Q 353 922 353 1747 
Q 353 2572 751 3078 
Q 1150 3584 1784 3584 
Q 2172 3584 2448 3432 
Q 2725 3281 2906 2969 
z
M 947 1747 
Q 947 1113 1208 752 
Q 1469 391 1925 391 
Q 2381 391 2643 752 
Q 2906 1113 2906 1747 
Q 2906 2381 2643 2742 
Q 2381 3103 1925 3103 
Q 1469 3103 1208 2742 
Q 947 2381 947 1747 
z
" transform="scale(0.015625)"/>
      </defs>
      <use xlink:href="#DejaVuSans-42"/>
      <use xlink:href="#DejaVuSans-61" transform="translate(68.603516 0)"/>
      <use xlink:href="#DejaVuSans-73" transform="translate(129.882812 0)"/>
      <use xlink:href="#DejaVuSans-65" transform="translate(181.982422 0)"/>
      <use xlink:href="#DejaVuSans-6c" transform="translate(243.505859 0)"/>
      <use xlink:href="#DejaVuSans-69" transform="translate(271.289062 0)"/>
      <use xlink:href="#DejaVuSans-6e" transform="translate(299.072266 0)"/>
      <use xlink:href="#DejaVuSans-65" transform="translate(362.451172 0)"/>
      <use xlink:href="#DejaVuSans-2d" transform="translate(423.974609 0)"/>
      <use xlink:href="#DejaVuSans-63" transform="translate(460.058594 0)"/>
      <use xlink:href="#DejaVuSans-6f" transform="translate(515.039062 0)"/>
      <use xlink:href="#DejaVuSans-72" transform="translate(576.220703 0)"/>
      <use xlink:href="#DejaVuSans-72" transform="translate(615.583984 0)"/>
      <use xlink:href="#DejaVuSans-65" transform="translate(654.447266 0)"/>
      <use xlink:href="#DejaVuSans-63" transform="translate(715.970703 0)"/>
      <use xlink:href="#DejaVuSans-74" transform="translate(770.951172 0)"/>
      <use xlink:href="#DejaVuSans-65" transform="translate(810.160156 0)"/>
      <use xlink:href="#DejaVuSans-64" transform="translate(871.683594 0)"/>
      <use xlink:href="#DejaVuSans-20" transform="translate(935.160156 0)"/>
      <use xlink:href="#DejaVuSans-64" transform="translate(966.947266 0)"/>
      <use xlink:href="#DejaVuSans-61" transform="translate(1030.423828 0)"/>
      <use xlink:href="#DejaVuSans-74" transform="translate(1091.703125 0)"/>
      <use xlink:href="#DejaVuSans-61" transform="translate(1130.912109 0)"/>
     </g>
    </g>
    <g id="line2d_15">
     <path d="M 362.178125 114.176562 
L 372.178125 114.176562 
L 382.178125 114.176562 
" style="fill: none; stroke-dasharray: 3.7,1.6; stroke-dashoffset: 0; stroke: #46327e"/>
    </g>
    <g id="text_9">
     <!-- Gaussian fit -->
     <g transform="translate(390.178125 117.676562) scale(0.1 -0.1)">
      <defs>
       <path id="DejaVuSans-47" d="M 3809 666 
L 3809 1919 
L 2778 1919 
L 2778 2438 
L 4434 2438 
L 4434 434 
Q 4069 175 3628 42 
Q 3188 -91 2688 -91 
Q 1594 -91 976 548 
Q 359 1188 359 2328 
Q 359 3472 976 4111 
Q 1594 4750 2688 4750 
Q 3144 4750 3555 4637 
Q 3966 4525 4313 4306 
L 4313 3634 
Q 3963 3931 3569 4081 
Q 3175 4231 2741 4231 
Q 1884 4231 1454 3753 
Q 1025 3275 1025 2328 
Q 1025 1384 1454 906 
Q 1884 428 2741 428 
Q 3075 428 3337 486 
Q 3600 544 3809 666 
z
" transform="scale(0.015625)"/>
       <path id="DejaVuSans-66" d="M 2375 4863 
L 2375 4384 
L 1825 4384 
Q 1516 4384 1395 4259 
Q 1275 4134 1275 3809 
L 1275 3500 
L 2222 3500 
L 2222 3053 
L 1275 3053 
L 1275 0 
L 697 0 
L 697 3053 
L 147 3053 
L 147 3500 
L 697 3500 
L 697 3744 
Q 697 4328 969 4595 
Q 1241 4863 1831 4863 
L 2375 4863 
z
" transform="scale(0.015625)"/>
      </defs>
      <use xlink:href="#DejaVuSans-47"/>
      <use xlink:href="#DejaVuSans-61" transform="translate(77.490234 0)"/>
      <use xlink:href="#DejaVuSans-75" transform="translate(138.769531 0)"/>
      <use xlink:href="#DejaVuSans-73" transform="translate(202.148438 0)"/>
      <use xlink:href="#DejaVuSans-73" transform="translate(254.248047 0)"/>
      <use xlink:href="#DejaVuSans-69" transform="translate(306.347656 0)"/>
      <use xlink:href="#DejaVuSans-61" transform="translate(334.130859 0)"/>
      <use xlink:href="#DejaVuSans-6e" transform="translate(395.410156 0)"/>
      <use xlink:href="#DejaVuSans-20" transform="translate(458.789062 0)"/>
      <use xlink:href="#DejaVuSans-66" transform="translate(490.576172 0)"/>
      <use xlink:href="#DejaVuSans-69" transform="translate(525.78125 0)"/>
      <use xlink:href="#DejaVuSans-74" transform="translate(553.564453 0)"/>
     </g>
    </g>
   </g>
  </g>
  <g id="axes_2">
   <g id="patch_8">
    <path d="M 72 640.8 
L 518.4 640.8 
L 518.4 556.8 
L 72 556.8 
z
" style="fill: #ffffff"/>
   </g>
   <g id="matplotlib.axis_3">
    <g id="xtick_6">
     <g id="line2d_16">
      <g>
       <use xlink:href="#m71d7b5dcd4" x="72" y="640.8" style="stroke: #000000; stroke-width: 0.8"/>
      </g>
     </g>
     <g id="text_10">
      <!-- 1.2 -->
      <g transform="translate(64.048438 655.398437) scale(0.1 -0.1)">
       <use xlink:href="#DejaVuSans-31"/>
       <use xlink:href="#DejaVuSans-2e" transform="translate(63.623047 0)"/>
       <use xlink:href="#DejaVuSans-32" transform="translate(95.410156 0)"/>
      </g>
     </g>
    </g>
    <g id="xtick_7">
     <g id="line2d_17">
      <g>
       <use xlink:href="#m71d7b5dcd4" x="171.2" y="640.8" style="stroke: #000000; stroke-width: 0.8"/>
      </g>
     </g>
     <g id="text_11">
      <!-- 1.4 -->
      <g transform="translate(163.248437 655.398437) scale(0.1 -0.1)">
       <defs>
        <path id="DejaVuSans-34" d="M 2419 4116 
L 825 1625 
L 2419 1625 
L 2419 4116 
z
M 2253 4666 
L 3047 4666 
L 3047 1625 
L 3713 1625 
L 3713 1100 
L 3047 1100 
L 3047 0 
L 2419 0 
L 2419 1100 
L 313 1100 
L 313 1709 
L 2253 4666 
z
" transform="scale(0.015625)"/>
       </defs>
       <use xlink:href="#DejaVuSans-31"/>
       <use xlink:href="#DejaVuSans-2e" transform="translate(63.623047 0)"/>
       <use xlink:href="#DejaVuSans-34" transform="translate(95.410156 0)"/>
      </g>
     </g>
    </g>
    <g id="xtick_8">
     <g id="line2d_18">
      <g>
       <use xlink:href="#m71d7b5dcd4" x="270.4" y="640.8" style="stroke: #000000; stroke-width: 0.8"/>
      </g>
     </g>
     <g id="text_12">
      <!-- 1.6 -->
      <g transform="translate(262.448438 655.398437) scale(0.1 -0.1)">
       <defs>
        <path id="DejaVuSans-36" d="M 2113 2584 
Q 1688 2584 1439 2293 
Q 1191 2003 1191 1497 
Q 1191 994 1439 701 
Q 1688 409 2113 409 
Q 2538 409 2786 701 
Q 3034 994 3034 1497 
Q 3034 2003 2786 2293 
Q 2538 2584 2113 2584 
z
M 3366 4563 
L 3366 3988 
Q 3128 4100 2886 4159 
Q 2644 4219 2406 4219 
Q 1781 4219 1451 3797 
Q 1122 3375 1075 2522 
Q 1259 2794 1537 2939 
Q 1816 3084 2150 3084 
Q 2853 3084 3261 2657 
Q 3669 2231 3669 1497 
Q 3669 778 3244 343 
Q 2819 -91 2113 -91 
Q 1303 -91 875 529 
Q 447 1150 447 2328 
Q 447 3434 972 4092 
Q 1497 4750 2381 4750 
Q 2619 4750 2861 4703 
Q 3103 4656 3366 4563 
z
" transform="scale(0.015625)"/>
       </defs>
       <use xlink:href="#DejaVuSans-31"/>
       <use xlink:href="#DejaVuSans-2e" transform="translate(63.623047 0)"/>
       <use xlink:href="#DejaVuSans-36" transform="translate(95.410156 0)"/>
      </g>
     </g>
    </g>
    <g id="xtick_9">
     <g id="line2d_19">
      <g>
       <use xlink:href="#m71d7b5dcd4" x="369.6" y="640.8" style="stroke: #000000; stroke-width: 0.8"/>
      </g>
     </g>
     <g id="text_13">
      <!-- 1.8 -->
      <g transform="translate(361.648438 655.398437) scale(0.1 -0.1)">
       <defs>
        <path id="DejaVuSans-38" d="M 2034 2216 
Q 1584 2216 1326 1975 
Q 1069 1734 1069 1313 
Q 1069 891 1326 650 
Q 1584 409 2034 409 
Q 2484 409 2743 651 
Q 3003 894 3003 1313 
Q 3003 1734 2745 1975 
Q 2488 2216 2034 2216 
z
M 1403 2484 
Q 997 2584 770 2862 
Q 544 3141 544 3541 
Q 544 4100 942 4425 
Q 1341 4750 2034 4750 
Q 2731 4750 3128 4425 
Q 3525 4100 3525 3541 
Q 3525 3141 3298 2862 
Q 3072 2584 2669 2484 
Q 3125 2378 3379 2068 
Q 3634 1759 3634 1313 
Q 3634 634 3220 271 
Q 2806 -91 2034 -91 
Q 1263 -91 848 271 
Q 434 634 434 1313 
Q 434 1759 690 2068 
Q 947 2378 1403 2484 
z
M 1172 3481 
Q 1172 3119 1398 2916 
Q 1625 2713 2034 2713 
Q 2441 2713 2670 2916 
Q 2900 3119 2900 3481 
Q 2900 3844 2670 4047 
Q 2441 4250 2034 4250 
Q 1625 4250 1398 4047 
Q 1172 3844 1172 3481 
z
" transform="scale(0.015625)"/>
       </defs>
       <use xlink:href="#DejaVuSans-31"/>
       <use xlink:href="#DejaVuSans-2e" transform="translate(63.623047 0)"/>
       <use xlink:href="#DejaVuSans-38" transform="translate(95.410156 0)"/>
      </g>
     </g>
    </g>
    <g id="xtick_10">
     <g id="line2d_20">
      <g>
       <use xlink:href="#m71d7b5dcd4" x="468.8" y="640.8" style="stroke: #000000; stroke-width: 0.8"/>
      </g>
     </g>
     <g id="text_14">
      <!-- 2.0 -->
      <g transform="translate(460.848437 655.398437) scale(0.1 -0.1)">
       <use xlink:href="#DejaVuSans-32"/>
       <use xlink:href="#DejaVuSans-2e" transform="translate(63.623047 0)"/>
       <use xlink:href="#DejaVuSans-30" transform="translate(95.410156 0)"/>
      </g>
     </g>
    </g>
   </g>
   <g id="matplotlib.axis_4">
    <g id="ytick_7">
     <g id="line2d_21">
      <g>
       <use xlink:href="#m36befe8d0f" x="72" y="622.8" style="stroke: #000000; stroke-width: 0.8"/>
      </g>
     </g>
     <g id="text_15">
      <!-- −20 -->
      <g transform="translate(43.895313 626.599219) scale(0.1 -0.1)">
       <defs>
        <path id="DejaVuSans-2212" d="M 678 2272 
L 4684 2272 
L 4684 1741 
L 678 1741 
L 678 2272 
z
" transform="scale(0.015625)"/>
       </defs>
       <use xlink:href="#DejaVuSans-2212"/>
       <use xlink:href="#DejaVuSans-32" transform="translate(83.789062 0)"/>
       <use xlink:href="#DejaVuSans-30" transform="translate(147.412109 0)"/>
      </g>
     </g>
    </g>
    <g id="ytick_8">
     <g id="line2d_22">
      <g>
       <use xlink:href="#m36befe8d0f" x="72" y="598.8" style="stroke: #000000; stroke-width: 0.8"/>
      </g>
     </g>
     <g id="text_16">
      <!-- 0 -->
      <g transform="translate(58.6375 602.599219) scale(0.1 -0.1)">
       <use xlink:href="#DejaVuSans-30"/>
      </g>
     </g>
    </g>
    <g id="ytick_9">
     <g id="line2d_23">
      <g>
       <use xlink:href="#m36befe8d0f" x="72" y="574.8" style="stroke: #000000; stroke-width: 0.8"/>
      </g>
     </g>
     <g id="text_17">
      <!-- 20 -->
      <g transform="translate(52.275 578.599219) scale(0.1 -0.1)">
       <use xlink:href="#DejaVuSans-32"/>
       <use xlink:href="#DejaVuSans-30" transform="translate(63.623047 0)"/>
      </g>
     </g>
    </g>
    <g id="text_18">
     <!-- Residuals -->
     <g transform="translate(37.815625 622.520312) rotate(-90) scale(0.1 -0.1)">
      <defs>
       <path id="DejaVuSans-52" d="M 2841 2188 
Q 3044 2119 3236 1894 
Q 3428 1669 3622 1275 
L 4263 0 
L 3584 0 
L 2988 1197 
Q 2756 1666 2539 1819 
Q 2322 1972 1947 1972 
L 1259 1972 
L 1259 0 
L 628 0 
L 628 4666 
L 2053 4666 
Q 2853 4666 3247 4331 
Q 3641 3997 3641 3322 
Q 3641 2881 3436 2590 
Q 3231 2300 2841 2188 
z
M 1259 4147 
L 1259 2491 
L 2053 2491 
Q 2509 2491 2742 2702 
Q 2975 2913 2975 3322 
Q 2975 3731 2742 3939 
Q 2509 4147 2053 4147 
L 1259 4147 
z
" transform="scale(0.015625)"/>
      </defs>
      <use xlink:href="#DejaVuSans-52"/>
      <use xlink:href="#DejaVuSans-65" transform="translate(64.982422 0)"/>
      <use xlink:href="#DejaVuSans-73" transform="translate(126.505859 0)"/>
      <use xlink:href="#DejaVuSans-69" transform="translate(178.605469 0)"/>
      <use xlink:href="#DejaVuSans-64" transform="translate(206.388672 0)"/>
      <use xlink:href="#DejaVuSans-75" transform="translate(269.865234 0)"/>
      <use xlink:href="#DejaVuSans-61" transform="translate(333.244141 0)"/>
      <use xlink:href="#DejaVuSans-6c" transform="translate(394.523438 0)"/>
      <use xlink:href="#DejaVuSans-73" transform="translate(422.306641 0)"/>
     </g>
    </g>
   </g>
   <g id="line2d_24">
    <path d="M 518.29584 617.056913 
L 517.68576 619.74667 
L 517.07568 620.345151 
L 515.85552 612.518319 
L 515.24544 620.838571 
L 514.03024 614.301433 
L 513.42016 618.116955 
L 512.81504 611.314415 
L 512.20992 616.161134 
L 511.6048 606.797747 
L 510.99968 608.377377 
L 510.39952 611.167963 
L 509.7944 615.52427 
L 509.19424 610.61555 
L 508.58912 612.455494 
L 507.98896 609.52306 
L 507.3888 607.653485 
L 506.7936 609.656707 
L 506.19344 607.28845 
L 505.59328 613.49471 
L 504.99808 611.876093 
L 504.40288 610.669023 
L 503.80768 604.740725 
L 503.21248 600.907881 
L 502.61728 603.013465 
L 502.02208 610.28513 
L 501.43184 609.5436 
L 500.83664 603.762568 
L 500.2464 605.24358 
L 499.65616 604.94184 
L 499.06592 599.809926 
L 498.47568 601.457437 
L 497.88544 602.456792 
L 497.30016 604.927082 
L 496.70992 601.735687 
L 496.12464 605.610419 
L 494.95408 599.369026 
L 494.3688 603.689651 
L 493.78352 598.578589 
L 493.2032 597.263955 
L 492.61792 598.792849 
L 492.0376 599.234084 
L 491.45728 598.89455 
L 490.87696 600.485998 
L 490.29664 598.896525 
L 489.71632 600.583831 
L 489.136 600.88715 
L 488.56064 591.901553 
L 487.98528 592.686193 
L 487.40496 602.610745 
L 486.8296 597.230542 
L 486.25424 599.079516 
L 485.67888 598.073205 
L 484.53312 593.864101 
L 483.96272 598.717136 
L 483.38736 595.244383 
L 482.81696 593.868285 
L 482.24656 595.236263 
L 481.67616 591.150417 
L 481.11072 594.958661 
L 480.54032 591.500676 
L 479.96992 590.505122 
L 479.40448 593.911968 
L 478.2736 588.759582 
L 477.70816 595.264058 
L 477.14272 591.377962 
L 476.57728 591.787936 
L 476.01184 594.353931 
L 475.45136 588.788874 
L 474.89088 594.497169 
L 474.32544 591.083288 
L 473.76496 592.627784 
L 473.20448 593.553875 
L 472.64896 591.71519 
L 472.08848 588.210347 
L 471.528 589.756478 
L 470.97248 589.746706 
L 470.41696 586.89619 
L 469.85648 589.295572 
L 469.30096 589.092083 
L 468.74544 588.599168 
L 468.19488 586.540092 
L 467.63936 589.315712 
L 467.08384 589.017794 
L 466.53328 588.878332 
L 465.98272 581.926267 
L 465.43216 585.659929 
L 464.8816 590.369628 
L 464.33104 588.808425 
L 463.78048 590.65277 
L 463.22992 586.031965 
L 462.68432 592.367128 
L 462.13376 584.812732 
L 461.58816 586.984873 
L 461.04256 592.285701 
L 460.49696 585.081803 
L 459.95136 586.390856 
L 459.40576 587.369699 
L 458.86016 584.819743 
L 458.31952 588.557865 
L 457.77392 583.72186 
L 457.23328 584.429098 
L 456.69264 586.194479 
L 456.152 582.915404 
L 455.61136 583.413246 
L 455.07072 584.254589 
L 454.53008 584.581765 
L 453.9944 587.697547 
L 453.45376 585.685834 
L 452.91808 584.86976 
L 452.3824 585.163361 
L 451.84672 586.531084 
L 451.31104 583.178238 
L 450.77536 583.202864 
L 450.23968 582.20492 
L 449.70896 582.768441 
L 449.17328 580.555021 
L 448.64256 582.70147 
L 448.11184 583.427421 
L 447.57616 581.362086 
L 447.04544 582.888046 
L 446.51472 578.679194 
L 445.98896 583.783861 
L 445.45824 583.581379 
L 444.93248 579.70937 
L 443.35024 585.936642 
L 442.82448 580.679771 
L 442.29872 583.151963 
L 441.77296 582.914916 
L 441.2472 583.735858 
L 440.72144 580.044716 
L 440.20064 579.19423 
L 439.67984 582.876978 
L 438.63328 578.970439 
L 438.11248 584.547286 
L 437.59168 582.177061 
L 437.07584 584.786806 
L 436.55504 580.221427 
L 436.03424 581.417411 
L 435.5184 583.490403 
L 435.00256 580.252327 
L 434.48176 582.330254 
L 433.96592 582.556687 
L 433.45008 581.66663 
L 432.93424 582.476686 
L 432.42336 578.271948 
L 431.90752 584.554149 
L 431.39664 581.154394 
L 430.8808 582.024286 
L 430.36992 585.859951 
L 429.85904 583.209363 
L 429.34816 581.41962 
L 428.83728 581.537204 
L 428.3264 582.79301 
L 427.81552 581.90441 
L 427.30464 581.312598 
L 426.79872 581.599685 
L 426.28784 584.14527 
L 425.78192 581.354156 
L 425.276 580.53559 
L 424.26416 580.72836 
L 423.75824 580.193548 
L 423.25232 581.713661 
L 422.75136 578.961312 
L 422.24544 579.967553 
L 421.74448 578.093542 
L 421.24352 579.709346 
L 420.7376 582.158612 
L 420.23664 579.873806 
L 419.73568 581.352222 
L 419.23472 583.723718 
L 418.23776 580.271049 
L 417.74176 582.419233 
L 417.2408 582.942377 
L 416.7448 580.235116 
L 416.2488 582.533148 
L 415.74784 580.154459 
L 415.25184 581.75549 
L 414.7608 582.925551 
L 414.2648 582.644594 
L 413.7688 583.955268 
L 413.27776 579.047589 
L 412.78176 582.518016 
L 412.29072 582.206546 
L 411.79968 581.626737 
L 411.30368 582.386639 
L 410.81264 581.047727 
L 410.3216 581.509823 
L 409.83552 581.715078 
L 409.34448 581.39122 
L 408.85344 584.34309 
L 408.36736 581.712832 
L 407.87632 582.402648 
L 407.39024 581.393356 
L 406.90416 581.152815 
L 406.41808 580.284951 
L 405.44592 583.797255 
L 404.95984 581.706258 
L 404.47872 583.546712 
L 403.51152 580.412098 
L 403.02544 581.248667 
L 402.54432 584.673402 
L 402.0632 582.184269 
L 401.58208 585.707141 
L 401.10096 582.367516 
L 400.61984 583.834363 
L 400.13872 584.014873 
L 399.66256 582.066188 
L 399.18144 583.68481 
L 398.70528 582.675422 
L 398.22416 580.102935 
L 397.748 581.199261 
L 397.27184 582.933727 
L 396.79568 582.882956 
L 396.31952 584.009149 
L 395.84336 581.248749 
L 395.3672 583.500823 
L 394.896 581.97236 
L 394.41984 585.643111 
L 393.94864 583.170884 
L 393.47744 583.924449 
L 393.00128 586.484847 
L 392.53008 583.79347 
L 392.05888 584.190796 
L 391.58768 584.037368 
L 390.65024 582.959665 
L 389.7128 582.3754 
L 389.2416 583.878558 
L 388.77536 585.765662 
L 388.30912 585.826169 
L 387.84288 583.366776 
L 387.37664 583.350885 
L 386.9104 581.925104 
L 386.44416 584.810117 
L 385.97792 585.326608 
L 385.51168 585.140254 
L 385.0504 583.603848 
L 384.58416 586.600269 
L 384.12288 584.138384 
L 383.6616 585.121983 
L 383.20032 584.973144 
L 382.73904 584.630336 
L 382.27776 584.452021 
L 381.81648 583.174895 
L 381.3552 586.064246 
L 380.89392 584.958406 
L 380.4376 585.793705 
L 379.97632 585.473388 
L 379.52 589.609197 
L 379.06368 584.811452 
L 378.60736 588.919552 
L 378.14608 586.325218 
L 377.68976 587.106839 
L 376.78208 584.599781 
L 376.32576 586.843876 
L 375.86944 586.277546 
L 375.41808 587.652625 
L 374.96176 585.543914 
L 374.5104 585.571597 
L 374.05904 585.804496 
L 373.60768 585.768586 
L 373.15632 587.552299 
L 372.70496 585.042656 
L 371.80224 588.550636 
L 371.35088 588.608955 
L 370.90448 589.220322 
L 370.45312 584.166894 
L 370.00672 587.558693 
L 369.11392 589.848879 
L 368.66256 588.862098 
L 367.76976 590.531408 
L 367.32832 588.746066 
L 366.88192 587.530105 
L 366.43552 588.778193 
L 365.99408 588.714393 
L 365.54768 589.319372 
L 365.10624 588.08051 
L 364.65984 588.378873 
L 364.2184 589.322641 
L 363.77696 588.294672 
L 363.33552 588.848918 
L 362.89408 590.357762 
L 362.45264 588.592771 
L 362.01616 588.888513 
L 361.57472 590.7229 
L 361.13328 589.814208 
L 360.6968 589.327257 
L 359.81888 593.663028 
L 359.3824 591.081295 
L 358.94592 592.950292 
L 358.07296 591.335904 
L 357.63648 592.161898 
L 357.2 595.201317 
L 356.76848 592.34332 
L 356.332 594.962191 
L 355.90048 592.976008 
L 355.464 595.888853 
L 355.03248 591.891812 
L 354.60096 595.903508 
L 354.16944 593.226018 
L 353.30144 595.904617 
L 352.87488 596.66941 
L 352.44336 593.190681 
L 352.01184 592.896364 
L 351.58528 592.021187 
L 350.7272 595.61387 
L 350.29568 594.2155 
L 349.44256 593.974774 
L 349.016 595.05319 
L 348.58944 595.264177 
L 348.16288 595.105195 
L 347.73632 595.770793 
L 347.30976 596.698756 
L 346.8832 593.654979 
L 346.4616 595.914269 
L 346.03504 596.702449 
L 345.61344 594.313198 
L 345.19184 597.116494 
L 344.76528 597.921105 
L 344.34368 599.607436 
L 343.50048 596.585573 
L 342.66224 598.729756 
L 342.24064 597.861916 
L 341.81904 598.043964 
L 341.4024 596.248687 
L 340.9808 596.133993 
L 340.56416 598.98327 
L 340.14256 597.630656 
L 339.72592 599.2514 
L 339.30928 597.416217 
L 338.476 600.18527 
L 338.05936 599.060518 
L 337.64272 598.272939 
L 337.23104 599.454676 
L 336.8144 596.906021 
L 336.39776 597.311121 
L 335.98608 597.473732 
L 335.5744 596.209139 
L 335.15776 598.203817 
L 334.74608 597.609044 
L 334.3344 597.462386 
L 333.92272 597.07053 
L 333.51104 597.768312 
L 333.09936 601.23141 
L 332.68768 602.585124 
L 332.276 601.615586 
L 331.86928 601.077245 
L 331.4576 599.483156 
L 331.05088 599.900944 
L 330.6392 600.718072 
L 330.23248 598.749562 
L 329.82576 601.36996 
L 329.41408 601.241043 
L 329.00736 598.763058 
L 328.60064 601.014203 
L 328.19392 600.068746 
L 327.79216 604.16966 
L 327.38544 600.819164 
L 326.97872 600.340734 
L 326.57696 601.783864 
L 325.76848 601.573175 
L 325.36176 605.000007 
L 324.96 601.796203 
L 324.55824 604.452592 
L 324.15648 604.141728 
L 323.74976 600.486204 
L 323.35296 601.587167 
L 322.9512 600.152291 
L 322.54944 601.047592 
L 322.14768 598.560159 
L 321.74592 599.849087 
L 321.34912 603.153417 
L 320.94736 601.417838 
L 320.55056 602.433147 
L 320.15376 603.096545 
L 319.752 604.463494 
L 319.3552 603.88911 
L 318.9584 604.159827 
L 318.5616 603.558365 
L 318.1648 603.816373 
L 317.768 601.089229 
L 317.3712 599.980406 
L 316.97936 602.988608 
L 316.58256 602.973897 
L 316.18576 601.753753 
L 315.79392 603.649055 
L 315.00528 602.607894 
L 314.61344 603.71463 
L 314.2216 605.346474 
L 313.82976 604.944741 
L 313.43792 603.267857 
L 313.04608 602.572541 
L 312.2624 601.87994 
L 311.87056 601.808341 
L 311.48368 604.00017 
L 311.09184 600.790625 
L 310.31312 606.136601 
L 309.92624 604.380351 
L 309.5344 603.331455 
L 309.14752 605.750971 
L 308.76064 605.136838 
L 308.37376 606.952499 
L 307.98688 607.371317 
L 307.6 608.517272 
L 307.21312 605.336633 
L 306.8312 604.508213 
L 306.44432 604.830826 
L 306.05744 603.809683 
L 305.67552 604.834899 
L 305.28864 601.796415 
L 304.90672 604.491865 
L 304.5248 604.669071 
L 303.756 608.414674 
L 303.37408 608.421268 
L 302.99216 607.879301 
L 302.61024 608.169743 
L 302.22832 608.116261 
L 301.85136 607.704973 
L 301.46944 606.139024 
L 301.08752 602.892863 
L 300.71056 603.857535 
L 300.32864 605.496717 
L 299.95168 605.824958 
L 299.56976 605.164451 
L 299.1928 604.747266 
L 298.81584 604.009638 
L 298.43888 607.108358 
L 298.06192 606.479178 
L 297.68496 607.907335 
L 297.308 606.830425 
L 296.93104 606.293256 
L 296.55408 606.567364 
L 296.17712 606.298179 
L 295.80512 606.326036 
L 295.05616 601.910451 
L 294.6792 604.832475 
L 293.93024 601.599264 
L 293.55824 602.767945 
L 293.18624 601.010009 
L 292.81424 601.758969 
L 292.44224 603.344673 
L 292.07024 603.549723 
L 291.69824 604.403092 
L 291.32624 604.907974 
L 290.5872 607.368417 
L 290.22016 605.283609 
L 289.84816 604.600291 
L 289.48112 603.47142 
L 289.10912 605.535828 
L 288.74208 601.181361 
L 288.37504 602.325403 
L 288.00304 602.636536 
L 287.636 603.332736 
L 287.26896 598.42611 
L 286.90192 602.752991 
L 286.53984 600.367056 
L 286.1728 604.160917 
L 285.80576 605.656822 
L 285.43872 603.362788 
L 285.07664 604.298902 
L 284.7096 608.39312 
L 284.34752 604.127299 
L 283.98048 606.233135 
L 283.6184 603.300341 
L 283.25632 604.577066 
L 282.5272 600.318573 
L 282.16512 600.229319 
L 281.80304 599.937028 
L 281.44096 602.45105 
L 281.07888 603.132036 
L 280.72176 601.53661 
L 280.35968 602.231919 
L 279.9976 604.773791 
L 279.64048 603.301587 
L 279.2784 604.762843 
L 278.92128 607.367356 
L 278.5592 605.270412 
L 278.20208 605.669024 
L 277.48288 602.759124 
L 277.12576 602.648717 
L 276.76864 600.967877 
L 276.41152 600.149434 
L 276.0544 603.24936 
L 275.69728 599.247528 
L 275.34512 596.624443 
L 274.63088 599.950446 
L 274.27872 600.021611 
L 273.9216 601.336361 
L 273.56944 601.86736 
L 273.21232 598.81018 
L 272.508 606.70116 
L 271.79872 604.551308 
L 271.44656 603.08293 
L 271.0944 603.047856 
L 270.74224 601.899622 
L 270.39008 600.271468 
L 270.04288 599.293243 
L 269.69072 599.232878 
L 269.33856 599.744677 
L 268.99136 598.262477 
L 268.6392 597.923257 
L 268.28704 599.17624 
L 267.93984 597.112782 
L 267.59264 598.105373 
L 267.24048 600.915376 
L 266.89328 600.963356 
L 266.19888 605.051455 
L 265.85168 603.739101 
L 265.50448 603.091313 
L 265.15728 602.975556 
L 264.81008 603.920226 
L 264.46288 602.489159 
L 264.11568 601.900934 
L 263.77344 599.388073 
L 263.42624 598.309127 
L 263.084 598.297554 
L 262.7368 596.890866 
L 262.04736 596.518509 
L 261.70512 597.677057 
L 261.36288 599.366999 
L 261.02064 596.958096 
L 260.6784 598.079439 
L 260.33616 601.410445 
L 259.99392 600.471611 
L 259.65168 603.739419 
L 259.30944 603.148918 
L 258.9672 601.186083 
L 258.62496 603.034268 
L 258.28768 598.583097 
L 257.94544 599.551688 
L 257.6032 597.515022 
L 257.26592 596.889116 
L 256.92864 594.462165 
L 256.5864 595.241281 
L 256.24912 594.367828 
L 255.91184 594.415454 
L 255.5696 594.628696 
L 255.23232 595.134368 
L 254.89504 595.371073 
L 254.55776 592.348313 
L 253.8832 601.399845 
L 253.55088 601.700023 
L 253.2136 600.957773 
L 252.87632 601.318007 
L 252.544 605.146825 
L 252.20672 601.778102 
L 251.86944 602.492765 
L 251.53712 598.403644 
L 251.2048 597.744107 
L 250.5352 593.227574 
L 250.20288 594.796691 
L 249.87056 591.72412 
L 249.53328 593.236094 
L 249.20096 591.600106 
L 248.54128 594.566486 
L 248.20896 598.41157 
L 247.87664 600.750204 
L 247.54432 599.202861 
L 247.212 599.989322 
L 246.88464 599.887672 
L 246.55232 602.647404 
L 245.89264 598.301568 
L 245.56528 594.971521 
L 245.23792 593.161636 
L 244.9056 592.248695 
L 244.57824 592.863378 
L 244.25088 591.526269 
L 243.92352 589.023259 
L 243.59616 593.163584 
L 243.2688 590.026241 
L 242.28672 599.032183 
L 241.95936 600.074499 
L 241.63696 599.349992 
L 241.3096 599.188301 
L 240.9872 603.639502 
L 240.65984 602.424344 
L 240.33744 600.245608 
L 240.01008 599.353066 
L 239.68768 597.886276 
L 239.03792 591.254709 
L 238.71552 591.267982 
L 238.39312 589.384711 
L 238.07072 589.061551 
L 237.74832 592.342127 
L 237.42592 591.589279 
L 237.10352 592.257908 
L 236.78112 592.483028 
L 236.45872 597.705315 
L 236.14128 597.282501 
L 235.81888 601.698864 
L 235.49648 599.086522 
L 235.17904 599.000057 
L 234.85664 598.260313 
L 234.5392 599.989826 
L 233.89936 594.96423 
L 233.58192 593.635524 
L 233.26448 594.398551 
L 232.94704 592.914449 
L 232.62464 589.146965 
L 232.3072 590.564147 
L 231.98976 591.119145 
L 231.67232 590.288643 
L 231.35984 588.758487 
L 231.0424 590.111108 
L 230.09504 596.258481 
L 229.7776 596.408569 
L 229.14768 601.104697 
L 228.83024 600.750568 
L 228.51776 599.50246 
L 228.20528 600.586729 
L 227.88784 600.766227 
L 227.57536 599.579874 
L 227.26288 597.107881 
L 226.9504 598.265921 
L 226.32544 592.277249 
L 226.01296 591.965163 
L 225.388 588.926985 
L 225.07552 590.183862 
L 224.768 588.504888 
L 224.45552 591.929233 
L 224.14304 593.604275 
L 223.83552 592.702136 
L 223.52304 594.64524 
L 223.21552 594.945093 
L 222.90304 596.269353 
L 222.59552 598.097665 
L 222.28304 601.630583 
L 221.97552 601.855327 
L 221.668 602.382275 
L 221.36048 601.834805 
L 221.05296 599.252311 
L 220.74544 598.62702 
L 220.43792 594.883345 
L 220.1304 593.914704 
L 219.82288 590.465064 
L 219.51536 589.696405 
L 219.20784 590.271549 
L 218.29024 588.694065 
L 217.98272 589.270944 
L 217.68016 593.979292 
L 217.37264 591.136754 
L 217.07008 595.598587 
L 216.76752 595.265092 
L 216.46 596.977361 
L 216.15744 600.976485 
L 215.85488 600.730312 
L 215.55232 604.716873 
L 214.94224 600.647613 
L 214.63968 600.924134 
L 214.33712 598.589265 
L 214.03952 594.277796 
L 213.73696 595.363966 
L 213.13184 591.805293 
L 212.82928 590.802579 
L 212.53168 588.42916 
L 212.22912 589.629835 
L 211.93152 589.674631 
L 211.62896 589.337472 
L 211.33136 591.178774 
L 211.0288 591.203969 
L 210.4336 593.530708 
L 210.13104 596.669852 
L 209.53584 599.617034 
L 209.23824 599.934572 
L 208.94064 604.015478 
L 208.64304 603.951931 
L 208.04784 601.347094 
L 207.75024 600.633136 
L 207.45264 596.745328 
L 206.8624 595.197814 
L 206.5648 590.266791 
L 206.2672 589.667847 
L 205.97456 589.559341 
L 205.67696 584.65357 
L 205.38432 585.991516 
L 205.09168 586.570835 
L 204.2088 593.300002 
L 203.9112 594.067878 
L 203.32592 598.264545 
L 203.03328 601.786405 
L 202.74064 602.432344 
L 202.448 601.381314 
L 202.15536 599.278517 
L 201.86272 600.942212 
L 201.57008 599.58957 
L 201.2824 595.420431 
L 200.98976 595.388679 
L 200.69712 591.354925 
L 200.40944 589.896474 
L 200.1168 590.212118 
L 199.82416 586.513938 
L 199.53648 586.433975 
L 199.2488 589.24908 
L 198.95616 588.303659 
L 198.66848 588.425793 
L 198.3808 589.074853 
L 198.08816 586.960503 
L 197.5128 592.257591 
L 197.22512 590.358578 
L 196.93744 597.536429 
L 196.64976 597.268191 
L 196.36208 600.786688 
L 196.0744 601.175323 
L 195.78672 601.77005 
L 195.49904 606.470909 
L 195.21136 605.15922 
L 194.92864 605.166744 
L 194.64096 602.421428 
L 194.35328 602.836643 
L 194.07056 597.558568 
L 193.78288 596.71905 
L 193.50016 592.387961 
L 193.21248 592.745714 
L 192.92976 587.871007 
L 192.64208 587.921494 
L 192.35936 588.102899 
L 191.79392 586.270338 
L 191.5112 588.239287 
L 191.22352 592.402465 
L 190.9408 591.979293 
L 190.65808 594.428392 
L 190.37536 598.916229 
L 190.09264 600.161113 
L 189.80992 598.743171 
L 189.53216 604.392598 
L 189.24944 601.801929 
L 188.96672 604.233138 
L 188.684 604.95969 
L 188.40624 604.18688 
L 188.12352 604.628221 
L 187.8408 602.517916 
L 187.56304 597.528663 
L 187.28032 599.423543 
L 186.7248 592.444442 
L 186.16432 590.36012 
L 185.88656 591.223065 
L 185.6088 586.986187 
L 185.32608 589.090183 
L 185.04832 588.95319 
L 184.77056 587.618791 
L 184.4928 588.381492 
L 184.21504 593.054309 
L 183.93728 591.881744 
L 183.38176 598.663464 
L 183.10896 598.679342 
L 182.8312 602.732738 
L 182.27568 605.652511 
L 182.00288 605.481255 
L 181.72512 605.712009 
L 181.45232 602.274281 
L 181.17456 600.949918 
L 180.90176 596.589294 
L 180.0784 590.022327 
L 179.80064 588.391884 
L 179.52784 588.482312 
L 179.25504 591.426272 
L 178.98224 588.856108 
L 178.70944 594.314634 
L 178.43664 592.187975 
L 178.16384 593.077332 
L 177.07264 606.146024 
L 176.79984 603.523941 
L 176.52704 609.815019 
L 176.2592 606.233375 
L 175.9864 605.743303 
L 175.44576 602.81843 
L 175.17296 603.884868 
L 174.90512 599.280604 
L 174.36448 595.874423 
L 174.09168 591.393639 
L 173.82384 589.828349 
L 173.556 591.118669 
L 173.28816 590.378755 
L 173.01536 594.109859 
L 172.74752 589.915385 
L 172.47968 595.413183 
L 171.40832 604.631675 
L 171.14048 605.020887 
L 170.87264 608.193402 
L 170.6048 607.419161 
L 170.34192 607.930014 
L 169.80624 605.503379 
L 169.54336 602.63104 
L 169.27552 602.849251 
L 169.00768 600.934848 
L 168.7448 598.056909 
L 168.47696 597.116225 
L 167.68336 589.438467 
L 167.42048 592.486033 
L 167.1576 591.736184 
L 166.88976 589.825724 
L 166.62688 592.678247 
L 166.364 594.081893 
L 166.10112 594.414465 
L 165.83824 595.279235 
L 165.57536 600.645014 
L 165.31248 601.800092 
L 164.78672 608.079334 
L 164.52384 606.767273 
L 164.26096 610.901148 
L 163.99808 607.616872 
L 163.47728 604.68767 
L 163.2144 605.905182 
L 162.95648 599.255849 
L 162.6936 600.286356 
L 162.43072 598.559289 
L 161.90992 591.13293 
L 161.652 591.368948 
L 161.39408 590.988244 
L 161.1312 592.591874 
L 160.87328 591.433655 
L 160.61536 592.517725 
L 160.35248 591.704547 
L 159.83664 596.113474 
L 159.57872 598.3861 
L 159.3208 598.098223 
L 159.06288 602.47474 
L 158.54704 603.530571 
L 158.0312 609.924276 
L 157.77328 607.426778 
L 157.2624 607.824813 
L 157.00448 608.665844 
L 156.74656 605.117702 
L 156.4936 605.901135 
L 156.23568 598.395844 
L 155.98272 599.686005 
L 155.7248 597.229149 
L 155.47184 592.774316 
L 155.21392 594.857766 
L 154.96096 594.307221 
L 154.70304 591.643951 
L 154.45008 590.672303 
L 154.19712 593.749658 
L 153.68624 596.077056 
L 153.43328 596.367267 
L 152.6744 603.111961 
L 152.42144 604.278889 
L 152.16848 606.0097 
L 151.91552 610.491991 
L 151.66256 608.127014 
L 151.4096 611.039991 
L 151.15664 611.637241 
L 150.90864 610.38309 
L 150.65568 609.856226 
L 149.4008 599.140698 
L 149.14784 598.386428 
L 148.89984 596.199193 
L 148.64688 595.953398 
L 148.39888 593.551539 
L 148.15088 592.959861 
L 147.89792 593.630146 
L 147.64992 589.495902 
L 147.40192 593.28177 
L 147.14896 594.508253 
L 146.90096 599.222793 
L 146.65296 597.761631 
L 145.66096 607.302119 
L 145.41296 608.229019 
L 144.91696 611.030298 
L 144.66896 611.664202 
L 144.42592 611.497081 
L 143.92992 604.953557 
L 143.68192 605.439688 
L 143.43888 603.881154 
L 142.94288 598.157192 
L 142.69984 599.352256 
L 142.45184 599.149734 
L 142.2088 597.542148 
L 141.71776 599.846851 
L 141.47472 596.270641 
L 141.22672 597.935214 
L 140.98368 597.247088 
L 140.74064 599.27648 
L 140.4976 598.794818 
L 140.2496 605.278462 
L 140.00656 606.020275 
L 139.76352 605.987012 
L 139.52048 607.439375 
L 139.27744 611.623052 
L 139.0344 611.202073 
L 138.79136 614.929396 
L 138.54832 614.088991 
L 138.30528 614.007746 
L 138.06224 610.939052 
L 137.82416 612.308672 
L 137.58112 608.992277 
L 136.61392 601.40979 
L 136.37088 601.552628 
L 135.88976 598.120774 
L 135.65168 600.048148 
L 135.40864 598.361843 
L 135.17056 600.884833 
L 134.93248 600.52795 
L 134.68944 604.376825 
L 134.45136 604.963259 
L 134.21328 607.092112 
L 133.97024 607.740758 
L 133.73216 609.436825 
L 133.49408 612.90067 
L 133.256 613.072573 
L 133.01792 613.582449 
L 132.77984 614.526831 
L 132.54176 616.228018 
L 132.30368 613.888067 
L 132.0656 614.736552 
L 131.58944 610.163783 
L 131.35136 609.855176 
L 131.11328 608.325689 
L 130.8752 605.582394 
L 130.63712 606.683834 
L 130.404 601.773421 
L 130.16592 605.058705 
L 129.69472 602.195374 
L 129.45664 603.452166 
L 129.22352 605.375955 
L 128.75232 604.092498 
L 128.51424 609.536694 
L 128.28112 609.014327 
L 128.04304 610.473006 
L 127.80992 613.811478 
L 127.5768 613.645707 
L 127.33872 614.035295 
L 127.1056 614.90306 
L 126.87248 617.419155 
L 126.63936 615.443624 
L 126.40624 616.4335 
L 126.16816 613.598349 
L 125.93504 615.10641 
L 125.70192 611.210873 
L 125.4688 610.473399 
L 125.23568 610.997884 
L 125.00256 605.932498 
L 124.76944 606.53326 
L 124.54128 605.118394 
L 124.30816 606.12426 
L 124.07504 602.627381 
L 123.84192 604.440193 
L 123.6088 605.121423 
L 123.14752 608.010129 
L 122.9144 609.403771 
L 122.68624 609.914492 
L 122.45312 612.300342 
L 122.22496 613.457035 
L 121.99184 617.810658 
L 121.76368 616.926285 
L 121.53056 619.247053 
L 121.3024 616.477247 
L 121.06928 617.186177 
L 120.84112 612.493033 
L 120.61296 613.605429 
L 120.37984 613.784099 
L 120.15168 611.092763 
L 119.92352 606.591791 
L 119.4672 610.437355 
L 119.23904 607.049415 
L 119.00592 609.359026 
L 118.77776 607.932506 
L 118.5496 609.702504 
L 118.32144 609.006698 
L 118.09328 611.742115 
L 117.87008 608.425397 
L 117.64192 610.857248 
L 117.41376 609.885365 
L 117.1856 615.358143 
L 116.95744 616.087979 
L 116.72928 615.389783 
L 116.50608 616.821996 
L 116.27792 616.007435 
L 116.04976 618.113999 
L 115.5984 617.860478 
L 115.14704 619.275758 
L 114.92384 618.691299 
L 114.69568 620.039727 
L 114.47248 615.096579 
L 114.24432 612.509194 
L 113.79792 614.123196 
L 113.34656 609.412321 
L 113.12336 609.216758 
L 112.90016 607.848248 
L 112.672 609.897539 
L 112.4488 610.261518 
L 111.7792 612.271724 
L 111.556 615.61717 
L 111.1096 617.478967 
L 110.8864 617.095181 
L 110.6632 619.427671 
L 110.44 619.727501 
L 109.99856 621.000782 
L 109.77536 620.659589 
L 109.33392 622.044903 
L 109.11072 621.338629 
L 108.88752 621.161817 
L 108.44608 617.680043 
L 108.22784 617.42063 
L 107.7864 615.377339 
L 107.5632 615.704256 
L 107.34496 615.114615 
L 107.12176 614.131932 
L 106.90352 614.581427 
L 106.68528 614.318664 
L 106.46208 615.322932 
L 106.24384 612.424264 
L 106.0256 612.742886 
L 105.58416 614.762969 
L 105.36592 617.581616 
L 105.14768 617.790307 
L 104.92944 621.894384 
L 104.49296 619.896915 
L 104.27472 621.675938 
L 103.83824 622.44394 
L 103.62 621.267246 
L 103.40176 623.988729 
L 103.18352 621.409102 
L 102.97024 623.339231 
L 102.752 620.477147 
L 102.53376 619.902287 
L 102.31552 621.016773 
L 102.10224 619.883966 
L 101.884 620.831064 
L 101.66576 618.246517 
L 101.45248 619.746884 
L 101.02096 614.98384 
L 100.80272 615.787796 
L 100.58944 615.658871 
L 100.3712 615.861781 
L 100.15792 616.690363 
L 99.94464 616.445485 
L 99.7264 618.520292 
L 99.51312 615.638337 
L 99.29984 618.82914 
L 99.0816 616.426228 
L 98.65504 621.694078 
L 98.22848 620.905439 
L 98.01024 623.554293 
L 97.79696 622.158573 
L 97.58368 625.130992 
L 97.3704 624.735708 
L 97.15712 625.798229 
L 96.94384 624.332197 
L 96.73056 624.914796 
L 96.51728 622.421742 
L 96.30896 625.313983 
L 96.09568 624.557976 
L 95.8824 624.262206 
L 95.66912 623.333756 
L 95.45584 623.502352 
L 95.24752 623.176479 
L 94.82096 620.620358 
L 94.61264 622.082181 
L 94.39936 619.637841 
L 94.18608 620.900081 
L 93.76448 618.23287 
L 93.55616 622.002124 
L 93.34288 619.034656 
L 92.71296 622.327581 
L 92.50464 623.517349 
L 92.29632 622.315313 
L 92.08304 624.930899 
L 91.87472 624.974342 
L 91.6664 624.626724 
L 91.45808 625.174787 
L 91.2448 625.39985 
L 91.03648 627.295522 
L 90.82816 627.792384 
L 90.61984 624.944641 
L 90.41152 627.047843 
L 90.2032 625.352964 
L 89.99488 625.488251 
L 89.78656 626.069807 
L 89.57824 626.137894 
L 89.36992 624.606389 
L 89.1616 621.681349 
L 88.95328 624.478322 
L 88.74496 624.962316 
L 88.5416 622.808873 
L 88.33328 622.761875 
L 88.12496 624.545343 
L 87.71328 624.553113 
L 87.29664 622.782932 
L 87.09328 623.564791 
L 86.88496 623.88178 
L 86.47328 624.178738 
L 86.0616 626.228461 
L 85.85824 628.521277 
L 85.64992 627.637751 
L 85.44656 628.514958 
L 85.2432 628.395361 
L 85.03488 628.998819 
L 84.83152 630.057852 
L 84.4248 628.204361 
L 84.21648 629.764937 
L 84.01312 628.257602 
L 83.80976 628.680923 
L 83.6064 628.611515 
L 83.40304 626.628894 
L 83.19968 627.514667 
L 82.99632 627.360409 
L 82.79296 628.132466 
L 82.5896 626.418792 
L 82.38624 629.020112 
L 82.18288 627.342029 
L 81.97952 627.276812 
L 81.77616 627.641661 
L 81.3744 625.144298 
L 81.17104 627.506326 
L 80.96768 625.05057 
L 80.76432 627.083541 
L 80.56592 626.677709 
L 80.36256 628.030144 
L 80.1592 628.199468 
L 79.9608 628.730324 
L 79.75744 628.148143 
L 79.55408 628.592746 
L 79.15232 629.86082 
L 78.95392 629.871536 
L 78.75056 630.198905 
L 78.55216 629.437428 
L 78.1504 632.729021 
L 77.952 631.27936 
L 77.55024 629.976361 
L 77.35184 628.642935 
L 77.15344 630.772334 
L 76.95504 628.868939 
L 76.75168 630.117097 
L 76.55328 628.388525 
L 76.35488 629.173551 
L 76.15648 628.243608 
L 75.95808 629.709152 
L 75.75968 628.390773 
L 75.56128 628.951168 
L 75.36288 630.003168 
L 75.16448 629.308323 
L 74.96608 629.735753 
L 74.76768 628.397601 
L 74.56928 631.344883 
L 74.37088 630.054508 
L 74.17744 632.787647 
L 73.97904 630.396426 
L 73.58224 631.652075 
L 72.992 630.145815 
L 72.79856 630.815926 
L 72.60016 632.414148 
L 72.40176 631.397533 
L 72.20832 632.497859 
L 72.00992 630.59266 
L 72.00992 630.59266 
" clip-path="url(#p066335bbfc)" style="fill: none; stroke-dasharray: 3.7,1.6; stroke-dashoffset: 0; stroke: #808080"/>
   </g>
   <g id="line2d_25">
    <path d="M 72 598.8 
L 518.4 598.8 
" clip-path="url(#p066335bbfc)" style="fill: none; stroke-dasharray: 5.55,2.4; stroke-dashoffset: 0; stroke: #000000; stroke-width: 1.5"/>
   </g>
   <g id="patch_9">
    <path d="M 72 640.8 
L 72 556.8 
" style="fill: none; stroke: #000000; stroke-width: 0.8; stroke-linejoin: miter; stroke-linecap: square"/>
   </g>
   <g id="patch_10">
    <path d="M 518.4 640.8 
L 518.4 556.8 
" style="fill: none; stroke: #000000; stroke-width: 0.8; stroke-linejoin: miter; stroke-linecap: square"/>
   </g>
   <g id="patch_11">
    <path d="M 72 640.8 
L 518.4 640.8 
" style="fill: none; stroke: #000000; stroke-width: 0.8; stroke-linejoin: miter; stroke-linecap: square"/>
   </g>
   <g id="patch_12">
    <path d="M 72 556.8 
L 518.4 556.8 
" style="fill: none; stroke: #000000; stroke-width: 0.8; stroke-linejoin: miter; stroke-linecap: square"/>
   </g>
  </g>
  <g id="text_19">
   <!-- Photon energy (eV) -->
   <g transform="translate(229.8825 710.304375) scale(0.12 -0.12)">
    <defs>
     <path id="DejaVuSans-50" d="M 1259 4147 
L 1259 2394 
L 2053 2394 
Q 2494 2394 2734 2622 
Q 2975 2850 2975 3272 
Q 2975 3691 2734 3919 
Q 2494 4147 2053 4147 
L 1259 4147 
z
M 628 4666 
L 2053 4666 
Q 2838 4666 3239 4311 
Q 3641 3956 3641 3272 
Q 3641 2581 3239 2228 
Q 2838 1875 2053 1875 
L 1259 1875 
L 1259 0 
L 628 0 
L 628 4666 
z
" transform="scale(0.015625)"/>
     <path id="DejaVuSans-68" d="M 3513 2113 
L 3513 0 
L 2938 0 
L 2938 2094 
Q 2938 2591 2744 2837 
Q 2550 3084 2163 3084 
Q 1697 3084 1428 2787 
Q 1159 2491 1159 1978 
L 1159 0 
L 581 0 
L 581 4863 
L 1159 4863 
L 1159 2956 
Q 1366 3272 1645 3428 
Q 1925 3584 2291 3584 
Q 2894 3584 3203 3211 
Q 3513 2838 3513 2113 
z
" transform="scale(0.015625)"/>
     <path id="DejaVuSans-67" d="M 2906 1791 
Q 2906 2416 2648 2759 
Q 2391 3103 1925 3103 
Q 1463 3103 1205 2759 
Q 947 2416 947 1791 
Q 947 1169 1205 825 
Q 1463 481 1925 481 
Q 2391 481 2648 825 
Q 2906 1169 2906 1791 
z
M 3481 434 
Q 3481 -459 3084 -895 
Q 2688 -1331 1869 -1331 
Q 1566 -1331 1297 -1286 
Q 1028 -1241 775 -1147 
L 775 -588 
Q 1028 -725 1275 -790 
Q 1522 -856 1778 -856 
Q 2344 -856 2625 -561 
Q 2906 -266 2906 331 
L 2906 616 
Q 2728 306 2450 153 
Q 2172 0 1784 0 
Q 1141 0 747 490 
Q 353 981 353 1791 
Q 353 2603 747 3093 
Q 1141 3584 1784 3584 
Q 2172 3584 2450 3431 
Q 2728 3278 2906 2969 
L 2906 3500 
L 3481 3500 
L 3481 434 
z
" transform="scale(0.015625)"/>
     <path id="DejaVuSans-56" d="M 1831 0 
L 50 4666 
L 709 4666 
L 2188 738 
L 3669 4666 
L 4325 4666 
L 2547 0 
L 1831 0 
z
" transform="scale(0.015625)"/>
    </defs>
    <use xlink:href="#DejaVuSans-50"/>
    <use xlink:href="#DejaVuSans-68" transform="translate(60.302734 0)"/>
    <use xlink:href="#DejaVuSans-6f" transform="translate(123.681641 0)"/>
    <use xlink:href="#DejaVuSans-74" transform="translate(184.863281 0)"/>
    <use xlink:href="#DejaVuSans-6f" transform="translate(224.072266 0)"/>
    <use xlink:href="#DejaVuSans-6e" transform="translate(285.253906 0)"/>
    <use xlink:href="#DejaVuSans-20" transform="translate(348.632812 0)"/>
    <use xlink:href="#DejaVuSans-65" transform="translate(380.419922 0)"/>
    <use xlink:href="#DejaVuSans-6e" transform="translate(441.943359 0)"/>
    <use xlink:href="#DejaVuSans-65" transform="translate(505.322266 0)"/>
    <use xlink:href="#DejaVuSans-72" transform="translate(566.845703 0)"/>
    <use xlink:href="#DejaVuSans-67" transform="translate(606.208984 0)"/>
    <use xlink:href="#DejaVuSans-79" transform="translate(669.685547 0)"/>
    <use xlink:href="#DejaVuSans-20" transform="translate(728.865234 0)"/>
    <use xlink:href="#DejaVuSans-28" transform="translate(760.652344 0)"/>
    <use xlink:href="#DejaVuSans-65" transform="translate(799.666016 0)"/>
    <use xlink:href="#DejaVuSans-56" transform="translate(861.189453 0)"/>
    <use xlink:href="#DejaVuSans-29" transform="translate(929.597656 0)"/>
   </g>
  </g>
  <g id="text_20">
   <!-- Excitation power 0.4 mW -->
   <g transform="translate(212.689687 23.518125) scale(0.12 -0.12)">
    <defs>
     <path id="DejaVuSans-45" d="M 628 4666 
L 3578 4666 
L 3578 4134 
L 1259 4134 
L 1259 2753 
L 3481 2753 
L 3481 2222 
L 1259 2222 
L 1259 531 
L 3634 531 
L 3634 0 
L 628 0 
L 628 4666 
z
" transform="scale(0.015625)"/>
     <path id="DejaVuSans-78" d="M 3513 3500 
L 2247 1797 
L 3578 0 
L 2900 0 
L 1881 1375 
L 863 0 
L 184 0 
L 1544 1831 
L 300 3500 
L 978 3500 
L 1906 2253 
L 2834 3500 
L 3513 3500 
z
" transform="scale(0.015625)"/>
     <path id="DejaVuSans-70" d="M 1159 525 
L 1159 -1331 
L 581 -1331 
L 581 3500 
L 1159 3500 
L 1159 2969 
Q 1341 3281 1617 3432 
Q 1894 3584 2278 3584 
Q 2916 3584 3314 3078 
Q 3713 2572 3713 1747 
Q 3713 922 3314 415 
Q 2916 -91 2278 -91 
Q 1894 -91 1617 61 
Q 1341 213 1159 525 
z
M 3116 1747 
Q 3116 2381 2855 2742 
Q 2594 3103 2138 3103 
Q 1681 3103 1420 2742 
Q 1159 2381 1159 1747 
Q 1159 1113 1420 752 
Q 1681 391 2138 391 
Q 2594 391 2855 752 
Q 3116 1113 3116 1747 
z
" transform="scale(0.015625)"/>
     <path id="DejaVuSans-77" d="M 269 3500 
L 844 3500 
L 1563 769 
L 2278 3500 
L 2956 3500 
L 3675 769 
L 4391 3500 
L 4966 3500 
L 4050 0 
L 3372 0 
L 2619 2869 
L 1863 0 
L 1184 0 
L 269 3500 
z
" transform="scale(0.015625)"/>
     <path id="DejaVuSans-6d" d="M 3328 2828 
Q 3544 3216 3844 3400 
Q 4144 3584 4550 3584 
Q 5097 3584 5394 3201 
Q 5691 2819 5691 2113 
L 5691 0 
L 5113 0 
L 5113 2094 
Q 5113 2597 4934 2840 
Q 4756 3084 4391 3084 
Q 3944 3084 3684 2787 
Q 3425 2491 3425 1978 
L 3425 0 
L 2847 0 
L 2847 2094 
Q 2847 2600 2669 2842 
Q 2491 3084 2119 3084 
Q 1678 3084 1418 2786 
Q 1159 2488 1159 1978 
L 1159 0 
L 581 0 
L 581 3500 
L 1159 3500 
L 1159 2956 
Q 1356 3278 1631 3431 
Q 1906 3584 2284 3584 
Q 2666 3584 2933 3390 
Q 3200 3197 3328 2828 
z
" transform="scale(0.015625)"/>
     <path id="DejaVuSans-57" d="M 213 4666 
L 850 4666 
L 1831 722 
L 2809 4666 
L 3519 4666 
L 4500 722 
L 5478 4666 
L 6119 4666 
L 4947 0 
L 4153 0 
L 3169 4050 
L 2175 0 
L 1381 0 
L 213 4666 
z
" transform="scale(0.015625)"/>
    </defs>
    <use xlink:href="#DejaVuSans-45"/>
    <use xlink:href="#DejaVuSans-78" transform="translate(63.183594 0)"/>
    <use xlink:href="#DejaVuSans-63" transform="translate(120.613281 0)"/>
    <use xlink:href="#DejaVuSans-69" transform="translate(175.59375 0)"/>
    <use xlink:href="#DejaVuSans-74" transform="translate(203.376953 0)"/>
    <use xlink:href="#DejaVuSans-61" transform="translate(242.585938 0)"/>
    <use xlink:href="#DejaVuSans-74" transform="translate(303.865234 0)"/>
    <use xlink:href="#DejaVuSans-69" transform="translate(343.074219 0)"/>
    <use xlink:href="#DejaVuSans-6f" transform="translate(370.857422 0)"/>
    <use xlink:href="#DejaVuSans-6e" transform="translate(432.039062 0)"/>
    <use xlink:href="#DejaVuSans-20" transform="translate(495.417969 0)"/>
    <use xlink:href="#DejaVuSans-70" transform="translate(527.205078 0)"/>
    <use xlink:href="#DejaVuSans-6f" transform="translate(590.681641 0)"/>
    <use xlink:href="#DejaVuSans-77" transform="translate(651.863281 0)"/>
    <use xlink:href="#DejaVuSans-65" transform="translate(733.650391 0)"/>
    <use xlink:href="#DejaVuSans-72" transform="translate(795.173828 0)"/>
    <use xlink:href="#DejaVuSans-20" transform="translate(836.287109 0)"/>
    <use xlink:href="#DejaVuSans-30" transform="translate(868.074219 0)"/>
    <use xlink:href="#DejaVuSans-2e" transform="translate(931.697266 0)"/>
    <use xlink:href="#DejaVuSans-34" transform="translate(963.484375 0)"/>
    <use xlink:href="#DejaVuSans-20" transform="translate(1027.107422 0)"/>
    <use xlink:href="#DejaVuSans-6d" transform="translate(1058.894531 0)"/>
    <use xlink:href="#DejaVuSans-57" transform="translate(1156.306641 0)"/>
   </g>
  </g>
 </g>
 <defs>
  <clipPath id="p1717449657">
   <rect x="72" y="86.4" width="446.4" height="420"/>
  </clipPath>
  <clipPath id="p066335bbfc">
   <rect x="72" y="556.8" width="446.4" height="84"/>
  </clipPath>
 </defs>
</svg>
