<?xml version="1.0" encoding="utf-8" standalone="no"?>
<!DOCTYPE svg PUBLIC "-//W3C//DTD SVG 1.1//EN"
  "http://www.w3.org/Graphics/SVG/1.1/DTD/svg11.dtd">
<svg xmlns:xlink="http://www.w3.org/1999/xlink" width="576pt" height="720pt" viewBox="0 0 576 720" xmlns="http://www.w3.org/2000/svg" version="1.1">
 <metadata>
  <rdf:RDF xmlns:dc="http://purl.org/dc/elements/1.1/" xmlns:cc="http://creativecommons.org/ns#" xmlns:rdf="http://www.w3.org/1999/02/22-rdf-syntax-ns#">
   <cc:Work>
    <dc:type rdf:resource="http://purl.org/dc/dcmitype/StillImage"/>
    <dc:date>2026-06-10T15:01:55.893442</dc:date>
    <dc:format>image/svg+xml</dc:format>
    <dc:creator>
     <cc:Agent>
      <dc:title>Matplotlib v3.10.0, https://matplotlib.org/</dc:title>
     </cc:Agent>
    </dc:creator>
   </cc:Work>
  </rdf:RDF>
 </metadata>
 <defs>
  <style type="text/css">*{stroke-linejoin: round; stroke-linecap: butt}</style>
 </defs>
 <g id="figure_1">
  <g id="patch_1">
   <path d="M 0 720 
L 576 720 
L 576 0 
L 0 0 
z
" style="fill: #ffffff"/>
  </g>
  <g id="axes_1">
   <g id="patch_2">
    <path d="M 72 506.4 
L 518.4 506.4 
L 518.4 86.4 
L 72 86.4 
z
" style="fill: #ffffff"/>
   </g>
   <g id="matplotlib.axis_1">
    <g id="xtick_1">
     <g id="line2d_1">
      <defs>
       <path id="m235eb66983" d="M 0 0 
L 0 3.5 
" style="stroke: #000000; stroke-width: 0.8"/>
      </defs>
      <g>
       <use xlink:href="#m235eb66983" x="72" y="506.4" style="stroke: #000000; stroke-width: 0.8"/>
      </g>
     </g>
    </g>
    <g id="xtick_2">
     <g id="line2d_2">
      <g>
       <use xlink:href="#m235eb66983" x="171.2" y="506.4" style="stroke: #000000; stroke-width: 0.8"/>
      </g>
     </g>
    </g>
    <g id="xtick_3">
     <g id="line2d_3">
      <g>
       <use xlink:href="#m235eb66983" x="270.4" y="506.4" style="stroke: #000000; stroke-width: 0.8"/>
      </g>
     </g>
    </g>
    <g id="xtick_4">
     <g id="line2d_4">
      <g>
       <use xlink:href="#m235eb66983" x="369.6" y="506.4" style="stroke: #000000; stroke-width: 0.8"/>
      </g>
     </g>
    </g>
    <g id="xtick_5">
     <g id="line2d_5">
      <g>
       <use xlink:href="#m235eb66983" x="468.8" y="506.4" style="stroke: #000000; stroke-width: 0.8"/>
      </g>
     </g>
    </g>
   </g>
   <g id="matplotlib.axis_2">
    <g id="ytick_1">
     <g id="line2d_6">
      <defs>
       <path id="mffe400186f" d="M 0 0 
L -3.5 0 
" style="stroke: #000000; stroke-width: 0.8"/>
      </defs>
      <g>
       <use xlink:href="#mffe400186f" x="72" y="485.764448" style="stroke: #000000; stroke-width: 0.8"/>
      </g>
     </g>
     <g id="text_1">
      <!-- 0 -->
      <g transform="translate(58.6375 489.563666) scale(0.1 -0.1)">
       <defs>
        <path id="DejaVuSans-30" d="M 2034 4250 
Q 1547 4250 1301 3770 
Q 1056 3291 1056 2328 
Q 1056 1369 1301 889 
Q 1547 409 2034 409 
Q 2525 409 2770 889 
Q 3016 1369 3016 2328 
Q 3016 3291 2770 3770 
Q 2525 4250 2034 4250 
z
M 2034 4750 
Q 2819 4750 3233 4129 
Q 3647 3509 3647 2328 
Q 3647 1150 3233 529 
Q 2819 -91 2034 -91 
Q 1250 -91 836 529 
Q 422 1150 422 2328 
Q 422 3509 836 4129 
Q 1250 4750 2034 4750 
z
" transform="scale(0.015625)"/>
       </defs>
       <use xlink:href="#DejaVuSans-30"/>
      </g>
     </g>
    </g>
    <g id="ytick_2">
     <g id="line2d_7">
      <g>
       <use xlink:href="#mffe400186f" x="72" y="432.505046" style="stroke: #000000; stroke-width: 0.8"/>
      </g>
     </g>
     <g id="text_2">
      <!-- 5000 -->
      <g transform="translate(39.55 436.304265) scale(0.1 -0.1)">
       <defs>
        <path id="DejaVuSans-35" d="M 691 4666 
L 3169 4666 
L 3169 4134 
L 1269 4134 
L 1269 2991 
Q 1406 3038 1543 3061 
Q 1681 3084 1819 3084 
Q 2600 3084 3056 2656 
Q 3513 2228 3513 1497 
Q 3513 744 3044 326 
Q 2575 -91 1722 -91 
Q 1428 -91 1123 -41 
Q 819 9 494 109 
L 494 744 
Q 775 591 1075 516 
Q 1375 441 1709 441 
Q 2250 441 2565 725 
Q 2881 1009 2881 1497 
Q 2881 1984 2565 2268 
Q 2250 2553 1709 2553 
Q 1456 2553 1204 2497 
Q 953 2441 691 2322 
L 691 4666 
z
" transform="scale(0.015625)"/>
       </defs>
       <use xlink:href="#DejaVuSans-35"/>
       <use xlink:href="#DejaVuSans-30" transform="translate(63.623047 0)"/>
       <use xlink:href="#DejaVuSans-30" transform="translate(127.246094 0)"/>
       <use xlink:href="#DejaVuSans-30" transform="translate(190.869141 0)"/>
      </g>
     </g>
    </g>
    <g id="ytick_3">
     <g id="line2d_8">
      <g>
       <use xlink:href="#mffe400186f" x="72" y="379.245645" style="stroke: #000000; stroke-width: 0.8"/>
      </g>
     </g>
     <g id="text_3">
      <!-- 10000 -->
      <g transform="translate(33.1875 383.044864) scale(0.1 -0.1)">
       <defs>
        <path id="DejaVuSans-31" d="M 794 531 
L 1825 531 
L 1825 4091 
L 703 3866 
L 703 4441 
L 1819 4666 
L 2450 4666 
L 2450 531 
L 3481 531 
L 3481 0 
L 794 0 
L 794 531 
z
" transform="scale(0.015625)"/>
       </defs>
       <use xlink:href="#DejaVuSans-31"/>
       <use xlink:href="#DejaVuSans-30" transform="translate(63.623047 0)"/>
       <use xlink:href="#DejaVuSans-30" transform="translate(127.246094 0)"/>
       <use xlink:href="#DejaVuSans-30" transform="translate(190.869141 0)"/>
       <use xlink:href="#DejaVuSans-30" transform="translate(254.492188 0)"/>
      </g>
     </g>
    </g>
    <g id="ytick_4">
     <g id="line2d_9">
      <g>
       <use xlink:href="#mffe400186f" x="72" y="325.986244" style="stroke: #000000; stroke-width: 0.8"/>
      </g>
     </g>
     <g id="text_4">
      <!-- 15000 -->
      <g transform="translate(33.1875 329.785463) scale(0.1 -0.1)">
       <use xlink:href="#DejaVuSans-31"/>
       <use xlink:href="#DejaVuSans-35" transform="translate(63.623047 0)"/>
       <use xlink:href="#DejaVuSans-30" transform="translate(127.246094 0)"/>
       <use xlink:href="#DejaVuSans-30" transform="translate(190.869141 0)"/>
       <use xlink:href="#DejaVuSans-30" transform="translate(254.492188 0)"/>
      </g>
     </g>
    </g>
    <g id="ytick_5">
     <g id="line2d_10">
      <g>
       <use xlink:href="#mffe400186f" x="72" y="272.726843" style="stroke: #000000; stroke-width: 0.8"/>
      </g>
     </g>
     <g id="text_5">
      <!-- 20000 -->
      <g transform="translate(33.1875 276.526061) scale(0.1 -0.1)">
       <defs>
        <path id="DejaVuSans-32" d="M 1228 531 
L 3431 531 
L 3431 0 
L 469 0 
L 469 531 
Q 828 903 1448 1529 
Q 2069 2156 2228 2338 
Q 2531 2678 2651 2914 
Q 2772 3150 2772 3378 
Q 2772 3750 2511 3984 
Q 2250 4219 1831 4219 
Q 1534 4219 1204 4116 
Q 875 4013 500 3803 
L 500 4441 
Q 881 4594 1212 4672 
Q 1544 4750 1819 4750 
Q 2544 4750 2975 4387 
Q 3406 4025 3406 3419 
Q 3406 3131 3298 2873 
Q 3191 2616 2906 2266 
Q 2828 2175 2409 1742 
Q 1991 1309 1228 531 
z
" transform="scale(0.015625)"/>
       </defs>
       <use xlink:href="#DejaVuSans-32"/>
       <use xlink:href="#DejaVuSans-30" transform="translate(63.623047 0)"/>
       <use xlink:href="#DejaVuSans-30" transform="translate(127.246094 0)"/>
       <use xlink:href="#DejaVuSans-30" transform="translate(190.869141 0)"/>
       <use xlink:href="#DejaVuSans-30" transform="translate(254.492188 0)"/>
      </g>
     </g>
    </g>
    <g id="ytick_6">
     <g id="line2d_11">
      <g>
       <use xlink:href="#mffe400186f" x="72" y="219.467441" style="stroke: #000000; stroke-width: 0.8"/>
      </g>
     </g>
     <g id="text_6">
      <!-- 25000 -->
      <g transform="translate(33.1875 223.26666) scale(0.1 -0.1)">
       <use xlink:href="#DejaVuSans-32"/>
       <use xlink:href="#DejaVuSans-35" transform="translate(63.623047 0)"/>
       <use xlink:href="#DejaVuSans-30" transform="translate(127.246094 0)"/>
       <use xlink:href="#DejaVuSans-30" transform="translate(190.869141 0)"/>
       <use xlink:href="#DejaVuSans-30" transform="translate(254.492188 0)"/>
      </g>
     </g>
    </g>
    <g id="ytick_7">
     <g id="line2d_12">
      <g>
       <use xlink:href="#mffe400186f" x="72" y="166.20804" style="stroke: #000000; stroke-width: 0.8"/>
      </g>
     </g>
     <g id="text_7">
      <!-- 30000 -->
      <g transform="translate(33.1875 170.007259) scale(0.1 -0.1)">
       <defs>
        <path id="DejaVuSans-33" d="M 2597 2516 
Q 3050 2419 3304 2112 
Q 3559 1806 3559 1356 
Q 3559 666 3084 287 
Q 2609 -91 1734 -91 
Q 1441 -91 1130 -33 
Q 819 25 488 141 
L 488 750 
Q 750 597 1062 519 
Q 1375 441 1716 441 
Q 2309 441 2620 675 
Q 2931 909 2931 1356 
Q 2931 1769 2642 2001 
Q 2353 2234 1838 2234 
L 1294 2234 
L 1294 2753 
L 1863 2753 
Q 2328 2753 2575 2939 
Q 2822 3125 2822 3475 
Q 2822 3834 2567 4026 
Q 2313 4219 1838 4219 
Q 1578 4219 1281 4162 
Q 984 4106 628 3988 
L 628 4550 
Q 988 4650 1302 4700 
Q 1616 4750 1894 4750 
Q 2613 4750 3031 4423 
Q 3450 4097 3450 3541 
Q 3450 3153 3228 2886 
Q 3006 2619 2597 2516 
z
" transform="scale(0.015625)"/>
       </defs>
       <use xlink:href="#DejaVuSans-33"/>
       <use xlink:href="#DejaVuSans-30" transform="translate(63.623047 0)"/>
       <use xlink:href="#DejaVuSans-30" transform="translate(127.246094 0)"/>
       <use xlink:href="#DejaVuSans-30" transform="translate(190.869141 0)"/>
       <use xlink:href="#DejaVuSans-30" transform="translate(254.492188 0)"/>
      </g>
     </g>
    </g>
    <g id="ytick_8">
     <g id="line2d_13">
      <g>
       <use xlink:href="#mffe400186f" x="72" y="112.948639" style="stroke: #000000; stroke-width: 0.8"/>
      </g>
     </g>
     <g id="text_8">
      <!-- 35000 -->
      <g transform="translate(33.1875 116.747858) scale(0.1 -0.1)">
       <use xlink:href="#DejaVuSans-33"/>
       <use xlink:href="#DejaVuSans-35" transform="translate(63.623047 0)"/>
       <use xlink:href="#DejaVuSans-30" transform="translate(127.246094 0)"/>
       <use xlink:href="#DejaVuSans-30" transform="translate(190.869141 0)"/>
       <use xlink:href="#DejaVuSans-30" transform="translate(254.492188 0)"/>
      </g>
     </g>
    </g>
    <g id="text_9">
     <!-- Intensitiy (a.u.) -->
     <g transform="translate(27.107812 334.453125) rotate(-90) scale(0.1 -0.1)">
      <defs>
       <path id="DejaVuSans-49" d="M 628 4666 
L 1259 4666 
L 1259 0 
L 628 0 
L 628 4666 
z
" transform="scale(0.015625)"/>
       <path id="DejaVuSans-6e" d="M 3513 2113 
L 3513 0 
L 2938 0 
L 2938 2094 
Q 2938 2591 2744 2837 
Q 2550 3084 2163 3084 
Q 1697 3084 1428 2787 
Q 1159 2491 1159 1978 
L 1159 0 
L 581 0 
L 581 3500 
L 1159 3500 
L 1159 2956 
Q 1366 3272 1645 3428 
Q 1925 3584 2291 3584 
Q 2894 3584 3203 3211 
Q 3513 2838 3513 2113 
z
" transform="scale(0.015625)"/>
       <path id="DejaVuSans-74" d="M 1172 4494 
L 1172 3500 
L 2356 3500 
L 2356 3053 
L 1172 3053 
L 1172 1153 
Q 1172 725 1289 603 
Q 1406 481 1766 481 
L 2356 481 
L 2356 0 
L 1766 0 
Q 1100 0 847 248 
Q 594 497 594 1153 
L 594 3053 
L 172 3053 
L 172 3500 
L 594 3500 
L 594 4494 
L 1172 4494 
z
" transform="scale(0.015625)"/>
       <path id="DejaVuSans-65" d="M 3597 1894 
L 3597 1613 
L 953 1613 
Q 991 1019 1311 708 
Q 1631 397 2203 397 
Q 2534 397 2845 478 
Q 3156 559 3463 722 
L 3463 178 
Q 3153 47 2828 -22 
Q 2503 -91 2169 -91 
Q 1331 -91 842 396 
Q 353 884 353 1716 
Q 353 2575 817 3079 
Q 1281 3584 2069 3584 
Q 2775 3584 3186 3129 
Q 3597 2675 3597 1894 
z
M 3022 2063 
Q 3016 2534 2758 2815 
Q 2500 3097 2075 3097 
Q 1594 3097 1305 2825 
Q 1016 2553 972 2059 
L 3022 2063 
z
" transform="scale(0.015625)"/>
       <path id="DejaVuSans-73" d="M 2834 3397 
L 2834 2853 
Q 2591 2978 2328 3040 
Q 2066 3103 1784 3103 
Q 1356 3103 1142 2972 
Q 928 2841 928 2578 
Q 928 2378 1081 2264 
Q 1234 2150 1697 2047 
L 1894 2003 
Q 2506 1872 2764 1633 
Q 3022 1394 3022 966 
Q 3022 478 2636 193 
Q 2250 -91 1575 -91 
Q 1294 -91 989 -36 
Q 684 19 347 128 
L 347 722 
Q 666 556 975 473 
Q 1284 391 1588 391 
Q 1994 391 2212 530 
Q 2431 669 2431 922 
Q 2431 1156 2273 1281 
Q 2116 1406 1581 1522 
L 1381 1569 
Q 847 1681 609 1914 
Q 372 2147 372 2553 
Q 372 3047 722 3315 
Q 1072 3584 1716 3584 
Q 2034 3584 2315 3537 
Q 2597 3491 2834 3397 
z
" transform="scale(0.015625)"/>
       <path id="DejaVuSans-69" d="M 603 3500 
L 1178 3500 
L 1178 0 
L 603 0 
L 603 3500 
z
M 603 4863 
L 1178 4863 
L 1178 4134 
L 603 4134 
L 603 4863 
z
" transform="scale(0.015625)"/>
       <path id="DejaVuSans-79" d="M 2059 -325 
Q 1816 -950 1584 -1140 
Q 1353 -1331 966 -1331 
L 506 -1331 
L 506 -850 
L 844 -850 
Q 1081 -850 1212 -737 
Q 1344 -625 1503 -206 
L 1606 56 
L 191 3500 
L 800 3500 
L 1894 763 
L 2988 3500 
L 3597 3500 
L 2059 -325 
z
" transform="scale(0.015625)"/>
       <path id="DejaVuSans-20" transform="scale(0.015625)"/>
       <path id="DejaVuSans-28" d="M 1984 4856 
Q 1566 4138 1362 3434 
Q 1159 2731 1159 2009 
Q 1159 1288 1364 580 
Q 1569 -128 1984 -844 
L 1484 -844 
Q 1016 -109 783 600 
Q 550 1309 550 2009 
Q 550 2706 781 3412 
Q 1013 4119 1484 4856 
L 1984 4856 
z
" transform="scale(0.015625)"/>
       <path id="DejaVuSans-61" d="M 2194 1759 
Q 1497 1759 1228 1600 
Q 959 1441 959 1056 
Q 959 750 1161 570 
Q 1363 391 1709 391 
Q 2188 391 2477 730 
Q 2766 1069 2766 1631 
L 2766 1759 
L 2194 1759 
z
M 3341 1997 
L 3341 0 
L 2766 0 
L 2766 531 
Q 2569 213 2275 61 
Q 1981 -91 1556 -91 
Q 1019 -91 701 211 
Q 384 513 384 1019 
Q 384 1609 779 1909 
Q 1175 2209 1959 2209 
L 2766 2209 
L 2766 2266 
Q 2766 2663 2505 2880 
Q 2244 3097 1772 3097 
Q 1472 3097 1187 3025 
Q 903 2953 641 2809 
L 641 3341 
Q 956 3463 1253 3523 
Q 1550 3584 1831 3584 
Q 2591 3584 2966 3190 
Q 3341 2797 3341 1997 
z
" transform="scale(0.015625)"/>
       <path id="DejaVuSans-2e" d="M 684 794 
L 1344 794 
L 1344 0 
L 684 0 
L 684 794 
z
" transform="scale(0.015625)"/>
       <path id="DejaVuSans-75" d="M 544 1381 
L 544 3500 
L 1119 3500 
L 1119 1403 
Q 1119 906 1312 657 
Q 1506 409 1894 409 
Q 2359 409 2629 706 
Q 2900 1003 2900 1516 
L 2900 3500 
L 3475 3500 
L 3475 0 
L 2900 0 
L 2900 538 
Q 2691 219 2414 64 
Q 2138 -91 1772 -91 
Q 1169 -91 856 284 
Q 544 659 544 1381 
z
M 1991 3584 
L 1991 3584 
z
" transform="scale(0.015625)"/>
       <path id="DejaVuSans-29" d="M 513 4856 
L 1013 4856 
Q 1481 4119 1714 3412 
Q 1947 2706 1947 2009 
Q 1947 1309 1714 600 
Q 1481 -109 1013 -844 
L 513 -844 
Q 928 -128 1133 580 
Q 1338 1288 1338 2009 
Q 1338 2731 1133 3434 
Q 928 4138 513 4856 
z
" transform="scale(0.015625)"/>
      </defs>
      <use xlink:href="#DejaVuSans-49"/>
      <use xlink:href="#DejaVuSans-6e" transform="translate(29.492188 0)"/>
      <use xlink:href="#DejaVuSans-74" transform="translate(92.871094 0)"/>
      <use xlink:href="#DejaVuSans-65" transform="translate(132.080078 0)"/>
      <use xlink:href="#DejaVuSans-6e" transform="translate(193.603516 0)"/>
      <use xlink:href="#DejaVuSans-73" transform="translate(256.982422 0)"/>
      <use xlink:href="#DejaVuSans-69" transform="translate(309.082031 0)"/>
      <use xlink:href="#DejaVuSans-74" transform="translate(336.865234 0)"/>
      <use xlink:href="#DejaVuSans-69" transform="translate(376.074219 0)"/>
      <use xlink:href="#DejaVuSans-79" transform="translate(403.857422 0)"/>
      <use xlink:href="#DejaVuSans-20" transform="translate(463.037109 0)"/>
      <use xlink:href="#DejaVuSans-28" transform="translate(494.824219 0)"/>
      <use xlink:href="#DejaVuSans-61" transform="translate(533.837891 0)"/>
      <use xlink:href="#DejaVuSans-2e" transform="translate(595.117188 0)"/>
      <use xlink:href="#DejaVuSans-75" transform="translate(626.904297 0)"/>
      <use xlink:href="#DejaVuSans-2e" transform="translate(690.283203 0)"/>
      <use xlink:href="#DejaVuSans-29" transform="translate(722.070312 0)"/>
     </g>
    </g>
   </g>
   <g id="line2d_14">
    <path d="M 518.29584 486.604832 
L 517.68576 486.827311 
L 517.07568 486.8261 
L 516.4656 486.515984 
L 515.85552 486.642595 
L 515.24544 486.407043 
L 514.63536 486.56561 
L 514.03024 486.383326 
L 513.42016 485.987996 
L 512.81504 486.466129 
L 512.20992 486.315801 
L 511.6048 486.410467 
L 510.99968 486.004494 
L 510.39952 486.21634 
L 509.7944 485.618634 
L 509.19424 486.011562 
L 508.58912 485.488418 
L 507.98896 485.678961 
L 507.3888 486.093193 
L 506.7936 485.932233 
L 506.19344 485.558226 
L 505.59328 485.41856 
L 504.99808 484.895436 
L 504.40288 485.224462 
L 503.21248 485.520352 
L 502.61728 485.199614 
L 502.02208 485.081262 
L 501.43184 485.261172 
L 499.06592 485.320386 
L 498.47568 484.61619 
L 497.88544 485.200872 
L 497.30016 484.656464 
L 496.70992 484.900285 
L 495.53936 484.088419 
L 494.95408 484.129864 
L 493.78352 484.702742 
L 492.61792 483.890885 
L 492.0376 484.187986 
L 491.45728 483.43055 
L 490.87696 483.493309 
L 490.29664 483.864973 
L 489.71632 483.544264 
L 489.136 483.41529 
L 488.56064 483.797615 
L 487.98528 483.615391 
L 486.8296 482.654427 
L 486.25424 483.068709 
L 485.67888 483.269952 
L 483.38736 482.466512 
L 482.81696 482.316253 
L 482.24656 481.921001 
L 481.67616 482.239425 
L 480.54032 481.448931 
L 479.96992 481.11759 
L 479.40448 481.830144 
L 478.83904 481.317731 
L 478.2736 481.231393 
L 477.70816 481.762865 
L 477.14272 480.707206 
L 476.57728 480.567609 
L 476.01184 480.875391 
L 475.45136 480.107343 
L 474.89088 480.223401 
L 474.32544 480.45662 
L 473.20448 479.847237 
L 472.64896 480.069824 
L 471.528 479.481745 
L 470.97248 479.853458 
L 470.41696 479.341065 
L 469.85648 479.116263 
L 469.30096 478.667781 
L 468.74544 478.389729 
L 468.19488 477.802783 
L 467.63936 478.472748 
L 467.08384 477.406458 
L 466.53328 477.522535 
L 465.98272 477.031456 
L 465.43216 477.765343 
L 464.8816 476.848188 
L 463.78048 477.367944 
L 463.22992 477.356199 
L 462.68432 476.30058 
L 462.13376 475.820152 
L 461.58816 475.595379 
L 461.04256 476.137542 
L 460.49696 475.433435 
L 459.95136 475.59213 
L 459.40576 475.569743 
L 458.86016 475.217148 
L 457.77392 475.097821 
L 457.23328 474.116774 
L 456.69264 474.200916 
L 455.07072 472.440136 
L 454.53008 473.695985 
L 453.9944 473.045156 
L 453.45376 471.819117 
L 452.91808 472.222825 
L 452.3824 471.284396 
L 451.31104 471.39944 
L 450.77536 471.313161 
L 450.23968 470.960586 
L 449.70896 470.054122 
L 449.17328 468.902656 
L 448.64256 470.265043 
L 448.11184 469.358579 
L 447.57616 469.922065 
L 447.04544 469.122121 
L 446.51472 467.960012 
L 445.98896 467.223989 
L 445.45824 468.767458 
L 444.93248 466.902335 
L 444.40176 468.30733 
L 443.876 467.443484 
L 443.35024 466.952453 
L 442.82448 466.72772 
L 442.29872 464.319351 
L 441.77296 466.214342 
L 441.2472 465.851134 
L 440.72144 464.976637 
L 440.20064 465.454937 
L 439.67984 465.411296 
L 439.15408 464.121375 
L 438.63328 461.989965 
L 438.11248 463.394979 
L 437.59168 463.713501 
L 437.07584 462.636637 
L 436.55504 462.401262 
L 436.03424 461.260477 
L 435.00256 460.406278 
L 434.48176 460.937838 
L 433.96592 459.754456 
L 432.93424 459.528718 
L 432.42336 459.037717 
L 431.90752 457.566734 
L 431.39664 456.713569 
L 430.8808 458.800314 
L 429.85904 455.762499 
L 429.34816 456.794717 
L 428.3264 455.876627 
L 427.81552 456.291036 
L 427.30464 454.159646 
L 426.79872 453.327795 
L 426.28784 453.4333 
L 425.78192 452.676012 
L 425.276 452.493925 
L 424.77008 451.150784 
L 424.26416 452.715606 
L 423.75824 451.734629 
L 423.25232 449.645856 
L 422.75136 450.26267 
L 422.24544 449.015396 
L 421.74448 448.4392 
L 421.24352 448.35299 
L 420.7376 447.318754 
L 420.23664 446.763861 
L 419.73568 445.07987 
L 419.23472 446.378404 
L 418.73872 445.748959 
L 418.23776 445.726661 
L 417.74176 443.190528 
L 417.2408 442.571725 
L 416.7448 443.433542 
L 416.2488 442.378022 
L 415.74784 443.612645 
L 415.25184 442.514517 
L 414.7608 440.8625 
L 414.2648 440.595219 
L 413.7688 441.915067 
L 413.27776 438.111371 
L 412.78176 438.01452 
L 412.29072 437.246609 
L 411.79968 437.703665 
L 411.30368 435.348615 
L 410.81264 437.147808 
L 410.3216 437.114878 
L 409.34448 435.813408 
L 408.36736 432.98872 
L 407.39024 432.368971 
L 406.90416 430.525231 
L 406.41808 429.949064 
L 405.932 428.733785 
L 405.44592 430.362558 
L 404.95984 427.506889 
L 404.47872 427.537889 
L 403.99264 427.430406 
L 403.51152 426.992723 
L 403.02544 425.553755 
L 402.54432 426.330387 
L 402.0632 424.039277 
L 401.58208 424.826561 
L 401.10096 421.683301 
L 400.13872 419.891875 
L 399.66256 420.721777 
L 399.18144 419.687589 
L 398.70528 417.183452 
L 398.22416 418.833538 
L 397.748 415.455947 
L 397.27184 415.380438 
L 396.79568 413.749755 
L 396.31952 413.631639 
L 395.84336 413.044841 
L 395.3672 414.013217 
L 394.896 411.40257 
L 394.41984 410.134051 
L 393.94864 410.772229 
L 393.00128 407.031538 
L 392.53008 408.734903 
L 392.05888 403.482591 
L 391.58768 405.526817 
L 391.11648 405.174369 
L 390.65024 401.296159 
L 390.17904 403.691897 
L 389.2416 400.494471 
L 388.77536 399.641395 
L 388.30912 400.407405 
L 387.84288 397.647643 
L 387.37664 396.411099 
L 386.9104 396.889508 
L 386.44416 394.875377 
L 385.97792 395.449653 
L 385.0504 392.412026 
L 384.58416 389.74813 
L 384.12288 389.77917 
L 383.20032 389.340611 
L 382.73904 389.563385 
L 382.27776 386.292342 
L 381.81648 386.664242 
L 381.3552 384.405128 
L 380.89392 383.626625 
L 380.4376 384.605692 
L 379.97632 381.164219 
L 379.52 380.69463 
L 379.06368 378.052058 
L 378.60736 379.893927 
L 378.14608 378.955646 
L 377.68976 376.227859 
L 377.2384 376.898031 
L 376.78208 375.768026 
L 376.32576 375.756468 
L 375.86944 374.66907 
L 375.41808 371.653692 
L 374.96176 372.142773 
L 374.5104 370.054108 
L 374.05904 368.551297 
L 373.60768 369.73276 
L 373.15632 368.613416 
L 372.70496 365.246526 
L 372.2536 365.916698 
L 371.80224 365.148867 
L 371.35088 362.14414 
L 370.90448 361.323059 
L 370.45312 361.173037 
L 370.00672 360.660861 
L 369.56032 357.943745 
L 369.11392 357.996118 
L 368.66256 358.751506 
L 368.21616 355.821352 
L 367.76976 354.382462 
L 367.32832 354.381586 
L 366.88192 351.984027 
L 366.43552 350.491877 
L 365.99408 349.606895 
L 365.10624 349.179057 
L 364.65984 347.239528 
L 364.2184 344.56503 
L 363.77696 344.223294 
L 363.33552 343.231792 
L 362.45264 339.395363 
L 362.01616 341.269227 
L 361.57472 341.481388 
L 361.13328 338.199733 
L 360.6968 338.933846 
L 360.26032 334.160937 
L 359.81888 336.439563 
L 359.3824 333.583993 
L 358.94592 333.242266 
L 358.50944 332.634242 
L 358.07296 331.078201 
L 357.63648 331.215809 
L 357.2 329.915413 
L 356.76848 327.997218 
L 356.332 325.130996 
L 355.464 327.621813 
L 355.03248 327.706171 
L 354.60096 321.026585 
L 354.16944 322.548948 
L 353.30144 319.213186 
L 352.87488 319.137776 
L 352.44336 313.001436 
L 352.01184 315.312038 
L 351.58528 312.669524 
L 351.15376 316.247699 
L 350.7272 310.196585 
L 350.29568 312.720224 
L 349.86912 309.438598 
L 349.44256 307.594976 
L 349.016 307.114794 
L 348.58944 306.410923 
L 348.16288 303.321031 
L 347.73632 302.095218 
L 347.30976 301.668296 
L 346.8832 301.667449 
L 346.4616 303.275046 
L 346.03504 299.343655 
L 345.61344 299.214996 
L 345.19184 298.010496 
L 344.76528 294.601048 
L 344.34368 295.867785 
L 343.92208 294.599374 
L 343.50048 294.289632 
L 343.07888 292.424716 
L 342.66224 293.126913 
L 342.24064 290.473758 
L 341.81904 289.695334 
L 341.4024 286.42438 
L 340.9808 286.221157 
L 340.56416 284.313643 
L 339.72592 282.852671 
L 339.30928 282.745325 
L 338.89264 279.932402 
L 338.476 274.46716 
L 338.05936 278.013409 
L 337.64272 275.988725 
L 337.23104 275.625744 
L 336.8144 274.240172 
L 336.39776 272.151576 
L 335.98608 272.21467 
L 335.5744 266.855957 
L 335.15776 269.432885 
L 334.74608 266.460193 
L 334.3344 264.403563 
L 333.92272 265.372067 
L 333.51104 260.865504 
L 333.09936 266.297146 
L 332.68768 265.007451 
L 332.276 259.883079 
L 331.86928 261.139194 
L 331.4576 259.657765 
L 331.05088 259.699565 
L 330.6392 258.761383 
L 330.23248 259.229258 
L 329.82576 254.488364 
L 329.41408 253.805826 
L 329.00736 254.305657 
L 328.60064 250.353002 
L 328.19392 251.587813 
L 327.79216 247.379522 
L 327.38544 247.410671 
L 326.97872 247.132914 
L 326.57696 250.274421 
L 326.17024 243.392499 
L 325.76848 246.012064 
L 325.36176 242.613307 
L 324.96 243.730957 
L 324.55824 242.622364 
L 324.15648 238.083865 
L 323.74976 240.458427 
L 323.35296 229.443595 
L 322.9512 232.489235 
L 322.54944 232.797342 
L 322.14768 227.832768 
L 321.74592 229.280626 
L 321.34912 235.18098 
L 320.94736 229.481427 
L 320.55056 232.495121 
L 320.15376 229.863319 
L 319.752 228.626903 
L 319.3552 229.286532 
L 318.9584 229.562693 
L 318.1648 221.614815 
L 317.768 222.093362 
L 317.3712 216.990323 
L 316.97936 216.499559 
L 316.58256 221.920578 
L 316.18576 216.327553 
L 315.79392 215.964612 
L 315.40208 214.398007 
L 315.00528 215.867179 
L 314.61344 211.041099 
L 314.2216 212.840489 
L 313.82976 211.891694 
L 313.43792 206.948444 
L 313.04608 206.127471 
L 312.65424 203.069603 
L 312.2624 206.189826 
L 311.87056 203.408908 
L 311.48368 198.998261 
L 311.09184 199.593989 
L 310.7 204.887195 
L 310.31312 202.606925 
L 309.92624 202.574201 
L 309.5344 202.264519 
L 309.14752 201.645942 
L 308.76064 201.325617 
L 308.37376 202.262215 
L 307.98688 197.840916 
L 307.21312 195.538574 
L 306.05744 188.218438 
L 305.28864 182.411637 
L 304.90672 186.756846 
L 304.5248 188.204743 
L 304.13792 188.363753 
L 303.756 184.943742 
L 303.37408 187.75508 
L 302.99216 189.394711 
L 302.61024 186.230345 
L 302.22832 185.153746 
L 301.46944 179.719781 
L 300.71056 176.980741 
L 300.32864 176.68173 
L 299.95168 170.620062 
L 299.56976 174.230291 
L 299.1928 169.34033 
L 298.81584 175.549628 
L 298.43888 177.327743 
L 298.06192 171.202164 
L 297.68496 176.261059 
L 297.308 173.501473 
L 296.93104 173.671155 
L 296.55408 171.518727 
L 296.17712 165.542274 
L 295.80512 166.713242 
L 295.42816 166.552715 
L 295.05616 158.307421 
L 294.6792 158.327977 
L 294.3072 157.336613 
L 293.55824 151.529852 
L 293.18624 156.141378 
L 292.81424 152.646822 
L 292.44224 154.254518 
L 292.07024 156.959357 
L 291.69824 151.046825 
L 291.32624 157.767423 
L 290.9592 157.298011 
L 290.5872 157.201406 
L 290.22016 154.463144 
L 289.84816 154.004374 
L 289.10912 148.740878 
L 288.74208 148.452549 
L 288.00304 141.548663 
L 287.636 143.539836 
L 287.26896 141.440687 
L 286.90192 145.636799 
L 286.53984 141.172943 
L 286.1728 147.957462 
L 285.80576 143.898367 
L 285.43872 146.102577 
L 285.07664 149.34003 
L 284.7096 149.914503 
L 284.34752 146.931258 
L 283.98048 144.917324 
L 283.6184 140.996713 
L 283.25632 141.699018 
L 282.5272 132.409131 
L 282.16512 129.830657 
L 281.80304 128.956484 
L 281.44096 130.074213 
L 281.07888 130.201317 
L 280.72176 135.601111 
L 280.35968 137.485775 
L 279.9976 135.589021 
L 279.64048 141.947485 
L 279.2784 133.723515 
L 278.92128 137.674653 
L 278.5592 134.6488 
L 278.20208 134.765262 
L 277.84496 138.929438 
L 276.41152 121.159256 
L 276.0544 125.110395 
L 275.69728 116.449707 
L 275.34512 120.219774 
L 274.988 119.207136 
L 274.63088 120.452697 
L 274.27872 120.601124 
L 273.9216 123.827935 
L 273.56944 123.11356 
L 273.21232 125.392353 
L 272.86016 126.648576 
L 272.508 125.390955 
L 272.15088 131.365951 
L 271.79872 127.945998 
L 271.44656 129.670904 
L 271.0944 124.855555 
L 270.74224 123.949446 
L 270.39008 120.763834 
L 270.04288 119.847083 
L 269.69072 119.388353 
L 269.33856 112.463932 
L 268.99136 112.825407 
L 268.6392 113.719466 
L 268.28704 116.786508 
L 267.93984 115.912365 
L 267.59264 114.377805 
L 267.24048 119.766957 
L 266.89328 122.578364 
L 266.54608 123.099617 
L 266.19888 123.919122 
L 265.85168 126.954219 
L 265.50448 127.773724 
L 265.15728 126.537417 
L 264.81008 124.278529 
L 264.46288 123.106133 
L 264.11568 116.437367 
L 263.77344 114.07197 
L 263.42624 115.498632 
L 263.084 112.76042 
L 262.7368 106.624247 
L 262.39456 110.490201 
L 262.04736 108.167401 
L 261.70512 107.165445 
L 261.36288 108.570814 
L 260.6784 117.282693 
L 260.33616 117.079628 
L 259.99392 122.660534 
L 259.65168 120.391004 
L 258.9672 124.565182 
L 258.62496 123.733656 
L 258.28768 120.590682 
L 257.94544 116.286643 
L 257.6032 110.470037 
L 257.26592 111.459992 
L 256.92864 108.10398 
L 256.5864 106.409652 
L 256.24912 108.592617 
L 255.23232 106.300445 
L 254.89504 107.492786 
L 254.55776 113.425213 
L 254.22048 114.489732 
L 253.8832 116.086844 
L 253.55088 121.337561 
L 253.2136 123.541831 
L 252.87632 123.029871 
L 252.544 129.335125 
L 252.20672 127.417117 
L 251.86944 122.346152 
L 251.53712 122.292233 
L 251.2048 114.100277 
L 250.86752 113.513754 
L 250.5352 112.682248 
L 250.20288 109.613846 
L 249.87056 105.490909 
L 249.53328 108.078646 
L 249.20096 106.469553 
L 248.86864 114.084987 
L 248.54128 113.668914 
L 248.20896 116.331224 
L 247.87664 124.724246 
L 247.54432 125.47987 
L 246.88464 129.409104 
L 246.22496 123.048622 
L 245.56528 119.425673 
L 245.23792 115.451872 
L 244.9056 114.226246 
L 244.57824 114.097774 
L 244.25088 111.498065 
L 243.59616 110.495488 
L 243.2688 117.727465 
L 242.94144 117.577689 
L 242.61408 126.311581 
L 242.28672 127.184385 
L 241.95936 133.702686 
L 241.63696 132.413168 
L 240.9872 137.737819 
L 240.33744 131.90995 
L 240.01008 126.902917 
L 239.68768 129.458728 
L 239.36528 129.170487 
L 238.71552 115.130019 
L 238.07072 124.076318 
L 237.74832 121.732264 
L 237.42592 121.230986 
L 236.45872 135.598452 
L 236.14128 135.832164 
L 235.81888 138.728835 
L 235.49648 145.353664 
L 235.17904 146.024103 
L 234.85664 144.936971 
L 234.22176 141.122337 
L 233.89936 142.783391 
L 233.26448 130.37269 
L 232.94704 130.340104 
L 232.62464 131.553778 
L 232.3072 130.945991 
L 231.98976 131.541866 
L 231.67232 129.687808 
L 231.35984 133.308827 
L 231.0424 134.309474 
L 230.72496 135.917278 
L 230.40752 144.459455 
L 229.46016 154.662076 
L 229.14768 157.707893 
L 228.83024 158.889622 
L 228.20528 163.681727 
L 227.88784 161.43355 
L 227.57536 162.423555 
L 227.26288 161.9436 
L 226.9504 159.077624 
L 226.63792 151.375694 
L 226.32544 147.78539 
L 226.01296 150.042968 
L 225.70048 144.205117 
L 225.388 146.366829 
L 225.07552 149.60438 
L 224.768 149.518555 
L 224.45552 146.237155 
L 224.14304 153.277428 
L 223.83552 156.589552 
L 223.21552 166.665 
L 222.90304 165.599191 
L 222.59552 174.908324 
L 222.28304 172.574942 
L 221.97552 178.890896 
L 221.668 180.626542 
L 221.36048 177.707317 
L 221.05296 180.167291 
L 220.74544 178.40912 
L 220.43792 169.588752 
L 220.1304 169.215326 
L 219.51536 161.278454 
L 219.20784 161.192629 
L 218.90032 165.016043 
L 218.59776 164.866316 
L 218.29024 160.626257 
L 217.98272 167.719799 
L 217.68016 171.372793 
L 217.37264 172.075207 
L 217.07008 182.715835 
L 216.76752 181.735261 
L 216.46 184.333709 
L 216.15744 193.472422 
L 215.85488 193.567688 
L 215.55232 194.248808 
L 215.24976 200.106741 
L 214.94224 197.602939 
L 214.63968 196.675625 
L 214.33712 193.777713 
L 214.03952 192.669326 
L 213.73696 193.48892 
L 213.4344 188.023905 
L 213.13184 186.627908 
L 212.82928 183.570218 
L 212.53168 182.493787 
L 212.22912 182.716876 
L 211.62896 188.63813 
L 211.33136 186.762808 
L 211.0288 194.101353 
L 210.7312 197.360238 
L 210.4336 195.229271 
L 209.83344 208.106203 
L 209.53584 211.343783 
L 209.23824 217.585194 
L 208.94064 215.890955 
L 208.64304 215.35777 
L 208.34544 219.309027 
L 208.04784 216.720029 
L 207.75024 220.362381 
L 207.45264 212.362228 
L 207.15504 213.181832 
L 206.8624 209.399834 
L 206.5648 207.364734 
L 206.2672 202.538841 
L 205.97456 203.560841 
L 205.67696 198.926682 
L 205.38432 204.550294 
L 205.09168 203.718866 
L 204.79408 209.683328 
L 204.50144 211.00358 
L 203.32592 230.994826 
L 202.74064 234.37031 
L 202.448 238.39614 
L 202.15536 238.693812 
L 201.86272 238.096725 
L 201.57008 238.394397 
L 201.2824 233.462005 
L 200.98976 234.22836 
L 200.40944 226.270253 
L 199.82416 221.241404 
L 199.53648 221.890597 
L 199.2488 227.418352 
L 198.95616 223.402012 
L 198.66848 226.288101 
L 198.3808 223.794989 
L 198.08816 231.783319 
L 197.80048 233.146188 
L 197.5128 230.993937 
L 196.93744 242.315744 
L 196.64976 243.710569 
L 196.36208 250.346119 
L 196.0744 254.052402 
L 195.49904 264.202502 
L 195.21136 264.883651 
L 194.92864 266.491524 
L 194.35328 263.166995 
L 193.78288 254.889352 
L 192.64208 245.321699 
L 192.35936 252.425941 
L 192.07664 248.888956 
L 191.79392 247.769947 
L 191.5112 251.263203 
L 191.22352 250.889816 
L 190.9408 255.597385 
L 190.65808 262.808147 
L 190.37536 266.589003 
L 190.09264 275.195161 
L 189.80992 275.279815 
L 189.53216 279.284371 
L 189.24944 279.124031 
L 188.96672 280.593429 
L 188.684 285.940112 
L 188.40624 282.722693 
L 188.12352 284.703381 
L 187.8408 284.915858 
L 187.28032 278.417098 
L 187.00256 277.36201 
L 186.7248 273.00484 
L 186.44208 271.097592 
L 185.88656 269.338929 
L 185.32608 272.799677 
L 185.04832 271.680678 
L 184.77056 273.235302 
L 184.21504 280.349655 
L 183.93728 282.170575 
L 182.8312 299.50964 
L 182.55344 304.142656 
L 182.27568 304.79187 
L 182.00288 306.176073 
L 181.72512 309.136744 
L 181.45232 302.393562 
L 181.17456 303.980141 
L 180.90176 298.398014 
L 180.624 296.650554 
L 180.3512 293.12424 
L 180.0784 292.729579 
L 179.80064 291.717099 
L 179.52784 294.837558 
L 179.25504 292.717293 
L 178.98224 295.571455 
L 178.70944 294.878541 
L 178.16384 301.11946 
L 177.89104 308.490019 
L 177.61824 311.429397 
L 177.34544 318.182147 
L 177.07264 316.551868 
L 176.79984 324.348503 
L 176.52704 322.750179 
L 176.2592 324.922631 
L 175.9864 323.899509 
L 175.7136 324.101353 
L 175.44576 323.86648 
L 175.17296 322.843358 
L 174.63232 316.834624 
L 174.36448 313.244409 
L 174.09168 312.689969 
L 173.82384 310.463195 
L 173.28816 314.179637 
L 173.01536 313.721065 
L 172.74752 318.833436 
L 172.47968 317.213818 
L 171.14048 339.324463 
L 170.87264 340.325208 
L 170.34192 344.520995 
L 170.07408 343.42332 
L 169.80624 341.271108 
L 169.54336 341.643402 
L 169.27552 339.054464 
L 169.00768 339.511963 
L 168.7448 335.772631 
L 168.47696 336.304693 
L 168.21408 332.980785 
L 167.68336 330.125027 
L 167.42048 331.33882 
L 167.1576 330.177243 
L 166.88976 333.723787 
L 166.62688 332.061572 
L 166.364 338.12197 
L 165.0496 355.311495 
L 164.78672 360.519743 
L 164.26096 358.569405 
L 163.99808 362.680509 
L 163.74016 361.231341 
L 163.47728 361.731458 
L 163.2144 360.271628 
L 162.6936 352.473418 
L 162.43072 351.013588 
L 162.1728 352.259346 
L 161.652 347.933649 
L 161.1312 350.584933 
L 160.87328 350.744199 
L 160.35248 352.596593 
L 159.83664 357.612604 
L 159.3208 366.058521 
L 158.80496 370.371509 
L 158.54704 372.149861 
L 158.28912 376.900087 
L 158.0312 377.634555 
L 157.52032 381.191269 
L 157.2624 377.13239 
L 157.00448 376.833625 
L 156.74656 376.875721 
L 156.4936 376.012416 
L 156.23568 374.051958 
L 155.98272 373.550818 
L 155.7248 371.451885 
L 155.47184 371.366168 
L 154.96096 369.58629 
L 154.70304 369.841423 
L 154.45008 369.414846 
L 153.94416 373.663941 
L 153.68624 372.513026 
L 153.18032 379.137492 
L 152.92736 381.01172 
L 152.6744 384.888502 
L 152.42144 384.696266 
L 152.16848 390.043008 
L 151.91552 390.01055 
L 151.15664 395.761059 
L 150.90864 395.600789 
L 150.15472 392.169386 
L 149.90176 391.401949 
L 149.6488 391.060586 
L 149.4008 387.033683 
L 149.14784 387.48056 
L 148.39888 385.359349 
L 148.15088 385.188427 
L 147.89792 386.210505 
L 147.64992 385.954367 
L 147.40192 388.105555 
L 147.14896 391.630825 
L 146.90096 391.023176 
L 146.40496 398.883279 
L 146.15696 399.564507 
L 145.66096 403.898837 
L 145.41296 407.402813 
L 145.16496 407.839048 
L 144.66896 412.684669 
L 144.42592 410.010565 
L 144.17792 409.232485 
L 143.68192 405.993329 
L 143.43888 406.450877 
L 143.19088 403.798066 
L 142.94288 404.873414 
L 142.69984 401.901057 
L 142.45184 400.941895 
L 142.2088 404.871957 
L 141.96576 402.549364 
L 141.71776 403.603408 
L 141.47472 403.496407 
L 140.74064 408.671763 
L 140.4976 410.02407 
L 139.0344 423.698179 
L 138.79136 424.070512 
L 138.54832 422.046173 
L 138.30528 422.972404 
L 138.06224 423.206262 
L 137.82416 423.674473 
L 137.58112 421.106887 
L 137.33808 421.234227 
L 137.09504 420.456157 
L 136.85696 417.110994 
L 136.61392 418.101137 
L 136.37088 417.589364 
L 136.1328 418.792554 
L 135.88976 419.026412 
L 135.65168 417.982056 
L 135.40864 417.544846 
L 134.93248 419.514499 
L 133.97024 427.086075 
L 133.73216 428.385132 
L 133.256 432.282775 
L 133.01792 432.431428 
L 132.77984 436.13781 
L 132.54176 436.158641 
L 132.30368 436.946408 
L 132.0656 435.582494 
L 131.82752 433.526209 
L 131.58944 435.208733 
L 131.35136 432.811588 
L 131.11328 433.247842 
L 130.8752 432.192833 
L 130.63712 428.954189 
L 130.404 430.199996 
L 130.16592 428.697608 
L 129.92784 430.412088 
L 129.69472 429.69795 
L 129.45664 431.039614 
L 129.22352 431.71022 
L 128.98544 434.553799 
L 128.75232 434.382906 
L 128.04304 439.387882 
L 127.80992 438.535268 
L 127.5768 443.14707 
L 127.33872 442.614003 
L 127.1056 443.156786 
L 126.87248 444.55172 
L 126.63936 444.476694 
L 126.40624 445.797064 
L 126.16816 444.912485 
L 125.93504 444.560511 
L 125.4688 441.065768 
L 125.23568 441.299647 
L 125.00256 440.447034 
L 124.76944 440.063103 
L 124.54128 439.125285 
L 124.30816 440.445655 
L 124.07504 438.272209 
L 123.6088 441.115335 
L 123.38064 440.742066 
L 123.14752 443.692174 
L 122.22496 449.985604 
L 121.99184 449.793407 
L 121.76368 449.377531 
L 121.3024 452.614787 
L 120.84112 451.048045 
L 120.61296 451.196718 
L 119.92352 448.511076 
L 119.69536 449.724937 
L 119.4672 447.21064 
L 119.00592 449.531834 
L 118.77776 448.402282 
L 118.5496 449.797225 
L 118.32144 449.434609 
L 118.09328 451.074545 
L 117.87008 450.126085 
L 116.95744 455.130657 
L 116.72928 456.163436 
L 116.50608 458.112287 
L 116.27792 457.589892 
L 116.04976 457.695958 
L 115.82656 459.793935 
L 115.5984 460.592373 
L 115.3752 460.101944 
L 115.14704 458.823265 
L 114.92384 459.696276 
L 114.69568 459.685171 
L 114.47248 458.427806 
L 114.24432 458.768213 
L 114.02112 458.831682 
L 113.79792 458.3306 
L 113.56976 458.702963 
L 113.34656 457.264516 
L 113.12336 457.604933 
L 112.90016 457.3808 
L 112.672 456.815798 
L 112.0024 459.211142 
L 111.7792 459.551559 
L 111.1096 463.01209 
L 110.8864 463.245989 
L 110.6632 465.301358 
L 110.44 464.480721 
L 110.22176 465.769165 
L 109.99856 466.013715 
L 109.77536 465.66176 
L 109.55216 466.140651 
L 109.11072 467.503216 
L 108.88752 466.948875 
L 108.66928 465.670216 
L 108.44608 466.149107 
L 108.22784 465.115442 
L 108.00464 465.328036 
L 107.7864 464.358282 
L 107.5632 464.677395 
L 107.12176 464.431525 
L 106.90352 464.899775 
L 106.68528 464.409355 
L 106.24384 465.601489 
L 106.0256 464.759558 
L 105.80736 466.101261 
L 105.58416 466.132774 
L 105.36592 468.401191 
L 105.14768 467.537955 
L 104.7112 470.072236 
L 104.49296 470.444619 
L 104.27472 470.305711 
L 103.62 471.966105 
L 103.18352 471.794808 
L 102.97024 472.273719 
L 102.752 471.857863 
L 102.53376 472.528498 
L 102.31552 470.898327 
L 102.10224 470.567695 
L 101.884 471.248982 
L 101.66576 470.960948 
L 101.45248 470.971177 
L 101.23424 469.916207 
L 101.02096 470.320555 
L 100.80272 470.096433 
L 100.3712 471.672054 
L 100.15792 471.586416 
L 99.94464 471.170569 
L 99.51312 472.820754 
L 99.29984 472.607293 
L 99.0816 473.490966 
L 98.86832 472.862081 
L 98.65504 474.374225 
L 98.44176 474.789225 
L 98.22848 474.863365 
L 97.79696 475.533576 
L 97.58368 476.523778 
L 97.3704 476.107931 
L 97.15712 476.214026 
L 96.94384 476.905975 
L 96.73056 476.703166 
L 96.30896 477.043189 
L 96.09568 476.307786 
L 95.8824 476.765394 
L 95.66912 476.583888 
L 95.45584 475.507625 
L 95.24752 475.315477 
L 95.03424 476.518716 
L 94.82096 475.730054 
L 94.61264 476.592443 
L 94.39936 476.602671 
L 94.18608 476.208128 
L 93.76448 477.027486 
L 93.55616 475.844714 
L 93.34288 477.335553 
L 93.13456 476.387123 
L 92.92624 477.398638 
L 92.71296 477.185177 
L 92.08304 479.612555 
L 91.87472 479.218022 
L 91.6664 479.419994 
L 91.2448 480.494997 
L 91.03648 479.993945 
L 90.82816 480.451562 
L 90.61984 480.099636 
L 90.2032 480.876397 
L 89.99488 479.949269 
L 89.78656 480.300368 
L 89.36992 479.734991 
L 89.1616 480.416298 
L 88.74496 479.978744 
L 88.5416 480.361808 
L 88.33328 480.127053 
L 88.12496 480.07338 
L 87.91664 480.275352 
L 87.71328 479.625183 
L 87.50496 480.274535 
L 87.29664 480.401943 
L 87.09328 481.370861 
L 86.88496 481.242625 
L 86.47328 481.518756 
L 86.0616 482.508564 
L 85.85824 482.497508 
L 85.44656 482.794944 
L 85.2432 483.486912 
L 85.03488 482.964556 
L 84.83152 483.454139 
L 84.62816 483.506995 
L 84.4248 483.687673 
L 84.21648 484.113335 
L 84.01312 483.420559 
L 83.80976 483.601237 
L 83.6064 484.03756 
L 83.40304 483.451303 
L 82.99632 483.162895 
L 82.79296 483.375529 
L 82.5896 483.108828 
L 82.38624 483.19364 
L 82.18288 483.001502 
L 81.77616 483.213732 
L 81.5728 482.787253 
L 81.3744 483.681617 
L 81.17104 483.255138 
L 80.96768 483.254735 
L 80.56592 484.052828 
L 80.36256 483.945906 
L 80.1592 483.988109 
L 79.9608 484.179449 
L 79.35568 485.190177 
L 79.15232 485.06195 
L 78.95392 485.391765 
L 78.75056 485.44462 
L 78.1504 485.997327 
L 77.7536 485.400034 
L 77.55024 485.665927 
L 77.35184 485.676185 
L 77.15344 485.38819 
L 76.95504 484.791291 
L 76.75168 485.003925 
L 76.35488 485.727465 
L 75.95808 485.321906 
L 75.75968 485.353468 
L 75.36288 486.002445 
L 75.16448 485.842273 
L 74.96608 486.161435 
L 74.76768 486.107782 
L 74.56928 486.213907 
L 74.37088 486.746107 
L 74.17744 486.202477 
L 73.97904 486.393817 
L 73.58224 487.309091 
L 73.3888 486.87198 
L 73.1904 486.701156 
L 72.992 487.180097 
L 72.79856 486.721682 
L 72.60016 486.976933 
L 72.40176 486.774153 
L 72.20832 486.976155 
L 72.00992 486.805331 
L 72.00992 486.805331 
" clip-path="url(#p7cde271115)" style="fill: none; stroke-dasharray: 3.7,1.6; stroke-dashoffset: 0; stroke: #1fa187"/>
   </g>
   <g id="line2d_15">
    <path d="M 72.00992 477.121031 
L 76.481723 475.478589 
L 80.953526 473.574379 
L 85.425328 471.377051 
L 89.002771 469.385929 
L 92.580213 467.168353 
L 96.157655 464.706135 
L 99.735097 461.98071 
L 103.31254 458.973297 
L 106.889982 455.665083 
L 110.467424 452.037425 
L 114.044866 448.072082 
L 117.622309 443.751466 
L 121.199751 439.058917 
L 124.777193 433.978987 
L 128.354635 428.497758 
L 131.932078 422.603152 
L 135.50952 416.285266 
L 139.086962 409.536704 
L 142.664404 402.352905 
L 146.241847 394.732475 
L 149.819289 386.677497 
L 154.291092 376.006989 
L 158.762894 364.687321 
L 163.234697 352.749436 
L 167.7065 340.235396 
L 173.072663 324.534249 
L 179.333187 305.420204 
L 186.488072 282.802701 
L 208.847086 211.457412 
L 214.213249 195.377279 
L 218.685052 182.636471 
L 223.156855 170.637816 
L 226.734297 161.660794 
L 230.311739 153.305934 
L 233.889182 145.633849 
L 236.572263 140.362095 
L 239.255345 135.528551 
L 241.938427 131.153781 
L 244.621508 127.256565 
L 247.30459 123.853767 
L 249.093311 121.867323 
L 250.882032 120.111123 
L 252.670753 118.5886 
L 254.459474 117.302736 
L 256.248196 116.25606 
L 258.036917 115.450631 
L 259.825638 114.888039 
L 261.614359 114.569395 
L 263.40308 114.495329 
L 265.191801 114.665986 
L 266.980522 115.08103 
L 268.769243 115.739641 
L 270.557965 116.640518 
L 272.346686 117.781885 
L 274.135407 119.161497 
L 275.924128 120.776645 
L 277.712849 122.624168 
L 279.50157 124.70046 
L 282.184652 128.234894 
L 284.867734 132.259502 
L 287.550815 136.756901 
L 290.233897 141.707829 
L 292.916979 147.091279 
L 295.60006 152.884649 
L 299.177503 161.205056 
L 302.754945 170.150904 
L 306.332387 179.658481 
L 310.80419 192.231782 
L 315.275993 205.446071 
L 320.642156 221.959115 
L 327.79704 244.708567 
L 346.578612 304.834215 
L 352.839136 323.971077 
L 358.2053 339.696665 
L 363.571463 354.673937 
L 368.043266 366.516712 
L 372.515069 377.735657 
L 376.986871 388.301538 
L 381.458674 398.195583 
L 385.036116 405.620718 
L 388.613559 412.609435 
L 392.191001 419.164583 
L 395.768443 425.292033 
L 399.345885 431.000344 
L 402.923328 436.300431 
L 406.50077 441.205238 
L 410.078212 445.729405 
L 413.655654 449.88896 
L 417.233097 453.701012 
L 420.810539 457.183475 
L 424.387981 460.354799 
L 427.965423 463.233729 
L 431.542866 465.83909 
L 435.120308 468.189586 
L 438.69775 470.303631 
L 442.275192 472.199202 
L 446.746995 474.287904 
L 451.218798 476.094924 
L 455.690601 477.650924 
L 460.162404 478.98453 
L 465.528567 480.328438 
L 470.89473 481.431743 
L 477.155254 482.464091 
L 483.415778 483.270685 
L 490.570663 483.971911 
L 498.619908 484.543543 
L 508.457874 485.014626 
L 518.29584 485.313036 
L 518.29584 485.313036 
" clip-path="url(#p7cde271115)" style="fill: none; stroke-dasharray: 3.7,1.6; stroke-dashoffset: 0; stroke: #46327e"/>
   </g>
   <g id="patch_3">
    <path d="M 72 506.4 
L 72 86.4 
" style="fill: none; stroke: #000000; stroke-width: 0.8; stroke-linejoin: miter; stroke-linecap: square"/>
   </g>
   <g id="patch_4">
    <path d="M 518.4 506.4 
L 518.4 86.4 
" style="fill: none; stroke: #000000; stroke-width: 0.8; stroke-linejoin: miter; stroke-linecap: square"/>
   </g>
   <g id="patch_5">
    <path d="M 72 506.4 
L 518.4 506.4 
" style="fill: none; stroke: #000000; stroke-width: 0.8; stroke-linejoin: miter; stroke-linecap: square"/>
   </g>
   <g id="patch_6">
    <path d="M 72 86.4 
L 518.4 86.4 
" style="fill: none; stroke: #000000; stroke-width: 0.8; stroke-linejoin: miter; stroke-linecap: square"/>
   </g>
   <g id="legend_1">
    <g id="patch_7">
     <path d="M 360.178125 123.75625 
L 511.4 123.75625 
Q 513.4 123.75625 513.4 121.75625 
L 513.4 93.4 
Q 513.4 91.4 511.4 91.4 
L 360.178125 91.4 
Q 358.178125 91.4 358.178125 93.4 
L 358.178125 121.75625 
Q 358.178125 123.75625 360.178125 123.75625 
z
" style="fill: #ffffff; opacity: 0.8; stroke: #cccccc; stroke-linejoin: miter"/>
    </g>
    <g id="line2d_16">
     <path d="M 362.178125 99.498437 
L 372.178125 99.498437 
L 382.178125 99.498437 
" style="fill: none; stroke-dasharray: 3.7,1.6; stroke-dashoffset: 0; stroke: #1fa187"/>
    </g>
    <g id="text_10">
     <!-- Baseline-corrected data -->
     <g transform="translate(390.178125 102.998437) scale(0.1 -0.1)">
      <defs>
       <path id="DejaVuSans-42" d="M 1259 2228 
L 1259 519 
L 2272 519 
Q 2781 519 3026 730 
Q 3272 941 3272 1375 
Q 3272 1813 3026 2020 
Q 2781 2228 2272 2228 
L 1259 2228 
z
M 1259 4147 
L 1259 2741 
L 2194 2741 
Q 2656 2741 2882 2914 
Q 3109 3088 3109 3444 
Q 3109 3797 2882 3972 
Q 2656 4147 2194 4147 
L 1259 4147 
z
M 628 4666 
L 2241 4666 
Q 2963 4666 3353 4366 
Q 3744 4066 3744 3513 
Q 3744 3084 3544 2831 
Q 3344 2578 2956 2516 
Q 3422 2416 3680 2098 
Q 3938 1781 3938 1306 
Q 3938 681 3513 340 
Q 3088 0 2303 0 
L 628 0 
L 628 4666 
z
" transform="scale(0.015625)"/>
       <path id="DejaVuSans-6c" d="M 603 4863 
L 1178 4863 
L 1178 0 
L 603 0 
L 603 4863 
z
" transform="scale(0.015625)"/>
       <path id="DejaVuSans-2d" d="M 313 2009 
L 1997 2009 
L 1997 1497 
L 313 1497 
L 313 2009 
z
" transform="scale(0.015625)"/>
       <path id="DejaVuSans-63" d="M 3122 3366 
L 3122 2828 
Q 2878 2963 2633 3030 
Q 2388 3097 2138 3097 
Q 1578 3097 1268 2742 
Q 959 2388 959 1747 
Q 959 1106 1268 751 
Q 1578 397 2138 397 
Q 2388 397 2633 464 
Q 2878 531 3122 666 
L 3122 134 
Q 2881 22 2623 -34 
Q 2366 -91 2075 -91 
Q 1284 -91 818 406 
Q 353 903 353 1747 
Q 353 2603 823 3093 
Q 1294 3584 2113 3584 
Q 2378 3584 2631 3529 
Q 2884 3475 3122 3366 
z
" transform="scale(0.015625)"/>
       <path id="DejaVuSans-6f" d="M 1959 3097 
Q 1497 3097 1228 2736 
Q 959 2375 959 1747 
Q 959 1119 1226 758 
Q 1494 397 1959 397 
Q 2419 397 2687 759 
Q 2956 1122 2956 1747 
Q 2956 2369 2687 2733 
Q 2419 3097 1959 3097 
z
M 1959 3584 
Q 2709 3584 3137 3096 
Q 3566 2609 3566 1747 
Q 3566 888 3137 398 
Q 2709 -91 1959 -91 
Q 1206 -91 779 398 
Q 353 888 353 1747 
Q 353 2609 779 3096 
Q 1206 3584 1959 3584 
z
" transform="scale(0.015625)"/>
       <path id="DejaVuSans-72" d="M 2631 2963 
Q 2534 3019 2420 3045 
Q 2306 3072 2169 3072 
Q 1681 3072 1420 2755 
Q 1159 2438 1159 1844 
L 1159 0 
L 581 0 
L 581 3500 
L 1159 3500 
L 1159 2956 
Q 1341 3275 1631 3429 
Q 1922 3584 2338 3584 
Q 2397 3584 2469 3576 
Q 2541 3569 2628 3553 
L 2631 2963 
z
" transform="scale(0.015625)"/>
       <path id="DejaVuSans-64" d="M 2906 2969 
L 2906 4863 
L 3481 4863 
L 3481 0 
L 2906 0 
L 2906 525 
Q 2725 213 2448 61 
Q 2172 -91 1784 -91 
Q 1150 -91 751 415 
Q 353 922 353 1747 
Q 353 2572 751 3078 
Q 1150 3584 1784 3584 
Q 2172 3584 2448 3432 
Q 2725 3281 2906 2969 
z
M 947 1747 
Q 947 1113 1208 752 
Q 1469 391 1925 391 
Q 2381 391 2643 752 
Q 2906 1113 2906 1747 
Q 2906 2381 2643 2742 
Q 2381 3103 1925 3103 
Q 1469 3103 1208 2742 
Q 947 2381 947 1747 
z
" transform="scale(0.015625)"/>
      </defs>
      <use xlink:href="#DejaVuSans-42"/>
      <use xlink:href="#DejaVuSans-61" transform="translate(68.603516 0)"/>
      <use xlink:href="#DejaVuSans-73" transform="translate(129.882812 0)"/>
      <use xlink:href="#DejaVuSans-65" transform="translate(181.982422 0)"/>
      <use xlink:href="#DejaVuSans-6c" transform="translate(243.505859 0)"/>
      <use xlink:href="#DejaVuSans-69" transform="translate(271.289062 0)"/>
      <use xlink:href="#DejaVuSans-6e" transform="translate(299.072266 0)"/>
      <use xlink:href="#DejaVuSans-65" transform="translate(362.451172 0)"/>
      <use xlink:href="#DejaVuSans-2d" transform="translate(423.974609 0)"/>
      <use xlink:href="#DejaVuSans-63" transform="translate(460.058594 0)"/>
      <use xlink:href="#DejaVuSans-6f" transform="translate(515.039062 0)"/>
      <use xlink:href="#DejaVuSans-72" transform="translate(576.220703 0)"/>
      <use xlink:href="#DejaVuSans-72" transform="translate(615.583984 0)"/>
      <use xlink:href="#DejaVuSans-65" transform="translate(654.447266 0)"/>
      <use xlink:href="#DejaVuSans-63" transform="translate(715.970703 0)"/>
      <use xlink:href="#DejaVuSans-74" transform="translate(770.951172 0)"/>
      <use xlink:href="#DejaVuSans-65" transform="translate(810.160156 0)"/>
      <use xlink:href="#DejaVuSans-64" transform="translate(871.683594 0)"/>
      <use xlink:href="#DejaVuSans-20" transform="translate(935.160156 0)"/>
      <use xlink:href="#DejaVuSans-64" transform="translate(966.947266 0)"/>
      <use xlink:href="#DejaVuSans-61" transform="translate(1030.423828 0)"/>
      <use xlink:href="#DejaVuSans-74" transform="translate(1091.703125 0)"/>
      <use xlink:href="#DejaVuSans-61" transform="translate(1130.912109 0)"/>
     </g>
    </g>
    <g id="line2d_17">
     <path d="M 362.178125 114.176562 
L 372.178125 114.176562 
L 382.178125 114.176562 
" style="fill: none; stroke-dasharray: 3.7,1.6; stroke-dashoffset: 0; stroke: #46327e"/>
    </g>
    <g id="text_11">
     <!-- Gaussian fit -->
     <g transform="translate(390.178125 117.676562) scale(0.1 -0.1)">
      <defs>
       <path id="DejaVuSans-47" d="M 3809 666 
L 3809 1919 
L 2778 1919 
L 2778 2438 
L 4434 2438 
L 4434 434 
Q 4069 175 3628 42 
Q 3188 -91 2688 -91 
Q 1594 -91 976 548 
Q 359 1188 359 2328 
Q 359 3472 976 4111 
Q 1594 4750 2688 4750 
Q 3144 4750 3555 4637 
Q 3966 4525 4313 4306 
L 4313 3634 
Q 3963 3931 3569 4081 
Q 3175 4231 2741 4231 
Q 1884 4231 1454 3753 
Q 1025 3275 1025 2328 
Q 1025 1384 1454 906 
Q 1884 428 2741 428 
Q 3075 428 3337 486 
Q 3600 544 3809 666 
z
" transform="scale(0.015625)"/>
       <path id="DejaVuSans-66" d="M 2375 4863 
L 2375 4384 
L 1825 4384 
Q 1516 4384 1395 4259 
Q 1275 4134 1275 3809 
L 1275 3500 
L 2222 3500 
L 2222 3053 
L 1275 3053 
L 1275 0 
L 697 0 
L 697 3053 
L 147 3053 
L 147 3500 
L 697 3500 
L 697 3744 
Q 697 4328 969 4595 
Q 1241 4863 1831 4863 
L 2375 4863 
z
" transform="scale(0.015625)"/>
      </defs>
      <use xlink:href="#DejaVuSans-47"/>
      <use xlink:href="#DejaVuSans-61" transform="translate(77.490234 0)"/>
      <use xlink:href="#DejaVuSans-75" transform="translate(138.769531 0)"/>
      <use xlink:href="#DejaVuSans-73" transform="translate(202.148438 0)"/>
      <use xlink:href="#DejaVuSans-73" transform="translate(254.248047 0)"/>
      <use xlink:href="#DejaVuSans-69" transform="translate(306.347656 0)"/>
      <use xlink:href="#DejaVuSans-61" transform="translate(334.130859 0)"/>
      <use xlink:href="#DejaVuSans-6e" transform="translate(395.410156 0)"/>
      <use xlink:href="#DejaVuSans-20" transform="translate(458.789062 0)"/>
      <use xlink:href="#DejaVuSans-66" transform="translate(490.576172 0)"/>
      <use xlink:href="#DejaVuSans-69" transform="translate(525.78125 0)"/>
      <use xlink:href="#DejaVuSans-74" transform="translate(553.564453 0)"/>
     </g>
    </g>
   </g>
  </g>
  <g id="axes_2">
   <g id="patch_8">
    <path d="M 72 640.8 
L 518.4 640.8 
L 518.4 556.8 
L 72 556.8 
z
" style="fill: #ffffff"/>
   </g>
   <g id="matplotlib.axis_3">
    <g id="xtick_6">
     <g id="line2d_18">
      <g>
       <use xlink:href="#m235eb66983" x="72" y="640.8" style="stroke: #000000; stroke-width: 0.8"/>
      </g>
     </g>
     <g id="text_12">
      <!-- 1.2 -->
      <g transform="translate(64.048438 655.398437) scale(0.1 -0.1)">
       <use xlink:href="#DejaVuSans-31"/>
       <use xlink:href="#DejaVuSans-2e" transform="translate(63.623047 0)"/>
       <use xlink:href="#DejaVuSans-32" transform="translate(95.410156 0)"/>
      </g>
     </g>
    </g>
    <g id="xtick_7">
     <g id="line2d_19">
      <g>
       <use xlink:href="#m235eb66983" x="171.2" y="640.8" style="stroke: #000000; stroke-width: 0.8"/>
      </g>
     </g>
     <g id="text_13">
      <!-- 1.4 -->
      <g transform="translate(163.248437 655.398437) scale(0.1 -0.1)">
       <defs>
        <path id="DejaVuSans-34" d="M 2419 4116 
L 825 1625 
L 2419 1625 
L 2419 4116 
z
M 2253 4666 
L 3047 4666 
L 3047 1625 
L 3713 1625 
L 3713 1100 
L 3047 1100 
L 3047 0 
L 2419 0 
L 2419 1100 
L 313 1100 
L 313 1709 
L 2253 4666 
z
" transform="scale(0.015625)"/>
       </defs>
       <use xlink:href="#DejaVuSans-31"/>
       <use xlink:href="#DejaVuSans-2e" transform="translate(63.623047 0)"/>
       <use xlink:href="#DejaVuSans-34" transform="translate(95.410156 0)"/>
      </g>
     </g>
    </g>
    <g id="xtick_8">
     <g id="line2d_20">
      <g>
       <use xlink:href="#m235eb66983" x="270.4" y="640.8" style="stroke: #000000; stroke-width: 0.8"/>
      </g>
     </g>
     <g id="text_14">
      <!-- 1.6 -->
      <g transform="translate(262.448438 655.398437) scale(0.1 -0.1)">
       <defs>
        <path id="DejaVuSans-36" d="M 2113 2584 
Q 1688 2584 1439 2293 
Q 1191 2003 1191 1497 
Q 1191 994 1439 701 
Q 1688 409 2113 409 
Q 2538 409 2786 701 
Q 3034 994 3034 1497 
Q 3034 2003 2786 2293 
Q 2538 2584 2113 2584 
z
M 3366 4563 
L 3366 3988 
Q 3128 4100 2886 4159 
Q 2644 4219 2406 4219 
Q 1781 4219 1451 3797 
Q 1122 3375 1075 2522 
Q 1259 2794 1537 2939 
Q 1816 3084 2150 3084 
Q 2853 3084 3261 2657 
Q 3669 2231 3669 1497 
Q 3669 778 3244 343 
Q 2819 -91 2113 -91 
Q 1303 -91 875 529 
Q 447 1150 447 2328 
Q 447 3434 972 4092 
Q 1497 4750 2381 4750 
Q 2619 4750 2861 4703 
Q 3103 4656 3366 4563 
z
" transform="scale(0.015625)"/>
       </defs>
       <use xlink:href="#DejaVuSans-31"/>
       <use xlink:href="#DejaVuSans-2e" transform="translate(63.623047 0)"/>
       <use xlink:href="#DejaVuSans-36" transform="translate(95.410156 0)"/>
      </g>
     </g>
    </g>
    <g id="xtick_9">
     <g id="line2d_21">
      <g>
       <use xlink:href="#m235eb66983" x="369.6" y="640.8" style="stroke: #000000; stroke-width: 0.8"/>
      </g>
     </g>
     <g id="text_15">
      <!-- 1.8 -->
      <g transform="translate(361.648438 655.398437) scale(0.1 -0.1)">
       <defs>
        <path id="DejaVuSans-38" d="M 2034 2216 
Q 1584 2216 1326 1975 
Q 1069 1734 1069 1313 
Q 1069 891 1326 650 
Q 1584 409 2034 409 
Q 2484 409 2743 651 
Q 3003 894 3003 1313 
Q 3003 1734 2745 1975 
Q 2488 2216 2034 2216 
z
M 1403 2484 
Q 997 2584 770 2862 
Q 544 3141 544 3541 
Q 544 4100 942 4425 
Q 1341 4750 2034 4750 
Q 2731 4750 3128 4425 
Q 3525 4100 3525 3541 
Q 3525 3141 3298 2862 
Q 3072 2584 2669 2484 
Q 3125 2378 3379 2068 
Q 3634 1759 3634 1313 
Q 3634 634 3220 271 
Q 2806 -91 2034 -91 
Q 1263 -91 848 271 
Q 434 634 434 1313 
Q 434 1759 690 2068 
Q 947 2378 1403 2484 
z
M 1172 3481 
Q 1172 3119 1398 2916 
Q 1625 2713 2034 2713 
Q 2441 2713 2670 2916 
Q 2900 3119 2900 3481 
Q 2900 3844 2670 4047 
Q 2441 4250 2034 4250 
Q 1625 4250 1398 4047 
Q 1172 3844 1172 3481 
z
" transform="scale(0.015625)"/>
       </defs>
       <use xlink:href="#DejaVuSans-31"/>
       <use xlink:href="#DejaVuSans-2e" transform="translate(63.623047 0)"/>
       <use xlink:href="#DejaVuSans-38" transform="translate(95.410156 0)"/>
      </g>
     </g>
    </g>
    <g id="xtick_10">
     <g id="line2d_22">
      <g>
       <use xlink:href="#m235eb66983" x="468.8" y="640.8" style="stroke: #000000; stroke-width: 0.8"/>
      </g>
     </g>
     <g id="text_16">
      <!-- 2.0 -->
      <g transform="translate(460.848437 655.398437) scale(0.1 -0.1)">
       <use xlink:href="#DejaVuSans-32"/>
       <use xlink:href="#DejaVuSans-2e" transform="translate(63.623047 0)"/>
       <use xlink:href="#DejaVuSans-30" transform="translate(95.410156 0)"/>
      </g>
     </g>
    </g>
   </g>
   <g id="matplotlib.axis_4">
    <g id="ytick_9">
     <g id="line2d_23">
      <g>
       <use xlink:href="#mffe400186f" x="72" y="622.8" style="stroke: #000000; stroke-width: 0.8"/>
      </g>
     </g>
     <g id="text_17">
      <!-- −20 -->
      <g transform="translate(43.895313 626.599219) scale(0.1 -0.1)">
       <defs>
        <path id="DejaVuSans-2212" d="M 678 2272 
L 4684 2272 
L 4684 1741 
L 678 1741 
L 678 2272 
z
" transform="scale(0.015625)"/>
       </defs>
       <use xlink:href="#DejaVuSans-2212"/>
       <use xlink:href="#DejaVuSans-32" transform="translate(83.789062 0)"/>
       <use xlink:href="#DejaVuSans-30" transform="translate(147.412109 0)"/>
      </g>
     </g>
    </g>
    <g id="ytick_10">
     <g id="line2d_24">
      <g>
       <use xlink:href="#mffe400186f" x="72" y="598.8" style="stroke: #000000; stroke-width: 0.8"/>
      </g>
     </g>
     <g id="text_18">
      <!-- 0 -->
      <g transform="translate(58.6375 602.599219) scale(0.1 -0.1)">
       <use xlink:href="#DejaVuSans-30"/>
      </g>
     </g>
    </g>
    <g id="ytick_11">
     <g id="line2d_25">
      <g>
       <use xlink:href="#mffe400186f" x="72" y="574.8" style="stroke: #000000; stroke-width: 0.8"/>
      </g>
     </g>
     <g id="text_19">
      <!-- 20 -->
      <g transform="translate(52.275 578.599219) scale(0.1 -0.1)">
       <use xlink:href="#DejaVuSans-32"/>
       <use xlink:href="#DejaVuSans-30" transform="translate(63.623047 0)"/>
      </g>
     </g>
    </g>
    <g id="text_20">
     <!-- Residuals -->
     <g transform="translate(37.815625 622.520312) rotate(-90) scale(0.1 -0.1)">
      <defs>
       <path id="DejaVuSans-52" d="M 2841 2188 
Q 3044 2119 3236 1894 
Q 3428 1669 3622 1275 
L 4263 0 
L 3584 0 
L 2988 1197 
Q 2756 1666 2539 1819 
Q 2322 1972 1947 1972 
L 1259 1972 
L 1259 0 
L 628 0 
L 628 4666 
L 2053 4666 
Q 2853 4666 3247 4331 
Q 3641 3997 3641 3322 
Q 3641 2881 3436 2590 
Q 3231 2300 2841 2188 
z
M 1259 4147 
L 1259 2491 
L 2053 2491 
Q 2509 2491 2742 2702 
Q 2975 2913 2975 3322 
Q 2975 3731 2742 3939 
Q 2509 4147 2053 4147 
L 1259 4147 
z
" transform="scale(0.015625)"/>
      </defs>
      <use xlink:href="#DejaVuSans-52"/>
      <use xlink:href="#DejaVuSans-65" transform="translate(64.982422 0)"/>
      <use xlink:href="#DejaVuSans-73" transform="translate(126.505859 0)"/>
      <use xlink:href="#DejaVuSans-69" transform="translate(178.605469 0)"/>
      <use xlink:href="#DejaVuSans-64" transform="translate(206.388672 0)"/>
      <use xlink:href="#DejaVuSans-75" transform="translate(269.865234 0)"/>
      <use xlink:href="#DejaVuSans-61" transform="translate(333.244141 0)"/>
      <use xlink:href="#DejaVuSans-6c" transform="translate(394.523438 0)"/>
      <use xlink:href="#DejaVuSans-73" transform="translate(422.306641 0)"/>
     </g>
    </g>
   </g>
   <g id="line2d_26">
    <path d="M 518.29584 621.155056 
L 517.68576 624.838929 
L 517.07568 624.659487 
L 516.4656 619.392262 
L 515.85552 621.383529 
L 515.24544 617.528352 
L 514.63536 619.99603 
L 514.03024 617.113478 
L 513.42016 611.076881 
L 512.81504 618.338297 
L 512.20992 616.096045 
L 511.6048 617.490787 
L 510.99968 611.676527 
L 510.39952 614.758152 
L 509.7944 606.507284 
L 509.19424 612.062627 
L 508.58912 605.116072 
L 507.98896 607.853708 
L 507.3888 613.440032 
L 506.7936 611.459667 
L 506.19344 606.842912 
L 505.59328 605.298098 
L 504.99808 599.083976 
L 504.40288 603.396093 
L 503.80768 605.171685 
L 503.21248 607.405136 
L 502.61728 603.895272 
L 502.02208 602.809542 
L 501.43184 605.12263 
L 500.83664 605.368124 
L 500.2464 604.796379 
L 499.65616 605.628503 
L 499.06592 606.785133 
L 498.47568 599.651689 
L 497.88544 606.05219 
L 497.30016 600.771724 
L 496.70992 603.571207 
L 495.53936 596.263954 
L 494.95408 597.085998 
L 493.78352 603.283249 
L 492.61792 596.560192 
L 492.0376 599.668072 
L 491.45728 593.351376 
L 490.87696 594.390027 
L 490.29664 598.077128 
L 489.71632 595.782071 
L 489.136 595.169429 
L 488.56064 598.816715 
L 487.98528 597.762187 
L 487.40496 594.000209 
L 486.8296 591.022872 
L 486.25424 594.829829 
L 485.67888 596.896973 
L 484.53312 594.544921 
L 483.96272 593.548055 
L 482.81696 592.366102 
L 482.24656 590.094587 
L 481.67616 592.945008 
L 481.11072 590.519068 
L 479.96992 586.98458 
L 479.40448 592.427272 
L 478.83904 589.608795 
L 478.2736 589.66803 
L 477.70816 593.741006 
L 477.14272 587.570523 
L 476.57728 587.35375 
L 476.01184 589.947515 
L 475.45136 585.852653 
L 474.89088 587.254271 
L 474.32544 589.345766 
L 473.20448 587.08951 
L 472.64896 589.0737 
L 472.08848 587.794161 
L 471.528 587.10127 
L 470.97248 589.888654 
L 470.41696 587.735188 
L 469.85648 587.22333 
L 469.30096 585.522954 
L 468.74544 584.785273 
L 468.19488 582.442487 
L 467.63936 586.726519 
L 467.08384 581.979949 
L 466.53328 583.370955 
L 465.98272 581.687451 
L 465.43216 586.152863 
L 464.8816 582.407328 
L 463.78048 586.531871 
L 463.22992 587.254016 
L 462.68432 583.059007 
L 462.13376 581.652979 
L 461.58816 581.460259 
L 461.04256 584.772649 
L 460.49696 582.423175 
L 459.95136 583.975856 
L 459.40576 584.712493 
L 458.86016 584.01113 
L 458.31952 584.431407 
L 457.77392 585.181679 
L 457.23328 581.887065 
L 456.69264 583.112931 
L 455.07072 578.60333 
L 454.53008 584.543996 
L 453.9944 582.839847 
L 453.45376 578.947445 
L 452.91808 581.441416 
L 452.3824 578.764981 
L 451.31104 581.082402 
L 450.77536 581.694351 
L 450.23968 581.331396 
L 449.70896 578.970279 
L 449.17328 575.800159 
L 448.64256 581.644711 
L 448.11184 579.394903 
L 447.57616 582.339304 
L 447.04544 580.524574 
L 446.51472 577.523208 
L 445.98896 576.028314 
L 445.45824 582.223029 
L 444.93248 576.995895 
L 444.40176 582.63494 
L 443.876 580.791118 
L 443.35024 580.198314 
L 442.82448 580.480946 
L 442.29872 573.876452 
L 441.77296 580.874013 
L 441.2472 580.757021 
L 440.72144 579.088455 
L 440.20064 581.567646 
L 439.67984 582.443541 
L 439.15408 579.611191 
L 438.63328 574.351773 
L 438.11248 579.552797 
L 437.59168 581.522477 
L 437.07584 579.453164 
L 436.55504 579.840823 
L 436.03424 577.683877 
L 435.00256 577.461723 
L 434.48176 580.015076 
L 433.96592 577.866331 
L 432.93424 579.441818 
L 432.42336 579.219785 
L 431.90752 576.457852 
L 431.39664 575.353963 
L 430.8808 581.865569 
L 429.85904 576.324839 
L 429.34816 580.046646 
L 428.83728 579.957791 
L 428.3264 579.989923 
L 427.81552 582.117997 
L 427.30464 578.057332 
L 426.79872 577.19032 
L 426.28784 578.595514 
L 425.78192 577.943259 
L 425.276 578.662797 
L 424.77008 576.689377 
L 424.26416 581.456963 
L 423.75824 580.348167 
L 423.25232 576.764378 
L 422.75136 579.316383 
L 422.24544 577.701656 
L 421.74448 577.597921 
L 421.24352 578.583078 
L 420.7376 577.518459 
L 420.23664 577.50646 
L 419.73568 575.095426 
L 419.23472 579.060504 
L 418.73872 578.909499 
L 418.23776 580.053212 
L 417.74176 575.977185 
L 417.2408 575.928763 
L 416.7448 578.899681 
L 416.2488 577.961837 
L 415.74784 581.657766 
L 415.25184 580.655561 
L 414.7608 578.576384 
L 414.2648 579.268195 
L 413.7688 583.049288 
L 413.27776 576.886583 
L 412.78176 577.942184 
L 412.29072 577.707457 
L 411.79968 579.800316 
L 411.30368 576.622591 
L 410.81264 581.212681 
L 410.3216 582.368618 
L 409.83552 582.279667 
L 409.34448 582.4107 
L 408.36736 579.7748 
L 407.39024 581.157675 
L 406.90416 579.159373 
L 406.41808 579.407537 
L 405.932 578.56093 
L 405.44592 582.616455 
L 404.95984 578.99101 
L 403.99264 581.3776 
L 403.51152 581.892092 
L 403.02544 580.76675 
L 402.54432 583.299314 
L 402.0632 580.799903 
L 401.58208 583.339036 
L 401.10096 579.524959 
L 400.61984 579.216744 
L 400.13872 579.22938 
L 399.66256 581.81255 
L 399.18144 581.463977 
L 398.70528 578.829813 
L 398.22416 582.681131 
L 397.748 578.754983 
L 397.27184 579.932262 
L 396.79568 578.747399 
L 396.31952 579.868168 
L 395.84336 580.284344 
L 395.3672 583.019065 
L 394.896 580.428619 
L 394.41984 579.866183 
L 393.94864 582.089755 
L 393.00128 579.273393 
L 392.53008 583.015996 
L 392.05888 576.830103 
L 391.58768 581.044717 
L 391.11648 581.851464 
L 390.65024 577.723319 
L 390.17904 582.3746 
L 389.7128 581.296218 
L 389.2416 580.57627 
L 388.77536 580.717752 
L 388.30912 583.060098 
L 387.84288 580.639049 
L 387.37664 580.294925 
L 386.9104 582.245798 
L 386.44416 580.888212 
L 385.97792 582.958521 
L 385.51168 581.99431 
L 385.0504 581.60445 
L 384.58416 579.481955 
L 383.6616 581.89243 
L 383.20032 582.901892 
L 382.73904 584.487336 
L 382.27776 581.679325 
L 381.81648 583.458345 
L 381.3552 581.96166 
L 380.89392 582.317868 
L 380.4376 584.821817 
L 379.97632 581.926317 
L 379.52 582.664244 
L 379.06368 580.779859 
L 378.60736 584.308193 
L 378.14608 584.501519 
L 377.68976 582.562147 
L 377.2384 584.651323 
L 376.78208 584.625616 
L 376.32576 585.915546 
L 375.86944 585.949388 
L 375.41808 583.747346 
L 374.96176 585.621764 
L 374.5104 584.520615 
L 374.05904 584.105566 
L 373.60768 586.742706 
L 373.15632 586.767946 
L 372.70496 584.280861 
L 372.2536 586.329348 
L 371.80224 586.768771 
L 371.35088 584.74128 
L 370.90448 585.126075 
L 370.45312 586.262045 
L 370.00672 586.985723 
L 369.56032 585.322439 
L 369.11392 586.665551 
L 368.66256 588.77019 
L 368.21616 586.91559 
L 367.76976 586.668622 
L 367.32832 587.935667 
L 366.88192 586.691113 
L 366.43552 586.412364 
L 365.99408 586.760744 
L 365.10624 588.865363 
L 364.65984 588.146881 
L 364.2184 586.675502 
L 363.77696 587.597462 
L 363.33552 587.858582 
L 362.89408 587.317433 
L 362.45264 586.530196 
L 362.01616 589.65885 
L 361.57472 591.125879 
L 361.13328 589.124669 
L 360.6968 591.092432 
L 360.26032 587.641212 
L 359.81888 591.13244 
L 359.3824 589.58736 
L 358.94592 590.496652 
L 358.50944 591.146053 
L 358.07296 590.883856 
L 357.63648 592.248928 
L 357.2 592.237172 
L 356.76848 591.630031 
L 356.332 590.150737 
L 355.464 594.932301 
L 355.03248 596.209762 
L 354.60096 591.19549 
L 354.16944 593.816717 
L 353.30144 593.16394 
L 352.87488 594.282655 
L 352.44336 589.889915 
L 352.01184 593.198238 
L 351.58528 591.994695 
L 351.15376 596.416883 
L 350.7272 592.160875 
L 350.29568 595.61314 
L 349.86912 593.863476 
L 349.44256 593.404791 
L 348.58944 594.708786 
L 348.16288 593.168763 
L 347.73632 593.270577 
L 347.30976 594.069309 
L 346.8832 595.234076 
L 346.4616 597.76837 
L 346.03504 595.534497 
L 345.61344 596.565794 
L 345.19184 596.673026 
L 344.76528 594.918333 
L 344.34368 597.131023 
L 343.92208 597.187617 
L 343.50048 598.053235 
L 343.07888 597.609549 
L 342.66224 599.304747 
L 342.24064 598.206419 
L 341.81904 598.674638 
L 341.4024 597.064744 
L 340.9808 598.011458 
L 340.56416 597.538785 
L 339.72592 598.542886 
L 339.30928 599.542776 
L 338.89264 598.341645 
L 338.476 595.003928 
L 338.05936 598.954708 
L 337.64272 598.403644 
L 337.23104 599.175472 
L 336.8144 599.139281 
L 336.39776 598.544359 
L 335.98608 599.648804 
L 335.5744 596.457204 
L 335.15776 599.557823 
L 334.74608 598.263294 
L 334.3344 597.695138 
L 333.92272 599.495183 
L 333.51104 597.018046 
L 333.09936 602.277395 
L 332.68768 602.29891 
L 332.276 599.358477 
L 331.86928 601.336719 
L 331.4576 601.213409 
L 331.05088 602.244799 
L 330.6392 602.53391 
L 330.23248 603.879521 
L 329.82576 601.262499 
L 329.41408 601.744305 
L 329.00736 603.103595 
L 328.60064 601.102414 
L 328.19392 603.006611 
L 327.79216 600.8119 
L 326.97872 602.564124 
L 326.57696 605.845468 
L 326.17024 601.693803 
L 325.76848 604.572468 
L 325.36176 603.01084 
L 324.96 604.764782 
L 324.55824 604.87611 
L 324.15648 602.47693 
L 323.74976 605.143306 
L 323.35296 598.028361 
L 322.9512 601.165481 
L 322.54944 602.303139 
L 322.14768 599.624769 
L 321.74592 601.578576 
L 321.34912 606.710904 
L 320.94736 603.508886 
L 320.55056 606.543291 
L 320.15376 605.531873 
L 319.752 605.527739 
L 318.9584 607.908091 
L 318.1648 603.98979 
L 317.768 605.175305 
L 317.3712 602.432242 
L 316.97936 602.921308 
L 316.58256 607.551082 
L 316.18576 604.471586 
L 315.79392 605.034717 
L 315.40208 604.756455 
L 315.00528 606.592103 
L 314.61344 604.050927 
L 314.2216 606.092884 
L 313.82976 606.229766 
L 313.43792 603.616135 
L 313.04608 603.839518 
L 312.65424 602.526846 
L 312.2624 605.439747 
L 311.87056 604.311991 
L 311.48368 602.066104 
L 311.09184 603.23785 
L 310.7 607.588088 
L 310.31312 606.78172 
L 309.5344 608.022704 
L 309.14752 608.328918 
L 308.76064 608.831072 
L 308.37376 610.171111 
L 307.98688 607.915376 
L 307.6 607.913951 
L 307.21312 607.781037 
L 306.44432 606.016681 
L 306.05744 604.978873 
L 305.28864 602.49204 
L 304.90672 606.031815 
L 304.5248 607.645822 
L 304.13792 608.410702 
L 303.756 606.80864 
L 303.37408 609.296395 
L 302.99216 611.004694 
L 302.61024 609.561408 
L 302.22832 609.482004 
L 301.46944 607.167523 
L 300.71056 606.599668 
L 300.32864 607.008431 
L 299.95168 603.673922 
L 299.56976 606.603703 
L 299.1928 604.02685 
L 298.81584 608.606554 
L 298.43888 610.317099 
L 298.06192 606.938399 
L 297.68496 610.743544 
L 297.308 609.522116 
L 296.93104 610.174656 
L 296.55408 609.336288 
L 296.17712 606.053778 
L 295.80512 607.325967 
L 295.42816 607.749197 
L 295.05616 603.016937 
L 294.6792 603.550014 
L 294.3072 603.428053 
L 293.55824 600.756369 
L 293.18624 604.166414 
L 292.81424 602.443927 
L 292.44224 603.939349 
L 292.07024 606.117849 
L 291.69824 602.862087 
L 291.32624 607.552075 
L 290.9592 607.704726 
L 290.5872 608.092015 
L 290.22016 606.811759 
L 289.84816 606.962317 
L 289.10912 604.525642 
L 288.74208 604.763401 
L 288.00304 601.285212 
L 287.636 602.928848 
L 287.26896 602.020307 
L 286.90192 605.019842 
L 286.53984 602.627334 
L 286.1728 607.216046 
L 285.80576 605.071308 
L 285.43872 606.803212 
L 285.07664 609.161311 
L 284.7096 609.868857 
L 284.34752 608.36772 
L 283.98048 607.466586 
L 283.6184 605.381061 
L 283.25632 606.142278 
L 282.88928 603.090472 
L 282.5272 601.068947 
L 282.16512 599.798136 
L 281.80304 599.570873 
L 281.44096 600.561512 
L 281.07888 600.937428 
L 280.72176 604.536612 
L 280.35968 605.975497 
L 279.9976 605.09123 
L 279.64048 609.251367 
L 279.2784 604.485086 
L 278.92128 607.158103 
L 278.5592 605.563462 
L 278.20208 605.880388 
L 277.84496 608.661686 
L 277.48288 606.12322 
L 277.12576 602.780003 
L 276.41152 598.74037 
L 276.0544 601.360807 
L 275.69728 596.299924 
L 275.34512 598.79486 
L 274.988 598.377516 
L 274.63088 599.326955 
L 274.27872 599.601015 
L 273.9216 601.740701 
L 273.56944 601.478848 
L 273.21232 603.029747 
L 272.86016 603.951498 
L 272.508 603.343163 
L 272.15088 607.114747 
L 271.79872 605.184701 
L 271.44656 606.366164 
L 271.0944 603.581675 
L 270.74224 603.159364 
L 270.39008 601.352384 
L 270.04288 600.911693 
L 269.69072 600.744275 
L 269.33856 596.661809 
L 268.99136 596.978606 
L 268.6392 597.612906 
L 268.28704 599.554334 
L 267.93984 599.107113 
L 267.59264 598.255588 
L 267.24048 601.581459 
L 266.89328 603.343139 
L 266.54608 603.716048 
L 266.19888 604.263443 
L 265.85168 606.142708 
L 265.50448 606.678784 
L 265.15728 605.968502 
L 264.81008 604.635712 
L 264.46288 603.953283 
L 264.11568 599.948602 
L 263.77344 598.535327 
L 263.42624 599.40503 
L 263.084 597.755968 
L 262.7368 594.051007 
L 262.39456 596.376125 
L 262.04736 594.961065 
L 261.70512 594.337704 
L 261.36288 595.16167 
L 260.6784 600.355494 
L 260.33616 600.192892 
L 259.99392 603.516731 
L 259.65168 602.096006 
L 258.9672 604.499704 
L 258.62496 603.931141 
L 258.28768 601.961752 
L 257.94544 599.28381 
L 257.6032 595.685426 
L 257.26592 596.195909 
L 256.92864 594.073842 
L 256.5864 592.948972 
L 256.24912 594.164971 
L 255.23232 592.431635 
L 254.89504 593.027864 
L 254.55776 596.490117 
L 254.22048 597.000009 
L 253.8832 597.827818 
L 253.55088 600.868106 
L 253.2136 602.055721 
L 252.87632 601.591268 
L 252.544 605.260897 
L 252.20672 603.933632 
L 251.86944 600.685477 
L 251.53712 600.480496 
L 251.2048 595.324155 
L 250.5352 594.084844 
L 249.87056 589.31127 
L 249.53328 590.67715 
L 249.20096 589.484796 
L 248.86864 593.910603 
L 248.54128 593.439882 
L 248.20896 594.839314 
L 247.87664 599.734603 
L 247.54432 599.964185 
L 246.88464 601.892249 
L 246.22496 597.505668 
L 245.56528 594.768431 
L 245.23792 592.066101 
L 244.9056 591.038401 
L 244.57824 590.682687 
L 244.25088 588.803326 
L 243.59616 587.605878 
L 243.2688 591.760519 
L 242.94144 591.368105 
L 242.61408 596.44781 
L 242.28672 596.679993 
L 241.95936 600.393643 
L 241.63696 599.288918 
L 240.9872 601.947409 
L 240.33744 597.685865 
L 240.01008 594.243248 
L 239.68768 595.489952 
L 239.36528 594.967936 
L 238.71552 585.527356 
L 238.07072 590.368432 
L 237.74832 588.537177 
L 237.42592 587.848929 
L 236.45872 595.684731 
L 236.14128 595.450412 
L 235.81888 596.875238 
L 235.49648 600.638086 
L 235.17904 600.670301 
L 234.85664 599.587783 
L 234.22176 596.384653 
L 233.89936 597.016118 
L 233.26448 588.346918 
L 232.94704 587.896867 
L 232.62464 588.224145 
L 232.3072 587.401196 
L 231.98976 587.336237 
L 231.67232 585.712232 
L 231.35984 587.567565 
L 231.0424 587.749204 
L 230.72496 588.314269 
L 230.40752 593.297421 
L 229.46016 598.433581 
L 229.14768 599.923892 
L 228.83024 600.212122 
L 228.20528 602.355612 
L 227.88784 600.432024 
L 227.57536 600.593242 
L 227.26288 599.804213 
L 226.9504 597.470512 
L 226.63792 592.003893 
L 226.32544 589.180868 
L 226.01296 590.135151 
L 225.70048 585.839703 
L 225.388 586.723835 
L 225.07552 588.306287 
L 224.768 587.735226 
L 224.45552 585.069381 
L 224.14304 589.127328 
L 223.83552 590.765803 
L 223.21552 596.297988 
L 222.90304 595.064358 
L 222.59552 600.644493 
L 222.28304 598.574581 
L 221.97552 602.198266 
L 221.668 602.810055 
L 221.36048 600.348959 
L 221.05296 601.433456 
L 220.74544 599.727183 
L 220.43792 593.334488 
L 220.1304 592.526412 
L 219.51536 586.112527 
L 219.20784 585.475252 
L 218.90032 587.441791 
L 218.59776 586.766413 
L 218.29024 583.340737 
L 217.98272 587.496155 
L 217.68016 589.362248 
L 217.37264 589.239326 
L 217.07008 595.81035 
L 216.76752 594.567476 
L 216.46 595.72436 
L 216.15744 601.311997 
L 215.85488 600.793453 
L 215.55232 600.668437 
L 215.24976 604.055042 
L 214.94224 601.755705 
L 214.63968 600.5305 
L 214.33712 597.955949 
L 214.03952 596.603724 
L 213.73696 596.554181 
L 213.4344 592.197606 
L 213.13184 590.617283 
L 212.82928 587.888346 
L 212.53168 586.522995 
L 212.22912 586.036831 
L 211.93152 587.88902 
L 211.62896 588.850921 
L 211.33136 586.918124 
L 211.0288 591.358337 
L 210.7312 592.987232 
L 210.4336 590.868878 
L 209.83344 598.562321 
L 209.53584 600.19248 
L 209.23824 603.930723 
L 208.94064 602.111852 
L 208.64304 601.101575 
L 208.34544 603.243606 
L 208.04784 600.779436 
L 207.75024 602.707317 
L 207.45264 596.402482 
L 207.15504 596.326185 
L 206.8624 592.992293 
L 206.5648 590.877059 
L 206.2672 586.764942 
L 205.97456 586.822263 
L 205.67696 582.823422 
L 205.38432 586.167299 
L 205.09168 584.890731 
L 204.79408 588.481133 
L 204.50144 588.751055 
L 203.9112 593.896982 
L 203.61856 596.634567 
L 203.32592 600.485618 
L 202.74064 601.598916 
L 202.448 603.862071 
L 202.15536 603.40957 
L 201.86272 602.299892 
L 201.57008 601.841362 
L 201.2824 597.550618 
L 200.98976 597.425028 
L 200.40944 590.172325 
L 199.82416 585.021935 
L 199.53648 584.793301 
L 199.2488 588.193832 
L 198.95616 584.478167 
L 198.66848 585.916554 
L 198.3808 583.333668 
L 198.08816 588.588356 
L 197.80048 588.896998 
L 197.5128 586.560028 
L 196.93744 593.667873 
L 196.64976 594.011557 
L 196.36208 598.332859 
L 196.0744 600.443941 
L 195.49904 606.780357 
L 195.21136 606.606679 
L 194.92864 607.154412 
L 194.35328 603.19952 
L 193.78288 595.397569 
L 192.64208 585.043993 
L 192.35936 589.847889 
L 192.07664 586.348146 
L 191.79392 584.729212 
L 191.5112 586.726315 
L 191.22352 585.675382 
L 190.9408 588.64096 
L 190.65808 593.59779 
L 190.37536 595.858931 
L 190.09264 601.96016 
L 189.80992 601.308991 
L 189.53216 603.792766 
L 189.24944 602.947679 
L 188.96672 603.40405 
L 188.684 606.97359 
L 188.40624 603.685629 
L 188.12352 604.559765 
L 187.8408 604.010265 
L 187.28032 597.302555 
L 187.00256 595.717545 
L 186.7248 591.436199 
L 186.16432 587.755514 
L 185.88656 586.18125 
L 185.32608 587.500848 
L 185.04832 585.82047 
L 184.77056 586.345328 
L 184.21504 590.732823 
L 183.93728 591.496186 
L 183.65952 594.077947 
L 183.38176 597.848795 
L 183.10896 599.667505 
L 182.55344 606.231611 
L 182.27568 606.056515 
L 182.00288 606.516539 
L 181.72512 608.304072 
L 181.45232 601.862354 
L 181.17456 602.478023 
L 180.90176 596.986635 
L 180.624 594.74074 
L 180.3512 590.972055 
L 180.0784 589.880868 
L 179.80064 588.239047 
L 179.52784 590.176599 
L 179.25504 587.583828 
L 178.98224 589.299801 
L 178.70944 587.937291 
L 178.43664 590.482323 
L 178.16384 591.866721 
L 177.89104 597.573411 
L 177.61824 599.414382 
L 177.34544 604.624798 
L 177.07264 602.458731 
L 176.79984 608.62828 
L 176.52704 606.492281 
L 176.2592 607.714469 
L 175.9864 606.081347 
L 175.7136 605.536481 
L 175.44576 604.612198 
L 175.17296 602.963417 
L 174.63232 596.082189 
L 174.36448 592.094961 
L 174.09168 590.829315 
L 173.82384 588.051991 
L 173.28816 589.926519 
L 173.01536 588.736392 
L 172.74752 592.672481 
L 172.47968 590.431256 
L 171.14048 607.244669 
L 170.87264 607.465107 
L 170.34192 609.989028 
L 170.07408 608.246512 
L 169.80624 605.500846 
L 169.54336 605.146217 
L 169.27552 601.96728 
L 169.00768 601.672726 
L 168.7448 597.387764 
L 168.47696 597.154519 
L 168.21408 593.237567 
L 167.68336 588.989496 
L 167.42048 589.411847 
L 167.1576 587.536327 
L 166.88976 590.212959 
L 166.62688 587.84556 
L 166.364 593.010244 
L 165.83824 597.80005 
L 165.57536 599.776291 
L 165.31248 605.024159 
L 165.0496 606.29592 
L 164.78672 610.757866 
L 164.26096 607.421997 
L 163.99808 610.831262 
L 163.74016 608.697231 
L 163.47728 608.500779 
L 163.2144 606.328967 
L 162.6936 597.023759 
L 162.43072 594.80909 
L 162.1728 595.356076 
L 161.652 589.464795 
L 161.39408 590.391003 
L 161.1312 590.706538 
L 160.87328 590.137577 
L 160.61536 590.505619 
L 160.35248 590.575951 
L 159.83664 594.346577 
L 159.3208 601.769993 
L 158.80496 604.91919 
L 158.54704 606.109674 
L 158.28912 610.465312 
L 158.0312 610.570547 
L 157.52032 613.038318 
L 157.2624 608.010437 
L 156.4936 604.758058 
L 156.23568 601.93797 
L 155.98272 600.7071 
L 155.7248 597.712855 
L 155.47184 596.922706 
L 154.96096 593.550337 
L 154.70304 593.111229 
L 154.45008 591.930638 
L 153.94416 595.240926 
L 153.68624 593.240155 
L 153.18032 599.27024 
L 152.92736 600.694159 
L 152.6744 604.392049 
L 152.42144 603.501356 
L 152.16848 608.904574 
L 151.91552 608.208753 
L 151.66256 609.593959 
L 151.4096 611.771391 
L 151.15664 612.836913 
L 150.90864 612.01942 
L 149.90176 604.535694 
L 149.6488 603.469117 
L 149.4008 598.085908 
L 149.14784 597.926847 
L 148.15088 592.487428 
L 147.89792 593.009158 
L 147.64992 592.018599 
L 147.40192 593.91786 
L 147.14896 597.473826 
L 146.90096 596.070292 
L 146.40496 604.283593 
L 146.15696 604.467733 
L 145.66096 608.494062 
L 145.41296 612.174694 
L 145.16496 612.09264 
L 144.66896 616.869682 
L 144.42592 612.946154 
L 144.17792 611.358378 
L 143.68192 606.0457 
L 143.43888 606.00088 
L 143.19088 602.01165 
L 142.94288 602.730454 
L 142.69984 598.318344 
L 142.45184 596.438506 
L 142.2088 600.822749 
L 141.96576 597.206592 
L 141.71776 597.907397 
L 141.47472 597.128105 
L 140.74064 601.931753 
L 140.4976 603.074673 
L 139.0344 617.535406 
L 138.79136 617.460789 
L 138.54832 614.174565 
L 138.30528 614.839302 
L 138.06224 614.576614 
L 137.82416 614.643911 
L 137.58112 610.580626 
L 137.33808 610.164929 
L 137.09504 608.512228 
L 136.85696 603.34567 
L 136.61392 604.097432 
L 136.37088 602.785193 
L 136.1328 603.852571 
L 135.88976 603.571607 
L 135.40864 600.302267 
L 134.93248 601.865736 
L 134.21328 610.022365 
L 133.97024 610.231205 
L 133.73216 611.520752 
L 133.256 616.000201 
L 133.01792 615.669932 
L 132.77984 620.486064 
L 132.54176 619.987897 
L 132.30368 620.605588 
L 131.82752 614.541827 
L 131.58944 616.471028 
L 131.35136 612.399747 
L 131.11328 612.496276 
L 130.8752 610.38293 
L 130.63712 605.007253 
L 130.404 606.309878 
L 130.16592 603.493476 
L 129.92784 605.497843 
L 129.69472 603.866699 
L 129.45664 605.326652 
L 129.22352 605.791882 
L 128.98544 609.560744 
L 128.75232 608.762258 
L 128.04304 614.842852 
L 127.80992 613.006411 
L 127.5768 619.647801 
L 127.33872 618.307577 
L 127.1056 618.653912 
L 126.87248 620.341786 
L 126.63936 619.730089 
L 126.40624 621.320141 
L 125.70192 615.475128 
L 125.4688 611.78287 
L 125.23568 611.642404 
L 124.54128 606.580073 
L 124.30816 608.198397 
L 124.07504 604.128361 
L 123.6088 607.727371 
L 123.38064 606.601565 
L 123.14752 610.95625 
L 122.68624 615.551393 
L 122.45312 615.628744 
L 122.22496 619.486839 
L 121.76368 617.518552 
L 121.3024 622.066527 
L 120.84112 618.47057 
L 120.61296 618.262712 
L 119.92352 612.207561 
L 119.69536 613.838914 
L 119.4672 608.977496 
L 119.00592 612.067181 
L 118.77776 609.599236 
L 118.5496 611.583323 
L 118.32144 610.463618 
L 118.09328 612.905895 
L 117.87008 610.751596 
L 117.41376 614.915384 
L 117.1856 615.878324 
L 116.50608 622.466085 
L 116.27792 621.080605 
L 116.04976 620.842483 
L 115.82656 624.285858 
L 115.5984 625.342843 
L 115.3752 624.026881 
L 115.14704 621.227387 
L 114.92384 622.440897 
L 114.69568 621.998368 
L 114.47248 619.219724 
L 114.24432 619.431636 
L 114.02112 619.132254 
L 113.79792 617.760079 
L 113.56976 618.037758 
L 113.34656 614.862903 
L 113.12336 615.085653 
L 112.90016 614.224276 
L 112.672 612.690471 
L 112.2256 615.821461 
L 111.7792 616.311181 
L 111.1096 621.912292 
L 110.8864 621.981473 
L 110.6632 625.689128 
L 110.44 623.664858 
L 110.22176 625.876395 
L 109.99856 625.991894 
L 109.77536 624.903316 
L 109.55216 625.497081 
L 109.11072 627.54077 
L 108.88752 626.036609 
L 108.66928 623.040552 
L 108.44608 623.65043 
L 108.22784 621.137844 
L 108.00464 621.195753 
L 107.7864 618.795079 
L 107.5632 619.073232 
L 107.12176 617.784886 
L 106.90352 618.394473 
L 106.68528 616.972337 
L 106.46208 617.624947 
L 106.24384 618.749563 
L 106.0256 616.565263 
L 105.80736 619.077222 
L 105.58416 618.765292 
L 105.36592 623.320925 
L 105.14768 621.084708 
L 104.7112 625.925611 
L 104.49296 626.404124 
L 104.27472 625.757837 
L 103.83824 627.542125 
L 103.62 628.447345 
L 103.18352 627.40684 
L 102.97024 628.167244 
L 102.752 626.899299 
L 102.53376 628.096647 
L 102.31552 624.050824 
L 102.10224 622.964065 
L 101.884 624.191444 
L 101.66576 623.19252 
L 101.45248 622.887288 
L 101.23424 620.097855 
L 101.02096 620.703463 
L 100.80272 619.83616 
L 100.3712 622.87128 
L 100.15792 622.344796 
L 99.94464 621.032251 
L 99.51312 624.316874 
L 99.29984 623.489857 
L 99.0816 625.296336 
L 98.86832 623.466224 
L 98.65504 626.823438 
L 98.44176 627.533654 
L 98.22848 627.417564 
L 97.79696 628.468279 
L 97.58368 630.62587 
L 97.3704 629.312063 
L 97.15712 629.290762 
L 96.94384 630.735922 
L 96.73056 629.948909 
L 96.30896 630.254792 
L 96.09568 628.11279 
L 95.8824 628.994226 
L 95.66912 628.251267 
L 95.45584 625.210301 
L 95.24752 624.431518 
L 95.03424 627.246989 
L 94.82096 624.920732 
L 94.61264 626.882673 
L 94.39936 626.628784 
L 94.18608 625.313973 
L 93.97776 626.408489 
L 93.76448 626.915846 
L 93.55616 623.511056 
L 93.34288 627.189446 
L 93.13456 624.390254 
L 92.92624 626.825076 
L 92.71296 625.978513 
L 92.08304 631.770229 
L 91.87472 630.449479 
L 91.6664 630.755348 
L 91.2448 633.22643 
L 91.03648 631.60405 
L 90.82816 632.637567 
L 90.61984 631.421048 
L 90.2032 633.130093 
L 89.99488 630.284079 
L 89.78656 631.039936 
L 89.36992 628.95656 
L 89.1616 630.667722 
L 88.74496 628.938546 
L 88.5416 629.816255 
L 88.33328 628.900322 
L 88.12496 628.507929 
L 87.91664 628.863447 
L 87.71328 626.723417 
L 87.50496 628.399093 
L 87.29664 628.543015 
L 87.09328 631.19773 
L 86.88496 630.594034 
L 86.47328 630.985547 
L 86.0616 633.552667 
L 85.85824 633.317134 
L 85.64992 633.759514 
L 85.44656 633.820263 
L 85.2432 635.750557 
L 85.03488 633.943551 
L 84.83152 635.265283 
L 84.62816 635.240208 
L 84.4248 635.615736 
L 84.21648 636.759114 
L 84.01312 634.398864 
L 83.80976 634.780685 
L 83.6064 635.977386 
L 83.40304 633.931398 
L 82.99632 632.632171 
L 82.79296 633.125957 
L 82.5896 632.076966 
L 82.38624 632.161389 
L 82.18288 631.346832 
L 81.77616 631.660324 
L 81.5728 630.068249 
L 81.3744 632.834639 
L 81.17104 631.238382 
L 80.96768 631.050128 
L 80.56592 633.358819 
L 80.36256 632.822893 
L 80.1592 632.788598 
L 79.9608 633.265988 
L 79.55408 635.866915 
L 79.35568 636.219958 
L 79.15232 635.619193 
L 78.95392 636.603326 
L 78.75056 636.631257 
L 78.1504 638.117316 
L 77.7536 635.720032 
L 77.55024 636.511292 
L 77.35184 636.402413 
L 77.15344 635.226779 
L 76.95504 632.933928 
L 76.75168 633.54063 
L 76.55328 635.198675 
L 76.35488 635.864418 
L 75.95808 634.095072 
L 75.75968 634.063902 
L 75.36288 636.175542 
L 75.16448 635.443499 
L 74.96608 636.496605 
L 74.76768 636.162224 
L 74.56928 636.427759 
L 74.37088 638.305786 
L 74.17744 636.124671 
L 73.97904 636.721692 
L 73.58224 639.976338 
L 73.3888 638.183255 
L 73.1904 637.403755 
L 72.992 639.14021 
L 72.79856 637.244169 
L 72.60016 638.121712 
L 72.40176 637.209977 
L 72.20832 637.890132 
L 72.00992 637.099546 
L 72.00992 637.099546 
" clip-path="url(#pf478ccb593)" style="fill: none; stroke-dasharray: 3.7,1.6; stroke-dashoffset: 0; stroke: #808080"/>
   </g>
   <g id="line2d_27">
    <path d="M 72 598.8 
L 518.4 598.8 
" clip-path="url(#pf478ccb593)" style="fill: none; stroke-dasharray: 5.55,2.4; stroke-dashoffset: 0; stroke: #000000; stroke-width: 1.5"/>
   </g>
   <g id="patch_9">
    <path d="M 72 640.8 
L 72 556.8 
" style="fill: none; stroke: #000000; stroke-width: 0.8; stroke-linejoin: miter; stroke-linecap: square"/>
   </g>
   <g id="patch_10">
    <path d="M 518.4 640.8 
L 518.4 556.8 
" style="fill: none; stroke: #000000; stroke-width: 0.8; stroke-linejoin: miter; stroke-linecap: square"/>
   </g>
   <g id="patch_11">
    <path d="M 72 640.8 
L 518.4 640.8 
" style="fill: none; stroke: #000000; stroke-width: 0.8; stroke-linejoin: miter; stroke-linecap: square"/>
   </g>
   <g id="patch_12">
    <path d="M 72 556.8 
L 518.4 556.8 
" style="fill: none; stroke: #000000; stroke-width: 0.8; stroke-linejoin: miter; stroke-linecap: square"/>
   </g>
  </g>
  <g id="text_21">
   <!-- Photon energy (eV) -->
   <g transform="translate(229.8825 710.304375) scale(0.12 -0.12)">
    <defs>
     <path id="DejaVuSans-50" d="M 1259 4147 
L 1259 2394 
L 2053 2394 
Q 2494 2394 2734 2622 
Q 2975 2850 2975 3272 
Q 2975 3691 2734 3919 
Q 2494 4147 2053 4147 
L 1259 4147 
z
M 628 4666 
L 2053 4666 
Q 2838 4666 3239 4311 
Q 3641 3956 3641 3272 
Q 3641 2581 3239 2228 
Q 2838 1875 2053 1875 
L 1259 1875 
L 1259 0 
L 628 0 
L 628 4666 
z
" transform="scale(0.015625)"/>
     <path id="DejaVuSans-68" d="M 3513 2113 
L 3513 0 
L 2938 0 
L 2938 2094 
Q 2938 2591 2744 2837 
Q 2550 3084 2163 3084 
Q 1697 3084 1428 2787 
Q 1159 2491 1159 1978 
L 1159 0 
L 581 0 
L 581 4863 
L 1159 4863 
L 1159 2956 
Q 1366 3272 1645 3428 
Q 1925 3584 2291 3584 
Q 2894 3584 3203 3211 
Q 3513 2838 3513 2113 
z
" transform="scale(0.015625)"/>
     <path id="DejaVuSans-67" d="M 2906 1791 
Q 2906 2416 2648 2759 
Q 2391 3103 1925 3103 
Q 1463 3103 1205 2759 
Q 947 2416 947 1791 
Q 947 1169 1205 825 
Q 1463 481 1925 481 
Q 2391 481 2648 825 
Q 2906 1169 2906 1791 
z
M 3481 434 
Q 3481 -459 3084 -895 
Q 2688 -1331 1869 -1331 
Q 1566 -1331 1297 -1286 
Q 1028 -1241 775 -1147 
L 775 -588 
Q 1028 -725 1275 -790 
Q 1522 -856 1778 -856 
Q 2344 -856 2625 -561 
Q 2906 -266 2906 331 
L 2906 616 
Q 2728 306 2450 153 
Q 2172 0 1784 0 
Q 1141 0 747 490 
Q 353 981 353 1791 
Q 353 2603 747 3093 
Q 1141 3584 1784 3584 
Q 2172 3584 2450 3431 
Q 2728 3278 2906 2969 
L 2906 3500 
L 3481 3500 
L 3481 434 
z
" transform="scale(0.015625)"/>
     <path id="DejaVuSans-56" d="M 1831 0 
L 50 4666 
L 709 4666 
L 2188 738 
L 3669 4666 
L 4325 4666 
L 2547 0 
L 1831 0 
z
" transform="scale(0.015625)"/>
    </defs>
    <use xlink:href="#DejaVuSans-50"/>
    <use xlink:href="#DejaVuSans-68" transform="translate(60.302734 0)"/>
    <use xlink:href="#DejaVuSans-6f" transform="translate(123.681641 0)"/>
    <use xlink:href="#DejaVuSans-74" transform="translate(184.863281 0)"/>
    <use xlink:href="#DejaVuSans-6f" transform="translate(224.072266 0)"/>
    <use xlink:href="#DejaVuSans-6e" transform="translate(285.253906 0)"/>
    <use xlink:href="#DejaVuSans-20" transform="translate(348.632812 0)"/>
    <use xlink:href="#DejaVuSans-65" transform="translate(380.419922 0)"/>
    <use xlink:href="#DejaVuSans-6e" transform="translate(441.943359 0)"/>
    <use xlink:href="#DejaVuSans-65" transform="translate(505.322266 0)"/>
    <use xlink:href="#DejaVuSans-72" transform="translate(566.845703 0)"/>
    <use xlink:href="#DejaVuSans-67" transform="translate(606.208984 0)"/>
    <use xlink:href="#DejaVuSans-79" transform="translate(669.685547 0)"/>
    <use xlink:href="#DejaVuSans-20" transform="translate(728.865234 0)"/>
    <use xlink:href="#DejaVuSans-28" transform="translate(760.652344 0)"/>
    <use xlink:href="#DejaVuSans-65" transform="translate(799.666016 0)"/>
    <use xlink:href="#DejaVuSans-56" transform="translate(861.189453 0)"/>
    <use xlink:href="#DejaVuSans-29" transform="translate(929.597656 0)"/>
   </g>
  </g>
  <g id="text_22">
   <!-- Excitation power 0.8 mW -->
   <g transform="translate(212.689687 23.518125) scale(0.12 -0.12)">
    <defs>
     <path id="DejaVuSans-45" d="M 628 4666 
L 3578 4666 
L 3578 4134 
L 1259 4134 
L 1259 2753 
L 3481 2753 
L 3481 2222 
L 1259 2222 
L 1259 531 
L 3634 531 
L 3634 0 
L 628 0 
L 628 4666 
z
" transform="scale(0.015625)"/>
     <path id="DejaVuSans-78" d="M 3513 3500 
L 2247 1797 
L 3578 0 
L 2900 0 
L 1881 1375 
L 863 0 
L 184 0 
L 1544 1831 
L 300 3500 
L 978 3500 
L 1906 2253 
L 2834 3500 
L 3513 3500 
z
" transform="scale(0.015625)"/>
     <path id="DejaVuSans-70" d="M 1159 525 
L 1159 -1331 
L 581 -1331 
L 581 3500 
L 1159 3500 
L 1159 2969 
Q 1341 3281 1617 3432 
Q 1894 3584 2278 3584 
Q 2916 3584 3314 3078 
Q 3713 2572 3713 1747 
Q 3713 922 3314 415 
Q 2916 -91 2278 -91 
Q 1894 -91 1617 61 
Q 1341 213 1159 525 
z
M 3116 1747 
Q 3116 2381 2855 2742 
Q 2594 3103 2138 3103 
Q 1681 3103 1420 2742 
Q 1159 2381 1159 1747 
Q 1159 1113 1420 752 
Q 1681 391 2138 391 
Q 2594 391 2855 752 
Q 3116 1113 3116 1747 
z
" transform="scale(0.015625)"/>
     <path id="DejaVuSans-77" d="M 269 3500 
L 844 3500 
L 1563 769 
L 2278 3500 
L 2956 3500 
L 3675 769 
L 4391 3500 
L 4966 3500 
L 4050 0 
L 3372 0 
L 2619 2869 
L 1863 0 
L 1184 0 
L 269 3500 
z
" transform="scale(0.015625)"/>
     <path id="DejaVuSans-6d" d="M 3328 2828 
Q 3544 3216 3844 3400 
Q 4144 3584 4550 3584 
Q 5097 3584 5394 3201 
Q 5691 2819 5691 2113 
L 5691 0 
L 5113 0 
L 5113 2094 
Q 5113 2597 4934 2840 
Q 4756 3084 4391 3084 
Q 3944 3084 3684 2787 
Q 3425 2491 3425 1978 
L 3425 0 
L 2847 0 
L 2847 2094 
Q 2847 2600 2669 2842 
Q 2491 3084 2119 3084 
Q 1678 3084 1418 2786 
Q 1159 2488 1159 1978 
L 1159 0 
L 581 0 
L 581 3500 
L 1159 3500 
L 1159 2956 
Q 1356 3278 1631 3431 
Q 1906 3584 2284 3584 
Q 2666 3584 2933 3390 
Q 3200 3197 3328 2828 
z
" transform="scale(0.015625)"/>
     <path id="DejaVuSans-57" d="M 213 4666 
L 850 4666 
L 1831 722 
L 2809 4666 
L 3519 4666 
L 4500 722 
L 5478 4666 
L 6119 4666 
L 4947 0 
L 4153 0 
L 3169 4050 
L 2175 0 
L 1381 0 
L 213 4666 
z
" transform="scale(0.015625)"/>
    </defs>
    <use xlink:href="#DejaVuSans-45"/>
    <use xlink:href="#DejaVuSans-78" transform="translate(63.183594 0)"/>
    <use xlink:href="#DejaVuSans-63" transform="translate(120.613281 0)"/>
    <use xlink:href="#DejaVuSans-69" transform="translate(175.59375 0)"/>
    <use xlink:href="#DejaVuSans-74" transform="translate(203.376953 0)"/>
    <use xlink:href="#DejaVuSans-61" transform="translate(242.585938 0)"/>
    <use xlink:href="#DejaVuSans-74" transform="translate(303.865234 0)"/>
    <use xlink:href="#DejaVuSans-69" transform="translate(343.074219 0)"/>
    <use xlink:href="#DejaVuSans-6f" transform="translate(370.857422 0)"/>
    <use xlink:href="#DejaVuSans-6e" transform="translate(432.039062 0)"/>
    <use xlink:href="#DejaVuSans-20" transform="translate(495.417969 0)"/>
    <use xlink:href="#DejaVuSans-70" transform="translate(527.205078 0)"/>
    <use xlink:href="#DejaVuSans-6f" transform="translate(590.681641 0)"/>
    <use xlink:href="#DejaVuSans-77" transform="translate(651.863281 0)"/>
    <use xlink:href="#DejaVuSans-65" transform="translate(733.650391 0)"/>
    <use xlink:href="#DejaVuSans-72" transform="translate(795.173828 0)"/>
    <use xlink:href="#DejaVuSans-20" transform="translate(836.287109 0)"/>
    <use xlink:href="#DejaVuSans-30" transform="translate(868.074219 0)"/>
    <use xlink:href="#DejaVuSans-2e" transform="translate(931.697266 0)"/>
    <use xlink:href="#DejaVuSans-38" transform="translate(963.484375 0)"/>
    <use xlink:href="#DejaVuSans-20" transform="translate(1027.107422 0)"/>
    <use xlink:href="#DejaVuSans-6d" transform="translate(1058.894531 0)"/>
    <use xlink:href="#DejaVuSans-57" transform="translate(1156.306641 0)"/>
   </g>
  </g>
 </g>
 <defs>
  <clipPath id="p7cde271115">
   <rect x="72" y="86.4" width="446.4" height="420"/>
  </clipPath>
  <clipPath id="pf478ccb593">
   <rect x="72" y="556.8" width="446.4" height="84"/>
  </clipPath>
 </defs>
</svg>
