<?xml version="1.0" encoding="utf-8" standalone="no"?>
<!DOCTYPE svg PUBLIC "-//W3C//DTD SVG 1.1//EN"
  "http://www.w3.org/Graphics/SVG/1.1/DTD/svg11.dtd">
<svg xmlns:xlink="http://www.w3.org/1999/xlink" width="576pt" height="720pt" viewBox="0 0 576 720" xmlns="http://www.w3.org/2000/svg" version="1.1">
 <metadata>
  <rdf:RDF xmlns:dc="http://purl.org/dc/elements/1.1/" xmlns:cc="http://creativecommons.org/ns#" xmlns:rdf="http://www.w3.org/1999/02/22-rdf-syntax-ns#">
   <cc:Work>
    <dc:type rdf:resource="http://purl.org/dc/dcmitype/StillImage"/>
    <dc:date>2026-06-10T15:01:55.688573</dc:date>
    <dc:format>image/svg+xml</dc:format>
    <dc:creator>
     <cc:Agent>
      <dc:title>Matplotlib v3.10.0, https://matplotlib.org/</dc:title>
     </cc:Agent>
    </dc:creator>
   </cc:Work>
  </rdf:RDF>
 </metadata>
 <defs>
  <style type="text/css">*{stroke-linejoin: round; stroke-linecap: butt}</style>
 </defs>
 <g id="figure_1">
  <g id="patch_1">
   <path d="M 0 720 
L 576 720 
L 576 0 
L 0 0 
z
" style="fill: #ffffff"/>
  </g>
  <g id="axes_1">
   <g id="patch_2">
    <path d="M 72 506.4 
L 518.4 506.4 
L 518.4 86.4 
L 72 86.4 
z
" style="fill: #ffffff"/>
   </g>
   <g id="matplotlib.axis_1">
    <g id="xtick_1">
     <g id="line2d_1">
      <defs>
       <path id="m61ee9c2b67" d="M 0 0 
L 0 3.5 
" style="stroke: #000000; stroke-width: 0.8"/>
      </defs>
      <g>
       <use xlink:href="#m61ee9c2b67" x="72" y="506.4" style="stroke: #000000; stroke-width: 0.8"/>
      </g>
     </g>
    </g>
    <g id="xtick_2">
     <g id="line2d_2">
      <g>
       <use xlink:href="#m61ee9c2b67" x="171.2" y="506.4" style="stroke: #000000; stroke-width: 0.8"/>
      </g>
     </g>
    </g>
    <g id="xtick_3">
     <g id="line2d_3">
      <g>
       <use xlink:href="#m61ee9c2b67" x="270.4" y="506.4" style="stroke: #000000; stroke-width: 0.8"/>
      </g>
     </g>
    </g>
    <g id="xtick_4">
     <g id="line2d_4">
      <g>
       <use xlink:href="#m61ee9c2b67" x="369.6" y="506.4" style="stroke: #000000; stroke-width: 0.8"/>
      </g>
     </g>
    </g>
    <g id="xtick_5">
     <g id="line2d_5">
      <g>
       <use xlink:href="#m61ee9c2b67" x="468.8" y="506.4" style="stroke: #000000; stroke-width: 0.8"/>
      </g>
     </g>
    </g>
   </g>
   <g id="matplotlib.axis_2">
    <g id="ytick_1">
     <g id="line2d_6">
      <defs>
       <path id="mf0c095dd40" d="M 0 0 
L -3.5 0 
" style="stroke: #000000; stroke-width: 0.8"/>
      </defs>
      <g>
       <use xlink:href="#mf0c095dd40" x="72" y="485.735018" style="stroke: #000000; stroke-width: 0.8"/>
      </g>
     </g>
     <g id="text_1">
      <!-- 0 -->
      <g transform="translate(58.6375 489.534237) scale(0.1 -0.1)">
       <defs>
        <path id="DejaVuSans-30" d="M 2034 4250 
Q 1547 4250 1301 3770 
Q 1056 3291 1056 2328 
Q 1056 1369 1301 889 
Q 1547 409 2034 409 
Q 2525 409 2770 889 
Q 3016 1369 3016 2328 
Q 3016 3291 2770 3770 
Q 2525 4250 2034 4250 
z
M 2034 4750 
Q 2819 4750 3233 4129 
Q 3647 3509 3647 2328 
Q 3647 1150 3233 529 
Q 2819 -91 2034 -91 
Q 1250 -91 836 529 
Q 422 1150 422 2328 
Q 422 3509 836 4129 
Q 1250 4750 2034 4750 
z
" transform="scale(0.015625)"/>
       </defs>
       <use xlink:href="#DejaVuSans-30"/>
      </g>
     </g>
    </g>
    <g id="ytick_2">
     <g id="line2d_7">
      <g>
       <use xlink:href="#mf0c095dd40" x="72" y="423.714974" style="stroke: #000000; stroke-width: 0.8"/>
      </g>
     </g>
     <g id="text_2">
      <!-- 5000 -->
      <g transform="translate(39.55 427.514193) scale(0.1 -0.1)">
       <defs>
        <path id="DejaVuSans-35" d="M 691 4666 
L 3169 4666 
L 3169 4134 
L 1269 4134 
L 1269 2991 
Q 1406 3038 1543 3061 
Q 1681 3084 1819 3084 
Q 2600 3084 3056 2656 
Q 3513 2228 3513 1497 
Q 3513 744 3044 326 
Q 2575 -91 1722 -91 
Q 1428 -91 1123 -41 
Q 819 9 494 109 
L 494 744 
Q 775 591 1075 516 
Q 1375 441 1709 441 
Q 2250 441 2565 725 
Q 2881 1009 2881 1497 
Q 2881 1984 2565 2268 
Q 2250 2553 1709 2553 
Q 1456 2553 1204 2497 
Q 953 2441 691 2322 
L 691 4666 
z
" transform="scale(0.015625)"/>
       </defs>
       <use xlink:href="#DejaVuSans-35"/>
       <use xlink:href="#DejaVuSans-30" transform="translate(63.623047 0)"/>
       <use xlink:href="#DejaVuSans-30" transform="translate(127.246094 0)"/>
       <use xlink:href="#DejaVuSans-30" transform="translate(190.869141 0)"/>
      </g>
     </g>
    </g>
    <g id="ytick_3">
     <g id="line2d_8">
      <g>
       <use xlink:href="#mf0c095dd40" x="72" y="361.69493" style="stroke: #000000; stroke-width: 0.8"/>
      </g>
     </g>
     <g id="text_3">
      <!-- 10000 -->
      <g transform="translate(33.1875 365.494149) scale(0.1 -0.1)">
       <defs>
        <path id="DejaVuSans-31" d="M 794 531 
L 1825 531 
L 1825 4091 
L 703 3866 
L 703 4441 
L 1819 4666 
L 2450 4666 
L 2450 531 
L 3481 531 
L 3481 0 
L 794 0 
L 794 531 
z
" transform="scale(0.015625)"/>
       </defs>
       <use xlink:href="#DejaVuSans-31"/>
       <use xlink:href="#DejaVuSans-30" transform="translate(63.623047 0)"/>
       <use xlink:href="#DejaVuSans-30" transform="translate(127.246094 0)"/>
       <use xlink:href="#DejaVuSans-30" transform="translate(190.869141 0)"/>
       <use xlink:href="#DejaVuSans-30" transform="translate(254.492188 0)"/>
      </g>
     </g>
    </g>
    <g id="ytick_4">
     <g id="line2d_9">
      <g>
       <use xlink:href="#mf0c095dd40" x="72" y="299.674886" style="stroke: #000000; stroke-width: 0.8"/>
      </g>
     </g>
     <g id="text_4">
      <!-- 15000 -->
      <g transform="translate(33.1875 303.474104) scale(0.1 -0.1)">
       <use xlink:href="#DejaVuSans-31"/>
       <use xlink:href="#DejaVuSans-35" transform="translate(63.623047 0)"/>
       <use xlink:href="#DejaVuSans-30" transform="translate(127.246094 0)"/>
       <use xlink:href="#DejaVuSans-30" transform="translate(190.869141 0)"/>
       <use xlink:href="#DejaVuSans-30" transform="translate(254.492188 0)"/>
      </g>
     </g>
    </g>
    <g id="ytick_5">
     <g id="line2d_10">
      <g>
       <use xlink:href="#mf0c095dd40" x="72" y="237.654842" style="stroke: #000000; stroke-width: 0.8"/>
      </g>
     </g>
     <g id="text_5">
      <!-- 20000 -->
      <g transform="translate(33.1875 241.45406) scale(0.1 -0.1)">
       <defs>
        <path id="DejaVuSans-32" d="M 1228 531 
L 3431 531 
L 3431 0 
L 469 0 
L 469 531 
Q 828 903 1448 1529 
Q 2069 2156 2228 2338 
Q 2531 2678 2651 2914 
Q 2772 3150 2772 3378 
Q 2772 3750 2511 3984 
Q 2250 4219 1831 4219 
Q 1534 4219 1204 4116 
Q 875 4013 500 3803 
L 500 4441 
Q 881 4594 1212 4672 
Q 1544 4750 1819 4750 
Q 2544 4750 2975 4387 
Q 3406 4025 3406 3419 
Q 3406 3131 3298 2873 
Q 3191 2616 2906 2266 
Q 2828 2175 2409 1742 
Q 1991 1309 1228 531 
z
" transform="scale(0.015625)"/>
       </defs>
       <use xlink:href="#DejaVuSans-32"/>
       <use xlink:href="#DejaVuSans-30" transform="translate(63.623047 0)"/>
       <use xlink:href="#DejaVuSans-30" transform="translate(127.246094 0)"/>
       <use xlink:href="#DejaVuSans-30" transform="translate(190.869141 0)"/>
       <use xlink:href="#DejaVuSans-30" transform="translate(254.492188 0)"/>
      </g>
     </g>
    </g>
    <g id="ytick_6">
     <g id="line2d_11">
      <g>
       <use xlink:href="#mf0c095dd40" x="72" y="175.634797" style="stroke: #000000; stroke-width: 0.8"/>
      </g>
     </g>
     <g id="text_6">
      <!-- 25000 -->
      <g transform="translate(33.1875 179.434016) scale(0.1 -0.1)">
       <use xlink:href="#DejaVuSans-32"/>
       <use xlink:href="#DejaVuSans-35" transform="translate(63.623047 0)"/>
       <use xlink:href="#DejaVuSans-30" transform="translate(127.246094 0)"/>
       <use xlink:href="#DejaVuSans-30" transform="translate(190.869141 0)"/>
       <use xlink:href="#DejaVuSans-30" transform="translate(254.492188 0)"/>
      </g>
     </g>
    </g>
    <g id="ytick_7">
     <g id="line2d_12">
      <g>
       <use xlink:href="#mf0c095dd40" x="72" y="113.614753" style="stroke: #000000; stroke-width: 0.8"/>
      </g>
     </g>
     <g id="text_7">
      <!-- 30000 -->
      <g transform="translate(33.1875 117.413972) scale(0.1 -0.1)">
       <defs>
        <path id="DejaVuSans-33" d="M 2597 2516 
Q 3050 2419 3304 2112 
Q 3559 1806 3559 1356 
Q 3559 666 3084 287 
Q 2609 -91 1734 -91 
Q 1441 -91 1130 -33 
Q 819 25 488 141 
L 488 750 
Q 750 597 1062 519 
Q 1375 441 1716 441 
Q 2309 441 2620 675 
Q 2931 909 2931 1356 
Q 2931 1769 2642 2001 
Q 2353 2234 1838 2234 
L 1294 2234 
L 1294 2753 
L 1863 2753 
Q 2328 2753 2575 2939 
Q 2822 3125 2822 3475 
Q 2822 3834 2567 4026 
Q 2313 4219 1838 4219 
Q 1578 4219 1281 4162 
Q 984 4106 628 3988 
L 628 4550 
Q 988 4650 1302 4700 
Q 1616 4750 1894 4750 
Q 2613 4750 3031 4423 
Q 3450 4097 3450 3541 
Q 3450 3153 3228 2886 
Q 3006 2619 2597 2516 
z
" transform="scale(0.015625)"/>
       </defs>
       <use xlink:href="#DejaVuSans-33"/>
       <use xlink:href="#DejaVuSans-30" transform="translate(63.623047 0)"/>
       <use xlink:href="#DejaVuSans-30" transform="translate(127.246094 0)"/>
       <use xlink:href="#DejaVuSans-30" transform="translate(190.869141 0)"/>
       <use xlink:href="#DejaVuSans-30" transform="translate(254.492188 0)"/>
      </g>
     </g>
    </g>
    <g id="text_8">
     <!-- Intensitiy (a.u.) -->
     <g transform="translate(27.107812 334.453125) rotate(-90) scale(0.1 -0.1)">
      <defs>
       <path id="DejaVuSans-49" d="M 628 4666 
L 1259 4666 
L 1259 0 
L 628 0 
L 628 4666 
z
" transform="scale(0.015625)"/>
       <path id="DejaVuSans-6e" d="M 3513 2113 
L 3513 0 
L 2938 0 
L 2938 2094 
Q 2938 2591 2744 2837 
Q 2550 3084 2163 3084 
Q 1697 3084 1428 2787 
Q 1159 2491 1159 1978 
L 1159 0 
L 581 0 
L 581 3500 
L 1159 3500 
L 1159 2956 
Q 1366 3272 1645 3428 
Q 1925 3584 2291 3584 
Q 2894 3584 3203 3211 
Q 3513 2838 3513 2113 
z
" transform="scale(0.015625)"/>
       <path id="DejaVuSans-74" d="M 1172 4494 
L 1172 3500 
L 2356 3500 
L 2356 3053 
L 1172 3053 
L 1172 1153 
Q 1172 725 1289 603 
Q 1406 481 1766 481 
L 2356 481 
L 2356 0 
L 1766 0 
Q 1100 0 847 248 
Q 594 497 594 1153 
L 594 3053 
L 172 3053 
L 172 3500 
L 594 3500 
L 594 4494 
L 1172 4494 
z
" transform="scale(0.015625)"/>
       <path id="DejaVuSans-65" d="M 3597 1894 
L 3597 1613 
L 953 1613 
Q 991 1019 1311 708 
Q 1631 397 2203 397 
Q 2534 397 2845 478 
Q 3156 559 3463 722 
L 3463 178 
Q 3153 47 2828 -22 
Q 2503 -91 2169 -91 
Q 1331 -91 842 396 
Q 353 884 353 1716 
Q 353 2575 817 3079 
Q 1281 3584 2069 3584 
Q 2775 3584 3186 3129 
Q 3597 2675 3597 1894 
z
M 3022 2063 
Q 3016 2534 2758 2815 
Q 2500 3097 2075 3097 
Q 1594 3097 1305 2825 
Q 1016 2553 972 2059 
L 3022 2063 
z
" transform="scale(0.015625)"/>
       <path id="DejaVuSans-73" d="M 2834 3397 
L 2834 2853 
Q 2591 2978 2328 3040 
Q 2066 3103 1784 3103 
Q 1356 3103 1142 2972 
Q 928 2841 928 2578 
Q 928 2378 1081 2264 
Q 1234 2150 1697 2047 
L 1894 2003 
Q 2506 1872 2764 1633 
Q 3022 1394 3022 966 
Q 3022 478 2636 193 
Q 2250 -91 1575 -91 
Q 1294 -91 989 -36 
Q 684 19 347 128 
L 347 722 
Q 666 556 975 473 
Q 1284 391 1588 391 
Q 1994 391 2212 530 
Q 2431 669 2431 922 
Q 2431 1156 2273 1281 
Q 2116 1406 1581 1522 
L 1381 1569 
Q 847 1681 609 1914 
Q 372 2147 372 2553 
Q 372 3047 722 3315 
Q 1072 3584 1716 3584 
Q 2034 3584 2315 3537 
Q 2597 3491 2834 3397 
z
" transform="scale(0.015625)"/>
       <path id="DejaVuSans-69" d="M 603 3500 
L 1178 3500 
L 1178 0 
L 603 0 
L 603 3500 
z
M 603 4863 
L 1178 4863 
L 1178 4134 
L 603 4134 
L 603 4863 
z
" transform="scale(0.015625)"/>
       <path id="DejaVuSans-79" d="M 2059 -325 
Q 1816 -950 1584 -1140 
Q 1353 -1331 966 -1331 
L 506 -1331 
L 506 -850 
L 844 -850 
Q 1081 -850 1212 -737 
Q 1344 -625 1503 -206 
L 1606 56 
L 191 3500 
L 800 3500 
L 1894 763 
L 2988 3500 
L 3597 3500 
L 2059 -325 
z
" transform="scale(0.015625)"/>
       <path id="DejaVuSans-20" transform="scale(0.015625)"/>
       <path id="DejaVuSans-28" d="M 1984 4856 
Q 1566 4138 1362 3434 
Q 1159 2731 1159 2009 
Q 1159 1288 1364 580 
Q 1569 -128 1984 -844 
L 1484 -844 
Q 1016 -109 783 600 
Q 550 1309 550 2009 
Q 550 2706 781 3412 
Q 1013 4119 1484 4856 
L 1984 4856 
z
" transform="scale(0.015625)"/>
       <path id="DejaVuSans-61" d="M 2194 1759 
Q 1497 1759 1228 1600 
Q 959 1441 959 1056 
Q 959 750 1161 570 
Q 1363 391 1709 391 
Q 2188 391 2477 730 
Q 2766 1069 2766 1631 
L 2766 1759 
L 2194 1759 
z
M 3341 1997 
L 3341 0 
L 2766 0 
L 2766 531 
Q 2569 213 2275 61 
Q 1981 -91 1556 -91 
Q 1019 -91 701 211 
Q 384 513 384 1019 
Q 384 1609 779 1909 
Q 1175 2209 1959 2209 
L 2766 2209 
L 2766 2266 
Q 2766 2663 2505 2880 
Q 2244 3097 1772 3097 
Q 1472 3097 1187 3025 
Q 903 2953 641 2809 
L 641 3341 
Q 956 3463 1253 3523 
Q 1550 3584 1831 3584 
Q 2591 3584 2966 3190 
Q 3341 2797 3341 1997 
z
" transform="scale(0.015625)"/>
       <path id="DejaVuSans-2e" d="M 684 794 
L 1344 794 
L 1344 0 
L 684 0 
L 684 794 
z
" transform="scale(0.015625)"/>
       <path id="DejaVuSans-75" d="M 544 1381 
L 544 3500 
L 1119 3500 
L 1119 1403 
Q 1119 906 1312 657 
Q 1506 409 1894 409 
Q 2359 409 2629 706 
Q 2900 1003 2900 1516 
L 2900 3500 
L 3475 3500 
L 3475 0 
L 2900 0 
L 2900 538 
Q 2691 219 2414 64 
Q 2138 -91 1772 -91 
Q 1169 -91 856 284 
Q 544 659 544 1381 
z
M 1991 3584 
L 1991 3584 
z
" transform="scale(0.015625)"/>
       <path id="DejaVuSans-29" d="M 513 4856 
L 1013 4856 
Q 1481 4119 1714 3412 
Q 1947 2706 1947 2009 
Q 1947 1309 1714 600 
Q 1481 -109 1013 -844 
L 513 -844 
Q 928 -128 1133 580 
Q 1338 1288 1338 2009 
Q 1338 2731 1133 3434 
Q 928 4138 513 4856 
z
" transform="scale(0.015625)"/>
      </defs>
      <use xlink:href="#DejaVuSans-49"/>
      <use xlink:href="#DejaVuSans-6e" transform="translate(29.492188 0)"/>
      <use xlink:href="#DejaVuSans-74" transform="translate(92.871094 0)"/>
      <use xlink:href="#DejaVuSans-65" transform="translate(132.080078 0)"/>
      <use xlink:href="#DejaVuSans-6e" transform="translate(193.603516 0)"/>
      <use xlink:href="#DejaVuSans-73" transform="translate(256.982422 0)"/>
      <use xlink:href="#DejaVuSans-69" transform="translate(309.082031 0)"/>
      <use xlink:href="#DejaVuSans-74" transform="translate(336.865234 0)"/>
      <use xlink:href="#DejaVuSans-69" transform="translate(376.074219 0)"/>
      <use xlink:href="#DejaVuSans-79" transform="translate(403.857422 0)"/>
      <use xlink:href="#DejaVuSans-20" transform="translate(463.037109 0)"/>
      <use xlink:href="#DejaVuSans-28" transform="translate(494.824219 0)"/>
      <use xlink:href="#DejaVuSans-61" transform="translate(533.837891 0)"/>
      <use xlink:href="#DejaVuSans-2e" transform="translate(595.117188 0)"/>
      <use xlink:href="#DejaVuSans-75" transform="translate(626.904297 0)"/>
      <use xlink:href="#DejaVuSans-2e" transform="translate(690.283203 0)"/>
      <use xlink:href="#DejaVuSans-29" transform="translate(722.070312 0)"/>
     </g>
    </g>
   </g>
   <g id="line2d_13">
    <path d="M 518.29584 486.662795 
L 517.68576 486.364761 
L 517.07568 486.600099 
L 516.4656 486.264853 
L 515.85552 486.847503 
L 514.63536 486.226627 
L 512.81504 486.225618 
L 512.20992 486.783464 
L 511.6048 486.398604 
L 510.99968 486.584329 
L 510.39952 486.249088 
L 509.7944 485.628553 
L 508.58912 486.099237 
L 507.3888 486.135784 
L 506.19344 485.465306 
L 504.99808 485.725128 
L 504.40288 485.712394 
L 503.80768 485.215904 
L 503.21248 485.165958 
L 502.61728 484.793508 
L 502.02208 485.413379 
L 501.43184 485.586708 
L 500.83664 484.656078 
L 500.2464 485.065083 
L 499.65616 485.250816 
L 498.47568 484.53073 
L 497.88544 485.200219 
L 497.30016 484.827775 
L 496.70992 484.145227 
L 496.12464 484.579043 
L 495.53936 484.268619 
L 494.3688 484.801343 
L 493.78352 484.478514 
L 493.2032 484.924737 
L 492.61792 485.110473 
L 492.0376 484.316295 
L 491.45728 484.105105 
L 490.87696 483.745068 
L 490.29664 484.885915 
L 489.71632 483.781637 
L 489.136 483.744103 
L 488.56064 483.309644 
L 487.98528 483.855102 
L 487.40496 483.408236 
L 486.25424 483.07269 
L 485.67888 483.072372 
L 485.10848 483.977548 
L 484.53312 482.823657 
L 483.96272 482.51324 
L 483.38736 483.009082 
L 482.81696 482.810302 
L 482.24656 482.363442 
L 481.67616 482.99573 
L 481.11072 481.95348 
L 480.54032 482.18884 
L 479.96992 481.92804 
L 479.40448 480.798962 
L 478.83904 482.063858 
L 478.2736 481.579788 
L 477.70816 481.542263 
L 477.14272 481.703202 
L 476.57728 480.859416 
L 475.45136 481.206105 
L 474.89088 481.602722 
L 474.32544 480.845765 
L 473.76496 480.820646 
L 473.20448 479.890035 
L 472.64896 480.100595 
L 472.08848 479.790185 
L 471.528 480.521711 
L 470.41696 479.739643 
L 469.85648 479.962604 
L 469.30096 479.366904 
L 468.74544 479.168132 
L 468.19488 479.291867 
L 467.08384 478.360951 
L 466.53328 478.943635 
L 465.98272 478.471977 
L 465.43216 478.657732 
L 464.8816 478.409347 
L 464.33104 477.466338 
L 463.78048 478.483161 
L 463.22992 477.689 
L 462.68432 477.539849 
L 462.13376 476.96896 
L 461.04256 477.328072 
L 460.49696 476.161793 
L 459.95136 476.930539 
L 459.40576 476.359652 
L 458.86016 476.619834 
L 458.31952 476.445879 
L 457.77392 476.39596 
L 456.69264 474.894476 
L 456.152 474.484844 
L 455.61136 474.918685 
L 455.07072 474.050105 
L 454.53008 474.074614 
L 453.9944 473.206036 
L 453.45376 473.677089 
L 452.91808 472.83332 
L 452.3824 472.882639 
L 451.84672 474.197167 
L 451.31104 471.542413 
L 450.77536 472.460012 
L 450.23968 472.149616 
L 449.70896 472.707502 
L 449.17328 470.685352 
L 448.64256 471.999883 
L 448.11184 471.304964 
L 447.57616 469.915418 
L 447.04544 469.77868 
L 446.51472 470.398587 
L 445.98896 470.050983 
L 445.45824 470.211941 
L 444.93248 469.330965 
L 444.40176 468.859319 
L 443.876 468.970664 
L 443.35024 467.94084 
L 442.82448 468.014973 
L 442.29872 467.605349 
L 441.77296 467.617462 
L 441.2472 466.773698 
L 440.72144 466.810619 
L 440.20064 465.123385 
L 439.67984 465.916953 
L 439.15408 466.00349 
L 438.63328 464.08058 
L 438.11248 466.238589 
L 437.59168 464.303275 
L 437.07584 465.258098 
L 436.55504 464.005005 
L 436.03424 465.009441 
L 435.5184 464.612227 
L 435.00256 461.957483 
L 434.48176 462.986728 
L 433.96592 462.056141 
L 433.45008 462.080663 
L 432.93424 461.497389 
L 432.42336 460.666038 
L 431.90752 459.549391 
L 431.39664 459.40026 
L 430.8808 460.020175 
L 430.36992 459.449307 
L 429.85904 459.31258 
L 429.34816 457.327656 
L 428.83728 459.063934 
L 428.3264 460.055972 
L 427.81552 458.195087 
L 427.30464 456.855171 
L 426.79872 456.197479 
L 426.28784 457.45 
L 425.78192 454.931706 
L 425.276 456.147019 
L 424.77008 455.19163 
L 424.26416 454.88125 
L 423.75824 452.896328 
L 423.25232 453.565864 
L 422.75136 452.424418 
L 422.24544 452.101633 
L 421.74448 452.17578 
L 421.24352 451.95223 
L 420.7376 450.686741 
L 420.23664 451.54234 
L 419.73568 449.346553 
L 419.23472 448.887327 
L 418.73872 447.485399 
L 418.23776 448.266574 
L 417.74176 448.129856 
L 417.2408 446.169745 
L 416.7448 445.561673 
L 416.2488 446.92584 
L 415.74784 445.126981 
L 415.25184 445.784119 
L 414.7608 443.848821 
L 414.2648 442.546125 
L 413.7688 442.570659 
L 413.27776 442.061822 
L 412.78176 440.163734 
L 412.29072 442.148104 
L 411.79968 440.733775 
L 411.30368 438.885302 
L 410.81264 439.654079 
L 410.3216 440.670936 
L 409.83552 439.901618 
L 409.34448 437.71824 
L 408.85344 438.052876 
L 408.36736 436.725378 
L 407.87632 433.98382 
L 407.39024 435.484436 
L 406.90416 433.586353 
L 406.41808 431.018454 
L 405.932 432.134546 
L 405.44592 432.903325 
L 404.95984 429.293489 
L 404.47872 430.942956 
L 403.99264 430.707011 
L 403.51152 430.247796 
L 403.02544 429.45367 
L 402.0632 425.446642 
L 401.58208 426.897644 
L 401.10096 427.331518 
L 400.61984 425.65671 
L 400.13872 424.626911 
L 399.66256 424.353759 
L 399.18144 422.393659 
L 398.70528 424.737753 
L 398.22416 423.335834 
L 397.748 419.825235 
L 397.27184 420.879312 
L 396.79568 417.976511 
L 396.31952 418.410387 
L 395.84336 418.174447 
L 394.896 416.114857 
L 394.41984 416.585945 
L 393.94864 415.506536 
L 393.47744 414.74963 
L 393.00128 415.679667 
L 392.53008 410.705398 
L 392.05888 411.263318 
L 391.58768 410.245928 
L 391.11648 407.405149 
L 390.65024 408.422019 
L 390.17904 407.268186 
L 389.7128 404.886358 
L 389.2416 406.101689 
L 388.77536 404.935454 
L 388.30912 402.25593 
L 387.84288 401.635471 
L 387.37664 400.804144 
L 386.9104 402.217943 
L 386.44416 402.143261 
L 385.97792 399.376909 
L 385.51168 397.280373 
L 385.0504 398.135994 
L 384.58416 396.287538 
L 384.12288 397.205179 
L 383.6616 395.989331 
L 383.20032 393.880394 
L 382.73904 394.053795 
L 382.27776 392.97439 
L 381.81648 390.431313 
L 381.3552 391.671458 
L 380.89392 390.058682 
L 380.4376 387.106275 
L 379.97632 385.121378 
L 379.52 385.480841 
L 379.06368 386.200021 
L 378.60736 383.85541 
L 378.14608 383.731115 
L 377.68976 384.239426 
L 377.2384 381.870011 
L 376.78208 381.41081 
L 376.32576 380.517468 
L 375.86944 379.301623 
L 375.41808 379.276564 
L 374.96176 375.170585 
L 374.5104 375.095911 
L 374.05904 374.649116 
L 373.60768 372.068832 
L 373.15632 372.378683 
L 372.70496 371.336496 
L 372.2536 371.931638 
L 371.80224 370.393291 
L 371.35088 370.442657 
L 370.90448 370.25635 
L 370.45312 366.993845 
L 370.00672 366.435418 
L 369.56032 366.608826 
L 368.21616 361.646478 
L 367.76976 361.819887 
L 367.32832 361.22425 
L 366.88192 361.273619 
L 366.43552 358.618914 
L 365.99408 358.122509 
L 365.54768 355.083279 
L 365.10624 353.619362 
L 364.65984 354.909131 
L 364.2184 354.809655 
L 363.77696 351.274268 
L 363.33552 348.644373 
L 362.89408 348.644129 
L 362.45264 348.953984 
L 362.01616 347.142757 
L 361.57472 346.410676 
L 361.13328 347.142268 
L 360.6968 346.447402 
L 360.26032 348.605458 
L 359.81888 341.485312 
L 359.3824 340.319093 
L 358.94592 341.956181 
L 358.07296 338.197283 
L 357.63648 339.437442 
L 357.2 338.271223 
L 356.332 332.242394 
L 355.90048 333.383324 
L 355.464 333.370678 
L 355.03248 328.309603 
L 354.60096 331.918931 
L 354.16944 329.078174 
L 353.73296 325.034225 
L 353.30144 324.79831 
L 352.87488 328.271196 
L 352.44336 321.982124 
L 352.01184 321.746209 
L 351.15376 318.297419 
L 350.7272 317.887851 
L 350.29568 319.959081 
L 349.86912 319.524705 
L 349.44256 317.775503 
L 348.58944 310.072141 
L 348.16288 312.639534 
L 347.73632 311.274857 
L 347.30976 309.165939 
L 346.8832 308.756371 
L 346.4616 306.511012 
L 346.03504 308.470609 
L 345.61344 304.848405 
L 345.19184 303.60777 
L 344.76528 305.554963 
L 344.34368 302.949888 
L 343.92208 302.118586 
L 343.50048 301.758636 
L 342.24064 297.292495 
L 341.81904 294.377319 
L 341.4024 294.47632 
L 340.9808 289.93622 
L 340.56416 295.617025 
L 340.14256 291.473852 
L 339.72592 290.530917 
L 339.30928 288.22354 
L 338.89264 292.279421 
L 338.476 290.976769 
L 338.05936 284.315585 
L 337.64272 283.55871 
L 337.23104 285.605143 
L 336.8144 277.232207 
L 336.39776 280.332978 
L 335.98608 280.469194 
L 335.5744 276.077947 
L 335.15776 276.288584 
L 334.74608 274.018422 
L 334.3344 275.122151 
L 333.51104 273.18667 
L 333.09936 267.815506 
L 332.68768 271.908601 
L 332.276 271.957989 
L 331.86928 267.876844 
L 331.4576 268.149505 
L 331.05088 266.586374 
L 330.6392 266.325662 
L 330.23248 265.444752 
L 329.82576 262.070636 
L 329.00736 258.696292 
L 328.60064 256.587386 
L 328.19392 257.790349 
L 327.79216 261.226037 
L 326.97872 253.621929 
L 326.57696 254.043443 
L 326.17024 256.747291 
L 325.76848 254.278671 
L 325.36176 249.09357 
L 324.96 248.349107 
L 324.55824 247.22012 
L 324.15648 246.450849 
L 323.74976 242.518552 
L 323.35296 242.629969 
L 322.9512 243.721299 
L 322.54944 238.238504 
L 322.14768 237.89097 
L 321.74592 237.841131 
L 321.34912 236.439258 
L 320.94736 239.316766 
L 320.55056 239.76309 
L 320.15376 239.750466 
L 319.752 238.001279 
L 318.9584 232.791155 
L 318.5616 234.477881 
L 318.1648 227.444588 
L 317.768 229.230545 
L 316.97936 222.693196 
L 316.58256 223.040288 
L 316.18576 226.649635 
L 315.79392 224.156212 
L 315.40208 224.639751 
L 315.00528 221.799013 
L 314.61344 220.992536 
L 314.2216 221.389247 
L 313.82976 218.238412 
L 313.43792 218.771567 
L 313.04608 215.471884 
L 312.65424 214.826658 
L 312.2624 211.576591 
L 311.87056 209.790196 
L 311.09184 208.623788 
L 310.7 207.246726 
L 310.31312 207.841904 
L 309.92624 213.299454 
L 309.5344 210.557951 
L 308.76064 206.910744 
L 308.37376 212.690797 
L 307.98688 205.744338 
L 307.6 202.271001 
L 307.21312 200.050469 
L 306.8312 199.566501 
L 306.44432 200.434568 
L 305.67552 195.44773 
L 305.28864 196.712725 
L 304.90672 190.882629 
L 304.5248 191.465406 
L 304.13792 195.025142 
L 303.756 193.896166 
L 303.37408 193.548642 
L 302.99216 192.791786 
L 302.61024 194.404095 
L 301.85136 187.70551 
L 301.46944 187.395199 
L 301.08752 185.584002 
L 300.71056 179.989585 
L 300.32864 182.085651 
L 299.56976 179.790489 
L 299.1928 179.591816 
L 298.81584 179.157467 
L 298.43888 180.769779 
L 298.06192 181.352559 
L 297.68496 183.498243 
L 297.308 178.561239 
L 296.93104 177.320629 
L 296.55408 178.536013 
L 296.17712 173.102849 
L 295.80512 174.243811 
L 295.42816 166.292633 
L 295.05616 167.371576 
L 294.6792 163.129196 
L 294.3072 160.3753 
L 293.93024 161.801552 
L 293.55824 162.458758 
L 293.18624 161.019687 
L 292.81424 158.625507 
L 292.44224 160.498307 
L 292.07024 161.254745 
L 291.69824 160.882419 
L 291.32624 161.626453 
L 290.9592 161.68827 
L 290.5872 167.18304 
L 290.22016 165.830799 
L 289.48112 157.308836 
L 289.10912 157.395458 
L 288.37504 150.858139 
L 288.00304 144.19698 
L 287.636 149.704156 
L 287.26896 151.849847 
L 286.90192 145.052246 
L 286.53984 146.205619 
L 286.1728 149.356034 
L 285.80576 149.033326 
L 285.43872 152.332589 
L 285.07664 153.907698 
L 284.7096 153.572586 
L 284.34752 152.555257 
L 283.98048 152.865154 
L 283.6184 147.109493 
L 283.25632 147.109292 
L 282.5272 140.385916 
L 281.80304 134.853327 
L 281.44096 138.859621 
L 281.07888 134.790905 
L 280.72176 137.457569 
L 280.35968 135.807636 
L 279.9976 139.268154 
L 279.64048 145.135052 
L 279.2784 142.666454 
L 278.92128 142.877124 
L 278.20208 140.098227 
L 277.84496 139.899565 
L 277.48288 132.742252 
L 277.12576 133.635143 
L 276.76864 132.989936 
L 276.41152 130.806633 
L 276.0544 125.584347 
L 275.69728 124.567021 
L 275.34512 125.224238 
L 274.988 125.521737 
L 274.63088 123.474877 
L 274.27872 127.580409 
L 273.9216 121.502247 
L 273.56944 130.197262 
L 273.21232 129.130319 
L 272.86016 131.524098 
L 272.508 136.646759 
L 272.15088 132.65247 
L 271.79872 134.723744 
L 271.44656 134.165369 
L 271.0944 134.27681 
L 270.74224 129.451455 
L 270.39008 128.024799 
L 270.04288 123.596376 
L 269.69072 126.10179 
L 268.99136 121.474708 
L 268.6392 115.297316 
L 267.93984 123.632423 
L 267.59264 121.014985 
L 267.24048 126.497361 
L 266.89328 122.577502 
L 266.54608 122.217594 
L 266.19888 131.532812 
L 265.85168 128.034689 
L 265.50448 129.93231 
L 265.15728 130.89963 
L 264.11568 121.447199 
L 263.77344 123.555691 
L 263.084 116.4106 
L 262.7368 114.835098 
L 262.39456 111.113706 
L 262.04736 112.502763 
L 261.70512 109.277531 
L 260.6784 118.753625 
L 260.33616 119.361231 
L 259.65168 127.634326 
L 259.30944 121.729828 
L 258.9672 127.621543 
L 258.62496 127.286445 
L 258.28768 126.343554 
L 257.94544 123.316786 
L 257.26592 109.597576 
L 256.92864 117.473934 
L 256.5864 111.098084 
L 256.24912 114.794292 
L 255.91184 112.176859 
L 255.5696 105.490909 
L 255.23232 106.458235 
L 254.89504 119.755146 
L 254.55776 118.42773 
L 254.22048 121.404505 
L 253.8832 120.151513 
L 253.55088 128.325571 
L 253.2136 121.503179 
L 252.87632 129.999739 
L 252.544 131.550056 
L 252.20672 126.178933 
L 251.86944 128.088963 
L 251.53712 117.123635 
L 251.2048 119.864737 
L 250.86752 113.091962 
L 250.5352 113.12899 
L 250.20288 118.326085 
L 249.87056 111.925433 
L 249.53328 113.587383 
L 249.20096 111.503325 
L 248.86864 120.768936 
L 248.54128 118.511225 
L 248.20896 117.741992 
L 247.87664 130.381493 
L 247.54432 128.036951 
L 247.212 131.224598 
L 246.88464 131.063164 
L 246.55232 126.671961 
L 246.22496 127.29198 
L 245.89264 133.134084 
L 245.56528 120.643066 
L 245.23792 123.867927 
L 244.9056 115.470229 
L 244.57824 113.485406 
L 244.25088 115.79237 
L 243.92352 113.224559 
L 243.59616 116.833944 
L 243.2688 118.272628 
L 242.94144 118.049174 
L 242.28672 132.33823 
L 241.95936 132.747381 
L 241.63696 140.214416 
L 241.3096 135.475903 
L 240.9872 142.657645 
L 240.65984 142.1489 
L 240.33744 135.859889 
L 240.01008 133.986702 
L 239.68768 131.369277 
L 239.36528 126.928464 
L 239.03792 125.464609 
L 238.71552 125.005482 
L 238.39312 124.124619 
L 238.07072 124.236077 
L 237.74832 125.848419 
L 237.10352 126.641918 
L 236.78112 134.890406 
L 236.45872 135.956972 
L 236.14128 140.819168 
L 235.81888 142.791226 
L 235.49648 142.939896 
L 235.17904 152.217919 
L 234.85664 144.130326 
L 234.5392 140.657028 
L 234.22176 145.482011 
L 233.58192 136.451539 
L 233.26448 136.401747 
L 232.94704 135.78137 
L 232.62464 132.655382 
L 232.3072 134.478595 
L 231.98976 131.352609 
L 231.35984 135.197503 
L 231.0424 138.583621 
L 230.72496 139.513746 
L 230.09504 148.357455 
L 229.7776 148.865844 
L 229.46016 153.008607 
L 229.14768 155.452024 
L 228.83024 160.922016 
L 228.51776 159.929522 
L 228.20528 163.849016 
L 227.88784 163.489123 
L 227.57536 162.732306 
L 227.26288 158.651214 
L 226.9504 159.010757 
L 226.63792 154.706393 
L 226.32544 155.537288 
L 226.01296 147.995478 
L 225.70048 143.653902 
L 225.388 149.458805 
L 225.07552 150.47576 
L 224.768 153.675824 
L 224.45552 146.55575 
L 224.14304 158.004477 
L 223.83552 162.730234 
L 223.52304 162.668041 
L 223.21552 168.398523 
L 222.90304 169.63875 
L 222.28304 178.705737 
L 221.97552 179.003263 
L 221.668 184.299605 
L 221.36048 181.644976 
L 221.05296 182.21539 
L 220.74544 176.670628 
L 220.43792 174.896685 
L 219.82288 164.166876 
L 219.51536 162.095236 
L 219.20784 162.194298 
L 218.90032 161.697967 
L 218.59776 166.473343 
L 218.29024 164.091603 
L 217.98272 173.692136 
L 217.37264 179.013117 
L 217.07008 183.056657 
L 216.76752 181.642432 
L 216.46 185.375868 
L 216.15744 196.092764 
L 215.85488 197.18415 
L 215.55232 202.393666 
L 215.24976 200.979441 
L 214.94224 200.42109 
L 214.63968 199.490622 
L 214.33712 199.490454 
L 214.03952 194.875998 
L 213.73696 194.602942 
L 213.4344 185.485828 
L 213.13184 187.904442 
L 212.82928 184.852889 
L 212.53168 187.457566 
L 212.22912 183.574943 
L 211.93152 186.402892 
L 211.62896 187.072541 
L 211.0288 192.133044 
L 210.7312 195.19667 
L 210.4336 201.70861 
L 210.13104 198.7935 
L 209.83344 207.600181 
L 209.53584 210.24207 
L 209.23824 216.034578 
L 208.64304 221.479608 
L 208.34544 220.809626 
L 208.04784 224.431432 
L 207.75024 216.815206 
L 207.45264 212.126326 
L 207.15504 212.088949 
L 206.8624 206.556599 
L 206.5648 211.034281 
L 206.2672 203.256803 
L 205.97456 201.842583 
L 205.67696 204.459664 
L 205.38432 201.308884 
L 205.09168 202.946051 
L 204.79408 209.780495 
L 204.50144 213.241051 
L 204.2088 212.521457 
L 203.9112 217.321643 
L 203.32592 228.993491 
L 202.74064 239.486959 
L 202.448 238.854192 
L 202.15536 238.519122 
L 201.57008 232.850166 
L 201.2824 232.763178 
L 200.98976 232.229644 
L 200.69712 222.479931 
L 200.40944 225.394713 
L 200.1168 225.816287 
L 199.82416 225.096693 
L 199.53648 221.387735 
L 199.2488 224.64983 
L 198.95616 224.364375 
L 198.66848 223.57036 
L 198.3808 223.706644 
L 198.08816 225.86478 
L 197.80048 230.305255 
L 197.5128 239.694931 
L 197.22512 238.801683 
L 196.93744 246.554029 
L 196.64976 247.905907 
L 196.36208 250.361741 
L 195.49904 264.898761 
L 195.21136 264.278401 
L 194.92864 267.230399 
L 194.64096 267.825632 
L 194.35328 259.589211 
L 194.07056 259.378186 
L 193.78288 259.390431 
L 193.50016 256.053596 
L 193.21248 250.012684 
L 192.92976 251.550624 
L 192.35936 246.253797 
L 192.07664 247.990201 
L 191.79392 247.382248 
L 191.5112 251.227334 
L 191.22352 258.97968 
L 190.9408 259.314432 
L 190.65808 264.362707 
L 190.37536 266.694504 
L 189.53216 278.825158 
L 189.24944 282.335335 
L 188.96672 284.38184 
L 188.684 287.829998 
L 188.40624 287.904268 
L 187.8408 279.444421 
L 187.56304 280.59784 
L 187.28032 278.240922 
L 187.00256 274.854473 
L 186.7248 273.27901 
L 186.44208 270.661608 
L 186.16432 272.435227 
L 185.88656 270.648896 
L 185.6088 273.538876 
L 185.32608 269.184913 
L 185.04832 270.053039 
L 184.77056 276.44095 
L 184.4928 278.251782 
L 184.21504 278.871828 
L 183.93728 284.230206 
L 183.65952 286.239502 
L 183.38176 289.476794 
L 182.8312 302.897627 
L 182.55344 298.965402 
L 182.27568 310.054432 
L 182.00288 310.637269 
L 181.72512 306.084844 
L 181.45232 305.923441 
L 181.17456 303.293637 
L 180.90176 297.451198 
L 180.624 296.930076 
L 180.3512 294.982495 
L 180.0784 290.107569 
L 179.80064 292.240904 
L 179.52784 290.739868 
L 179.25504 290.975393 
L 178.98224 295.006545 
L 178.70944 292.451168 
L 178.16384 304.693622 
L 177.89104 306.740133 
L 177.07264 320.309665 
L 176.79984 322.827528 
L 176.52704 327.019931 
L 176.2592 324.898698 
L 175.9864 324.501618 
L 175.7136 326.188412 
L 175.44576 321.983305 
L 175.17296 323.583271 
L 174.90512 318.882003 
L 174.63232 318.261652 
L 174.09168 314.85025 
L 173.82384 310.496294 
L 173.556 309.305361 
L 173.28816 312.728719 
L 173.01536 313.001456 
L 172.74752 316.263562 
L 172.47968 316.325434 
L 171.944 331.507644 
L 171.67616 335.32793 
L 171.40832 333.144676 
L 171.14048 338.87518 
L 170.87264 339.879756 
L 170.6048 344.208607 
L 170.34192 345.002318 
L 170.07408 344.840917 
L 169.80624 341.057546 
L 169.54336 341.466733 
L 169.27552 337.410474 
L 169.00768 337.745234 
L 168.7448 337.509412 
L 168.47696 334.023737 
L 168.21408 332.708766 
L 167.94624 329.954928 
L 167.68336 330.413731 
L 167.42048 333.911516 
L 167.1576 330.78556 
L 166.88976 335.015178 
L 166.62688 336.354666 
L 166.364 340.881983 
L 166.10112 342.903691 
L 165.83824 342.953161 
L 165.57536 344.863233 
L 164.78672 360.429827 
L 164.52384 360.417278 
L 164.26096 362.94755 
L 163.47728 360.45391 
L 163.2144 360.664633 
L 162.95648 354.958646 
L 162.6936 356.943141 
L 162.1728 349.227559 
L 161.90992 348.259901 
L 161.652 348.793131 
L 161.39408 346.461034 
L 161.1312 349.934011 
L 160.87328 350.231564 
L 160.61536 351.781922 
L 160.35248 352.463997 
L 159.06288 367.335689 
L 158.80496 373.388703 
L 158.54704 372.842784 
L 158.28912 373.98381 
L 157.77328 378.734259 
L 157.52032 376.426973 
L 157.2624 381.289202 
L 157.00448 374.491662 
L 156.74656 377.418865 
L 156.4936 376.996989 
L 155.98272 370.807106 
L 155.7248 369.814642 
L 155.47184 369.876522 
L 155.21392 368.648382 
L 154.96096 369.256038 
L 154.70304 368.164343 
L 154.45008 368.015355 
L 154.19712 369.205999 
L 153.94416 374.452755 
L 153.68624 375.668205 
L 153.43328 375.184308 
L 153.18032 377.764202 
L 152.92736 382.886918 
L 152.6744 383.469766 
L 152.16848 391.581707 
L 151.91552 390.341166 
L 151.66256 392.635768 
L 151.4096 396.282406 
L 150.90864 395.091344 
L 150.65568 397.323925 
L 150.15472 393.106285 
L 149.90176 388.863974 
L 149.6488 391.456272 
L 149.4008 387.846568 
L 149.14784 389.384525 
L 148.89984 385.898861 
L 148.64688 386.184013 
L 148.39888 382.996045 
L 148.15088 386.816342 
L 147.89792 385.513781 
L 147.40192 387.16324 
L 146.90096 393.402179 
L 146.65296 395.014562 
L 146.15696 400.658112 
L 145.90896 401.017691 
L 145.66096 405.110876 
L 145.41296 406.686048 
L 145.16496 405.867246 
L 144.91696 409.699947 
L 144.66896 410.059526 
L 144.42592 411.57268 
L 144.17792 408.719621 
L 143.92992 408.248131 
L 143.68192 405.54392 
L 143.43888 406.015138 
L 143.19088 404.129591 
L 142.94288 404.327918 
L 142.69984 402.876514 
L 142.45184 403.223689 
L 142.2088 401.821901 
L 141.96576 403.049764 
L 141.71776 405.406388 
L 141.47472 404.25268 
L 140.74064 406.770288 
L 140.4976 411.396848 
L 140.2496 413.815493 
L 140.00656 414.894507 
L 139.52048 417.970432 
L 139.0344 423.415522 
L 138.79136 424.531748 
L 138.54832 422.993517 
L 138.30528 423.105018 
L 138.06224 421.02101 
L 137.82416 421.889159 
L 137.58112 422.137104 
L 137.33808 420.722913 
L 137.09504 417.708604 
L 136.85696 417.336352 
L 136.61392 418.849506 
L 136.37088 415.562309 
L 135.65168 418.203965 
L 135.40864 419.059707 
L 135.17056 417.310609 
L 134.45136 422.457875 
L 134.21328 426.178945 
L 133.97024 424.56629 
L 133.73216 428.907561 
L 133.256 432.653308 
L 133.01792 432.876448 
L 132.77984 434.377201 
L 132.54176 434.240625 
L 132.30368 436.932163 
L 132.0656 436.150579 
L 131.82752 433.620029 
L 131.58944 432.354688 
L 131.35136 434.68651 
L 131.11328 430.481419 
L 130.8752 431.299952 
L 130.63712 429.029886 
L 130.404 429.153797 
L 130.16592 430.59253 
L 129.92784 429.538058 
L 129.69472 431.02641 
L 129.45664 431.323974 
L 128.75232 435.863451 
L 128.51424 434.883402 
L 128.28112 436.607431 
L 128.04304 440.303693 
L 127.80992 439.596536 
L 127.33872 445.116059 
L 127.1056 443.639852 
L 126.87248 444.594832 
L 126.63936 444.644319 
L 126.40624 444.83025 
L 126.16816 443.540101 
L 125.93504 443.465548 
L 125.70192 441.964534 
L 125.4688 443.552118 
L 125.00256 438.615064 
L 124.76944 440.153032 
L 124.30816 438.589871 
L 124.07504 439.929375 
L 123.6088 440.747781 
L 123.38064 443.228457 
L 123.14752 443.774104 
L 122.9144 445.126012 
L 122.68624 447.606687 
L 122.45312 447.991082 
L 122.22496 449.715113 
L 121.99184 450.409608 
L 121.76368 451.674691 
L 121.53056 451.029553 
L 121.3024 451.463567 
L 121.06928 452.480567 
L 120.84112 450.185699 
L 120.61296 450.421248 
L 120.37984 449.602455 
L 120.15168 449.354248 
L 119.69536 447.766282 
L 119.23904 449.167682 
L 119.00592 449.142745 
L 118.77776 449.800031 
L 118.5496 448.944028 
L 118.09328 449.911288 
L 117.87008 452.106674 
L 117.64192 451.920488 
L 117.41376 453.892599 
L 116.95744 454.959091 
L 116.72928 455.963689 
L 116.50608 458.072247 
L 116.27792 457.365092 
L 116.04976 458.220842 
L 115.82656 460.217764 
L 115.5984 460.205233 
L 115.3752 460.88733 
L 115.14704 459.187855 
L 114.92384 459.696295 
L 114.69568 459.733381 
L 114.24432 458.443114 
L 114.02112 458.207314 
L 113.79792 456.96679 
L 113.56976 457.549652 
L 113.34656 456.395955 
L 113.12336 455.974095 
L 112.672 457.660791 
L 112.4488 457.263739 
L 112.0024 458.950437 
L 111.7792 460.773702 
L 111.556 460.475882 
L 111.3328 463.080601 
L 111.1096 463.440193 
L 110.8864 464.171906 
L 110.6632 463.253886 
L 110.44 464.878687 
L 110.22176 464.779334 
L 109.99856 465.238159 
L 109.77536 467.086233 
L 109.55216 467.346593 
L 109.33392 467.37128 
L 109.11072 467.222308 
L 108.66928 465.721179 
L 108.44608 466.428084 
L 108.22784 466.217095 
L 108.00464 466.266587 
L 107.7864 464.443077 
L 107.5632 464.033621 
L 107.34496 462.780695 
L 107.12176 465.025697 
L 106.90352 465.608565 
L 106.46208 463.995799 
L 106.24384 464.52905 
L 106.0256 466.439147 
L 105.80736 467.332115 
L 105.58416 465.992358 
L 105.36592 468.522655 
L 105.14768 469.279179 
L 104.92944 469.31627 
L 104.7112 470.49453 
L 104.49296 470.457197 
L 104.27472 470.77958 
L 104.05648 471.374852 
L 103.83824 471.399539 
L 103.62 470.655177 
L 103.40176 472.478446 
L 103.18352 472.279861 
L 102.97024 473.023983 
L 102.752 472.502894 
L 102.53376 472.440753 
L 102.31552 472.192552 
L 102.10224 470.468276 
L 101.884 470.679024 
L 101.45248 470.195028 
L 101.23424 470.046059 
L 101.02096 471.06307 
L 100.80272 470.976121 
L 100.58944 470.343398 
L 100.3712 471.459638 
L 100.15792 470.802107 
L 99.94464 470.938433 
L 99.7264 472.637662 
L 99.29984 472.711849 
L 99.0816 473.034233 
L 98.22848 475.29129 
L 98.01024 474.819817 
L 97.79696 475.849231 
L 97.58368 476.047577 
L 97.3704 476.903336 
L 97.15712 476.717157 
L 96.94384 477.548108 
L 96.73056 476.394417 
L 96.51728 477.6347 
L 96.30896 477.423716 
L 96.09568 476.282429 
L 95.8824 476.679239 
L 95.66912 476.418637 
L 95.45584 476.356499 
L 95.24752 477.547168 
L 95.03424 476.864829 
L 94.82096 476.703459 
L 94.61264 475.983911 
L 94.39936 476.045813 
L 94.18608 475.834827 
L 93.55616 477.124495 
L 93.34288 476.801872 
L 93.13456 477.744462 
L 92.92624 477.595498 
L 92.50464 477.806133 
L 92.29632 478.202946 
L 91.87472 480.584282 
L 91.6664 479.988774 
L 91.45808 480.770111 
L 91.2448 479.889308 
L 91.03648 480.484585 
L 90.82816 480.534086 
L 90.61984 481.141767 
L 90.41152 480.992803 
L 90.2032 480.273256 
L 89.78656 480.707165 
L 89.57824 481.624946 
L 89.36992 479.900674 
L 89.1616 480.508355 
L 88.95328 480.508239 
L 88.74496 479.788691 
L 88.33328 481.103288 
L 88.12496 479.689116 
L 87.71328 480.581976 
L 87.50496 480.333781 
L 87.29664 480.829826 
L 87.09328 480.842117 
L 86.88496 481.338162 
L 86.6816 481.176797 
L 86.47328 481.871306 
L 85.85824 482.37953 
L 85.64992 483.123655 
L 85.44656 482.726614 
L 85.2432 483.284682 
L 85.03488 482.55273 
L 84.83152 483.569746 
L 84.62816 483.830118 
L 84.4248 483.805197 
L 84.21648 484.177202 
L 84.01312 483.395637 
L 83.80976 483.395524 
L 83.40304 484.027903 
L 83.19968 484.015386 
L 82.99632 483.308245 
L 82.79296 483.270921 
L 82.38624 483.680028 
L 82.18288 483.444239 
L 81.97952 484.002307 
L 81.5728 482.997357 
L 81.3744 484.051587 
L 80.76432 483.927209 
L 80.36256 484.026219 
L 80.1592 484.447842 
L 79.9608 484.187248 
L 79.55408 485.117324 
L 79.35568 484.559033 
L 79.15232 485.439605 
L 78.95392 485.303051 
L 78.75056 484.918414 
L 78.55216 486.059473 
L 78.35376 485.265507 
L 78.1504 485.848383 
L 77.952 485.228072 
L 77.7536 485.600083 
L 77.55024 485.41391 
L 77.35184 485.84794 
L 76.75168 485.835204 
L 76.55328 485.57461 
L 76.35488 485.053531 
L 76.15648 485.648814 
L 75.95808 485.437836 
L 75.75968 486.231583 
L 75.56128 485.388 
L 75.36288 485.499526 
L 74.76768 486.268245 
L 74.56928 486.082075 
L 74.17744 486.751674 
L 73.97904 486.49108 
L 73.78064 487.135979 
L 73.58224 486.614901 
L 73.3888 487.024126 
L 73.1904 486.837956 
L 72.992 487.209966 
L 72.79856 487.309091 
L 72.60016 487.085709 
L 72.20832 487.147512 
L 72.00992 486.824898 
L 72.00992 486.824898 
" clip-path="url(#pd54f8f2e46)" style="fill: none; stroke-dasharray: 3.7,1.6; stroke-dashoffset: 0; stroke: #1fa187"/>
   </g>
   <g id="line2d_14">
    <path d="M 72.00992 477.280793 
L 76.481723 475.658045 
L 80.953526 473.773989 
L 84.530968 472.057402 
L 88.10841 470.1363 
L 91.685852 467.992962 
L 95.263295 465.609106 
L 98.840737 462.966027 
L 102.418179 460.044754 
L 105.995621 456.826226 
L 109.573064 453.291504 
L 113.150506 449.421995 
L 116.727948 445.199707 
L 120.30539 440.607526 
L 123.882833 435.629512 
L 127.460275 430.251205 
L 131.037717 424.459962 
L 134.615159 418.245284 
L 138.192602 411.599165 
L 141.770044 404.516428 
L 145.347486 396.995068 
L 148.924928 389.036572 
L 153.396731 378.482172 
L 157.868534 367.272676 
L 162.340337 355.438157 
L 166.812139 343.019976 
L 172.178303 327.423269 
L 178.438827 308.416007 
L 185.593711 285.901094 
L 207.952725 214.774661 
L 213.318889 198.736178 
L 217.790691 186.031046 
L 222.262494 174.070753 
L 225.839937 165.127449 
L 229.417379 156.809846 
L 232.994821 149.179257 
L 235.677903 143.941775 
L 238.360984 139.145445 
L 241.044066 134.811004 
L 243.727148 130.957363 
L 246.410229 127.60147 
L 248.198951 125.648163 
L 249.987672 123.926594 
L 251.776393 122.440182 
L 253.565114 121.191885 
L 255.353835 120.184198 
L 257.142556 119.419137 
L 258.931277 118.898233 
L 260.719998 118.622534 
L 262.50872 118.592592 
L 264.297441 118.808468 
L 266.086162 119.269728 
L 267.874883 119.975446 
L 269.663604 120.924208 
L 271.452325 122.114114 
L 273.241046 123.542787 
L 275.029767 125.20738 
L 276.818488 127.104584 
L 279.50157 130.378198 
L 282.184652 134.152119 
L 284.867734 138.409728 
L 287.550815 143.132424 
L 290.233897 148.299758 
L 292.916979 153.889579 
L 296.494421 161.958724 
L 300.071863 170.676793 
L 303.649305 179.980295 
L 308.121108 192.331678 
L 312.592911 205.360146 
L 317.959074 221.695839 
L 325.113959 244.280439 
L 345.684252 309.834019 
L 351.944776 328.783654 
L 357.310939 344.319219 
L 361.782742 356.679771 
L 366.254545 368.451885 
L 370.726347 379.59538 
L 375.19815 390.081312 
L 379.669953 399.891373 
L 383.247395 407.246815 
L 386.824838 414.163999 
L 390.40228 420.646169 
L 393.979722 426.699611 
L 397.557164 432.333315 
L 401.134606 437.55863 
L 404.712049 442.388926 
L 408.289491 446.839261 
L 411.866933 450.926054 
L 415.444375 454.666786 
L 419.021818 458.079706 
L 422.59926 461.183567 
L 426.176702 463.99738 
L 429.754144 466.540195 
L 433.331587 468.830903 
L 436.909029 470.888064 
L 440.486471 472.729763 
L 444.958274 474.755465 
L 449.430077 476.504361 
L 453.90188 478.007096 
L 458.373682 479.292213 
L 463.739846 480.584034 
L 469.106009 481.641585 
L 475.366533 482.628006 
L 481.627057 483.395991 
L 488.781941 484.061042 
L 497.725547 484.649599 
L 508.457874 485.103745 
L 518.29584 485.358961 
L 518.29584 485.358961 
" clip-path="url(#pd54f8f2e46)" style="fill: none; stroke-dasharray: 3.7,1.6; stroke-dashoffset: 0; stroke: #46327e"/>
   </g>
   <g id="patch_3">
    <path d="M 72 506.4 
L 72 86.4 
" style="fill: none; stroke: #000000; stroke-width: 0.8; stroke-linejoin: miter; stroke-linecap: square"/>
   </g>
   <g id="patch_4">
    <path d="M 518.4 506.4 
L 518.4 86.4 
" style="fill: none; stroke: #000000; stroke-width: 0.8; stroke-linejoin: miter; stroke-linecap: square"/>
   </g>
   <g id="patch_5">
    <path d="M 72 506.4 
L 518.4 506.4 
" style="fill: none; stroke: #000000; stroke-width: 0.8; stroke-linejoin: miter; stroke-linecap: square"/>
   </g>
   <g id="patch_6">
    <path d="M 72 86.4 
L 518.4 86.4 
" style="fill: none; stroke: #000000; stroke-width: 0.8; stroke-linejoin: miter; stroke-linecap: square"/>
   </g>
   <g id="legend_1">
    <g id="patch_7">
     <path d="M 360.178125 123.75625 
L 511.4 123.75625 
Q 513.4 123.75625 513.4 121.75625 
L 513.4 93.4 
Q 513.4 91.4 511.4 91.4 
L 360.178125 91.4 
Q 358.178125 91.4 358.178125 93.4 
L 358.178125 121.75625 
Q 358.178125 123.75625 360.178125 123.75625 
z
" style="fill: #ffffff; opacity: 0.8; stroke: #cccccc; stroke-linejoin: miter"/>
    </g>
    <g id="line2d_15">
     <path d="M 362.178125 99.498437 
L 372.178125 99.498437 
L 382.178125 99.498437 
" style="fill: none; stroke-dasharray: 3.7,1.6; stroke-dashoffset: 0; stroke: #1fa187"/>
    </g>
    <g id="text_9">
     <!-- Baseline-corrected data -->
     <g transform="translate(390.178125 102.998437) scale(0.1 -0.1)">
      <defs>
       <path id="DejaVuSans-42" d="M 1259 2228 
L 1259 519 
L 2272 519 
Q 2781 519 3026 730 
Q 3272 941 3272 1375 
Q 3272 1813 3026 2020 
Q 2781 2228 2272 2228 
L 1259 2228 
z
M 1259 4147 
L 1259 2741 
L 2194 2741 
Q 2656 2741 2882 2914 
Q 3109 3088 3109 3444 
Q 3109 3797 2882 3972 
Q 2656 4147 2194 4147 
L 1259 4147 
z
M 628 4666 
L 2241 4666 
Q 2963 4666 3353 4366 
Q 3744 4066 3744 3513 
Q 3744 3084 3544 2831 
Q 3344 2578 2956 2516 
Q 3422 2416 3680 2098 
Q 3938 1781 3938 1306 
Q 3938 681 3513 340 
Q 3088 0 2303 0 
L 628 0 
L 628 4666 
z
" transform="scale(0.015625)"/>
       <path id="DejaVuSans-6c" d="M 603 4863 
L 1178 4863 
L 1178 0 
L 603 0 
L 603 4863 
z
" transform="scale(0.015625)"/>
       <path id="DejaVuSans-2d" d="M 313 2009 
L 1997 2009 
L 1997 1497 
L 313 1497 
L 313 2009 
z
" transform="scale(0.015625)"/>
       <path id="DejaVuSans-63" d="M 3122 3366 
L 3122 2828 
Q 2878 2963 2633 3030 
Q 2388 3097 2138 3097 
Q 1578 3097 1268 2742 
Q 959 2388 959 1747 
Q 959 1106 1268 751 
Q 1578 397 2138 397 
Q 2388 397 2633 464 
Q 2878 531 3122 666 
L 3122 134 
Q 2881 22 2623 -34 
Q 2366 -91 2075 -91 
Q 1284 -91 818 406 
Q 353 903 353 1747 
Q 353 2603 823 3093 
Q 1294 3584 2113 3584 
Q 2378 3584 2631 3529 
Q 2884 3475 3122 3366 
z
" transform="scale(0.015625)"/>
       <path id="DejaVuSans-6f" d="M 1959 3097 
Q 1497 3097 1228 2736 
Q 959 2375 959 1747 
Q 959 1119 1226 758 
Q 1494 397 1959 397 
Q 2419 397 2687 759 
Q 2956 1122 2956 1747 
Q 2956 2369 2687 2733 
Q 2419 3097 1959 3097 
z
M 1959 3584 
Q 2709 3584 3137 3096 
Q 3566 2609 3566 1747 
Q 3566 888 3137 398 
Q 2709 -91 1959 -91 
Q 1206 -91 779 398 
Q 353 888 353 1747 
Q 353 2609 779 3096 
Q 1206 3584 1959 3584 
z
" transform="scale(0.015625)"/>
       <path id="DejaVuSans-72" d="M 2631 2963 
Q 2534 3019 2420 3045 
Q 2306 3072 2169 3072 
Q 1681 3072 1420 2755 
Q 1159 2438 1159 1844 
L 1159 0 
L 581 0 
L 581 3500 
L 1159 3500 
L 1159 2956 
Q 1341 3275 1631 3429 
Q 1922 3584 2338 3584 
Q 2397 3584 2469 3576 
Q 2541 3569 2628 3553 
L 2631 2963 
z
" transform="scale(0.015625)"/>
       <path id="DejaVuSans-64" d="M 2906 2969 
L 2906 4863 
L 3481 4863 
L 3481 0 
L 2906 0 
L 2906 525 
Q 2725 213 2448 61 
Q 2172 -91 1784 -91 
Q 1150 -91 751 415 
Q 353 922 353 1747 
Q 353 2572 751 3078 
Q 1150 3584 1784 3584 
Q 2172 3584 2448 3432 
Q 2725 3281 2906 2969 
z
M 947 1747 
Q 947 1113 1208 752 
Q 1469 391 1925 391 
Q 2381 391 2643 752 
Q 2906 1113 2906 1747 
Q 2906 2381 2643 2742 
Q 2381 3103 1925 3103 
Q 1469 3103 1208 2742 
Q 947 2381 947 1747 
z
" transform="scale(0.015625)"/>
      </defs>
      <use xlink:href="#DejaVuSans-42"/>
      <use xlink:href="#DejaVuSans-61" transform="translate(68.603516 0)"/>
      <use xlink:href="#DejaVuSans-73" transform="translate(129.882812 0)"/>
      <use xlink:href="#DejaVuSans-65" transform="translate(181.982422 0)"/>
      <use xlink:href="#DejaVuSans-6c" transform="translate(243.505859 0)"/>
      <use xlink:href="#DejaVuSans-69" transform="translate(271.289062 0)"/>
      <use xlink:href="#DejaVuSans-6e" transform="translate(299.072266 0)"/>
      <use xlink:href="#DejaVuSans-65" transform="translate(362.451172 0)"/>
      <use xlink:href="#DejaVuSans-2d" transform="translate(423.974609 0)"/>
      <use xlink:href="#DejaVuSans-63" transform="translate(460.058594 0)"/>
      <use xlink:href="#DejaVuSans-6f" transform="translate(515.039062 0)"/>
      <use xlink:href="#DejaVuSans-72" transform="translate(576.220703 0)"/>
      <use xlink:href="#DejaVuSans-72" transform="translate(615.583984 0)"/>
      <use xlink:href="#DejaVuSans-65" transform="translate(654.447266 0)"/>
      <use xlink:href="#DejaVuSans-63" transform="translate(715.970703 0)"/>
      <use xlink:href="#DejaVuSans-74" transform="translate(770.951172 0)"/>
      <use xlink:href="#DejaVuSans-65" transform="translate(810.160156 0)"/>
      <use xlink:href="#DejaVuSans-64" transform="translate(871.683594 0)"/>
      <use xlink:href="#DejaVuSans-20" transform="translate(935.160156 0)"/>
      <use xlink:href="#DejaVuSans-64" transform="translate(966.947266 0)"/>
      <use xlink:href="#DejaVuSans-61" transform="translate(1030.423828 0)"/>
      <use xlink:href="#DejaVuSans-74" transform="translate(1091.703125 0)"/>
      <use xlink:href="#DejaVuSans-61" transform="translate(1130.912109 0)"/>
     </g>
    </g>
    <g id="line2d_16">
     <path d="M 362.178125 114.176562 
L 372.178125 114.176562 
L 382.178125 114.176562 
" style="fill: none; stroke-dasharray: 3.7,1.6; stroke-dashoffset: 0; stroke: #46327e"/>
    </g>
    <g id="text_10">
     <!-- Gaussian fit -->
     <g transform="translate(390.178125 117.676562) scale(0.1 -0.1)">
      <defs>
       <path id="DejaVuSans-47" d="M 3809 666 
L 3809 1919 
L 2778 1919 
L 2778 2438 
L 4434 2438 
L 4434 434 
Q 4069 175 3628 42 
Q 3188 -91 2688 -91 
Q 1594 -91 976 548 
Q 359 1188 359 2328 
Q 359 3472 976 4111 
Q 1594 4750 2688 4750 
Q 3144 4750 3555 4637 
Q 3966 4525 4313 4306 
L 4313 3634 
Q 3963 3931 3569 4081 
Q 3175 4231 2741 4231 
Q 1884 4231 1454 3753 
Q 1025 3275 1025 2328 
Q 1025 1384 1454 906 
Q 1884 428 2741 428 
Q 3075 428 3337 486 
Q 3600 544 3809 666 
z
" transform="scale(0.015625)"/>
       <path id="DejaVuSans-66" d="M 2375 4863 
L 2375 4384 
L 1825 4384 
Q 1516 4384 1395 4259 
Q 1275 4134 1275 3809 
L 1275 3500 
L 2222 3500 
L 2222 3053 
L 1275 3053 
L 1275 0 
L 697 0 
L 697 3053 
L 147 3053 
L 147 3500 
L 697 3500 
L 697 3744 
Q 697 4328 969 4595 
Q 1241 4863 1831 4863 
L 2375 4863 
z
" transform="scale(0.015625)"/>
      </defs>
      <use xlink:href="#DejaVuSans-47"/>
      <use xlink:href="#DejaVuSans-61" transform="translate(77.490234 0)"/>
      <use xlink:href="#DejaVuSans-75" transform="translate(138.769531 0)"/>
      <use xlink:href="#DejaVuSans-73" transform="translate(202.148438 0)"/>
      <use xlink:href="#DejaVuSans-73" transform="translate(254.248047 0)"/>
      <use xlink:href="#DejaVuSans-69" transform="translate(306.347656 0)"/>
      <use xlink:href="#DejaVuSans-61" transform="translate(334.130859 0)"/>
      <use xlink:href="#DejaVuSans-6e" transform="translate(395.410156 0)"/>
      <use xlink:href="#DejaVuSans-20" transform="translate(458.789062 0)"/>
      <use xlink:href="#DejaVuSans-66" transform="translate(490.576172 0)"/>
      <use xlink:href="#DejaVuSans-69" transform="translate(525.78125 0)"/>
      <use xlink:href="#DejaVuSans-74" transform="translate(553.564453 0)"/>
     </g>
    </g>
   </g>
  </g>
  <g id="axes_2">
   <g id="patch_8">
    <path d="M 72 640.8 
L 518.4 640.8 
L 518.4 556.8 
L 72 556.8 
z
" style="fill: #ffffff"/>
   </g>
   <g id="matplotlib.axis_3">
    <g id="xtick_6">
     <g id="line2d_17">
      <g>
       <use xlink:href="#m61ee9c2b67" x="72" y="640.8" style="stroke: #000000; stroke-width: 0.8"/>
      </g>
     </g>
     <g id="text_11">
      <!-- 1.2 -->
      <g transform="translate(64.048438 655.398437) scale(0.1 -0.1)">
       <use xlink:href="#DejaVuSans-31"/>
       <use xlink:href="#DejaVuSans-2e" transform="translate(63.623047 0)"/>
       <use xlink:href="#DejaVuSans-32" transform="translate(95.410156 0)"/>
      </g>
     </g>
    </g>
    <g id="xtick_7">
     <g id="line2d_18">
      <g>
       <use xlink:href="#m61ee9c2b67" x="171.2" y="640.8" style="stroke: #000000; stroke-width: 0.8"/>
      </g>
     </g>
     <g id="text_12">
      <!-- 1.4 -->
      <g transform="translate(163.248437 655.398437) scale(0.1 -0.1)">
       <defs>
        <path id="DejaVuSans-34" d="M 2419 4116 
L 825 1625 
L 2419 1625 
L 2419 4116 
z
M 2253 4666 
L 3047 4666 
L 3047 1625 
L 3713 1625 
L 3713 1100 
L 3047 1100 
L 3047 0 
L 2419 0 
L 2419 1100 
L 313 1100 
L 313 1709 
L 2253 4666 
z
" transform="scale(0.015625)"/>
       </defs>
       <use xlink:href="#DejaVuSans-31"/>
       <use xlink:href="#DejaVuSans-2e" transform="translate(63.623047 0)"/>
       <use xlink:href="#DejaVuSans-34" transform="translate(95.410156 0)"/>
      </g>
     </g>
    </g>
    <g id="xtick_8">
     <g id="line2d_19">
      <g>
       <use xlink:href="#m61ee9c2b67" x="270.4" y="640.8" style="stroke: #000000; stroke-width: 0.8"/>
      </g>
     </g>
     <g id="text_13">
      <!-- 1.6 -->
      <g transform="translate(262.448438 655.398437) scale(0.1 -0.1)">
       <defs>
        <path id="DejaVuSans-36" d="M 2113 2584 
Q 1688 2584 1439 2293 
Q 1191 2003 1191 1497 
Q 1191 994 1439 701 
Q 1688 409 2113 409 
Q 2538 409 2786 701 
Q 3034 994 3034 1497 
Q 3034 2003 2786 2293 
Q 2538 2584 2113 2584 
z
M 3366 4563 
L 3366 3988 
Q 3128 4100 2886 4159 
Q 2644 4219 2406 4219 
Q 1781 4219 1451 3797 
Q 1122 3375 1075 2522 
Q 1259 2794 1537 2939 
Q 1816 3084 2150 3084 
Q 2853 3084 3261 2657 
Q 3669 2231 3669 1497 
Q 3669 778 3244 343 
Q 2819 -91 2113 -91 
Q 1303 -91 875 529 
Q 447 1150 447 2328 
Q 447 3434 972 4092 
Q 1497 4750 2381 4750 
Q 2619 4750 2861 4703 
Q 3103 4656 3366 4563 
z
" transform="scale(0.015625)"/>
       </defs>
       <use xlink:href="#DejaVuSans-31"/>
       <use xlink:href="#DejaVuSans-2e" transform="translate(63.623047 0)"/>
       <use xlink:href="#DejaVuSans-36" transform="translate(95.410156 0)"/>
      </g>
     </g>
    </g>
    <g id="xtick_9">
     <g id="line2d_20">
      <g>
       <use xlink:href="#m61ee9c2b67" x="369.6" y="640.8" style="stroke: #000000; stroke-width: 0.8"/>
      </g>
     </g>
     <g id="text_14">
      <!-- 1.8 -->
      <g transform="translate(361.648438 655.398437) scale(0.1 -0.1)">
       <defs>
        <path id="DejaVuSans-38" d="M 2034 2216 
Q 1584 2216 1326 1975 
Q 1069 1734 1069 1313 
Q 1069 891 1326 650 
Q 1584 409 2034 409 
Q 2484 409 2743 651 
Q 3003 894 3003 1313 
Q 3003 1734 2745 1975 
Q 2488 2216 2034 2216 
z
M 1403 2484 
Q 997 2584 770 2862 
Q 544 3141 544 3541 
Q 544 4100 942 4425 
Q 1341 4750 2034 4750 
Q 2731 4750 3128 4425 
Q 3525 4100 3525 3541 
Q 3525 3141 3298 2862 
Q 3072 2584 2669 2484 
Q 3125 2378 3379 2068 
Q 3634 1759 3634 1313 
Q 3634 634 3220 271 
Q 2806 -91 2034 -91 
Q 1263 -91 848 271 
Q 434 634 434 1313 
Q 434 1759 690 2068 
Q 947 2378 1403 2484 
z
M 1172 3481 
Q 1172 3119 1398 2916 
Q 1625 2713 2034 2713 
Q 2441 2713 2670 2916 
Q 2900 3119 2900 3481 
Q 2900 3844 2670 4047 
Q 2441 4250 2034 4250 
Q 1625 4250 1398 4047 
Q 1172 3844 1172 3481 
z
" transform="scale(0.015625)"/>
       </defs>
       <use xlink:href="#DejaVuSans-31"/>
       <use xlink:href="#DejaVuSans-2e" transform="translate(63.623047 0)"/>
       <use xlink:href="#DejaVuSans-38" transform="translate(95.410156 0)"/>
      </g>
     </g>
    </g>
    <g id="xtick_10">
     <g id="line2d_21">
      <g>
       <use xlink:href="#m61ee9c2b67" x="468.8" y="640.8" style="stroke: #000000; stroke-width: 0.8"/>
      </g>
     </g>
     <g id="text_15">
      <!-- 2.0 -->
      <g transform="translate(460.848437 655.398437) scale(0.1 -0.1)">
       <use xlink:href="#DejaVuSans-32"/>
       <use xlink:href="#DejaVuSans-2e" transform="translate(63.623047 0)"/>
       <use xlink:href="#DejaVuSans-30" transform="translate(95.410156 0)"/>
      </g>
     </g>
    </g>
   </g>
   <g id="matplotlib.axis_4">
    <g id="ytick_8">
     <g id="line2d_22">
      <g>
       <use xlink:href="#mf0c095dd40" x="72" y="622.8" style="stroke: #000000; stroke-width: 0.8"/>
      </g>
     </g>
     <g id="text_16">
      <!-- −20 -->
      <g transform="translate(43.895313 626.599219) scale(0.1 -0.1)">
       <defs>
        <path id="DejaVuSans-2212" d="M 678 2272 
L 4684 2272 
L 4684 1741 
L 678 1741 
L 678 2272 
z
" transform="scale(0.015625)"/>
       </defs>
       <use xlink:href="#DejaVuSans-2212"/>
       <use xlink:href="#DejaVuSans-32" transform="translate(83.789062 0)"/>
       <use xlink:href="#DejaVuSans-30" transform="translate(147.412109 0)"/>
      </g>
     </g>
    </g>
    <g id="ytick_9">
     <g id="line2d_23">
      <g>
       <use xlink:href="#mf0c095dd40" x="72" y="598.8" style="stroke: #000000; stroke-width: 0.8"/>
      </g>
     </g>
     <g id="text_17">
      <!-- 0 -->
      <g transform="translate(58.6375 602.599219) scale(0.1 -0.1)">
       <use xlink:href="#DejaVuSans-30"/>
      </g>
     </g>
    </g>
    <g id="ytick_10">
     <g id="line2d_24">
      <g>
       <use xlink:href="#mf0c095dd40" x="72" y="574.8" style="stroke: #000000; stroke-width: 0.8"/>
      </g>
     </g>
     <g id="text_18">
      <!-- 20 -->
      <g transform="translate(52.275 578.599219) scale(0.1 -0.1)">
       <use xlink:href="#DejaVuSans-32"/>
       <use xlink:href="#DejaVuSans-30" transform="translate(63.623047 0)"/>
      </g>
     </g>
    </g>
    <g id="text_19">
     <!-- Residuals -->
     <g transform="translate(37.815625 622.520312) rotate(-90) scale(0.1 -0.1)">
      <defs>
       <path id="DejaVuSans-52" d="M 2841 2188 
Q 3044 2119 3236 1894 
Q 3428 1669 3622 1275 
L 4263 0 
L 3584 0 
L 2988 1197 
Q 2756 1666 2539 1819 
Q 2322 1972 1947 1972 
L 1259 1972 
L 1259 0 
L 628 0 
L 628 4666 
L 2053 4666 
Q 2853 4666 3247 4331 
Q 3641 3997 3641 3322 
Q 3641 2881 3436 2590 
Q 3231 2300 2841 2188 
z
M 1259 4147 
L 1259 2491 
L 2053 2491 
Q 2509 2491 2742 2702 
Q 2975 2913 2975 3322 
Q 2975 3731 2742 3939 
Q 2509 4147 2053 4147 
L 1259 4147 
z
" transform="scale(0.015625)"/>
      </defs>
      <use xlink:href="#DejaVuSans-52"/>
      <use xlink:href="#DejaVuSans-65" transform="translate(64.982422 0)"/>
      <use xlink:href="#DejaVuSans-73" transform="translate(126.505859 0)"/>
      <use xlink:href="#DejaVuSans-69" transform="translate(178.605469 0)"/>
      <use xlink:href="#DejaVuSans-64" transform="translate(206.388672 0)"/>
      <use xlink:href="#DejaVuSans-75" transform="translate(269.865234 0)"/>
      <use xlink:href="#DejaVuSans-61" transform="translate(333.244141 0)"/>
      <use xlink:href="#DejaVuSans-6c" transform="translate(394.523438 0)"/>
      <use xlink:href="#DejaVuSans-73" transform="translate(422.306641 0)"/>
     </g>
    </g>
   </g>
   <g id="line2d_25">
    <path d="M 518.29584 621.708445 
L 517.68576 616.401424 
L 517.07568 620.337733 
L 516.4656 614.603337 
L 515.85552 624.165281 
L 514.63536 613.919171 
L 514.03024 613.712498 
L 513.42016 614.473231 
L 512.81504 613.894842 
L 512.20992 622.240128 
L 511.6048 616.454141 
L 510.99968 619.117 
L 510.39952 614.271657 
L 509.7944 605.575035 
L 509.19424 609.494913 
L 508.58912 612.287673 
L 507.98896 612.838758 
L 507.3888 612.886869 
L 506.7936 609.39235 
L 506.19344 604.422689 
L 504.99808 608.031759 
L 504.40288 608.020546 
L 503.80768 602.190973 
L 503.21248 601.838218 
L 502.61728 597.735188 
L 502.02208 605.183655 
L 501.43184 607.354423 
L 500.83664 597.134901 
L 500.2464 601.968728 
L 499.65616 604.247683 
L 498.47568 597.131186 
L 497.88544 604.428352 
L 497.30016 600.85902 
L 496.70992 594.274496 
L 496.12464 598.983057 
L 495.53936 596.272727 
L 494.3688 602.09476 
L 493.78352 599.363493 
L 493.2032 603.835225 
L 492.61792 605.815015 
L 492.0376 598.924176 
L 491.45728 597.407809 
L 490.87696 594.63939 
L 490.29664 604.915146 
L 489.71632 595.800764 
L 489.136 595.903662 
L 488.56064 592.721848 
L 487.98528 597.643763 
L 487.40496 594.447307 
L 486.25424 592.71192 
L 485.67888 593.190529 
L 485.10848 600.578353 
L 484.53312 592.267814 
L 483.96272 590.454839 
L 483.38736 594.620864 
L 482.81696 593.654332 
L 482.24656 590.950764 
L 481.67616 595.939731 
L 481.11072 589.148322 
L 480.54032 591.326976 
L 479.96992 590.09551 
L 479.40448 583.088487 
L 478.83904 592.096194 
L 478.2736 589.473178 
L 477.70816 589.805093 
L 477.14272 591.402683 
L 476.57728 586.661061 
L 475.45136 590.01991 
L 474.89088 593.002334 
L 474.32544 589.037431 
L 473.76496 589.493995 
L 473.20448 584.676046 
L 472.64896 586.54919 
L 472.08848 585.433464 
L 471.528 590.207355 
L 470.97248 588.4052 
L 470.41696 587.134202 
L 469.85648 589.000539 
L 469.30096 586.450464 
L 468.74544 586.071019 
L 468.19488 587.390961 
L 467.63936 585.370256 
L 467.08384 583.979223 
L 466.53328 587.626804 
L 465.98272 585.952066 
L 465.43216 587.564026 
L 464.8816 587.039627 
L 464.33104 583.20083 
L 463.78048 588.775765 
L 463.22992 585.7296 
L 462.68432 585.754128 
L 462.13376 583.861863 
L 461.58816 585.621078 
L 461.04256 586.963976 
L 460.49696 582.512701 
L 459.95136 586.660502 
L 459.40576 584.919555 
L 458.86016 586.793886 
L 458.31952 586.792112 
L 457.77392 587.33014 
L 456.69264 582.647723 
L 456.152 581.786367 
L 455.61136 584.341222 
L 455.07072 581.685564 
L 454.53008 582.606477 
L 453.9944 580.045645 
L 453.45376 582.706798 
L 452.91808 580.320544 
L 452.3824 581.356251 
L 451.84672 587.089987 
L 451.31104 578.107165 
L 450.77536 582.336287 
L 450.23968 582.065497 
L 449.70896 584.902197 
L 449.17328 578.597235 
L 448.64256 584.080269 
L 448.11184 582.519252 
L 447.57616 578.636217 
L 447.04544 579.079397 
L 446.51472 582.062598 
L 445.98896 581.781898 
L 445.45824 583.198312 
L 444.93248 581.205275 
L 444.40176 580.591173 
L 443.876 581.851542 
L 443.35024 579.501921 
L 442.82448 580.659252 
L 442.29872 580.312094 
L 441.77296 581.276376 
L 441.2472 579.641668 
L 440.72144 580.695652 
L 440.20064 576.610257 
L 439.67984 579.918672 
L 439.15408 581.125395 
L 438.63328 576.51355 
L 438.11248 583.670432 
L 437.59168 579.114165 
L 437.07584 582.754877 
L 436.55504 580.215345 
L 436.03424 583.950105 
L 435.5184 583.798337 
L 435.00256 577.565626 
L 434.48176 581.328762 
L 433.96592 579.831614 
L 433.45008 580.884014 
L 432.93424 580.349225 
L 432.42336 579.188616 
L 431.90752 577.343479 
L 431.39664 577.985097 
L 430.8808 580.567917 
L 430.36992 580.147812 
L 429.85904 580.818354 
L 429.34816 576.977473 
L 428.83728 582.224072 
L 428.3264 585.606098 
L 427.81552 582.159255 
L 427.30464 580.014114 
L 426.79872 579.503454 
L 426.28784 583.448127 
L 425.78192 578.67253 
L 425.276 582.488497 
L 424.77008 581.355185 
L 424.26416 581.697174 
L 423.75824 578.333327 
L 423.25232 580.876153 
L 422.75136 579.430915 
L 422.24544 579.803292 
L 421.74448 581.023065 
L 421.24352 581.602807 
L 420.7376 580.00019 
L 420.23664 582.860736 
L 419.73568 579.36127 
L 419.23472 579.502847 
L 418.73872 577.721896 
L 418.23776 580.409495 
L 417.74176 581.214206 
L 417.2408 578.400946 
L 416.7448 578.303984 
L 416.2488 582.083626 
L 415.74784 579.682267 
L 415.25184 582.054001 
L 414.7608 579.43354 
L 414.2648 578.077878 
L 413.7688 579.25411 
L 413.27776 579.417521 
L 412.78176 577.028336 
L 412.29072 581.815046 
L 411.79968 580.340463 
L 411.30368 578.126498 
L 410.3216 583.588022 
L 409.83552 583.323455 
L 409.34448 580.603276 
L 408.85344 582.324404 
L 408.36736 581.145692 
L 407.87632 577.580595 
L 407.39024 581.297698 
L 406.90416 579.223288 
L 406.41808 576.066649 
L 405.44592 581.543771 
L 404.95984 576.763076 
L 404.47872 580.628077 
L 403.99264 581.40864 
L 403.51152 581.819083 
L 403.02544 581.712638 
L 402.0632 577.709369 
L 401.58208 581.164825 
L 401.10096 583.00533 
L 400.61984 581.582675 
L 400.13872 581.178061 
L 399.66256 581.927968 
L 399.18144 580.14519 
L 398.70528 584.8368 
L 398.22416 583.911604 
L 397.748 579.880501 
L 397.27184 582.617741 
L 396.79568 579.557683 
L 396.31952 581.383811 
L 395.84336 582.232525 
L 394.896 581.661393 
L 394.41984 583.521246 
L 393.94864 583.181754 
L 393.47744 583.30623 
L 393.00128 585.785913 
L 392.53008 580.115541 
L 392.05888 582.084096 
L 391.58768 581.900011 
L 391.11648 579.269802 
L 390.65024 581.839286 
L 390.17904 581.508911 
L 389.7128 579.555127 
L 389.2416 582.378502 
L 388.77536 582.051893 
L 388.30912 579.773764 
L 387.84288 580.191085 
L 387.37664 580.342524 
L 386.9104 583.364385 
L 386.44416 584.472852 
L 385.97792 582.18699 
L 385.51168 580.776786 
L 385.0504 583.053996 
L 384.58416 581.980993 
L 384.12288 584.318853 
L 383.6616 584.029932 
L 383.20032 582.66792 
L 382.73904 584.088679 
L 382.27776 583.996831 
L 381.81648 582.166726 
L 381.3552 584.859165 
L 380.89392 584.161063 
L 380.4376 581.893806 
L 379.97632 580.80336 
L 379.06368 584.485507 
L 378.60736 582.99805 
L 378.14608 584.082953 
L 377.68976 585.869069 
L 377.2384 584.381997 
L 376.78208 585.076876 
L 376.32576 585.287445 
L 375.86944 585.145551 
L 375.41808 586.315176 
L 374.96176 583.00984 
L 374.5104 584.139454 
L 374.05904 584.860203 
L 373.60768 583.2741 
L 373.15632 584.820545 
L 372.70496 584.911652 
L 372.2536 586.751782 
L 371.80224 586.321135 
L 370.90448 588.562014 
L 370.45312 586.352298 
L 370.00672 586.963741 
L 369.56032 588.331148 
L 369.11392 587.729924 
L 368.66256 587.585509 
L 368.21616 586.830731 
L 367.76976 588.198083 
L 367.32832 588.771088 
L 366.88192 590.004094 
L 366.43552 588.535753 
L 365.99408 589.215885 
L 365.54768 587.398236 
L 365.10624 587.13873 
L 364.65984 589.593625 
L 364.2184 590.665958 
L 363.77696 588.405832 
L 363.33552 587.045617 
L 362.45264 589.699553 
L 362.01616 589.134081 
L 361.57472 589.613627 
L 361.13328 591.473018 
L 360.6968 591.970048 
L 360.26032 595.131165 
L 359.81888 589.65912 
L 359.3824 589.736681 
L 358.94592 592.400625 
L 358.50944 591.678941 
L 358.07296 591.25153 
L 357.63648 593.527395 
L 357.2 593.610213 
L 356.76848 592.320242 
L 356.332 590.457774 
L 355.90048 592.614449 
L 355.464 593.743783 
L 355.03248 590.382578 
L 354.60096 594.702555 
L 354.16944 593.324167 
L 353.73296 590.921663 
L 353.30144 591.847679 
L 352.87488 595.974972 
L 352.44336 591.649816 
L 352.01184 592.572883 
L 351.58528 592.054582 
L 351.15376 591.85336 
L 350.7272 592.61466 
L 350.29568 595.487102 
L 349.86912 596.213846 
L 349.44256 595.833353 
L 348.58944 591.58479 
L 348.16288 594.820855 
L 347.73632 594.781874 
L 347.30976 594.132686 
L 346.8832 594.886488 
L 346.4616 594.12308 
L 346.03504 596.807278 
L 345.61344 594.92977 
L 345.19184 594.995013 
L 344.76528 597.64382 
L 344.34368 596.60784 
L 343.92208 597.000761 
L 343.50048 597.768792 
L 343.07888 597.686114 
L 342.66224 597.41701 
L 342.24064 597.369538 
L 341.81904 596.125261 
L 341.4024 597.239822 
L 340.9808 594.740088 
L 340.56416 600.196423 
L 340.14256 598.014635 
L 339.72592 598.309155 
L 339.30928 597.552765 
L 338.89264 601.684984 
L 338.476 601.693369 
L 338.05936 597.619108 
L 337.64272 598.057959 
L 337.23104 600.605498 
L 336.8144 595.286363 
L 336.39776 598.633358 
L 335.98608 599.724973 
L 335.5744 597.426613 
L 335.15776 598.584031 
L 334.74608 597.880562 
L 334.3344 599.679969 
L 333.51104 600.198706 
L 333.09936 597.226444 
L 332.68768 601.193536 
L 332.276 602.188779 
L 331.86928 600.164477 
L 331.4576 601.319066 
L 331.05088 601.129013 
L 330.6392 601.889799 
L 330.23248 602.18924 
L 329.82576 600.701201 
L 329.00736 600.164087 
L 328.60064 599.592324 
L 328.19392 601.368364 
L 327.79216 604.699332 
L 326.97872 601.162524 
L 326.57696 602.354262 
L 326.17024 605.143593 
L 325.76848 604.30398 
L 325.36176 601.592281 
L 324.96 601.959354 
L 324.55824 602.057925 
L 324.15648 602.402872 
L 323.74976 600.582004 
L 323.35296 601.519777 
L 322.9512 603.132271 
L 322.54944 600.252039 
L 321.74592 601.702022 
L 321.34912 601.594633 
L 320.94736 604.385988 
L 320.15376 606.327425 
L 319.752 605.981284 
L 318.9584 604.126963 
L 318.5616 606.059742 
L 318.1648 602.192566 
L 317.768 604.18287 
L 316.97936 601.455161 
L 316.58256 602.481045 
L 316.18576 605.641227 
L 315.79392 604.778917 
L 315.40208 605.863463 
L 315.00528 604.783329 
L 314.61344 605.019392 
L 314.2216 606.033177 
L 313.82976 604.742272 
L 313.43792 605.83574 
L 313.04608 604.44982 
L 312.65424 604.775802 
L 312.2624 603.424625 
L 311.87056 603.014622 
L 311.09184 603.718555 
L 310.7 603.563011 
L 310.31312 604.650298 
L 309.92624 608.816436 
L 309.5344 607.778892 
L 308.76064 606.84773 
L 308.37376 611.16909 
L 307.98688 607.471097 
L 307.6 605.963008 
L 307.21312 605.241957 
L 306.8312 605.597422 
L 306.44432 606.800588 
L 305.67552 604.995375 
L 305.28864 606.429581 
L 304.90672 603.450728 
L 304.5248 604.445547 
L 304.13792 607.279939 
L 303.756 607.202635 
L 303.37408 607.60301 
L 302.99216 607.746988 
L 302.61024 609.340199 
L 301.85136 606.424966 
L 301.46944 606.827902 
L 301.08752 606.310944 
L 300.71056 603.481783 
L 300.32864 605.338185 
L 299.56976 605.084757 
L 298.81584 605.813715 
L 298.43888 607.334014 
L 298.06192 608.22585 
L 297.68496 610.051089 
L 297.308 607.613367 
L 296.93104 607.395256 
L 296.55408 608.644546 
L 296.17712 605.909686 
L 295.80512 607.098018 
L 295.42816 602.862048 
L 295.05616 604.005834 
L 294.6792 601.982934 
L 294.3072 600.83873 
L 293.93024 602.180269 
L 293.55824 603.051701 
L 293.18624 602.675591 
L 292.81424 601.731212 
L 292.44224 603.304531 
L 292.07024 604.211089 
L 291.69824 604.445942 
L 291.32624 605.332659 
L 290.9592 605.805871 
L 290.5872 609.469398 
L 290.22016 609.098571 
L 289.84816 606.564015 
L 289.48112 604.946637 
L 289.10912 605.414891 
L 288.37504 602.408278 
L 288.00304 598.930663 
L 287.636 602.534741 
L 287.26896 604.171617 
L 286.90192 600.6035 
L 286.53984 601.648242 
L 286.1728 603.849603 
L 285.80576 604.029393 
L 285.43872 606.300877 
L 285.07664 607.561325 
L 284.7096 607.715487 
L 284.34752 607.465937 
L 283.98048 607.98224 
L 283.6184 604.991783 
L 283.25632 605.31637 
L 282.5272 602.087444 
L 281.80304 599.527973 
L 281.44096 602.129238 
L 281.07888 600.09208 
L 280.72176 601.907529 
L 280.35968 601.248067 
L 279.9976 603.508089 
L 279.64048 607.13196 
L 279.2784 605.987282 
L 278.92128 606.365211 
L 278.20208 605.283106 
L 277.84496 605.412367 
L 277.48288 601.576306 
L 277.12576 602.318702 
L 276.76864 602.180083 
L 276.41152 601.161917 
L 276.0544 598.412666 
L 275.69728 598.04949 
L 275.34512 598.629217 
L 274.988 599.001941 
L 274.63088 598.039446 
L 274.27872 600.557614 
L 273.9216 597.300585 
L 273.56944 602.405798 
L 273.21232 601.977316 
L 272.86016 603.499992 
L 272.508 606.559948 
L 272.15088 604.459384 
L 271.79872 605.781527 
L 271.44656 605.611733 
L 271.0944 605.815254 
L 270.74224 603.225944 
L 270.39008 602.55159 
L 270.04288 600.176838 
L 269.69072 601.711645 
L 268.99136 599.327429 
L 268.6392 595.951267 
L 267.93984 600.843336 
L 267.59264 599.457399 
L 267.24048 602.629597 
L 266.89328 600.500176 
L 266.54608 600.370495 
L 266.19888 605.68151 
L 265.85168 603.774635 
L 265.50448 604.899393 
L 265.15728 605.49532 
L 264.11568 600.302823 
L 263.77344 601.519793 
L 263.084 597.548983 
L 262.7368 596.679257 
L 262.39456 594.597565 
L 262.04736 595.384534 
L 261.70512 593.571623 
L 260.6784 598.871681 
L 260.33616 599.193792 
L 259.65168 603.792641 
L 259.30944 600.437051 
L 258.9672 603.711748 
L 258.62496 603.478869 
L 258.28768 602.899706 
L 257.94544 601.142019 
L 257.26592 593.295895 
L 256.92864 597.660534 
L 256.5864 593.995024 
L 256.24912 595.997092 
L 255.91184 594.438326 
L 255.5696 590.580175 
L 255.23232 591.029936 
L 254.89504 598.425431 
L 254.55776 597.573543 
L 254.22048 599.143975 
L 253.8832 598.324111 
L 253.55088 602.820663 
L 253.2136 598.84793 
L 252.87632 603.518122 
L 252.544 604.26486 
L 252.20672 601.094575 
L 251.86944 602.032919 
L 251.53712 595.689188 
L 251.2048 597.089125 
L 250.86752 593.099636 
L 250.5352 592.959539 
L 250.20288 595.736793 
L 249.87056 591.94116 
L 249.53328 592.704687 
L 249.20096 591.342739 
L 248.86864 596.413287 
L 248.54128 594.946817 
L 248.20896 594.316766 
L 247.87664 601.298565 
L 247.54432 599.766535 
L 247.212 601.374243 
L 246.88464 601.076885 
L 246.55232 598.364002 
L 246.22496 598.501059 
L 245.89264 601.606255 
L 245.56528 594.261296 
L 245.23792 595.869172 
L 244.9056 590.836802 
L 244.57824 589.460361 
L 244.25088 590.530563 
L 243.92352 588.810193 
L 243.59616 590.617799 
L 243.2688 591.180532 
L 242.94144 590.787429 
L 242.28672 598.440238 
L 241.95936 598.401563 
L 241.63696 602.417209 
L 241.3096 599.41393 
L 240.9872 603.263673 
L 240.65984 602.683501 
L 240.33744 598.773069 
L 239.68768 595.584249 
L 239.36528 592.714994 
L 239.03792 591.552646 
L 238.71552 590.97029 
L 238.39312 590.139001 
L 238.07072 589.877161 
L 237.74832 590.480925 
L 237.10352 590.26816 
L 236.78112 594.718151 
L 236.45872 594.99504 
L 236.14128 597.48328 
L 235.81888 598.283044 
L 235.49648 598.017285 
L 235.17904 603.080772 
L 234.85664 598.000476 
L 234.5392 595.61074 
L 234.22176 598.069177 
L 233.58192 592.03127 
L 233.26448 591.62188 
L 232.94704 590.873017 
L 232.62464 588.639835 
L 232.3072 589.317707 
L 231.98976 587.077687 
L 231.35984 588.540447 
L 231.0424 590.130602 
L 230.72496 590.267854 
L 230.40752 592.135367 
L 230.09504 594.679033 
L 229.7776 594.561237 
L 229.46016 596.598737 
L 229.14768 597.633519 
L 228.83024 600.462393 
L 228.51776 599.449782 
L 228.20528 601.362317 
L 227.57536 599.829474 
L 227.26288 596.950692 
L 226.9504 596.723553 
L 226.63792 593.694765 
L 226.32544 593.740532 
L 226.01296 588.748481 
L 225.70048 585.668485 
L 225.388 588.694291 
L 225.07552 588.834858 
L 224.768 590.299508 
L 224.45552 585.514088 
L 224.14304 591.961112 
L 223.83552 594.351753 
L 223.52304 593.830715 
L 223.21552 596.835003 
L 222.90304 597.103176 
L 222.28304 601.660939 
L 221.97552 601.360234 
L 221.668 604.114712 
L 221.36048 602.00288 
L 221.05296 601.861436 
L 220.74544 597.961019 
L 220.43792 596.367104 
L 219.82288 588.73007 
L 219.51536 586.926166 
L 219.20784 586.457258 
L 218.90032 585.615964 
L 218.59776 588.047593 
L 218.29024 586.030738 
L 217.98272 591.456801 
L 217.37264 593.701459 
L 217.07008 595.693327 
L 216.76752 594.27572 
L 216.46 596.066906 
L 216.15744 602.249822 
L 215.85488 602.403094 
L 215.55232 605.145154 
L 215.24976 603.720913 
L 214.33712 601.144837 
L 214.03952 597.67963 
L 213.73696 596.948379 
L 213.4344 590.591507 
L 213.13184 591.557034 
L 212.82928 589.035975 
L 212.53168 590.126803 
L 212.22912 587.060625 
L 211.93152 588.291356 
L 211.62896 588.129838 
L 211.0288 590.204969 
L 210.7312 591.593759 
L 210.4336 595.211891 
L 210.13104 592.733755 
L 209.83344 597.848881 
L 209.53584 598.979283 
L 209.23824 602.159495 
L 208.64304 604.543785 
L 208.34544 603.524186 
L 208.04784 605.307604 
L 207.45264 596.056659 
L 207.15504 595.42668 
L 206.8624 591.184299 
L 206.5648 593.520243 
L 206.2672 587.763522 
L 205.97456 586.208973 
L 205.67696 587.31083 
L 205.38432 584.594123 
L 205.09168 585.053197 
L 204.79408 588.966918 
L 204.50144 590.650795 
L 204.2088 589.542998 
L 203.9112 592.119008 
L 203.32592 598.710446 
L 203.03328 601.073911 
L 202.74064 604.550323 
L 202.15536 602.664405 
L 201.57008 597.564872 
L 201.2824 596.882362 
L 200.98976 595.881068 
L 200.69712 588.573548 
L 200.40944 589.924903 
L 200.1168 589.558358 
L 199.82416 588.405056 
L 199.53648 585.19856 
L 199.2488 586.790923 
L 198.95616 585.924131 
L 198.66848 584.712484 
L 198.3808 584.141464 
L 198.08816 584.962438 
L 197.80048 587.388109 
L 197.5128 593.278309 
L 197.22512 591.997273 
L 196.93744 596.770893 
L 196.64976 597.067713 
L 196.36208 598.142225 
L 195.49904 606.464984 
L 195.21136 605.383835 
L 194.92864 606.848266 
L 194.64096 606.628948 
L 194.35328 600.106347 
L 193.78288 598.652984 
L 193.50016 595.60319 
L 193.21248 590.583871 
L 192.92976 591.019185 
L 192.35936 585.822461 
L 192.07664 586.394532 
L 191.79392 585.264935 
L 191.5112 587.37415 
L 191.22352 592.332209 
L 190.9408 591.897602 
L 190.65808 594.916253 
L 190.37536 595.952428 
L 189.80992 600.673729 
L 189.24944 604.832289 
L 188.96672 605.690164 
L 188.684 607.594896 
L 188.40624 607.004167 
L 187.8408 599.346532 
L 187.56304 599.545151 
L 186.44208 589.313081 
L 186.16432 589.96459 
L 185.88656 587.912381 
L 185.6088 589.415396 
L 185.32608 585.380089 
L 185.04832 585.337454 
L 184.77056 589.530182 
L 184.4928 590.222677 
L 184.21504 590.001144 
L 183.93728 593.439322 
L 183.65952 594.300888 
L 183.38176 596.119926 
L 182.8312 605.211837 
L 182.55344 601.469137 
L 182.27568 609.47296 
L 182.00288 609.280108 
L 181.72512 605.035397 
L 181.45232 604.246269 
L 181.17456 601.491313 
L 180.90176 596.191601 
L 180.624 595.080917 
L 180.3512 592.843097 
L 180.0784 588.260413 
L 179.80064 589.248351 
L 179.52784 587.341622 
L 179.25504 586.822021 
L 178.98224 589.357602 
L 178.70944 586.589312 
L 178.16384 595.090994 
L 177.89104 596.061037 
L 177.07264 605.090308 
L 176.79984 606.485295 
L 176.52704 609.266216 
L 176.2592 606.86579 
L 175.9864 605.868412 
L 175.7136 606.594735 
L 175.44576 602.442172 
L 175.17296 603.093691 
L 174.90512 598.500313 
L 174.63232 597.289093 
L 174.09168 593.038955 
L 173.82384 588.673053 
L 173.556 586.960911 
L 173.28816 589.152259 
L 173.01536 588.6659 
L 172.74752 590.737849 
L 172.47968 590.088772 
L 172.21184 597.529205 
L 171.67616 604.320014 
L 171.40832 601.767781 
L 171.14048 606.047549 
L 170.87264 606.253372 
L 170.6048 609.351137 
L 170.34192 609.397873 
L 170.07408 608.599757 
L 169.80624 604.626698 
L 169.54336 604.328655 
L 169.27552 600.086946 
L 169.00768 599.700513 
L 168.7448 598.821391 
L 168.47696 595.043199 
L 168.21408 593.190736 
L 167.94624 590.033962 
L 167.68336 589.748098 
L 167.42048 592.186778 
L 167.1576 588.686187 
L 166.88976 591.784561 
L 166.62688 592.302617 
L 166.364 595.713087 
L 166.10112 596.867264 
L 165.83824 596.233048 
L 165.57536 597.296196 
L 165.31248 602.114462 
L 165.0496 604.694115 
L 164.78672 609.584209 
L 164.52384 608.92709 
L 164.26096 610.621374 
L 163.47728 606.374537 
L 163.2144 605.917795 
L 162.95648 599.923525 
L 162.6936 601.118584 
L 162.1728 592.498 
L 161.90992 590.889011 
L 161.652 590.713223 
L 161.39408 587.806825 
L 161.1312 590.422445 
L 160.87328 590.023762 
L 160.61536 590.828983 
L 160.35248 590.790581 
L 159.57872 597.17494 
L 159.3208 598.951823 
L 159.06288 601.892117 
L 158.80496 607.172444 
L 158.54704 605.999567 
L 158.28912 606.48453 
L 158.0312 608.776112 
L 157.77328 609.914883 
L 157.52032 607.006558 
L 157.2624 611.216271 
L 157.00448 603.799914 
L 156.74656 606.089395 
L 156.4936 605.040422 
L 155.98272 597.515506 
L 155.7248 595.848699 
L 155.47184 595.258996 
L 155.21392 593.340275 
L 154.96096 593.302266 
L 154.70304 591.51114 
L 154.45008 590.694133 
L 154.19712 591.255805 
L 153.94416 596.016718 
L 153.68624 596.614231 
L 153.43328 595.462914 
L 153.18032 597.502543 
L 152.92736 602.215826 
L 152.6744 602.196334 
L 152.16848 609.492498 
L 151.91552 607.571301 
L 151.66256 609.392743 
L 151.4096 612.66611 
L 150.90864 610.205903 
L 150.65568 611.998926 
L 150.15472 606.257956 
L 149.90176 601.048533 
L 149.6488 603.235555 
L 149.4008 598.692503 
L 149.14784 599.737876 
L 148.89984 595.298171 
L 148.64688 594.967062 
L 148.39888 590.819729 
L 148.15088 594.399961 
L 147.89792 592.309327 
L 147.64992 592.815479 
L 147.40192 592.87028 
L 146.90096 598.58622 
L 146.65296 599.783102 
L 146.40496 603.132518 
L 146.15696 604.945037 
L 145.90896 604.75585 
L 145.66096 608.822036 
L 145.41296 610.037448 
L 145.16496 608.518335 
L 144.91696 612.340708 
L 144.66896 612.183174 
L 144.42592 613.372902 
L 144.17792 609.494759 
L 143.92992 608.367034 
L 143.68192 604.628324 
L 143.43888 604.599308 
L 143.19088 601.792565 
L 142.94288 601.426089 
L 142.69984 599.122303 
L 142.45184 598.926673 
L 142.2088 596.664945 
L 141.96576 597.52803 
L 141.71776 599.737088 
L 141.47472 597.761936 
L 140.74064 599.006981 
L 140.4976 604.037547 
L 140.2496 606.39939 
L 140.00656 607.15235 
L 139.52048 609.808892 
L 139.27744 613.571732 
L 139.0344 615.441251 
L 138.79136 616.292966 
L 138.54832 613.846003 
L 138.30528 613.447532 
L 138.06224 610.296986 
L 137.82416 610.852306 
L 137.58112 610.620118 
L 137.33808 608.285803 
L 137.09504 603.908066 
L 136.85696 602.880929 
L 136.61392 604.246554 
L 136.37088 599.472082 
L 136.1328 600.230479 
L 135.88976 600.56859 
L 135.40864 601.721444 
L 135.17056 598.889419 
L 134.93248 600.286323 
L 134.45136 603.950714 
L 134.21328 608.312467 
L 133.97024 605.637933 
L 133.73216 610.86139 
L 133.256 614.822708 
L 133.01792 614.615702 
L 132.77984 616.127236 
L 132.54176 615.442976 
L 132.30368 618.582961 
L 132.0656 617.031733 
L 131.58944 610.856352 
L 131.35136 613.539391 
L 131.11328 607.254059 
L 130.8752 607.860342 
L 130.63712 604.198452 
L 130.404 603.850359 
L 130.16592 605.323006 
L 129.92784 603.323406 
L 129.69472 604.889726 
L 129.45664 604.78271 
L 128.75232 609.675344 
L 128.51424 607.772178 
L 128.28112 609.736363 
L 128.04304 614.535118 
L 127.80992 613.040005 
L 127.33872 620.064231 
L 127.1056 617.461899 
L 126.87248 618.390812 
L 126.40624 617.815945 
L 126.16816 615.445581 
L 125.93504 614.868493 
L 125.70192 612.174678 
L 125.4688 614.060899 
L 125.00256 605.727913 
L 124.76944 607.544505 
L 124.30816 604.213814 
L 124.07504 605.74991 
L 123.84192 606.033164 
L 123.6088 606.017596 
L 123.38064 609.343073 
L 123.14752 609.706259 
L 122.9144 611.319044 
L 122.68624 614.703367 
L 122.45312 614.845503 
L 122.22496 617.089571 
L 121.99184 617.730989 
L 121.76368 619.28435 
L 121.53056 617.832444 
L 121.3024 618.088084 
L 121.06928 619.263143 
L 120.84112 615.187872 
L 120.61296 615.127624 
L 120.37984 613.37074 
L 120.15168 612.531171 
L 119.69536 609.075567 
L 119.4672 610.033124 
L 119.23904 610.453932 
L 119.00592 609.957694 
L 118.77776 610.589681 
L 118.5496 608.736936 
L 118.09328 609.442216 
L 117.87008 612.659059 
L 117.64192 611.915822 
L 117.41376 614.784697 
L 116.95744 615.736403 
L 116.72928 617.01855 
L 116.50608 620.195458 
L 116.27792 618.590058 
L 116.04976 619.648273 
L 115.82656 622.682831 
L 115.5984 622.272552 
L 115.3752 623.070314 
L 115.14704 619.738694 
L 114.92384 620.235863 
L 114.69568 619.907423 
L 114.24432 616.860809 
L 114.02112 616.051578 
L 113.79792 613.460598 
L 113.56976 614.083922 
L 113.34656 611.627427 
L 113.12336 610.465289 
L 112.672 612.672823 
L 112.4488 611.554096 
L 112.0024 613.816189 
L 111.7792 616.752775 
L 111.556 615.824054 
L 111.3328 620.230706 
L 111.1096 620.526034 
L 110.8864 621.51516 
L 110.6632 619.446461 
L 110.44 622.109694 
L 110.22176 621.573853 
L 109.99856 622.077245 
L 109.77536 625.206015 
L 109.55216 625.355002 
L 109.33392 625.067384 
L 109.11072 624.4414 
L 108.66928 620.881394 
L 108.44608 621.888948 
L 108.22784 621.139596 
L 108.00464 620.884606 
L 107.7864 616.991912 
L 107.5632 615.828095 
L 107.34496 613.012796 
L 107.12176 617.053788 
L 106.90352 617.852082 
L 106.46208 613.938837 
L 106.24384 614.642387 
L 106.0256 618.110969 
L 105.80736 619.562005 
L 105.58416 616.513677 
L 105.36592 621.289056 
L 105.14768 622.496707 
L 104.92944 622.248134 
L 104.7112 624.335404 
L 104.49296 623.94316 
L 104.27472 624.291736 
L 104.05648 625.209526 
L 103.83824 624.951451 
L 103.62 623.091173 
L 103.40176 626.589187 
L 103.18352 625.871156 
L 102.97024 627.142596 
L 102.752 625.74387 
L 102.53376 625.310821 
L 102.31552 624.48055 
L 102.10224 620.49891 
L 101.884 620.633632 
L 101.45248 618.963471 
L 101.23424 618.320544 
L 101.02096 620.219724 
L 100.80272 619.716523 
L 100.58944 618.022598 
L 100.3712 620.159048 
L 100.15792 618.403754 
L 99.94464 618.397048 
L 99.7264 621.861535 
L 99.29984 621.439026 
L 99.0816 621.863266 
L 98.22848 625.847497 
L 98.01024 624.488502 
L 97.79696 626.578056 
L 97.58368 626.767557 
L 97.3704 628.482772 
L 97.15712 627.790975 
L 96.94384 629.46873 
L 96.73056 626.514141 
L 96.51728 629.165469 
L 96.30896 628.421246 
L 96.09568 625.46533 
L 95.8824 626.143945 
L 95.45584 624.850095 
L 95.24752 627.453186 
L 95.03424 625.555042 
L 94.82096 624.905605 
L 94.61264 622.903463 
L 94.39936 622.787594 
L 94.18608 622.004983 
L 93.97776 622.809156 
L 93.76448 624.134991 
L 93.55616 624.404313 
L 93.34288 623.346698 
L 93.13456 625.443489 
L 92.92624 624.826226 
L 92.50464 624.859782 
L 92.29632 625.620099 
L 91.87472 631.205448 
L 91.6664 629.464313 
L 91.45808 631.248294 
L 91.2448 628.757127 
L 91.03648 630.074126 
L 90.82816 629.985137 
L 90.61984 631.352543 
L 90.41152 630.751896 
L 90.2032 628.649756 
L 89.78656 629.360261 
L 89.57824 631.583913 
L 89.36992 626.781231 
L 89.1616 628.185539 
L 88.95328 627.969351 
L 88.74496 625.813195 
L 88.33328 628.944479 
L 88.12496 624.878533 
L 87.91664 626.284558 
L 87.71328 626.890111 
L 87.50496 625.991465 
L 87.29664 627.14835 
L 87.09328 626.976377 
L 86.88496 628.149297 
L 86.6816 627.496927 
L 86.47328 629.242065 
L 85.85824 630.098923 
L 85.64992 632.029258 
L 85.44656 630.71161 
L 85.2432 632.13178 
L 85.03488 629.836714 
L 84.83152 632.597391 
L 84.62816 633.180136 
L 84.4248 632.936084 
L 84.21648 633.850756 
L 84.01312 631.384891 
L 83.80976 631.209284 
L 83.40304 632.74097 
L 83.19968 632.536268 
L 82.99632 630.24917 
L 82.79296 629.961889 
L 82.38624 630.852447 
L 82.18288 629.96483 
L 81.97952 631.497739 
L 81.5728 628.072517 
L 81.3744 631.158289 
L 81.17104 630.762928 
L 80.96768 630.713775 
L 80.76432 630.277976 
L 80.56592 630.389413 
L 80.36256 630.264732 
L 80.1592 631.43524 
L 79.9608 630.45426 
L 79.55408 633.109375 
L 79.35568 631.171764 
L 79.15232 633.855848 
L 78.95392 633.273896 
L 78.75056 631.87936 
L 78.55216 635.454921 
L 78.35376 632.724437 
L 78.1504 634.495784 
L 77.952 632.316193 
L 77.7536 633.407623 
L 77.55024 632.649745 
L 77.35184 633.9608 
L 77.15344 633.828819 
L 76.95504 633.947511 
L 76.75168 633.520811 
L 76.55328 632.506885 
L 76.35488 630.600209 
L 76.15648 632.493332 
L 75.95808 631.63792 
L 75.75968 634.235683 
L 75.56128 631.197191 
L 75.36288 631.449651 
L 74.76768 633.750788 
L 74.56928 632.973863 
L 74.17744 635.108254 
L 73.97904 634.066313 
L 73.78064 636.257515 
L 73.58224 634.278842 
L 73.3888 635.643529 
L 73.1904 634.862029 
L 72.992 636.10424 
L 72.79856 636.36445 
L 72.60016 635.444181 
L 72.20832 635.465597 
L 72.00992 634.167024 
L 72.00992 634.167024 
" clip-path="url(#p3d3f2ad17a)" style="fill: none; stroke-dasharray: 3.7,1.6; stroke-dashoffset: 0; stroke: #808080"/>
   </g>
   <g id="line2d_26">
    <path d="M 72 598.8 
L 518.4 598.8 
" clip-path="url(#p3d3f2ad17a)" style="fill: none; stroke-dasharray: 5.55,2.4; stroke-dashoffset: 0; stroke: #000000; stroke-width: 1.5"/>
   </g>
   <g id="patch_9">
    <path d="M 72 640.8 
L 72 556.8 
" style="fill: none; stroke: #000000; stroke-width: 0.8; stroke-linejoin: miter; stroke-linecap: square"/>
   </g>
   <g id="patch_10">
    <path d="M 518.4 640.8 
L 518.4 556.8 
" style="fill: none; stroke: #000000; stroke-width: 0.8; stroke-linejoin: miter; stroke-linecap: square"/>
   </g>
   <g id="patch_11">
    <path d="M 72 640.8 
L 518.4 640.8 
" style="fill: none; stroke: #000000; stroke-width: 0.8; stroke-linejoin: miter; stroke-linecap: square"/>
   </g>
   <g id="patch_12">
    <path d="M 72 556.8 
L 518.4 556.8 
" style="fill: none; stroke: #000000; stroke-width: 0.8; stroke-linejoin: miter; stroke-linecap: square"/>
   </g>
  </g>
  <g id="text_20">
   <!-- Photon energy (eV) -->
   <g transform="translate(229.8825 710.304375) scale(0.12 -0.12)">
    <defs>
     <path id="DejaVuSans-50" d="M 1259 4147 
L 1259 2394 
L 2053 2394 
Q 2494 2394 2734 2622 
Q 2975 2850 2975 3272 
Q 2975 3691 2734 3919 
Q 2494 4147 2053 4147 
L 1259 4147 
z
M 628 4666 
L 2053 4666 
Q 2838 4666 3239 4311 
Q 3641 3956 3641 3272 
Q 3641 2581 3239 2228 
Q 2838 1875 2053 1875 
L 1259 1875 
L 1259 0 
L 628 0 
L 628 4666 
z
" transform="scale(0.015625)"/>
     <path id="DejaVuSans-68" d="M 3513 2113 
L 3513 0 
L 2938 0 
L 2938 2094 
Q 2938 2591 2744 2837 
Q 2550 3084 2163 3084 
Q 1697 3084 1428 2787 
Q 1159 2491 1159 1978 
L 1159 0 
L 581 0 
L 581 4863 
L 1159 4863 
L 1159 2956 
Q 1366 3272 1645 3428 
Q 1925 3584 2291 3584 
Q 2894 3584 3203 3211 
Q 3513 2838 3513 2113 
z
" transform="scale(0.015625)"/>
     <path id="DejaVuSans-67" d="M 2906 1791 
Q 2906 2416 2648 2759 
Q 2391 3103 1925 3103 
Q 1463 3103 1205 2759 
Q 947 2416 947 1791 
Q 947 1169 1205 825 
Q 1463 481 1925 481 
Q 2391 481 2648 825 
Q 2906 1169 2906 1791 
z
M 3481 434 
Q 3481 -459 3084 -895 
Q 2688 -1331 1869 -1331 
Q 1566 -1331 1297 -1286 
Q 1028 -1241 775 -1147 
L 775 -588 
Q 1028 -725 1275 -790 
Q 1522 -856 1778 -856 
Q 2344 -856 2625 -561 
Q 2906 -266 2906 331 
L 2906 616 
Q 2728 306 2450 153 
Q 2172 0 1784 0 
Q 1141 0 747 490 
Q 353 981 353 1791 
Q 353 2603 747 3093 
Q 1141 3584 1784 3584 
Q 2172 3584 2450 3431 
Q 2728 3278 2906 2969 
L 2906 3500 
L 3481 3500 
L 3481 434 
z
" transform="scale(0.015625)"/>
     <path id="DejaVuSans-56" d="M 1831 0 
L 50 4666 
L 709 4666 
L 2188 738 
L 3669 4666 
L 4325 4666 
L 2547 0 
L 1831 0 
z
" transform="scale(0.015625)"/>
    </defs>
    <use xlink:href="#DejaVuSans-50"/>
    <use xlink:href="#DejaVuSans-68" transform="translate(60.302734 0)"/>
    <use xlink:href="#DejaVuSans-6f" transform="translate(123.681641 0)"/>
    <use xlink:href="#DejaVuSans-74" transform="translate(184.863281 0)"/>
    <use xlink:href="#DejaVuSans-6f" transform="translate(224.072266 0)"/>
    <use xlink:href="#DejaVuSans-6e" transform="translate(285.253906 0)"/>
    <use xlink:href="#DejaVuSans-20" transform="translate(348.632812 0)"/>
    <use xlink:href="#DejaVuSans-65" transform="translate(380.419922 0)"/>
    <use xlink:href="#DejaVuSans-6e" transform="translate(441.943359 0)"/>
    <use xlink:href="#DejaVuSans-65" transform="translate(505.322266 0)"/>
    <use xlink:href="#DejaVuSans-72" transform="translate(566.845703 0)"/>
    <use xlink:href="#DejaVuSans-67" transform="translate(606.208984 0)"/>
    <use xlink:href="#DejaVuSans-79" transform="translate(669.685547 0)"/>
    <use xlink:href="#DejaVuSans-20" transform="translate(728.865234 0)"/>
    <use xlink:href="#DejaVuSans-28" transform="translate(760.652344 0)"/>
    <use xlink:href="#DejaVuSans-65" transform="translate(799.666016 0)"/>
    <use xlink:href="#DejaVuSans-56" transform="translate(861.189453 0)"/>
    <use xlink:href="#DejaVuSans-29" transform="translate(929.597656 0)"/>
   </g>
  </g>
  <g id="text_21">
   <!-- Excitation power 0.6 mW -->
   <g transform="translate(212.689687 23.518125) scale(0.12 -0.12)">
    <defs>
     <path id="DejaVuSans-45" d="M 628 4666 
L 3578 4666 
L 3578 4134 
L 1259 4134 
L 1259 2753 
L 3481 2753 
L 3481 2222 
L 1259 2222 
L 1259 531 
L 3634 531 
L 3634 0 
L 628 0 
L 628 4666 
z
" transform="scale(0.015625)"/>
     <path id="DejaVuSans-78" d="M 3513 3500 
L 2247 1797 
L 3578 0 
L 2900 0 
L 1881 1375 
L 863 0 
L 184 0 
L 1544 1831 
L 300 3500 
L 978 3500 
L 1906 2253 
L 2834 3500 
L 3513 3500 
z
" transform="scale(0.015625)"/>
     <path id="DejaVuSans-70" d="M 1159 525 
L 1159 -1331 
L 581 -1331 
L 581 3500 
L 1159 3500 
L 1159 2969 
Q 1341 3281 1617 3432 
Q 1894 3584 2278 3584 
Q 2916 3584 3314 3078 
Q 3713 2572 3713 1747 
Q 3713 922 3314 415 
Q 2916 -91 2278 -91 
Q 1894 -91 1617 61 
Q 1341 213 1159 525 
z
M 3116 1747 
Q 3116 2381 2855 2742 
Q 2594 3103 2138 3103 
Q 1681 3103 1420 2742 
Q 1159 2381 1159 1747 
Q 1159 1113 1420 752 
Q 1681 391 2138 391 
Q 2594 391 2855 752 
Q 3116 1113 3116 1747 
z
" transform="scale(0.015625)"/>
     <path id="DejaVuSans-77" d="M 269 3500 
L 844 3500 
L 1563 769 
L 2278 3500 
L 2956 3500 
L 3675 769 
L 4391 3500 
L 4966 3500 
L 4050 0 
L 3372 0 
L 2619 2869 
L 1863 0 
L 1184 0 
L 269 3500 
z
" transform="scale(0.015625)"/>
     <path id="DejaVuSans-6d" d="M 3328 2828 
Q 3544 3216 3844 3400 
Q 4144 3584 4550 3584 
Q 5097 3584 5394 3201 
Q 5691 2819 5691 2113 
L 5691 0 
L 5113 0 
L 5113 2094 
Q 5113 2597 4934 2840 
Q 4756 3084 4391 3084 
Q 3944 3084 3684 2787 
Q 3425 2491 3425 1978 
L 3425 0 
L 2847 0 
L 2847 2094 
Q 2847 2600 2669 2842 
Q 2491 3084 2119 3084 
Q 1678 3084 1418 2786 
Q 1159 2488 1159 1978 
L 1159 0 
L 581 0 
L 581 3500 
L 1159 3500 
L 1159 2956 
Q 1356 3278 1631 3431 
Q 1906 3584 2284 3584 
Q 2666 3584 2933 3390 
Q 3200 3197 3328 2828 
z
" transform="scale(0.015625)"/>
     <path id="DejaVuSans-57" d="M 213 4666 
L 850 4666 
L 1831 722 
L 2809 4666 
L 3519 4666 
L 4500 722 
L 5478 4666 
L 6119 4666 
L 4947 0 
L 4153 0 
L 3169 4050 
L 2175 0 
L 1381 0 
L 213 4666 
z
" transform="scale(0.015625)"/>
    </defs>
    <use xlink:href="#DejaVuSans-45"/>
    <use xlink:href="#DejaVuSans-78" transform="translate(63.183594 0)"/>
    <use xlink:href="#DejaVuSans-63" transform="translate(120.613281 0)"/>
    <use xlink:href="#DejaVuSans-69" transform="translate(175.59375 0)"/>
    <use xlink:href="#DejaVuSans-74" transform="translate(203.376953 0)"/>
    <use xlink:href="#DejaVuSans-61" transform="translate(242.585938 0)"/>
    <use xlink:href="#DejaVuSans-74" transform="translate(303.865234 0)"/>
    <use xlink:href="#DejaVuSans-69" transform="translate(343.074219 0)"/>
    <use xlink:href="#DejaVuSans-6f" transform="translate(370.857422 0)"/>
    <use xlink:href="#DejaVuSans-6e" transform="translate(432.039062 0)"/>
    <use xlink:href="#DejaVuSans-20" transform="translate(495.417969 0)"/>
    <use xlink:href="#DejaVuSans-70" transform="translate(527.205078 0)"/>
    <use xlink:href="#DejaVuSans-6f" transform="translate(590.681641 0)"/>
    <use xlink:href="#DejaVuSans-77" transform="translate(651.863281 0)"/>
    <use xlink:href="#DejaVuSans-65" transform="translate(733.650391 0)"/>
    <use xlink:href="#DejaVuSans-72" transform="translate(795.173828 0)"/>
    <use xlink:href="#DejaVuSans-20" transform="translate(836.287109 0)"/>
    <use xlink:href="#DejaVuSans-30" transform="translate(868.074219 0)"/>
    <use xlink:href="#DejaVuSans-2e" transform="translate(931.697266 0)"/>
    <use xlink:href="#DejaVuSans-36" transform="translate(963.484375 0)"/>
    <use xlink:href="#DejaVuSans-20" transform="translate(1027.107422 0)"/>
    <use xlink:href="#DejaVuSans-6d" transform="translate(1058.894531 0)"/>
    <use xlink:href="#DejaVuSans-57" transform="translate(1156.306641 0)"/>
   </g>
  </g>
 </g>
 <defs>
  <clipPath id="pd54f8f2e46">
   <rect x="72" y="86.4" width="446.4" height="420"/>
  </clipPath>
  <clipPath id="p3d3f2ad17a">
   <rect x="72" y="556.8" width="446.4" height="84"/>
  </clipPath>
 </defs>
</svg>
