<?xml version="1.0" encoding="utf-8" standalone="no"?>
<!DOCTYPE svg PUBLIC "-//W3C//DTD SVG 1.1//EN"
  "http://www.w3.org/Graphics/SVG/1.1/DTD/svg11.dtd">
<svg xmlns:xlink="http://www.w3.org/1999/xlink" width="576pt" height="720pt" viewBox="0 0 576 720" xmlns="http://www.w3.org/2000/svg" version="1.1">
 <metadata>
  <rdf:RDF xmlns:dc="http://purl.org/dc/elements/1.1/" xmlns:cc="http://creativecommons.org/ns#" xmlns:rdf="http://www.w3.org/1999/02/22-rdf-syntax-ns#">
   <cc:Work>
    <dc:type rdf:resource="http://purl.org/dc/dcmitype/StillImage"/>
    <dc:date>2026-06-10T15:01:55.588704</dc:date>
    <dc:format>image/svg+xml</dc:format>
    <dc:creator>
     <cc:Agent>
      <dc:title>Matplotlib v3.10.0, https://matplotlib.org/</dc:title>
     </cc:Agent>
    </dc:creator>
   </cc:Work>
  </rdf:RDF>
 </metadata>
 <defs>
  <style type="text/css">*{stroke-linejoin: round; stroke-linecap: butt}</style>
 </defs>
 <g id="figure_1">
  <g id="patch_1">
   <path d="M 0 720 
L 576 720 
L 576 0 
L 0 0 
z
" style="fill: #ffffff"/>
  </g>
  <g id="axes_1">
   <g id="patch_2">
    <path d="M 72 506.4 
L 518.4 506.4 
L 518.4 86.4 
L 72 86.4 
z
" style="fill: #ffffff"/>
   </g>
   <g id="matplotlib.axis_1">
    <g id="xtick_1">
     <g id="line2d_1">
      <defs>
       <path id="md59d9971c5" d="M 0 0 
L 0 3.5 
" style="stroke: #000000; stroke-width: 0.8"/>
      </defs>
      <g>
       <use xlink:href="#md59d9971c5" x="72" y="506.4" style="stroke: #000000; stroke-width: 0.8"/>
      </g>
     </g>
    </g>
    <g id="xtick_2">
     <g id="line2d_2">
      <g>
       <use xlink:href="#md59d9971c5" x="171.2" y="506.4" style="stroke: #000000; stroke-width: 0.8"/>
      </g>
     </g>
    </g>
    <g id="xtick_3">
     <g id="line2d_3">
      <g>
       <use xlink:href="#md59d9971c5" x="270.4" y="506.4" style="stroke: #000000; stroke-width: 0.8"/>
      </g>
     </g>
    </g>
    <g id="xtick_4">
     <g id="line2d_4">
      <g>
       <use xlink:href="#md59d9971c5" x="369.6" y="506.4" style="stroke: #000000; stroke-width: 0.8"/>
      </g>
     </g>
    </g>
    <g id="xtick_5">
     <g id="line2d_5">
      <g>
       <use xlink:href="#md59d9971c5" x="468.8" y="506.4" style="stroke: #000000; stroke-width: 0.8"/>
      </g>
     </g>
    </g>
   </g>
   <g id="matplotlib.axis_2">
    <g id="ytick_1">
     <g id="line2d_6">
      <defs>
       <path id="m61ea151b2d" d="M 0 0 
L -3.5 0 
" style="stroke: #000000; stroke-width: 0.8"/>
      </defs>
      <g>
       <use xlink:href="#m61ea151b2d" x="72" y="485.521375" style="stroke: #000000; stroke-width: 0.8"/>
      </g>
     </g>
     <g id="text_1">
      <!-- 0 -->
      <g transform="translate(58.6375 489.320594) scale(0.1 -0.1)">
       <defs>
        <path id="DejaVuSans-30" d="M 2034 4250 
Q 1547 4250 1301 3770 
Q 1056 3291 1056 2328 
Q 1056 1369 1301 889 
Q 1547 409 2034 409 
Q 2525 409 2770 889 
Q 3016 1369 3016 2328 
Q 3016 3291 2770 3770 
Q 2525 4250 2034 4250 
z
M 2034 4750 
Q 2819 4750 3233 4129 
Q 3647 3509 3647 2328 
Q 3647 1150 3233 529 
Q 2819 -91 2034 -91 
Q 1250 -91 836 529 
Q 422 1150 422 2328 
Q 422 3509 836 4129 
Q 1250 4750 2034 4750 
z
" transform="scale(0.015625)"/>
       </defs>
       <use xlink:href="#DejaVuSans-30"/>
      </g>
     </g>
    </g>
    <g id="ytick_2">
     <g id="line2d_7">
      <g>
       <use xlink:href="#m61ea151b2d" x="72" y="417.267279" style="stroke: #000000; stroke-width: 0.8"/>
      </g>
     </g>
     <g id="text_2">
      <!-- 5000 -->
      <g transform="translate(39.55 421.066498) scale(0.1 -0.1)">
       <defs>
        <path id="DejaVuSans-35" d="M 691 4666 
L 3169 4666 
L 3169 4134 
L 1269 4134 
L 1269 2991 
Q 1406 3038 1543 3061 
Q 1681 3084 1819 3084 
Q 2600 3084 3056 2656 
Q 3513 2228 3513 1497 
Q 3513 744 3044 326 
Q 2575 -91 1722 -91 
Q 1428 -91 1123 -41 
Q 819 9 494 109 
L 494 744 
Q 775 591 1075 516 
Q 1375 441 1709 441 
Q 2250 441 2565 725 
Q 2881 1009 2881 1497 
Q 2881 1984 2565 2268 
Q 2250 2553 1709 2553 
Q 1456 2553 1204 2497 
Q 953 2441 691 2322 
L 691 4666 
z
" transform="scale(0.015625)"/>
       </defs>
       <use xlink:href="#DejaVuSans-35"/>
       <use xlink:href="#DejaVuSans-30" transform="translate(63.623047 0)"/>
       <use xlink:href="#DejaVuSans-30" transform="translate(127.246094 0)"/>
       <use xlink:href="#DejaVuSans-30" transform="translate(190.869141 0)"/>
      </g>
     </g>
    </g>
    <g id="ytick_3">
     <g id="line2d_8">
      <g>
       <use xlink:href="#m61ea151b2d" x="72" y="349.013183" style="stroke: #000000; stroke-width: 0.8"/>
      </g>
     </g>
     <g id="text_3">
      <!-- 10000 -->
      <g transform="translate(33.1875 352.812401) scale(0.1 -0.1)">
       <defs>
        <path id="DejaVuSans-31" d="M 794 531 
L 1825 531 
L 1825 4091 
L 703 3866 
L 703 4441 
L 1819 4666 
L 2450 4666 
L 2450 531 
L 3481 531 
L 3481 0 
L 794 0 
L 794 531 
z
" transform="scale(0.015625)"/>
       </defs>
       <use xlink:href="#DejaVuSans-31"/>
       <use xlink:href="#DejaVuSans-30" transform="translate(63.623047 0)"/>
       <use xlink:href="#DejaVuSans-30" transform="translate(127.246094 0)"/>
       <use xlink:href="#DejaVuSans-30" transform="translate(190.869141 0)"/>
       <use xlink:href="#DejaVuSans-30" transform="translate(254.492188 0)"/>
      </g>
     </g>
    </g>
    <g id="ytick_4">
     <g id="line2d_9">
      <g>
       <use xlink:href="#m61ea151b2d" x="72" y="280.759086" style="stroke: #000000; stroke-width: 0.8"/>
      </g>
     </g>
     <g id="text_4">
      <!-- 15000 -->
      <g transform="translate(33.1875 284.558305) scale(0.1 -0.1)">
       <use xlink:href="#DejaVuSans-31"/>
       <use xlink:href="#DejaVuSans-35" transform="translate(63.623047 0)"/>
       <use xlink:href="#DejaVuSans-30" transform="translate(127.246094 0)"/>
       <use xlink:href="#DejaVuSans-30" transform="translate(190.869141 0)"/>
       <use xlink:href="#DejaVuSans-30" transform="translate(254.492188 0)"/>
      </g>
     </g>
    </g>
    <g id="ytick_5">
     <g id="line2d_10">
      <g>
       <use xlink:href="#m61ea151b2d" x="72" y="212.50499" style="stroke: #000000; stroke-width: 0.8"/>
      </g>
     </g>
     <g id="text_5">
      <!-- 20000 -->
      <g transform="translate(33.1875 216.304209) scale(0.1 -0.1)">
       <defs>
        <path id="DejaVuSans-32" d="M 1228 531 
L 3431 531 
L 3431 0 
L 469 0 
L 469 531 
Q 828 903 1448 1529 
Q 2069 2156 2228 2338 
Q 2531 2678 2651 2914 
Q 2772 3150 2772 3378 
Q 2772 3750 2511 3984 
Q 2250 4219 1831 4219 
Q 1534 4219 1204 4116 
Q 875 4013 500 3803 
L 500 4441 
Q 881 4594 1212 4672 
Q 1544 4750 1819 4750 
Q 2544 4750 2975 4387 
Q 3406 4025 3406 3419 
Q 3406 3131 3298 2873 
Q 3191 2616 2906 2266 
Q 2828 2175 2409 1742 
Q 1991 1309 1228 531 
z
" transform="scale(0.015625)"/>
       </defs>
       <use xlink:href="#DejaVuSans-32"/>
       <use xlink:href="#DejaVuSans-30" transform="translate(63.623047 0)"/>
       <use xlink:href="#DejaVuSans-30" transform="translate(127.246094 0)"/>
       <use xlink:href="#DejaVuSans-30" transform="translate(190.869141 0)"/>
       <use xlink:href="#DejaVuSans-30" transform="translate(254.492188 0)"/>
      </g>
     </g>
    </g>
    <g id="ytick_6">
     <g id="line2d_11">
      <g>
       <use xlink:href="#m61ea151b2d" x="72" y="144.250894" style="stroke: #000000; stroke-width: 0.8"/>
      </g>
     </g>
     <g id="text_6">
      <!-- 25000 -->
      <g transform="translate(33.1875 148.050113) scale(0.1 -0.1)">
       <use xlink:href="#DejaVuSans-32"/>
       <use xlink:href="#DejaVuSans-35" transform="translate(63.623047 0)"/>
       <use xlink:href="#DejaVuSans-30" transform="translate(127.246094 0)"/>
       <use xlink:href="#DejaVuSans-30" transform="translate(190.869141 0)"/>
       <use xlink:href="#DejaVuSans-30" transform="translate(254.492188 0)"/>
      </g>
     </g>
    </g>
    <g id="text_7">
     <!-- Intensitiy (a.u.) -->
     <g transform="translate(27.107812 334.453125) rotate(-90) scale(0.1 -0.1)">
      <defs>
       <path id="DejaVuSans-49" d="M 628 4666 
L 1259 4666 
L 1259 0 
L 628 0 
L 628 4666 
z
" transform="scale(0.015625)"/>
       <path id="DejaVuSans-6e" d="M 3513 2113 
L 3513 0 
L 2938 0 
L 2938 2094 
Q 2938 2591 2744 2837 
Q 2550 3084 2163 3084 
Q 1697 3084 1428 2787 
Q 1159 2491 1159 1978 
L 1159 0 
L 581 0 
L 581 3500 
L 1159 3500 
L 1159 2956 
Q 1366 3272 1645 3428 
Q 1925 3584 2291 3584 
Q 2894 3584 3203 3211 
Q 3513 2838 3513 2113 
z
" transform="scale(0.015625)"/>
       <path id="DejaVuSans-74" d="M 1172 4494 
L 1172 3500 
L 2356 3500 
L 2356 3053 
L 1172 3053 
L 1172 1153 
Q 1172 725 1289 603 
Q 1406 481 1766 481 
L 2356 481 
L 2356 0 
L 1766 0 
Q 1100 0 847 248 
Q 594 497 594 1153 
L 594 3053 
L 172 3053 
L 172 3500 
L 594 3500 
L 594 4494 
L 1172 4494 
z
" transform="scale(0.015625)"/>
       <path id="DejaVuSans-65" d="M 3597 1894 
L 3597 1613 
L 953 1613 
Q 991 1019 1311 708 
Q 1631 397 2203 397 
Q 2534 397 2845 478 
Q 3156 559 3463 722 
L 3463 178 
Q 3153 47 2828 -22 
Q 2503 -91 2169 -91 
Q 1331 -91 842 396 
Q 353 884 353 1716 
Q 353 2575 817 3079 
Q 1281 3584 2069 3584 
Q 2775 3584 3186 3129 
Q 3597 2675 3597 1894 
z
M 3022 2063 
Q 3016 2534 2758 2815 
Q 2500 3097 2075 3097 
Q 1594 3097 1305 2825 
Q 1016 2553 972 2059 
L 3022 2063 
z
" transform="scale(0.015625)"/>
       <path id="DejaVuSans-73" d="M 2834 3397 
L 2834 2853 
Q 2591 2978 2328 3040 
Q 2066 3103 1784 3103 
Q 1356 3103 1142 2972 
Q 928 2841 928 2578 
Q 928 2378 1081 2264 
Q 1234 2150 1697 2047 
L 1894 2003 
Q 2506 1872 2764 1633 
Q 3022 1394 3022 966 
Q 3022 478 2636 193 
Q 2250 -91 1575 -91 
Q 1294 -91 989 -36 
Q 684 19 347 128 
L 347 722 
Q 666 556 975 473 
Q 1284 391 1588 391 
Q 1994 391 2212 530 
Q 2431 669 2431 922 
Q 2431 1156 2273 1281 
Q 2116 1406 1581 1522 
L 1381 1569 
Q 847 1681 609 1914 
Q 372 2147 372 2553 
Q 372 3047 722 3315 
Q 1072 3584 1716 3584 
Q 2034 3584 2315 3537 
Q 2597 3491 2834 3397 
z
" transform="scale(0.015625)"/>
       <path id="DejaVuSans-69" d="M 603 3500 
L 1178 3500 
L 1178 0 
L 603 0 
L 603 3500 
z
M 603 4863 
L 1178 4863 
L 1178 4134 
L 603 4134 
L 603 4863 
z
" transform="scale(0.015625)"/>
       <path id="DejaVuSans-79" d="M 2059 -325 
Q 1816 -950 1584 -1140 
Q 1353 -1331 966 -1331 
L 506 -1331 
L 506 -850 
L 844 -850 
Q 1081 -850 1212 -737 
Q 1344 -625 1503 -206 
L 1606 56 
L 191 3500 
L 800 3500 
L 1894 763 
L 2988 3500 
L 3597 3500 
L 2059 -325 
z
" transform="scale(0.015625)"/>
       <path id="DejaVuSans-20" transform="scale(0.015625)"/>
       <path id="DejaVuSans-28" d="M 1984 4856 
Q 1566 4138 1362 3434 
Q 1159 2731 1159 2009 
Q 1159 1288 1364 580 
Q 1569 -128 1984 -844 
L 1484 -844 
Q 1016 -109 783 600 
Q 550 1309 550 2009 
Q 550 2706 781 3412 
Q 1013 4119 1484 4856 
L 1984 4856 
z
" transform="scale(0.015625)"/>
       <path id="DejaVuSans-61" d="M 2194 1759 
Q 1497 1759 1228 1600 
Q 959 1441 959 1056 
Q 959 750 1161 570 
Q 1363 391 1709 391 
Q 2188 391 2477 730 
Q 2766 1069 2766 1631 
L 2766 1759 
L 2194 1759 
z
M 3341 1997 
L 3341 0 
L 2766 0 
L 2766 531 
Q 2569 213 2275 61 
Q 1981 -91 1556 -91 
Q 1019 -91 701 211 
Q 384 513 384 1019 
Q 384 1609 779 1909 
Q 1175 2209 1959 2209 
L 2766 2209 
L 2766 2266 
Q 2766 2663 2505 2880 
Q 2244 3097 1772 3097 
Q 1472 3097 1187 3025 
Q 903 2953 641 2809 
L 641 3341 
Q 956 3463 1253 3523 
Q 1550 3584 1831 3584 
Q 2591 3584 2966 3190 
Q 3341 2797 3341 1997 
z
" transform="scale(0.015625)"/>
       <path id="DejaVuSans-2e" d="M 684 794 
L 1344 794 
L 1344 0 
L 684 0 
L 684 794 
z
" transform="scale(0.015625)"/>
       <path id="DejaVuSans-75" d="M 544 1381 
L 544 3500 
L 1119 3500 
L 1119 1403 
Q 1119 906 1312 657 
Q 1506 409 1894 409 
Q 2359 409 2629 706 
Q 2900 1003 2900 1516 
L 2900 3500 
L 3475 3500 
L 3475 0 
L 2900 0 
L 2900 538 
Q 2691 219 2414 64 
Q 2138 -91 1772 -91 
Q 1169 -91 856 284 
Q 544 659 544 1381 
z
M 1991 3584 
L 1991 3584 
z
" transform="scale(0.015625)"/>
       <path id="DejaVuSans-29" d="M 513 4856 
L 1013 4856 
Q 1481 4119 1714 3412 
Q 1947 2706 1947 2009 
Q 1947 1309 1714 600 
Q 1481 -109 1013 -844 
L 513 -844 
Q 928 -128 1133 580 
Q 1338 1288 1338 2009 
Q 1338 2731 1133 3434 
Q 928 4138 513 4856 
z
" transform="scale(0.015625)"/>
      </defs>
      <use xlink:href="#DejaVuSans-49"/>
      <use xlink:href="#DejaVuSans-6e" transform="translate(29.492188 0)"/>
      <use xlink:href="#DejaVuSans-74" transform="translate(92.871094 0)"/>
      <use xlink:href="#DejaVuSans-65" transform="translate(132.080078 0)"/>
      <use xlink:href="#DejaVuSans-6e" transform="translate(193.603516 0)"/>
      <use xlink:href="#DejaVuSans-73" transform="translate(256.982422 0)"/>
      <use xlink:href="#DejaVuSans-69" transform="translate(309.082031 0)"/>
      <use xlink:href="#DejaVuSans-74" transform="translate(336.865234 0)"/>
      <use xlink:href="#DejaVuSans-69" transform="translate(376.074219 0)"/>
      <use xlink:href="#DejaVuSans-79" transform="translate(403.857422 0)"/>
      <use xlink:href="#DejaVuSans-20" transform="translate(463.037109 0)"/>
      <use xlink:href="#DejaVuSans-28" transform="translate(494.824219 0)"/>
      <use xlink:href="#DejaVuSans-61" transform="translate(533.837891 0)"/>
      <use xlink:href="#DejaVuSans-2e" transform="translate(595.117188 0)"/>
      <use xlink:href="#DejaVuSans-75" transform="translate(626.904297 0)"/>
      <use xlink:href="#DejaVuSans-2e" transform="translate(690.283203 0)"/>
      <use xlink:href="#DejaVuSans-29" transform="translate(722.070312 0)"/>
     </g>
    </g>
   </g>
   <g id="line2d_12">
    <path d="M 518.29584 486.390432 
L 517.68576 486.431447 
L 517.07568 486.158492 
L 516.4656 486.472522 
L 514.63536 486.390802 
L 514.03024 486.472768 
L 513.42016 486.268068 
L 512.81504 485.817652 
L 512.20992 485.749459 
L 511.6048 486.459363 
L 510.99968 485.763232 
L 510.39952 486.172817 
L 509.7944 486.03637 
L 509.19424 485.763415 
L 507.98896 485.49052 
L 507.3888 485.80455 
L 506.7936 485.954769 
L 506.19344 485.654511 
L 505.59328 485.599969 
L 504.99808 485.204155 
L 504.40288 485.340724 
L 503.80768 485.94142 
L 503.21248 485.054177 
L 502.02208 485.204456 
L 501.43184 484.754039 
L 500.83664 485.027115 
L 500.2464 485.436699 
L 499.65616 484.78152 
L 499.06592 484.972691 
L 498.47568 485.30037 
L 497.88544 485.122969 
L 496.70992 484.508801 
L 496.12464 484.276796 
L 495.53936 484.768285 
L 494.3688 484.413482 
L 493.78352 484.454494 
L 493.2032 484.045028 
L 492.61792 484.017785 
L 492.0376 484.154352 
L 491.45728 484.80965 
L 490.87696 483.963358 
L 490.29664 483.581194 
L 489.71632 483.635855 
L 489.136 483.56766 
L 488.56064 483.799782 
L 487.98528 483.376665 
L 487.40496 483.854502 
L 486.8296 483.158369 
L 486.25424 482.666997 
L 485.67888 482.708008 
L 485.10848 483.131241 
L 484.53312 482.844632 
L 483.96272 482.940245 
L 483.38736 482.694589 
L 482.24656 482.585497 
L 481.67616 481.99857 
L 481.11072 482.435453 
L 480.54032 481.971383 
L 479.96992 482.271759 
L 479.40448 482.067053 
L 478.83904 481.589332 
L 478.2736 481.862405 
L 477.14272 482.135536 
L 476.57728 481.275592 
L 475.45136 480.497609 
L 474.89088 480.634174 
L 474.32544 480.265659 
L 473.76496 480.552382 
L 472.64896 480.648051 
L 472.08848 480.416044 
L 471.528 480.593561 
L 470.97248 479.624409 
L 470.41696 479.54256 
L 469.85648 479.610871 
L 469.30096 479.406165 
L 468.19488 478.723736 
L 467.08384 478.778451 
L 466.53328 478.969618 
L 465.98272 478.369038 
L 465.43216 478.014172 
L 464.8816 477.850418 
L 464.33104 478.396507 
L 463.78048 478.068942 
L 463.22992 477.973442 
L 462.68432 477.618576 
L 462.13376 477.113552 
L 461.58816 476.990749 
L 460.49696 477.181971 
L 459.95136 476.649644 
L 458.31952 475.926316 
L 457.77392 475.202878 
L 457.23328 476.131188 
L 456.69264 474.08362 
L 456.152 474.479548 
L 455.61136 474.684365 
L 455.07072 473.660608 
L 454.53008 474.739078 
L 453.9944 474.629925 
L 453.45376 473.264898 
L 452.91808 473.032888 
L 452.3824 473.278657 
L 451.84672 473.647283 
L 451.31104 472.20035 
L 450.77536 473.169613 
L 450.23968 472.596333 
L 449.70896 471.026542 
L 449.17328 471.272311 
L 448.64256 471.258714 
L 448.11184 470.330512 
L 447.57616 471.299774 
L 447.04544 471.040462 
L 446.51472 469.811942 
L 445.98896 469.934852 
L 444.93248 469.661943 
L 443.876 468.269666 
L 442.82448 468.06501 
L 442.29872 468.583794 
L 441.77296 468.201624 
L 441.2472 467.601042 
L 440.72144 466.618236 
L 440.20064 466.823051 
L 439.67984 464.393257 
L 439.15408 466.290774 
L 438.11248 464.680083 
L 437.59168 463.451562 
L 437.07584 462.810026 
L 436.55504 464.025001 
L 436.03424 463.165052 
L 435.00256 464.188968 
L 434.48176 463.028701 
L 433.96592 461.48621 
L 433.45008 461.854835 
L 432.93424 461.2406 
L 432.42336 461.063191 
L 431.90752 461.882292 
L 431.39664 459.397895 
L 430.8808 459.27509 
L 430.36992 459.807523 
L 429.34816 459.02953 
L 428.83728 456.736244 
L 428.3264 457.241376 
L 427.81552 456.61349 
L 427.30464 458.08783 
L 426.79872 456.545338 
L 425.78192 455.234962 
L 425.276 454.83914 
L 424.77008 453.883634 
L 424.26416 454.088447 
L 423.75824 454.839293 
L 423.25232 453.979343 
L 422.75136 451.904469 
L 422.24544 450.607692 
L 421.74448 452.23219 
L 421.24352 450.867159 
L 420.7376 452.02753 
L 420.23664 449.406623 
L 419.73568 449.556833 
L 419.23472 449.256565 
L 418.73872 448.410265 
L 418.23776 446.895074 
L 417.74176 446.212583 
L 417.2408 447.80978 
L 416.7448 446.990781 
L 416.2488 444.001302 
L 415.74784 445.694054 
L 415.25184 445.011563 
L 414.7608 444.547485 
L 414.2648 443.837692 
L 413.7688 441.776469 
L 413.27776 442.199694 
L 412.78176 440.670852 
L 412.29072 441.462649 
L 411.30368 439.469729 
L 410.81264 441.694863 
L 409.83552 438.855591 
L 409.34448 439.060403 
L 408.85344 437.763625 
L 408.36736 436.890021 
L 407.87632 436.671658 
L 407.39024 433.354558 
L 406.90416 433.641274 
L 406.41808 434.514976 
L 405.44592 432.849674 
L 404.95984 431.402736 
L 404.47872 433.013582 
L 403.99264 430.310769 
L 403.51152 430.010499 
L 403.02544 427.949275 
L 402.54432 428.290594 
L 402.0632 426.993815 
L 401.58208 428.236088 
L 401.10096 425.724386 
L 400.61984 426.434277 
L 400.13872 424.564163 
L 399.66256 425.192149 
L 399.18144 422.89886 
L 398.70528 421.997954 
L 398.22416 421.520224 
L 397.748 420.537413 
L 397.27184 422.216512 
L 396.79568 418.558141 
L 396.31952 419.459143 
L 395.84336 418.872206 
L 395.3672 417.739236 
L 394.896 417.971347 
L 394.41984 414.490437 
L 393.94864 415.678106 
L 393.47744 412.374655 
L 393.00128 413.589626 
L 392.53008 413.398562 
L 392.05888 410.531938 
L 391.58768 409.508174 
L 391.11648 409.672031 
L 390.65024 408.86668 
L 390.17904 407.583551 
L 389.7128 407.146772 
L 389.2416 405.631578 
L 388.77536 405.331307 
L 388.30912 403.188176 
L 387.84288 405.058385 
L 387.37664 401.563823 
L 386.44416 400.212486 
L 385.97792 400.922376 
L 385.51168 398.833847 
L 385.0504 397.728178 
L 384.58416 399.502831 
L 384.12288 396.690809 
L 383.6616 395.380377 
L 383.20032 395.994711 
L 382.73904 392.732211 
L 382.27776 393.032576 
L 381.81648 390.82119 
L 381.3552 389.456155 
L 380.89392 389.4289 
L 380.4376 387.586085 
L 379.97632 388.855658 
L 379.52 387.44967 
L 379.06368 387.913844 
L 378.60736 385.08817 
L 378.14608 385.620599 
L 377.68976 382.016829 
L 377.2384 380.733697 
L 376.78208 383.068033 
L 376.32576 380.692837 
L 375.86944 381.266217 
L 375.41808 382.017058 
L 374.96176 379.095829 
L 374.5104 374.836819 
L 374.05904 375.178135 
L 373.60768 373.82675 
L 373.15632 372.038538 
L 372.70496 373.089697 
L 372.2536 370.782754 
L 371.80224 369.103749 
L 371.35088 371.287925 
L 370.90448 365.691135 
L 370.45312 367.35658 
L 370.00672 366.278211 
L 369.56032 366.387462 
L 369.11392 365.732268 
L 368.66256 361.623417 
L 368.21616 362.770131 
L 367.76976 361.705412 
L 367.32832 359.76704 
L 366.88192 360.995659 
L 366.43552 355.521726 
L 365.99408 358.483998 
L 365.54768 357.624042 
L 365.10624 353.446936 
L 364.2184 352.573373 
L 363.77696 353.228657 
L 362.89408 346.676353 
L 362.45264 347.55005 
L 362.01616 346.239615 
L 361.57472 345.884739 
L 361.13328 346.731134 
L 360.6968 345.43435 
L 360.26032 341.69407 
L 359.81888 346.226187 
L 359.3824 339.837647 
L 358.94592 341.298329 
L 358.50944 338.636464 
L 358.07296 339.537462 
L 357.63648 336.001944 
L 357.2 337.135006 
L 356.76848 333.503931 
L 356.332 336.384298 
L 355.90048 330.323378 
L 355.464 331.579298 
L 355.03248 328.630764 
L 354.16944 327.197516 
L 353.73296 327.047401 
L 353.30144 327.211254 
L 352.87488 330.159874 
L 352.44336 325.504989 
L 352.01184 319.171052 
L 351.58528 323.116182 
L 351.15376 318.884472 
L 350.7272 317.888005 
L 350.29568 319.130273 
L 349.86912 320.017619 
L 349.44256 312.632569 
L 348.58944 312.455195 
L 348.16288 311.035553 
L 347.73632 314.43465 
L 347.30976 310.708019 
L 346.8832 305.261386 
L 346.4616 306.681113 
L 346.03504 305.452583 
L 345.61344 305.780245 
L 345.19184 305.220604 
L 344.76528 305.821283 
L 344.34368 304.688308 
L 343.92208 306.585814 
L 343.50048 301.425847 
L 343.07888 300.92081 
L 342.66224 297.740211 
L 342.24064 298.832319 
L 341.81904 291.215204 
L 340.9808 296.866728 
L 340.56416 291.829618 
L 340.14256 291.665851 
L 339.72592 291.638591 
L 339.30928 289.959583 
L 338.89264 286.2193 
L 338.05936 288.335262 
L 337.64272 284.840694 
L 336.8144 280.704579 
L 336.39776 280.977638 
L 335.98608 276.841481 
L 335.5744 275.95422 
L 335.15776 272.978383 
L 334.74608 273.183187 
L 334.3344 272.841958 
L 333.92272 275.148988 
L 333.51104 269.306479 
L 333.09936 270.79446 
L 332.68768 269.688785 
L 332.276 272.173276 
L 331.86928 267.627594 
L 331.4576 269.02002 
L 331.05088 265.047672 
L 330.6392 268.255656 
L 330.23248 265.156962 
L 329.82576 260.461121 
L 329.41408 260.037987 
L 329.00736 258.195168 
L 328.60064 257.990446 
L 328.19392 254.495878 
L 327.79216 255.533381 
L 327.38544 255.096596 
L 326.97872 253.622348 
L 326.57696 254.427787 
L 326.17024 250.687504 
L 325.76848 255.683744 
L 325.36176 250.537426 
L 324.55824 246.07369 
L 324.15648 242.524517 
L 323.74976 242.128685 
L 323.35296 243.630315 
L 322.9512 238.415743 
L 322.54944 237.746893 
L 322.14768 230.866921 
L 321.74592 237.3511 
L 321.34912 237.869872 
L 320.94736 237.460388 
L 320.55056 236.382013 
L 320.15376 232.778237 
L 319.752 237.48781 
L 319.3552 234.64848 
L 318.9584 230.539623 
L 318.5616 231.795539 
L 318.1648 231.686372 
L 317.3712 223.755327 
L 316.97936 222.431237 
L 316.18576 221.325601 
L 315.79392 221.721514 
L 315.40208 221.6533 
L 315.00528 219.673971 
L 314.61344 220.083535 
L 314.2216 217.599126 
L 313.82976 212.835029 
L 313.43792 216.411583 
L 312.65424 209.722761 
L 312.2624 208.04375 
L 311.87056 208.38506 
L 311.48368 205.354617 
L 311.09184 205.436562 
L 310.7 208.002956 
L 310.31312 208.357916 
L 309.92624 211.757009 
L 309.5344 210.883396 
L 309.14752 210.80153 
L 308.76064 206.324101 
L 308.37376 206.952078 
L 307.98688 206.815608 
L 307.6 204.918184 
L 306.8312 194.038558 
L 306.44432 192.632563 
L 306.05744 196.168164 
L 305.67552 195.417408 
L 305.28864 191.513313 
L 304.90672 193.274307 
L 304.5248 190.107356 
L 304.13792 194.434704 
L 303.756 193.479186 
L 303.37408 198.74844 
L 302.99216 195.199266 
L 302.61024 189.971041 
L 302.22832 187.705044 
L 301.85136 187.759685 
L 301.46944 187.650517 
L 301.08752 181.862608 
L 300.71056 179.446451 
L 300.32864 184.265229 
L 299.95168 174.723345 
L 299.56976 179.228153 
L 299.1928 179.992637 
L 298.81584 182.518077 
L 298.43888 177.781281 
L 298.06192 181.180373 
L 297.68496 180.716283 
L 297.308 178.996318 
L 296.93104 175.870319 
L 296.55408 176.566549 
L 296.17712 173.577057 
L 295.80512 173.549793 
L 295.05616 166.151125 
L 294.3072 160.131189 
L 293.93024 156.145188 
L 293.55824 157.87888 
L 293.18624 157.75606 
L 292.81424 152.869104 
L 292.44224 160.458997 
L 292.07024 161.865069 
L 291.32624 159.244187 
L 290.9592 157.346761 
L 290.5872 162.329347 
L 289.84816 154.534804 
L 289.48112 157.1831 
L 289.10912 148.351058 
L 288.74208 149.470462 
L 288.37504 148.596847 
L 288.00304 149.402282 
L 287.636 146.631203 
L 286.90192 152.951607 
L 286.53984 145.757662 
L 285.80576 147.627898 
L 285.43872 149.962225 
L 285.07664 148.214957 
L 284.7096 150.221665 
L 284.34752 152.979167 
L 283.6184 145.498591 
L 283.25632 148.283395 
L 282.88928 143.655804 
L 282.5272 136.420907 
L 282.16512 135.642847 
L 281.80304 132.871767 
L 281.44096 134.127679 
L 281.07888 133.090253 
L 280.72176 136.530296 
L 280.35968 135.888744 
L 279.9976 139.178628 
L 279.64048 140.77581 
L 279.2784 140.298068 
L 278.92128 139.137784 
L 278.5592 140.803221 
L 278.20208 141.922624 
L 277.84496 134.988044 
L 277.48288 135.697923 
L 277.12576 132.981446 
L 276.76864 132.503704 
L 276.41152 129.664369 
L 276.0544 124.791063 
L 275.69728 122.770778 
L 275.34512 119.835887 
L 274.988 127.330223 
L 274.63088 125.978828 
L 274.27872 122.416 
L 273.9216 122.211274 
L 273.56944 124.72306 
L 273.21232 132.490412 
L 272.86016 130.633937 
L 272.508 135.753029 
L 272.15088 134.210523 
L 271.79872 135.39818 
L 271.44656 131.180112 
L 271.0944 128.572841 
L 270.74224 131.152882 
L 270.39008 125.637986 
L 270.04288 117.420228 
L 269.69072 120.737413 
L 269.33856 116.219027 
L 268.99136 118.621607 
L 268.6392 119.154024 
L 268.28704 120.32803 
L 267.93984 118.689967 
L 267.59264 121.392864 
L 267.24048 117.980195 
L 266.89328 126.375484 
L 266.54608 125.802185 
L 266.19888 125.556505 
L 265.85168 127.590512 
L 265.50448 125.269908 
L 265.15728 126.976295 
L 264.81008 125.379185 
L 264.46288 122.471595 
L 264.11568 120.847183 
L 263.77344 113.380219 
L 263.42624 117.434548 
L 263.084 114.950133 
L 262.7368 115.400645 
L 262.39456 115.07306 
L 262.04736 111.291818 
L 261.70512 113.667096 
L 261.36288 112.957288 
L 261.02064 113.58526 
L 260.6784 118.51324 
L 260.33616 119.755499 
L 259.99392 121.898713 
L 259.65168 125.502563 
L 259.30944 123.072752 
L 258.9672 121.980721 
L 258.62496 124.997587 
L 258.28768 120.492851 
L 257.94544 121.953523 
L 257.6032 109.599566 
L 257.26592 120.083429 
L 256.92864 108.848839 
L 256.5864 107.565697 
L 256.24912 107.142555 
L 255.91184 105.695603 
L 255.5696 106.760401 
L 255.23232 105.490909 
L 254.89504 116.984933 
L 254.55776 115.292265 
L 254.22048 114.841823 
L 253.8832 120.042819 
L 253.55088 131.304778 
L 253.2136 125.94004 
L 252.87632 126.677219 
L 252.544 125.435028 
L 252.20672 126.609032 
L 251.53712 122.636712 
L 251.2048 114.118634 
L 250.86752 111.757076 
L 250.5352 107.962182 
L 250.20288 108.917773 
L 249.87056 107.675582 
L 249.53328 109.477524 
L 248.86864 106.092188 
L 248.20896 121.394823 
L 247.87664 122.978352 
L 247.54432 122.3914 
L 247.212 132.766057 
L 246.88464 129.121321 
L 246.55232 128.834687 
L 246.22496 126.773447 
L 245.89264 121.10839 
L 245.56528 119.811595 
L 244.9056 110.556407 
L 244.57824 111.662156 
L 244.25088 111.225363 
L 243.92352 113.62794 
L 243.59616 114.815595 
L 243.2688 109.942285 
L 242.94144 118.46043 
L 242.28672 127.128766 
L 241.95936 133.667541 
L 241.63696 132.507254 
L 240.9872 140.957177 
L 240.65984 139.61943 
L 240.33744 132.220719 
L 240.01008 131.647417 
L 239.68768 127.019822 
L 239.36528 130.61002 
L 239.03792 125.108773 
L 238.71552 117.464347 
L 238.39312 118.747556 
L 237.42592 125.777826 
L 237.10352 126.446749 
L 236.78112 130.391868 
L 236.45872 130.978886 
L 236.14128 140.479888 
L 235.81888 137.381185 
L 235.17904 147.414602 
L 234.5392 140.329891 
L 234.22176 141.381036 
L 233.89936 139.142335 
L 233.58192 131.729972 
L 233.26448 128.085235 
L 232.94704 132.480831 
L 232.62464 128.781492 
L 232.3072 135.156456 
L 231.98976 128.003459 
L 231.67232 132.385404 
L 231.35984 128.713365 
L 231.0424 136.439761 
L 230.72496 139.838847 
L 230.40752 141.763645 
L 230.09504 142.350662 
L 229.7776 147.647212 
L 229.46016 150.118042 
L 229.14768 157.05269 
L 228.83024 158.267645 
L 228.51776 162.171811 
L 228.20528 160.561045 
L 227.88784 160.629332 
L 227.57536 162.827145 
L 227.26288 159.305265 
L 226.9504 152.220522 
L 226.63792 156.943737 
L 226.32544 148.48026 
L 226.01296 146.132351 
L 225.70048 141.873327 
L 225.388 145.504477 
L 225.07552 143.53879 
L 224.45552 156.165861 
L 224.14304 153.613189 
L 223.83552 154.555127 
L 223.21552 167.072991 
L 222.90304 166.062861 
L 222.28304 180.723904 
L 221.97552 176.628689 
L 221.36048 182.839874 
L 220.43792 168.656766 
L 220.1304 162.855199 
L 219.82288 165.244124 
L 219.51536 162.077165 
L 219.20784 162.691483 
L 218.90032 160.916907 
L 218.59776 162.213766 
L 218.29024 167.44206 
L 217.98272 166.841455 
L 217.68016 167.182757 
L 217.07008 177.37998 
L 216.46 190.129907 
L 216.15744 186.239454 
L 215.85488 193.610927 
L 215.24976 201.364654 
L 214.94224 202.224686 
L 214.63968 195.767879 
L 214.33712 195.754259 
L 214.03952 191.399678 
L 213.73696 190.553358 
L 213.4344 185.25687 
L 213.13184 184.601662 
L 212.82928 184.792804 
L 212.53168 183.277593 
L 212.22912 183.769053 
L 211.93152 183.509717 
L 211.62896 189.024679 
L 211.0288 190.567282 
L 210.7312 195.713671 
L 210.4336 196.109575 
L 210.13104 203.863271 
L 209.53584 210.170009 
L 209.23824 211.535121 
L 208.94064 220.148818 
L 208.64304 214.251695 
L 208.34544 216.804428 
L 208.04784 221.909864 
L 207.75024 216.326709 
L 207.45264 216.081025 
L 207.15504 209.078185 
L 206.8624 205.993129 
L 206.5648 206.320779 
L 205.97456 197.475107 
L 205.67696 200.751334 
L 205.38432 200.150728 
L 204.79408 209.829218 
L 204.50144 209.378771 
L 204.2088 210.784835 
L 203.9112 220.476946 
L 203.32592 227.520828 
L 203.03328 230.22372 
L 202.74064 229.309145 
L 202.448 235.23363 
L 202.15536 233.895879 
L 201.86272 235.506705 
L 201.57008 236.175625 
L 201.2824 233.800412 
L 200.98976 229.172814 
L 200.69712 221.419178 
L 200.40944 222.838892 
L 200.1168 219.412566 
L 199.82416 223.617048 
L 199.53648 220.750405 
L 199.2488 221.542182 
L 198.95616 220.600305 
L 198.3808 222.743541 
L 198.08816 229.596282 
L 197.80048 227.603292 
L 197.5128 235.534447 
L 196.64976 246.810111 
L 195.49904 261.116285 
L 195.21136 259.860439 
L 194.92864 262.795394 
L 194.64096 262.699867 
L 194.35328 262.42688 
L 194.07056 260.95262 
L 193.78288 255.560576 
L 193.50016 254.741555 
L 193.21248 248.243794 
L 192.92976 249.158428 
L 192.35936 243.971174 
L 192.07664 246.947081 
L 191.79392 247.697905 
L 191.5112 251.765877 
L 191.22352 252.339241 
L 190.9408 257.0215 
L 190.65808 263.792335 
L 190.37536 263.683157 
L 190.09264 266.932081 
L 189.80992 275.259109 
L 189.53216 278.357873 
L 189.24944 284.063944 
L 188.96672 281.866191 
L 188.684 285.142416 
L 188.40624 282.90371 
L 188.12352 284.732948 
L 187.8408 281.811701 
L 187.56304 282.289508 
L 187.28032 274.890793 
L 187.00256 275.914632 
L 186.7248 270.467983 
L 186.44208 273.389287 
L 185.88656 267.710603 
L 185.6088 267.560472 
L 185.32608 271.778603 
L 185.04832 271.177995 
L 184.4928 274.672661 
L 184.21504 278.931745 
L 183.93728 279.87368 
L 183.38176 289.019785 
L 183.10896 295.217284 
L 182.8312 298.930335 
L 182.55344 299.831317 
L 182.27568 304.800243 
L 182.00288 306.574878 
L 181.72512 305.673952 
L 181.45232 300.513969 
L 181.17456 299.913361 
L 180.90176 295.76354 
L 180.624 295.231186 
L 180.3512 292.705812 
L 179.80064 291.682056 
L 179.52784 289.020174 
L 179.25504 290.344331 
L 178.98224 293.224682 
L 178.70944 293.72979 
L 178.43664 298.889827 
L 178.16384 301.251446 
L 177.89104 308.158788 
L 177.61824 309.646755 
L 176.79984 326.532901 
L 176.52704 322.260222 
L 176.2592 324.144062 
L 175.9864 321.48218 
L 175.44576 324.56732 
L 175.17296 320.731467 
L 174.90512 315.353072 
L 174.63232 317.509929 
L 174.36448 314.069949 
L 174.09168 312.704895 
L 173.82384 309.920155 
L 173.556 310.165897 
L 173.28816 313.332914 
L 173.01536 313.278338 
L 172.74752 318.015199 
L 172.47968 319.175546 
L 171.67616 329.372789 
L 171.40832 338.355056 
L 171.14048 337.781748 
L 170.87264 341.098924 
L 170.6048 341.713238 
L 170.34192 346.313591 
L 170.07408 342.764405 
L 169.80624 343.474275 
L 169.54336 338.833023 
L 169.27552 338.737494 
L 169.00768 337.22228 
L 168.7448 337.918498 
L 168.47696 333.755026 
L 168.21408 334.21918 
L 167.94624 333.836984 
L 167.68336 327.543983 
L 167.42048 331.120524 
L 167.1576 331.762139 
L 166.88976 333.495821 
L 166.62688 337.058711 
L 166.364 336.703816 
L 165.57536 347.815663 
L 165.31248 353.781097 
L 165.0496 356.797955 
L 164.78672 356.484013 
L 164.52384 360.49738 
L 164.26096 359.596453 
L 163.99808 360.265369 
L 163.74016 359.719363 
L 163.47728 361.439392 
L 163.2144 360.156242 
L 162.95648 354.231812 
L 162.6936 351.187706 
L 162.43072 351.96583 
L 162.1728 350.614425 
L 161.90992 346.737618 
L 161.652 346.805899 
L 161.39408 351.460854 
L 161.1312 348.307541 
L 160.87328 347.652328 
L 160.61536 351.570139 
L 160.35248 352.075246 
L 160.09456 356.006708 
L 159.83664 357.726738 
L 159.57872 360.702642 
L 159.3208 365.739821 
L 159.06288 366.313181 
L 158.80496 372.36052 
L 158.54704 372.619912 
L 158.28912 376.210103 
L 158.0312 374.012347 
L 157.77328 379.308891 
L 157.52032 378.708281 
L 157.2624 377.616241 
L 157.00448 378.066744 
L 156.4936 374.422027 
L 156.23568 375.473166 
L 155.98272 372.074138 
L 155.47184 370.941172 
L 155.21392 370.340562 
L 154.70304 365.658382 
L 154.19712 373.043527 
L 153.94416 374.217523 
L 153.68624 370.873098 
L 153.43328 373.98551 
L 153.18032 378.572211 
L 152.92736 380.78367 
L 152.6744 384.251003 
L 152.16848 387.854871 
L 151.91552 390.666965 
L 151.66256 391.32223 
L 151.4096 395.171786 
L 151.15664 394.653081 
L 150.90864 395.663267 
L 150.65568 396.004563 
L 150.40272 393.233472 
L 150.15472 393.806831 
L 149.4008 387.554832 
L 149.14784 390.817404 
L 148.89984 387.759645 
L 148.39888 385.875883 
L 148.15088 386.135273 
L 147.89792 384.469899 
L 147.64992 384.893099 
L 147.40192 388.619798 
L 147.14896 390.025858 
L 146.90096 388.032864 
L 146.65296 394.8856 
L 145.66096 404.919052 
L 145.41296 403.731456 
L 145.16496 407.88133 
L 144.91696 409.983581 
L 144.66896 410.611544 
L 144.42592 410.570616 
L 143.92992 406.611929 
L 143.68192 407.04878 
L 143.43888 406.079597 
L 143.19088 404.427872 
L 142.94288 404.441548 
L 142.69984 399.418071 
L 142.45184 400.3054 
L 142.2088 402.830826 
L 141.96576 403.008311 
L 141.71776 403.772782 
L 141.47472 404.004871 
L 141.22672 405.793153 
L 140.98368 403.404284 
L 140.74064 408.018286 
L 140.4976 410.475458 
L 140.2496 411.649453 
L 140.00656 415.52631 
L 139.76352 416.031415 
L 139.52048 421.095894 
L 139.27744 419.512423 
L 139.0344 422.160707 
L 138.79136 422.720415 
L 138.54832 425.218539 
L 138.30528 423.580466 
L 138.06224 424.672556 
L 137.82416 421.696701 
L 137.33808 420.672939 
L 137.09504 419.539945 
L 136.85696 417.54695 
L 136.61392 419.908566 
L 136.37088 420.140655 
L 136.1328 414.967018 
L 135.65168 419.69025 
L 135.40864 418.666463 
L 135.17056 418.734742 
L 133.73216 426.570457 
L 133.49408 431.293665 
L 133.256 432.959089 
L 133.01792 433.477844 
L 132.77984 432.713422 
L 132.54176 436.249008 
L 132.30368 435.716651 
L 132.0656 434.529053 
L 131.58944 434.269736 
L 131.35136 432.181185 
L 131.11328 431.362159 
L 130.8752 429.000592 
L 130.63712 430.188237 
L 130.404 430.324769 
L 129.92784 431.362279 
L 129.69472 429.328331 
L 129.45664 428.768671 
L 129.22352 432.099495 
L 128.98544 432.850314 
L 128.28112 437.054837 
L 128.04304 438.133276 
L 127.5768 444.91778 
L 127.33872 445.50479 
L 127.1056 443.675603 
L 126.87248 444.72674 
L 126.63936 444.248985 
L 126.40624 442.952181 
L 125.93504 444.330961 
L 125.70192 442.037647 
L 125.4688 442.283385 
L 124.76944 439.839959 
L 124.54128 438.283789 
L 124.30816 438.584131 
L 124.07504 438.420344 
L 123.84192 442.160692 
L 123.6088 441.437223 
L 123.38064 441.546452 
L 123.14752 444.590608 
L 122.68624 446.870342 
L 122.45312 448.44021 
L 122.22496 448.276423 
L 121.76368 451.579968 
L 121.53056 451.798404 
L 121.3024 450.733664 
L 121.06928 450.856544 
L 120.84112 452.07149 
L 120.61296 451.129607 
L 120.37984 451.11598 
L 120.15168 449.450603 
L 119.92352 450.064913 
L 119.69536 448.112869 
L 119.4672 448.549718 
L 119.23904 448.604344 
L 119.00592 447.089127 
L 118.77776 449.000265 
L 118.09328 450.570178 
L 117.64192 453.805468 
L 117.41376 453.928348 
L 117.1856 453.750911 
L 116.95744 453.901093 
L 116.27792 458.146566 
L 116.04976 458.638019 
L 115.82656 460.194235 
L 115.5984 460.098702 
L 115.3752 459.839359 
L 115.14704 460.453669 
L 114.92384 461.859726 
L 114.69568 459.55276 
L 114.24432 458.815662 
L 114.02112 457.436952 
L 113.79792 458.03761 
L 113.34656 456.153843 
L 113.12336 455.512277 
L 112.90016 455.375791 
L 112.672 457.96947 
L 112.4488 458.747589 
L 112.2256 459.061581 
L 112.0024 458.638428 
L 111.556 463.074989 
L 111.3328 461.273104 
L 110.8864 462.269659 
L 110.6632 464.180796 
L 110.44 464.740502 
L 110.22176 464.262745 
L 109.99856 465.450389 
L 109.77536 465.791682 
L 109.55216 464.918052 
L 109.33392 466.952046 
L 109.11072 466.774608 
L 108.66928 465.163856 
L 108.44608 466.392453 
L 108.22784 466.296919 
L 108.00464 464.385827 
L 107.7864 466.051249 
L 107.34496 463.471289 
L 107.12176 463.908137 
L 106.90352 465.027527 
L 106.46208 465.655509 
L 106.24384 465.382515 
L 106.0256 464.563487 
L 105.80736 466.147005 
L 105.58416 466.447345 
L 105.36592 468.126418 
L 105.14768 467.566756 
L 104.7112 470.296964 
L 104.49296 469.300477 
L 104.27472 470.515422 
L 104.05648 470.965921 
L 103.83824 472.126262 
L 103.62 472.044379 
L 103.40176 472.385672 
L 103.18352 471.539343 
L 102.97024 472.467621 
L 102.752 471.894308 
L 102.53376 471.771473 
L 102.31552 470.993398 
L 102.10224 472.058184 
L 101.884 470.856934 
L 101.66576 471.457592 
L 101.45248 470.843326 
L 101.23424 470.747793 
L 101.02096 471.198291 
L 100.80272 471.034504 
L 100.58944 471.211986 
L 100.3712 470.543118 
L 100.15792 472.781874 
L 99.94464 471.1984 
L 99.7264 471.840011 
L 99.51312 471.498762 
L 99.29984 473.177834 
L 99.0816 473.054999 
L 98.65504 474.106155 
L 98.44176 473.573795 
L 98.22848 474.747787 
L 97.79696 475.962753 
L 97.3704 477.314227 
L 97.15712 477.136788 
L 96.94384 476.604428 
L 96.73056 476.713656 
L 96.51728 477.573679 
L 96.30896 475.921951 
L 96.09568 476.904832 
L 95.45584 476.208704 
L 95.24752 476.754758 
L 95.03424 476.072239 
L 94.82096 475.853847 
L 94.61264 475.444344 
L 94.39936 476.631987 
L 94.18608 476.399944 
L 93.97776 475.81298 
L 93.76448 476.891416 
L 93.55616 477.219057 
L 93.34288 476.045108 
L 93.13456 477.642275 
L 92.92624 477.423883 
L 92.71296 477.983588 
L 92.50464 477.342021 
L 92.29632 477.81982 
L 92.08304 479.635401 
L 91.87472 479.157643 
L 91.45808 480.754831 
L 91.2448 479.990407 
L 91.03648 479.990428 
L 90.82816 480.454577 
L 90.61984 481.232695 
L 90.41152 480.522873 
L 90.2032 480.932419 
L 89.99488 481.082599 
L 89.78656 480.645794 
L 89.57824 479.799464 
L 89.36992 480.495677 
L 89.1616 480.53665 
L 88.95328 479.963337 
L 88.74496 480.604947 
L 88.33328 479.922447 
L 88.12496 480.072627 
L 87.91664 479.826934 
L 87.71328 480.959972 
L 87.29664 480.400331 
L 87.09328 480.345748 
L 86.88496 481.956566 
L 86.6816 481.328649 
L 86.47328 481.205812 
L 86.26992 482.734724 
L 86.0616 482.229665 
L 84.83152 483.608522 
L 84.62816 483.130764 
L 84.4248 484.086342 
L 84.01312 483.117176 
L 83.80976 483.908944 
L 83.40304 482.980729 
L 83.19968 483.895354 
L 82.99632 483.349342 
L 82.5896 483.144621 
L 82.38624 483.335753 
L 81.97952 483.363096 
L 81.77616 483.690736 
L 80.96768 483.649865 
L 80.76432 483.254012 
L 80.56592 484.04578 
L 80.36256 483.922943 
L 79.75744 484.755704 
L 79.15232 485.34275 
L 78.95392 484.796738 
L 78.55216 485.479319 
L 78.35376 485.82061 
L 78.1504 485.233645 
L 77.952 485.288268 
L 77.7536 485.64321 
L 77.55024 485.274658 
L 77.15344 485.547715 
L 76.95504 485.861704 
L 76.75168 485.179183 
L 76.55328 485.370315 
L 76.35488 485.315731 
L 76.15648 484.988132 
L 75.95808 485.643391 
L 75.75968 485.62976 
L 75.56128 485.752638 
L 75.36288 485.356784 
L 75.16448 485.943789 
L 74.96608 485.848254 
L 74.76768 486.61272 
L 74.56928 486.148612 
L 74.37088 486.312442 
L 74.17744 486.28516 
L 73.97904 486.694704 
L 73.78064 486.353454 
L 73.58224 487.131571 
L 73.3888 487.036034 
L 73.1904 486.640181 
L 72.992 487.309091 
L 72.79856 487.008792 
L 72.60016 486.96786 
L 72.40176 486.353593 
L 72.20832 486.817741 
L 72.00992 486.722205 
L 72.00992 486.722205 
" clip-path="url(#p74cd607bf3)" style="fill: none; stroke-dasharray: 3.7,1.6; stroke-dashoffset: 0; stroke: #1fa187"/>
   </g>
   <g id="line2d_13">
    <path d="M 72.00992 477.145018 
L 76.481723 475.528806 
L 80.953526 473.650814 
L 84.530968 471.938538 
L 88.10841 470.021081 
L 91.685852 467.880523 
L 95.263295 465.498365 
L 98.840737 462.855663 
L 102.418179 459.933185 
L 105.995621 456.711595 
L 109.573064 453.171656 
L 113.150506 449.294467 
L 116.727948 445.061716 
L 120.30539 440.455962 
L 123.882833 435.460933 
L 127.460275 430.061844 
L 131.037717 424.24573 
L 134.615159 418.001787 
L 138.192602 411.321724 
L 141.770044 404.20011 
L 145.347486 396.634716 
L 148.924928 388.626852 
L 153.396731 378.00305 
L 157.868534 366.7155 
L 162.340337 354.794308 
L 166.812139 342.281054 
L 172.178303 326.559758 
L 178.438827 307.394093 
L 185.593711 284.684058 
L 207.952725 212.911634 
L 213.318889 196.726745 
L 217.790691 183.90729 
L 222.262494 171.841761 
L 225.839937 162.822094 
L 229.417379 154.436082 
L 232.994821 146.745895 
L 235.677903 141.469966 
L 238.360984 136.640877 
L 241.044066 132.279625 
L 243.727148 128.405347 
L 246.410229 125.03518 
L 248.198951 123.075966 
L 249.987672 121.351418 
L 251.776393 119.864979 
L 253.565114 118.619627 
L 255.353835 117.617863 
L 257.142556 116.861701 
L 258.931277 116.352666 
L 260.719998 116.091785 
L 262.50872 116.079585 
L 264.297441 116.31609 
L 266.086162 116.800823 
L 267.874883 117.532805 
L 269.663604 118.510561 
L 271.452325 119.732124 
L 273.241046 121.195041 
L 275.029767 122.896379 
L 276.818488 124.832742 
L 279.50157 128.1694 
L 282.184652 132.011216 
L 284.867734 136.34119 
L 287.550815 141.14031 
L 290.233897 146.387697 
L 292.916979 152.060753 
L 296.494421 160.245026 
L 300.071863 169.081936 
L 303.649305 178.506857 
L 308.121108 191.011914 
L 312.592911 204.194153 
L 317.959074 220.711588 
L 325.113959 243.52842 
L 344.789891 306.846179 
L 351.050415 326.033932 
L 356.416578 341.778753 
L 360.888381 354.314225 
L 365.360184 366.259505 
L 369.831987 377.572555 
L 374.30379 388.222829 
L 378.775592 398.190669 
L 382.353035 405.666868 
L 385.930477 412.699463 
L 389.507919 419.29135 
L 393.085361 425.448566 
L 396.662804 431.179933 
L 400.240246 436.496718 
L 403.817688 441.412279 
L 407.39513 445.941726 
L 410.972573 450.101591 
L 414.550015 453.909514 
L 418.127457 457.383946 
L 421.704899 460.543876 
L 425.282342 463.408578 
L 428.859784 465.997385 
L 432.437226 468.329483 
L 436.014668 470.423738 
L 439.592111 472.298544 
L 444.063913 474.360487 
L 448.535716 476.140459 
L 453.007519 477.669672 
L 457.479322 478.977203 
L 462.845485 480.291264 
L 468.211649 481.366719 
L 474.472173 482.369493 
L 480.732696 483.14988 
L 487.887581 483.825327 
L 496.831187 484.422678 
L 506.669153 484.853005 
L 518.29584 485.159546 
L 518.29584 485.159546 
" clip-path="url(#p74cd607bf3)" style="fill: none; stroke-dasharray: 3.7,1.6; stroke-dashoffset: 0; stroke: #46327e"/>
   </g>
   <g id="patch_3">
    <path d="M 72 506.4 
L 72 86.4 
" style="fill: none; stroke: #000000; stroke-width: 0.8; stroke-linejoin: miter; stroke-linecap: square"/>
   </g>
   <g id="patch_4">
    <path d="M 518.4 506.4 
L 518.4 86.4 
" style="fill: none; stroke: #000000; stroke-width: 0.8; stroke-linejoin: miter; stroke-linecap: square"/>
   </g>
   <g id="patch_5">
    <path d="M 72 506.4 
L 518.4 506.4 
" style="fill: none; stroke: #000000; stroke-width: 0.8; stroke-linejoin: miter; stroke-linecap: square"/>
   </g>
   <g id="patch_6">
    <path d="M 72 86.4 
L 518.4 86.4 
" style="fill: none; stroke: #000000; stroke-width: 0.8; stroke-linejoin: miter; stroke-linecap: square"/>
   </g>
   <g id="legend_1">
    <g id="patch_7">
     <path d="M 360.178125 123.75625 
L 511.4 123.75625 
Q 513.4 123.75625 513.4 121.75625 
L 513.4 93.4 
Q 513.4 91.4 511.4 91.4 
L 360.178125 91.4 
Q 358.178125 91.4 358.178125 93.4 
L 358.178125 121.75625 
Q 358.178125 123.75625 360.178125 123.75625 
z
" style="fill: #ffffff; opacity: 0.8; stroke: #cccccc; stroke-linejoin: miter"/>
    </g>
    <g id="line2d_14">
     <path d="M 362.178125 99.498437 
L 372.178125 99.498437 
L 382.178125 99.498437 
" style="fill: none; stroke-dasharray: 3.7,1.6; stroke-dashoffset: 0; stroke: #1fa187"/>
    </g>
    <g id="text_8">
     <!-- Baseline-corrected data -->
     <g transform="translate(390.178125 102.998437) scale(0.1 -0.1)">
      <defs>
       <path id="DejaVuSans-42" d="M 1259 2228 
L 1259 519 
L 2272 519 
Q 2781 519 3026 730 
Q 3272 941 3272 1375 
Q 3272 1813 3026 2020 
Q 2781 2228 2272 2228 
L 1259 2228 
z
M 1259 4147 
L 1259 2741 
L 2194 2741 
Q 2656 2741 2882 2914 
Q 3109 3088 3109 3444 
Q 3109 3797 2882 3972 
Q 2656 4147 2194 4147 
L 1259 4147 
z
M 628 4666 
L 2241 4666 
Q 2963 4666 3353 4366 
Q 3744 4066 3744 3513 
Q 3744 3084 3544 2831 
Q 3344 2578 2956 2516 
Q 3422 2416 3680 2098 
Q 3938 1781 3938 1306 
Q 3938 681 3513 340 
Q 3088 0 2303 0 
L 628 0 
L 628 4666 
z
" transform="scale(0.015625)"/>
       <path id="DejaVuSans-6c" d="M 603 4863 
L 1178 4863 
L 1178 0 
L 603 0 
L 603 4863 
z
" transform="scale(0.015625)"/>
       <path id="DejaVuSans-2d" d="M 313 2009 
L 1997 2009 
L 1997 1497 
L 313 1497 
L 313 2009 
z
" transform="scale(0.015625)"/>
       <path id="DejaVuSans-63" d="M 3122 3366 
L 3122 2828 
Q 2878 2963 2633 3030 
Q 2388 3097 2138 3097 
Q 1578 3097 1268 2742 
Q 959 2388 959 1747 
Q 959 1106 1268 751 
Q 1578 397 2138 397 
Q 2388 397 2633 464 
Q 2878 531 3122 666 
L 3122 134 
Q 2881 22 2623 -34 
Q 2366 -91 2075 -91 
Q 1284 -91 818 406 
Q 353 903 353 1747 
Q 353 2603 823 3093 
Q 1294 3584 2113 3584 
Q 2378 3584 2631 3529 
Q 2884 3475 3122 3366 
z
" transform="scale(0.015625)"/>
       <path id="DejaVuSans-6f" d="M 1959 3097 
Q 1497 3097 1228 2736 
Q 959 2375 959 1747 
Q 959 1119 1226 758 
Q 1494 397 1959 397 
Q 2419 397 2687 759 
Q 2956 1122 2956 1747 
Q 2956 2369 2687 2733 
Q 2419 3097 1959 3097 
z
M 1959 3584 
Q 2709 3584 3137 3096 
Q 3566 2609 3566 1747 
Q 3566 888 3137 398 
Q 2709 -91 1959 -91 
Q 1206 -91 779 398 
Q 353 888 353 1747 
Q 353 2609 779 3096 
Q 1206 3584 1959 3584 
z
" transform="scale(0.015625)"/>
       <path id="DejaVuSans-72" d="M 2631 2963 
Q 2534 3019 2420 3045 
Q 2306 3072 2169 3072 
Q 1681 3072 1420 2755 
Q 1159 2438 1159 1844 
L 1159 0 
L 581 0 
L 581 3500 
L 1159 3500 
L 1159 2956 
Q 1341 3275 1631 3429 
Q 1922 3584 2338 3584 
Q 2397 3584 2469 3576 
Q 2541 3569 2628 3553 
L 2631 2963 
z
" transform="scale(0.015625)"/>
       <path id="DejaVuSans-64" d="M 2906 2969 
L 2906 4863 
L 3481 4863 
L 3481 0 
L 2906 0 
L 2906 525 
Q 2725 213 2448 61 
Q 2172 -91 1784 -91 
Q 1150 -91 751 415 
Q 353 922 353 1747 
Q 353 2572 751 3078 
Q 1150 3584 1784 3584 
Q 2172 3584 2448 3432 
Q 2725 3281 2906 2969 
z
M 947 1747 
Q 947 1113 1208 752 
Q 1469 391 1925 391 
Q 2381 391 2643 752 
Q 2906 1113 2906 1747 
Q 2906 2381 2643 2742 
Q 2381 3103 1925 3103 
Q 1469 3103 1208 2742 
Q 947 2381 947 1747 
z
" transform="scale(0.015625)"/>
      </defs>
      <use xlink:href="#DejaVuSans-42"/>
      <use xlink:href="#DejaVuSans-61" transform="translate(68.603516 0)"/>
      <use xlink:href="#DejaVuSans-73" transform="translate(129.882812 0)"/>
      <use xlink:href="#DejaVuSans-65" transform="translate(181.982422 0)"/>
      <use xlink:href="#DejaVuSans-6c" transform="translate(243.505859 0)"/>
      <use xlink:href="#DejaVuSans-69" transform="translate(271.289062 0)"/>
      <use xlink:href="#DejaVuSans-6e" transform="translate(299.072266 0)"/>
      <use xlink:href="#DejaVuSans-65" transform="translate(362.451172 0)"/>
      <use xlink:href="#DejaVuSans-2d" transform="translate(423.974609 0)"/>
      <use xlink:href="#DejaVuSans-63" transform="translate(460.058594 0)"/>
      <use xlink:href="#DejaVuSans-6f" transform="translate(515.039062 0)"/>
      <use xlink:href="#DejaVuSans-72" transform="translate(576.220703 0)"/>
      <use xlink:href="#DejaVuSans-72" transform="translate(615.583984 0)"/>
      <use xlink:href="#DejaVuSans-65" transform="translate(654.447266 0)"/>
      <use xlink:href="#DejaVuSans-63" transform="translate(715.970703 0)"/>
      <use xlink:href="#DejaVuSans-74" transform="translate(770.951172 0)"/>
      <use xlink:href="#DejaVuSans-65" transform="translate(810.160156 0)"/>
      <use xlink:href="#DejaVuSans-64" transform="translate(871.683594 0)"/>
      <use xlink:href="#DejaVuSans-20" transform="translate(935.160156 0)"/>
      <use xlink:href="#DejaVuSans-64" transform="translate(966.947266 0)"/>
      <use xlink:href="#DejaVuSans-61" transform="translate(1030.423828 0)"/>
      <use xlink:href="#DejaVuSans-74" transform="translate(1091.703125 0)"/>
      <use xlink:href="#DejaVuSans-61" transform="translate(1130.912109 0)"/>
     </g>
    </g>
    <g id="line2d_15">
     <path d="M 362.178125 114.176562 
L 372.178125 114.176562 
L 382.178125 114.176562 
" style="fill: none; stroke-dasharray: 3.7,1.6; stroke-dashoffset: 0; stroke: #46327e"/>
    </g>
    <g id="text_9">
     <!-- Gaussian fit -->
     <g transform="translate(390.178125 117.676562) scale(0.1 -0.1)">
      <defs>
       <path id="DejaVuSans-47" d="M 3809 666 
L 3809 1919 
L 2778 1919 
L 2778 2438 
L 4434 2438 
L 4434 434 
Q 4069 175 3628 42 
Q 3188 -91 2688 -91 
Q 1594 -91 976 548 
Q 359 1188 359 2328 
Q 359 3472 976 4111 
Q 1594 4750 2688 4750 
Q 3144 4750 3555 4637 
Q 3966 4525 4313 4306 
L 4313 3634 
Q 3963 3931 3569 4081 
Q 3175 4231 2741 4231 
Q 1884 4231 1454 3753 
Q 1025 3275 1025 2328 
Q 1025 1384 1454 906 
Q 1884 428 2741 428 
Q 3075 428 3337 486 
Q 3600 544 3809 666 
z
" transform="scale(0.015625)"/>
       <path id="DejaVuSans-66" d="M 2375 4863 
L 2375 4384 
L 1825 4384 
Q 1516 4384 1395 4259 
Q 1275 4134 1275 3809 
L 1275 3500 
L 2222 3500 
L 2222 3053 
L 1275 3053 
L 1275 0 
L 697 0 
L 697 3053 
L 147 3053 
L 147 3500 
L 697 3500 
L 697 3744 
Q 697 4328 969 4595 
Q 1241 4863 1831 4863 
L 2375 4863 
z
" transform="scale(0.015625)"/>
      </defs>
      <use xlink:href="#DejaVuSans-47"/>
      <use xlink:href="#DejaVuSans-61" transform="translate(77.490234 0)"/>
      <use xlink:href="#DejaVuSans-75" transform="translate(138.769531 0)"/>
      <use xlink:href="#DejaVuSans-73" transform="translate(202.148438 0)"/>
      <use xlink:href="#DejaVuSans-73" transform="translate(254.248047 0)"/>
      <use xlink:href="#DejaVuSans-69" transform="translate(306.347656 0)"/>
      <use xlink:href="#DejaVuSans-61" transform="translate(334.130859 0)"/>
      <use xlink:href="#DejaVuSans-6e" transform="translate(395.410156 0)"/>
      <use xlink:href="#DejaVuSans-20" transform="translate(458.789062 0)"/>
      <use xlink:href="#DejaVuSans-66" transform="translate(490.576172 0)"/>
      <use xlink:href="#DejaVuSans-69" transform="translate(525.78125 0)"/>
      <use xlink:href="#DejaVuSans-74" transform="translate(553.564453 0)"/>
     </g>
    </g>
   </g>
  </g>
  <g id="axes_2">
   <g id="patch_8">
    <path d="M 72 640.8 
L 518.4 640.8 
L 518.4 556.8 
L 72 556.8 
z
" style="fill: #ffffff"/>
   </g>
   <g id="matplotlib.axis_3">
    <g id="xtick_6">
     <g id="line2d_16">
      <g>
       <use xlink:href="#md59d9971c5" x="72" y="640.8" style="stroke: #000000; stroke-width: 0.8"/>
      </g>
     </g>
     <g id="text_10">
      <!-- 1.2 -->
      <g transform="translate(64.048438 655.398437) scale(0.1 -0.1)">
       <use xlink:href="#DejaVuSans-31"/>
       <use xlink:href="#DejaVuSans-2e" transform="translate(63.623047 0)"/>
       <use xlink:href="#DejaVuSans-32" transform="translate(95.410156 0)"/>
      </g>
     </g>
    </g>
    <g id="xtick_7">
     <g id="line2d_17">
      <g>
       <use xlink:href="#md59d9971c5" x="171.2" y="640.8" style="stroke: #000000; stroke-width: 0.8"/>
      </g>
     </g>
     <g id="text_11">
      <!-- 1.4 -->
      <g transform="translate(163.248437 655.398437) scale(0.1 -0.1)">
       <defs>
        <path id="DejaVuSans-34" d="M 2419 4116 
L 825 1625 
L 2419 1625 
L 2419 4116 
z
M 2253 4666 
L 3047 4666 
L 3047 1625 
L 3713 1625 
L 3713 1100 
L 3047 1100 
L 3047 0 
L 2419 0 
L 2419 1100 
L 313 1100 
L 313 1709 
L 2253 4666 
z
" transform="scale(0.015625)"/>
       </defs>
       <use xlink:href="#DejaVuSans-31"/>
       <use xlink:href="#DejaVuSans-2e" transform="translate(63.623047 0)"/>
       <use xlink:href="#DejaVuSans-34" transform="translate(95.410156 0)"/>
      </g>
     </g>
    </g>
    <g id="xtick_8">
     <g id="line2d_18">
      <g>
       <use xlink:href="#md59d9971c5" x="270.4" y="640.8" style="stroke: #000000; stroke-width: 0.8"/>
      </g>
     </g>
     <g id="text_12">
      <!-- 1.6 -->
      <g transform="translate(262.448438 655.398437) scale(0.1 -0.1)">
       <defs>
        <path id="DejaVuSans-36" d="M 2113 2584 
Q 1688 2584 1439 2293 
Q 1191 2003 1191 1497 
Q 1191 994 1439 701 
Q 1688 409 2113 409 
Q 2538 409 2786 701 
Q 3034 994 3034 1497 
Q 3034 2003 2786 2293 
Q 2538 2584 2113 2584 
z
M 3366 4563 
L 3366 3988 
Q 3128 4100 2886 4159 
Q 2644 4219 2406 4219 
Q 1781 4219 1451 3797 
Q 1122 3375 1075 2522 
Q 1259 2794 1537 2939 
Q 1816 3084 2150 3084 
Q 2853 3084 3261 2657 
Q 3669 2231 3669 1497 
Q 3669 778 3244 343 
Q 2819 -91 2113 -91 
Q 1303 -91 875 529 
Q 447 1150 447 2328 
Q 447 3434 972 4092 
Q 1497 4750 2381 4750 
Q 2619 4750 2861 4703 
Q 3103 4656 3366 4563 
z
" transform="scale(0.015625)"/>
       </defs>
       <use xlink:href="#DejaVuSans-31"/>
       <use xlink:href="#DejaVuSans-2e" transform="translate(63.623047 0)"/>
       <use xlink:href="#DejaVuSans-36" transform="translate(95.410156 0)"/>
      </g>
     </g>
    </g>
    <g id="xtick_9">
     <g id="line2d_19">
      <g>
       <use xlink:href="#md59d9971c5" x="369.6" y="640.8" style="stroke: #000000; stroke-width: 0.8"/>
      </g>
     </g>
     <g id="text_13">
      <!-- 1.8 -->
      <g transform="translate(361.648438 655.398437) scale(0.1 -0.1)">
       <defs>
        <path id="DejaVuSans-38" d="M 2034 2216 
Q 1584 2216 1326 1975 
Q 1069 1734 1069 1313 
Q 1069 891 1326 650 
Q 1584 409 2034 409 
Q 2484 409 2743 651 
Q 3003 894 3003 1313 
Q 3003 1734 2745 1975 
Q 2488 2216 2034 2216 
z
M 1403 2484 
Q 997 2584 770 2862 
Q 544 3141 544 3541 
Q 544 4100 942 4425 
Q 1341 4750 2034 4750 
Q 2731 4750 3128 4425 
Q 3525 4100 3525 3541 
Q 3525 3141 3298 2862 
Q 3072 2584 2669 2484 
Q 3125 2378 3379 2068 
Q 3634 1759 3634 1313 
Q 3634 634 3220 271 
Q 2806 -91 2034 -91 
Q 1263 -91 848 271 
Q 434 634 434 1313 
Q 434 1759 690 2068 
Q 947 2378 1403 2484 
z
M 1172 3481 
Q 1172 3119 1398 2916 
Q 1625 2713 2034 2713 
Q 2441 2713 2670 2916 
Q 2900 3119 2900 3481 
Q 2900 3844 2670 4047 
Q 2441 4250 2034 4250 
Q 1625 4250 1398 4047 
Q 1172 3844 1172 3481 
z
" transform="scale(0.015625)"/>
       </defs>
       <use xlink:href="#DejaVuSans-31"/>
       <use xlink:href="#DejaVuSans-2e" transform="translate(63.623047 0)"/>
       <use xlink:href="#DejaVuSans-38" transform="translate(95.410156 0)"/>
      </g>
     </g>
    </g>
    <g id="xtick_10">
     <g id="line2d_20">
      <g>
       <use xlink:href="#md59d9971c5" x="468.8" y="640.8" style="stroke: #000000; stroke-width: 0.8"/>
      </g>
     </g>
     <g id="text_14">
      <!-- 2.0 -->
      <g transform="translate(460.848437 655.398437) scale(0.1 -0.1)">
       <use xlink:href="#DejaVuSans-32"/>
       <use xlink:href="#DejaVuSans-2e" transform="translate(63.623047 0)"/>
       <use xlink:href="#DejaVuSans-30" transform="translate(95.410156 0)"/>
      </g>
     </g>
    </g>
   </g>
   <g id="matplotlib.axis_4">
    <g id="ytick_7">
     <g id="line2d_21">
      <g>
       <use xlink:href="#m61ea151b2d" x="72" y="622.8" style="stroke: #000000; stroke-width: 0.8"/>
      </g>
     </g>
     <g id="text_15">
      <!-- −20 -->
      <g transform="translate(43.895313 626.599219) scale(0.1 -0.1)">
       <defs>
        <path id="DejaVuSans-2212" d="M 678 2272 
L 4684 2272 
L 4684 1741 
L 678 1741 
L 678 2272 
z
" transform="scale(0.015625)"/>
       </defs>
       <use xlink:href="#DejaVuSans-2212"/>
       <use xlink:href="#DejaVuSans-32" transform="translate(83.789062 0)"/>
       <use xlink:href="#DejaVuSans-30" transform="translate(147.412109 0)"/>
      </g>
     </g>
    </g>
    <g id="ytick_8">
     <g id="line2d_22">
      <g>
       <use xlink:href="#m61ea151b2d" x="72" y="598.8" style="stroke: #000000; stroke-width: 0.8"/>
      </g>
     </g>
     <g id="text_16">
      <!-- 0 -->
      <g transform="translate(58.6375 602.599219) scale(0.1 -0.1)">
       <use xlink:href="#DejaVuSans-30"/>
      </g>
     </g>
    </g>
    <g id="ytick_9">
     <g id="line2d_23">
      <g>
       <use xlink:href="#m61ea151b2d" x="72" y="574.8" style="stroke: #000000; stroke-width: 0.8"/>
      </g>
     </g>
     <g id="text_17">
      <!-- 20 -->
      <g transform="translate(52.275 578.599219) scale(0.1 -0.1)">
       <use xlink:href="#DejaVuSans-32"/>
       <use xlink:href="#DejaVuSans-30" transform="translate(63.623047 0)"/>
      </g>
     </g>
    </g>
    <g id="text_18">
     <!-- Residuals -->
     <g transform="translate(37.815625 622.520312) rotate(-90) scale(0.1 -0.1)">
      <defs>
       <path id="DejaVuSans-52" d="M 2841 2188 
Q 3044 2119 3236 1894 
Q 3428 1669 3622 1275 
L 4263 0 
L 3584 0 
L 2988 1197 
Q 2756 1666 2539 1819 
Q 2322 1972 1947 1972 
L 1259 1972 
L 1259 0 
L 628 0 
L 628 4666 
L 2053 4666 
Q 2853 4666 3247 4331 
Q 3641 3997 3641 3322 
Q 3641 2881 3436 2590 
Q 3231 2300 2841 2188 
z
M 1259 4147 
L 1259 2491 
L 2053 2491 
Q 2509 2491 2742 2702 
Q 2975 2913 2975 3322 
Q 2975 3731 2742 3939 
Q 2509 4147 2053 4147 
L 1259 4147 
z
" transform="scale(0.015625)"/>
      </defs>
      <use xlink:href="#DejaVuSans-52"/>
      <use xlink:href="#DejaVuSans-65" transform="translate(64.982422 0)"/>
      <use xlink:href="#DejaVuSans-73" transform="translate(126.505859 0)"/>
      <use xlink:href="#DejaVuSans-69" transform="translate(178.605469 0)"/>
      <use xlink:href="#DejaVuSans-64" transform="translate(206.388672 0)"/>
      <use xlink:href="#DejaVuSans-75" transform="translate(269.865234 0)"/>
      <use xlink:href="#DejaVuSans-61" transform="translate(333.244141 0)"/>
      <use xlink:href="#DejaVuSans-6c" transform="translate(394.523438 0)"/>
      <use xlink:href="#DejaVuSans-73" transform="translate(422.306641 0)"/>
     </g>
    </g>
   </g>
   <g id="line2d_24">
    <path d="M 518.29584 619.816884 
L 517.68576 620.36609 
L 517.07568 615.71128 
L 516.4656 620.750006 
L 515.85552 619.734226 
L 515.24544 617.678995 
L 514.03024 620.216826 
L 513.42016 617.02935 
L 512.81504 610.322008 
L 512.20992 609.378075 
L 511.6048 619.584079 
L 510.99968 609.703042 
L 510.39952 615.438067 
L 509.7944 613.559115 
L 509.19424 609.911279 
L 508.58912 608.003615 
L 507.98896 606.514028 
L 507.3888 610.666406 
L 506.7936 612.632058 
L 506.19344 608.952463 
L 505.59328 608.392772 
L 504.99808 603.747304 
L 504.40288 605.558181 
L 503.80768 612.739529 
L 503.21248 602.601139 
L 502.61728 603.904366 
L 502.02208 604.718643 
L 501.43184 599.961896 
L 500.83664 603.189487 
L 500.2464 607.783807 
L 499.65616 601.056961 
L 499.06592 603.300379 
L 498.47568 606.879135 
L 497.88544 605.280628 
L 497.30016 602.109469 
L 496.12464 597.771174 
L 495.53936 602.766668 
L 494.95408 600.859229 
L 494.3688 600.020984 
L 493.78352 600.703909 
L 493.2032 597.335409 
L 492.61792 597.450575 
L 492.0376 598.995647 
L 491.45728 604.963167 
L 490.87696 598.051688 
L 490.29664 595.217394 
L 489.71632 596.069447 
L 489.136 595.909207 
L 488.56064 598.166053 
L 487.98528 595.191175 
L 487.40496 599.334454 
L 486.8296 594.342722 
L 486.25424 591.048507 
L 485.67888 591.837605 
L 485.10848 595.434405 
L 484.53312 593.777418 
L 483.96272 594.918267 
L 483.38736 593.622102 
L 482.81696 593.512893 
L 482.24656 593.793899 
L 481.67616 590.262763 
L 481.11072 593.717556 
L 480.54032 591.115028 
L 479.96992 593.60052 
L 479.40448 592.760882 
L 478.83904 590.209806 
L 478.2736 592.467704 
L 477.70816 593.659398 
L 477.14272 595.166929 
L 476.57728 590.436528 
L 476.01184 588.452788 
L 475.45136 586.928744 
L 474.89088 588.323973 
L 474.32544 586.78862 
L 473.76496 589.029107 
L 472.64896 590.720615 
L 472.08848 590.019506 
L 471.528 591.566114 
L 470.97248 586.943678 
L 470.41696 587.136447 
L 469.85648 588.126282 
L 469.30096 587.689834 
L 468.19488 585.502424 
L 467.63936 586.166992 
L 467.08384 587.096431 
L 466.53328 588.673468 
L 465.98272 586.423447 
L 465.43216 585.404192 
L 464.8816 585.317265 
L 464.33104 588.534833 
L 463.78048 587.68756 
L 463.22992 587.92281 
L 462.68432 586.997923 
L 462.13376 585.448291 
L 461.58816 585.611851 
L 460.49696 587.832021 
L 459.95136 586.269297 
L 459.40576 586.009017 
L 458.86016 585.541539 
L 458.31952 585.42504 
L 457.77392 583.234962 
L 457.23328 587.697481 
L 456.69264 580.318003 
L 456.152 582.660153 
L 455.61136 584.225482 
L 455.07072 581.074212 
L 454.53008 585.95093 
L 453.9944 586.287396 
L 453.45376 581.991226 
L 452.91808 581.938571 
L 452.3824 583.629385 
L 451.84672 585.737053 
L 451.31104 581.380488 
L 450.77536 585.59854 
L 450.23968 584.390711 
L 449.70896 579.793806 
L 449.17328 581.479078 
L 448.64256 582.263146 
L 448.11184 580.002447 
L 447.57616 584.054057 
L 447.04544 584.026164 
L 446.51472 580.887659 
L 445.98896 582.13011 
L 445.45824 582.635445 
L 444.93248 582.965041 
L 444.40176 581.450363 
L 443.876 580.389437 
L 442.82448 581.525819 
L 442.29872 583.943046 
L 441.77296 583.674039 
L 441.2472 582.787005 
L 440.72144 580.827864 
L 440.20064 582.304664 
L 439.67984 576.312205 
L 439.15408 582.581289 
L 438.11248 579.927824 
L 437.59168 577.507328 
L 437.07584 576.719329 
L 436.55504 580.925031 
L 436.03424 579.577527 
L 435.00256 584.099484 
L 434.48176 582.027061 
L 433.96592 579.02437 
L 433.45008 580.911719 
L 432.93424 580.320839 
L 432.42336 580.826515 
L 431.90752 583.790189 
L 431.39664 578.67194 
L 430.8808 579.358505 
L 430.36992 581.600685 
L 429.85904 581.554861 
L 429.34816 581.682827 
L 428.83728 577.317517 
L 428.3264 579.487244 
L 427.81552 579.045693 
L 427.30464 583.380313 
L 426.79872 580.878013 
L 425.78192 579.96129 
L 425.276 580.095752 
L 424.77008 579.029035 
L 424.26416 580.483992 
L 423.75824 583.088697 
L 423.25232 582.26345 
L 422.75136 578.913826 
L 422.24544 577.257434 
L 421.74448 581.639056 
L 421.24352 579.863692 
L 420.7376 583.247252 
L 420.23664 578.995109 
L 419.73568 580.336369 
L 419.23472 580.779747 
L 418.73872 580.150167 
L 418.23776 578.256167 
L 417.74176 577.997223 
L 417.2408 582.115845 
L 416.7448 581.596437 
L 416.2488 577.022306 
L 415.74784 581.265338 
L 415.25184 581.054004 
L 414.7608 581.248036 
L 414.2648 581.014877 
L 413.7688 578.359717 
L 413.27776 580.194483 
L 412.78176 578.556974 
L 412.29072 581.035311 
L 411.79968 580.527875 
L 411.30368 579.719677 
L 410.81264 584.635401 
L 410.3216 583.494851 
L 409.83552 581.909801 
L 409.34448 583.333988 
L 408.85344 582.241316 
L 408.36736 581.867156 
L 407.87632 582.598929 
L 407.39024 578.262075 
L 406.90416 579.840421 
L 406.41808 582.351192 
L 405.932 582.199546 
L 405.44592 581.888557 
L 404.95984 580.713103 
L 404.47872 584.330575 
L 403.99264 581.229812 
L 403.51152 581.872108 
L 403.02544 579.836547 
L 402.54432 581.47553 
L 402.0632 580.634394 
L 401.58208 583.614679 
L 401.10096 580.98769 
L 400.61984 583.160539 
L 400.13872 581.535057 
L 399.66256 583.565138 
L 399.18144 581.369696 
L 398.70528 581.201133 
L 398.22416 581.660273 
L 397.748 581.397515 
L 397.27184 584.889998 
L 396.79568 580.895253 
L 396.31952 583.286392 
L 395.84336 583.606778 
L 395.3672 583.186359 
L 394.896 584.625147 
L 394.41984 581.054518 
L 393.94864 583.790193 
L 393.47744 580.51653 
L 393.00128 583.288479 
L 392.53008 584.173617 
L 392.05888 581.561576 
L 391.58768 581.385348 
L 391.11648 582.753132 
L 390.65024 582.85907 
L 390.17904 582.377012 
L 389.7128 582.969667 
L 389.2416 582.220503 
L 388.77536 582.996418 
L 388.30912 581.48343 
L 387.84288 584.952129 
L 387.37664 581.806668 
L 386.9104 582.253928 
L 386.44416 582.48999 
L 385.97792 584.50793 
L 385.51168 583.16085 
L 385.0504 582.996121 
L 384.58416 586.261231 
L 384.12288 584.091763 
L 383.6616 583.711644 
L 383.20032 585.58099 
L 382.73904 582.959332 
L 382.27776 584.468029 
L 381.81648 583.100438 
L 381.3552 582.717819 
L 380.89392 583.857657 
L 380.4376 582.943348 
L 379.97632 585.532261 
L 379.52 585.119826 
L 379.06368 586.782856 
L 378.60736 584.827045 
L 378.14608 586.576086 
L 377.68976 583.815384 
L 377.2384 583.583266 
L 376.78208 587.254243 
L 376.32576 585.86891 
L 375.41808 589.563331 
L 374.96176 587.63765 
L 374.5104 584.331302 
L 374.05904 585.8437 
L 373.60768 585.599245 
L 373.15632 584.915864 
L 372.70496 587.148199 
L 372.2536 585.950803 
L 371.80224 585.407896 
L 371.35088 588.763568 
L 370.90448 584.29228 
L 370.45312 587.11651 
L 370.00672 587.188196 
L 369.56032 588.436128 
L 369.11392 588.928443 
L 368.66256 586.065686 
L 368.21616 588.326842 
L 367.76976 588.43596 
L 367.32832 587.697943 
L 366.88192 590.014698 
L 366.43552 585.936413 
L 365.99408 589.880441 
L 365.54768 590.202622 
L 365.10624 587.403938 
L 364.2184 588.865553 
L 363.77696 590.597777 
L 362.89408 586.829074 
L 362.45264 588.762065 
L 362.01616 588.688104 
L 361.57472 589.495712 
L 361.13328 591.380994 
L 360.6968 591.323807 
L 360.26032 589.095451 
L 359.81888 594.240461 
L 359.3824 589.691169 
L 358.94592 592.085443 
L 358.50944 590.856268 
L 358.07296 592.746077 
L 357.63648 590.776455 
L 357.2 592.859534 
L 356.76848 590.82091 
L 356.332 594.390193 
L 355.90048 590.300256 
L 355.464 592.471239 
L 355.03248 591.062644 
L 354.16944 592.033284 
L 353.30144 594.218063 
L 352.87488 597.718395 
L 352.44336 594.939926 
L 352.01184 590.809913 
L 351.58528 595.106536 
L 351.15376 592.727631 
L 350.7272 592.982113 
L 349.86912 596.823122 
L 349.44256 591.949698 
L 348.58944 593.926406 
L 348.16288 593.853801 
L 347.73632 597.585583 
L 347.30976 595.692463 
L 346.8832 592.470281 
L 346.4616 594.617307 
L 346.03504 594.70557 
L 345.61344 595.988022 
L 345.19184 596.579212 
L 344.76528 598.071749 
L 344.34368 598.216792 
L 343.92208 600.674036 
L 343.50048 597.75319 
L 343.07888 598.379709 
L 342.66224 596.973547 
L 342.24064 598.802932 
L 341.81904 594.097868 
L 340.9808 600.314469 
L 340.56416 597.559154 
L 339.72592 599.396728 
L 339.30928 599.140911 
L 338.89264 597.381257 
L 338.05936 600.87015 
L 337.64272 599.304002 
L 337.23104 598.90968 
L 336.8144 598.24585 
L 336.39776 599.407006 
L 335.98608 597.400421 
L 335.5744 597.720954 
L 335.15776 596.569247 
L 334.74608 597.664503 
L 334.3344 598.368383 
L 333.92272 600.930358 
L 333.51104 597.764993 
L 333.09936 599.741633 
L 332.68768 599.899837 
L 332.276 602.550526 
L 331.86928 600.307137 
L 331.4576 602.187301 
L 331.05088 600.353379 
L 330.6392 603.468154 
L 330.23248 602.239135 
L 329.82576 599.927822 
L 329.41408 600.546789 
L 329.00736 600.188342 
L 328.60064 600.939418 
L 328.19392 599.467616 
L 327.79216 601.040299 
L 327.38544 601.62595 
L 326.97872 601.514166 
L 326.57696 602.911913 
L 326.17024 601.289265 
L 325.76848 605.457837 
L 325.36176 602.905852 
L 324.55824 601.654092 
L 324.15648 600.167662 
L 323.74976 600.761835 
L 323.35296 602.569522 
L 322.9512 600.005246 
L 322.54944 600.40443 
L 322.14768 596.77806 
L 321.74592 601.801455 
L 321.34912 602.944423 
L 320.94736 603.493775 
L 320.55056 603.600181 
L 320.15376 602.089471 
L 319.752 605.898472 
L 319.3552 604.873072 
L 318.9584 603.044954 
L 318.5616 604.622057 
L 318.1648 605.327366 
L 317.768 603.196227 
L 317.3712 601.871715 
L 316.97936 601.801059 
L 316.18576 602.637579 
L 315.40208 604.330947 
L 315.00528 603.848348 
L 314.61344 604.835466 
L 314.2216 604.028214 
L 313.82976 601.816857 
L 313.43792 604.743369 
L 312.65424 602.073297 
L 312.2624 601.76099 
L 311.87056 602.679837 
L 311.48368 601.530854 
L 311.09184 602.283675 
L 310.7 604.537031 
L 310.31312 605.431857 
L 309.92624 608.158785 
L 309.5344 608.305643 
L 309.14752 608.916921 
L 308.76064 606.884101 
L 308.37376 607.915489 
L 307.98688 608.482868 
L 307.6 607.993948 
L 306.8312 602.790554 
L 306.44432 602.597475 
L 306.05744 605.330369 
L 305.67552 605.50659 
L 305.28864 603.824928 
L 304.90672 605.477377 
L 304.5248 604.220941 
L 304.13792 607.375843 
L 303.756 607.410714 
L 303.37408 611.086464 
L 302.99216 609.592343 
L 302.61024 607.120003 
L 302.22832 606.377986 
L 301.46944 607.483167 
L 301.08752 604.691561 
L 300.71056 603.849568 
L 300.32864 607.195422 
L 299.95168 602.232666 
L 299.56976 605.382345 
L 299.1928 606.359634 
L 298.81584 608.341931 
L 298.43888 606.14858 
L 298.06192 608.61824 
L 297.68496 608.867176 
L 297.308 608.394176 
L 296.93104 607.116599 
L 296.55408 608.015759 
L 296.17712 606.811935 
L 295.80512 607.283569 
L 295.42816 605.317007 
L 294.3072 601.609264 
L 293.93024 599.83627 
L 293.55824 601.281082 
L 293.18624 601.672933 
L 292.81424 599.380883 
L 292.44224 604.096754 
L 292.07024 605.328455 
L 291.69824 605.130425 
L 291.32624 604.729894 
L 290.9592 604.091314 
L 290.5872 607.296709 
L 289.84816 603.773743 
L 289.48112 605.651129 
L 289.10912 601.143733 
L 288.74208 602.161955 
L 288.37504 602.067982 
L 288.00304 602.905282 
L 287.636 601.751192 
L 286.90192 605.990047 
L 286.53984 602.376421 
L 285.80576 604.122573 
L 285.43872 605.756319 
L 285.07664 605.133254 
L 284.34752 608.414733 
L 283.98048 606.343979 
L 283.6184 604.955901 
L 283.25632 606.794485 
L 282.88928 604.574152 
L 282.5272 600.923091 
L 282.16512 600.79999 
L 281.80304 599.584428 
L 281.44096 600.562194 
L 281.07888 600.283757 
L 280.72176 602.435446 
L 280.35968 602.361773 
L 279.9976 604.42133 
L 279.64048 605.549644 
L 279.2784 605.548288 
L 278.92128 605.168142 
L 278.20208 607.165548 
L 277.84496 603.642611 
L 277.48288 604.260852 
L 277.12576 603.016359 
L 276.76864 602.979002 
L 276.41152 601.66043 
L 276.0544 599.239686 
L 275.69728 598.35681 
L 275.34512 596.97352 
L 274.988 601.214145 
L 274.63088 600.677175 
L 274.27872 598.941601 
L 273.9216 599.013724 
L 273.56944 600.540593 
L 273.21232 604.891398 
L 272.86016 604.055033 
L 272.508 606.964709 
L 272.15088 606.289213 
L 271.79872 607.073836 
L 271.44656 604.950028 
L 271.0944 603.68752 
L 270.74224 605.20463 
L 270.39008 602.373142 
L 270.04288 598.087233 
L 269.69072 599.984933 
L 269.33856 597.67677 
L 268.99136 599.071786 
L 268.6392 599.460717 
L 268.28704 600.187978 
L 267.93984 599.402865 
L 267.59264 600.93693 
L 267.24048 599.193486 
L 266.89328 603.762944 
L 266.54608 603.527605 
L 266.19888 603.462676 
L 265.85168 604.612069 
L 265.50448 603.427607 
L 265.15728 604.39166 
L 264.81008 603.584475 
L 264.46288 602.072021 
L 264.11568 601.240774 
L 263.77344 597.281691 
L 263.42624 599.475878 
L 263.084 598.170277 
L 262.7368 598.428473 
L 262.39456 598.26572 
L 262.04736 596.252751 
L 261.70512 597.524438 
L 261.36288 597.142763 
L 261.02064 597.471031 
L 260.6784 600.092207 
L 260.33616 600.739122 
L 259.99392 601.862745 
L 259.65168 603.762324 
L 259.30944 602.432412 
L 258.9672 601.81256 
L 258.62496 603.38439 
L 258.28768 600.930937 
L 257.94544 601.661325 
L 257.6032 594.998922 
L 257.26592 600.546297 
L 256.92864 594.471876 
L 256.5864 593.714303 
L 256.24912 593.412942 
L 255.91184 592.558685 
L 255.5696 593.042809 
L 255.23232 592.273561 
L 254.89504 598.335853 
L 254.55776 597.331333 
L 254.22048 596.987344 
L 253.8832 599.667986 
L 253.55088 605.597064 
L 253.2136 602.605425 
L 252.87632 602.881249 
L 252.544 602.092197 
L 252.20672 602.593452 
L 251.53712 600.189756 
L 251.2048 595.470401 
L 250.86752 594.050849 
L 250.5352 591.856963 
L 250.20288 592.212918 
L 249.87056 591.381618 
L 249.53328 592.181892 
L 248.86864 590.008901 
L 248.20896 597.898619 
L 247.87664 598.566067 
L 247.54432 598.057735 
L 247.212 603.466782 
L 246.88464 601.301868 
L 246.55232 600.943642 
L 246.22496 599.623617 
L 245.89264 596.343657 
L 245.56528 595.425395 
L 244.9056 589.956992 
L 244.57824 590.324559 
L 244.25088 589.850802 
L 243.92352 590.914893 
L 243.59616 591.31564 
L 243.2688 588.41572 
L 242.94144 592.797215 
L 242.28672 597.00416 
L 241.95936 600.30816 
L 241.63696 599.414704 
L 240.9872 603.494811 
L 240.65984 602.488885 
L 240.33744 598.16455 
L 240.01008 597.564186 
L 239.68768 594.741133 
L 239.36528 596.417895 
L 239.03792 593.097885 
L 238.71552 588.596011 
L 238.39312 588.991961 
L 237.42592 591.913793 
L 237.10352 591.959709 
L 236.78112 593.810716 
L 236.45872 593.805633 
L 236.14128 598.731675 
L 235.81888 596.683538 
L 235.17904 601.570673 
L 234.5392 596.952512 
L 234.22176 597.188612 
L 233.89936 595.585369 
L 233.58192 591.099303 
L 233.26448 588.702064 
L 232.94704 590.78411 
L 232.62464 588.338763 
L 232.3072 591.524514 
L 231.98976 587.141017 
L 231.67232 589.208473 
L 231.35984 586.765696 
L 231.0424 590.70797 
L 230.72496 592.223073 
L 230.40752 592.90865 
L 230.09504 592.845308 
L 229.7776 595.427503 
L 229.46016 596.41729 
L 229.14768 599.934416 
L 228.83024 600.214753 
L 228.51776 602.021744 
L 228.20528 600.703731 
L 227.88784 600.326163 
L 227.57536 601.161145 
L 227.26288 598.742098 
L 226.9504 594.286037 
L 226.63792 596.547971 
L 226.32544 591.286559 
L 226.01296 589.504295 
L 225.70048 586.621732 
L 225.388 588.24839 
L 225.07552 586.666797 
L 224.768 589.325681 
L 224.45552 593.008859 
L 224.14304 591.081213 
L 223.83552 591.167133 
L 223.21552 597.466981 
L 222.90304 596.416939 
L 222.28304 603.981397 
L 221.97552 601.144402 
L 221.668 602.241854 
L 221.36048 603.824506 
L 220.1304 590.234619 
L 219.82288 591.136129 
L 219.51536 588.777621 
L 219.20784 588.632201 
L 218.90032 587.078441 
L 218.59776 587.336159 
L 218.29024 589.903732 
L 217.98272 589.032188 
L 217.68016 588.72173 
L 217.07008 593.729131 
L 216.46 600.276146 
L 216.15744 597.447342 
L 215.85488 601.329781 
L 215.55232 602.79844 
L 215.24976 604.939604 
L 214.94224 604.93285 
L 214.63968 600.539822 
L 214.33712 600.005995 
L 214.03952 596.863442 
L 213.73696 595.816708 
L 213.4344 592.077013 
L 213.13184 591.131796 
L 212.82928 590.694698 
L 212.53168 589.228197 
L 212.22912 588.965871 
L 211.93152 588.253263 
L 211.62896 591.048005 
L 211.0288 590.865911 
L 210.7312 593.456974 
L 210.4336 593.139984 
L 210.13104 597.333158 
L 209.53584 600.101841 
L 209.23824 600.38648 
L 208.94064 605.154873 
L 208.64304 600.946146 
L 208.34544 601.966812 
L 208.04784 604.576721 
L 207.75024 600.537643 
L 207.45264 599.813345 
L 207.15504 594.862892 
L 206.8624 592.356517 
L 206.5648 591.970414 
L 205.97456 585.222768 
L 205.67696 586.677185 
L 205.38432 585.697957 
L 204.79408 590.609125 
L 204.50144 589.723761 
L 204.2088 590.014731 
L 203.9112 595.57365 
L 203.32592 598.880165 
L 203.03328 600.016525 
L 202.74064 598.835268 
L 202.448 602.044761 
L 202.15536 600.588844 
L 201.86272 601.029015 
L 201.57008 600.861332 
L 201.2824 598.731504 
L 200.98976 595.121714 
L 200.69712 589.466058 
L 200.40944 589.772229 
L 200.1168 586.906891 
L 199.82416 589.017468 
L 199.53648 586.51585 
L 199.2488 586.404353 
L 198.95616 585.14137 
L 198.66848 585.33137 
L 198.3808 585.278373 
L 198.08816 589.157533 
L 197.80048 587.20278 
L 197.5128 591.826589 
L 196.93744 594.878673 
L 196.36208 599.350501 
L 196.0744 600.684326 
L 195.49904 604.55223 
L 195.21136 603.087277 
L 194.92864 604.458407 
L 194.35328 602.963495 
L 194.07056 601.345279 
L 193.78288 597.040998 
L 193.50016 595.851233 
L 193.21248 590.761582 
L 192.92976 590.742081 
L 192.35936 585.86281 
L 192.07664 587.254408 
L 191.79392 587.114208 
L 191.5112 589.270452 
L 191.22352 588.999275 
L 190.9408 591.595918 
L 190.65808 595.659086 
L 190.37536 594.934992 
L 190.09264 596.558088 
L 189.80992 601.749718 
L 189.53216 603.30039 
L 189.24944 606.683145 
L 188.96672 604.501962 
L 188.684 606.183774 
L 188.40624 603.974814 
L 188.12352 604.635436 
L 187.8408 601.91699 
L 187.56304 601.623739 
L 187.28032 595.685592 
L 187.00256 595.769589 
L 186.7248 591.206945 
L 186.44208 592.636395 
L 185.88656 587.208969 
L 185.6088 586.426601 
L 185.32608 588.80176 
L 185.04832 587.692508 
L 184.77056 588.560645 
L 184.4928 588.894241 
L 184.21504 591.340776 
L 183.93728 591.362499 
L 183.38176 596.766767 
L 183.10896 600.701511 
L 182.8312 602.801661 
L 182.55344 602.822987 
L 182.27568 605.874494 
L 182.00288 606.568135 
L 181.72512 605.252635 
L 181.45232 600.749682 
L 181.17456 599.641724 
L 180.90176 595.867358 
L 180.624 594.795861 
L 180.3512 592.223654 
L 179.80064 590.095713 
L 179.52784 587.392706 
L 179.25504 587.723508 
L 178.98224 589.248686 
L 178.70944 588.95851 
L 178.43664 592.250166 
L 178.16384 593.399844 
L 177.89104 598.071092 
L 177.61824 598.565173 
L 177.34544 602.032585 
L 177.07264 603.997447 
L 176.79984 609.767373 
L 176.52704 605.790302 
L 176.2592 606.637026 
L 175.9864 603.902058 
L 175.44576 605.05322 
L 174.90512 596.451393 
L 174.63232 597.500029 
L 174.36448 594.099734 
L 174.09168 592.331835 
L 173.82384 589.429848 
L 173.556 588.951785 
L 173.28816 590.827722 
L 173.01536 590.098073 
L 172.74752 593.260956 
L 172.47968 593.535785 
L 171.67616 599.873832 
L 171.40832 606.592178 
L 171.14048 605.485108 
L 170.87264 607.582573 
L 170.6048 607.457255 
L 170.34192 610.648836 
L 170.07408 607.073299 
L 169.80624 607.029702 
L 169.54336 602.528794 
L 169.27552 601.801536 
L 169.00768 599.879799 
L 168.7448 599.823592 
L 168.47696 595.654233 
L 168.21408 595.393445 
L 167.94624 594.402306 
L 167.68336 588.391255 
L 167.42048 590.768939 
L 167.1576 590.65064 
L 166.88976 591.457162 
L 166.62688 593.854832 
L 166.364 592.889553 
L 165.57536 600.552914 
L 165.31248 605.108177 
L 165.0496 607.113781 
L 164.78672 606.214446 
L 164.52384 609.112403 
L 164.26096 607.700156 
L 163.99808 607.668169 
L 163.74016 606.573887 
L 163.47728 607.475283 
L 163.2144 605.71007 
L 162.95648 599.806381 
L 162.6936 596.438128 
L 162.43072 596.483451 
L 162.1728 594.62686 
L 161.90992 590.470694 
L 161.652 589.875759 
L 161.39408 593.440751 
L 161.1312 589.910849 
L 160.87328 588.654967 
L 160.61536 591.577393 
L 160.35248 591.37472 
L 160.09456 594.337274 
L 159.83664 595.27822 
L 159.57872 597.387951 
L 159.3208 601.423269 
L 159.06288 601.331029 
L 158.80496 606.345992 
L 158.54704 605.97724 
L 158.28912 608.73258 
L 158.0312 606.06117 
L 157.77328 610.4458 
L 157.2624 607.652832 
L 157.00448 607.475279 
L 156.4936 602.786239 
L 156.23568 603.175566 
L 155.98272 599.299593 
L 155.21392 595.739212 
L 154.70304 589.904255 
L 154.19712 595.867848 
L 153.94416 596.39924 
L 153.68624 592.462793 
L 153.43328 594.910939 
L 153.18032 598.839268 
L 152.92736 600.427123 
L 152.6744 603.280609 
L 152.16848 605.697996 
L 151.91552 607.938251 
L 151.66256 608.014436 
L 151.4096 611.330374 
L 151.15664 610.228122 
L 150.90864 610.691373 
L 150.65568 610.46433 
L 150.40272 607.046757 
L 150.15472 607.062078 
L 149.4008 598.827288 
L 149.14784 601.613992 
L 148.89984 597.834673 
L 148.39888 594.646295 
L 148.15088 594.312311 
L 147.89792 591.933382 
L 147.64992 591.767388 
L 147.40192 595.112845 
L 147.14896 595.99538 
L 146.90096 593.264026 
L 146.65296 600.003036 
L 146.15696 605.364048 
L 145.90896 608.190463 
L 145.66096 608.532698 
L 145.41296 606.680144 
L 145.16496 610.646223 
L 144.91696 612.396325 
L 144.66896 612.539914 
L 144.42592 611.960577 
L 143.92992 606.478407 
L 143.68192 606.402282 
L 142.94288 601.799625 
L 142.69984 595.582244 
L 142.45184 595.991526 
L 142.2088 598.272964 
L 141.96576 597.903154 
L 141.71776 598.190719 
L 141.47472 597.885515 
L 141.22672 599.353767 
L 140.98368 596.040039 
L 140.74064 600.788738 
L 140.4976 603.0728 
L 140.2496 603.872374 
L 140.00656 607.838817 
L 139.76352 607.892846 
L 139.52048 613.293388 
L 139.27744 610.914008 
L 139.0344 613.513029 
L 138.79136 613.659734 
L 138.54832 616.110343 
L 138.30528 613.654254 
L 138.06224 614.445807 
L 137.82416 610.381387 
L 137.33808 608.102744 
L 137.09504 606.204881 
L 136.85696 603.26482 
L 136.61392 605.597967 
L 136.37088 605.348124 
L 136.1328 598.488165 
L 135.88976 601.674499 
L 135.65168 603.21188 
L 135.40864 601.407684 
L 135.17056 600.960399 
L 134.68944 603.871616 
L 134.45136 603.845567 
L 133.97024 607.489705 
L 133.73216 607.63771 
L 133.49408 613.124099 
L 133.256 614.755717 
L 133.01792 614.935851 
L 132.77984 613.475502 
L 132.54176 617.535183 
L 132.30368 616.377831 
L 132.0656 614.367639 
L 131.58944 613.070332 
L 131.35136 609.859777 
L 131.11328 608.294602 
L 130.8752 604.693141 
L 130.63712 605.753052 
L 130.404 605.441553 
L 129.92784 605.817179 
L 129.69472 602.60888 
L 129.45664 601.34846 
L 129.22352 605.327368 
L 128.98544 605.841705 
L 128.51424 609.625213 
L 128.28112 610.102085 
L 128.04304 611.097367 
L 127.5768 619.506695 
L 127.33872 619.872067 
L 127.1056 616.902465 
L 126.87248 617.921164 
L 126.63936 616.815731 
L 126.40624 614.558706 
L 126.16816 614.906352 
L 125.93504 615.595357 
L 125.70192 611.909507 
L 125.4688 611.803804 
L 124.76944 606.938649 
L 124.54128 604.243508 
L 124.30816 604.201035 
L 124.07504 603.488873 
L 123.84192 608.445062 
L 123.6088 606.931712 
L 123.38064 606.638089 
L 123.14752 610.641227 
L 122.9144 611.63944 
L 122.45312 615.008364 
L 122.22496 614.342822 
L 121.76368 618.432846 
L 121.53056 618.344473 
L 121.3024 616.332325 
L 121.06928 616.096317 
L 120.84112 617.527639 
L 120.61296 615.686178 
L 120.37984 615.244073 
L 120.15168 612.277408 
L 119.92352 612.800592 
L 119.69536 609.367398 
L 119.4672 609.614003 
L 119.23904 609.270496 
L 119.00592 606.468778 
L 118.77776 609.022937 
L 118.5496 609.324265 
L 118.32144 609.328835 
L 118.09328 610.220994 
L 117.64192 614.539822 
L 117.41376 614.332125 
L 117.1856 613.643783 
L 116.95744 613.480165 
L 116.27792 619.175365 
L 116.04976 619.595058 
L 115.82656 621.771364 
L 115.3752 620.451998 
L 115.14704 621.094549 
L 114.92384 623.066263 
L 114.69568 618.860573 
L 114.24432 616.879137 
L 114.02112 614.185053 
L 113.79792 614.818176 
L 113.34656 610.847869 
L 113.12336 609.362236 
L 112.90016 608.733757 
L 112.672 612.788196 
L 112.4488 613.749887 
L 112.2256 613.917042 
L 112.0024 612.806895 
L 111.556 619.813439 
L 111.3328 616.298231 
L 110.8864 617.334743 
L 110.6632 620.369239 
L 110.44 621.020705 
L 110.22176 619.832431 
L 109.99856 621.617212 
L 109.77536 621.893574 
L 109.55216 619.979495 
L 109.33392 623.332336 
L 109.11072 622.680719 
L 108.66928 619.076393 
L 108.44608 620.994379 
L 108.22784 620.492275 
L 108.00464 616.618983 
L 107.7864 619.374805 
L 107.34496 613.880507 
L 107.12176 614.347074 
L 106.90352 616.113868 
L 106.68528 616.242408 
L 106.46208 616.625656 
L 106.24384 615.772723 
L 106.0256 613.871493 
L 105.80736 616.570294 
L 105.58416 616.81136 
L 105.36592 619.72949 
L 105.14768 618.326807 
L 104.7112 623.020828 
L 104.49296 620.764331 
L 104.27472 622.846886 
L 104.05648 623.436331 
L 103.83824 625.439646 
L 103.62 624.987493 
L 103.40176 625.379311 
L 103.18352 623.395356 
L 102.97024 624.975818 
L 102.752 623.531339 
L 102.53376 622.991219 
L 102.31552 621.11651 
L 102.10224 622.998649 
L 101.884 620.247462 
L 101.66576 621.183232 
L 101.45248 619.62742 
L 101.23424 619.129875 
L 101.02096 619.77264 
L 100.80272 619.133711 
L 100.58944 619.213555 
L 100.3712 617.510433 
L 100.15792 621.936996 
L 99.94464 618.305938 
L 99.7264 619.371487 
L 99.51312 618.357501 
L 99.29984 621.662489 
L 99.0816 621.116193 
L 98.65504 622.837053 
L 98.44176 621.411892 
L 98.22848 623.698277 
L 97.79696 625.833255 
L 97.3704 628.315817 
L 97.15712 627.678981 
L 96.94384 626.248176 
L 96.73056 626.244079 
L 96.51728 627.927841 
L 96.30896 623.970543 
L 96.09568 625.939916 
L 95.45584 623.610403 
L 95.24752 624.618409 
L 95.03424 622.798703 
L 94.82096 622.040845 
L 94.61264 620.841474 
L 94.39936 623.350983 
L 94.18608 622.560453 
L 93.97776 620.938445 
L 93.76448 623.224958 
L 93.55616 623.760278 
L 93.34288 620.730614 
L 93.13456 624.289717 
L 92.92624 623.534413 
L 92.71296 624.637838 
L 92.50464 622.861961 
L 92.29632 623.782225 
L 92.08304 627.953947 
L 91.87472 626.574976 
L 91.45808 630.059084 
L 91.2448 627.966183 
L 91.03648 627.755437 
L 90.82816 628.697392 
L 90.61984 630.430746 
L 90.41152 628.456082 
L 90.2032 629.279407 
L 89.99488 629.456832 
L 89.78656 628.152015 
L 89.57824 625.798876 
L 89.36992 627.3624 
L 89.1616 627.262618 
L 88.95328 625.585755 
L 88.74496 627.030719 
L 88.33328 624.856338 
L 88.12496 625.038462 
L 87.91664 624.187335 
L 87.71328 626.959336 
L 87.29664 625.080171 
L 87.09328 624.735867 
L 86.88496 628.828881 
L 86.6816 626.963965 
L 86.47328 626.439625 
L 86.26992 630.374563 
L 86.0616 628.82735 
L 85.85824 629.315702 
L 85.64992 630.214909 
L 85.44656 630.079626 
L 85.2432 631.29636 
L 84.83152 631.564265 
L 84.62816 630.071251 
L 84.4248 632.570765 
L 84.01312 629.523353 
L 83.80976 631.591634 
L 83.40304 628.631286 
L 83.19968 631.075581 
L 82.99632 629.350948 
L 82.5896 628.43083 
L 82.38624 628.819229 
L 81.97952 628.571954 
L 81.77616 629.370613 
L 81.5728 629.251942 
L 81.3744 629.29919 
L 81.17104 629.222828 
L 80.96768 628.618496 
L 80.76432 627.275846 
L 80.56592 629.494904 
L 80.36256 628.971382 
L 80.1592 629.849954 
L 79.9608 630.118339 
L 79.75744 631.052725 
L 79.55408 631.452528 
L 79.35568 632.279839 
L 79.15232 632.437689 
L 78.95392 630.614319 
L 78.75056 631.321484 
L 78.35376 633.4048 
L 78.1504 631.430226 
L 77.952 631.470891 
L 77.7536 632.465172 
L 77.55024 631.163026 
L 77.35184 631.294445 
L 77.15344 631.778437 
L 76.95504 632.663021 
L 76.75168 630.332049 
L 76.55328 630.822052 
L 76.35488 630.516863 
L 76.15648 629.317932 
L 75.95808 631.337235 
L 75.75968 631.169423 
L 75.56128 631.453197 
L 75.36288 630.017812 
L 75.16448 631.849297 
L 74.96608 631.41199 
L 74.76768 633.862168 
L 74.56928 632.188651 
L 74.37088 632.629715 
L 74.17744 632.428589 
L 73.97904 633.715088 
L 73.78064 632.440699 
L 73.58224 635.00764 
L 73.3888 634.581757 
L 73.1904 633.110255 
L 72.992 635.333778 
L 72.79856 634.192384 
L 72.60016 633.950448 
L 72.40176 631.689043 
L 72.20832 633.225712 
L 72.00992 632.786956 
L 72.00992 632.786956 
" clip-path="url(#p04e0c64df4)" style="fill: none; stroke-dasharray: 3.7,1.6; stroke-dashoffset: 0; stroke: #808080"/>
   </g>
   <g id="line2d_25">
    <path d="M 72 598.8 
L 518.4 598.8 
" clip-path="url(#p04e0c64df4)" style="fill: none; stroke-dasharray: 5.55,2.4; stroke-dashoffset: 0; stroke: #000000; stroke-width: 1.5"/>
   </g>
   <g id="patch_9">
    <path d="M 72 640.8 
L 72 556.8 
" style="fill: none; stroke: #000000; stroke-width: 0.8; stroke-linejoin: miter; stroke-linecap: square"/>
   </g>
   <g id="patch_10">
    <path d="M 518.4 640.8 
L 518.4 556.8 
" style="fill: none; stroke: #000000; stroke-width: 0.8; stroke-linejoin: miter; stroke-linecap: square"/>
   </g>
   <g id="patch_11">
    <path d="M 72 640.8 
L 518.4 640.8 
" style="fill: none; stroke: #000000; stroke-width: 0.8; stroke-linejoin: miter; stroke-linecap: square"/>
   </g>
   <g id="patch_12">
    <path d="M 72 556.8 
L 518.4 556.8 
" style="fill: none; stroke: #000000; stroke-width: 0.8; stroke-linejoin: miter; stroke-linecap: square"/>
   </g>
  </g>
  <g id="text_19">
   <!-- Photon energy (eV) -->
   <g transform="translate(229.8825 710.304375) scale(0.12 -0.12)">
    <defs>
     <path id="DejaVuSans-50" d="M 1259 4147 
L 1259 2394 
L 2053 2394 
Q 2494 2394 2734 2622 
Q 2975 2850 2975 3272 
Q 2975 3691 2734 3919 
Q 2494 4147 2053 4147 
L 1259 4147 
z
M 628 4666 
L 2053 4666 
Q 2838 4666 3239 4311 
Q 3641 3956 3641 3272 
Q 3641 2581 3239 2228 
Q 2838 1875 2053 1875 
L 1259 1875 
L 1259 0 
L 628 0 
L 628 4666 
z
" transform="scale(0.015625)"/>
     <path id="DejaVuSans-68" d="M 3513 2113 
L 3513 0 
L 2938 0 
L 2938 2094 
Q 2938 2591 2744 2837 
Q 2550 3084 2163 3084 
Q 1697 3084 1428 2787 
Q 1159 2491 1159 1978 
L 1159 0 
L 581 0 
L 581 4863 
L 1159 4863 
L 1159 2956 
Q 1366 3272 1645 3428 
Q 1925 3584 2291 3584 
Q 2894 3584 3203 3211 
Q 3513 2838 3513 2113 
z
" transform="scale(0.015625)"/>
     <path id="DejaVuSans-67" d="M 2906 1791 
Q 2906 2416 2648 2759 
Q 2391 3103 1925 3103 
Q 1463 3103 1205 2759 
Q 947 2416 947 1791 
Q 947 1169 1205 825 
Q 1463 481 1925 481 
Q 2391 481 2648 825 
Q 2906 1169 2906 1791 
z
M 3481 434 
Q 3481 -459 3084 -895 
Q 2688 -1331 1869 -1331 
Q 1566 -1331 1297 -1286 
Q 1028 -1241 775 -1147 
L 775 -588 
Q 1028 -725 1275 -790 
Q 1522 -856 1778 -856 
Q 2344 -856 2625 -561 
Q 2906 -266 2906 331 
L 2906 616 
Q 2728 306 2450 153 
Q 2172 0 1784 0 
Q 1141 0 747 490 
Q 353 981 353 1791 
Q 353 2603 747 3093 
Q 1141 3584 1784 3584 
Q 2172 3584 2450 3431 
Q 2728 3278 2906 2969 
L 2906 3500 
L 3481 3500 
L 3481 434 
z
" transform="scale(0.015625)"/>
     <path id="DejaVuSans-56" d="M 1831 0 
L 50 4666 
L 709 4666 
L 2188 738 
L 3669 4666 
L 4325 4666 
L 2547 0 
L 1831 0 
z
" transform="scale(0.015625)"/>
    </defs>
    <use xlink:href="#DejaVuSans-50"/>
    <use xlink:href="#DejaVuSans-68" transform="translate(60.302734 0)"/>
    <use xlink:href="#DejaVuSans-6f" transform="translate(123.681641 0)"/>
    <use xlink:href="#DejaVuSans-74" transform="translate(184.863281 0)"/>
    <use xlink:href="#DejaVuSans-6f" transform="translate(224.072266 0)"/>
    <use xlink:href="#DejaVuSans-6e" transform="translate(285.253906 0)"/>
    <use xlink:href="#DejaVuSans-20" transform="translate(348.632812 0)"/>
    <use xlink:href="#DejaVuSans-65" transform="translate(380.419922 0)"/>
    <use xlink:href="#DejaVuSans-6e" transform="translate(441.943359 0)"/>
    <use xlink:href="#DejaVuSans-65" transform="translate(505.322266 0)"/>
    <use xlink:href="#DejaVuSans-72" transform="translate(566.845703 0)"/>
    <use xlink:href="#DejaVuSans-67" transform="translate(606.208984 0)"/>
    <use xlink:href="#DejaVuSans-79" transform="translate(669.685547 0)"/>
    <use xlink:href="#DejaVuSans-20" transform="translate(728.865234 0)"/>
    <use xlink:href="#DejaVuSans-28" transform="translate(760.652344 0)"/>
    <use xlink:href="#DejaVuSans-65" transform="translate(799.666016 0)"/>
    <use xlink:href="#DejaVuSans-56" transform="translate(861.189453 0)"/>
    <use xlink:href="#DejaVuSans-29" transform="translate(929.597656 0)"/>
   </g>
  </g>
  <g id="text_20">
   <!-- Excitation power 0.5 mW -->
   <g transform="translate(212.689687 23.518125) scale(0.12 -0.12)">
    <defs>
     <path id="DejaVuSans-45" d="M 628 4666 
L 3578 4666 
L 3578 4134 
L 1259 4134 
L 1259 2753 
L 3481 2753 
L 3481 2222 
L 1259 2222 
L 1259 531 
L 3634 531 
L 3634 0 
L 628 0 
L 628 4666 
z
" transform="scale(0.015625)"/>
     <path id="DejaVuSans-78" d="M 3513 3500 
L 2247 1797 
L 3578 0 
L 2900 0 
L 1881 1375 
L 863 0 
L 184 0 
L 1544 1831 
L 300 3500 
L 978 3500 
L 1906 2253 
L 2834 3500 
L 3513 3500 
z
" transform="scale(0.015625)"/>
     <path id="DejaVuSans-70" d="M 1159 525 
L 1159 -1331 
L 581 -1331 
L 581 3500 
L 1159 3500 
L 1159 2969 
Q 1341 3281 1617 3432 
Q 1894 3584 2278 3584 
Q 2916 3584 3314 3078 
Q 3713 2572 3713 1747 
Q 3713 922 3314 415 
Q 2916 -91 2278 -91 
Q 1894 -91 1617 61 
Q 1341 213 1159 525 
z
M 3116 1747 
Q 3116 2381 2855 2742 
Q 2594 3103 2138 3103 
Q 1681 3103 1420 2742 
Q 1159 2381 1159 1747 
Q 1159 1113 1420 752 
Q 1681 391 2138 391 
Q 2594 391 2855 752 
Q 3116 1113 3116 1747 
z
" transform="scale(0.015625)"/>
     <path id="DejaVuSans-77" d="M 269 3500 
L 844 3500 
L 1563 769 
L 2278 3500 
L 2956 3500 
L 3675 769 
L 4391 3500 
L 4966 3500 
L 4050 0 
L 3372 0 
L 2619 2869 
L 1863 0 
L 1184 0 
L 269 3500 
z
" transform="scale(0.015625)"/>
     <path id="DejaVuSans-6d" d="M 3328 2828 
Q 3544 3216 3844 3400 
Q 4144 3584 4550 3584 
Q 5097 3584 5394 3201 
Q 5691 2819 5691 2113 
L 5691 0 
L 5113 0 
L 5113 2094 
Q 5113 2597 4934 2840 
Q 4756 3084 4391 3084 
Q 3944 3084 3684 2787 
Q 3425 2491 3425 1978 
L 3425 0 
L 2847 0 
L 2847 2094 
Q 2847 2600 2669 2842 
Q 2491 3084 2119 3084 
Q 1678 3084 1418 2786 
Q 1159 2488 1159 1978 
L 1159 0 
L 581 0 
L 581 3500 
L 1159 3500 
L 1159 2956 
Q 1356 3278 1631 3431 
Q 1906 3584 2284 3584 
Q 2666 3584 2933 3390 
Q 3200 3197 3328 2828 
z
" transform="scale(0.015625)"/>
     <path id="DejaVuSans-57" d="M 213 4666 
L 850 4666 
L 1831 722 
L 2809 4666 
L 3519 4666 
L 4500 722 
L 5478 4666 
L 6119 4666 
L 4947 0 
L 4153 0 
L 3169 4050 
L 2175 0 
L 1381 0 
L 213 4666 
z
" transform="scale(0.015625)"/>
    </defs>
    <use xlink:href="#DejaVuSans-45"/>
    <use xlink:href="#DejaVuSans-78" transform="translate(63.183594 0)"/>
    <use xlink:href="#DejaVuSans-63" transform="translate(120.613281 0)"/>
    <use xlink:href="#DejaVuSans-69" transform="translate(175.59375 0)"/>
    <use xlink:href="#DejaVuSans-74" transform="translate(203.376953 0)"/>
    <use xlink:href="#DejaVuSans-61" transform="translate(242.585938 0)"/>
    <use xlink:href="#DejaVuSans-74" transform="translate(303.865234 0)"/>
    <use xlink:href="#DejaVuSans-69" transform="translate(343.074219 0)"/>
    <use xlink:href="#DejaVuSans-6f" transform="translate(370.857422 0)"/>
    <use xlink:href="#DejaVuSans-6e" transform="translate(432.039062 0)"/>
    <use xlink:href="#DejaVuSans-20" transform="translate(495.417969 0)"/>
    <use xlink:href="#DejaVuSans-70" transform="translate(527.205078 0)"/>
    <use xlink:href="#DejaVuSans-6f" transform="translate(590.681641 0)"/>
    <use xlink:href="#DejaVuSans-77" transform="translate(651.863281 0)"/>
    <use xlink:href="#DejaVuSans-65" transform="translate(733.650391 0)"/>
    <use xlink:href="#DejaVuSans-72" transform="translate(795.173828 0)"/>
    <use xlink:href="#DejaVuSans-20" transform="translate(836.287109 0)"/>
    <use xlink:href="#DejaVuSans-30" transform="translate(868.074219 0)"/>
    <use xlink:href="#DejaVuSans-2e" transform="translate(931.697266 0)"/>
    <use xlink:href="#DejaVuSans-35" transform="translate(963.484375 0)"/>
    <use xlink:href="#DejaVuSans-20" transform="translate(1027.107422 0)"/>
    <use xlink:href="#DejaVuSans-6d" transform="translate(1058.894531 0)"/>
    <use xlink:href="#DejaVuSans-57" transform="translate(1156.306641 0)"/>
   </g>
  </g>
 </g>
 <defs>
  <clipPath id="p74cd607bf3">
   <rect x="72" y="86.4" width="446.4" height="420"/>
  </clipPath>
  <clipPath id="p04e0c64df4">
   <rect x="72" y="556.8" width="446.4" height="84"/>
  </clipPath>
 </defs>
</svg>
