<?xml version="1.0" encoding="utf-8" standalone="no"?>
<!DOCTYPE svg PUBLIC "-//W3C//DTD SVG 1.1//EN"
  "http://www.w3.org/Graphics/SVG/1.1/DTD/svg11.dtd">
<svg xmlns:xlink="http://www.w3.org/1999/xlink" width="576pt" height="720pt" viewBox="0 0 576 720" xmlns="http://www.w3.org/2000/svg" version="1.1">
 <metadata>
  <rdf:RDF xmlns:dc="http://purl.org/dc/elements/1.1/" xmlns:cc="http://creativecommons.org/ns#" xmlns:rdf="http://www.w3.org/1999/02/22-rdf-syntax-ns#">
   <cc:Work>
    <dc:type rdf:resource="http://purl.org/dc/dcmitype/StillImage"/>
    <dc:date>2026-06-10T15:01:56.348802</dc:date>
    <dc:format>image/svg+xml</dc:format>
    <dc:creator>
     <cc:Agent>
      <dc:title>Matplotlib v3.10.0, https://matplotlib.org/</dc:title>
     </cc:Agent>
    </dc:creator>
   </cc:Work>
  </rdf:RDF>
 </metadata>
 <defs>
  <style type="text/css">*{stroke-linejoin: round; stroke-linecap: butt}</style>
 </defs>
 <g id="figure_1">
  <g id="patch_1">
   <path d="M 0 720 
L 576 720 
L 576 0 
L 0 0 
z
" style="fill: #ffffff"/>
  </g>
  <g id="axes_1">
   <g id="patch_2">
    <path d="M 72 506.4 
L 518.4 506.4 
L 518.4 86.4 
L 72 86.4 
z
" style="fill: #ffffff"/>
   </g>
   <g id="matplotlib.axis_1">
    <g id="xtick_1">
     <g id="line2d_1">
      <defs>
       <path id="mb78e65c129" d="M 0 0 
L 0 3.5 
" style="stroke: #000000; stroke-width: 0.8"/>
      </defs>
      <g>
       <use xlink:href="#mb78e65c129" x="72" y="506.4" style="stroke: #000000; stroke-width: 0.8"/>
      </g>
     </g>
    </g>
    <g id="xtick_2">
     <g id="line2d_2">
      <g>
       <use xlink:href="#mb78e65c129" x="171.2" y="506.4" style="stroke: #000000; stroke-width: 0.8"/>
      </g>
     </g>
    </g>
    <g id="xtick_3">
     <g id="line2d_3">
      <g>
       <use xlink:href="#mb78e65c129" x="270.4" y="506.4" style="stroke: #000000; stroke-width: 0.8"/>
      </g>
     </g>
    </g>
    <g id="xtick_4">
     <g id="line2d_4">
      <g>
       <use xlink:href="#mb78e65c129" x="369.6" y="506.4" style="stroke: #000000; stroke-width: 0.8"/>
      </g>
     </g>
    </g>
    <g id="xtick_5">
     <g id="line2d_5">
      <g>
       <use xlink:href="#mb78e65c129" x="468.8" y="506.4" style="stroke: #000000; stroke-width: 0.8"/>
      </g>
     </g>
    </g>
   </g>
   <g id="matplotlib.axis_2">
    <g id="ytick_1">
     <g id="line2d_6">
      <defs>
       <path id="m49b3253b88" d="M 0 0 
L -3.5 0 
" style="stroke: #000000; stroke-width: 0.8"/>
      </defs>
      <g>
       <use xlink:href="#m49b3253b88" x="72" y="485.845691" style="stroke: #000000; stroke-width: 0.8"/>
      </g>
     </g>
     <g id="text_1">
      <!-- 0 -->
      <g transform="translate(58.6375 489.64491) scale(0.1 -0.1)">
       <defs>
        <path id="DejaVuSans-30" d="M 2034 4250 
Q 1547 4250 1301 3770 
Q 1056 3291 1056 2328 
Q 1056 1369 1301 889 
Q 1547 409 2034 409 
Q 2525 409 2770 889 
Q 3016 1369 3016 2328 
Q 3016 3291 2770 3770 
Q 2525 4250 2034 4250 
z
M 2034 4750 
Q 2819 4750 3233 4129 
Q 3647 3509 3647 2328 
Q 3647 1150 3233 529 
Q 2819 -91 2034 -91 
Q 1250 -91 836 529 
Q 422 1150 422 2328 
Q 422 3509 836 4129 
Q 1250 4750 2034 4750 
z
" transform="scale(0.015625)"/>
       </defs>
       <use xlink:href="#DejaVuSans-30"/>
      </g>
     </g>
    </g>
    <g id="ytick_2">
     <g id="line2d_7">
      <g>
       <use xlink:href="#m49b3253b88" x="72" y="393.445583" style="stroke: #000000; stroke-width: 0.8"/>
      </g>
     </g>
     <g id="text_2">
      <!-- 10000 -->
      <g transform="translate(33.1875 397.244802) scale(0.1 -0.1)">
       <defs>
        <path id="DejaVuSans-31" d="M 794 531 
L 1825 531 
L 1825 4091 
L 703 3866 
L 703 4441 
L 1819 4666 
L 2450 4666 
L 2450 531 
L 3481 531 
L 3481 0 
L 794 0 
L 794 531 
z
" transform="scale(0.015625)"/>
       </defs>
       <use xlink:href="#DejaVuSans-31"/>
       <use xlink:href="#DejaVuSans-30" transform="translate(63.623047 0)"/>
       <use xlink:href="#DejaVuSans-30" transform="translate(127.246094 0)"/>
       <use xlink:href="#DejaVuSans-30" transform="translate(190.869141 0)"/>
       <use xlink:href="#DejaVuSans-30" transform="translate(254.492188 0)"/>
      </g>
     </g>
    </g>
    <g id="ytick_3">
     <g id="line2d_8">
      <g>
       <use xlink:href="#m49b3253b88" x="72" y="301.045475" style="stroke: #000000; stroke-width: 0.8"/>
      </g>
     </g>
     <g id="text_3">
      <!-- 20000 -->
      <g transform="translate(33.1875 304.844693) scale(0.1 -0.1)">
       <defs>
        <path id="DejaVuSans-32" d="M 1228 531 
L 3431 531 
L 3431 0 
L 469 0 
L 469 531 
Q 828 903 1448 1529 
Q 2069 2156 2228 2338 
Q 2531 2678 2651 2914 
Q 2772 3150 2772 3378 
Q 2772 3750 2511 3984 
Q 2250 4219 1831 4219 
Q 1534 4219 1204 4116 
Q 875 4013 500 3803 
L 500 4441 
Q 881 4594 1212 4672 
Q 1544 4750 1819 4750 
Q 2544 4750 2975 4387 
Q 3406 4025 3406 3419 
Q 3406 3131 3298 2873 
Q 3191 2616 2906 2266 
Q 2828 2175 2409 1742 
Q 1991 1309 1228 531 
z
" transform="scale(0.015625)"/>
       </defs>
       <use xlink:href="#DejaVuSans-32"/>
       <use xlink:href="#DejaVuSans-30" transform="translate(63.623047 0)"/>
       <use xlink:href="#DejaVuSans-30" transform="translate(127.246094 0)"/>
       <use xlink:href="#DejaVuSans-30" transform="translate(190.869141 0)"/>
       <use xlink:href="#DejaVuSans-30" transform="translate(254.492188 0)"/>
      </g>
     </g>
    </g>
    <g id="ytick_4">
     <g id="line2d_9">
      <g>
       <use xlink:href="#m49b3253b88" x="72" y="208.645366" style="stroke: #000000; stroke-width: 0.8"/>
      </g>
     </g>
     <g id="text_4">
      <!-- 30000 -->
      <g transform="translate(33.1875 212.444585) scale(0.1 -0.1)">
       <defs>
        <path id="DejaVuSans-33" d="M 2597 2516 
Q 3050 2419 3304 2112 
Q 3559 1806 3559 1356 
Q 3559 666 3084 287 
Q 2609 -91 1734 -91 
Q 1441 -91 1130 -33 
Q 819 25 488 141 
L 488 750 
Q 750 597 1062 519 
Q 1375 441 1716 441 
Q 2309 441 2620 675 
Q 2931 909 2931 1356 
Q 2931 1769 2642 2001 
Q 2353 2234 1838 2234 
L 1294 2234 
L 1294 2753 
L 1863 2753 
Q 2328 2753 2575 2939 
Q 2822 3125 2822 3475 
Q 2822 3834 2567 4026 
Q 2313 4219 1838 4219 
Q 1578 4219 1281 4162 
Q 984 4106 628 3988 
L 628 4550 
Q 988 4650 1302 4700 
Q 1616 4750 1894 4750 
Q 2613 4750 3031 4423 
Q 3450 4097 3450 3541 
Q 3450 3153 3228 2886 
Q 3006 2619 2597 2516 
z
" transform="scale(0.015625)"/>
       </defs>
       <use xlink:href="#DejaVuSans-33"/>
       <use xlink:href="#DejaVuSans-30" transform="translate(63.623047 0)"/>
       <use xlink:href="#DejaVuSans-30" transform="translate(127.246094 0)"/>
       <use xlink:href="#DejaVuSans-30" transform="translate(190.869141 0)"/>
       <use xlink:href="#DejaVuSans-30" transform="translate(254.492188 0)"/>
      </g>
     </g>
    </g>
    <g id="ytick_5">
     <g id="line2d_10">
      <g>
       <use xlink:href="#m49b3253b88" x="72" y="116.245258" style="stroke: #000000; stroke-width: 0.8"/>
      </g>
     </g>
     <g id="text_5">
      <!-- 40000 -->
      <g transform="translate(33.1875 120.044477) scale(0.1 -0.1)">
       <defs>
        <path id="DejaVuSans-34" d="M 2419 4116 
L 825 1625 
L 2419 1625 
L 2419 4116 
z
M 2253 4666 
L 3047 4666 
L 3047 1625 
L 3713 1625 
L 3713 1100 
L 3047 1100 
L 3047 0 
L 2419 0 
L 2419 1100 
L 313 1100 
L 313 1709 
L 2253 4666 
z
" transform="scale(0.015625)"/>
       </defs>
       <use xlink:href="#DejaVuSans-34"/>
       <use xlink:href="#DejaVuSans-30" transform="translate(63.623047 0)"/>
       <use xlink:href="#DejaVuSans-30" transform="translate(127.246094 0)"/>
       <use xlink:href="#DejaVuSans-30" transform="translate(190.869141 0)"/>
       <use xlink:href="#DejaVuSans-30" transform="translate(254.492188 0)"/>
      </g>
     </g>
    </g>
    <g id="text_6">
     <!-- Intensitiy (a.u.) -->
     <g transform="translate(27.107812 334.453125) rotate(-90) scale(0.1 -0.1)">
      <defs>
       <path id="DejaVuSans-49" d="M 628 4666 
L 1259 4666 
L 1259 0 
L 628 0 
L 628 4666 
z
" transform="scale(0.015625)"/>
       <path id="DejaVuSans-6e" d="M 3513 2113 
L 3513 0 
L 2938 0 
L 2938 2094 
Q 2938 2591 2744 2837 
Q 2550 3084 2163 3084 
Q 1697 3084 1428 2787 
Q 1159 2491 1159 1978 
L 1159 0 
L 581 0 
L 581 3500 
L 1159 3500 
L 1159 2956 
Q 1366 3272 1645 3428 
Q 1925 3584 2291 3584 
Q 2894 3584 3203 3211 
Q 3513 2838 3513 2113 
z
" transform="scale(0.015625)"/>
       <path id="DejaVuSans-74" d="M 1172 4494 
L 1172 3500 
L 2356 3500 
L 2356 3053 
L 1172 3053 
L 1172 1153 
Q 1172 725 1289 603 
Q 1406 481 1766 481 
L 2356 481 
L 2356 0 
L 1766 0 
Q 1100 0 847 248 
Q 594 497 594 1153 
L 594 3053 
L 172 3053 
L 172 3500 
L 594 3500 
L 594 4494 
L 1172 4494 
z
" transform="scale(0.015625)"/>
       <path id="DejaVuSans-65" d="M 3597 1894 
L 3597 1613 
L 953 1613 
Q 991 1019 1311 708 
Q 1631 397 2203 397 
Q 2534 397 2845 478 
Q 3156 559 3463 722 
L 3463 178 
Q 3153 47 2828 -22 
Q 2503 -91 2169 -91 
Q 1331 -91 842 396 
Q 353 884 353 1716 
Q 353 2575 817 3079 
Q 1281 3584 2069 3584 
Q 2775 3584 3186 3129 
Q 3597 2675 3597 1894 
z
M 3022 2063 
Q 3016 2534 2758 2815 
Q 2500 3097 2075 3097 
Q 1594 3097 1305 2825 
Q 1016 2553 972 2059 
L 3022 2063 
z
" transform="scale(0.015625)"/>
       <path id="DejaVuSans-73" d="M 2834 3397 
L 2834 2853 
Q 2591 2978 2328 3040 
Q 2066 3103 1784 3103 
Q 1356 3103 1142 2972 
Q 928 2841 928 2578 
Q 928 2378 1081 2264 
Q 1234 2150 1697 2047 
L 1894 2003 
Q 2506 1872 2764 1633 
Q 3022 1394 3022 966 
Q 3022 478 2636 193 
Q 2250 -91 1575 -91 
Q 1294 -91 989 -36 
Q 684 19 347 128 
L 347 722 
Q 666 556 975 473 
Q 1284 391 1588 391 
Q 1994 391 2212 530 
Q 2431 669 2431 922 
Q 2431 1156 2273 1281 
Q 2116 1406 1581 1522 
L 1381 1569 
Q 847 1681 609 1914 
Q 372 2147 372 2553 
Q 372 3047 722 3315 
Q 1072 3584 1716 3584 
Q 2034 3584 2315 3537 
Q 2597 3491 2834 3397 
z
" transform="scale(0.015625)"/>
       <path id="DejaVuSans-69" d="M 603 3500 
L 1178 3500 
L 1178 0 
L 603 0 
L 603 3500 
z
M 603 4863 
L 1178 4863 
L 1178 4134 
L 603 4134 
L 603 4863 
z
" transform="scale(0.015625)"/>
       <path id="DejaVuSans-79" d="M 2059 -325 
Q 1816 -950 1584 -1140 
Q 1353 -1331 966 -1331 
L 506 -1331 
L 506 -850 
L 844 -850 
Q 1081 -850 1212 -737 
Q 1344 -625 1503 -206 
L 1606 56 
L 191 3500 
L 800 3500 
L 1894 763 
L 2988 3500 
L 3597 3500 
L 2059 -325 
z
" transform="scale(0.015625)"/>
       <path id="DejaVuSans-20" transform="scale(0.015625)"/>
       <path id="DejaVuSans-28" d="M 1984 4856 
Q 1566 4138 1362 3434 
Q 1159 2731 1159 2009 
Q 1159 1288 1364 580 
Q 1569 -128 1984 -844 
L 1484 -844 
Q 1016 -109 783 600 
Q 550 1309 550 2009 
Q 550 2706 781 3412 
Q 1013 4119 1484 4856 
L 1984 4856 
z
" transform="scale(0.015625)"/>
       <path id="DejaVuSans-61" d="M 2194 1759 
Q 1497 1759 1228 1600 
Q 959 1441 959 1056 
Q 959 750 1161 570 
Q 1363 391 1709 391 
Q 2188 391 2477 730 
Q 2766 1069 2766 1631 
L 2766 1759 
L 2194 1759 
z
M 3341 1997 
L 3341 0 
L 2766 0 
L 2766 531 
Q 2569 213 2275 61 
Q 1981 -91 1556 -91 
Q 1019 -91 701 211 
Q 384 513 384 1019 
Q 384 1609 779 1909 
Q 1175 2209 1959 2209 
L 2766 2209 
L 2766 2266 
Q 2766 2663 2505 2880 
Q 2244 3097 1772 3097 
Q 1472 3097 1187 3025 
Q 903 2953 641 2809 
L 641 3341 
Q 956 3463 1253 3523 
Q 1550 3584 1831 3584 
Q 2591 3584 2966 3190 
Q 3341 2797 3341 1997 
z
" transform="scale(0.015625)"/>
       <path id="DejaVuSans-2e" d="M 684 794 
L 1344 794 
L 1344 0 
L 684 0 
L 684 794 
z
" transform="scale(0.015625)"/>
       <path id="DejaVuSans-75" d="M 544 1381 
L 544 3500 
L 1119 3500 
L 1119 1403 
Q 1119 906 1312 657 
Q 1506 409 1894 409 
Q 2359 409 2629 706 
Q 2900 1003 2900 1516 
L 2900 3500 
L 3475 3500 
L 3475 0 
L 2900 0 
L 2900 538 
Q 2691 219 2414 64 
Q 2138 -91 1772 -91 
Q 1169 -91 856 284 
Q 544 659 544 1381 
z
M 1991 3584 
L 1991 3584 
z
" transform="scale(0.015625)"/>
       <path id="DejaVuSans-29" d="M 513 4856 
L 1013 4856 
Q 1481 4119 1714 3412 
Q 1947 2706 1947 2009 
Q 1947 1309 1714 600 
Q 1481 -109 1013 -844 
L 513 -844 
Q 928 -128 1133 580 
Q 1338 1288 1338 2009 
Q 1338 2731 1133 3434 
Q 928 4138 513 4856 
z
" transform="scale(0.015625)"/>
      </defs>
      <use xlink:href="#DejaVuSans-49"/>
      <use xlink:href="#DejaVuSans-6e" transform="translate(29.492188 0)"/>
      <use xlink:href="#DejaVuSans-74" transform="translate(92.871094 0)"/>
      <use xlink:href="#DejaVuSans-65" transform="translate(132.080078 0)"/>
      <use xlink:href="#DejaVuSans-6e" transform="translate(193.603516 0)"/>
      <use xlink:href="#DejaVuSans-73" transform="translate(256.982422 0)"/>
      <use xlink:href="#DejaVuSans-69" transform="translate(309.082031 0)"/>
      <use xlink:href="#DejaVuSans-74" transform="translate(336.865234 0)"/>
      <use xlink:href="#DejaVuSans-69" transform="translate(376.074219 0)"/>
      <use xlink:href="#DejaVuSans-79" transform="translate(403.857422 0)"/>
      <use xlink:href="#DejaVuSans-20" transform="translate(463.037109 0)"/>
      <use xlink:href="#DejaVuSans-28" transform="translate(494.824219 0)"/>
      <use xlink:href="#DejaVuSans-61" transform="translate(533.837891 0)"/>
      <use xlink:href="#DejaVuSans-2e" transform="translate(595.117188 0)"/>
      <use xlink:href="#DejaVuSans-75" transform="translate(626.904297 0)"/>
      <use xlink:href="#DejaVuSans-2e" transform="translate(690.283203 0)"/>
      <use xlink:href="#DejaVuSans-29" transform="translate(722.070312 0)"/>
     </g>
    </g>
   </g>
   <g id="line2d_11">
    <path d="M 518.29584 487.028082 
L 517.68576 486.481356 
L 517.07568 486.507511 
L 516.4656 486.413546 
L 515.85552 486.744621 
L 515.24544 486.650656 
L 514.63536 486.27949 
L 513.42016 486.405732 
L 512.81504 485.969899 
L 512.20992 486.208587 
L 511.6048 486.327155 
L 510.39952 485.963702 
L 509.7944 486.07303 
L 509.19424 485.89593 
L 508.58912 486.356378 
L 507.98896 485.209077 
L 507.3888 485.549417 
L 506.7936 485.34461 
L 506.19344 485.878991 
L 505.59328 486.080731 
L 504.99808 485.848204 
L 504.40288 485.384677 
L 503.21248 485.224542 
L 502.61728 484.668615 
L 502.02208 484.981248 
L 501.43184 484.841134 
L 500.83664 485.227687 
L 500.2464 485.152253 
L 499.65616 484.808858 
L 499.06592 485.047584 
L 498.47568 484.722669 
L 497.88544 485.146195 
L 497.30016 484.220693 
L 496.70992 484.625739 
L 496.12464 484.707397 
L 495.53936 484.391735 
L 494.95408 484.205434 
L 494.3688 484.259372 
L 493.78352 483.50943 
L 493.2032 484.210182 
L 492.61792 483.7744 
L 492.0376 484.197951 
L 491.45728 483.364861 
L 490.29664 483.398844 
L 489.71632 483.147875 
L 489.136 483.599146 
L 488.56064 482.858469 
L 487.98528 483.235834 
L 487.40496 482.910944 
L 486.25424 482.658512 
L 485.10848 481.805491 
L 484.53312 482.404616 
L 483.38736 481.357555 
L 482.24656 482.056869 
L 481.67616 481.935285 
L 481.11072 481.129954 
L 480.54032 480.82357 
L 479.96992 480.859067 
L 479.40448 480.589656 
L 478.83904 480.967045 
L 478.2736 480.475874 
L 477.70816 480.640744 
L 477.14272 480.186533 
L 476.57728 480.730243 
L 476.01184 479.980351 
L 475.45136 480.089793 
L 474.89088 479.386114 
L 474.32544 479.449344 
L 473.76496 480.270267 
L 473.20448 479.095347 
L 472.64896 479.389603 
L 471.528 478.897006 
L 470.41696 479.115916 
L 469.85648 478.245917 
L 469.30096 478.207532 
L 468.74544 478.289266 
L 468.19488 478.223174 
L 467.63936 476.900427 
L 467.08384 477.693643 
L 466.53328 476.685069 
L 465.98272 477.302737 
L 464.8816 476.237311 
L 464.33104 475.736938 
L 463.78048 475.421365 
L 463.22992 476.029793 
L 462.13376 475.805221 
L 461.58816 475.526621 
L 461.04256 474.50882 
L 460.49696 474.90474 
L 459.95136 474.7093 
L 459.40576 474.26438 
L 458.86016 473.97654 
L 458.31952 473.836553 
L 457.77392 473.253032 
L 457.23328 473.103805 
L 456.69264 472.751298 
L 456.152 472.962431 
L 455.61136 472.499043 
L 455.07072 472.201976 
L 454.53008 473.05991 
L 453.9944 473.012335 
L 453.45376 471.569507 
L 452.91808 471.327892 
L 452.3824 471.455878 
L 451.84672 470.678343 
L 451.31104 470.409008 
L 450.77536 470.001073 
L 450.23968 469.879579 
L 449.70896 470.210857 
L 449.17328 469.045242 
L 448.64256 469.404241 
L 448.11184 468.765318 
L 447.57616 468.532944 
L 447.04544 467.247221 
L 446.51472 467.245859 
L 445.98896 467.992951 
L 445.45824 466.356107 
L 444.93248 465.578598 
L 444.40176 466.399597 
L 443.876 465.409567 
L 443.35024 465.519098 
L 442.82448 464.566028 
L 442.29872 465.18376 
L 441.77296 464.877491 
L 441.2472 464.007581 
L 440.72144 464.440513 
L 440.20064 463.164055 
L 439.67984 462.589838 
L 439.15408 462.449889 
L 438.63328 461.533792 
L 438.11248 462.604297 
L 437.59168 461.873 
L 437.07584 460.504155 
L 436.55504 460.983299 
L 436.03424 460.750963 
L 435.5184 460.380039 
L 435.00256 459.408514 
L 434.48176 460.007779 
L 433.96592 460.015696 
L 433.45008 458.18485 
L 432.93424 457.074725 
L 432.42336 458.006656 
L 431.90752 456.684011 
L 431.39664 456.58106 
L 430.8808 456.773777 
L 430.36992 455.432664 
L 429.85904 455.985754 
L 429.34816 454.801722 
L 428.83728 455.511892 
L 428.3264 454.651261 
L 427.81552 454.55755 
L 427.30464 452.782157 
L 426.79872 452.531379 
L 426.28784 452.751828 
L 425.78192 452.47333 
L 425.276 451.298551 
L 424.77008 449.726451 
L 423.75824 450.195096 
L 423.25232 448.114795 
L 422.75136 448.46463 
L 422.24544 448.056772 
L 421.74448 447.390206 
L 421.24352 447.934081 
L 420.7376 446.241861 
L 420.23664 445.603015 
L 419.73568 444.261928 
L 419.23472 444.972124 
L 418.73872 442.965769 
L 418.23776 443.879245 
L 417.74176 443.776332 
L 417.2408 443.137486 
L 416.7448 441.870332 
L 416.2488 442.44194 
L 415.25184 440.00926 
L 414.7608 439.8232 
L 414.2648 439.932807 
L 413.7688 439.293974 
L 413.27776 437.611032 
L 412.78176 437.58204 
L 412.29072 436.194778 
L 411.79968 436.147318 
L 411.30368 434.362724 
L 410.81264 435.054465 
L 410.3216 434.997765 
L 409.83552 433.592036 
L 409.34448 432.740695 
L 408.85344 432.591596 
L 408.36736 431.370667 
L 407.87632 428.726764 
L 407.39024 428.503757 
L 406.90416 428.79819 
L 406.41808 428.057742 
L 405.932 426.578093 
L 405.44592 427.343767 
L 404.95984 427.13 
L 404.47872 426.315644 
L 403.99264 426.166557 
L 403.51152 423.74444 
L 403.02544 423.927993 
L 402.54432 421.940157 
L 402.0632 421.347561 
L 401.58208 423.101929 
L 401.10096 418.84105 
L 400.61984 420.770978 
L 400.13872 421.222504 
L 399.66256 420.482081 
L 399.18144 415.389601 
L 398.70528 418.225063 
L 398.22416 414.869705 
L 397.748 415.395164 
L 397.27184 413.204059 
L 396.79568 413.858878 
L 396.31952 410.096972 
L 395.84336 412.267153 
L 395.3672 411.406611 
L 394.896 409.178559 
L 394.41984 410.433979 
L 393.94864 408.113527 
L 393.47744 408.204719 
L 392.53008 406.649966 
L 392.05888 403.507154 
L 391.58768 403.247225 
L 391.11648 401.120813 
L 390.65024 403.180139 
L 390.17904 401.053728 
L 389.7128 401.717813 
L 389.2416 397.863519 
L 388.77536 399.257565 
L 387.84288 397.31477 
L 387.37664 395.465572 
L 386.9104 395.760056 
L 386.44416 392.755856 
L 385.97792 392.59758 
L 385.51168 391.302782 
L 385.0504 391.098318 
L 384.58416 391.189522 
L 384.12288 388.767456 
L 382.73904 387.119184 
L 382.27776 387.358241 
L 381.81648 383.199052 
L 381.3552 383.502789 
L 380.89392 384.333207 
L 380.4376 380.072391 
L 379.97632 380.828888 
L 379.52 378.619355 
L 379.06368 378.987785 
L 378.60736 378.053373 
L 378.14608 378.62507 
L 377.68976 378.466819 
L 377.2384 376.368179 
L 376.32576 371.052831 
L 375.86944 372.502342 
L 375.41808 370.948862 
L 374.96176 368.628449 
L 374.5104 369.532812 
L 374.05904 368.663093 
L 373.60768 367.155813 
L 373.15632 365.149573 
L 372.70496 365.684335 
L 372.2536 364.768416 
L 371.80224 364.148178 
L 371.35088 361.707657 
L 370.45312 359.136631 
L 370.00672 359.486606 
L 369.56032 358.432099 
L 369.11392 357.793393 
L 368.66256 354.096231 
L 368.21616 355.296287 
L 367.76976 355.396782 
L 367.32832 353.769407 
L 366.88192 354.202543 
L 366.43552 350.643993 
L 365.54768 347.028871 
L 365.10624 349.873662 
L 364.65984 346.213472 
L 364.2184 343.708297 
L 363.77696 344.187645 
L 362.89408 342.300418 
L 362.45264 339.453362 
L 361.57472 341.077351 
L 361.13328 337.879175 
L 360.6968 336.076253 
L 360.26032 335.493012 
L 359.81888 334.503199 
L 359.3824 335.5462 
L 358.94592 330.305994 
L 358.50944 335.858121 
L 358.07296 331.144596 
L 357.63648 328.574753 
L 357.2 327.834432 
L 356.76848 326.530483 
L 356.332 328.275726 
L 355.90048 325.678175 
L 355.464 324.882415 
L 355.03248 326.258069 
L 354.60096 322.875118 
L 354.16944 320.711849 
L 353.73296 321.66245 
L 353.30144 317.946858 
L 352.44336 316.078175 
L 352.01184 312.787624 
L 351.58528 311.067887 
L 351.15376 314.245344 
L 350.7272 313.662129 
L 350.29568 311.572779 
L 349.86912 310.518324 
L 349.44256 306.728825 
L 349.016 309.462774 
L 348.16288 303.546978 
L 347.73632 303.582844 
L 347.30976 300.467866 
L 346.8832 300.217291 
L 346.4616 296.788165 
L 345.61344 298.901952 
L 345.19184 296.128867 
L 344.76528 298.382335 
L 344.34368 298.399734 
L 343.92208 292.475805 
L 343.50048 295.699487 
L 343.07888 291.891521 
L 342.66224 290.513691 
L 342.24064 290.032128 
L 341.81904 285.309401 
L 341.4024 285.668693 
L 340.56416 283.93866 
L 340.14256 283.336978 
L 339.72592 285.359471 
L 339.30928 281.126477 
L 338.89264 279.258926 
L 338.476 280.080218 
L 338.05936 277.029946 
L 337.23104 275.983699 
L 336.8144 272.295866 
L 336.39776 272.045317 
L 335.5744 268.17164 
L 335.15776 267.43137 
L 334.74608 268.557595 
L 334.3344 266.745497 
L 333.92272 265.460079 
L 333.51104 264.904622 
L 333.09936 265.180767 
L 332.276 264.550333 
L 331.86928 261.481606 
L 331.4576 262.875792 
L 331.05088 262.117067 
L 330.23248 256.413881 
L 329.82576 256.560678 
L 329.00736 253.527855 
L 328.60064 249.793847 
L 328.19392 249.136763 
L 327.79216 251.427254 
L 326.97872 245.3822 
L 326.57696 247.755852 
L 326.17024 245.075206 
L 325.76848 245.831856 
L 325.36176 242.273408 
L 324.96 242.438698 
L 324.55824 241.984907 
L 323.74976 236.170865 
L 323.35296 237.426489 
L 322.9512 231.705891 
L 322.54944 234.181184 
L 322.14768 231.46359 
L 321.74592 233.449161 
L 321.34912 233.448143 
L 320.94736 228.984187 
L 320.55056 230.674091 
L 320.15376 228.353831 
L 319.752 232.131964 
L 319.3552 231.373265 
L 318.9584 228.507844 
L 318.5616 228.118745 
L 318.1648 226.426805 
L 317.768 223.117864 
L 317.3712 218.70936 
L 316.97936 217.525634 
L 316.58256 215.759774 
L 316.18576 217.902438 
L 315.40208 212.753741 
L 315.00528 216.319368 
L 314.61344 213.629519 
L 314.2216 217.684879 
L 313.82976 213.904709 
L 313.43792 214.125464 
L 312.65424 206.112364 
L 312.2624 203.635036 
L 311.87056 202.571429 
L 311.48368 204.788039 
L 311.09184 203.604312 
L 310.7 203.233707 
L 310.31312 200.294391 
L 309.92624 204.266603 
L 309.5344 204.117757 
L 309.14752 206.389807 
L 308.76064 204.217412 
L 307.98688 202.958786 
L 307.6 197.792627 
L 307.21312 196.978514 
L 306.8312 194.602851 
L 306.44432 195.183979 
L 306.05744 190.793981 
L 305.67552 191.384362 
L 305.28864 187.391685 
L 304.90672 187.252105 
L 304.5248 190.642209 
L 304.13792 188.164894 
L 303.756 189.475995 
L 303.37408 189.881576 
L 302.99216 191.044837 
L 302.61024 189.029535 
L 302.22832 189.952556 
L 300.71056 177.437688 
L 300.32864 175.228345 
L 299.95168 175.319778 
L 299.56976 177.065161 
L 299.1928 173.90411 
L 298.43888 176.923659 
L 297.68496 175.960764 
L 297.308 175.885877 
L 296.93104 176.80891 
L 296.55408 171.753657 
L 296.17712 171.18905 
L 295.80512 166.44797 
L 295.42816 166.363842 
L 295.05616 162.574484 
L 294.6792 163.007797 
L 294.3072 158.433037 
L 293.93024 159.125071 
L 293.55824 159.151837 
L 293.18624 157.33984 
L 292.81424 154.539162 
L 292.44224 156.709611 
L 292.07024 156.052615 
L 291.69824 156.532142 
L 291.32624 160.217952 
L 290.9592 160.72521 
L 290.5872 158.543613 
L 290.22016 158.598112 
L 289.84816 157.358996 
L 289.48112 151.998848 
L 289.10912 150.935292 
L 288.74208 146.037145 
L 288.37504 150.148008 
L 287.636 144.694506 
L 287.26896 147.040527 
L 286.90192 147.326025 
L 286.53984 146.123895 
L 286.1728 146.843674 
L 285.80576 151.111618 
L 285.43872 148.625113 
L 285.07664 147.598543 
L 284.7096 151.681686 
L 283.98048 148.464292 
L 283.6184 148.176922 
L 283.25632 142.872227 
L 282.88928 143.287086 
L 282.5272 138.388951 
L 282.16512 137.593381 
L 281.80304 134.885129 
L 281.44096 137.046363 
L 281.07888 134.781631 
L 280.72176 134.873115 
L 280.35968 138.17087 
L 279.9976 135.749058 
L 279.64048 139.712107 
L 279.2784 142.058141 
L 278.92128 142.925785 
L 278.5592 141.012174 
L 278.20208 141.482499 
L 277.84496 143.024664 
L 277.48288 132.711883 
L 277.12576 132.664767 
L 276.0544 123.625288 
L 275.69728 119.632687 
L 275.34512 123.226147 
L 274.988 124.398713 
L 274.63088 126.393639 
L 274.27872 126.845496 
L 273.9216 125.883618 
L 273.56944 130.32716 
L 273.21232 127.21236 
L 272.86016 132.284223 
L 272.15088 134.694046 
L 271.79872 136.652025 
L 271.0944 130.46865 
L 270.74224 131.068348 
L 270.39008 124.396156 
L 270.04288 120.375861 
L 269.69072 124.902563 
L 269.33856 118.174931 
L 268.99136 116.418438 
L 268.6392 121.785981 
L 268.28704 118.329314 
L 267.93984 122.005947 
L 267.59264 123.243218 
L 267.24048 125.349037 
L 266.89328 124.516545 
L 266.54608 127.897498 
L 266.19888 128.229248 
L 264.81008 131.690689 
L 264.46288 123.188988 
L 264.11568 124.463219 
L 263.77344 117.754093 
L 263.42624 118.594043 
L 263.084 115.322201 
L 262.7368 113.787469 
L 262.39456 114.257831 
L 262.04736 115.143982 
L 261.70512 111.447099 
L 261.36288 117.045668 
L 261.02064 114.420627 
L 260.6784 117.441232 
L 259.99392 125.931046 
L 259.65168 127.103649 
L 259.30944 127.472372 
L 258.9672 127.425294 
L 258.62496 124.495332 
L 258.28768 126.739789 
L 257.6032 119.364505 
L 257.26592 117.765117 
L 256.92864 111.120684 
L 256.5864 113.060209 
L 256.24912 110.67542 
L 255.91184 105.490909 
L 255.5696 109.333876 
L 255.23232 109.49009 
L 254.89504 117.287794 
L 254.55776 117.97993 
L 254.22048 120.982068 
L 253.8832 122.413404 
L 253.2136 128.279093 
L 252.87632 133.840714 
L 252.20672 127.454149 
L 251.86944 129.661646 
L 251.2048 119.458969 
L 250.86752 119.273304 
L 250.5352 112.878364 
L 250.20288 113.681392 
L 249.87056 113.098419 
L 249.53328 111.822432 
L 249.20096 115.646944 
L 248.86864 116.339092 
L 248.54128 120.256017 
L 248.20896 119.959484 
L 247.54432 132.782914 
L 247.212 130.167138 
L 246.55232 132.771129 
L 246.22496 132.271328 
L 245.89264 125.072507 
L 245.56528 123.029625 
L 245.23792 118.381059 
L 244.57824 115.339403 
L 244.25088 118.230687 
L 243.92352 116.566645 
L 243.2688 122.487812 
L 242.94144 122.634813 
L 242.61408 124.260215 
L 241.95936 137.13911 
L 241.63696 136.297442 
L 241.3096 143.07877 
L 240.9872 143.964984 
L 240.33744 137.71707 
L 240.01008 138.880471 
L 239.68768 132.550236 
L 239.36528 130.553567 
L 239.03792 127.115443 
L 238.71552 125.174214 
L 238.39312 126.125108 
L 237.74832 121.540408 
L 237.42592 127.139027 
L 237.10352 130.418404 
L 236.78112 131.249178 
L 236.14128 144.636312 
L 235.81888 145.614926 
L 235.49648 150.400425 
L 235.17904 148.376048 
L 234.85664 151.174944 
L 234.5392 149.889768 
L 234.22176 148.031711 
L 233.89936 140.989996 
L 233.58192 140.0467 
L 233.26448 137.320083 
L 232.94704 132.810143 
L 232.62464 135.535119 
L 232.3072 134.111343 
L 231.98976 133.750168 
L 231.67232 135.523436 
L 231.35984 138.202237 
L 231.0424 137.175782 
L 230.72496 138.339209 
L 230.09504 149.397886 
L 229.7776 150.949393 
L 229.46016 158.839548 
L 229.14768 161.148749 
L 228.83024 165.6663 
L 228.51776 163.466375 
L 228.20528 159.667929 
L 227.88784 167.003683 
L 227.57536 165.63536 
L 226.63792 157.631106 
L 226.32544 151.984657 
L 226.01296 150.182054 
L 225.70048 146.864088 
L 225.388 149.524409 
L 225.07552 148.904527 
L 224.768 151.943702 
L 224.45552 152.33098 
L 224.14304 159.796107 
L 223.83552 159.508878 
L 223.52304 166.364165 
L 223.21552 165.670375 
L 222.59552 178.225959 
L 221.97552 183.749895 
L 221.668 180.468902 
L 221.36048 180.523553 
L 221.05296 177.926321 
L 220.74544 178.119572 
L 220.1304 169.894385 
L 219.82288 169.468555 
L 219.51536 166.400083 
L 218.59776 163.006644 
L 218.29024 170.213064 
L 217.98272 170.184555 
L 217.68016 172.373661 
L 217.37264 176.697197 
L 216.76752 186.536256 
L 216.46 184.493425 
L 216.15744 195.867102 
L 215.85488 199.46993 
L 215.55232 198.997913 
L 215.24976 201.68598 
L 214.94224 200.95523 
L 214.63968 201.194694 
L 214.33712 196.851113 
L 214.03952 198.559752 
L 213.73696 196.138092 
L 213.4344 185.169423 
L 212.82928 189.991157 
L 212.53168 187.818991 
L 212.22912 186.672453 
L 211.93152 190.792734 
L 211.62896 191.041438 
L 211.33136 193.821918 
L 211.0288 192.49982 
L 210.7312 195.2803 
L 210.13104 204.04753 
L 209.53584 211.493452 
L 209.23824 217.674256 
L 208.94064 218.357253 
L 208.34544 222.236531 
L 208.04784 219.916524 
L 207.75024 220.701162 
L 207.45264 214.805271 
L 207.15504 213.612547 
L 206.8624 208.91787 
L 206.5648 207.069105 
L 206.2672 203.390817 
L 205.97456 206.78115 
L 205.67696 203.213742 
L 205.38432 201.58675 
L 205.09168 206.261444 
L 204.79408 206.519401 
L 204.50144 209.355334 
L 204.2088 219.934395 
L 203.9112 218.47371 
L 203.61856 228.304331 
L 203.32592 230.142342 
L 203.03328 233.015235 
L 202.74064 233.633565 
L 202.448 238.78874 
L 202.15536 237.300347 
L 201.86272 236.551156 
L 201.57008 236.319405 
L 200.98976 230.302669 
L 200.69712 227.954955 
L 200.40944 226.753016 
L 200.1168 228.895947 
L 199.82416 224.866552 
L 199.53648 224.468493 
L 199.2488 224.476995 
L 198.95616 222.027642 
L 198.66848 226.314269 
L 198.3808 226.15645 
L 198.08816 228.918463 
L 197.5128 239.117959 
L 197.22512 237.343138 
L 196.64976 252.18112 
L 196.36208 253.649543 
L 196.0744 260.273893 
L 195.78672 258.554513 
L 195.49904 263.857541 
L 195.21136 263.542643 
L 194.92864 265.89812 
L 194.64096 265.167421 
L 194.07056 259.095271 
L 193.78288 258.336852 
L 193.50016 252.274679 
L 193.21248 251.35918 
L 192.92976 245.897608 
L 192.64208 247.948153 
L 192.35936 247.781107 
L 191.79392 246.744775 
L 191.5112 250.966735 
L 191.22352 253.063479 
L 190.9408 258.02464 
L 190.65808 258.439715 
L 190.37536 266.265279 
L 189.80992 273.692797 
L 189.53216 276.353207 
L 189.24944 282.552529 
L 188.96672 283.568205 
L 188.684 285.360042 
L 188.40624 285.377809 
L 188.12352 284.711803 
L 187.8408 284.914358 
L 187.56304 281.152961 
L 187.28032 279.073233 
L 186.7248 273.019601 
L 185.88656 268.850205 
L 185.32608 271.750131 
L 185.04832 270.843897 
L 183.93728 280.829498 
L 183.65952 285.273231 
L 183.38176 287.231401 
L 182.8312 301.247085 
L 182.55344 303.759655 
L 182.27568 304.082343 
L 182.00288 303.296242 
L 181.72512 303.129209 
L 181.45232 304.23731 
L 181.17456 302.139115 
L 180.90176 298.192931 
L 180.624 300.391341 
L 180.3512 293.700873 
L 180.0784 291.889131 
L 179.80064 288.756055 
L 179.25504 292.450659 
L 178.98224 291.646079 
L 178.70944 292.8743 
L 178.16384 302.002031 
L 177.61824 309.58668 
L 177.34544 317.190509 
L 177.07264 318.464931 
L 176.79984 324.368598 
L 176.52704 324.645098 
L 176.2592 326.187493 
L 175.9864 325.013312 
L 175.7136 327.359574 
L 174.90512 318.70885 
L 174.63232 317.368349 
L 174.36448 314.207578 
L 174.09168 313.597037 
L 173.82384 314.695911 
L 173.556 311.16554 
L 173.01536 316.98536 
L 172.74752 316.374832 
L 172.21184 321.215223 
L 171.944 328.541865 
L 171.67616 330.176659 
L 171.40832 336.5793 
L 171.14048 338.962535 
L 170.87264 339.719529 
L 170.6048 341.908724 
L 170.34192 345.225214 
L 170.07408 340.447441 
L 169.80624 342.414876 
L 169.54336 342.589762 
L 169.27552 337.220629 
L 168.7448 333.643383 
L 168.47696 332.727935 
L 168.21408 330.518898 
L 167.94624 329.640409 
L 167.68336 329.861495 
L 167.42048 332.752944 
L 167.1576 329.740026 
L 166.88976 332.539062 
L 166.62688 332.427508 
L 166.10112 340.797609 
L 165.57536 345.388545 
L 164.78672 360.272179 
L 164.52384 357.795182 
L 164.26096 359.89199 
L 163.99808 364.751561 
L 163.47728 359.437219 
L 163.2144 358.447863 
L 162.6936 353.835762 
L 162.43072 348.365001 
L 162.1728 350.702062 
L 161.90992 347.809264 
L 161.652 346.875361 
L 161.39408 347.817181 
L 161.1312 349.877029 
L 160.61536 350.938306 
L 159.83664 358.060357 
L 159.57872 359.445697 
L 159.3208 362.605119 
L 159.06288 368.351744 
L 158.80496 371.298646 
L 158.54704 371.898585 
L 158.0312 377.579868 
L 157.77328 375.795884 
L 157.2624 378.520376 
L 156.74656 376.698771 
L 156.23568 372.964496 
L 155.98272 372.945367 
L 155.7248 371.216823 
L 155.47184 368.453411 
L 155.21392 368.332629 
L 154.96096 369.283701 
L 154.70304 366.705076 
L 153.68624 371.627393 
L 153.43328 377.022911 
L 153.18032 377.715263 
L 152.92736 379.303896 
L 152.6744 384.902693 
L 152.16848 388.403359 
L 151.91552 391.193193 
L 151.66256 392.153506 
L 151.4096 394.527539 
L 151.15664 392.965329 
L 150.90864 393.297333 
L 150.65568 394.738125 
L 150.40272 394.848357 
L 149.6488 386.983173 
L 149.4008 387.250497 
L 149.14784 387.175928 
L 148.89984 386.611651 
L 148.64688 385.354361 
L 148.39888 384.956404 
L 148.15088 386.434169 
L 147.89792 385.121439 
L 147.40192 387.87369 
L 146.90096 390.505807 
L 146.65296 394.524576 
L 146.40496 395.429461 
L 145.90896 402.487556 
L 145.66096 402.939681 
L 145.41296 405.378407 
L 145.16496 408.990615 
L 144.91696 409.81234 
L 144.66896 407.261461 
L 144.42592 409.61704 
L 143.92992 405.707243 
L 143.68192 404.921206 
L 143.43888 402.76766 
L 143.19088 404.337825 
L 142.94288 403.431668 
L 142.69984 401.425962 
L 142.45184 402.552607 
L 142.2088 400.389821 
L 141.96576 401.156118 
L 141.71776 402.652364 
L 141.47472 401.903299 
L 141.22672 401.985823 
L 140.74064 408.036783 
L 140.4976 409.477601 
L 140.00656 415.232868 
L 139.76352 416.239406 
L 139.52048 417.754144 
L 139.27744 421.384845 
L 139.0344 421.467381 
L 138.54832 421.946615 
L 138.30528 421.862831 
L 137.58112 420.918492 
L 137.09504 417.452241 
L 136.85696 419.003952 
L 136.37088 415.999702 
L 136.1328 418.521614 
L 135.88976 416.931708 
L 135.65168 419.32426 
L 135.40864 417.632715 
L 135.17056 417.013023 
L 134.93248 419.701256 
L 134.68944 420.236553 
L 134.45136 423.488426 
L 134.21328 422.813294 
L 133.97024 426.111354 
L 133.73216 427.348905 
L 133.49408 430.221938 
L 133.256 431.459488 
L 133.01792 433.58408 
L 132.77984 433.869909 
L 132.54176 435.523261 
L 132.30368 435.190009 
L 132.0656 435.180159 
L 131.82752 436.362269 
L 131.58944 432.868934 
L 131.35136 433.644484 
L 131.11328 429.901669 
L 130.8752 429.633098 
L 130.63712 428.976446 
L 130.404 429.909089 
L 130.16592 429.206238 
L 129.92784 426.969544 
L 129.69472 428.918589 
L 129.45664 429.352258 
L 129.22352 431.791023 
L 128.98544 432.252413 
L 128.75232 434.413977 
L 128.51424 434.819927 
L 128.28112 438.182693 
L 127.80992 439.567485 
L 127.5768 441.81221 
L 127.33872 442.61548 
L 127.1056 442.152881 
L 126.87248 444.277486 
L 126.40624 442.807128 
L 126.16816 444.340359 
L 125.70192 441.8536 
L 125.4688 441.067601 
L 125.23568 441.048523 
L 125.00256 439.107522 
L 124.76944 439.726005 
L 124.30816 438.23718 
L 123.84192 440.047026 
L 123.6088 442.19011 
L 123.38064 442.771646 
L 123.14752 442.410687 
L 122.9144 444.378211 
L 122.68624 444.765706 
L 122.22496 449.772609 
L 121.99184 449.00509 
L 121.76368 449.392585 
L 121.53056 449.290347 
L 121.3024 451.692164 
L 121.06928 451.469806 
L 120.84112 450.184859 
L 120.15168 449.69337 
L 119.92352 448.232862 
L 119.69536 448.389357 
L 119.4672 446.75329 
L 119.23904 449.182827 
L 119.00592 447.796228 
L 118.77776 449.126204 
L 118.5496 448.663618 
L 118.32144 448.930993 
L 118.09328 450.316409 
L 117.87008 449.909276 
L 117.64192 452.800814 
L 117.41376 452.606189 
L 117.1856 452.873564 
L 116.27792 456.853679 
L 116.04976 456.991694 
L 115.5984 459.83646 
L 114.92384 459.871689 
L 114.02112 457.28217 
L 113.56976 454.647609 
L 113.34656 457.021719 
L 113.12336 457.252147 
L 112.90016 455.459012 
L 112.672 457.408069 
L 112.4488 457.407496 
L 112.2256 457.203643 
L 112.0024 457.794431 
L 111.7792 460.251702 
L 111.1096 461.783826 
L 110.8864 463.622015 
L 110.6632 463.741563 
L 110.44 463.56543 
L 109.99856 465.440019 
L 109.55216 466.196555 
L 109.33392 466.916716 
L 109.11072 466.879183 
L 108.44608 465.408316 
L 108.22784 466.220877 
L 108.00464 465.056063 
L 107.7864 464.879943 
L 107.5632 465.110371 
L 107.12176 463.593877 
L 106.90352 462.992716 
L 106.24384 465.411906 
L 106.0256 465.522227 
L 105.80736 465.290666 
L 105.58416 466.592935 
L 105.36592 466.287455 
L 104.92944 469.049098 
L 104.7112 468.937658 
L 104.49296 469.9073 
L 104.27472 470.30406 
L 104.05648 470.38666 
L 103.83824 471.374782 
L 103.62 471.189421 
L 103.40176 472.038943 
L 103.18352 471.641062 
L 102.97024 472.084035 
L 102.752 472.064996 
L 102.53376 471.685595 
L 102.31552 469.966393 
L 102.10224 471.351848 
L 101.884 470.057686 
L 101.45248 470.50934 
L 101.23424 469.751099 
L 101.02096 470.036992 
L 100.80272 470.627793 
L 100.58944 470.414725 
L 100.3712 471.134886 
L 100.15792 470.339698 
L 99.0816 473.2383 
L 98.65504 473.440486 
L 98.44176 474.43786 
L 98.22848 474.437313 
L 97.79696 476.635328 
L 97.3704 476.273874 
L 96.94384 477.06742 
L 96.73056 477.103833 
L 96.51728 476.585845 
L 96.30896 477.269072 
L 96.09568 476.427683 
L 95.66912 476.149389 
L 95.45584 476.934242 
L 95.24752 476.083627 
L 95.03424 476.49888 
L 94.82096 475.888492 
L 94.61264 475.795558 
L 94.39936 476.044491 
L 94.18608 475.471063 
L 93.97776 475.470529 
L 93.76448 476.246142 
L 93.55616 475.857527 
L 93.34288 476.614661 
L 93.13456 476.309206 
L 92.92624 476.863072 
L 92.50464 478.358873 
L 92.29632 478.432258 
L 92.08304 478.810551 
L 91.6664 479.816644 
L 91.45808 479.788389 
L 91.2448 479.880242 
L 91.03648 480.655869 
L 90.82816 480.904814 
L 90.61984 480.248239 
L 90.41152 480.848305 
L 90.2032 480.37653 
L 89.78656 480.061301 
L 89.57824 480.735287 
L 89.36992 479.468871 
L 89.1616 479.422137 
L 88.95328 479.966763 
L 88.5416 479.928747 
L 88.33328 479.567852 
L 88.12496 480.103238 
L 87.91664 479.400463 
L 87.71328 480.019022 
L 87.50496 480.009247 
L 87.29664 480.415273 
L 87.09328 480.156031 
L 86.88496 481.171898 
L 86.6816 481.078976 
L 86.47328 481.771443 
L 86.0616 482.297067 
L 85.85824 482.897146 
L 85.64992 482.360691 
L 85.44656 482.554209 
L 85.2432 483.431489 
L 85.03488 482.876554 
L 84.62816 483.300551 
L 84.4248 483.697349 
L 84.21648 483.484295 
L 84.01312 483.862613 
L 83.80976 483.640331 
L 83.6064 484.30509 
L 83.40304 483.445248 
L 83.19968 483.851286 
L 82.99632 483.203964 
L 82.5896 483.0828 
L 82.38624 483.719839 
L 82.18288 483.321997 
L 81.97952 483.238315 
L 81.77616 483.588914 
L 81.5728 483.606872 
L 81.3744 483.246003 
L 81.17104 483.920002 
L 80.96768 483.96568 
L 80.56592 483.465689 
L 80.36256 484.047288 
L 80.1592 484.092966 
L 79.9608 484.766978 
L 79.75744 484.646336 
L 79.35568 485.107306 
L 79.15232 484.764904 
L 78.75056 485.567754 
L 78.55216 485.493325 
L 78.35376 485.575976 
L 78.1504 485.252054 
L 77.952 485.741265 
L 77.7536 485.842396 
L 77.55024 485.499994 
L 77.35184 485.564165 
L 77.15344 485.240256 
L 76.95504 485.387587 
L 76.75168 485.072905 
L 76.55328 485.192516 
L 76.35488 485.589328 
L 75.95808 485.60679 
L 75.75968 485.634001 
L 75.56128 485.411731 
L 75.36288 485.743863 
L 75.16448 485.687914 
L 74.96608 486.186365 
L 74.76768 485.696136 
L 74.56928 486.286987 
L 74.37088 486.462039 
L 74.17744 486.443062 
L 73.97904 486.839874 
L 73.58224 486.958976 
L 73.3888 486.903039 
L 73.1904 487.309091 
L 72.992 487.188462 
L 72.79856 486.698245 
L 72.60016 486.790136 
L 72.40176 487.159227 
L 72.20832 486.983171 
L 72.00992 487.112022 
L 72.00992 487.112022 
" clip-path="url(#p75f05498c2)" style="fill: none; stroke-dasharray: 3.7,1.6; stroke-dashoffset: 0; stroke: #1fa187"/>
   </g>
   <g id="line2d_12">
    <path d="M 72.00992 476.745476 
L 76.481723 475.048783 
L 80.953526 473.087483 
L 84.530968 471.307293 
L 88.10841 469.321558 
L 91.685852 467.113178 
L 95.263295 464.664585 
L 98.840737 461.957874 
L 102.418179 458.974958 
L 105.995621 455.697738 
L 109.573064 452.10831 
L 113.150506 448.189174 
L 116.727948 443.923481 
L 120.30539 439.29529 
L 123.882833 434.289844 
L 127.460275 428.893864 
L 131.037717 423.09585 
L 134.615159 416.886392 
L 138.192602 410.258486 
L 141.770044 403.207848 
L 145.347486 395.73322 
L 149.819289 385.797185 
L 154.291092 375.214171 
L 158.762894 364.005742 
L 163.234697 352.203651 
L 168.600861 337.31803 
L 173.967024 321.733489 
L 180.227548 302.825874 
L 188.276793 277.720536 
L 206.164004 221.606603 
L 211.530168 205.550533 
L 216.00197 192.735318 
L 220.473773 180.572026 
L 224.051215 171.396483 
L 227.628658 162.782924 
L 231.2061 154.791912 
L 233.889182 149.241781 
L 236.572263 144.096824 
L 239.255345 139.378326 
L 241.938427 135.10601 
L 244.621508 131.297891 
L 247.30459 127.970157 
L 249.093311 126.025666 
L 250.882032 124.30477 
L 252.670753 122.810772 
L 254.459474 121.546548 
L 256.248196 120.514537 
L 258.036917 119.716735 
L 259.825638 119.154687 
L 261.614359 118.829483 
L 263.40308 118.741755 
L 265.191801 118.891673 
L 266.980522 119.278945 
L 268.769243 119.902821 
L 270.557965 120.76209 
L 272.346686 121.855089 
L 274.135407 123.179705 
L 275.924128 124.733384 
L 277.712849 126.513138 
L 279.50157 128.515553 
L 282.184652 131.928189 
L 284.867734 135.818523 
L 287.550815 140.17004 
L 290.233897 144.964415 
L 292.916979 150.181645 
L 295.60006 155.800183 
L 299.177503 163.875998 
L 302.754945 172.566608 
L 306.332387 181.811069 
L 310.80419 194.048639 
L 315.275993 206.924624 
L 320.642156 223.035624 
L 327.79704 245.269356 
L 348.367333 309.719816 
L 354.627857 328.36614 
L 359.994021 343.669696 
L 365.360184 358.231881 
L 369.831987 369.738981 
L 374.30379 380.635084 
L 378.775592 390.893653 
L 383.247395 400.498032 
L 386.824838 407.705203 
L 390.40228 414.48881 
L 393.979722 420.852054 
L 397.557164 426.800973 
L 401.134606 432.344123 
L 404.712049 437.49227 
L 408.289491 442.258073 
L 411.866933 446.655777 
L 415.444375 450.70092 
L 419.021818 454.410047 
L 422.59926 457.800446 
L 426.176702 460.889898 
L 429.754144 463.696456 
L 433.331587 466.238231 
L 436.909029 468.533216 
L 440.486471 470.599118 
L 444.063913 472.453225 
L 448.535716 474.498477 
L 453.007519 476.270212 
L 457.479322 477.797944 
L 461.951125 479.109247 
L 467.317288 480.432934 
L 472.683451 481.521791 
L 478.943975 482.542931 
L 485.204499 483.342846 
L 492.359384 484.040319 
L 500.408629 484.610915 
L 510.246595 485.083234 
L 518.29584 485.339186 
L 518.29584 485.339186 
" clip-path="url(#p75f05498c2)" style="fill: none; stroke-dasharray: 3.7,1.6; stroke-dashoffset: 0; stroke: #46327e"/>
   </g>
   <g id="patch_3">
    <path d="M 72 506.4 
L 72 86.4 
" style="fill: none; stroke: #000000; stroke-width: 0.8; stroke-linejoin: miter; stroke-linecap: square"/>
   </g>
   <g id="patch_4">
    <path d="M 518.4 506.4 
L 518.4 86.4 
" style="fill: none; stroke: #000000; stroke-width: 0.8; stroke-linejoin: miter; stroke-linecap: square"/>
   </g>
   <g id="patch_5">
    <path d="M 72 506.4 
L 518.4 506.4 
" style="fill: none; stroke: #000000; stroke-width: 0.8; stroke-linejoin: miter; stroke-linecap: square"/>
   </g>
   <g id="patch_6">
    <path d="M 72 86.4 
L 518.4 86.4 
" style="fill: none; stroke: #000000; stroke-width: 0.8; stroke-linejoin: miter; stroke-linecap: square"/>
   </g>
   <g id="legend_1">
    <g id="patch_7">
     <path d="M 360.178125 123.75625 
L 511.4 123.75625 
Q 513.4 123.75625 513.4 121.75625 
L 513.4 93.4 
Q 513.4 91.4 511.4 91.4 
L 360.178125 91.4 
Q 358.178125 91.4 358.178125 93.4 
L 358.178125 121.75625 
Q 358.178125 123.75625 360.178125 123.75625 
z
" style="fill: #ffffff; opacity: 0.8; stroke: #cccccc; stroke-linejoin: miter"/>
    </g>
    <g id="line2d_13">
     <path d="M 362.178125 99.498437 
L 372.178125 99.498437 
L 382.178125 99.498437 
" style="fill: none; stroke-dasharray: 3.7,1.6; stroke-dashoffset: 0; stroke: #1fa187"/>
    </g>
    <g id="text_7">
     <!-- Baseline-corrected data -->
     <g transform="translate(390.178125 102.998437) scale(0.1 -0.1)">
      <defs>
       <path id="DejaVuSans-42" d="M 1259 2228 
L 1259 519 
L 2272 519 
Q 2781 519 3026 730 
Q 3272 941 3272 1375 
Q 3272 1813 3026 2020 
Q 2781 2228 2272 2228 
L 1259 2228 
z
M 1259 4147 
L 1259 2741 
L 2194 2741 
Q 2656 2741 2882 2914 
Q 3109 3088 3109 3444 
Q 3109 3797 2882 3972 
Q 2656 4147 2194 4147 
L 1259 4147 
z
M 628 4666 
L 2241 4666 
Q 2963 4666 3353 4366 
Q 3744 4066 3744 3513 
Q 3744 3084 3544 2831 
Q 3344 2578 2956 2516 
Q 3422 2416 3680 2098 
Q 3938 1781 3938 1306 
Q 3938 681 3513 340 
Q 3088 0 2303 0 
L 628 0 
L 628 4666 
z
" transform="scale(0.015625)"/>
       <path id="DejaVuSans-6c" d="M 603 4863 
L 1178 4863 
L 1178 0 
L 603 0 
L 603 4863 
z
" transform="scale(0.015625)"/>
       <path id="DejaVuSans-2d" d="M 313 2009 
L 1997 2009 
L 1997 1497 
L 313 1497 
L 313 2009 
z
" transform="scale(0.015625)"/>
       <path id="DejaVuSans-63" d="M 3122 3366 
L 3122 2828 
Q 2878 2963 2633 3030 
Q 2388 3097 2138 3097 
Q 1578 3097 1268 2742 
Q 959 2388 959 1747 
Q 959 1106 1268 751 
Q 1578 397 2138 397 
Q 2388 397 2633 464 
Q 2878 531 3122 666 
L 3122 134 
Q 2881 22 2623 -34 
Q 2366 -91 2075 -91 
Q 1284 -91 818 406 
Q 353 903 353 1747 
Q 353 2603 823 3093 
Q 1294 3584 2113 3584 
Q 2378 3584 2631 3529 
Q 2884 3475 3122 3366 
z
" transform="scale(0.015625)"/>
       <path id="DejaVuSans-6f" d="M 1959 3097 
Q 1497 3097 1228 2736 
Q 959 2375 959 1747 
Q 959 1119 1226 758 
Q 1494 397 1959 397 
Q 2419 397 2687 759 
Q 2956 1122 2956 1747 
Q 2956 2369 2687 2733 
Q 2419 3097 1959 3097 
z
M 1959 3584 
Q 2709 3584 3137 3096 
Q 3566 2609 3566 1747 
Q 3566 888 3137 398 
Q 2709 -91 1959 -91 
Q 1206 -91 779 398 
Q 353 888 353 1747 
Q 353 2609 779 3096 
Q 1206 3584 1959 3584 
z
" transform="scale(0.015625)"/>
       <path id="DejaVuSans-72" d="M 2631 2963 
Q 2534 3019 2420 3045 
Q 2306 3072 2169 3072 
Q 1681 3072 1420 2755 
Q 1159 2438 1159 1844 
L 1159 0 
L 581 0 
L 581 3500 
L 1159 3500 
L 1159 2956 
Q 1341 3275 1631 3429 
Q 1922 3584 2338 3584 
Q 2397 3584 2469 3576 
Q 2541 3569 2628 3553 
L 2631 2963 
z
" transform="scale(0.015625)"/>
       <path id="DejaVuSans-64" d="M 2906 2969 
L 2906 4863 
L 3481 4863 
L 3481 0 
L 2906 0 
L 2906 525 
Q 2725 213 2448 61 
Q 2172 -91 1784 -91 
Q 1150 -91 751 415 
Q 353 922 353 1747 
Q 353 2572 751 3078 
Q 1150 3584 1784 3584 
Q 2172 3584 2448 3432 
Q 2725 3281 2906 2969 
z
M 947 1747 
Q 947 1113 1208 752 
Q 1469 391 1925 391 
Q 2381 391 2643 752 
Q 2906 1113 2906 1747 
Q 2906 2381 2643 2742 
Q 2381 3103 1925 3103 
Q 1469 3103 1208 2742 
Q 947 2381 947 1747 
z
" transform="scale(0.015625)"/>
      </defs>
      <use xlink:href="#DejaVuSans-42"/>
      <use xlink:href="#DejaVuSans-61" transform="translate(68.603516 0)"/>
      <use xlink:href="#DejaVuSans-73" transform="translate(129.882812 0)"/>
      <use xlink:href="#DejaVuSans-65" transform="translate(181.982422 0)"/>
      <use xlink:href="#DejaVuSans-6c" transform="translate(243.505859 0)"/>
      <use xlink:href="#DejaVuSans-69" transform="translate(271.289062 0)"/>
      <use xlink:href="#DejaVuSans-6e" transform="translate(299.072266 0)"/>
      <use xlink:href="#DejaVuSans-65" transform="translate(362.451172 0)"/>
      <use xlink:href="#DejaVuSans-2d" transform="translate(423.974609 0)"/>
      <use xlink:href="#DejaVuSans-63" transform="translate(460.058594 0)"/>
      <use xlink:href="#DejaVuSans-6f" transform="translate(515.039062 0)"/>
      <use xlink:href="#DejaVuSans-72" transform="translate(576.220703 0)"/>
      <use xlink:href="#DejaVuSans-72" transform="translate(615.583984 0)"/>
      <use xlink:href="#DejaVuSans-65" transform="translate(654.447266 0)"/>
      <use xlink:href="#DejaVuSans-63" transform="translate(715.970703 0)"/>
      <use xlink:href="#DejaVuSans-74" transform="translate(770.951172 0)"/>
      <use xlink:href="#DejaVuSans-65" transform="translate(810.160156 0)"/>
      <use xlink:href="#DejaVuSans-64" transform="translate(871.683594 0)"/>
      <use xlink:href="#DejaVuSans-20" transform="translate(935.160156 0)"/>
      <use xlink:href="#DejaVuSans-64" transform="translate(966.947266 0)"/>
      <use xlink:href="#DejaVuSans-61" transform="translate(1030.423828 0)"/>
      <use xlink:href="#DejaVuSans-74" transform="translate(1091.703125 0)"/>
      <use xlink:href="#DejaVuSans-61" transform="translate(1130.912109 0)"/>
     </g>
    </g>
    <g id="line2d_14">
     <path d="M 362.178125 114.176562 
L 372.178125 114.176562 
L 382.178125 114.176562 
" style="fill: none; stroke-dasharray: 3.7,1.6; stroke-dashoffset: 0; stroke: #46327e"/>
    </g>
    <g id="text_8">
     <!-- Gaussian fit -->
     <g transform="translate(390.178125 117.676562) scale(0.1 -0.1)">
      <defs>
       <path id="DejaVuSans-47" d="M 3809 666 
L 3809 1919 
L 2778 1919 
L 2778 2438 
L 4434 2438 
L 4434 434 
Q 4069 175 3628 42 
Q 3188 -91 2688 -91 
Q 1594 -91 976 548 
Q 359 1188 359 2328 
Q 359 3472 976 4111 
Q 1594 4750 2688 4750 
Q 3144 4750 3555 4637 
Q 3966 4525 4313 4306 
L 4313 3634 
Q 3963 3931 3569 4081 
Q 3175 4231 2741 4231 
Q 1884 4231 1454 3753 
Q 1025 3275 1025 2328 
Q 1025 1384 1454 906 
Q 1884 428 2741 428 
Q 3075 428 3337 486 
Q 3600 544 3809 666 
z
" transform="scale(0.015625)"/>
       <path id="DejaVuSans-66" d="M 2375 4863 
L 2375 4384 
L 1825 4384 
Q 1516 4384 1395 4259 
Q 1275 4134 1275 3809 
L 1275 3500 
L 2222 3500 
L 2222 3053 
L 1275 3053 
L 1275 0 
L 697 0 
L 697 3053 
L 147 3053 
L 147 3500 
L 697 3500 
L 697 3744 
Q 697 4328 969 4595 
Q 1241 4863 1831 4863 
L 2375 4863 
z
" transform="scale(0.015625)"/>
      </defs>
      <use xlink:href="#DejaVuSans-47"/>
      <use xlink:href="#DejaVuSans-61" transform="translate(77.490234 0)"/>
      <use xlink:href="#DejaVuSans-75" transform="translate(138.769531 0)"/>
      <use xlink:href="#DejaVuSans-73" transform="translate(202.148438 0)"/>
      <use xlink:href="#DejaVuSans-73" transform="translate(254.248047 0)"/>
      <use xlink:href="#DejaVuSans-69" transform="translate(306.347656 0)"/>
      <use xlink:href="#DejaVuSans-61" transform="translate(334.130859 0)"/>
      <use xlink:href="#DejaVuSans-6e" transform="translate(395.410156 0)"/>
      <use xlink:href="#DejaVuSans-20" transform="translate(458.789062 0)"/>
      <use xlink:href="#DejaVuSans-66" transform="translate(490.576172 0)"/>
      <use xlink:href="#DejaVuSans-69" transform="translate(525.78125 0)"/>
      <use xlink:href="#DejaVuSans-74" transform="translate(553.564453 0)"/>
     </g>
    </g>
   </g>
  </g>
  <g id="axes_2">
   <g id="patch_8">
    <path d="M 72 640.8 
L 518.4 640.8 
L 518.4 556.8 
L 72 556.8 
z
" style="fill: #ffffff"/>
   </g>
   <g id="matplotlib.axis_3">
    <g id="xtick_6">
     <g id="line2d_15">
      <g>
       <use xlink:href="#mb78e65c129" x="72" y="640.8" style="stroke: #000000; stroke-width: 0.8"/>
      </g>
     </g>
     <g id="text_9">
      <!-- 1.2 -->
      <g transform="translate(64.048438 655.398437) scale(0.1 -0.1)">
       <use xlink:href="#DejaVuSans-31"/>
       <use xlink:href="#DejaVuSans-2e" transform="translate(63.623047 0)"/>
       <use xlink:href="#DejaVuSans-32" transform="translate(95.410156 0)"/>
      </g>
     </g>
    </g>
    <g id="xtick_7">
     <g id="line2d_16">
      <g>
       <use xlink:href="#mb78e65c129" x="171.2" y="640.8" style="stroke: #000000; stroke-width: 0.8"/>
      </g>
     </g>
     <g id="text_10">
      <!-- 1.4 -->
      <g transform="translate(163.248437 655.398437) scale(0.1 -0.1)">
       <use xlink:href="#DejaVuSans-31"/>
       <use xlink:href="#DejaVuSans-2e" transform="translate(63.623047 0)"/>
       <use xlink:href="#DejaVuSans-34" transform="translate(95.410156 0)"/>
      </g>
     </g>
    </g>
    <g id="xtick_8">
     <g id="line2d_17">
      <g>
       <use xlink:href="#mb78e65c129" x="270.4" y="640.8" style="stroke: #000000; stroke-width: 0.8"/>
      </g>
     </g>
     <g id="text_11">
      <!-- 1.6 -->
      <g transform="translate(262.448438 655.398437) scale(0.1 -0.1)">
       <defs>
        <path id="DejaVuSans-36" d="M 2113 2584 
Q 1688 2584 1439 2293 
Q 1191 2003 1191 1497 
Q 1191 994 1439 701 
Q 1688 409 2113 409 
Q 2538 409 2786 701 
Q 3034 994 3034 1497 
Q 3034 2003 2786 2293 
Q 2538 2584 2113 2584 
z
M 3366 4563 
L 3366 3988 
Q 3128 4100 2886 4159 
Q 2644 4219 2406 4219 
Q 1781 4219 1451 3797 
Q 1122 3375 1075 2522 
Q 1259 2794 1537 2939 
Q 1816 3084 2150 3084 
Q 2853 3084 3261 2657 
Q 3669 2231 3669 1497 
Q 3669 778 3244 343 
Q 2819 -91 2113 -91 
Q 1303 -91 875 529 
Q 447 1150 447 2328 
Q 447 3434 972 4092 
Q 1497 4750 2381 4750 
Q 2619 4750 2861 4703 
Q 3103 4656 3366 4563 
z
" transform="scale(0.015625)"/>
       </defs>
       <use xlink:href="#DejaVuSans-31"/>
       <use xlink:href="#DejaVuSans-2e" transform="translate(63.623047 0)"/>
       <use xlink:href="#DejaVuSans-36" transform="translate(95.410156 0)"/>
      </g>
     </g>
    </g>
    <g id="xtick_9">
     <g id="line2d_18">
      <g>
       <use xlink:href="#mb78e65c129" x="369.6" y="640.8" style="stroke: #000000; stroke-width: 0.8"/>
      </g>
     </g>
     <g id="text_12">
      <!-- 1.8 -->
      <g transform="translate(361.648438 655.398437) scale(0.1 -0.1)">
       <defs>
        <path id="DejaVuSans-38" d="M 2034 2216 
Q 1584 2216 1326 1975 
Q 1069 1734 1069 1313 
Q 1069 891 1326 650 
Q 1584 409 2034 409 
Q 2484 409 2743 651 
Q 3003 894 3003 1313 
Q 3003 1734 2745 1975 
Q 2488 2216 2034 2216 
z
M 1403 2484 
Q 997 2584 770 2862 
Q 544 3141 544 3541 
Q 544 4100 942 4425 
Q 1341 4750 2034 4750 
Q 2731 4750 3128 4425 
Q 3525 4100 3525 3541 
Q 3525 3141 3298 2862 
Q 3072 2584 2669 2484 
Q 3125 2378 3379 2068 
Q 3634 1759 3634 1313 
Q 3634 634 3220 271 
Q 2806 -91 2034 -91 
Q 1263 -91 848 271 
Q 434 634 434 1313 
Q 434 1759 690 2068 
Q 947 2378 1403 2484 
z
M 1172 3481 
Q 1172 3119 1398 2916 
Q 1625 2713 2034 2713 
Q 2441 2713 2670 2916 
Q 2900 3119 2900 3481 
Q 2900 3844 2670 4047 
Q 2441 4250 2034 4250 
Q 1625 4250 1398 4047 
Q 1172 3844 1172 3481 
z
" transform="scale(0.015625)"/>
       </defs>
       <use xlink:href="#DejaVuSans-31"/>
       <use xlink:href="#DejaVuSans-2e" transform="translate(63.623047 0)"/>
       <use xlink:href="#DejaVuSans-38" transform="translate(95.410156 0)"/>
      </g>
     </g>
    </g>
    <g id="xtick_10">
     <g id="line2d_19">
      <g>
       <use xlink:href="#mb78e65c129" x="468.8" y="640.8" style="stroke: #000000; stroke-width: 0.8"/>
      </g>
     </g>
     <g id="text_13">
      <!-- 2.0 -->
      <g transform="translate(460.848437 655.398437) scale(0.1 -0.1)">
       <use xlink:href="#DejaVuSans-32"/>
       <use xlink:href="#DejaVuSans-2e" transform="translate(63.623047 0)"/>
       <use xlink:href="#DejaVuSans-30" transform="translate(95.410156 0)"/>
      </g>
     </g>
    </g>
   </g>
   <g id="matplotlib.axis_4">
    <g id="ytick_6">
     <g id="line2d_20">
      <g>
       <use xlink:href="#m49b3253b88" x="72" y="622.8" style="stroke: #000000; stroke-width: 0.8"/>
      </g>
     </g>
     <g id="text_14">
      <!-- −20 -->
      <g transform="translate(43.895313 626.599219) scale(0.1 -0.1)">
       <defs>
        <path id="DejaVuSans-2212" d="M 678 2272 
L 4684 2272 
L 4684 1741 
L 678 1741 
L 678 2272 
z
" transform="scale(0.015625)"/>
       </defs>
       <use xlink:href="#DejaVuSans-2212"/>
       <use xlink:href="#DejaVuSans-32" transform="translate(83.789062 0)"/>
       <use xlink:href="#DejaVuSans-30" transform="translate(147.412109 0)"/>
      </g>
     </g>
    </g>
    <g id="ytick_7">
     <g id="line2d_21">
      <g>
       <use xlink:href="#m49b3253b88" x="72" y="598.8" style="stroke: #000000; stroke-width: 0.8"/>
      </g>
     </g>
     <g id="text_15">
      <!-- 0 -->
      <g transform="translate(58.6375 602.599219) scale(0.1 -0.1)">
       <use xlink:href="#DejaVuSans-30"/>
      </g>
     </g>
    </g>
    <g id="ytick_8">
     <g id="line2d_22">
      <g>
       <use xlink:href="#m49b3253b88" x="72" y="574.8" style="stroke: #000000; stroke-width: 0.8"/>
      </g>
     </g>
     <g id="text_16">
      <!-- 20 -->
      <g transform="translate(52.275 578.599219) scale(0.1 -0.1)">
       <use xlink:href="#DejaVuSans-32"/>
       <use xlink:href="#DejaVuSans-30" transform="translate(63.623047 0)"/>
      </g>
     </g>
    </g>
    <g id="text_17">
     <!-- Residuals -->
     <g transform="translate(37.815625 622.520312) rotate(-90) scale(0.1 -0.1)">
      <defs>
       <path id="DejaVuSans-52" d="M 2841 2188 
Q 3044 2119 3236 1894 
Q 3428 1669 3622 1275 
L 4263 0 
L 3584 0 
L 2988 1197 
Q 2756 1666 2539 1819 
Q 2322 1972 1947 1972 
L 1259 1972 
L 1259 0 
L 628 0 
L 628 4666 
L 2053 4666 
Q 2853 4666 3247 4331 
Q 3641 3997 3641 3322 
Q 3641 2881 3436 2590 
Q 3231 2300 2841 2188 
z
M 1259 4147 
L 1259 2491 
L 2053 2491 
Q 2509 2491 2742 2702 
Q 2975 2913 2975 3322 
Q 2975 3731 2742 3939 
Q 2509 4147 2053 4147 
L 1259 4147 
z
" transform="scale(0.015625)"/>
      </defs>
      <use xlink:href="#DejaVuSans-52"/>
      <use xlink:href="#DejaVuSans-65" transform="translate(64.982422 0)"/>
      <use xlink:href="#DejaVuSans-73" transform="translate(126.505859 0)"/>
      <use xlink:href="#DejaVuSans-69" transform="translate(178.605469 0)"/>
      <use xlink:href="#DejaVuSans-64" transform="translate(206.388672 0)"/>
      <use xlink:href="#DejaVuSans-75" transform="translate(269.865234 0)"/>
      <use xlink:href="#DejaVuSans-61" transform="translate(333.244141 0)"/>
      <use xlink:href="#DejaVuSans-6c" transform="translate(394.523438 0)"/>
      <use xlink:href="#DejaVuSans-73" transform="translate(422.306641 0)"/>
     </g>
    </g>
   </g>
   <g id="line2d_23">
    <path d="M 518.29584 628.424839 
L 517.68576 618.801586 
L 517.07568 619.218025 
L 516.4656 617.615492 
L 515.85552 623.069291 
L 515.24544 621.464728 
L 514.63536 615.486274 
L 514.03024 617.105804 
L 513.42016 617.536414 
L 512.81504 610.913478 
L 512.20992 614.626819 
L 511.6048 616.457523 
L 510.39952 611.352687 
L 509.7944 613.038171 
L 509.19424 610.690255 
L 508.58912 617.166032 
L 507.98896 601.72634 
L 507.3888 606.557781 
L 506.7936 604.10096 
L 506.19344 611.283632 
L 505.59328 614.026605 
L 504.99808 611.243267 
L 504.40288 605.68857 
L 503.80768 605.147313 
L 503.21248 604.296875 
L 502.61728 598.005239 
L 502.02208 602.046905 
L 501.43184 600.767858 
L 500.83664 605.515397 
L 500.2464 604.965994 
L 499.65616 601.484391 
L 499.06592 604.442398 
L 498.47568 601.281307 
L 497.88544 606.134433 
L 497.30016 596.78778 
L 496.70992 601.399703 
L 496.12464 602.611074 
L 495.53936 599.823335 
L 494.95408 598.398543 
L 494.3688 599.362068 
L 493.78352 592.589812 
L 493.2032 599.75173 
L 492.61792 596.113235 
L 492.0376 600.503837 
L 491.45728 593.354469 
L 490.87696 594.203951 
L 490.29664 594.715329 
L 489.71632 593.04411 
L 489.136 597.4866 
L 488.56064 591.672527 
L 487.98528 595.41605 
L 487.40496 593.255145 
L 486.8296 592.443503 
L 486.25424 592.336971 
L 485.67888 589.813691 
L 485.10848 586.780164 
L 484.53312 592.102051 
L 483.38736 585.364711 
L 482.24656 591.909917 
L 481.67616 591.642346 
L 481.11072 586.463322 
L 480.54032 584.981324 
L 479.96992 585.951713 
L 479.40448 584.790141 
L 478.83904 588.103614 
L 478.2736 585.470041 
L 477.70816 587.301226 
L 477.14272 585.01246 
L 476.57728 589.304681 
L 476.01184 585.168377 
L 475.45136 586.611617 
L 474.89088 582.917637 
L 474.32544 584.100898 
L 473.76496 589.918238 
L 473.20448 583.496595 
L 472.64896 586.04664 
L 472.08848 585.654577 
L 471.528 584.690565 
L 470.41696 587.512179 
L 469.85648 583.361855 
L 469.30096 583.964606 
L 468.74544 585.232044 
L 468.19488 585.670152 
L 467.63936 579.331848 
L 467.08384 584.452081 
L 466.53328 579.951021 
L 465.98272 584.055423 
L 465.43216 581.834717 
L 464.33104 578.657897 
L 463.78048 577.998142 
L 463.22992 581.928897 
L 462.68432 582.533018 
L 462.13376 582.611535 
L 461.58816 582.166055 
L 461.04256 578.254062 
L 460.49696 581.046502 
L 459.95136 581.061229 
L 459.40576 579.950474 
L 458.86016 579.589286 
L 458.31952 579.904082 
L 457.77392 578.273029 
L 457.23328 578.585193 
L 456.69264 578.025407 
L 456.152 579.909552 
L 455.61136 578.908029 
L 455.07072 578.64119 
L 454.53008 583.193955 
L 453.9944 583.936223 
L 453.45376 579.009636 
L 452.91808 579.028271 
L 452.3824 580.535308 
L 451.84672 578.454352 
L 451.31104 578.415906 
L 450.77536 577.858068 
L 450.23968 578.423358 
L 449.70896 580.698879 
L 449.17328 577.339539 
L 448.64256 579.71451 
L 448.11184 578.389094 
L 447.57616 578.595104 
L 447.04544 575.006617 
L 446.51472 576.087874 
L 445.98896 579.799039 
L 445.45824 575.120347 
L 444.93248 573.516045 
L 444.40176 577.455758 
L 443.876 575.168812 
L 443.35024 576.643473 
L 442.82448 574.562042 
L 442.29872 577.724735 
L 441.77296 577.82002 
L 441.2472 576.102361 
L 440.72144 578.61571 
L 440.20064 575.650251 
L 439.67984 574.968168 
L 439.15408 575.68103 
L 438.63328 573.985052 
L 438.11248 578.424207 
L 437.59168 577.326439 
L 437.07584 574.334807 
L 436.55504 576.934138 
L 436.03424 577.399903 
L 435.5184 577.456095 
L 435.00256 575.783747 
L 434.48176 578.68537 
L 433.96592 579.854357 
L 433.45008 575.823452 
L 432.93424 573.897139 
L 432.42336 577.676462 
L 431.90752 575.21354 
L 431.39664 576.123946 
L 430.8808 577.844804 
L 430.36992 575.428787 
L 429.85904 578.102856 
L 429.34816 576.169978 
L 428.83728 579.232947 
L 428.3264 578.191047 
L 427.81552 579.15126 
L 427.30464 575.828777 
L 426.79872 576.414529 
L 426.28784 578.197256 
L 425.78192 578.714827 
L 425.276 577.031913 
L 424.77008 574.42145 
L 423.75824 578.051156 
L 423.25232 574.32988 
L 422.75136 576.413993 
L 422.24544 576.715628 
L 421.74448 576.413428 
L 421.24352 578.922635 
L 420.7376 576.302568 
L 420.23664 576.117526 
L 419.73568 574.368751 
L 419.23472 577.244903 
L 418.73872 574.056436 
L 418.23776 577.366472 
L 417.74176 578.408962 
L 417.2408 578.301848 
L 416.7448 576.848169 
L 416.2488 579.351459 
L 415.74784 578.304974 
L 415.25184 576.791083 
L 414.7608 577.688721 
L 414.2648 579.211241 
L 413.7688 579.188849 
L 413.27776 577.040891 
L 412.78176 578.296039 
L 412.29072 576.807557 
L 411.79968 578.023862 
L 411.30368 575.814349 
L 410.81264 578.498653 
L 410.3216 579.699195 
L 409.83552 578.273053 
L 409.34448 577.95895 
L 408.85344 579.001945 
L 408.36736 578.001164 
L 407.87632 574.367105 
L 407.39024 575.302235 
L 406.90416 577.19634 
L 406.41808 577.172983 
L 405.932 575.81262 
L 405.44592 578.558137 
L 404.95984 579.514005 
L 404.47872 579.381428 
L 403.99264 580.459351 
L 403.51152 577.510327 
L 403.02544 579.195178 
L 402.54432 577.076195 
L 402.0632 577.410926 
L 401.58208 581.784556 
L 401.10096 575.85065 
L 400.61984 580.498956 
L 400.13872 582.609436 
L 399.66256 582.697448 
L 399.18144 575.580957 
L 398.70528 581.639127 
L 398.22416 577.494713 
L 397.748 579.723408 
L 397.27184 577.539035 
L 396.79568 579.97077 
L 396.31952 575.326943 
L 395.84336 580.171103 
L 395.3672 580.185024 
L 394.896 578.052638 
L 394.41984 581.398754 
L 393.94864 579.165374 
L 393.47744 580.680774 
L 393.00128 580.960148 
L 392.53008 581.064651 
L 392.05888 577.691197 
L 391.58768 578.696414 
L 391.11648 576.916627 
L 390.65024 581.360214 
L 390.17904 579.607643 
L 389.7128 581.959853 
L 389.2416 577.730409 
L 388.77536 581.143678 
L 387.84288 581.11452 
L 387.37664 579.86759 
L 386.9104 581.676217 
L 386.44416 578.837759 
L 385.97792 580.019315 
L 385.51168 579.618466 
L 385.0504 580.723628 
L 384.58416 582.247145 
L 384.12288 580.31595 
L 382.73904 582.253982 
L 382.27776 583.957857 
L 381.81648 579.810895 
L 381.3552 581.613789 
L 380.89392 584.098116 
L 380.4376 579.898324 
L 379.97632 582.287464 
L 379.52 580.811759 
L 379.06368 582.674622 
L 378.60736 582.860676 
L 378.14608 584.983994 
L 377.68976 586.155293 
L 377.2384 584.866179 
L 376.32576 580.990803 
L 375.86944 584.18415 
L 375.41808 583.636749 
L 374.96176 582.177834 
L 374.5104 584.660768 
L 374.05904 584.973305 
L 373.60768 584.520677 
L 373.15632 583.480908 
L 372.70496 585.497173 
L 372.2536 585.775351 
L 371.80224 586.408385 
L 371.35088 584.898715 
L 370.90448 584.934078 
L 370.45312 584.625033 
L 370.00672 586.39188 
L 369.56032 586.526442 
L 369.11392 587.144762 
L 368.66256 584.279958 
L 368.21616 587.010661 
L 367.76976 588.476244 
L 367.32832 587.970777 
L 366.88192 589.804957 
L 366.43552 587.167867 
L 365.54768 585.848357 
L 365.10624 590.327306 
L 364.65984 587.649584 
L 364.2184 586.248814 
L 363.77696 588.111627 
L 363.33552 588.29342 
L 362.89408 588.738303 
L 362.45264 587.014078 
L 361.57472 591.395115 
L 361.13328 589.326705 
L 360.6968 588.737631 
L 360.26032 589.439153 
L 359.81888 589.729796 
L 359.3824 592.123869 
L 358.94592 587.991239 
L 358.50944 595.035631 
L 358.07296 591.476457 
L 357.63648 590.145503 
L 357.2 590.694765 
L 356.76848 590.657277 
L 356.332 593.721313 
L 355.90048 592.378482 
L 355.464 592.871919 
L 355.03248 595.519244 
L 354.60096 593.416902 
L 354.16944 592.543539 
L 353.73296 594.767977 
L 353.30144 592.378575 
L 352.44336 593.076339 
L 352.01184 591.145232 
L 351.58528 590.737863 
L 351.15376 595.072097 
L 350.7272 595.751106 
L 350.29568 595.00184 
L 349.86912 595.23337 
L 349.44256 592.869424 
L 349.016 596.696936 
L 348.16288 593.586961 
L 347.73632 594.854146 
L 347.30976 593.177682 
L 346.8832 594.176453 
L 346.4616 592.214589 
L 345.61344 596.598756 
L 345.19184 595.256895 
L 344.76528 598.527494 
L 344.34368 599.730128 
L 343.92208 595.542469 
L 343.50048 599.646669 
L 343.07888 597.396159 
L 342.66224 597.328554 
L 342.24064 598.078216 
L 341.81904 595.045769 
L 341.4024 596.534053 
L 340.56416 597.339235 
L 340.14256 597.978296 
L 339.72592 600.900693 
L 339.30928 598.340521 
L 338.89264 597.857712 
L 338.476 599.71306 
L 338.05936 598.207459 
L 337.23104 599.559786 
L 336.8144 597.524452 
L 336.39776 598.439873 
L 335.98608 598.069367 
L 335.5744 597.364051 
L 335.15776 597.858288 
L 334.74608 599.912509 
L 334.3344 599.481196 
L 333.92272 599.494662 
L 333.51104 600.119027 
L 333.09936 601.433684 
L 332.276 603.058772 
L 331.86928 601.573365 
L 331.4576 603.790498 
L 331.05088 604.211076 
L 330.6392 602.648183 
L 330.23248 601.632612 
L 329.82576 602.792962 
L 329.41408 602.673518 
L 329.00736 602.406537 
L 328.60064 600.413218 
L 328.19392 600.912698 
L 327.79216 603.768426 
L 327.38544 602.036832 
L 326.97872 600.949505 
L 326.57696 603.846056 
L 326.17024 602.713221 
L 325.76848 604.303403 
L 325.36176 602.477109 
L 324.96 603.589762 
L 324.55824 604.207339 
L 323.74976 601.591663 
L 323.35296 603.530741 
L 322.9512 600.024415 
L 322.54944 602.916186 
L 322.14768 601.75775 
L 321.74592 604.248213 
L 321.34912 605.177228 
L 320.94736 602.668619 
L 320.55056 604.894364 
L 320.15376 604.028451 
L 319.752 607.847829 
L 319.3552 608.168436 
L 318.9584 606.878636 
L 318.5616 607.476679 
L 318.1648 607.080473 
L 317.768 605.458513 
L 317.3712 603.009904 
L 316.97936 602.990793 
L 316.58256 602.541962 
L 316.18576 605.028058 
L 315.40208 602.882568 
L 315.00528 606.406067 
L 314.61344 605.241783 
L 314.2216 609.093593 
L 313.82976 607.113795 
L 313.43792 608.101208 
L 312.65424 603.819881 
L 312.2624 602.812565 
L 311.87056 602.844391 
L 311.48368 605.267649 
L 311.09184 605.200014 
L 310.7 605.723115 
L 310.31312 604.357978 
L 309.92624 608.024261 
L 309.5344 608.689753 
L 309.14752 611.094876 
L 308.76064 610.270894 
L 308.37376 610.474325 
L 307.98688 610.846624 
L 307.6 607.860944 
L 307.21312 608.009794 
L 306.8312 607.024502 
L 306.44432 608.165945 
L 306.05744 605.744729 
L 305.67552 606.873933 
L 305.28864 604.737997 
L 304.90672 605.337622 
L 304.5248 608.438842 
L 304.13792 607.373096 
L 303.756 608.980547 
L 303.37408 609.938495 
L 302.99216 611.424145 
L 302.61024 610.660396 
L 302.22832 611.962742 
L 301.85136 610.287329 
L 301.46944 607.933576 
L 300.32864 604.822845 
L 299.95168 605.50721 
L 299.56976 607.34547 
L 299.1928 605.75222 
L 298.43888 609.046694 
L 297.308 610.072635 
L 296.93104 611.279144 
L 296.55408 608.356609 
L 296.17712 608.528294 
L 295.80512 605.815498 
L 295.42816 606.310026 
L 295.05616 604.249561 
L 294.6792 605.08922 
L 294.3072 602.487648 
L 293.93024 603.49398 
L 293.55824 604.031655 
L 293.18624 603.30905 
L 292.81424 601.909442 
L 292.44224 603.890185 
L 292.07024 603.939593 
L 291.69824 604.755261 
L 291.32624 607.738449 
L 290.9592 608.550279 
L 290.5872 607.541621 
L 290.22016 608.035422 
L 289.84816 607.655288 
L 289.48112 604.48374 
L 289.10912 604.215428 
L 288.74208 601.353768 
L 288.37504 604.553681 
L 287.636 601.740848 
L 287.26896 603.730879 
L 286.90192 604.330488 
L 286.53984 603.92169 
L 286.1728 604.799695 
L 285.80576 608.043143 
L 285.43872 606.762881 
L 285.07664 606.448664 
L 284.7096 609.542754 
L 284.34752 608.963294 
L 283.98048 608.11324 
L 283.6184 608.268692 
L 283.25632 605.08188 
L 282.88928 605.699373 
L 282.5272 602.777732 
L 282.16512 602.576815 
L 281.80304 601.102157 
L 281.44096 602.850515 
L 281.07888 601.659846 
L 280.72176 602.020121 
L 280.35968 604.498841 
L 279.9976 603.188266 
L 279.64048 606.087159 
L 279.2784 607.913185 
L 278.92128 608.752182 
L 278.5592 607.754151 
L 278.20208 608.319006 
L 277.84496 609.58356 
L 277.48288 603.039789 
L 277.12576 603.24844 
L 276.0544 597.991751 
L 275.69728 595.587804 
L 275.34512 598.157057 
L 274.988 599.132577 
L 274.63088 600.6407 
L 274.27872 601.127311 
L 273.9216 600.683778 
L 273.56944 603.773386 
L 273.21232 601.90744 
L 272.86016 605.394007 
L 272.15088 607.285152 
L 271.79872 608.712519 
L 271.0944 604.94619 
L 270.74224 605.468035 
L 270.39008 601.233237 
L 270.04288 598.725057 
L 269.69072 601.794706 
L 269.33856 597.510109 
L 268.99136 596.46454 
L 268.6392 600.063623 
L 268.28704 597.898303 
L 267.93984 600.379722 
L 267.59264 601.263582 
L 267.24048 602.708742 
L 266.89328 602.230865 
L 266.54608 604.494206 
L 266.19888 604.763622 
L 264.81008 607.174205 
L 264.46288 601.65866 
L 264.11568 602.507639 
L 263.77344 598.148959 
L 263.42624 598.703482 
L 263.084 596.573132 
L 262.7368 595.568798 
L 262.39456 595.865212 
L 262.04736 596.426592 
L 261.70512 593.996099 
L 261.36288 597.617108 
L 261.02064 595.873527 
L 260.6784 597.803578 
L 259.99392 603.243937 
L 259.65168 603.95354 
L 259.30944 604.133559 
L 258.9672 604.036883 
L 258.62496 602.054283 
L 258.28768 603.442096 
L 257.6032 598.458002 
L 257.26592 597.320542 
L 256.92864 592.883554 
L 256.5864 594.042715 
L 256.24912 592.374061 
L 255.91184 588.870071 
L 255.5696 591.256011 
L 255.23232 591.229672 
L 254.89504 596.193915 
L 254.55776 596.50847 
L 254.22048 598.328976 
L 253.8832 599.117258 
L 253.2136 602.648026 
L 252.87632 606.128065 
L 252.20672 601.604184 
L 251.86944 602.872256 
L 251.2048 595.807756 
L 250.86752 595.487973 
L 250.5352 591.087149 
L 250.20288 591.407278 
L 249.87056 590.811314 
L 249.53328 589.750516 
L 249.20096 592.042974 
L 248.86864 592.270304 
L 248.54128 594.620205 
L 248.20896 594.187318 
L 247.54432 602.155114 
L 247.212 600.179603 
L 246.88464 600.678124 
L 246.55232 601.388216 
L 246.22496 600.797045 
L 245.89264 595.76517 
L 245.56528 594.13914 
L 245.23792 590.780795 
L 244.57824 588.180588 
L 244.25088 589.800215 
L 243.92352 588.392877 
L 243.2688 591.706641 
L 242.94144 591.488097 
L 242.61408 592.248588 
L 241.95936 600.17618 
L 241.63696 599.289744 
L 241.3096 603.480794 
L 240.9872 603.7407 
L 240.33744 598.877949 
L 240.01008 599.301994 
L 239.68768 594.707057 
L 239.36528 593.006338 
L 239.03792 590.325608 
L 238.71552 588.647151 
L 238.39312 588.905426 
L 237.74832 585.043397 
L 237.42592 588.41771 
L 237.10352 590.229426 
L 236.78112 590.387349 
L 236.14128 598.625075 
L 235.81888 598.878238 
L 235.49648 601.706101 
L 235.17904 599.925007 
L 234.85664 601.40291 
L 234.22176 598.426205 
L 233.89936 593.199192 
L 233.58192 592.11847 
L 233.26448 589.816083 
L 232.94704 586.288487 
L 232.62464 587.684631 
L 232.3072 586.250201 
L 231.98976 585.536294 
L 231.67232 586.279379 
L 231.35984 587.648578 
L 231.0424 586.465806 
L 230.72496 586.781677 
L 230.09504 593.424826 
L 229.7776 594.005504 
L 229.46016 598.958141 
L 229.14768 600.070015 
L 228.83024 602.700452 
L 228.51776 600.690053 
L 228.20528 597.563922 
L 227.88784 602.145529 
L 227.57536 600.695456 
L 226.63792 593.587763 
L 226.32544 589.122563 
L 226.01296 587.329302 
L 225.70048 584.468533 
L 225.388 585.784557 
L 225.07552 584.80046 
L 224.768 586.38834 
L 224.45552 586.104156 
L 224.14304 590.797076 
L 223.83552 590.044995 
L 223.52304 594.318 
L 223.21552 593.275256 
L 222.59552 601.037825 
L 221.97552 603.836466 
L 221.668 600.945767 
L 221.36048 600.419163 
L 221.05296 597.998429 
L 220.74544 597.56011 
L 220.1304 590.509793 
L 219.82288 589.608125 
L 219.51536 586.805284 
L 218.59776 582.53212 
L 218.29024 587.106411 
L 217.98272 586.464051 
L 217.68016 587.431845 
L 217.37264 589.936168 
L 217.07008 593.635143 
L 216.76752 595.845225 
L 216.46 593.733153 
L 216.15744 601.398551 
L 215.85488 603.413606 
L 215.55232 602.4547 
L 215.24976 603.803474 
L 214.94224 602.638309 
L 214.63968 602.189923 
L 214.33712 598.369211 
L 214.03952 599.001062 
L 213.73696 596.577161 
L 213.4344 587.832741 
L 212.82928 590.077234 
L 212.22912 586.290666 
L 211.93152 588.691917 
L 211.62896 588.202377 
L 211.33136 589.610368 
L 211.0288 587.942714 
L 210.7312 589.351198 
L 210.4336 592.536462 
L 209.53584 598.838797 
L 209.23824 602.834568 
L 208.94064 602.685126 
L 208.34544 604.286831 
L 208.04784 601.852994 
L 207.75024 601.772536 
L 207.45264 596.597528 
L 207.15504 594.995249 
L 206.8624 590.719201 
L 206.5648 588.596205 
L 206.2672 585.060423 
L 205.97456 586.957759 
L 205.67696 583.489851 
L 205.38432 581.517832 
L 205.09168 584.407658 
L 204.79408 583.874942 
L 204.50144 585.350604 
L 204.2088 592.845392 
L 203.9112 590.983919 
L 203.61856 597.929509 
L 203.32592 598.656686 
L 203.03328 600.195135 
L 202.74064 599.971132 
L 202.448 603.307582 
L 201.86272 600.12633 
L 201.57008 599.226065 
L 200.69712 590.425503 
L 200.40944 588.738739 
L 200.1168 589.697209 
L 199.82416 585.731815 
L 199.2488 583.924679 
L 198.95616 581.192366 
L 198.66848 583.879184 
L 198.3808 582.99463 
L 198.08816 584.45005 
L 197.5128 591.190954 
L 197.22512 588.998712 
L 196.64976 599.573848 
L 196.36208 600.032393 
L 196.0744 604.710977 
L 195.78672 602.567437 
L 195.49904 606.183515 
L 195.21136 605.18992 
L 194.92864 606.407064 
L 194.64096 605.066102 
L 194.07056 598.555646 
L 193.78288 597.167455 
L 193.50016 591.369256 
L 193.21248 589.829617 
L 192.92976 584.495399 
L 192.64208 585.420807 
L 192.07664 583.205391 
L 191.79392 582.059753 
L 191.5112 584.835983 
L 191.22352 585.810787 
L 190.9408 589.233537 
L 190.65808 588.805957 
L 190.37536 594.689524 
L 190.09264 597.774037 
L 189.53216 601.025708 
L 189.24944 605.588346 
L 188.96672 605.708365 
L 188.684 606.498827 
L 188.40624 605.772606 
L 188.12352 604.438026 
L 187.8408 603.852218 
L 187.28032 597.241521 
L 186.7248 590.403429 
L 185.88656 584.353165 
L 185.6088 584.955472 
L 185.32608 585.301282 
L 185.04832 583.696014 
L 183.93728 589.392913 
L 183.65952 592.581694 
L 183.38176 593.550675 
L 182.8312 604.639246 
L 182.55344 606.146252 
L 182.27568 605.674216 
L 181.72512 603.283296 
L 181.45232 603.535422 
L 181.17456 600.840397 
L 180.90176 596.452243 
L 180.624 597.682029 
L 180.3512 590.738648 
L 180.0784 588.272033 
L 179.80064 584.556757 
L 179.25504 586.374195 
L 178.98224 584.817807 
L 178.70944 585.155328 
L 178.43664 589.694146 
L 177.61824 597.66563 
L 177.34544 604.073056 
L 177.07264 604.511797 
L 176.79984 609.352912 
L 176.52704 608.858336 
L 176.2592 609.585166 
L 175.9864 607.702973 
L 175.7136 609.190518 
L 174.36448 592.637158 
L 174.09168 591.239679 
L 173.82384 591.51944 
L 173.556 587.274051 
L 173.01536 591.370918 
L 172.74752 589.975249 
L 172.21184 593.169832 
L 171.944 599.651622 
L 171.67616 600.503112 
L 171.40832 606.116728 
L 171.14048 607.740263 
L 170.87264 607.743125 
L 170.6048 609.187131 
L 170.34192 611.789746 
L 170.07408 606.217119 
L 169.80624 607.448613 
L 169.54336 606.882269 
L 169.27552 600.65818 
L 168.21408 590.681108 
L 167.94624 588.973398 
L 167.68336 588.41 
L 167.42048 590.61212 
L 167.1576 586.694496 
L 166.88976 588.79594 
L 166.62688 587.886265 
L 166.10112 595.076645 
L 165.83824 596.417874 
L 165.57536 598.362558 
L 164.78672 611.87299 
L 164.52384 608.498679 
L 164.26096 609.997011 
L 163.99808 614.465837 
L 163.47728 607.299358 
L 163.2144 605.485108 
L 162.6936 598.988686 
L 162.43072 592.26488 
L 162.1728 594.045182 
L 161.90992 590.098061 
L 161.652 588.296642 
L 161.39408 588.551688 
L 161.1312 590.028774 
L 160.61536 589.650733 
L 159.83664 595.261471 
L 159.57872 596.052736 
L 159.3208 598.84516 
L 159.06288 604.571772 
L 158.80496 607.166817 
L 158.54704 607.117866 
L 158.0312 612.133722 
L 157.77328 609.380229 
L 157.2624 611.079693 
L 156.4936 604.868293 
L 156.23568 601.761966 
L 155.98272 601.012759 
L 155.7248 598.250144 
L 155.47184 594.276483 
L 155.21392 593.373238 
L 154.96096 593.744872 
L 154.70304 589.935931 
L 154.45008 590.808459 
L 154.19712 592.204216 
L 153.68624 592.759661 
L 153.43328 598.475713 
L 153.18032 598.575236 
L 152.92736 599.757739 
L 152.6744 605.795123 
L 152.16848 608.626704 
L 151.91552 611.325139 
L 151.66256 611.805468 
L 151.4096 614.023794 
L 151.15664 611.418964 
L 150.90864 611.150254 
L 150.65568 612.239581 
L 150.40272 611.688142 
L 149.6488 599.794418 
L 149.4008 599.421733 
L 149.14784 598.605241 
L 148.89984 597.183127 
L 148.64688 594.864333 
L 148.39888 593.639308 
L 148.15088 594.79637 
L 147.89792 592.387406 
L 147.64992 593.209897 
L 147.14896 595.659711 
L 146.90096 596.411472 
L 146.65296 600.903254 
L 146.40496 601.380061 
L 145.90896 609.206053 
L 145.66096 609.126318 
L 145.41296 611.659255 
L 145.16496 615.756434 
L 144.91696 616.19196 
L 144.66896 612.161352 
L 144.42592 614.646734 
L 143.92992 608.111951 
L 143.68192 606.38738 
L 143.43888 602.828609 
L 143.19088 604.263267 
L 142.94288 602.357081 
L 142.69984 598.963002 
L 142.45184 599.80314 
L 142.2088 596.171868 
L 141.96576 596.534386 
L 141.71776 597.890887 
L 141.47472 596.177644 
L 141.22672 595.592425 
L 140.74064 602.634028 
L 140.4976 603.980193 
L 140.00656 610.725295 
L 139.76352 611.505283 
L 139.52048 613.010373 
L 139.27744 617.52444 
L 139.0344 617.027807 
L 138.54832 616.482669 
L 138.06224 614.679298 
L 137.58112 612.543108 
L 137.09504 606.248399 
L 136.85696 607.88658 
L 136.37088 602.199915 
L 136.1328 605.279434 
L 135.88976 602.287537 
L 135.65168 605.200149 
L 135.40864 602.043806 
L 135.17056 600.483611 
L 134.93248 603.868919 
L 134.68944 604.031735 
L 134.45136 608.304062 
L 134.21328 606.671234 
L 133.97024 611.04146 
L 133.73216 612.321167 
L 133.49408 616.106553 
L 133.256 617.415695 
L 133.01792 620.097478 
L 132.77984 619.967384 
L 132.54176 621.95169 
L 132.0656 620.292593 
L 131.82752 621.570252 
L 131.58944 615.544619 
L 131.35136 616.182839 
L 131.11328 609.714455 
L 130.8752 608.694723 
L 130.63712 607.056434 
L 130.404 607.949119 
L 130.16592 606.23002 
L 129.92784 602.049212 
L 129.69472 604.574023 
L 129.45664 604.665653 
L 129.22352 608.011358 
L 128.98544 608.165337 
L 128.75232 611.098717 
L 128.51424 611.179029 
L 128.28112 616.111342 
L 128.04304 617.048194 
L 127.80992 617.275431 
L 127.5768 620.436882 
L 127.33872 621.221763 
L 127.1056 619.92161 
L 126.87248 622.930364 
L 126.40624 619.414597 
L 126.16816 621.452256 
L 125.70192 616.186277 
L 125.4688 614.309477 
L 125.23568 613.731563 
L 125.00256 609.863278 
L 124.76944 610.367418 
L 124.30816 606.69495 
L 123.84192 608.711975 
L 123.6088 611.895774 
L 123.38064 612.380507 
L 123.14752 611.20385 
L 122.9144 614.126418 
L 122.68624 614.28835 
L 122.22496 622.144948 
L 121.99184 620.269404 
L 121.76368 620.464568 
L 121.53056 619.772514 
L 121.3024 623.605864 
L 121.06928 622.70793 
L 120.84112 619.888108 
L 120.15168 617.489157 
L 119.92352 614.302265 
L 119.69536 614.081871 
L 119.4672 610.542775 
L 119.23904 614.537761 
L 119.00592 611.436011 
L 118.77776 613.409497 
L 118.5496 612.03422 
L 118.32144 612.02724 
L 118.09328 614.135664 
L 117.87008 612.873333 
L 117.64192 617.869083 
L 117.41376 617.010923 
L 117.1856 617.034463 
L 116.27792 622.817767 
L 116.04976 622.623243 
L 115.5984 627.285008 
L 114.92384 626.039003 
L 114.02112 619.075067 
L 113.56976 612.829138 
L 113.34656 617.170752 
L 113.12336 617.18169 
L 112.90016 613.063025 
L 112.672 616.576748 
L 112.4488 616.118791 
L 112.2256 615.240943 
L 112.0024 616.004843 
L 111.7792 620.653929 
L 111.556 621.331371 
L 111.3328 621.494265 
L 111.1096 622.552963 
L 110.8864 625.99564 
L 110.6632 625.83268 
L 110.44 625.04416 
L 109.99856 628.222399 
L 109.55216 629.042051 
L 109.33392 630.206344 
L 109.11072 629.732152 
L 108.44608 625.34271 
L 108.22784 626.729894 
L 108.00464 623.765021 
L 107.7864 622.976313 
L 107.5632 623.077193 
L 107.12176 618.881693 
L 106.90352 617.122563 
L 106.24384 621.340017 
L 106.0256 621.191767 
L 105.80736 620.265338 
L 105.58416 622.836049 
L 105.36592 621.744093 
L 104.92944 627.344238 
L 104.7112 626.714334 
L 104.49296 628.60014 
L 104.27472 629.162788 
L 104.05648 628.995031 
L 103.83824 630.959679 
L 103.62 630.169049 
L 103.40176 631.828078 
L 103.18352 630.534247 
L 102.97024 631.248631 
L 102.752 630.855821 
L 102.53376 629.596401 
L 102.31552 625.098424 
L 102.10224 628.09488 
L 101.884 624.597129 
L 101.45248 624.979931 
L 101.23424 622.756708 
L 101.02096 623.101117 
L 100.80272 624.195969 
L 100.58944 623.314507 
L 100.3712 624.744921 
L 100.15792 622.40904 
L 99.0816 627.985862 
L 98.65504 627.842773 
L 98.44176 630.078438 
L 98.22848 629.757286 
L 97.79696 634.823088 
L 97.3704 633.278216 
L 96.94384 634.765209 
L 96.73056 634.566545 
L 96.51728 632.896423 
L 96.30896 634.42465 
L 96.09568 631.881513 
L 95.66912 630.530096 
L 95.45584 632.348553 
L 95.24752 629.751724 
L 95.03424 630.578382 
L 94.82096 628.610212 
L 94.61264 628.056413 
L 94.39936 628.434706 
L 94.18608 626.546007 
L 93.97776 626.241504 
L 93.76448 628.089598 
L 93.55616 626.708944 
L 93.34288 628.52482 
L 93.13456 627.373929 
L 92.92624 628.642876 
L 92.50464 632.311565 
L 92.29632 632.24733 
L 92.08304 633.051653 
L 91.6664 635.417053 
L 91.45808 635.077179 
L 91.2448 635.079817 
L 91.03648 637.085332 
L 90.82816 637.565506 
L 90.61984 635.390445 
L 90.41152 636.907454 
L 90.2032 635.265085 
L 89.78656 633.823626 
L 89.57824 635.586522 
L 89.36992 631.536528 
L 89.1616 631.135464 
L 88.95328 632.522671 
L 88.5416 631.90423 
L 88.33328 630.545783 
L 88.12496 631.931032 
L 87.91664 629.513171 
L 87.71328 631.172208 
L 87.50496 630.888933 
L 87.29664 631.90105 
L 87.09328 630.848256 
L 86.88496 633.785684 
L 86.6816 633.259759 
L 86.47328 635.209334 
L 86.0616 636.426352 
L 85.85824 638.125272 
L 85.64992 636.18666 
L 85.44656 636.591751 
L 85.2432 639.211753 
L 85.03488 637.201385 
L 84.83152 637.46987 
L 84.62816 638.164947 
L 84.4248 639.261001 
L 84.21648 638.354091 
L 84.01312 639.401641 
L 83.80976 638.466479 
L 83.6064 640.479483 
L 83.40304 637.414418 
L 83.19968 638.574288 
L 82.99632 636.198375 
L 82.79296 635.960943 
L 82.5896 635.378821 
L 82.38624 637.342057 
L 82.18288 635.785591 
L 81.97952 635.296767 
L 81.77616 636.301108 
L 81.5728 636.165349 
L 81.3744 634.721366 
L 81.17104 636.865906 
L 80.96768 636.832913 
L 80.56592 634.694507 
L 80.36256 636.551835 
L 80.1592 636.524197 
L 79.9608 638.739403 
L 79.75744 638.128996 
L 79.35568 639.432046 
L 79.15232 638.02114 
L 78.75056 640.593043 
L 78.55216 640.159042 
L 78.35376 640.299569 
L 78.1504 638.941802 
L 77.952 640.584578 
L 77.7536 640.801682 
L 77.55024 639.366619 
L 77.35184 639.445898 
L 77.15344 638.071513 
L 76.95504 638.46286 
L 76.75168 637.108398 
L 76.55328 637.397173 
L 76.35488 638.745391 
L 76.15648 638.480554 
L 75.75968 638.447849 
L 75.56128 637.433454 
L 75.36288 638.564385 
L 75.16448 638.193754 
L 74.96608 639.989597 
L 74.76768 637.920194 
L 74.56928 640.095784 
L 74.37088 640.645091 
L 74.17744 640.433369 
L 73.97904 641.874693 
L 73.58224 642.086822 
L 73.3888 641.734192 
L 73.1904 643.245868 
L 72.992 642.631947 
L 72.79856 640.511621 
L 72.60016 640.754972 
L 72.40176 642.140155 
L 72.20832 641.293077 
L 72.00992 641.699602 
L 72.00992 641.699602 
" clip-path="url(#p2397f4b405)" style="fill: none; stroke-dasharray: 3.7,1.6; stroke-dashoffset: 0; stroke: #808080"/>
   </g>
   <g id="line2d_24">
    <path d="M 72 598.8 
L 518.4 598.8 
" clip-path="url(#p2397f4b405)" style="fill: none; stroke-dasharray: 5.55,2.4; stroke-dashoffset: 0; stroke: #000000; stroke-width: 1.5"/>
   </g>
   <g id="patch_9">
    <path d="M 72 640.8 
L 72 556.8 
" style="fill: none; stroke: #000000; stroke-width: 0.8; stroke-linejoin: miter; stroke-linecap: square"/>
   </g>
   <g id="patch_10">
    <path d="M 518.4 640.8 
L 518.4 556.8 
" style="fill: none; stroke: #000000; stroke-width: 0.8; stroke-linejoin: miter; stroke-linecap: square"/>
   </g>
   <g id="patch_11">
    <path d="M 72 640.8 
L 518.4 640.8 
" style="fill: none; stroke: #000000; stroke-width: 0.8; stroke-linejoin: miter; stroke-linecap: square"/>
   </g>
   <g id="patch_12">
    <path d="M 72 556.8 
L 518.4 556.8 
" style="fill: none; stroke: #000000; stroke-width: 0.8; stroke-linejoin: miter; stroke-linecap: square"/>
   </g>
  </g>
  <g id="text_18">
   <!-- Photon energy (eV) -->
   <g transform="translate(229.8825 710.304375) scale(0.12 -0.12)">
    <defs>
     <path id="DejaVuSans-50" d="M 1259 4147 
L 1259 2394 
L 2053 2394 
Q 2494 2394 2734 2622 
Q 2975 2850 2975 3272 
Q 2975 3691 2734 3919 
Q 2494 4147 2053 4147 
L 1259 4147 
z
M 628 4666 
L 2053 4666 
Q 2838 4666 3239 4311 
Q 3641 3956 3641 3272 
Q 3641 2581 3239 2228 
Q 2838 1875 2053 1875 
L 1259 1875 
L 1259 0 
L 628 0 
L 628 4666 
z
" transform="scale(0.015625)"/>
     <path id="DejaVuSans-68" d="M 3513 2113 
L 3513 0 
L 2938 0 
L 2938 2094 
Q 2938 2591 2744 2837 
Q 2550 3084 2163 3084 
Q 1697 3084 1428 2787 
Q 1159 2491 1159 1978 
L 1159 0 
L 581 0 
L 581 4863 
L 1159 4863 
L 1159 2956 
Q 1366 3272 1645 3428 
Q 1925 3584 2291 3584 
Q 2894 3584 3203 3211 
Q 3513 2838 3513 2113 
z
" transform="scale(0.015625)"/>
     <path id="DejaVuSans-67" d="M 2906 1791 
Q 2906 2416 2648 2759 
Q 2391 3103 1925 3103 
Q 1463 3103 1205 2759 
Q 947 2416 947 1791 
Q 947 1169 1205 825 
Q 1463 481 1925 481 
Q 2391 481 2648 825 
Q 2906 1169 2906 1791 
z
M 3481 434 
Q 3481 -459 3084 -895 
Q 2688 -1331 1869 -1331 
Q 1566 -1331 1297 -1286 
Q 1028 -1241 775 -1147 
L 775 -588 
Q 1028 -725 1275 -790 
Q 1522 -856 1778 -856 
Q 2344 -856 2625 -561 
Q 2906 -266 2906 331 
L 2906 616 
Q 2728 306 2450 153 
Q 2172 0 1784 0 
Q 1141 0 747 490 
Q 353 981 353 1791 
Q 353 2603 747 3093 
Q 1141 3584 1784 3584 
Q 2172 3584 2450 3431 
Q 2728 3278 2906 2969 
L 2906 3500 
L 3481 3500 
L 3481 434 
z
" transform="scale(0.015625)"/>
     <path id="DejaVuSans-56" d="M 1831 0 
L 50 4666 
L 709 4666 
L 2188 738 
L 3669 4666 
L 4325 4666 
L 2547 0 
L 1831 0 
z
" transform="scale(0.015625)"/>
    </defs>
    <use xlink:href="#DejaVuSans-50"/>
    <use xlink:href="#DejaVuSans-68" transform="translate(60.302734 0)"/>
    <use xlink:href="#DejaVuSans-6f" transform="translate(123.681641 0)"/>
    <use xlink:href="#DejaVuSans-74" transform="translate(184.863281 0)"/>
    <use xlink:href="#DejaVuSans-6f" transform="translate(224.072266 0)"/>
    <use xlink:href="#DejaVuSans-6e" transform="translate(285.253906 0)"/>
    <use xlink:href="#DejaVuSans-20" transform="translate(348.632812 0)"/>
    <use xlink:href="#DejaVuSans-65" transform="translate(380.419922 0)"/>
    <use xlink:href="#DejaVuSans-6e" transform="translate(441.943359 0)"/>
    <use xlink:href="#DejaVuSans-65" transform="translate(505.322266 0)"/>
    <use xlink:href="#DejaVuSans-72" transform="translate(566.845703 0)"/>
    <use xlink:href="#DejaVuSans-67" transform="translate(606.208984 0)"/>
    <use xlink:href="#DejaVuSans-79" transform="translate(669.685547 0)"/>
    <use xlink:href="#DejaVuSans-20" transform="translate(728.865234 0)"/>
    <use xlink:href="#DejaVuSans-28" transform="translate(760.652344 0)"/>
    <use xlink:href="#DejaVuSans-65" transform="translate(799.666016 0)"/>
    <use xlink:href="#DejaVuSans-56" transform="translate(861.189453 0)"/>
    <use xlink:href="#DejaVuSans-29" transform="translate(929.597656 0)"/>
   </g>
  </g>
  <g id="text_19">
   <!-- Excitation power 1.2 mW -->
   <g transform="translate(212.689687 23.518125) scale(0.12 -0.12)">
    <defs>
     <path id="DejaVuSans-45" d="M 628 4666 
L 3578 4666 
L 3578 4134 
L 1259 4134 
L 1259 2753 
L 3481 2753 
L 3481 2222 
L 1259 2222 
L 1259 531 
L 3634 531 
L 3634 0 
L 628 0 
L 628 4666 
z
" transform="scale(0.015625)"/>
     <path id="DejaVuSans-78" d="M 3513 3500 
L 2247 1797 
L 3578 0 
L 2900 0 
L 1881 1375 
L 863 0 
L 184 0 
L 1544 1831 
L 300 3500 
L 978 3500 
L 1906 2253 
L 2834 3500 
L 3513 3500 
z
" transform="scale(0.015625)"/>
     <path id="DejaVuSans-70" d="M 1159 525 
L 1159 -1331 
L 581 -1331 
L 581 3500 
L 1159 3500 
L 1159 2969 
Q 1341 3281 1617 3432 
Q 1894 3584 2278 3584 
Q 2916 3584 3314 3078 
Q 3713 2572 3713 1747 
Q 3713 922 3314 415 
Q 2916 -91 2278 -91 
Q 1894 -91 1617 61 
Q 1341 213 1159 525 
z
M 3116 1747 
Q 3116 2381 2855 2742 
Q 2594 3103 2138 3103 
Q 1681 3103 1420 2742 
Q 1159 2381 1159 1747 
Q 1159 1113 1420 752 
Q 1681 391 2138 391 
Q 2594 391 2855 752 
Q 3116 1113 3116 1747 
z
" transform="scale(0.015625)"/>
     <path id="DejaVuSans-77" d="M 269 3500 
L 844 3500 
L 1563 769 
L 2278 3500 
L 2956 3500 
L 3675 769 
L 4391 3500 
L 4966 3500 
L 4050 0 
L 3372 0 
L 2619 2869 
L 1863 0 
L 1184 0 
L 269 3500 
z
" transform="scale(0.015625)"/>
     <path id="DejaVuSans-6d" d="M 3328 2828 
Q 3544 3216 3844 3400 
Q 4144 3584 4550 3584 
Q 5097 3584 5394 3201 
Q 5691 2819 5691 2113 
L 5691 0 
L 5113 0 
L 5113 2094 
Q 5113 2597 4934 2840 
Q 4756 3084 4391 3084 
Q 3944 3084 3684 2787 
Q 3425 2491 3425 1978 
L 3425 0 
L 2847 0 
L 2847 2094 
Q 2847 2600 2669 2842 
Q 2491 3084 2119 3084 
Q 1678 3084 1418 2786 
Q 1159 2488 1159 1978 
L 1159 0 
L 581 0 
L 581 3500 
L 1159 3500 
L 1159 2956 
Q 1356 3278 1631 3431 
Q 1906 3584 2284 3584 
Q 2666 3584 2933 3390 
Q 3200 3197 3328 2828 
z
" transform="scale(0.015625)"/>
     <path id="DejaVuSans-57" d="M 213 4666 
L 850 4666 
L 1831 722 
L 2809 4666 
L 3519 4666 
L 4500 722 
L 5478 4666 
L 6119 4666 
L 4947 0 
L 4153 0 
L 3169 4050 
L 2175 0 
L 1381 0 
L 213 4666 
z
" transform="scale(0.015625)"/>
    </defs>
    <use xlink:href="#DejaVuSans-45"/>
    <use xlink:href="#DejaVuSans-78" transform="translate(63.183594 0)"/>
    <use xlink:href="#DejaVuSans-63" transform="translate(120.613281 0)"/>
    <use xlink:href="#DejaVuSans-69" transform="translate(175.59375 0)"/>
    <use xlink:href="#DejaVuSans-74" transform="translate(203.376953 0)"/>
    <use xlink:href="#DejaVuSans-61" transform="translate(242.585938 0)"/>
    <use xlink:href="#DejaVuSans-74" transform="translate(303.865234 0)"/>
    <use xlink:href="#DejaVuSans-69" transform="translate(343.074219 0)"/>
    <use xlink:href="#DejaVuSans-6f" transform="translate(370.857422 0)"/>
    <use xlink:href="#DejaVuSans-6e" transform="translate(432.039062 0)"/>
    <use xlink:href="#DejaVuSans-20" transform="translate(495.417969 0)"/>
    <use xlink:href="#DejaVuSans-70" transform="translate(527.205078 0)"/>
    <use xlink:href="#DejaVuSans-6f" transform="translate(590.681641 0)"/>
    <use xlink:href="#DejaVuSans-77" transform="translate(651.863281 0)"/>
    <use xlink:href="#DejaVuSans-65" transform="translate(733.650391 0)"/>
    <use xlink:href="#DejaVuSans-72" transform="translate(795.173828 0)"/>
    <use xlink:href="#DejaVuSans-20" transform="translate(836.287109 0)"/>
    <use xlink:href="#DejaVuSans-31" transform="translate(868.074219 0)"/>
    <use xlink:href="#DejaVuSans-2e" transform="translate(931.697266 0)"/>
    <use xlink:href="#DejaVuSans-32" transform="translate(963.484375 0)"/>
    <use xlink:href="#DejaVuSans-20" transform="translate(1027.107422 0)"/>
    <use xlink:href="#DejaVuSans-6d" transform="translate(1058.894531 0)"/>
    <use xlink:href="#DejaVuSans-57" transform="translate(1156.306641 0)"/>
   </g>
  </g>
 </g>
 <defs>
  <clipPath id="p75f05498c2">
   <rect x="72" y="86.4" width="446.4" height="420"/>
  </clipPath>
  <clipPath id="p2397f4b405">
   <rect x="72" y="556.8" width="446.4" height="84"/>
  </clipPath>
 </defs>
</svg>
