<?xml version="1.0" encoding="utf-8" standalone="no"?>
<!DOCTYPE svg PUBLIC "-//W3C//DTD SVG 1.1//EN"
  "http://www.w3.org/Graphics/SVG/1.1/DTD/svg11.dtd">
<svg xmlns:xlink="http://www.w3.org/1999/xlink" width="576pt" height="720pt" viewBox="0 0 576 720" xmlns="http://www.w3.org/2000/svg" version="1.1">
 <metadata>
  <rdf:RDF xmlns:dc="http://purl.org/dc/elements/1.1/" xmlns:cc="http://creativecommons.org/ns#" xmlns:rdf="http://www.w3.org/1999/02/22-rdf-syntax-ns#">
   <cc:Work>
    <dc:type rdf:resource="http://purl.org/dc/dcmitype/StillImage"/>
    <dc:date>2026-06-10T15:01:56.033995</dc:date>
    <dc:format>image/svg+xml</dc:format>
    <dc:creator>
     <cc:Agent>
      <dc:title>Matplotlib v3.10.0, https://matplotlib.org/</dc:title>
     </cc:Agent>
    </dc:creator>
   </cc:Work>
  </rdf:RDF>
 </metadata>
 <defs>
  <style type="text/css">*{stroke-linejoin: round; stroke-linecap: butt}</style>
 </defs>
 <g id="figure_1">
  <g id="patch_1">
   <path d="M 0 720 
L 576 720 
L 576 0 
L 0 0 
z
" style="fill: #ffffff"/>
  </g>
  <g id="axes_1">
   <g id="patch_2">
    <path d="M 72 506.4 
L 518.4 506.4 
L 518.4 86.4 
L 72 86.4 
z
" style="fill: #ffffff"/>
   </g>
   <g id="matplotlib.axis_1">
    <g id="xtick_1">
     <g id="line2d_1">
      <defs>
       <path id="m041ca83f72" d="M 0 0 
L 0 3.5 
" style="stroke: #000000; stroke-width: 0.8"/>
      </defs>
      <g>
       <use xlink:href="#m041ca83f72" x="72" y="506.4" style="stroke: #000000; stroke-width: 0.8"/>
      </g>
     </g>
    </g>
    <g id="xtick_2">
     <g id="line2d_2">
      <g>
       <use xlink:href="#m041ca83f72" x="171.2" y="506.4" style="stroke: #000000; stroke-width: 0.8"/>
      </g>
     </g>
    </g>
    <g id="xtick_3">
     <g id="line2d_3">
      <g>
       <use xlink:href="#m041ca83f72" x="270.4" y="506.4" style="stroke: #000000; stroke-width: 0.8"/>
      </g>
     </g>
    </g>
    <g id="xtick_4">
     <g id="line2d_4">
      <g>
       <use xlink:href="#m041ca83f72" x="369.6" y="506.4" style="stroke: #000000; stroke-width: 0.8"/>
      </g>
     </g>
    </g>
    <g id="xtick_5">
     <g id="line2d_5">
      <g>
       <use xlink:href="#m041ca83f72" x="468.8" y="506.4" style="stroke: #000000; stroke-width: 0.8"/>
      </g>
     </g>
    </g>
   </g>
   <g id="matplotlib.axis_2">
    <g id="ytick_1">
     <g id="line2d_6">
      <defs>
       <path id="m83f911bcf6" d="M 0 0 
L -3.5 0 
" style="stroke: #000000; stroke-width: 0.8"/>
      </defs>
      <g>
       <use xlink:href="#m83f911bcf6" x="72" y="485.985519" style="stroke: #000000; stroke-width: 0.8"/>
      </g>
     </g>
     <g id="text_1">
      <!-- 0 -->
      <g transform="translate(58.6375 489.784738) scale(0.1 -0.1)">
       <defs>
        <path id="DejaVuSans-30" d="M 2034 4250 
Q 1547 4250 1301 3770 
Q 1056 3291 1056 2328 
Q 1056 1369 1301 889 
Q 1547 409 2034 409 
Q 2525 409 2770 889 
Q 3016 1369 3016 2328 
Q 3016 3291 2770 3770 
Q 2525 4250 2034 4250 
z
M 2034 4750 
Q 2819 4750 3233 4129 
Q 3647 3509 3647 2328 
Q 3647 1150 3233 529 
Q 2819 -91 2034 -91 
Q 1250 -91 836 529 
Q 422 1150 422 2328 
Q 422 3509 836 4129 
Q 1250 4750 2034 4750 
z
" transform="scale(0.015625)"/>
       </defs>
       <use xlink:href="#DejaVuSans-30"/>
      </g>
     </g>
    </g>
    <g id="ytick_2">
     <g id="line2d_7">
      <g>
       <use xlink:href="#m83f911bcf6" x="72" y="435.539938" style="stroke: #000000; stroke-width: 0.8"/>
      </g>
     </g>
     <g id="text_2">
      <!-- 5000 -->
      <g transform="translate(39.55 439.339156) scale(0.1 -0.1)">
       <defs>
        <path id="DejaVuSans-35" d="M 691 4666 
L 3169 4666 
L 3169 4134 
L 1269 4134 
L 1269 2991 
Q 1406 3038 1543 3061 
Q 1681 3084 1819 3084 
Q 2600 3084 3056 2656 
Q 3513 2228 3513 1497 
Q 3513 744 3044 326 
Q 2575 -91 1722 -91 
Q 1428 -91 1123 -41 
Q 819 9 494 109 
L 494 744 
Q 775 591 1075 516 
Q 1375 441 1709 441 
Q 2250 441 2565 725 
Q 2881 1009 2881 1497 
Q 2881 1984 2565 2268 
Q 2250 2553 1709 2553 
Q 1456 2553 1204 2497 
Q 953 2441 691 2322 
L 691 4666 
z
" transform="scale(0.015625)"/>
       </defs>
       <use xlink:href="#DejaVuSans-35"/>
       <use xlink:href="#DejaVuSans-30" transform="translate(63.623047 0)"/>
       <use xlink:href="#DejaVuSans-30" transform="translate(127.246094 0)"/>
       <use xlink:href="#DejaVuSans-30" transform="translate(190.869141 0)"/>
      </g>
     </g>
    </g>
    <g id="ytick_3">
     <g id="line2d_8">
      <g>
       <use xlink:href="#m83f911bcf6" x="72" y="385.094356" style="stroke: #000000; stroke-width: 0.8"/>
      </g>
     </g>
     <g id="text_3">
      <!-- 10000 -->
      <g transform="translate(33.1875 388.893575) scale(0.1 -0.1)">
       <defs>
        <path id="DejaVuSans-31" d="M 794 531 
L 1825 531 
L 1825 4091 
L 703 3866 
L 703 4441 
L 1819 4666 
L 2450 4666 
L 2450 531 
L 3481 531 
L 3481 0 
L 794 0 
L 794 531 
z
" transform="scale(0.015625)"/>
       </defs>
       <use xlink:href="#DejaVuSans-31"/>
       <use xlink:href="#DejaVuSans-30" transform="translate(63.623047 0)"/>
       <use xlink:href="#DejaVuSans-30" transform="translate(127.246094 0)"/>
       <use xlink:href="#DejaVuSans-30" transform="translate(190.869141 0)"/>
       <use xlink:href="#DejaVuSans-30" transform="translate(254.492188 0)"/>
      </g>
     </g>
    </g>
    <g id="ytick_4">
     <g id="line2d_9">
      <g>
       <use xlink:href="#m83f911bcf6" x="72" y="334.648775" style="stroke: #000000; stroke-width: 0.8"/>
      </g>
     </g>
     <g id="text_4">
      <!-- 15000 -->
      <g transform="translate(33.1875 338.447994) scale(0.1 -0.1)">
       <use xlink:href="#DejaVuSans-31"/>
       <use xlink:href="#DejaVuSans-35" transform="translate(63.623047 0)"/>
       <use xlink:href="#DejaVuSans-30" transform="translate(127.246094 0)"/>
       <use xlink:href="#DejaVuSans-30" transform="translate(190.869141 0)"/>
       <use xlink:href="#DejaVuSans-30" transform="translate(254.492188 0)"/>
      </g>
     </g>
    </g>
    <g id="ytick_5">
     <g id="line2d_10">
      <g>
       <use xlink:href="#m83f911bcf6" x="72" y="284.203194" style="stroke: #000000; stroke-width: 0.8"/>
      </g>
     </g>
     <g id="text_5">
      <!-- 20000 -->
      <g transform="translate(33.1875 288.002413) scale(0.1 -0.1)">
       <defs>
        <path id="DejaVuSans-32" d="M 1228 531 
L 3431 531 
L 3431 0 
L 469 0 
L 469 531 
Q 828 903 1448 1529 
Q 2069 2156 2228 2338 
Q 2531 2678 2651 2914 
Q 2772 3150 2772 3378 
Q 2772 3750 2511 3984 
Q 2250 4219 1831 4219 
Q 1534 4219 1204 4116 
Q 875 4013 500 3803 
L 500 4441 
Q 881 4594 1212 4672 
Q 1544 4750 1819 4750 
Q 2544 4750 2975 4387 
Q 3406 4025 3406 3419 
Q 3406 3131 3298 2873 
Q 3191 2616 2906 2266 
Q 2828 2175 2409 1742 
Q 1991 1309 1228 531 
z
" transform="scale(0.015625)"/>
       </defs>
       <use xlink:href="#DejaVuSans-32"/>
       <use xlink:href="#DejaVuSans-30" transform="translate(63.623047 0)"/>
       <use xlink:href="#DejaVuSans-30" transform="translate(127.246094 0)"/>
       <use xlink:href="#DejaVuSans-30" transform="translate(190.869141 0)"/>
       <use xlink:href="#DejaVuSans-30" transform="translate(254.492188 0)"/>
      </g>
     </g>
    </g>
    <g id="ytick_6">
     <g id="line2d_11">
      <g>
       <use xlink:href="#m83f911bcf6" x="72" y="233.757613" style="stroke: #000000; stroke-width: 0.8"/>
      </g>
     </g>
     <g id="text_6">
      <!-- 25000 -->
      <g transform="translate(33.1875 237.556831) scale(0.1 -0.1)">
       <use xlink:href="#DejaVuSans-32"/>
       <use xlink:href="#DejaVuSans-35" transform="translate(63.623047 0)"/>
       <use xlink:href="#DejaVuSans-30" transform="translate(127.246094 0)"/>
       <use xlink:href="#DejaVuSans-30" transform="translate(190.869141 0)"/>
       <use xlink:href="#DejaVuSans-30" transform="translate(254.492188 0)"/>
      </g>
     </g>
    </g>
    <g id="ytick_7">
     <g id="line2d_12">
      <g>
       <use xlink:href="#m83f911bcf6" x="72" y="183.312031" style="stroke: #000000; stroke-width: 0.8"/>
      </g>
     </g>
     <g id="text_7">
      <!-- 30000 -->
      <g transform="translate(33.1875 187.11125) scale(0.1 -0.1)">
       <defs>
        <path id="DejaVuSans-33" d="M 2597 2516 
Q 3050 2419 3304 2112 
Q 3559 1806 3559 1356 
Q 3559 666 3084 287 
Q 2609 -91 1734 -91 
Q 1441 -91 1130 -33 
Q 819 25 488 141 
L 488 750 
Q 750 597 1062 519 
Q 1375 441 1716 441 
Q 2309 441 2620 675 
Q 2931 909 2931 1356 
Q 2931 1769 2642 2001 
Q 2353 2234 1838 2234 
L 1294 2234 
L 1294 2753 
L 1863 2753 
Q 2328 2753 2575 2939 
Q 2822 3125 2822 3475 
Q 2822 3834 2567 4026 
Q 2313 4219 1838 4219 
Q 1578 4219 1281 4162 
Q 984 4106 628 3988 
L 628 4550 
Q 988 4650 1302 4700 
Q 1616 4750 1894 4750 
Q 2613 4750 3031 4423 
Q 3450 4097 3450 3541 
Q 3450 3153 3228 2886 
Q 3006 2619 2597 2516 
z
" transform="scale(0.015625)"/>
       </defs>
       <use xlink:href="#DejaVuSans-33"/>
       <use xlink:href="#DejaVuSans-30" transform="translate(63.623047 0)"/>
       <use xlink:href="#DejaVuSans-30" transform="translate(127.246094 0)"/>
       <use xlink:href="#DejaVuSans-30" transform="translate(190.869141 0)"/>
       <use xlink:href="#DejaVuSans-30" transform="translate(254.492188 0)"/>
      </g>
     </g>
    </g>
    <g id="ytick_8">
     <g id="line2d_13">
      <g>
       <use xlink:href="#m83f911bcf6" x="72" y="132.86645" style="stroke: #000000; stroke-width: 0.8"/>
      </g>
     </g>
     <g id="text_8">
      <!-- 35000 -->
      <g transform="translate(33.1875 136.665669) scale(0.1 -0.1)">
       <use xlink:href="#DejaVuSans-33"/>
       <use xlink:href="#DejaVuSans-35" transform="translate(63.623047 0)"/>
       <use xlink:href="#DejaVuSans-30" transform="translate(127.246094 0)"/>
       <use xlink:href="#DejaVuSans-30" transform="translate(190.869141 0)"/>
       <use xlink:href="#DejaVuSans-30" transform="translate(254.492188 0)"/>
      </g>
     </g>
    </g>
    <g id="text_9">
     <!-- Intensitiy (a.u.) -->
     <g transform="translate(27.107812 334.453125) rotate(-90) scale(0.1 -0.1)">
      <defs>
       <path id="DejaVuSans-49" d="M 628 4666 
L 1259 4666 
L 1259 0 
L 628 0 
L 628 4666 
z
" transform="scale(0.015625)"/>
       <path id="DejaVuSans-6e" d="M 3513 2113 
L 3513 0 
L 2938 0 
L 2938 2094 
Q 2938 2591 2744 2837 
Q 2550 3084 2163 3084 
Q 1697 3084 1428 2787 
Q 1159 2491 1159 1978 
L 1159 0 
L 581 0 
L 581 3500 
L 1159 3500 
L 1159 2956 
Q 1366 3272 1645 3428 
Q 1925 3584 2291 3584 
Q 2894 3584 3203 3211 
Q 3513 2838 3513 2113 
z
" transform="scale(0.015625)"/>
       <path id="DejaVuSans-74" d="M 1172 4494 
L 1172 3500 
L 2356 3500 
L 2356 3053 
L 1172 3053 
L 1172 1153 
Q 1172 725 1289 603 
Q 1406 481 1766 481 
L 2356 481 
L 2356 0 
L 1766 0 
Q 1100 0 847 248 
Q 594 497 594 1153 
L 594 3053 
L 172 3053 
L 172 3500 
L 594 3500 
L 594 4494 
L 1172 4494 
z
" transform="scale(0.015625)"/>
       <path id="DejaVuSans-65" d="M 3597 1894 
L 3597 1613 
L 953 1613 
Q 991 1019 1311 708 
Q 1631 397 2203 397 
Q 2534 397 2845 478 
Q 3156 559 3463 722 
L 3463 178 
Q 3153 47 2828 -22 
Q 2503 -91 2169 -91 
Q 1331 -91 842 396 
Q 353 884 353 1716 
Q 353 2575 817 3079 
Q 1281 3584 2069 3584 
Q 2775 3584 3186 3129 
Q 3597 2675 3597 1894 
z
M 3022 2063 
Q 3016 2534 2758 2815 
Q 2500 3097 2075 3097 
Q 1594 3097 1305 2825 
Q 1016 2553 972 2059 
L 3022 2063 
z
" transform="scale(0.015625)"/>
       <path id="DejaVuSans-73" d="M 2834 3397 
L 2834 2853 
Q 2591 2978 2328 3040 
Q 2066 3103 1784 3103 
Q 1356 3103 1142 2972 
Q 928 2841 928 2578 
Q 928 2378 1081 2264 
Q 1234 2150 1697 2047 
L 1894 2003 
Q 2506 1872 2764 1633 
Q 3022 1394 3022 966 
Q 3022 478 2636 193 
Q 2250 -91 1575 -91 
Q 1294 -91 989 -36 
Q 684 19 347 128 
L 347 722 
Q 666 556 975 473 
Q 1284 391 1588 391 
Q 1994 391 2212 530 
Q 2431 669 2431 922 
Q 2431 1156 2273 1281 
Q 2116 1406 1581 1522 
L 1381 1569 
Q 847 1681 609 1914 
Q 372 2147 372 2553 
Q 372 3047 722 3315 
Q 1072 3584 1716 3584 
Q 2034 3584 2315 3537 
Q 2597 3491 2834 3397 
z
" transform="scale(0.015625)"/>
       <path id="DejaVuSans-69" d="M 603 3500 
L 1178 3500 
L 1178 0 
L 603 0 
L 603 3500 
z
M 603 4863 
L 1178 4863 
L 1178 4134 
L 603 4134 
L 603 4863 
z
" transform="scale(0.015625)"/>
       <path id="DejaVuSans-79" d="M 2059 -325 
Q 1816 -950 1584 -1140 
Q 1353 -1331 966 -1331 
L 506 -1331 
L 506 -850 
L 844 -850 
Q 1081 -850 1212 -737 
Q 1344 -625 1503 -206 
L 1606 56 
L 191 3500 
L 800 3500 
L 1894 763 
L 2988 3500 
L 3597 3500 
L 2059 -325 
z
" transform="scale(0.015625)"/>
       <path id="DejaVuSans-20" transform="scale(0.015625)"/>
       <path id="DejaVuSans-28" d="M 1984 4856 
Q 1566 4138 1362 3434 
Q 1159 2731 1159 2009 
Q 1159 1288 1364 580 
Q 1569 -128 1984 -844 
L 1484 -844 
Q 1016 -109 783 600 
Q 550 1309 550 2009 
Q 550 2706 781 3412 
Q 1013 4119 1484 4856 
L 1984 4856 
z
" transform="scale(0.015625)"/>
       <path id="DejaVuSans-61" d="M 2194 1759 
Q 1497 1759 1228 1600 
Q 959 1441 959 1056 
Q 959 750 1161 570 
Q 1363 391 1709 391 
Q 2188 391 2477 730 
Q 2766 1069 2766 1631 
L 2766 1759 
L 2194 1759 
z
M 3341 1997 
L 3341 0 
L 2766 0 
L 2766 531 
Q 2569 213 2275 61 
Q 1981 -91 1556 -91 
Q 1019 -91 701 211 
Q 384 513 384 1019 
Q 384 1609 779 1909 
Q 1175 2209 1959 2209 
L 2766 2209 
L 2766 2266 
Q 2766 2663 2505 2880 
Q 2244 3097 1772 3097 
Q 1472 3097 1187 3025 
Q 903 2953 641 2809 
L 641 3341 
Q 956 3463 1253 3523 
Q 1550 3584 1831 3584 
Q 2591 3584 2966 3190 
Q 3341 2797 3341 1997 
z
" transform="scale(0.015625)"/>
       <path id="DejaVuSans-2e" d="M 684 794 
L 1344 794 
L 1344 0 
L 684 0 
L 684 794 
z
" transform="scale(0.015625)"/>
       <path id="DejaVuSans-75" d="M 544 1381 
L 544 3500 
L 1119 3500 
L 1119 1403 
Q 1119 906 1312 657 
Q 1506 409 1894 409 
Q 2359 409 2629 706 
Q 2900 1003 2900 1516 
L 2900 3500 
L 3475 3500 
L 3475 0 
L 2900 0 
L 2900 538 
Q 2691 219 2414 64 
Q 2138 -91 1772 -91 
Q 1169 -91 856 284 
Q 544 659 544 1381 
z
M 1991 3584 
L 1991 3584 
z
" transform="scale(0.015625)"/>
       <path id="DejaVuSans-29" d="M 513 4856 
L 1013 4856 
Q 1481 4119 1714 3412 
Q 1947 2706 1947 2009 
Q 1947 1309 1714 600 
Q 1481 -109 1013 -844 
L 513 -844 
Q 928 -128 1133 580 
Q 1338 1288 1338 2009 
Q 1338 2731 1133 3434 
Q 928 4138 513 4856 
z
" transform="scale(0.015625)"/>
      </defs>
      <use xlink:href="#DejaVuSans-49"/>
      <use xlink:href="#DejaVuSans-6e" transform="translate(29.492188 0)"/>
      <use xlink:href="#DejaVuSans-74" transform="translate(92.871094 0)"/>
      <use xlink:href="#DejaVuSans-65" transform="translate(132.080078 0)"/>
      <use xlink:href="#DejaVuSans-6e" transform="translate(193.603516 0)"/>
      <use xlink:href="#DejaVuSans-73" transform="translate(256.982422 0)"/>
      <use xlink:href="#DejaVuSans-69" transform="translate(309.082031 0)"/>
      <use xlink:href="#DejaVuSans-74" transform="translate(336.865234 0)"/>
      <use xlink:href="#DejaVuSans-69" transform="translate(376.074219 0)"/>
      <use xlink:href="#DejaVuSans-79" transform="translate(403.857422 0)"/>
      <use xlink:href="#DejaVuSans-20" transform="translate(463.037109 0)"/>
      <use xlink:href="#DejaVuSans-28" transform="translate(494.824219 0)"/>
      <use xlink:href="#DejaVuSans-61" transform="translate(533.837891 0)"/>
      <use xlink:href="#DejaVuSans-2e" transform="translate(595.117188 0)"/>
      <use xlink:href="#DejaVuSans-75" transform="translate(626.904297 0)"/>
      <use xlink:href="#DejaVuSans-2e" transform="translate(690.283203 0)"/>
      <use xlink:href="#DejaVuSans-29" transform="translate(722.070312 0)"/>
     </g>
    </g>
   </g>
   <g id="line2d_14">
    <path d="M 518.29584 486.954062 
L 517.68576 486.458398 
L 517.07568 487.072537 
L 516.4656 486.970348 
L 515.85552 486.474684 
L 515.24544 486.78615 
L 514.63536 486.522535 
L 514.03024 486.834011 
L 513.42016 486.439238 
L 512.81504 486.780982 
L 512.20992 486.638447 
L 510.99968 486.070883 
L 510.39952 485.797201 
L 509.7944 486.370994 
L 509.19424 486.00651 
L 507.98896 486.488224 
L 507.3888 485.276254 
L 506.19344 486.151465 
L 505.59328 485.605377 
L 504.99808 485.523398 
L 504.40288 485.058033 
L 503.80768 485.571313 
L 503.21248 485.76174 
L 502.61728 485.437623 
L 502.02208 485.74912 
L 501.43184 485.364478 
L 500.83664 485.302678 
L 500.2464 485.372047 
L 499.65616 484.866336 
L 499.06592 485.288824 
L 498.47568 484.571241 
L 497.88544 485.195512 
L 497.30016 484.730168 
L 496.70992 484.638111 
L 495.53936 484.736513 
L 494.95408 484.129921 
L 494.3688 484.592776 
L 493.78352 484.03663 
L 493.2032 484.267446 
L 492.61792 483.993795 
L 492.0376 484.244789 
L 491.45728 483.779456 
L 490.87696 484.302856 
L 490.29664 483.504582 
L 489.71632 483.775754 
L 489.136 483.824965 
L 488.56064 483.399999 
L 487.98528 483.217171 
L 487.40496 482.560145 
L 486.8296 483.305516 
L 486.25424 482.870461 
L 485.67888 482.294158 
L 485.10848 483.100074 
L 484.53312 482.836534 
L 483.96272 482.371221 
L 483.38736 482.369998 
L 482.81696 482.893419 
L 482.24656 482.206146 
L 481.67616 482.204933 
L 481.11072 481.315889 
L 480.54032 481.365121 
L 479.96992 481.283196 
L 479.40448 481.77636 
L 478.2736 481.773955 
L 477.70816 481.157317 
L 477.14272 481.075402 
L 476.57728 480.862328 
L 476.01184 481.15371 
L 475.45136 480.55726 
L 474.89088 480.606514 
L 474.32544 480.252192 
L 473.20448 480.138829 
L 472.64896 479.855152 
L 472.08848 480.166723 
L 471.528 479.590451 
L 470.97248 479.538825 
L 470.41696 479.23497 
L 469.30096 479.020725 
L 468.74544 478.515088 
L 468.19488 478.7157 
L 467.63936 477.8973 
L 467.08384 477.916297 
L 465.98272 477.389322 
L 465.43216 478.114568 
L 464.8816 476.93297 
L 464.33104 477.779285 
L 463.78048 477.636867 
L 462.68432 476.272505 
L 462.13376 475.373403 
L 461.58816 476.492135 
L 461.04256 475.492152 
L 460.49696 476.590706 
L 459.95136 475.550367 
L 459.40576 475.39787 
L 458.86016 475.104125 
L 458.31952 475.244223 
L 457.77392 474.647805 
L 456.69264 473.888822 
L 456.152 474.694802 
L 455.61136 473.46278 
L 455.07072 472.583878 
L 454.53008 473.107362 
L 453.9944 472.369717 
L 453.45376 472.499726 
L 452.91808 471.701547 
L 452.3824 471.932458 
L 451.84672 472.546755 
L 451.31104 471.627506 
L 450.77536 471.424585 
L 450.23968 469.829365 
L 449.17328 470.059147 
L 448.11184 469.219494 
L 447.57616 468.592829 
L 447.04544 468.36974 
L 446.51472 467.874245 
L 445.98896 468.428029 
L 445.45824 468.285652 
L 444.93248 466.216266 
L 444.40176 467.072712 
L 443.876 467.172485 
L 443.35024 466.677001 
L 442.82448 465.56608 
L 442.29872 465.776833 
L 441.77296 466.108656 
L 440.72144 464.754479 
L 440.20064 464.410341 
L 439.67984 464.520214 
L 439.15408 463.843125 
L 438.63328 462.782661 
L 438.11248 462.115672 
L 437.59168 461.872425 
L 437.07584 462.073111 
L 436.55504 462.707618 
L 436.03424 460.53735 
L 435.5184 461.535076 
L 435.00256 459.637225 
L 434.48176 460.150663 
L 433.96592 460.200011 
L 433.45008 459.190003 
L 432.93424 458.724807 
L 432.42336 458.632918 
L 431.90752 458.389683 
L 431.39664 458.297794 
L 430.8808 458.629638 
L 430.36992 457.478393 
L 429.85904 457.416772 
L 429.34816 455.861961 
L 428.83728 455.739806 
L 428.3264 455.032481 
L 427.81552 455.42487 
L 427.30464 453.52703 
L 426.79872 453.071944 
L 426.28784 452.81863 
L 425.78192 452.817554 
L 425.276 452.322112 
L 424.77008 452.099075 
L 424.26416 450.241602 
L 423.75824 451.289795 
L 423.25232 449.654282 
L 422.75136 448.573681 
L 422.24544 448.75421 
L 421.74448 448.500916 
L 421.24352 447.571652 
L 420.7376 448.165835 
L 420.23664 446.247837 
L 419.73568 446.801673 
L 419.23472 446.286063 
L 418.73872 445.205473 
L 418.23776 443.650684 
L 417.74176 443.437758 
L 417.2408 444.132842 
L 416.7448 441.892003 
L 416.2488 441.87077 
L 415.74784 441.183645 
L 415.25184 441.354105 
L 414.7608 440.999942 
L 414.2648 439.909263 
L 413.7688 439.645891 
L 413.27776 437.697648 
L 412.78176 438.170781 
L 412.29072 438.82553 
L 411.79968 437.664237 
L 411.30368 437.067925 
L 410.81264 435.876365 
L 410.3216 434.05928 
L 409.83552 435.480812 
L 409.34448 433.16936 
L 408.85344 432.008067 
L 408.36736 432.218905 
L 407.87632 432.11697 
L 407.39024 430.511767 
L 406.90416 430.268594 
L 406.41808 429.601679 
L 405.932 429.358507 
L 404.47872 426.853316 
L 403.99264 425.449895 
L 403.51152 425.317713 
L 403.02544 425.548729 
L 402.54432 424.337012 
L 402.0632 422.711642 
L 401.58208 423.638817 
L 401.10096 422.941645 
L 400.13872 420.851152 
L 399.66256 420.04301 
L 399.18144 420.223591 
L 398.70528 419.375093 
L 398.22416 416.226266 
L 397.748 415.024648 
L 397.27184 414.781497 
L 396.79568 415.153782 
L 394.896 410.599551 
L 394.41984 411.476292 
L 393.94864 410.093081 
L 393.47744 407.781671 
L 393.00128 408.164045 
L 392.53008 405.620586 
L 391.58768 405.124215 
L 391.11648 402.701825 
L 390.65024 401.913883 
L 390.17904 404.031595 
L 389.7128 400.206829 
L 389.2416 403.010601 
L 388.30912 399.245378 
L 387.84288 399.446169 
L 386.9104 395.499342 
L 386.44416 395.720311 
L 385.97792 393.20713 
L 385.51168 392.812663 
L 385.0504 392.761236 
L 384.58416 393.173899 
L 384.12288 390.035203 
L 383.6616 391.043133 
L 383.20032 388.479517 
L 382.73904 388.599606 
L 382.27776 388.982011 
L 381.81648 385.480107 
L 381.3552 384.661908 
L 380.89392 384.600392 
L 380.4376 384.014253 
L 379.97632 381.480904 
L 379.52 383.275796 
L 379.06368 378.764991 
L 378.60736 381.034072 
L 378.14608 376.836019 
L 377.68976 376.36086 
L 377.2384 376.884534 
L 376.78208 376.116791 
L 376.32576 374.319958 
L 375.86944 371.726085 
L 375.41808 372.491898 
L 374.96176 370.594174 
L 374.5104 370.946333 
L 374.05904 367.464628 
L 373.60768 367.645272 
L 373.15632 368.905452 
L 372.2536 366.048313 
L 371.80224 363.151777 
L 371.35088 363.039837 
L 370.90448 361.737391 
L 370.45312 362.483026 
L 370.00672 359.445253 
L 369.56032 358.828868 
L 369.11392 359.937721 
L 368.66256 359.664355 
L 368.21616 354.467511 
L 367.76976 353.487918 
L 367.32832 354.536247 
L 366.88192 353.395228 
L 366.43552 352.677951 
L 365.99408 350.346427 
L 365.54768 349.033893 
L 365.10624 346.409784 
L 364.2184 343.693923 
L 363.77696 344.681718 
L 363.33552 344.781671 
L 362.89408 341.471502 
L 362.45264 341.541187 
L 362.01616 342.044715 
L 361.57472 339.914973 
L 361.13328 341.074282 
L 360.6968 340.962374 
L 360.26032 336.310363 
L 359.81888 336.511207 
L 359.3824 334.66397 
L 358.94592 335.893914 
L 358.50944 332.109568 
L 358.07296 334.287889 
L 357.63648 329.545076 
L 357.2 331.097872 
L 356.76848 326.112931 
L 356.332 328.260984 
L 355.90048 329.59183 
L 355.464 326.110157 
L 355.03248 321.670028 
L 354.60096 325.371816 
L 354.16944 321.809441 
L 353.73296 321.546195 
L 353.30144 322.453298 
L 352.87488 317.10516 
L 352.44336 315.338647 
L 352.01184 316.911631 
L 351.15376 312.319259 
L 350.7272 311.410331 
L 350.29568 308.685352 
L 349.86912 309.481486 
L 349.44256 307.52329 
L 349.016 307.996571 
L 348.58944 307.501298 
L 348.16288 305.472478 
L 347.73632 307.670999 
L 347.30976 302.21188 
L 346.8832 298.81094 
L 346.4616 299.203519 
L 346.03504 298.486285 
L 345.61344 297.032556 
L 345.19184 296.961036 
L 344.76528 295.396316 
L 344.34368 298.038768 
L 343.92208 295.838444 
L 343.50048 295.212022 
L 343.07888 295.069878 
L 342.66224 289.994167 
L 342.24064 291.627707 
L 341.81904 290.002463 
L 341.4024 285.784326 
L 340.9808 287.044569 
L 340.56416 283.54276 
L 340.14256 285.226746 
L 339.72592 284.015166 
L 339.30928 284.35731 
L 338.89264 282.025838 
L 338.476 280.56203 
L 337.64272 276.040334 
L 337.23104 277.219886 
L 336.8144 276.351336 
L 336.39776 270.912416 
L 335.98608 274.91692 
L 335.5744 268.600258 
L 335.15776 268.286609 
L 334.74608 269.365269 
L 334.3344 262.766112 
L 333.92272 264.883951 
L 333.09936 263.540348 
L 332.68768 267.413693 
L 332.276 263.811003 
L 331.4576 260.177181 
L 331.05088 255.192293 
L 330.6392 257.310132 
L 330.23248 254.383423 
L 329.82576 255.916104 
L 329.41408 253.463573 
L 329.00736 254.259749 
L 328.60064 252.684982 
L 328.19392 249.243728 
L 327.79216 248.546725 
L 327.38544 252.964893 
L 326.97872 248.736688 
L 326.57696 249.452161 
L 326.17024 245.223957 
L 325.76848 244.920429 
L 325.36176 242.084522 
L 324.96 242.497322 
L 324.55824 245.654361 
L 324.15648 238.268274 
L 323.74976 239.457924 
L 323.35296 234.473057 
L 322.9512 236.500115 
L 322.54944 231.545505 
L 322.14768 231.181442 
L 321.74592 232.673777 
L 321.34912 231.623666 
L 320.94736 230.95693 
L 320.55056 231.410096 
L 320.15376 232.902442 
L 319.752 232.366864 
L 319.3552 229.894187 
L 318.9584 228.995412 
L 318.5616 226.885943 
L 318.1648 228.9231 
L 317.768 222.777985 
L 317.3712 221.405021 
L 316.97936 221.081336 
L 316.58256 218.83062 
L 316.18576 217.952023 
L 315.79392 218.929834 
L 315.40208 215.125404 
L 314.61344 216.657273 
L 314.2216 214.204784 
L 313.43792 213.254741 
L 312.65424 205.524811 
L 312.2624 206.492533 
L 311.87056 200.387785 
L 311.48368 205.219649 
L 310.7 203.018555 
L 310.31312 205.792239 
L 309.92624 203.985465 
L 309.5344 203.157324 
L 309.14752 202.954719 
L 308.76064 201.622133 
L 308.37376 203.407084 
L 307.98688 199.209189 
L 307.6 196.938315 
L 307.21312 198.329791 
L 306.8312 191.740786 
L 306.44432 191.023636 
L 306.05744 194.352221 
L 305.67552 187.591701 
L 305.28864 191.202782 
L 304.90672 187.963364 
L 304.5248 190.545366 
L 304.13792 186.821659 
L 303.756 190.795959 
L 303.37408 190.391582 
L 302.99216 190.663176 
L 302.61024 191.560295 
L 302.22832 183.629438 
L 301.85136 185.454766 
L 301.46944 183.769072 
L 300.32864 174.24252 
L 299.95168 178.22692 
L 299.56976 174.563758 
L 299.1928 178.467445 
L 298.81584 175.207859 
L 298.43888 176.024275 
L 298.06192 176.265613 
L 297.68496 173.268344 
L 297.308 176.728109 
L 296.93104 172.419255 
L 296.55408 170.844551 
L 296.17712 174.455653 
L 295.80512 171.458395 
L 295.42816 162.851577 
L 295.05616 160.711893 
L 294.6792 161.366884 
L 294.3072 159.933439 
L 293.93024 153.011503 
L 293.55824 155.855843 
L 293.18624 153.685892 
L 292.81424 155.854261 
L 292.44224 156.206589 
L 292.07024 154.58145 
L 291.69824 157.133206 
L 291.32624 160.50218 
L 290.9592 161.903786 
L 290.5872 156.797902 
L 290.22016 156.665963 
L 289.84816 159.722175 
L 289.48112 155.161114 
L 289.10912 148.642753 
L 288.74208 151.194519 
L 288.37504 141.437564 
L 288.00304 143.444507 
L 287.636 143.584974 
L 287.26896 141.616816 
L 286.90192 147.619059 
L 286.53984 142.563642 
L 286.1728 146.891093 
L 285.80576 145.366856 
L 285.43872 151.59106 
L 285.07664 148.139812 
L 284.34752 146.120439 
L 283.98048 146.21046 
L 283.6184 145.806126 
L 283.25632 140.569104 
L 282.88928 140.538056 
L 282.5272 137.167522 
L 281.80304 134.199782 
L 281.44096 133.926606 
L 281.07888 131.110972 
L 280.72176 135.519157 
L 280.35968 133.167623 
L 279.9976 136.355014 
L 279.64048 140.591683 
L 279.2784 136.757049 
L 278.92128 139.107054 
L 278.5592 138.521115 
L 278.20208 137.511444 
L 277.84496 137.752823 
L 277.48288 131.426178 
L 277.12576 134.189836 
L 276.76864 128.266765 
L 276.41152 124.886152 
L 276.0544 123.99755 
L 275.69728 120.112481 
L 275.34512 126.19547 
L 274.63088 120.443155 
L 274.27872 120.321336 
L 273.21232 129.126867 
L 272.86016 128.187831 
L 272.508 129.45831 
L 272.15088 131.717513 
L 271.79872 129.82001 
L 271.44656 131.43352 
L 271.0944 129.61673 
L 270.74224 126.135237 
L 270.39008 124.157021 
L 270.04288 123.591292 
L 269.69072 117.648054 
L 269.33856 116.537502 
L 268.99136 116.456051 
L 268.6392 116.93958 
L 268.28704 120.924032 
L 267.93984 116.161231 
L 267.59264 119.358742 
L 267.24048 124.220947 
L 266.89328 122.464703 
L 266.54608 124.623036 
L 266.19888 131.069243 
L 265.85168 128.15275 
L 265.50448 129.473686 
L 265.15728 125.21534 
L 264.81008 128.059733 
L 264.46288 125.133151 
L 264.11568 119.765003 
L 263.77344 122.55896 
L 263.084 113.093903 
L 262.39456 112.103704 
L 262.04736 111.790203 
L 261.70512 113.10106 
L 261.36288 112.89855 
L 261.02064 115.924557 
L 260.6784 115.873384 
L 260.33616 123.378959 
L 259.99392 122.571102 
L 259.65168 127.080209 
L 259.30944 128.996413 
L 258.62496 126.381877 
L 258.28768 121.568651 
L 257.94544 120.23616 
L 257.6032 117.854401 
L 257.26592 118.69108 
L 256.92864 111.638071 
L 256.5864 110.295491 
L 256.24912 110.758873 
L 255.91184 111.555196 
L 255.5696 105.490909 
L 255.23232 106.045093 
L 254.89504 109.646191 
L 254.55776 115.295379 
L 254.22048 117.998544 
L 253.8832 118.815046 
L 253.55088 124.635759 
L 252.87632 129.446833 
L 252.544 129.789157 
L 252.20672 124.733792 
L 251.86944 127.850612 
L 251.53712 120.182177 
L 251.2048 118.678192 
L 250.86752 114.611561 
L 250.5352 115.670211 
L 250.20288 111.654037 
L 249.87056 111.027805 
L 249.53328 112.93393 
L 249.20096 110.844777 
L 248.54128 116.422655 
L 248.20896 124.906895 
L 247.54432 128.971396 
L 247.212 133.76302 
L 246.55232 126.346116 
L 246.22496 127.60656 
L 245.89264 128.191022 
L 245.56528 123.882273 
L 245.23792 116.849463 
L 244.9056 115.184052 
L 244.57824 116.858149 
L 244.25088 114.718561 
L 243.92352 114.465637 
L 243.59616 115.110644 
L 243.2688 116.623315 
L 242.94144 121.717623 
L 242.61408 128.87011 
L 242.28672 131.351337 
L 241.95936 135.628426 
L 241.63696 136.979682 
L 241.3096 141.347573 
L 240.9872 141.457868 
L 240.65984 142.133143 
L 239.36528 128.681598 
L 239.03792 128.045288 
L 238.71552 120.124646 
L 238.39312 121.687773 
L 238.07072 127.871716 
L 237.74832 125.419375 
L 237.42592 127.708919 
L 237.10352 127.355114 
L 236.45872 137.059473 
L 236.14128 144.464209 
L 235.81888 142.960246 
L 235.49648 148.468218 
L 235.17904 146.449719 
L 234.85664 149.536303 
L 234.5392 147.154597 
L 234.22176 147.40615 
L 233.89936 142.038054 
L 233.58192 139.777417 
L 233.26448 139.282376 
L 232.94704 132.844844 
L 232.62464 130.372325 
L 232.3072 131.794216 
L 231.98976 135.415534 
L 231.67232 135.767978 
L 231.35984 137.6338 
L 231.0424 141.083602 
L 230.72496 141.768987 
L 230.40752 149.567199 
L 230.09504 149.324396 
L 229.7776 154.600329 
L 229.46016 156.627566 
L 229.14768 160.168181 
L 228.83024 160.692141 
L 228.51776 161.972794 
L 228.20528 165.775726 
L 227.88784 167.601181 
L 227.57536 166.642051 
L 227.26288 161.46567 
L 226.9504 158.993172 
L 226.63792 154.866059 
L 226.32544 152.272491 
L 226.01296 147.852794 
L 225.70048 149.67826 
L 225.388 146.620593 
L 225.07552 149.273366 
L 224.45552 153.136179 
L 223.83552 161.347401 
L 223.52304 162.163955 
L 223.21552 164.988254 
L 222.90304 169.144306 
L 222.28304 181.643402 
L 221.97552 179.281895 
L 221.668 184.43678 
L 221.36048 182.398124 
L 221.05296 181.529806 
L 220.74544 178.189655 
L 220.43792 176.171178 
L 220.1304 172.044075 
L 219.51536 167.10919 
L 219.20784 164.495455 
L 218.90032 167.915011 
L 218.59776 167.097149 
L 218.29024 167.752288 
L 217.98272 172.079865 
L 217.68016 172.250737 
L 217.37264 175.529045 
L 217.07008 184.184864 
L 216.76752 188.018085 
L 216.46 188.925451 
L 216.15744 193.757495 
L 215.85488 196.238774 
L 215.55232 201.655986 
L 215.24976 203.471383 
L 214.94224 202.431551 
L 214.63968 202.935363 
L 214.33712 202.440353 
L 214.03952 196.093666 
L 213.73696 194.539299 
L 213.4344 187.092888 
L 213.13184 189.614523 
L 212.53168 186.869007 
L 212.22912 188.442266 
L 211.93152 189.127693 
L 211.62896 190.337744 
L 211.33136 190.518715 
L 211.0288 194.483095 
L 210.7312 196.32877 
L 210.4336 202.593478 
L 210.13104 205.004134 
L 209.83344 205.58867 
L 209.53584 216.161431 
L 209.23824 213.456915 
L 208.94064 220.054564 
L 208.64304 223.817172 
L 208.34544 221.385062 
L 208.04784 223.109668 
L 207.75024 221.68647 
L 206.8624 208.45775 
L 206.5648 206.893304 
L 206.2672 204.693244 
L 205.97456 205.923494 
L 205.67696 202.220156 
L 205.09168 209.109778 
L 204.79408 208.25157 
L 204.2088 215.766717 
L 203.32592 229.768533 
L 202.74064 234.004717 
L 202.448 239.926406 
L 202.15536 240.531131 
L 201.86272 240.722202 
L 201.57008 239.490707 
L 201.2824 232.468071 
L 200.98976 232.275755 
L 200.69712 233.011639 
L 200.40944 228.238875 
L 200.1168 228.682174 
L 199.82416 222.557458 
L 199.53648 225.492779 
L 199.2488 223.433988 
L 198.95616 223.746128 
L 198.66848 226.953855 
L 198.3808 227.366897 
L 198.08816 231.260674 
L 197.80048 232.773429 
L 197.5128 237.706396 
L 197.22512 240.197796 
L 196.36208 254.108852 
L 196.0744 258.940927 
L 195.78672 261.200277 
L 195.21136 268.735623 
L 194.92864 268.351636 
L 194.35328 262.246497 
L 194.07056 260.14736 
L 193.78288 260.984145 
L 193.50016 255.162123 
L 192.92976 251.498561 
L 192.64208 249.974493 
L 192.35936 247.613039 
L 192.07664 249.589904 
L 191.79392 250.08367 
L 191.5112 253.916933 
L 191.22352 256.115748 
L 190.9408 260.443378 
L 190.65808 262.480778 
L 190.09264 274.586516 
L 189.80992 276.674361 
L 189.53216 277.652415 
L 189.24944 284.169383 
L 188.96672 285.177694 
L 188.684 289.485145 
L 188.40624 286.982454 
L 188.12352 287.042387 
L 187.8408 285.003784 
L 187.56304 280.715319 
L 187.28032 279.978213 
L 187.00256 277.455343 
L 186.7248 276.466019 
L 186.44208 271.340147 
L 186.16432 271.268932 
L 185.88656 271.8636 
L 185.6088 271.136593 
L 185.04832 272.184669 
L 184.77056 279.024499 
L 184.4928 278.842304 
L 183.93728 283.421582 
L 183.65952 290.120164 
L 183.38176 290.876258 
L 182.8312 302.689442 
L 182.55344 302.033059 
L 182.27568 308.025403 
L 181.72512 309.789828 
L 181.45232 303.988006 
L 181.17456 301.586206 
L 180.90176 301.76723 
L 180.624 298.174914 
L 180.3512 296.973729 
L 180.0784 290.949946 
L 179.80064 291.504257 
L 179.52784 291.765994 
L 179.25504 293.339316 
L 178.98224 296.71859 
L 178.70944 295.194553 
L 178.43664 300.8237 
L 178.16384 300.772674 
L 177.89104 309.559715 
L 177.61824 312.394176 
L 177.34544 319.87972 
L 177.07264 322.350974 
L 176.79984 325.871495 
L 176.52704 326.466173 
L 176.2592 327.948703 
L 175.9864 326.999746 
L 175.44576 328.633034 
L 175.17296 321.781944 
L 174.90512 320.560591 
L 174.63232 318.05791 
L 174.36448 318.531529 
L 174.09168 313.002113 
L 173.82384 314.535089 
L 173.556 314.615233 
L 173.28816 311.305433 
L 173.01536 313.776687 
L 172.47968 321.291939 
L 172.21184 323.087232 
L 171.67616 333.649398 
L 171.40832 336.060127 
L 171.14048 341.497591 
L 170.87264 342.162903 
L 170.6048 346.561189 
L 170.34192 346.368936 
L 170.07408 347.367189 
L 169.54336 341.201611 
L 169.27552 340.091239 
L 168.47696 334.873467 
L 168.21408 334.721572 
L 167.68336 331.431391 
L 167.42048 331.672971 
L 167.1576 332.691413 
L 166.62688 337.482615 
L 166.364 338.087403 
L 166.10112 341.315361 
L 165.31248 355.569605 
L 164.78672 358.131123 
L 164.52384 362.438616 
L 164.26096 361.469502 
L 163.99808 362.235716 
L 163.74016 362.386504 
L 163.47728 360.065449 
L 163.2144 360.599613 
L 162.6936 354.716551 
L 162.43072 352.91004 
L 162.1728 350.316588 
L 161.90992 350.77004 
L 161.652 349.205678 
L 161.39408 349.447269 
L 161.1312 352.433088 
L 160.87328 352.967263 
L 160.61536 352.44208 
L 160.35248 357.092604 
L 160.09456 356.46653 
L 159.3208 364.304128 
L 159.06288 366.563542 
L 158.80496 370.951759 
L 158.54704 373.261618 
L 158.28912 377.155469 
L 158.0312 378.678377 
L 157.77328 377.325887 
L 157.52032 381.320639 
L 157.2624 378.747366 
L 157.00448 379.221006 
L 156.74656 376.092831 
L 156.4936 377.968869 
L 156.23568 375.536844 
L 155.98272 371.046649 
L 155.7248 373.931588 
L 155.47184 371.378503 
L 155.21392 370.560737 
L 154.96096 369.036742 
L 154.70304 370.761433 
L 154.45008 371.658826 
L 154.19712 372.021496 
L 153.18032 377.527992 
L 152.92736 382.24916 
L 152.6744 383.287801 
L 151.91552 393.163432 
L 151.66256 393.021647 
L 151.4096 393.505387 
L 151.15664 397.469871 
L 150.90864 395.734016 
L 150.65568 399.355471 
L 150.40272 395.470623 
L 150.15472 395.681967 
L 149.90176 392.997724 
L 149.6488 388.588243 
L 149.4008 389.384756 
L 149.14784 387.638801 
L 148.89984 388.627007 
L 148.64688 386.316061 
L 148.39888 385.135107 
L 148.15088 388.635503 
L 147.89792 386.818924 
L 147.64992 383.963177 
L 147.40192 387.816692 
L 147.14896 389.228631 
L 146.65296 395.2306 
L 146.15696 400.274104 
L 145.66096 406.376964 
L 145.41296 406.477328 
L 145.16496 407.707673 
L 144.91696 411.339227 
L 144.66896 409.795065 
L 144.42592 411.428985 
L 143.92992 407.795849 
L 143.19088 404.707008 
L 142.94288 405.523699 
L 142.69984 405.583717 
L 142.45184 403.192069 
L 142.2088 402.192729 
L 141.96576 403.977986 
L 141.71776 401.243308 
L 141.47472 404.632735 
L 141.22672 404.652385 
L 140.98368 407.204415 
L 140.74064 408.404503 
L 140.4976 410.351186 
L 140.00656 415.374522 
L 139.52048 419.832877 
L 139.27744 421.729114 
L 139.0344 421.304855 
L 138.79136 422.958953 
L 138.54832 423.018971 
L 138.30528 424.753782 
L 138.06224 422.210808 
L 137.82416 423.168768 
L 137.58112 419.919556 
L 137.33808 419.959395 
L 137.09504 420.634849 
L 136.85696 417.526895 
L 136.61392 420.25044 
L 136.37088 418.423793 
L 136.1328 417.858296 
L 135.88976 418.342057 
L 135.65168 418.170036 
L 135.17056 418.118567 
L 134.68944 423.384063 
L 134.45136 423.403735 
L 134.21328 424.876239 
L 133.97024 425.279287 
L 133.49408 431.483081 
L 133.256 432.077833 
L 132.54176 435.698307 
L 132.0656 435.838542 
L 131.82752 435.525273 
L 131.58944 436.140203 
L 131.35136 433.213853 
L 131.11328 432.880406 
L 130.8752 431.820542 
L 130.63712 431.850304 
L 130.404 430.689559 
L 130.16592 431.243955 
L 129.92784 429.750259 
L 129.45664 431.262625 
L 129.22352 431.241951 
L 128.98544 431.796346 
L 128.28112 438.372952 
L 128.04304 439.895902 
L 127.5768 441.347744 
L 126.87248 446.148665 
L 126.63936 445.714338 
L 126.40624 444.93698 
L 126.16816 444.563176 
L 125.93504 443.785819 
L 125.70192 444.330135 
L 125.4688 442.775916 
L 125.23568 444.268609 
L 125.00256 440.76719 
L 124.54128 439.323466 
L 124.30816 439.88796 
L 124.07504 439.837019 
L 123.84192 439.402691 
L 123.6088 440.663335 
L 123.14752 444.788803 
L 122.9144 445.494545 
L 122.45312 449.115557 
L 122.22496 448.176784 
L 121.99184 450.809548 
L 121.76368 451.898687 
L 121.53056 451.262577 
L 121.3024 452.230647 
L 121.06928 450.323309 
L 120.84112 451.916904 
L 120.37984 449.000168 
L 120.15168 450.452516 
L 119.92352 449.32205 
L 119.69536 447.525702 
L 119.4672 448.937693 
L 119.23904 448.311683 
L 119.00592 449.602594 
L 118.77776 448.734445 
L 118.5496 450.287683 
L 118.32144 449.833188 
L 118.09328 451.648744 
L 117.87008 451.537289 
L 117.64192 452.182507 
L 117.41376 454.109043 
L 117.1856 454.209449 
L 116.95744 456.206609 
L 116.72928 456.569332 
L 116.50608 456.377164 
L 116.27792 458.747622 
L 116.04976 458.02072 
L 115.82656 460.229762 
L 115.5984 460.441148 
L 115.3752 459.764703 
L 114.92384 460.671763 
L 114.69568 460.247535 
L 114.47248 460.105813 
L 114.02112 457.97605 
L 113.79792 457.945308 
L 113.56976 456.25994 
L 113.34656 457.046417 
L 113.12336 455.81507 
L 112.90016 457.327963 
L 112.4488 457.407716 
L 111.7792 460.776057 
L 111.556 461.976187 
L 111.3328 461.945445 
L 110.6632 464.627726 
L 110.22176 465.262402 
L 109.99856 466.724849 
L 109.77536 467.11785 
L 109.55216 466.7239 
L 109.33392 467.036199 
L 109.11072 466.73305 
L 108.88752 466.772932 
L 108.66928 467.236568 
L 108.44608 465.682369 
L 108.00464 465.68143 
L 107.7864 465.075619 
L 107.5632 465.287016 
L 107.34496 464.085947 
L 107.12176 464.902691 
L 106.90352 463.852959 
L 106.46208 465.496546 
L 106.24384 464.981537 
L 106.0256 465.616688 
L 105.80736 465.414441 
L 105.58416 467.472146 
L 105.36592 467.532217 
L 104.92944 468.489755 
L 104.49296 471.243155 
L 104.27472 471.37385 
L 104.05648 472.432743 
L 103.83824 472.634061 
L 103.62 472.078696 
L 103.40176 472.845005 
L 102.97024 472.107582 
L 102.53376 471.57193 
L 102.31552 471.480664 
L 102.10224 471.268339 
L 101.884 471.964024 
L 101.66576 470.662064 
L 101.45248 470.490096 
L 101.02096 470.801941 
L 100.80272 470.76112 
L 100.58944 470.407547 
L 100.3712 471.738847 
L 100.15792 471.526522 
L 99.94464 471.768207 
L 99.7264 471.707208 
L 99.51312 472.927538 
L 99.29984 472.533609 
L 99.0816 473.320096 
L 98.86832 474.701851 
L 98.65504 475.054517 
L 98.44176 474.670677 
L 98.22848 475.598422 
L 98.01024 475.940988 
L 97.79696 475.355366 
L 97.58368 475.889635 
L 97.3704 477.231034 
L 97.15712 477.341561 
L 96.94384 477.290662 
L 96.73056 478.117516 
L 96.51728 477.188864 
L 96.30896 477.359936 
L 96.09568 476.744046 
L 95.8824 476.531721 
L 95.66912 476.864208 
L 95.24752 476.368945 
L 95.03424 476.065818 
L 94.82096 476.489108 
L 94.61264 476.226348 
L 94.39936 476.73035 
L 94.18608 476.68954 
L 93.97776 476.507493 
L 93.76448 477.374703 
L 93.34288 476.415341 
L 92.92624 477.83702 
L 92.50464 478.401114 
L 92.29632 479.21789 
L 92.08304 478.369951 
L 91.45808 480.507514 
L 91.03648 481.344014 
L 90.82816 480.395195 
L 89.99488 481.361978 
L 89.57824 480.705299 
L 89.36992 480.170133 
L 88.95328 480.613168 
L 88.74496 480.078002 
L 87.91664 480.681588 
L 87.71328 480.186789 
L 87.50496 480.811871 
L 87.29664 480.831606 
L 87.09328 481.44661 
L 86.6816 481.082526 
L 86.47328 482.070817 
L 86.26992 482.473949 
L 85.85824 482.28138 
L 85.2432 483.753084 
L 85.03488 484.10576 
L 84.83152 483.721941 
L 84.4248 484.114552 
L 84.21648 483.660098 
L 84.01312 484.07332 
L 83.80976 483.750036 
L 83.40304 483.75926 
L 83.19968 483.335084 
L 82.99632 483.92991 
L 82.79296 483.354398 
L 82.38624 483.878167 
L 82.18288 483.312744 
L 81.5728 483.947061 
L 81.3744 483.986996 
L 81.17104 483.835227 
L 80.96768 483.189091 
L 80.76432 484.348907 
L 80.56592 484.671337 
L 80.36256 483.904131 
L 80.1592 485.063947 
L 79.75744 484.447657 
L 79.35568 485.485982 
L 78.75056 485.454427 
L 78.55216 485.272401 
L 78.35376 485.927772 
L 78.1504 485.755825 
L 77.952 486.209413 
L 77.55024 486.037044 
L 77.15344 485.289606 
L 76.95504 485.753283 
L 76.75168 485.934455 
L 76.55328 485.358953 
L 76.35488 485.630937 
L 75.95808 485.771341 
L 75.75968 485.932345 
L 75.56128 485.790676 
L 75.36288 486.072749 
L 75.16448 486.092506 
L 74.76768 486.727276 
L 74.56928 486.605785 
L 74.37088 486.302689 
L 74.17744 486.958071 
L 73.97904 486.765956 
L 73.78064 487.098475 
L 73.3888 486.88577 
L 73.1904 487.309091 
L 72.992 487.016085 
L 72.79856 486.955139 
L 72.40176 487.277147 
L 72.20832 486.832814 
L 72.00992 487.054353 
L 72.00992 487.054353 
" clip-path="url(#pd653186b6c)" style="fill: none; stroke-dasharray: 3.7,1.6; stroke-dashoffset: 0; stroke: #1fa187"/>
   </g>
   <g id="line2d_15">
    <path d="M 72.00992 477.303181 
L 76.481723 475.660977 
L 80.953526 473.758378 
L 85.425328 471.564397 
L 89.002771 469.577476 
L 92.580213 467.365706 
L 96.157655 464.911146 
L 99.735097 462.195499 
L 103.31254 459.200265 
L 106.889982 455.906925 
L 110.467424 452.29714 
L 114.044866 448.352982 
L 117.622309 444.057177 
L 121.199751 439.393376 
L 124.777193 434.346438 
L 128.354635 428.902739 
L 131.932078 423.050474 
L 135.50952 416.779992 
L 139.086962 410.084112 
L 142.664404 402.958455 
L 146.241847 395.40176 
L 150.713649 385.353386 
L 155.185452 374.647618 
L 159.657255 363.306754 
L 164.129058 351.363601 
L 169.495221 336.299291 
L 174.861385 320.528675 
L 181.121908 301.399615 
L 189.171154 276.013541 
L 206.164004 222.130122 
L 211.530168 205.859271 
L 216.00197 192.860872 
L 220.473773 180.513889 
L 224.051215 171.193198 
L 227.628658 162.437918 
L 231.2061 154.310282 
L 233.889182 148.662016 
L 236.572263 143.423382 
L 239.255345 138.616308 
L 241.938427 134.261125 
L 244.621508 130.376422 
L 247.30459 126.978913 
L 249.093311 124.991926 
L 250.882032 123.231903 
L 252.670753 121.702264 
L 254.459474 120.40599 
L 256.248196 119.345614 
L 258.036917 118.523212 
L 259.825638 117.940399 
L 261.614359 117.598318 
L 263.40308 117.497642 
L 265.191801 117.63857 
L 266.980522 118.020823 
L 268.769243 118.643651 
L 270.557965 119.50583 
L 272.346686 120.60567 
L 274.135407 121.941017 
L 275.924128 123.509264 
L 277.712849 125.307355 
L 279.50157 127.331798 
L 282.184652 130.784191 
L 284.867734 134.722019 
L 287.550815 139.128351 
L 290.233897 143.984399 
L 292.916979 149.269649 
L 295.60006 154.962001 
L 299.177503 163.144228 
L 302.754945 171.949033 
L 306.332387 181.313934 
L 310.80419 193.708434 
L 315.275993 206.745541 
L 320.642156 223.05112 
L 327.79704 245.538174 
L 347.472973 307.850726 
L 353.733497 326.738222 
L 359.09966 342.247247 
L 364.465823 357.009316 
L 368.937626 368.676183 
L 373.409429 379.724108 
L 377.881232 390.125261 
L 382.353035 399.862029 
L 385.930477 407.16733 
L 389.507919 414.041931 
L 393.085361 420.488951 
L 396.662804 426.514442 
L 400.240246 432.127067 
L 403.817688 437.337771 
L 407.39513 442.159459 
L 410.972573 446.606679 
L 414.550015 450.695311 
L 418.127457 454.442277 
L 421.704899 457.865265 
L 425.282342 460.98247 
L 428.859784 463.812363 
L 432.437226 466.373476 
L 436.014668 468.684209 
L 439.592111 470.762669 
L 443.169553 472.626526 
L 447.641356 474.680561 
L 452.113158 476.457904 
L 456.584961 477.98866 
L 461.056764 479.30093 
L 466.422927 480.623709 
L 471.789091 481.710038 
L 478.049615 482.726918 
L 484.310139 483.521814 
L 491.465023 484.213268 
L 499.514268 484.777338 
L 509.352234 485.242618 
L 518.29584 485.516216 
L 518.29584 485.516216 
" clip-path="url(#pd653186b6c)" style="fill: none; stroke-dasharray: 3.7,1.6; stroke-dashoffset: 0; stroke: #46327e"/>
   </g>
   <g id="patch_3">
    <path d="M 72 506.4 
L 72 86.4 
" style="fill: none; stroke: #000000; stroke-width: 0.8; stroke-linejoin: miter; stroke-linecap: square"/>
   </g>
   <g id="patch_4">
    <path d="M 518.4 506.4 
L 518.4 86.4 
" style="fill: none; stroke: #000000; stroke-width: 0.8; stroke-linejoin: miter; stroke-linecap: square"/>
   </g>
   <g id="patch_5">
    <path d="M 72 506.4 
L 518.4 506.4 
" style="fill: none; stroke: #000000; stroke-width: 0.8; stroke-linejoin: miter; stroke-linecap: square"/>
   </g>
   <g id="patch_6">
    <path d="M 72 86.4 
L 518.4 86.4 
" style="fill: none; stroke: #000000; stroke-width: 0.8; stroke-linejoin: miter; stroke-linecap: square"/>
   </g>
   <g id="legend_1">
    <g id="patch_7">
     <path d="M 360.178125 123.75625 
L 511.4 123.75625 
Q 513.4 123.75625 513.4 121.75625 
L 513.4 93.4 
Q 513.4 91.4 511.4 91.4 
L 360.178125 91.4 
Q 358.178125 91.4 358.178125 93.4 
L 358.178125 121.75625 
Q 358.178125 123.75625 360.178125 123.75625 
z
" style="fill: #ffffff; opacity: 0.8; stroke: #cccccc; stroke-linejoin: miter"/>
    </g>
    <g id="line2d_16">
     <path d="M 362.178125 99.498437 
L 372.178125 99.498437 
L 382.178125 99.498437 
" style="fill: none; stroke-dasharray: 3.7,1.6; stroke-dashoffset: 0; stroke: #1fa187"/>
    </g>
    <g id="text_10">
     <!-- Baseline-corrected data -->
     <g transform="translate(390.178125 102.998437) scale(0.1 -0.1)">
      <defs>
       <path id="DejaVuSans-42" d="M 1259 2228 
L 1259 519 
L 2272 519 
Q 2781 519 3026 730 
Q 3272 941 3272 1375 
Q 3272 1813 3026 2020 
Q 2781 2228 2272 2228 
L 1259 2228 
z
M 1259 4147 
L 1259 2741 
L 2194 2741 
Q 2656 2741 2882 2914 
Q 3109 3088 3109 3444 
Q 3109 3797 2882 3972 
Q 2656 4147 2194 4147 
L 1259 4147 
z
M 628 4666 
L 2241 4666 
Q 2963 4666 3353 4366 
Q 3744 4066 3744 3513 
Q 3744 3084 3544 2831 
Q 3344 2578 2956 2516 
Q 3422 2416 3680 2098 
Q 3938 1781 3938 1306 
Q 3938 681 3513 340 
Q 3088 0 2303 0 
L 628 0 
L 628 4666 
z
" transform="scale(0.015625)"/>
       <path id="DejaVuSans-6c" d="M 603 4863 
L 1178 4863 
L 1178 0 
L 603 0 
L 603 4863 
z
" transform="scale(0.015625)"/>
       <path id="DejaVuSans-2d" d="M 313 2009 
L 1997 2009 
L 1997 1497 
L 313 1497 
L 313 2009 
z
" transform="scale(0.015625)"/>
       <path id="DejaVuSans-63" d="M 3122 3366 
L 3122 2828 
Q 2878 2963 2633 3030 
Q 2388 3097 2138 3097 
Q 1578 3097 1268 2742 
Q 959 2388 959 1747 
Q 959 1106 1268 751 
Q 1578 397 2138 397 
Q 2388 397 2633 464 
Q 2878 531 3122 666 
L 3122 134 
Q 2881 22 2623 -34 
Q 2366 -91 2075 -91 
Q 1284 -91 818 406 
Q 353 903 353 1747 
Q 353 2603 823 3093 
Q 1294 3584 2113 3584 
Q 2378 3584 2631 3529 
Q 2884 3475 3122 3366 
z
" transform="scale(0.015625)"/>
       <path id="DejaVuSans-6f" d="M 1959 3097 
Q 1497 3097 1228 2736 
Q 959 2375 959 1747 
Q 959 1119 1226 758 
Q 1494 397 1959 397 
Q 2419 397 2687 759 
Q 2956 1122 2956 1747 
Q 2956 2369 2687 2733 
Q 2419 3097 1959 3097 
z
M 1959 3584 
Q 2709 3584 3137 3096 
Q 3566 2609 3566 1747 
Q 3566 888 3137 398 
Q 2709 -91 1959 -91 
Q 1206 -91 779 398 
Q 353 888 353 1747 
Q 353 2609 779 3096 
Q 1206 3584 1959 3584 
z
" transform="scale(0.015625)"/>
       <path id="DejaVuSans-72" d="M 2631 2963 
Q 2534 3019 2420 3045 
Q 2306 3072 2169 3072 
Q 1681 3072 1420 2755 
Q 1159 2438 1159 1844 
L 1159 0 
L 581 0 
L 581 3500 
L 1159 3500 
L 1159 2956 
Q 1341 3275 1631 3429 
Q 1922 3584 2338 3584 
Q 2397 3584 2469 3576 
Q 2541 3569 2628 3553 
L 2631 2963 
z
" transform="scale(0.015625)"/>
       <path id="DejaVuSans-64" d="M 2906 2969 
L 2906 4863 
L 3481 4863 
L 3481 0 
L 2906 0 
L 2906 525 
Q 2725 213 2448 61 
Q 2172 -91 1784 -91 
Q 1150 -91 751 415 
Q 353 922 353 1747 
Q 353 2572 751 3078 
Q 1150 3584 1784 3584 
Q 2172 3584 2448 3432 
Q 2725 3281 2906 2969 
z
M 947 1747 
Q 947 1113 1208 752 
Q 1469 391 1925 391 
Q 2381 391 2643 752 
Q 2906 1113 2906 1747 
Q 2906 2381 2643 2742 
Q 2381 3103 1925 3103 
Q 1469 3103 1208 2742 
Q 947 2381 947 1747 
z
" transform="scale(0.015625)"/>
      </defs>
      <use xlink:href="#DejaVuSans-42"/>
      <use xlink:href="#DejaVuSans-61" transform="translate(68.603516 0)"/>
      <use xlink:href="#DejaVuSans-73" transform="translate(129.882812 0)"/>
      <use xlink:href="#DejaVuSans-65" transform="translate(181.982422 0)"/>
      <use xlink:href="#DejaVuSans-6c" transform="translate(243.505859 0)"/>
      <use xlink:href="#DejaVuSans-69" transform="translate(271.289062 0)"/>
      <use xlink:href="#DejaVuSans-6e" transform="translate(299.072266 0)"/>
      <use xlink:href="#DejaVuSans-65" transform="translate(362.451172 0)"/>
      <use xlink:href="#DejaVuSans-2d" transform="translate(423.974609 0)"/>
      <use xlink:href="#DejaVuSans-63" transform="translate(460.058594 0)"/>
      <use xlink:href="#DejaVuSans-6f" transform="translate(515.039062 0)"/>
      <use xlink:href="#DejaVuSans-72" transform="translate(576.220703 0)"/>
      <use xlink:href="#DejaVuSans-72" transform="translate(615.583984 0)"/>
      <use xlink:href="#DejaVuSans-65" transform="translate(654.447266 0)"/>
      <use xlink:href="#DejaVuSans-63" transform="translate(715.970703 0)"/>
      <use xlink:href="#DejaVuSans-74" transform="translate(770.951172 0)"/>
      <use xlink:href="#DejaVuSans-65" transform="translate(810.160156 0)"/>
      <use xlink:href="#DejaVuSans-64" transform="translate(871.683594 0)"/>
      <use xlink:href="#DejaVuSans-20" transform="translate(935.160156 0)"/>
      <use xlink:href="#DejaVuSans-64" transform="translate(966.947266 0)"/>
      <use xlink:href="#DejaVuSans-61" transform="translate(1030.423828 0)"/>
      <use xlink:href="#DejaVuSans-74" transform="translate(1091.703125 0)"/>
      <use xlink:href="#DejaVuSans-61" transform="translate(1130.912109 0)"/>
     </g>
    </g>
    <g id="line2d_17">
     <path d="M 362.178125 114.176562 
L 372.178125 114.176562 
L 382.178125 114.176562 
" style="fill: none; stroke-dasharray: 3.7,1.6; stroke-dashoffset: 0; stroke: #46327e"/>
    </g>
    <g id="text_11">
     <!-- Gaussian fit -->
     <g transform="translate(390.178125 117.676562) scale(0.1 -0.1)">
      <defs>
       <path id="DejaVuSans-47" d="M 3809 666 
L 3809 1919 
L 2778 1919 
L 2778 2438 
L 4434 2438 
L 4434 434 
Q 4069 175 3628 42 
Q 3188 -91 2688 -91 
Q 1594 -91 976 548 
Q 359 1188 359 2328 
Q 359 3472 976 4111 
Q 1594 4750 2688 4750 
Q 3144 4750 3555 4637 
Q 3966 4525 4313 4306 
L 4313 3634 
Q 3963 3931 3569 4081 
Q 3175 4231 2741 4231 
Q 1884 4231 1454 3753 
Q 1025 3275 1025 2328 
Q 1025 1384 1454 906 
Q 1884 428 2741 428 
Q 3075 428 3337 486 
Q 3600 544 3809 666 
z
" transform="scale(0.015625)"/>
       <path id="DejaVuSans-66" d="M 2375 4863 
L 2375 4384 
L 1825 4384 
Q 1516 4384 1395 4259 
Q 1275 4134 1275 3809 
L 1275 3500 
L 2222 3500 
L 2222 3053 
L 1275 3053 
L 1275 0 
L 697 0 
L 697 3053 
L 147 3053 
L 147 3500 
L 697 3500 
L 697 3744 
Q 697 4328 969 4595 
Q 1241 4863 1831 4863 
L 2375 4863 
z
" transform="scale(0.015625)"/>
      </defs>
      <use xlink:href="#DejaVuSans-47"/>
      <use xlink:href="#DejaVuSans-61" transform="translate(77.490234 0)"/>
      <use xlink:href="#DejaVuSans-75" transform="translate(138.769531 0)"/>
      <use xlink:href="#DejaVuSans-73" transform="translate(202.148438 0)"/>
      <use xlink:href="#DejaVuSans-73" transform="translate(254.248047 0)"/>
      <use xlink:href="#DejaVuSans-69" transform="translate(306.347656 0)"/>
      <use xlink:href="#DejaVuSans-61" transform="translate(334.130859 0)"/>
      <use xlink:href="#DejaVuSans-6e" transform="translate(395.410156 0)"/>
      <use xlink:href="#DejaVuSans-20" transform="translate(458.789062 0)"/>
      <use xlink:href="#DejaVuSans-66" transform="translate(490.576172 0)"/>
      <use xlink:href="#DejaVuSans-69" transform="translate(525.78125 0)"/>
      <use xlink:href="#DejaVuSans-74" transform="translate(553.564453 0)"/>
     </g>
    </g>
   </g>
  </g>
  <g id="axes_2">
   <g id="patch_8">
    <path d="M 72 640.8 
L 518.4 640.8 
L 518.4 556.8 
L 72 556.8 
z
" style="fill: #ffffff"/>
   </g>
   <g id="matplotlib.axis_3">
    <g id="xtick_6">
     <g id="line2d_18">
      <g>
       <use xlink:href="#m041ca83f72" x="72" y="640.8" style="stroke: #000000; stroke-width: 0.8"/>
      </g>
     </g>
     <g id="text_12">
      <!-- 1.2 -->
      <g transform="translate(64.048438 655.398437) scale(0.1 -0.1)">
       <use xlink:href="#DejaVuSans-31"/>
       <use xlink:href="#DejaVuSans-2e" transform="translate(63.623047 0)"/>
       <use xlink:href="#DejaVuSans-32" transform="translate(95.410156 0)"/>
      </g>
     </g>
    </g>
    <g id="xtick_7">
     <g id="line2d_19">
      <g>
       <use xlink:href="#m041ca83f72" x="171.2" y="640.8" style="stroke: #000000; stroke-width: 0.8"/>
      </g>
     </g>
     <g id="text_13">
      <!-- 1.4 -->
      <g transform="translate(163.248437 655.398437) scale(0.1 -0.1)">
       <defs>
        <path id="DejaVuSans-34" d="M 2419 4116 
L 825 1625 
L 2419 1625 
L 2419 4116 
z
M 2253 4666 
L 3047 4666 
L 3047 1625 
L 3713 1625 
L 3713 1100 
L 3047 1100 
L 3047 0 
L 2419 0 
L 2419 1100 
L 313 1100 
L 313 1709 
L 2253 4666 
z
" transform="scale(0.015625)"/>
       </defs>
       <use xlink:href="#DejaVuSans-31"/>
       <use xlink:href="#DejaVuSans-2e" transform="translate(63.623047 0)"/>
       <use xlink:href="#DejaVuSans-34" transform="translate(95.410156 0)"/>
      </g>
     </g>
    </g>
    <g id="xtick_8">
     <g id="line2d_20">
      <g>
       <use xlink:href="#m041ca83f72" x="270.4" y="640.8" style="stroke: #000000; stroke-width: 0.8"/>
      </g>
     </g>
     <g id="text_14">
      <!-- 1.6 -->
      <g transform="translate(262.448438 655.398437) scale(0.1 -0.1)">
       <defs>
        <path id="DejaVuSans-36" d="M 2113 2584 
Q 1688 2584 1439 2293 
Q 1191 2003 1191 1497 
Q 1191 994 1439 701 
Q 1688 409 2113 409 
Q 2538 409 2786 701 
Q 3034 994 3034 1497 
Q 3034 2003 2786 2293 
Q 2538 2584 2113 2584 
z
M 3366 4563 
L 3366 3988 
Q 3128 4100 2886 4159 
Q 2644 4219 2406 4219 
Q 1781 4219 1451 3797 
Q 1122 3375 1075 2522 
Q 1259 2794 1537 2939 
Q 1816 3084 2150 3084 
Q 2853 3084 3261 2657 
Q 3669 2231 3669 1497 
Q 3669 778 3244 343 
Q 2819 -91 2113 -91 
Q 1303 -91 875 529 
Q 447 1150 447 2328 
Q 447 3434 972 4092 
Q 1497 4750 2381 4750 
Q 2619 4750 2861 4703 
Q 3103 4656 3366 4563 
z
" transform="scale(0.015625)"/>
       </defs>
       <use xlink:href="#DejaVuSans-31"/>
       <use xlink:href="#DejaVuSans-2e" transform="translate(63.623047 0)"/>
       <use xlink:href="#DejaVuSans-36" transform="translate(95.410156 0)"/>
      </g>
     </g>
    </g>
    <g id="xtick_9">
     <g id="line2d_21">
      <g>
       <use xlink:href="#m041ca83f72" x="369.6" y="640.8" style="stroke: #000000; stroke-width: 0.8"/>
      </g>
     </g>
     <g id="text_15">
      <!-- 1.8 -->
      <g transform="translate(361.648438 655.398437) scale(0.1 -0.1)">
       <defs>
        <path id="DejaVuSans-38" d="M 2034 2216 
Q 1584 2216 1326 1975 
Q 1069 1734 1069 1313 
Q 1069 891 1326 650 
Q 1584 409 2034 409 
Q 2484 409 2743 651 
Q 3003 894 3003 1313 
Q 3003 1734 2745 1975 
Q 2488 2216 2034 2216 
z
M 1403 2484 
Q 997 2584 770 2862 
Q 544 3141 544 3541 
Q 544 4100 942 4425 
Q 1341 4750 2034 4750 
Q 2731 4750 3128 4425 
Q 3525 4100 3525 3541 
Q 3525 3141 3298 2862 
Q 3072 2584 2669 2484 
Q 3125 2378 3379 2068 
Q 3634 1759 3634 1313 
Q 3634 634 3220 271 
Q 2806 -91 2034 -91 
Q 1263 -91 848 271 
Q 434 634 434 1313 
Q 434 1759 690 2068 
Q 947 2378 1403 2484 
z
M 1172 3481 
Q 1172 3119 1398 2916 
Q 1625 2713 2034 2713 
Q 2441 2713 2670 2916 
Q 2900 3119 2900 3481 
Q 2900 3844 2670 4047 
Q 2441 4250 2034 4250 
Q 1625 4250 1398 4047 
Q 1172 3844 1172 3481 
z
" transform="scale(0.015625)"/>
       </defs>
       <use xlink:href="#DejaVuSans-31"/>
       <use xlink:href="#DejaVuSans-2e" transform="translate(63.623047 0)"/>
       <use xlink:href="#DejaVuSans-38" transform="translate(95.410156 0)"/>
      </g>
     </g>
    </g>
    <g id="xtick_10">
     <g id="line2d_22">
      <g>
       <use xlink:href="#m041ca83f72" x="468.8" y="640.8" style="stroke: #000000; stroke-width: 0.8"/>
      </g>
     </g>
     <g id="text_16">
      <!-- 2.0 -->
      <g transform="translate(460.848437 655.398437) scale(0.1 -0.1)">
       <use xlink:href="#DejaVuSans-32"/>
       <use xlink:href="#DejaVuSans-2e" transform="translate(63.623047 0)"/>
       <use xlink:href="#DejaVuSans-30" transform="translate(95.410156 0)"/>
      </g>
     </g>
    </g>
   </g>
   <g id="matplotlib.axis_4">
    <g id="ytick_9">
     <g id="line2d_23">
      <g>
       <use xlink:href="#m83f911bcf6" x="72" y="622.8" style="stroke: #000000; stroke-width: 0.8"/>
      </g>
     </g>
     <g id="text_17">
      <!-- −20 -->
      <g transform="translate(43.895313 626.599219) scale(0.1 -0.1)">
       <defs>
        <path id="DejaVuSans-2212" d="M 678 2272 
L 4684 2272 
L 4684 1741 
L 678 1741 
L 678 2272 
z
" transform="scale(0.015625)"/>
       </defs>
       <use xlink:href="#DejaVuSans-2212"/>
       <use xlink:href="#DejaVuSans-32" transform="translate(83.789062 0)"/>
       <use xlink:href="#DejaVuSans-30" transform="translate(147.412109 0)"/>
      </g>
     </g>
    </g>
    <g id="ytick_10">
     <g id="line2d_24">
      <g>
       <use xlink:href="#m83f911bcf6" x="72" y="598.8" style="stroke: #000000; stroke-width: 0.8"/>
      </g>
     </g>
     <g id="text_18">
      <!-- 0 -->
      <g transform="translate(58.6375 602.599219) scale(0.1 -0.1)">
       <use xlink:href="#DejaVuSans-30"/>
      </g>
     </g>
    </g>
    <g id="ytick_11">
     <g id="line2d_25">
      <g>
       <use xlink:href="#m83f911bcf6" x="72" y="574.8" style="stroke: #000000; stroke-width: 0.8"/>
      </g>
     </g>
     <g id="text_19">
      <!-- 20 -->
      <g transform="translate(52.275 578.599219) scale(0.1 -0.1)">
       <use xlink:href="#DejaVuSans-32"/>
       <use xlink:href="#DejaVuSans-30" transform="translate(63.623047 0)"/>
      </g>
     </g>
    </g>
    <g id="text_20">
     <!-- Residuals -->
     <g transform="translate(37.815625 622.520312) rotate(-90) scale(0.1 -0.1)">
      <defs>
       <path id="DejaVuSans-52" d="M 2841 2188 
Q 3044 2119 3236 1894 
Q 3428 1669 3622 1275 
L 4263 0 
L 3584 0 
L 2988 1197 
Q 2756 1666 2539 1819 
Q 2322 1972 1947 1972 
L 1259 1972 
L 1259 0 
L 628 0 
L 628 4666 
L 2053 4666 
Q 2853 4666 3247 4331 
Q 3641 3997 3641 3322 
Q 3641 2881 3436 2590 
Q 3231 2300 2841 2188 
z
M 1259 4147 
L 1259 2491 
L 2053 2491 
Q 2509 2491 2742 2702 
Q 2975 2913 2975 3322 
Q 2975 3731 2742 3939 
Q 2509 4147 2053 4147 
L 1259 4147 
z
" transform="scale(0.015625)"/>
      </defs>
      <use xlink:href="#DejaVuSans-52"/>
      <use xlink:href="#DejaVuSans-65" transform="translate(64.982422 0)"/>
      <use xlink:href="#DejaVuSans-73" transform="translate(126.505859 0)"/>
      <use xlink:href="#DejaVuSans-69" transform="translate(178.605469 0)"/>
      <use xlink:href="#DejaVuSans-64" transform="translate(206.388672 0)"/>
      <use xlink:href="#DejaVuSans-75" transform="translate(269.865234 0)"/>
      <use xlink:href="#DejaVuSans-61" transform="translate(333.244141 0)"/>
      <use xlink:href="#DejaVuSans-6c" transform="translate(394.523438 0)"/>
      <use xlink:href="#DejaVuSans-73" transform="translate(422.306641 0)"/>
     </g>
    </g>
   </g>
   <g id="line2d_26">
    <path d="M 518.29584 623.874964 
L 517.68576 615.232045 
L 517.07568 625.612035 
L 516.4656 623.759114 
L 515.85552 615.526662 
L 515.24544 620.557889 
L 514.63536 616.316358 
L 514.03024 621.189389 
L 513.42016 615.059605 
L 512.81504 620.269669 
L 512.20992 618.107727 
L 511.6048 613.350967 
L 510.39952 606.147988 
L 509.7944 614.385903 
L 509.19424 609.428113 
L 507.98896 616.189459 
L 507.3888 600.259923 
L 506.19344 612.070521 
L 505.59328 605.316997 
L 504.99808 604.536432 
L 504.40288 599.090186 
L 503.80768 605.624122 
L 503.21248 608.136628 
L 502.61728 604.552383 
L 502.02208 608.422957 
L 501.43184 604.261404 
L 500.83664 603.852841 
L 500.2464 604.913366 
L 499.65616 599.680397 
L 499.06592 604.584199 
L 498.47568 597.274492 
L 497.88544 604.202402 
L 497.30016 599.715936 
L 496.70992 599.159518 
L 496.12464 599.838241 
L 495.53936 600.906789 
L 494.95408 595.369601 
L 494.3688 600.271062 
L 493.78352 595.39167 
L 493.2032 598.008116 
L 492.61792 595.916535 
L 492.0376 598.660199 
L 491.45728 594.913381 
L 490.87696 600.029922 
L 490.29664 593.478213 
L 489.71632 596.326691 
L 489.136 597.223725 
L 488.56064 594.126438 
L 487.98528 593.126125 
L 487.40496 588.29499 
L 486.8296 594.902486 
L 486.25424 591.958584 
L 485.67888 587.994027 
L 485.10848 594.85177 
L 484.53312 593.368136 
L 483.96272 590.406004 
L 483.38736 590.99656 
L 482.81696 595.440205 
L 482.24656 590.986974 
L 481.67616 591.579841 
L 481.11072 585.876565 
L 480.54032 586.896764 
L 479.96992 586.998858 
L 479.40448 591.027378 
L 478.83904 591.84337 
L 478.2736 592.249157 
L 477.70816 588.813743 
L 477.14272 588.944806 
L 476.57728 588.245322 
L 476.01184 590.768992 
L 475.45136 587.687573 
L 474.89088 588.681974 
L 474.32544 587.209203 
L 473.76496 587.786309 
L 473.20448 587.942416 
L 472.64896 586.97388 
L 472.08848 589.509433 
L 471.528 586.897057 
L 470.97248 587.332334 
L 470.41696 586.355643 
L 469.85648 586.708927 
L 469.30096 586.674243 
L 468.74544 584.686851 
L 468.19488 586.533639 
L 467.63936 582.965848 
L 467.08384 583.874924 
L 466.53328 583.466048 
L 465.98272 582.771153 
L 465.43216 587.256633 
L 464.8816 582.126255 
L 464.33104 587.144903 
L 463.78048 587.235098 
L 463.22992 585.095747 
L 462.13376 578.897564 
L 461.58816 585.014016 
L 461.04256 581.223246 
L 460.49696 587.117739 
L 459.95136 583.232834 
L 459.40576 583.41512 
L 458.86016 582.983679 
L 458.31952 584.465444 
L 457.77392 582.751753 
L 456.69264 581.298262 
L 456.152 585.582155 
L 455.61136 581.344091 
L 455.07072 578.658187 
L 454.53008 581.733441 
L 453.9944 579.687825 
L 453.45376 581.155275 
L 452.91808 578.949596 
L 452.3824 580.808267 
L 451.84672 584.119911 
L 451.31104 581.534105 
L 450.77536 581.71798 
L 450.23968 576.715205 
L 449.17328 579.559323 
L 448.64256 579.257775 
L 448.11184 578.507069 
L 447.57616 577.294624 
L 447.04544 577.530232 
L 446.51472 576.828837 
L 445.98896 579.76101 
L 445.45824 580.285923 
L 444.93248 574.298375 
L 444.40176 578.236903 
L 443.876 579.598709 
L 443.35024 578.997097 
L 442.82448 576.423233 
L 441.77296 580.275206 
L 441.2472 578.921663 
L 440.72144 578.113542 
L 440.20064 578.10669 
L 439.67984 579.507368 
L 439.15408 578.516158 
L 438.63328 576.39474 
L 438.11248 575.501018 
L 437.59168 575.890771 
L 437.07584 577.577301 
L 436.55504 580.51642 
L 436.03424 575.358017 
L 435.5184 579.317578 
L 435.00256 575.051105 
L 434.48176 577.628906 
L 433.96592 578.878968 
L 433.45008 577.21298 
L 432.93424 577.074199 
L 432.42336 577.948775 
L 431.90752 578.429021 
L 431.39664 579.305877 
L 430.8808 581.305759 
L 430.36992 579.413839 
L 429.85904 580.381362 
L 429.34816 577.52683 
L 428.83728 578.369743 
L 428.3264 577.74165 
L 427.81552 579.88037 
L 427.30464 576.337326 
L 426.79872 576.393048 
L 426.28784 576.964236 
L 425.78192 578.13675 
L 425.276 578.12316 
L 424.77008 578.769656 
L 424.26416 575.580126 
L 423.75824 579.227666 
L 423.25232 576.628709 
L 422.75136 575.346663 
L 422.24544 576.978247 
L 421.74448 577.607897 
L 421.24352 576.730079 
L 420.7376 579.271673 
L 420.23664 576.247846 
L 419.73568 578.681307 
L 419.23472 578.774799 
L 418.73872 577.655356 
L 418.23776 575.569232 
L 417.74176 576.354698 
L 417.2408 579.058802 
L 416.7448 575.61234 
L 416.2488 576.816795 
L 415.74784 576.664612 
L 415.25184 578.259974 
L 414.7608 578.77383 
L 414.2648 577.83121 
L 413.7688 578.560552 
L 413.27776 575.957567 
L 412.29072 580.680784 
L 411.79968 579.67752 
L 411.30368 579.796291 
L 410.81264 578.78373 
L 410.3216 576.620238 
L 409.83552 580.549654 
L 409.34448 577.512779 
L 408.85344 576.654608 
L 408.36736 578.32119 
L 407.87632 579.421306 
L 407.39024 577.793155 
L 406.90416 578.641409 
L 406.41808 578.73674 
L 405.932 579.592032 
L 405.44592 579.280289 
L 404.95984 579.319552 
L 404.47872 579.07866 
L 403.99264 577.965994 
L 403.51152 579.03596 
L 403.02544 580.732031 
L 402.54432 579.977588 
L 402.0632 578.554818 
L 401.58208 581.398425 
L 401.10096 581.539223 
L 400.13872 580.719899 
L 399.66256 580.705991 
L 399.18144 582.303557 
L 398.70528 582.238802 
L 398.22416 578.559195 
L 397.748 577.988077 
L 397.27184 578.933441 
L 396.79568 580.833372 
L 395.84336 579.942124 
L 395.3672 579.92934 
L 394.896 579.151382 
L 394.41984 581.804724 
L 393.94864 581.047232 
L 393.47744 578.932966 
L 393.00128 580.842558 
L 392.53008 578.438125 
L 391.58768 580.394804 
L 391.11648 578.244207 
L 390.65024 578.453032 
L 390.17904 582.812593 
L 389.7128 578.723741 
L 389.2416 584.013301 
L 388.30912 581.406889 
L 387.84288 583.01465 
L 387.37664 581.267388 
L 386.9104 580.279426 
L 386.44416 581.923192 
L 385.97792 579.876295 
L 385.51168 580.699451 
L 385.0504 581.965219 
L 384.58416 583.854526 
L 384.12288 581.045335 
L 383.6616 583.702179 
L 383.20032 581.692669 
L 382.27776 585.010215 
L 381.81648 581.854996 
L 381.3552 582.157413 
L 380.89392 583.422694 
L 380.4376 584.008861 
L 379.97632 582.176128 
L 379.52 585.74264 
L 379.06368 581.476841 
L 378.60736 585.60969 
L 378.14608 581.805052 
L 377.68976 582.567951 
L 377.2384 584.52632 
L 376.78208 584.931086 
L 376.32576 584.106804 
L 375.86944 582.349443 
L 375.41808 584.587818 
L 374.96176 583.683604 
L 374.5104 585.422507 
L 374.05904 582.675365 
L 373.60768 584.218046 
L 373.15632 587.000338 
L 372.70496 586.583574 
L 372.2536 586.351701 
L 371.80224 584.372578 
L 371.35088 585.574441 
L 370.90448 585.41548 
L 370.45312 587.576568 
L 370.00672 585.487095 
L 369.56032 586.113916 
L 369.11392 588.648221 
L 368.66256 589.659149 
L 368.21616 585.2642 
L 367.76976 585.511579 
L 367.32832 587.947123 
L 366.88192 588.018365 
L 366.43552 588.550467 
L 365.99408 587.344056 
L 365.54768 587.253709 
L 365.10624 585.766956 
L 364.2184 585.524109 
L 363.77696 587.856108 
L 363.33552 589.249669 
L 362.89408 587.106665 
L 362.45264 588.471298 
L 362.01616 590.259994 
L 361.57472 589.363249 
L 361.13328 591.824204 
L 360.6968 592.967707 
L 360.26032 589.53016 
L 359.81888 591.012187 
L 359.3824 590.425648 
L 358.94592 592.910812 
L 358.50944 590.411831 
L 358.07296 593.821236 
L 357.63648 590.40747 
L 357.2 593.185672 
L 356.76848 589.562117 
L 355.90048 595.425596 
L 355.464 593.311051 
L 355.03248 590.28544 
L 354.60096 595.058992 
L 354.16944 592.893156 
L 353.73296 593.886163 
L 353.30144 595.964653 
L 352.87488 592.141389 
L 352.44336 591.716636 
L 352.01184 594.410802 
L 351.15376 592.577769 
L 350.7272 592.947693 
L 350.29568 591.665704 
L 349.86912 593.601283 
L 349.44256 593.017141 
L 349.016 594.646308 
L 348.58944 595.390831 
L 348.16288 594.751757 
L 347.73632 597.912795 
L 347.30976 594.208451 
L 346.8832 592.366857 
L 346.4616 593.893584 
L 346.03504 594.444255 
L 345.61344 594.330764 
L 345.19184 595.433793 
L 344.76528 595.238645 
L 344.34368 598.70081 
L 343.92208 597.934128 
L 343.50048 598.537203 
L 343.07888 599.55579 
L 342.66224 596.314339 
L 342.24064 598.858563 
L 341.81904 598.604542 
L 341.4024 596.133869 
L 340.9808 598.341214 
L 340.56416 596.496342 
L 340.14256 599.047676 
L 339.72592 599.138608 
L 339.30928 600.530728 
L 338.89264 599.684193 
L 338.476 599.565785 
L 337.64272 598.016755 
L 337.23104 600.072 
L 336.8144 600.446136 
L 336.39776 597.077092 
L 335.98608 601.423574 
L 335.5744 597.346292 
L 335.15776 598.176574 
L 334.74608 600.115263 
L 334.3344 595.852283 
L 333.92272 598.622162 
L 333.09936 599.654685 
L 332.68768 603.787811 
L 332.276 601.957554 
L 331.86928 601.43601 
L 331.4576 601.136895 
L 331.05088 598.228283 
L 330.6392 600.926725 
L 330.23248 599.646317 
L 329.82576 601.855435 
L 329.41408 600.9601 
L 329.00736 602.580149 
L 328.60064 602.354181 
L 328.19392 600.68687 
L 327.79216 601.129824 
L 327.38544 605.511884 
L 326.97872 603.24379 
L 326.57696 604.753282 
L 326.17024 602.497016 
L 325.76848 603.223609 
L 325.36176 602.036523 
L 324.96 603.299945 
L 324.55824 606.626242 
L 324.15648 601.999357 
L 323.74976 603.84394 
L 323.35296 601.030785 
L 322.9512 603.479617 
L 322.54944 600.711925 
L 322.14768 601.368614 
L 321.74592 603.397049 
L 321.34912 603.521645 
L 320.94736 603.937956 
L 320.55056 605.163859 
L 320.15376 607.145536 
L 319.752 607.64057 
L 319.3552 606.703764 
L 318.9584 606.91742 
L 318.5616 606.246558 
L 318.1648 608.588296 
L 317.768 604.987385 
L 317.3712 604.850866 
L 316.97936 605.458953 
L 316.58256 604.685058 
L 316.18576 604.897703 
L 315.79392 606.427212 
L 315.40208 604.526365 
L 314.61344 607.262748 
L 314.2216 606.324938 
L 313.43792 607.252555 
L 312.65424 603.379315 
L 312.2624 604.851147 
L 311.87056 601.345704 
L 311.48368 605.508769 
L 310.7 605.509847 
L 310.31312 608.196618 
L 309.92624 607.682752 
L 309.5344 607.856598 
L 309.14752 608.450575 
L 308.76064 608.256946 
L 308.37376 610.214053 
L 307.98688 608.035093 
L 307.6 607.186674 
L 307.21312 608.854087 
L 306.8312 605.028709 
L 306.44432 605.242691 
L 306.05744 608.217815 
L 305.67552 604.284634 
L 305.28864 607.43609 
L 304.90672 605.904581 
L 304.5248 608.327545 
L 304.13792 606.471873 
L 303.756 609.820553 
L 303.37408 610.195186 
L 302.99216 611.020717 
L 302.61024 612.261025 
L 302.22832 607.55447 
L 301.85136 609.403258 
L 301.46944 608.895492 
L 301.08752 607.364625 
L 300.71056 605.2794 
L 300.32864 604.362633 
L 299.95168 607.620728 
L 299.56976 605.780597 
L 299.1928 608.964887 
L 298.81584 607.37929 
L 298.43888 608.496395 
L 298.06192 609.225087 
L 297.68496 607.80543 
L 297.308 610.649545 
L 296.93104 608.357363 
L 296.55408 607.867545 
L 296.17712 610.786001 
L 295.80512 609.343096 
L 295.42816 604.224698 
L 295.05616 603.346033 
L 294.6792 604.301143 
L 294.3072 603.876566 
L 293.93024 599.870276 
L 293.55824 602.232567 
L 293.18624 601.317114 
L 292.81424 603.222354 
L 292.44224 603.937595 
L 292.07024 603.361987 
L 290.9592 609.501663 
L 290.5872 606.651359 
L 290.22016 607.008916 
L 289.84816 609.423937 
L 289.48112 606.912354 
L 289.10912 603.145736 
L 288.74208 605.211396 
L 288.37504 599.355651 
L 288.00304 601.066117 
L 287.636 601.564866 
L 287.26896 600.705661 
L 286.90192 604.947281 
L 286.53984 602.095098 
L 286.1728 605.246592 
L 285.80576 604.649229 
L 285.43872 608.99292 
L 285.07664 607.148778 
L 284.7096 606.927208 
L 284.34752 606.567312 
L 283.98048 606.971092 
L 283.6184 607.049871 
L 283.25632 604.053149 
L 282.88928 604.364507 
L 282.5272 602.547111 
L 281.80304 601.293564 
L 281.44096 601.426089 
L 281.07888 599.944527 
L 280.72176 603.021929 
L 280.35968 601.823251 
L 279.64048 607.061659 
L 279.2784 604.910591 
L 278.92128 606.650623 
L 278.5592 606.537312 
L 278.20208 606.1483 
L 277.84496 606.5413 
L 277.48288 602.801226 
L 277.12576 604.76962 
L 276.76864 601.273277 
L 276.41152 599.371135 
L 276.0544 599.02911 
L 275.69728 596.801927 
L 275.34512 600.818546 
L 274.63088 597.603965 
L 274.27872 597.712339 
L 273.21232 603.744345 
L 272.86016 603.316512 
L 272.508 604.264508 
L 272.15088 605.826121 
L 271.79872 604.782321 
L 271.44656 605.926167 
L 271.0944 604.922078 
L 270.74224 602.87387 
L 270.39008 601.759103 
L 270.04288 601.518779 
L 269.69072 597.92063 
L 269.33856 597.331763 
L 268.99136 597.377576 
L 268.6392 597.771138 
L 268.28704 600.340418 
L 267.93984 597.451832 
L 267.59264 599.517532 
L 267.24048 602.614772 
L 266.89328 601.582668 
L 266.54608 602.982854 
L 266.19888 607.046906 
L 265.85168 605.275559 
L 265.50448 606.136859 
L 265.15728 603.51948 
L 264.81008 605.317871 
L 264.46288 603.51858 
L 264.11568 600.194245 
L 263.77344 601.944194 
L 263.084 596.059121 
L 262.39456 595.426055 
L 262.04736 595.213946 
L 261.70512 596.007537 
L 261.36288 595.853645 
L 261.02064 597.704013 
L 260.6784 597.633391 
L 260.33616 602.262325 
L 259.99392 601.709977 
L 259.65168 604.463321 
L 259.30944 605.59693 
L 258.62496 603.832189 
L 258.28768 600.757692 
L 257.94544 599.845015 
L 257.6032 598.272451 
L 257.26592 598.701911 
L 256.92864 594.205934 
L 256.5864 593.263119 
L 256.24912 593.442795 
L 255.91184 593.824997 
L 255.5696 589.917541 
L 255.23232 590.137049 
L 254.89504 592.2544 
L 254.55776 595.647247 
L 254.22048 597.195679 
L 253.8832 597.560341 
L 253.55088 601.051741 
L 253.2136 602.190188 
L 252.87632 603.74728 
L 252.544 603.799569 
L 252.20672 600.463994 
L 251.86944 602.240649 
L 251.53712 597.256542 
L 251.2048 596.128589 
L 250.86752 593.384311 
L 250.5352 593.851801 
L 250.20288 591.128599 
L 249.87056 590.527144 
L 249.53328 591.508181 
L 249.20096 589.976463 
L 248.54128 593.036564 
L 248.20896 598.145654 
L 247.54432 600.231887 
L 247.212 603.009496 
L 246.55232 597.830711 
L 246.22496 598.370528 
L 245.89264 598.47505 
L 245.56528 595.484392 
L 245.23792 590.761723 
L 244.9056 589.422892 
L 244.57824 590.19777 
L 244.25088 588.551113 
L 243.92352 588.094551 
L 243.59616 588.20273 
L 243.2688 588.857555 
L 242.94144 591.785321 
L 242.61408 596.021687 
L 242.28672 597.285949 
L 241.95936 599.69144 
L 241.63696 600.235745 
L 241.3096 602.695896 
L 240.9872 602.442326 
L 240.65984 602.539986 
L 239.36528 592.553683 
L 239.03792 591.781111 
L 238.71552 586.333011 
L 238.39312 586.964036 
L 238.07072 590.562648 
L 237.74832 588.605981 
L 237.42592 589.695598 
L 237.10352 589.079121 
L 236.45872 594.553334 
L 236.14128 598.947271 
L 235.81888 597.576557 
L 235.49648 600.739055 
L 235.17904 599.032394 
L 234.85664 600.623663 
L 234.5392 598.670273 
L 234.22176 598.420619 
L 233.89936 594.504842 
L 233.58192 592.607512 
L 233.26448 591.853404 
L 232.94704 587.217467 
L 232.62464 585.150733 
L 232.3072 585.628667 
L 231.98976 587.542956 
L 231.67232 587.316336 
L 231.35984 588.085071 
L 231.0424 589.884184 
L 230.72496 589.867126 
L 230.40752 594.524792 
L 230.09504 593.901735 
L 229.7776 596.904131 
L 229.46016 597.765901 
L 229.14768 599.633342 
L 228.83024 599.499093 
L 228.51776 599.869747 
L 228.20528 601.909737 
L 227.88784 602.631307 
L 227.57536 601.509152 
L 227.26288 597.576497 
L 226.9504 595.431957 
L 226.01296 586.461548 
L 225.70048 587.156394 
L 225.388 584.579015 
L 225.07552 585.821797 
L 224.768 586.395657 
L 224.45552 587.345927 
L 223.83552 591.796172 
L 223.52304 591.801514 
L 223.21552 593.1692 
L 222.90304 595.429748 
L 222.28304 602.808575 
L 221.97552 600.664525 
L 221.668 603.623611 
L 221.36048 601.689621 
L 221.05296 600.545902 
L 220.1304 592.370531 
L 219.51536 587.823862 
L 219.20784 585.436755 
L 218.90032 587.193601 
L 218.59776 586.041569 
L 218.29024 585.890978 
L 217.98272 588.276171 
L 217.68016 587.798044 
L 217.37264 589.460607 
L 217.07008 594.86874 
L 216.76752 596.937343 
L 216.46 596.962861 
L 216.15744 599.732657 
L 215.85488 600.866939 
L 215.55232 604.055673 
L 215.24976 604.729267 
L 214.94224 603.390326 
L 214.63968 603.139619 
L 214.33712 602.183501 
L 214.03952 597.109555 
L 213.73696 595.389968 
L 213.4344 589.498889 
L 213.13184 590.64364 
L 212.53168 587.418226 
L 212.22912 587.884986 
L 211.93152 587.729725 
L 211.62896 587.935715 
L 211.33136 587.416075 
L 211.0288 589.590009 
L 210.7312 590.261296 
L 210.4336 594.106006 
L 210.13104 595.179018 
L 209.83344 594.949346 
L 209.53584 601.924256 
L 209.23824 599.324839 
L 208.94064 603.44939 
L 208.64304 605.530496 
L 208.34544 603.117779 
L 208.04784 603.719857 
L 207.75024 602.028596 
L 206.8624 590.361151 
L 206.2672 586.217352 
L 205.97456 586.436196 
L 205.67696 583.003962 
L 205.09168 586.705102 
L 204.79408 585.361371 
L 204.2088 589.549197 
L 203.32592 597.909304 
L 203.03328 599.034503 
L 202.74064 599.708414 
L 202.448 603.472594 
L 202.15536 603.243123 
L 201.86272 602.699767 
L 201.57008 601.077736 
L 201.2824 595.07279 
L 200.98976 594.218034 
L 200.69712 594.065317 
L 200.40944 589.726122 
L 200.1168 589.339663 
L 199.82416 583.927558 
L 199.53648 585.449439 
L 199.2488 583.142339 
L 198.95616 582.636949 
L 198.66848 584.373267 
L 198.3808 583.957796 
L 198.08816 586.220361 
L 197.80048 586.65828 
L 197.5128 589.753719 
L 197.22512 590.960881 
L 196.36208 599.647037 
L 196.0744 602.717693 
L 195.78672 603.778566 
L 195.21136 608.292606 
L 194.92864 607.29308 
L 194.35328 601.02072 
L 194.07056 598.636248 
L 193.78288 598.569243 
L 193.50016 593.197033 
L 192.92976 588.772945 
L 192.35936 584.133615 
L 192.07664 584.968727 
L 191.79392 584.608263 
L 191.5112 586.95197 
L 191.22352 587.96533 
L 190.9408 590.728402 
L 190.65808 591.636014 
L 190.09264 600.038766 
L 189.80992 601.014015 
L 189.53216 601.094133 
L 189.24944 605.725914 
L 188.96672 605.829195 
L 188.684 608.663469 
L 188.40624 605.87544 
L 188.12352 605.192776 
L 187.8408 602.759699 
L 187.56304 598.45157 
L 187.28032 597.082812 
L 187.00256 594.224732 
L 186.7248 592.643178 
L 186.44208 587.558519 
L 186.16432 586.731227 
L 185.88656 586.464016 
L 185.6088 585.075914 
L 185.04832 584.399352 
L 184.77056 589.456129 
L 184.4928 588.530725 
L 183.93728 590.916569 
L 183.65952 595.914956 
L 183.38176 595.808478 
L 182.8312 604.540078 
L 182.55344 603.227829 
L 182.27568 607.700788 
L 181.72512 607.782731 
L 181.45232 601.970741 
L 181.17456 599.107819 
L 180.90176 598.521531 
L 180.624 594.587874 
L 180.3512 592.766976 
L 180.0784 586.660273 
L 179.80064 586.361285 
L 179.52784 585.815323 
L 179.25504 586.439641 
L 178.98224 588.68524 
L 178.70944 586.541113 
L 178.43664 590.824154 
L 178.16384 590.005687 
L 177.89104 597.174622 
L 177.61824 598.98467 
L 177.34544 605.029662 
L 177.07264 606.539051 
L 176.79984 609.014755 
L 176.52704 608.826597 
L 176.2592 609.466486 
L 175.9864 607.861887 
L 175.7136 607.747901 
L 175.44576 607.909121 
L 175.17296 600.826656 
L 174.90512 598.951364 
L 174.63232 595.861874 
L 174.36448 595.54939 
L 174.09168 589.608104 
L 173.82384 590.274814 
L 173.556 589.580698 
L 173.28816 585.690493 
L 173.01536 587.228655 
L 172.47968 592.80387 
L 172.21184 593.747116 
L 171.67616 602.320536 
L 171.40832 603.889706 
L 171.14048 608.37801 
L 170.87264 608.291598 
L 170.6048 611.81314 
L 170.34192 610.921024 
L 170.07408 611.168736 
L 169.27552 601.892773 
L 168.47696 594.518251 
L 168.21408 593.616993 
L 167.68336 588.823656 
L 167.42048 588.298046 
L 167.1576 588.547544 
L 166.88976 590.735966 
L 166.62688 591.807304 
L 166.364 591.656977 
L 166.10112 594.155671 
L 165.31248 606.392273 
L 165.0496 607.306976 
L 164.78672 607.568024 
L 164.52384 611.267601 
L 164.26096 609.563004 
L 163.99808 609.640469 
L 163.74016 609.097571 
L 163.47728 605.97814 
L 163.2144 605.811423 
L 162.6936 598.231555 
L 162.1728 592.13613 
L 161.90992 591.854708 
L 161.652 589.456916 
L 161.39408 588.960926 
L 161.1312 591.364204 
L 160.87328 591.186448 
L 160.61536 589.878698 
L 160.35248 594.0932 
L 160.09456 592.682161 
L 159.3208 598.932788 
L 159.06288 600.66036 
L 158.80496 604.716809 
L 158.54704 606.52944 
L 158.28912 610.088049 
L 158.0312 611.066454 
L 157.77328 608.887856 
L 157.52032 612.614201 
L 157.2624 609.081267 
L 157.00448 608.912335 
L 156.74656 604.73608 
L 156.4936 606.137245 
L 156.23568 602.713456 
L 155.98272 596.976528 
L 155.7248 599.496313 
L 155.47184 595.908916 
L 155.21392 594.253661 
L 154.96096 591.803916 
L 154.70304 593.026343 
L 154.45008 593.327947 
L 154.19712 593.021489 
L 153.18032 596.484056 
L 152.92736 601.255378 
L 152.6744 601.768067 
L 151.91552 611.27866 
L 151.66256 610.44553 
L 151.4096 610.349039 
L 151.15664 614.378691 
L 150.90864 611.673423 
L 150.65568 615.326371 
L 150.40272 610.031551 
L 150.15472 609.631423 
L 149.90176 605.737326 
L 149.6488 599.742664 
L 149.4008 600.024226 
L 149.14784 597.212862 
L 148.89984 597.72689 
L 148.39888 592.067432 
L 148.15088 595.661168 
L 147.89792 592.72114 
L 147.64992 588.497539 
L 147.40192 592.557631 
L 147.14896 593.598819 
L 146.65296 599.70533 
L 146.40496 601.709002 
L 145.66096 611.085143 
L 145.41296 610.573571 
L 145.16496 611.498449 
L 144.91696 615.494154 
L 144.66896 612.89522 
L 144.42592 614.373724 
L 143.92992 608.43174 
L 143.19088 602.491168 
L 142.94288 602.900209 
L 142.69984 602.335872 
L 142.45184 598.534683 
L 142.2088 596.562206 
L 141.96576 598.26315 
L 141.71776 593.967604 
L 141.47472 597.811051 
L 141.22672 597.169577 
L 140.98368 599.930729 
L 140.74064 600.895861 
L 140.4976 602.875263 
L 140.2496 606.588013 
L 140.00656 608.397497 
L 139.76352 611.606196 
L 139.27744 615.234221 
L 139.0344 614.057948 
L 138.79136 615.73784 
L 138.54832 615.229842 
L 138.30528 617.041026 
L 138.06224 612.922805 
L 137.82416 613.672916 
L 137.58112 608.536634 
L 137.33808 607.983301 
L 137.09504 608.323402 
L 136.85696 603.341917 
L 136.61392 606.57418 
L 136.37088 603.36817 
L 136.1328 601.953936 
L 135.88976 602.020136 
L 135.40864 600.521019 
L 135.17056 599.847685 
L 134.68944 606.245924 
L 134.45136 605.680592 
L 134.21328 607.23671 
L 133.97024 607.225928 
L 133.49408 615.197629 
L 133.256 615.51625 
L 132.54176 619.243318 
L 132.0656 618.363978 
L 131.82752 617.345965 
L 131.58944 617.728404 
L 131.35136 612.741131 
L 131.11328 611.672567 
L 130.8752 609.490173 
L 130.63712 608.966312 
L 130.404 606.623413 
L 130.16592 606.901577 
L 129.92784 604.015067 
L 129.45664 605.214489 
L 129.22352 604.616374 
L 128.98544 604.906508 
L 128.28112 613.606542 
L 128.04304 615.479597 
L 127.5768 616.74526 
L 126.87248 622.918353 
L 126.16816 618.827588 
L 125.93504 617.047986 
L 125.70192 617.428119 
L 125.4688 614.358601 
L 125.23568 616.304267 
L 125.00256 609.989224 
L 124.54128 606.526829 
L 124.30816 606.92969 
L 124.07504 606.304565 
L 123.84192 605.032118 
L 123.6088 606.619185 
L 123.14752 612.574548 
L 122.9144 613.263757 
L 122.45312 618.47275 
L 122.22496 616.371624 
L 121.99184 620.428075 
L 121.76368 621.845024 
L 121.53056 620.258823 
L 121.3024 621.478437 
L 121.06928 617.656507 
L 120.84112 619.981528 
L 120.37984 613.864339 
L 120.15168 615.957185 
L 119.69536 609.759339 
L 119.4672 611.7951 
L 119.23904 610.176271 
L 119.00592 612.00314 
L 118.77776 609.940224 
L 118.5496 612.272317 
L 118.32144 610.956976 
L 118.09328 613.79438 
L 117.87008 613.121682 
L 117.64192 613.832282 
L 117.41376 616.921846 
L 117.1856 616.643902 
L 116.95744 619.90124 
L 116.72928 620.12743 
L 116.50608 619.326509 
L 116.27792 623.337232 
L 116.04976 621.527108 
L 115.82656 625.28176 
L 115.5984 625.25579 
L 115.3752 623.547136 
L 115.14704 623.887253 
L 114.92384 624.435526 
L 114.47248 622.496485 
L 114.02112 617.494309 
L 113.79792 616.997652 
L 113.56976 613.244537 
L 113.34656 614.343657 
L 113.12336 611.46731 
L 112.90016 614.012819 
L 112.4488 613.275174 
L 112.0024 617.048928 
L 111.556 620.74262 
L 111.3328 620.266703 
L 111.1096 621.90762 
L 110.8864 624.387767 
L 110.44 624.670929 
L 110.22176 625.055821 
L 109.99856 627.696432 
L 109.77536 628.132795 
L 109.55216 626.931456 
L 109.33392 627.212497 
L 109.11072 626.195353 
L 108.88752 625.897348 
L 108.66928 626.505486 
L 108.44608 622.824064 
L 108.00464 622.049 
L 107.7864 620.365525 
L 107.5632 620.424907 
L 107.34496 617.44147 
L 107.12176 618.809597 
L 106.90352 616.133847 
L 106.68528 618.116321 
L 106.46208 618.933627 
L 106.24384 617.414138 
L 106.0256 618.426856 
L 105.80736 617.592979 
L 105.58416 621.774278 
L 105.36592 621.536793 
L 104.92944 622.946703 
L 104.49296 628.452693 
L 104.27472 628.407287 
L 104.05648 630.480624 
L 103.83824 630.608451 
L 103.62 629.001575 
L 103.40176 630.431983 
L 102.752 626.955547 
L 102.10224 624.755359 
L 101.884 626.056054 
L 101.66576 622.630375 
L 101.45248 621.880075 
L 101.02096 621.934394 
L 100.80272 621.488003 
L 100.58944 620.293475 
L 100.3712 623.167854 
L 100.15792 622.318805 
L 99.94464 622.574086 
L 99.7264 622.084261 
L 99.51312 624.751136 
L 99.29984 623.456473 
L 99.0816 625.07026 
L 98.86832 628.184966 
L 98.65504 628.757503 
L 98.44176 627.492693 
L 98.22848 629.516038 
L 98.01024 630.073864 
L 97.79696 628.295915 
L 97.58368 629.351664 
L 97.3704 632.474733 
L 97.15712 632.473624 
L 96.94384 632.060156 
L 96.73056 633.907833 
L 96.51728 631.230588 
L 96.30896 631.397253 
L 96.09568 629.510447 
L 95.8824 628.667171 
L 95.66912 629.24962 
L 95.24752 627.373409 
L 95.03424 626.277561 
L 94.82096 627.110184 
L 94.61264 626.1243 
L 94.39936 627.183244 
L 94.18608 626.785383 
L 93.97776 626.011813 
L 93.76448 628.073573 
L 93.34288 624.896257 
L 92.92624 628.239955 
L 92.50464 629.257219 
L 92.29632 631.265569 
L 92.08304 628.635422 
L 91.45808 633.878183 
L 91.03648 635.768198 
L 90.82816 632.826181 
L 90.41152 634.021602 
L 90.2032 634.774522 
L 89.99488 634.657903 
L 89.57824 632.277832 
L 89.36992 630.4714 
L 88.95328 631.291351 
L 88.74496 629.466825 
L 87.91664 630.310162 
L 87.71328 628.585073 
L 87.50496 630.236114 
L 87.29664 630.060644 
L 87.09328 631.708268 
L 86.6816 630.138588 
L 86.47328 632.957369 
L 86.26992 633.991522 
L 85.85824 632.965718 
L 85.2432 636.971525 
L 85.03488 637.890506 
L 84.83152 636.480594 
L 84.4248 637.351837 
L 84.21648 635.697399 
L 84.01312 636.838073 
L 83.80976 635.602451 
L 83.40304 635.249544 
L 83.19968 633.668554 
L 82.99632 635.429259 
L 82.79296 633.340814 
L 82.38624 634.69328 
L 82.18288 632.617186 
L 81.97952 633.266341 
L 81.77616 634.499227 
L 81.5728 634.175763 
L 81.3744 634.12974 
L 81.17104 633.428187 
L 80.96768 631.034405 
L 80.76432 634.81615 
L 80.56592 635.750652 
L 80.36256 632.925334 
L 80.1592 636.762581 
L 79.75744 634.275585 
L 79.35568 637.582503 
L 79.15232 637.347744 
L 78.95392 637.36733 
L 78.75056 636.989478 
L 78.55216 636.181577 
L 78.35376 638.37361 
L 78.1504 637.600424 
L 77.952 639.088227 
L 77.55024 638.166113 
L 77.15344 635.128883 
L 76.95504 636.680732 
L 76.75168 637.197359 
L 76.55328 634.913688 
L 76.35488 635.772836 
L 76.15648 635.696396 
L 75.75968 636.459178 
L 75.56128 635.77816 
L 75.36288 636.703153 
L 75.16448 636.636427 
L 74.76768 638.793297 
L 74.56928 638.193458 
L 74.37088 636.887244 
L 74.17744 639.301362 
L 73.97904 638.42537 
L 73.78064 639.598961 
L 73.3888 638.516311 
L 73.1904 640.067873 
L 72.992 638.783773 
L 72.79856 638.420787 
L 72.40176 639.470431 
L 72.20832 637.561562 
L 72.00992 638.336038 
L 72.00992 638.336038 
" clip-path="url(#pd094359be7)" style="fill: none; stroke-dasharray: 3.7,1.6; stroke-dashoffset: 0; stroke: #808080"/>
   </g>
   <g id="line2d_27">
    <path d="M 72 598.8 
L 518.4 598.8 
" clip-path="url(#pd094359be7)" style="fill: none; stroke-dasharray: 5.55,2.4; stroke-dashoffset: 0; stroke: #000000; stroke-width: 1.5"/>
   </g>
   <g id="patch_9">
    <path d="M 72 640.8 
L 72 556.8 
" style="fill: none; stroke: #000000; stroke-width: 0.8; stroke-linejoin: miter; stroke-linecap: square"/>
   </g>
   <g id="patch_10">
    <path d="M 518.4 640.8 
L 518.4 556.8 
" style="fill: none; stroke: #000000; stroke-width: 0.8; stroke-linejoin: miter; stroke-linecap: square"/>
   </g>
   <g id="patch_11">
    <path d="M 72 640.8 
L 518.4 640.8 
" style="fill: none; stroke: #000000; stroke-width: 0.8; stroke-linejoin: miter; stroke-linecap: square"/>
   </g>
   <g id="patch_12">
    <path d="M 72 556.8 
L 518.4 556.8 
" style="fill: none; stroke: #000000; stroke-width: 0.8; stroke-linejoin: miter; stroke-linecap: square"/>
   </g>
  </g>
  <g id="text_21">
   <!-- Photon energy (eV) -->
   <g transform="translate(229.8825 710.304375) scale(0.12 -0.12)">
    <defs>
     <path id="DejaVuSans-50" d="M 1259 4147 
L 1259 2394 
L 2053 2394 
Q 2494 2394 2734 2622 
Q 2975 2850 2975 3272 
Q 2975 3691 2734 3919 
Q 2494 4147 2053 4147 
L 1259 4147 
z
M 628 4666 
L 2053 4666 
Q 2838 4666 3239 4311 
Q 3641 3956 3641 3272 
Q 3641 2581 3239 2228 
Q 2838 1875 2053 1875 
L 1259 1875 
L 1259 0 
L 628 0 
L 628 4666 
z
" transform="scale(0.015625)"/>
     <path id="DejaVuSans-68" d="M 3513 2113 
L 3513 0 
L 2938 0 
L 2938 2094 
Q 2938 2591 2744 2837 
Q 2550 3084 2163 3084 
Q 1697 3084 1428 2787 
Q 1159 2491 1159 1978 
L 1159 0 
L 581 0 
L 581 4863 
L 1159 4863 
L 1159 2956 
Q 1366 3272 1645 3428 
Q 1925 3584 2291 3584 
Q 2894 3584 3203 3211 
Q 3513 2838 3513 2113 
z
" transform="scale(0.015625)"/>
     <path id="DejaVuSans-67" d="M 2906 1791 
Q 2906 2416 2648 2759 
Q 2391 3103 1925 3103 
Q 1463 3103 1205 2759 
Q 947 2416 947 1791 
Q 947 1169 1205 825 
Q 1463 481 1925 481 
Q 2391 481 2648 825 
Q 2906 1169 2906 1791 
z
M 3481 434 
Q 3481 -459 3084 -895 
Q 2688 -1331 1869 -1331 
Q 1566 -1331 1297 -1286 
Q 1028 -1241 775 -1147 
L 775 -588 
Q 1028 -725 1275 -790 
Q 1522 -856 1778 -856 
Q 2344 -856 2625 -561 
Q 2906 -266 2906 331 
L 2906 616 
Q 2728 306 2450 153 
Q 2172 0 1784 0 
Q 1141 0 747 490 
Q 353 981 353 1791 
Q 353 2603 747 3093 
Q 1141 3584 1784 3584 
Q 2172 3584 2450 3431 
Q 2728 3278 2906 2969 
L 2906 3500 
L 3481 3500 
L 3481 434 
z
" transform="scale(0.015625)"/>
     <path id="DejaVuSans-56" d="M 1831 0 
L 50 4666 
L 709 4666 
L 2188 738 
L 3669 4666 
L 4325 4666 
L 2547 0 
L 1831 0 
z
" transform="scale(0.015625)"/>
    </defs>
    <use xlink:href="#DejaVuSans-50"/>
    <use xlink:href="#DejaVuSans-68" transform="translate(60.302734 0)"/>
    <use xlink:href="#DejaVuSans-6f" transform="translate(123.681641 0)"/>
    <use xlink:href="#DejaVuSans-74" transform="translate(184.863281 0)"/>
    <use xlink:href="#DejaVuSans-6f" transform="translate(224.072266 0)"/>
    <use xlink:href="#DejaVuSans-6e" transform="translate(285.253906 0)"/>
    <use xlink:href="#DejaVuSans-20" transform="translate(348.632812 0)"/>
    <use xlink:href="#DejaVuSans-65" transform="translate(380.419922 0)"/>
    <use xlink:href="#DejaVuSans-6e" transform="translate(441.943359 0)"/>
    <use xlink:href="#DejaVuSans-65" transform="translate(505.322266 0)"/>
    <use xlink:href="#DejaVuSans-72" transform="translate(566.845703 0)"/>
    <use xlink:href="#DejaVuSans-67" transform="translate(606.208984 0)"/>
    <use xlink:href="#DejaVuSans-79" transform="translate(669.685547 0)"/>
    <use xlink:href="#DejaVuSans-20" transform="translate(728.865234 0)"/>
    <use xlink:href="#DejaVuSans-28" transform="translate(760.652344 0)"/>
    <use xlink:href="#DejaVuSans-65" transform="translate(799.666016 0)"/>
    <use xlink:href="#DejaVuSans-56" transform="translate(861.189453 0)"/>
    <use xlink:href="#DejaVuSans-29" transform="translate(929.597656 0)"/>
   </g>
  </g>
  <g id="text_22">
   <!-- Excitation power 0.9 mW -->
   <g transform="translate(212.689687 23.518125) scale(0.12 -0.12)">
    <defs>
     <path id="DejaVuSans-45" d="M 628 4666 
L 3578 4666 
L 3578 4134 
L 1259 4134 
L 1259 2753 
L 3481 2753 
L 3481 2222 
L 1259 2222 
L 1259 531 
L 3634 531 
L 3634 0 
L 628 0 
L 628 4666 
z
" transform="scale(0.015625)"/>
     <path id="DejaVuSans-78" d="M 3513 3500 
L 2247 1797 
L 3578 0 
L 2900 0 
L 1881 1375 
L 863 0 
L 184 0 
L 1544 1831 
L 300 3500 
L 978 3500 
L 1906 2253 
L 2834 3500 
L 3513 3500 
z
" transform="scale(0.015625)"/>
     <path id="DejaVuSans-70" d="M 1159 525 
L 1159 -1331 
L 581 -1331 
L 581 3500 
L 1159 3500 
L 1159 2969 
Q 1341 3281 1617 3432 
Q 1894 3584 2278 3584 
Q 2916 3584 3314 3078 
Q 3713 2572 3713 1747 
Q 3713 922 3314 415 
Q 2916 -91 2278 -91 
Q 1894 -91 1617 61 
Q 1341 213 1159 525 
z
M 3116 1747 
Q 3116 2381 2855 2742 
Q 2594 3103 2138 3103 
Q 1681 3103 1420 2742 
Q 1159 2381 1159 1747 
Q 1159 1113 1420 752 
Q 1681 391 2138 391 
Q 2594 391 2855 752 
Q 3116 1113 3116 1747 
z
" transform="scale(0.015625)"/>
     <path id="DejaVuSans-77" d="M 269 3500 
L 844 3500 
L 1563 769 
L 2278 3500 
L 2956 3500 
L 3675 769 
L 4391 3500 
L 4966 3500 
L 4050 0 
L 3372 0 
L 2619 2869 
L 1863 0 
L 1184 0 
L 269 3500 
z
" transform="scale(0.015625)"/>
     <path id="DejaVuSans-39" d="M 703 97 
L 703 672 
Q 941 559 1184 500 
Q 1428 441 1663 441 
Q 2288 441 2617 861 
Q 2947 1281 2994 2138 
Q 2813 1869 2534 1725 
Q 2256 1581 1919 1581 
Q 1219 1581 811 2004 
Q 403 2428 403 3163 
Q 403 3881 828 4315 
Q 1253 4750 1959 4750 
Q 2769 4750 3195 4129 
Q 3622 3509 3622 2328 
Q 3622 1225 3098 567 
Q 2575 -91 1691 -91 
Q 1453 -91 1209 -44 
Q 966 3 703 97 
z
M 1959 2075 
Q 2384 2075 2632 2365 
Q 2881 2656 2881 3163 
Q 2881 3666 2632 3958 
Q 2384 4250 1959 4250 
Q 1534 4250 1286 3958 
Q 1038 3666 1038 3163 
Q 1038 2656 1286 2365 
Q 1534 2075 1959 2075 
z
" transform="scale(0.015625)"/>
     <path id="DejaVuSans-6d" d="M 3328 2828 
Q 3544 3216 3844 3400 
Q 4144 3584 4550 3584 
Q 5097 3584 5394 3201 
Q 5691 2819 5691 2113 
L 5691 0 
L 5113 0 
L 5113 2094 
Q 5113 2597 4934 2840 
Q 4756 3084 4391 3084 
Q 3944 3084 3684 2787 
Q 3425 2491 3425 1978 
L 3425 0 
L 2847 0 
L 2847 2094 
Q 2847 2600 2669 2842 
Q 2491 3084 2119 3084 
Q 1678 3084 1418 2786 
Q 1159 2488 1159 1978 
L 1159 0 
L 581 0 
L 581 3500 
L 1159 3500 
L 1159 2956 
Q 1356 3278 1631 3431 
Q 1906 3584 2284 3584 
Q 2666 3584 2933 3390 
Q 3200 3197 3328 2828 
z
" transform="scale(0.015625)"/>
     <path id="DejaVuSans-57" d="M 213 4666 
L 850 4666 
L 1831 722 
L 2809 4666 
L 3519 4666 
L 4500 722 
L 5478 4666 
L 6119 4666 
L 4947 0 
L 4153 0 
L 3169 4050 
L 2175 0 
L 1381 0 
L 213 4666 
z
" transform="scale(0.015625)"/>
    </defs>
    <use xlink:href="#DejaVuSans-45"/>
    <use xlink:href="#DejaVuSans-78" transform="translate(63.183594 0)"/>
    <use xlink:href="#DejaVuSans-63" transform="translate(120.613281 0)"/>
    <use xlink:href="#DejaVuSans-69" transform="translate(175.59375 0)"/>
    <use xlink:href="#DejaVuSans-74" transform="translate(203.376953 0)"/>
    <use xlink:href="#DejaVuSans-61" transform="translate(242.585938 0)"/>
    <use xlink:href="#DejaVuSans-74" transform="translate(303.865234 0)"/>
    <use xlink:href="#DejaVuSans-69" transform="translate(343.074219 0)"/>
    <use xlink:href="#DejaVuSans-6f" transform="translate(370.857422 0)"/>
    <use xlink:href="#DejaVuSans-6e" transform="translate(432.039062 0)"/>
    <use xlink:href="#DejaVuSans-20" transform="translate(495.417969 0)"/>
    <use xlink:href="#DejaVuSans-70" transform="translate(527.205078 0)"/>
    <use xlink:href="#DejaVuSans-6f" transform="translate(590.681641 0)"/>
    <use xlink:href="#DejaVuSans-77" transform="translate(651.863281 0)"/>
    <use xlink:href="#DejaVuSans-65" transform="translate(733.650391 0)"/>
    <use xlink:href="#DejaVuSans-72" transform="translate(795.173828 0)"/>
    <use xlink:href="#DejaVuSans-20" transform="translate(836.287109 0)"/>
    <use xlink:href="#DejaVuSans-30" transform="translate(868.074219 0)"/>
    <use xlink:href="#DejaVuSans-2e" transform="translate(931.697266 0)"/>
    <use xlink:href="#DejaVuSans-39" transform="translate(963.484375 0)"/>
    <use xlink:href="#DejaVuSans-20" transform="translate(1027.107422 0)"/>
    <use xlink:href="#DejaVuSans-6d" transform="translate(1058.894531 0)"/>
    <use xlink:href="#DejaVuSans-57" transform="translate(1156.306641 0)"/>
   </g>
  </g>
 </g>
 <defs>
  <clipPath id="pd653186b6c">
   <rect x="72" y="86.4" width="446.4" height="420"/>
  </clipPath>
  <clipPath id="pd094359be7">
   <rect x="72" y="556.8" width="446.4" height="84"/>
  </clipPath>
 </defs>
</svg>
