<?xml version="1.0" encoding="utf-8" standalone="no"?>
<!DOCTYPE svg PUBLIC "-//W3C//DTD SVG 1.1//EN"
  "http://www.w3.org/Graphics/SVG/1.1/DTD/svg11.dtd">
<svg xmlns:xlink="http://www.w3.org/1999/xlink" width="576pt" height="720pt" viewBox="0 0 576 720" xmlns="http://www.w3.org/2000/svg" version="1.1">
 <metadata>
  <rdf:RDF xmlns:dc="http://purl.org/dc/elements/1.1/" xmlns:cc="http://creativecommons.org/ns#" xmlns:rdf="http://www.w3.org/1999/02/22-rdf-syntax-ns#">
   <cc:Work>
    <dc:type rdf:resource="http://purl.org/dc/dcmitype/StillImage"/>
    <dc:date>2026-06-10T15:01:56.453554</dc:date>
    <dc:format>image/svg+xml</dc:format>
    <dc:creator>
     <cc:Agent>
      <dc:title>Matplotlib v3.10.0, https://matplotlib.org/</dc:title>
     </cc:Agent>
    </dc:creator>
   </cc:Work>
  </rdf:RDF>
 </metadata>
 <defs>
  <style type="text/css">*{stroke-linejoin: round; stroke-linecap: butt}</style>
 </defs>
 <g id="figure_1">
  <g id="patch_1">
   <path d="M 0 720 
L 576 720 
L 576 0 
L 0 0 
z
" style="fill: #ffffff"/>
  </g>
  <g id="axes_1">
   <g id="patch_2">
    <path d="M 72 506.4 
L 518.4 506.4 
L 518.4 86.4 
L 72 86.4 
z
" style="fill: #ffffff"/>
   </g>
   <g id="matplotlib.axis_1">
    <g id="xtick_1">
     <g id="line2d_1">
      <defs>
       <path id="m350e839f5e" d="M 0 0 
L 0 3.5 
" style="stroke: #000000; stroke-width: 0.8"/>
      </defs>
      <g>
       <use xlink:href="#m350e839f5e" x="72" y="506.4" style="stroke: #000000; stroke-width: 0.8"/>
      </g>
     </g>
    </g>
    <g id="xtick_2">
     <g id="line2d_2">
      <g>
       <use xlink:href="#m350e839f5e" x="171.2" y="506.4" style="stroke: #000000; stroke-width: 0.8"/>
      </g>
     </g>
    </g>
    <g id="xtick_3">
     <g id="line2d_3">
      <g>
       <use xlink:href="#m350e839f5e" x="270.4" y="506.4" style="stroke: #000000; stroke-width: 0.8"/>
      </g>
     </g>
    </g>
    <g id="xtick_4">
     <g id="line2d_4">
      <g>
       <use xlink:href="#m350e839f5e" x="369.6" y="506.4" style="stroke: #000000; stroke-width: 0.8"/>
      </g>
     </g>
    </g>
    <g id="xtick_5">
     <g id="line2d_5">
      <g>
       <use xlink:href="#m350e839f5e" x="468.8" y="506.4" style="stroke: #000000; stroke-width: 0.8"/>
      </g>
     </g>
    </g>
   </g>
   <g id="matplotlib.axis_2">
    <g id="ytick_1">
     <g id="line2d_6">
      <defs>
       <path id="ma9bd6574d0" d="M 0 0 
L -3.5 0 
" style="stroke: #000000; stroke-width: 0.8"/>
      </defs>
      <g>
       <use xlink:href="#ma9bd6574d0" x="72" y="485.926512" style="stroke: #000000; stroke-width: 0.8"/>
      </g>
     </g>
     <g id="text_1">
      <!-- 0 -->
      <g transform="translate(58.6375 489.725731) scale(0.1 -0.1)">
       <defs>
        <path id="DejaVuSans-30" d="M 2034 4250 
Q 1547 4250 1301 3770 
Q 1056 3291 1056 2328 
Q 1056 1369 1301 889 
Q 1547 409 2034 409 
Q 2525 409 2770 889 
Q 3016 1369 3016 2328 
Q 3016 3291 2770 3770 
Q 2525 4250 2034 4250 
z
M 2034 4750 
Q 2819 4750 3233 4129 
Q 3647 3509 3647 2328 
Q 3647 1150 3233 529 
Q 2819 -91 2034 -91 
Q 1250 -91 836 529 
Q 422 1150 422 2328 
Q 422 3509 836 4129 
Q 1250 4750 2034 4750 
z
" transform="scale(0.015625)"/>
       </defs>
       <use xlink:href="#DejaVuSans-30"/>
      </g>
     </g>
    </g>
    <g id="ytick_2">
     <g id="line2d_7">
      <g>
       <use xlink:href="#ma9bd6574d0" x="72" y="394.874569" style="stroke: #000000; stroke-width: 0.8"/>
      </g>
     </g>
     <g id="text_2">
      <!-- 10000 -->
      <g transform="translate(33.1875 398.673788) scale(0.1 -0.1)">
       <defs>
        <path id="DejaVuSans-31" d="M 794 531 
L 1825 531 
L 1825 4091 
L 703 3866 
L 703 4441 
L 1819 4666 
L 2450 4666 
L 2450 531 
L 3481 531 
L 3481 0 
L 794 0 
L 794 531 
z
" transform="scale(0.015625)"/>
       </defs>
       <use xlink:href="#DejaVuSans-31"/>
       <use xlink:href="#DejaVuSans-30" transform="translate(63.623047 0)"/>
       <use xlink:href="#DejaVuSans-30" transform="translate(127.246094 0)"/>
       <use xlink:href="#DejaVuSans-30" transform="translate(190.869141 0)"/>
       <use xlink:href="#DejaVuSans-30" transform="translate(254.492188 0)"/>
      </g>
     </g>
    </g>
    <g id="ytick_3">
     <g id="line2d_8">
      <g>
       <use xlink:href="#ma9bd6574d0" x="72" y="303.822626" style="stroke: #000000; stroke-width: 0.8"/>
      </g>
     </g>
     <g id="text_3">
      <!-- 20000 -->
      <g transform="translate(33.1875 307.621845) scale(0.1 -0.1)">
       <defs>
        <path id="DejaVuSans-32" d="M 1228 531 
L 3431 531 
L 3431 0 
L 469 0 
L 469 531 
Q 828 903 1448 1529 
Q 2069 2156 2228 2338 
Q 2531 2678 2651 2914 
Q 2772 3150 2772 3378 
Q 2772 3750 2511 3984 
Q 2250 4219 1831 4219 
Q 1534 4219 1204 4116 
Q 875 4013 500 3803 
L 500 4441 
Q 881 4594 1212 4672 
Q 1544 4750 1819 4750 
Q 2544 4750 2975 4387 
Q 3406 4025 3406 3419 
Q 3406 3131 3298 2873 
Q 3191 2616 2906 2266 
Q 2828 2175 2409 1742 
Q 1991 1309 1228 531 
z
" transform="scale(0.015625)"/>
       </defs>
       <use xlink:href="#DejaVuSans-32"/>
       <use xlink:href="#DejaVuSans-30" transform="translate(63.623047 0)"/>
       <use xlink:href="#DejaVuSans-30" transform="translate(127.246094 0)"/>
       <use xlink:href="#DejaVuSans-30" transform="translate(190.869141 0)"/>
       <use xlink:href="#DejaVuSans-30" transform="translate(254.492188 0)"/>
      </g>
     </g>
    </g>
    <g id="ytick_4">
     <g id="line2d_9">
      <g>
       <use xlink:href="#ma9bd6574d0" x="72" y="212.770683" style="stroke: #000000; stroke-width: 0.8"/>
      </g>
     </g>
     <g id="text_4">
      <!-- 30000 -->
      <g transform="translate(33.1875 216.569902) scale(0.1 -0.1)">
       <defs>
        <path id="DejaVuSans-33" d="M 2597 2516 
Q 3050 2419 3304 2112 
Q 3559 1806 3559 1356 
Q 3559 666 3084 287 
Q 2609 -91 1734 -91 
Q 1441 -91 1130 -33 
Q 819 25 488 141 
L 488 750 
Q 750 597 1062 519 
Q 1375 441 1716 441 
Q 2309 441 2620 675 
Q 2931 909 2931 1356 
Q 2931 1769 2642 2001 
Q 2353 2234 1838 2234 
L 1294 2234 
L 1294 2753 
L 1863 2753 
Q 2328 2753 2575 2939 
Q 2822 3125 2822 3475 
Q 2822 3834 2567 4026 
Q 2313 4219 1838 4219 
Q 1578 4219 1281 4162 
Q 984 4106 628 3988 
L 628 4550 
Q 988 4650 1302 4700 
Q 1616 4750 1894 4750 
Q 2613 4750 3031 4423 
Q 3450 4097 3450 3541 
Q 3450 3153 3228 2886 
Q 3006 2619 2597 2516 
z
" transform="scale(0.015625)"/>
       </defs>
       <use xlink:href="#DejaVuSans-33"/>
       <use xlink:href="#DejaVuSans-30" transform="translate(63.623047 0)"/>
       <use xlink:href="#DejaVuSans-30" transform="translate(127.246094 0)"/>
       <use xlink:href="#DejaVuSans-30" transform="translate(190.869141 0)"/>
       <use xlink:href="#DejaVuSans-30" transform="translate(254.492188 0)"/>
      </g>
     </g>
    </g>
    <g id="ytick_5">
     <g id="line2d_10">
      <g>
       <use xlink:href="#ma9bd6574d0" x="72" y="121.71874" style="stroke: #000000; stroke-width: 0.8"/>
      </g>
     </g>
     <g id="text_5">
      <!-- 40000 -->
      <g transform="translate(33.1875 125.517959) scale(0.1 -0.1)">
       <defs>
        <path id="DejaVuSans-34" d="M 2419 4116 
L 825 1625 
L 2419 1625 
L 2419 4116 
z
M 2253 4666 
L 3047 4666 
L 3047 1625 
L 3713 1625 
L 3713 1100 
L 3047 1100 
L 3047 0 
L 2419 0 
L 2419 1100 
L 313 1100 
L 313 1709 
L 2253 4666 
z
" transform="scale(0.015625)"/>
       </defs>
       <use xlink:href="#DejaVuSans-34"/>
       <use xlink:href="#DejaVuSans-30" transform="translate(63.623047 0)"/>
       <use xlink:href="#DejaVuSans-30" transform="translate(127.246094 0)"/>
       <use xlink:href="#DejaVuSans-30" transform="translate(190.869141 0)"/>
       <use xlink:href="#DejaVuSans-30" transform="translate(254.492188 0)"/>
      </g>
     </g>
    </g>
    <g id="text_6">
     <!-- Intensitiy (a.u.) -->
     <g transform="translate(27.107812 334.453125) rotate(-90) scale(0.1 -0.1)">
      <defs>
       <path id="DejaVuSans-49" d="M 628 4666 
L 1259 4666 
L 1259 0 
L 628 0 
L 628 4666 
z
" transform="scale(0.015625)"/>
       <path id="DejaVuSans-6e" d="M 3513 2113 
L 3513 0 
L 2938 0 
L 2938 2094 
Q 2938 2591 2744 2837 
Q 2550 3084 2163 3084 
Q 1697 3084 1428 2787 
Q 1159 2491 1159 1978 
L 1159 0 
L 581 0 
L 581 3500 
L 1159 3500 
L 1159 2956 
Q 1366 3272 1645 3428 
Q 1925 3584 2291 3584 
Q 2894 3584 3203 3211 
Q 3513 2838 3513 2113 
z
" transform="scale(0.015625)"/>
       <path id="DejaVuSans-74" d="M 1172 4494 
L 1172 3500 
L 2356 3500 
L 2356 3053 
L 1172 3053 
L 1172 1153 
Q 1172 725 1289 603 
Q 1406 481 1766 481 
L 2356 481 
L 2356 0 
L 1766 0 
Q 1100 0 847 248 
Q 594 497 594 1153 
L 594 3053 
L 172 3053 
L 172 3500 
L 594 3500 
L 594 4494 
L 1172 4494 
z
" transform="scale(0.015625)"/>
       <path id="DejaVuSans-65" d="M 3597 1894 
L 3597 1613 
L 953 1613 
Q 991 1019 1311 708 
Q 1631 397 2203 397 
Q 2534 397 2845 478 
Q 3156 559 3463 722 
L 3463 178 
Q 3153 47 2828 -22 
Q 2503 -91 2169 -91 
Q 1331 -91 842 396 
Q 353 884 353 1716 
Q 353 2575 817 3079 
Q 1281 3584 2069 3584 
Q 2775 3584 3186 3129 
Q 3597 2675 3597 1894 
z
M 3022 2063 
Q 3016 2534 2758 2815 
Q 2500 3097 2075 3097 
Q 1594 3097 1305 2825 
Q 1016 2553 972 2059 
L 3022 2063 
z
" transform="scale(0.015625)"/>
       <path id="DejaVuSans-73" d="M 2834 3397 
L 2834 2853 
Q 2591 2978 2328 3040 
Q 2066 3103 1784 3103 
Q 1356 3103 1142 2972 
Q 928 2841 928 2578 
Q 928 2378 1081 2264 
Q 1234 2150 1697 2047 
L 1894 2003 
Q 2506 1872 2764 1633 
Q 3022 1394 3022 966 
Q 3022 478 2636 193 
Q 2250 -91 1575 -91 
Q 1294 -91 989 -36 
Q 684 19 347 128 
L 347 722 
Q 666 556 975 473 
Q 1284 391 1588 391 
Q 1994 391 2212 530 
Q 2431 669 2431 922 
Q 2431 1156 2273 1281 
Q 2116 1406 1581 1522 
L 1381 1569 
Q 847 1681 609 1914 
Q 372 2147 372 2553 
Q 372 3047 722 3315 
Q 1072 3584 1716 3584 
Q 2034 3584 2315 3537 
Q 2597 3491 2834 3397 
z
" transform="scale(0.015625)"/>
       <path id="DejaVuSans-69" d="M 603 3500 
L 1178 3500 
L 1178 0 
L 603 0 
L 603 3500 
z
M 603 4863 
L 1178 4863 
L 1178 4134 
L 603 4134 
L 603 4863 
z
" transform="scale(0.015625)"/>
       <path id="DejaVuSans-79" d="M 2059 -325 
Q 1816 -950 1584 -1140 
Q 1353 -1331 966 -1331 
L 506 -1331 
L 506 -850 
L 844 -850 
Q 1081 -850 1212 -737 
Q 1344 -625 1503 -206 
L 1606 56 
L 191 3500 
L 800 3500 
L 1894 763 
L 2988 3500 
L 3597 3500 
L 2059 -325 
z
" transform="scale(0.015625)"/>
       <path id="DejaVuSans-20" transform="scale(0.015625)"/>
       <path id="DejaVuSans-28" d="M 1984 4856 
Q 1566 4138 1362 3434 
Q 1159 2731 1159 2009 
Q 1159 1288 1364 580 
Q 1569 -128 1984 -844 
L 1484 -844 
Q 1016 -109 783 600 
Q 550 1309 550 2009 
Q 550 2706 781 3412 
Q 1013 4119 1484 4856 
L 1984 4856 
z
" transform="scale(0.015625)"/>
       <path id="DejaVuSans-61" d="M 2194 1759 
Q 1497 1759 1228 1600 
Q 959 1441 959 1056 
Q 959 750 1161 570 
Q 1363 391 1709 391 
Q 2188 391 2477 730 
Q 2766 1069 2766 1631 
L 2766 1759 
L 2194 1759 
z
M 3341 1997 
L 3341 0 
L 2766 0 
L 2766 531 
Q 2569 213 2275 61 
Q 1981 -91 1556 -91 
Q 1019 -91 701 211 
Q 384 513 384 1019 
Q 384 1609 779 1909 
Q 1175 2209 1959 2209 
L 2766 2209 
L 2766 2266 
Q 2766 2663 2505 2880 
Q 2244 3097 1772 3097 
Q 1472 3097 1187 3025 
Q 903 2953 641 2809 
L 641 3341 
Q 956 3463 1253 3523 
Q 1550 3584 1831 3584 
Q 2591 3584 2966 3190 
Q 3341 2797 3341 1997 
z
" transform="scale(0.015625)"/>
       <path id="DejaVuSans-2e" d="M 684 794 
L 1344 794 
L 1344 0 
L 684 0 
L 684 794 
z
" transform="scale(0.015625)"/>
       <path id="DejaVuSans-75" d="M 544 1381 
L 544 3500 
L 1119 3500 
L 1119 1403 
Q 1119 906 1312 657 
Q 1506 409 1894 409 
Q 2359 409 2629 706 
Q 2900 1003 2900 1516 
L 2900 3500 
L 3475 3500 
L 3475 0 
L 2900 0 
L 2900 538 
Q 2691 219 2414 64 
Q 2138 -91 1772 -91 
Q 1169 -91 856 284 
Q 544 659 544 1381 
z
M 1991 3584 
L 1991 3584 
z
" transform="scale(0.015625)"/>
       <path id="DejaVuSans-29" d="M 513 4856 
L 1013 4856 
Q 1481 4119 1714 3412 
Q 1947 2706 1947 2009 
Q 1947 1309 1714 600 
Q 1481 -109 1013 -844 
L 513 -844 
Q 928 -128 1133 580 
Q 1338 1288 1338 2009 
Q 1338 2731 1133 3434 
Q 928 4138 513 4856 
z
" transform="scale(0.015625)"/>
      </defs>
      <use xlink:href="#DejaVuSans-49"/>
      <use xlink:href="#DejaVuSans-6e" transform="translate(29.492188 0)"/>
      <use xlink:href="#DejaVuSans-74" transform="translate(92.871094 0)"/>
      <use xlink:href="#DejaVuSans-65" transform="translate(132.080078 0)"/>
      <use xlink:href="#DejaVuSans-6e" transform="translate(193.603516 0)"/>
      <use xlink:href="#DejaVuSans-73" transform="translate(256.982422 0)"/>
      <use xlink:href="#DejaVuSans-69" transform="translate(309.082031 0)"/>
      <use xlink:href="#DejaVuSans-74" transform="translate(336.865234 0)"/>
      <use xlink:href="#DejaVuSans-69" transform="translate(376.074219 0)"/>
      <use xlink:href="#DejaVuSans-79" transform="translate(403.857422 0)"/>
      <use xlink:href="#DejaVuSans-20" transform="translate(463.037109 0)"/>
      <use xlink:href="#DejaVuSans-28" transform="translate(494.824219 0)"/>
      <use xlink:href="#DejaVuSans-61" transform="translate(533.837891 0)"/>
      <use xlink:href="#DejaVuSans-2e" transform="translate(595.117188 0)"/>
      <use xlink:href="#DejaVuSans-75" transform="translate(626.904297 0)"/>
      <use xlink:href="#DejaVuSans-2e" transform="translate(690.283203 0)"/>
      <use xlink:href="#DejaVuSans-29" transform="translate(722.070312 0)"/>
     </g>
    </g>
   </g>
   <g id="line2d_11">
    <path d="M 518.29584 487.009629 
L 517.07568 486.83281 
L 516.4656 486.129801 
L 515.85552 486.856306 
L 514.03024 486.413542 
L 513.42016 486.657473 
L 512.81504 486.364212 
L 510.99968 486.303898 
L 510.39952 486.056178 
L 509.7944 486.409387 
L 509.19424 486.30735 
L 508.58912 485.686303 
L 507.98896 485.930264 
L 506.7936 485.425736 
L 506.19344 485.615066 
L 504.99808 485.210696 
L 504.40288 485.472883 
L 503.21248 484.877318 
L 502.61728 485.403556 
L 502.02208 484.973749 
L 501.43184 485.691211 
L 500.83664 485.561875 
L 499.65616 484.583924 
L 499.06592 485.073756 
L 497.88544 484.541959 
L 496.12464 484.709445 
L 495.53936 484.197722 
L 494.95408 484.587413 
L 494.3688 484.257794 
L 493.78352 484.438066 
L 493.2032 483.853516 
L 492.61792 484.015577 
L 492.0376 483.849867 
L 491.45728 484.066575 
L 490.29664 483.343631 
L 489.71632 483.624075 
L 489.136 484.050203 
L 488.56064 483.055935 
L 487.98528 483.017713 
L 487.40496 483.198 
L 486.25424 482.302089 
L 485.67888 483.019598 
L 485.10848 482.708235 
L 484.53312 482.779276 
L 483.96272 482.385967 
L 483.38736 482.202061 
L 482.81696 482.300433 
L 482.24656 480.951078 
L 481.67616 481.786971 
L 481.11072 481.703254 
L 480.54032 480.918421 
L 479.96992 481.481157 
L 479.40448 480.878444 
L 478.83904 480.457835 
L 478.2736 481.111639 
L 477.14272 480.388788 
L 476.57728 480.141178 
L 475.45136 480.2196 
L 474.89088 479.926479 
L 474.32544 480.416389 
L 473.76496 479.622482 
L 472.64896 479.473305 
L 472.08848 478.888818 
L 471.528 479.069168 
L 470.97248 478.68501 
L 470.41696 478.974637 
L 469.85648 477.943996 
L 469.30096 477.951362 
L 468.74544 478.341146 
L 468.19488 477.929689 
L 467.63936 478.028106 
L 467.08384 476.915534 
L 466.53328 476.995757 
L 465.98272 476.60251 
L 465.43216 477.374728 
L 464.8816 476.280381 
L 464.33104 476.224026 
L 463.78048 475.730622 
L 463.22992 475.911002 
L 462.68432 476.67413 
L 462.13376 475.561573 
L 461.58816 475.487023 
L 461.04256 474.902583 
L 460.49696 474.645929 
L 459.95136 475.199638 
L 459.40576 473.759309 
L 458.86016 474.221966 
L 458.31952 473.765014 
L 457.77392 472.998469 
L 457.23328 472.750936 
L 456.69264 472.740139 
L 456.152 473.421336 
L 455.07072 471.906488 
L 454.53008 472.041374 
L 453.9944 471.129177 
L 452.91808 471.216859 
L 452.3824 470.477662 
L 451.84672 471.113348 
L 451.31104 469.554683 
L 450.77536 470.199475 
L 450.23968 468.868439 
L 449.70896 470.205241 
L 449.17328 469.438728 
L 448.64256 468.125919 
L 448.11184 467.841996 
L 447.04544 466.900822 
L 446.51472 468.128362 
L 445.98896 466.779147 
L 445.45824 466.786591 
L 444.93248 466.102055 
L 444.40176 465.963816 
L 443.876 465.452279 
L 442.82448 465.430777 
L 442.29872 464.354718 
L 440.72144 463.839889 
L 440.20064 463.510472 
L 439.67984 462.079326 
L 439.15408 461.941102 
L 438.63328 462.804465 
L 438.11248 461.710211 
L 436.55504 460.885868 
L 436.03424 459.828035 
L 435.5184 459.544159 
L 435.00256 459.469702 
L 434.48176 459.204021 
L 433.96592 458.410254 
L 433.45008 458.954951 
L 432.93424 457.769661 
L 432.42336 457.859113 
L 431.90752 456.173037 
L 431.39664 457.154799 
L 430.8808 455.851141 
L 430.36992 455.05739 
L 429.85904 455.374472 
L 429.34816 456.092183 
L 428.3264 453.138902 
L 427.81552 453.337616 
L 427.30464 454.537903 
L 426.79872 452.03239 
L 426.28784 452.103633 
L 425.78192 451.646789 
L 425.276 449.651168 
L 424.77008 450.769523 
L 424.26416 450.112365 
L 423.25232 448.269948 
L 422.75136 448.386747 
L 422.24544 447.101331 
L 421.74448 445.497248 
L 421.24352 446.287832 
L 420.7376 445.830988 
L 420.23664 444.026591 
L 419.73568 444.3346 
L 419.23472 443.176671 
L 418.73872 443.68501 
L 418.23776 443.510443 
L 417.74176 442.944368 
L 417.2408 442.97922 
L 416.7448 442.048937 
L 416.2488 439.93498 
L 415.74784 440.142831 
L 415.25184 439.440178 
L 414.7608 437.854337 
L 414.2648 439.154827 
L 413.27776 436.939174 
L 412.78176 437.401987 
L 412.29072 435.870777 
L 411.79968 436.397341 
L 411.30368 435.303164 
L 410.81264 434.964735 
L 410.3216 433.397104 
L 409.83552 434.324312 
L 409.34448 431.090431 
L 408.85344 431.972098 
L 408.36736 429.83996 
L 407.87632 428.627432 
L 407.39024 429.29059 
L 406.90416 429.334594 
L 406.41808 426.528672 
L 405.932 426.272205 
L 405.44592 426.489208 
L 404.95984 426.342003 
L 404.47872 426.895914 
L 403.99264 426.584815 
L 403.51152 424.980795 
L 403.02544 422.93971 
L 402.54432 422.856257 
L 402.0632 419.904667 
L 401.58208 421.696884 
L 401.10096 419.701341 
L 400.61984 421.092929 
L 400.13872 418.751388 
L 399.66256 417.402329 
L 399.18144 417.919818 
L 398.70528 418.064011 
L 398.22416 415.094211 
L 397.748 414.291463 
L 397.27184 414.39013 
L 396.79568 413.150333 
L 396.31952 413.367367 
L 395.84336 410.470424 
L 395.3672 409.858885 
L 394.896 409.001522 
L 394.41984 409.437081 
L 393.94864 408.342982 
L 393.47744 404.535536 
L 393.00128 405.845193 
L 392.05888 403.465787 
L 391.58768 404.702618 
L 391.11648 402.288267 
L 390.65024 400.775345 
L 390.17904 400.163821 
L 389.7128 398.277587 
L 389.2416 399.687416 
L 388.77536 398.229126 
L 387.84288 397.160899 
L 387.37664 395.056139 
L 386.9104 395.582781 
L 386.44416 393.077393 
L 385.97792 393.066828 
L 385.51168 391.763325 
L 385.0504 388.948376 
L 384.58416 392.306733 
L 384.12288 388.408266 
L 383.6616 388.288454 
L 383.20032 385.637399 
L 382.73904 386.13674 
L 382.27776 386.936553 
L 381.81648 383.857553 
L 381.3552 385.7682 
L 380.4376 377.543337 
L 379.97632 381.211286 
L 379.52 378.751455 
L 379.06368 379.496652 
L 378.60736 375.998829 
L 377.68976 374.393442 
L 377.2384 374.373819 
L 376.78208 374.563599 
L 376.32576 371.621193 
L 375.86944 371.87471 
L 375.41808 370.106889 
L 374.96176 368.949101 
L 374.5104 365.961184 
L 374.05904 368.782381 
L 373.60768 366.012989 
L 373.15632 364.053959 
L 372.70496 363.815811 
L 372.2536 361.929623 
L 371.80224 361.163373 
L 371.35088 360.779542 
L 370.90448 361.94361 
L 370.45312 360.148473 
L 370.00672 356.231842 
L 369.11392 355.801103 
L 368.66256 354.570489 
L 368.21616 354.095621 
L 367.76976 352.591866 
L 367.32832 352.044173 
L 366.88192 353.007926 
L 366.43552 350.020025 
L 365.99408 349.718171 
L 365.54768 348.077839 
L 365.10624 343.760594 
L 364.65984 345.088555 
L 364.2184 344.203969 
L 363.77696 344.011378 
L 362.89408 338.153974 
L 362.45264 338.97206 
L 362.01616 340.363788 
L 361.57472 334.853764 
L 361.13328 336.382054 
L 360.26032 334.612914 
L 359.81888 335.349052 
L 358.94592 331.194351 
L 358.50944 332.385765 
L 357.63648 327.484437 
L 357.2 326.545236 
L 356.76848 325.232737 
L 356.332 329.173919 
L 355.464 324.655026 
L 355.03248 323.023845 
L 354.60096 323.923908 
L 354.16944 322.911881 
L 353.30144 317.072734 
L 352.87488 318.273284 
L 352.44336 312.799711 
L 352.01184 311.323319 
L 351.58528 311.713507 
L 351.15376 309.617961 
L 350.7272 310.74567 
L 350.29568 310.680582 
L 349.86912 309.8962 
L 349.016 306.306083 
L 348.58944 305.303176 
L 348.16288 304.691793 
L 347.73632 303.106153 
L 346.8832 298.742094 
L 346.4616 299.232455 
L 346.03504 294.787785 
L 345.61344 297.253973 
L 345.19184 294.894407 
L 344.76528 295.202649 
L 344.34368 293.471342 
L 343.50048 291.674979 
L 343.07888 288.987626 
L 342.24064 290.004784 
L 341.81904 285.969863 
L 341.4024 287.370758 
L 340.56416 282.578802 
L 340.14256 281.958329 
L 339.72592 284.479163 
L 339.30928 282.520242 
L 338.89264 281.198685 
L 338.476 282.208057 
L 338.05936 275.487119 
L 337.64272 277.86227 
L 337.23104 275.830523 
L 336.8144 275.719957 
L 335.98608 272.06618 
L 335.5744 268.304446 
L 335.15776 269.796394 
L 334.74608 268.274538 
L 334.3344 263.074183 
L 333.51104 262.13377 
L 333.09936 263.225105 
L 332.68768 260.938412 
L 332.276 261.26491 
L 331.86928 259.706649 
L 331.4576 262.045395 
L 331.05088 257.236579 
L 330.6392 257.608603 
L 329.82576 255.921595 
L 329.41408 253.926269 
L 329.00736 249.791237 
L 328.60064 250.29075 
L 328.19392 247.749127 
L 327.79216 250.151641 
L 327.38544 248.811904 
L 326.97872 248.983629 
L 326.57696 248.836688 
L 326.17024 240.795529 
L 325.76848 243.999299 
L 325.36176 245.263648 
L 324.96 244.370081 
L 324.15648 234.160643 
L 323.74976 234.341473 
L 323.35296 234.203653 
L 322.9512 234.40271 
L 322.54944 231.569736 
L 322.14768 231.058588 
L 321.74592 230.902542 
L 321.34912 232.959073 
L 320.94736 230.481203 
L 320.55056 230.188594 
L 320.15376 230.360351 
L 319.752 230.158779 
L 319.3552 226.688457 
L 318.9584 225.303225 
L 318.5616 228.470591 
L 318.1648 223.024442 
L 317.768 219.453964 
L 317.3712 217.859313 
L 316.97936 218.067505 
L 316.18576 215.042096 
L 315.79392 217.909006 
L 315.40208 215.148905 
L 315.00528 215.411714 
L 314.61344 215.046279 
L 314.2216 213.069225 
L 313.82976 214.861722 
L 313.43792 210.790473 
L 313.04608 212.118605 
L 312.65424 206.781734 
L 312.2624 203.912371 
L 311.87056 202.76389 
L 311.48368 207.415433 
L 311.09184 201.595987 
L 310.7 203.980322 
L 310.31312 200.282401 
L 309.92624 205.2071 
L 309.5344 205.906974 
L 309.14752 205.241083 
L 308.76064 200.578013 
L 308.37376 201.296112 
L 307.6 198.96276 
L 307.21312 195.146472 
L 306.8312 195.354696 
L 306.05744 191.591828 
L 305.67552 187.393138 
L 305.28864 186.281093 
L 304.90672 184.458858 
L 304.5248 189.019365 
L 304.13792 189.728359 
L 303.756 189.572375 
L 303.37408 188.378399 
L 302.99216 192.21049 
L 302.61024 188.913214 
L 302.22832 183.184851 
L 301.85136 186.288542 
L 301.46944 181.452488 
L 301.08752 180.986928 
L 300.32864 179.400248 
L 299.95168 175.301731 
L 299.56976 175.55548 
L 299.1928 170.983493 
L 298.81584 174.478707 
L 298.43888 176.016305 
L 298.06192 176.643383 
L 297.68496 174.047223 
L 297.308 173.745571 
L 296.93104 174.909856 
L 296.55408 172.031434 
L 296.17712 170.191005 
L 295.80512 172.566296 
L 295.42816 172.091646 
L 295.05616 162.876024 
L 294.6792 158.131038 
L 294.3072 156.272414 
L 293.93024 159.376105 
L 293.18624 155.167176 
L 292.81424 158.252672 
L 292.44224 158.324349 
L 292.07024 158.523499 
L 291.69824 154.388576 
L 291.32624 155.270615 
L 290.9592 161.898048 
L 290.5872 162.024356 
L 290.22016 159.828855 
L 289.84816 155.866931 
L 289.48112 156.621513 
L 289.10912 150.319554 
L 288.74208 153.086384 
L 288.00304 143.323302 
L 287.636 143.877569 
L 287.26896 140.880811 
L 286.90192 142.163495 
L 286.53984 150.666613 
L 285.80576 146.139033 
L 285.43872 149.470385 
L 285.07664 145.654175 
L 284.7096 149.295104 
L 284.34752 149.576231 
L 283.98048 145.268325 
L 283.6184 150.921517 
L 283.25632 143.080811 
L 282.16512 134.418355 
L 281.80304 136.274681 
L 281.44096 133.423622 
L 281.07888 136.982619 
L 280.72176 133.840209 
L 280.35968 137.763415 
L 279.9976 137.507336 
L 279.64048 137.606375 
L 279.2784 137.013403 
L 278.92128 143.80476 
L 278.5592 141.154015 
L 278.20208 142.136258 
L 277.84496 136.763076 
L 277.48288 133.456757 
L 277.12576 133.974635 
L 276.76864 132.744315 
L 276.41152 126.533455 
L 276.0544 124.747719 
L 275.69728 124.673759 
L 275.34512 120.265742 
L 274.988 120.920198 
L 274.63088 125.280469 
L 274.27872 123.148751 
L 273.9216 125.032408 
L 273.56944 128.609647 
L 273.21232 129.509943 
L 272.86016 133.150918 
L 272.508 132.4214 
L 272.15088 130.344298 
L 271.79872 132.146024 
L 271.44656 131.908186 
L 271.0944 130.595936 
L 270.74224 128.509744 
L 270.39008 130.721203 
L 270.04288 125.803311 
L 269.69072 117.889795 
L 269.33856 117.770325 
L 268.99136 114.10895 
L 268.6392 119.461702 
L 268.28704 119.314916 
L 267.93984 119.641616 
L 267.59264 115.880084 
L 267.24048 120.021845 
L 266.89328 127.641805 
L 266.54608 126.721094 
L 266.19888 131.199762 
L 265.85168 130.142473 
L 265.50448 127.883298 
L 265.15728 128.382997 
L 264.81008 130.093686 
L 264.46288 127.188042 
L 264.11568 117.635606 
L 263.77344 116.769541 
L 263.42624 118.034076 
L 263.084 111.231425 
L 262.7368 116.065196 
L 262.39456 112.931938 
L 262.04736 112.639485 
L 261.70512 113.567143 
L 261.02064 118.600173 
L 260.6784 117.852475 
L 260.33616 122.668052 
L 259.99392 125.325697 
L 259.65168 123.184905 
L 259.30944 127.745536 
L 258.9672 130.002552 
L 258.28768 125.475143 
L 257.94544 120.602793 
L 257.6032 119.281468 
L 257.26592 114.563922 
L 256.92864 115.345913 
L 256.5864 112.321917 
L 255.91184 105.490909 
L 255.5696 106.573356 
L 255.23232 108.311392 
L 254.55776 119.763615 
L 254.22048 124.733995 
L 253.8832 122.966531 
L 253.55088 130.914325 
L 253.2136 127.926766 
L 252.87632 129.783169 
L 252.544 130.100811 
L 252.20672 127.53209 
L 251.86944 126.757093 
L 251.53712 124.825751 
L 251.2048 117.686238 
L 250.86752 119.023646 
L 250.5352 115.089162 
L 250.20288 115.525171 
L 249.87056 112.610468 
L 249.53328 113.702036 
L 249.20096 111.725168 
L 248.86864 115.393521 
L 248.54128 120.97398 
L 247.87664 128.75684 
L 247.54432 129.074482 
L 247.212 127.953503 
L 246.88464 130.419985 
L 246.55232 129.763371 
L 246.22496 130.345079 
L 245.89264 125.26334 
L 245.56528 123.159015 
L 245.23792 119.643385 
L 244.9056 118.203724 
L 244.57824 119.195165 
L 244.25088 115.17875 
L 243.92352 117.900178 
L 243.59616 114.220655 
L 241.95936 136.122628 
L 241.63696 137.8425 
L 241.3096 141.119345 
L 240.9872 137.949728 
L 240.65984 142.492196 
L 240.33744 140.597306 
L 240.01008 130.607883 
L 239.68768 134.631369 
L 239.36528 128.001779 
L 239.03792 126.471081 
L 238.71552 123.620146 
L 238.39312 122.535618 
L 238.07072 120.622518 
L 237.74832 125.383526 
L 237.42592 127.786288 
L 237.10352 131.682301 
L 236.78112 133.839223 
L 236.14128 144.63598 
L 235.81888 145.390702 
L 235.17904 150.496713 
L 234.85664 148.128353 
L 234.5392 148.400515 
L 234.22176 145.258229 
L 233.89936 140.741044 
L 233.58192 139.838636 
L 233.26448 141.221631 
L 232.94704 131.214029 
L 232.62464 135.556197 
L 232.3072 133.561166 
L 231.98976 130.692036 
L 231.67232 131.07346 
L 231.35984 132.83889 
L 231.0424 139.357215 
L 230.72496 140.712895 
L 229.46016 157.180232 
L 229.14768 159.300764 
L 228.83024 160.501656 
L 228.51776 164.252018 
L 228.20528 162.766893 
L 227.88784 164.969356 
L 227.57536 162.619238 
L 227.26288 162.590944 
L 226.9504 156.189014 
L 226.32544 152.654242 
L 226.01296 152.380108 
L 225.70048 150.712879 
L 225.388 147.342979 
L 225.07552 148.744201 
L 224.768 153.905883 
L 224.45552 151.473818 
L 224.14304 151.572997 
L 223.83552 160.923068 
L 223.52304 164.236381 
L 223.21552 169.70764 
L 222.28304 177.781028 
L 221.97552 177.825591 
L 221.668 183.387902 
L 221.36048 183.787568 
L 221.05296 179.334165 
L 220.74544 177.5759 
L 220.1304 171.99249 
L 219.82288 166.528411 
L 219.51536 167.492599 
L 219.20784 163.357878 
L 218.90032 164.0307 
L 218.59776 161.471193 
L 217.68016 175.117006 
L 216.76752 181.642573 
L 216.46 188.297508 
L 216.15744 190.663911 
L 215.85488 195.807399 
L 215.55232 204.283387 
L 214.94224 200.439085 
L 214.63968 201.312237 
L 214.33712 198.497785 
L 214.03952 192.833422 
L 213.73696 191.585063 
L 213.4344 188.306246 
L 213.13184 187.88646 
L 212.82928 184.097752 
L 212.53168 184.879867 
L 211.93152 185.142038 
L 211.62896 186.297451 
L 211.33136 189.802019 
L 211.0288 191.37627 
L 210.7312 195.782253 
L 210.4336 196.436895 
L 209.53584 213.79769 
L 209.23824 217.192996 
L 208.94064 218.038847 
L 208.64304 219.567588 
L 208.34544 220.386124 
L 208.04784 217.253005 
L 207.75024 216.714867 
L 207.45264 217.606245 
L 207.15504 209.802161 
L 206.8624 209.910508 
L 206.5648 205.693871 
L 205.97456 199.855594 
L 205.67696 200.273501 
L 205.38432 204.615762 
L 205.09168 203.403855 
L 204.79408 208.14673 
L 204.50144 207.380977 
L 204.2088 211.686818 
L 203.61856 226.65391 
L 203.32592 227.408725 
L 203.03328 233.863391 
L 202.74064 234.609101 
L 202.448 238.195631 
L 202.15536 235.699892 
L 201.86272 238.221115 
L 201.57008 237.464467 
L 201.2824 232.674235 
L 200.98976 230.87049 
L 200.40944 225.296294 
L 200.1168 224.166334 
L 199.82416 221.22444 
L 199.53648 222.216006 
L 198.95616 220.493307 
L 198.08816 226.563754 
L 197.80048 233.819693 
L 197.5128 233.44548 
L 196.93744 243.413866 
L 196.64976 245.142953 
L 196.0744 254.856394 
L 195.78672 258.00589 
L 195.49904 259.798713 
L 195.21136 265.224508 
L 194.92864 264.795679 
L 194.64096 260.315023 
L 194.35328 258.775344 
L 194.07056 261.87933 
L 193.78288 254.539643 
L 193.50016 255.986484 
L 193.21248 249.174898 
L 192.92976 247.207291 
L 192.64208 247.18818 
L 192.35936 248.325444 
L 192.07664 250.746541 
L 191.79392 248.487567 
L 191.5112 250.344142 
L 190.9408 257.626512 
L 189.24944 281.786402 
L 188.96672 283.369821 
L 188.684 286.482912 
L 188.40624 283.477328 
L 188.12352 285.142694 
L 187.8408 283.138666 
L 187.56304 279.313615 
L 187.28032 278.192791 
L 186.7248 272.400148 
L 186.16432 267.991479 
L 185.88656 268.44587 
L 185.6088 268.681735 
L 185.32608 272.149929 
L 185.04832 271.138383 
L 184.4928 274.49646 
L 184.21504 281.005805 
L 183.93728 280.658938 
L 182.55344 306.404095 
L 182.27568 302.970567 
L 182.00288 303.570656 
L 181.72512 307.02976 
L 181.45232 305.399076 
L 181.17456 300.080773 
L 180.90176 300.161866 
L 180.624 298.631324 
L 180.0784 291.527564 
L 179.80064 290.17002 
L 179.52784 289.568224 
L 179.25504 290.423258 
L 178.98224 289.812356 
L 178.70944 296.476504 
L 178.43664 297.085698 
L 178.16384 299.925664 
L 176.79984 323.895371 
L 176.52704 321.554482 
L 176.2592 326.980339 
L 175.9864 325.149341 
L 175.7136 324.483808 
L 175.17296 317.207065 
L 174.90512 316.89665 
L 173.82384 308.389013 
L 173.556 311.757097 
L 173.28816 312.821566 
L 173.01536 314.696382 
L 172.74752 313.193186 
L 172.47968 319.083408 
L 172.21184 320.803452 
L 171.67616 329.406183 
L 171.40832 334.977724 
L 170.6048 341.175845 
L 170.34192 341.302495 
L 170.07408 341.847968 
L 169.80624 341.564869 
L 169.54336 341.454783 
L 169.27552 339.150331 
L 169.00768 335.55294 
L 168.7448 335.861694 
L 168.47696 333.648293 
L 167.94624 328.520407 
L 167.68336 327.481592 
L 167.42048 327.808556 
L 167.1576 332.205542 
L 166.88976 330.747872 
L 166.62688 332.376879 
L 166.364 337.420334 
L 166.10112 339.103972 
L 165.83824 342.025916 
L 165.57536 347.642998 
L 165.31248 349.718159 
L 165.0496 355.03477 
L 164.78672 354.132533 
L 164.52384 359.394512 
L 163.99808 361.24122 
L 163.74016 361.468043 
L 163.47728 360.684173 
L 163.2144 358.871416 
L 162.95648 354.081277 
L 162.6936 352.660044 
L 162.43072 348.470831 
L 162.1728 350.65527 
L 161.90992 346.384111 
L 161.652 346.956931 
L 161.39408 348.585953 
L 161.1312 345.808046 
L 160.87328 349.103319 
L 160.61536 348.911302 
L 160.35248 350.731518 
L 160.09456 355.337939 
L 159.83664 354.918293 
L 159.57872 359.843395 
L 158.0312 377.675626 
L 157.52032 376.463036 
L 157.2624 380.022359 
L 156.74656 375.149466 
L 156.4936 372.316958 
L 156.23568 376.495435 
L 155.98272 370.922264 
L 155.7248 370.493512 
L 155.47184 369.290835 
L 155.21392 368.816557 
L 154.96096 364.181221 
L 154.70304 366.474923 
L 154.45008 366.68355 
L 153.68624 371.179125 
L 153.18032 376.586027 
L 152.6744 380.381309 
L 152.16848 388.792925 
L 151.91552 389.648021 
L 151.4096 394.135298 
L 151.15664 393.779403 
L 150.90864 394.634515 
L 150.65568 394.69746 
L 149.6488 388.593827 
L 149.4008 385.27876 
L 149.14784 386.844061 
L 148.64688 384.547984 
L 148.15088 385.957736 
L 147.89792 383.134334 
L 147.64992 384.481127 
L 147.14896 388.422107 
L 146.90096 389.605006 
L 146.65296 392.499682 
L 146.40496 393.964842 
L 146.15696 397.396723 
L 145.90896 402.740696 
L 145.66096 404.688431 
L 145.41296 405.15202 
L 145.16496 406.225656 
L 144.91696 407.87292 
L 144.66896 408.154405 
L 144.42592 410.129471 
L 144.17792 407.588345 
L 143.92992 406.212685 
L 143.68192 406.30296 
L 143.43888 405.191365 
L 143.19088 402.559188 
L 142.94288 403.869559 
L 142.45184 400.134893 
L 142.2088 401.336017 
L 141.96576 400.433842 
L 141.71776 400.915641 
L 141.47472 403.027285 
L 141.22672 403.354296 
L 140.74064 405.638178 
L 140.4976 409.935069 
L 140.2496 410.75376 
L 140.00656 412.737931 
L 139.52048 418.773153 
L 139.27744 419.509913 
L 138.79136 422.859103 
L 138.54832 422.876552 
L 138.30528 420.899964 
L 138.06224 422.774874 
L 137.82416 420.452304 
L 137.58112 420.624541 
L 137.33808 415.570398 
L 137.09504 415.660689 
L 136.85696 417.8634 
L 136.61392 417.698746 
L 136.37088 416.28668 
L 136.1328 417.096297 
L 135.88976 414.172769 
L 135.65168 414.217549 
L 135.40864 417.157766 
L 135.17056 416.920286 
L 134.93248 417.702587 
L 134.45136 422.490413 
L 134.21328 423.154347 
L 133.97024 426.476982 
L 133.73216 427.368546 
L 133.01792 432.437903 
L 132.54176 436.7978 
L 132.30368 434.320442 
L 132.0656 433.017654 
L 131.82752 433.891007 
L 131.58944 433.735474 
L 131.35136 430.79375 
L 130.63712 429.64426 
L 130.16592 426.856595 
L 129.92784 429.086623 
L 129.69472 430.051043 
L 129.45664 430.095824 
L 128.98544 431.059499 
L 128.28112 436.893724 
L 128.04304 437.91276 
L 127.33872 442.781834 
L 127.1056 442.944998 
L 126.63936 444.336633 
L 126.40624 442.54218 
L 126.16816 443.051325 
L 125.93504 443.95201 
L 125.70192 441.520193 
L 125.4688 440.736417 
L 125.23568 440.781213 
L 124.76944 439.104397 
L 124.54128 438.821422 
L 124.30816 439.740317 
L 123.84192 437.881398 
L 123.6088 440.930908 
L 123.38064 441.084982 
L 122.9144 444.771126 
L 122.68624 446.418452 
L 122.45312 446.199197 
L 121.99184 449.566675 
L 121.76368 450.330797 
L 121.53056 448.518134 
L 121.3024 450.083513 
L 120.84112 450.783169 
L 120.61296 449.771778 
L 120.37984 451.455509 
L 120.15168 448.18603 
L 119.92352 448.030527 
L 119.69536 447.538132 
L 119.4672 448.31136 
L 119.23904 446.680816 
L 118.77776 449.137774 
L 118.5496 448.745536 
L 118.09328 449.354156 
L 117.87008 449.581087 
L 117.41376 452.839318 
L 117.1856 453.439546 
L 116.95744 455.278081 
L 116.72928 456.196992 
L 116.50608 457.625808 
L 116.27792 457.615989 
L 116.04976 457.760958 
L 115.82656 459.135143 
L 115.5984 459.243691 
L 115.3752 458.18679 
L 115.14704 460.152798 
L 114.92384 460.015521 
L 114.69568 459.122498 
L 114.47248 457.428233 
L 114.24432 457.636938 
L 114.02112 458.564969 
L 113.79792 455.359242 
L 113.56976 456.43294 
L 113.34656 455.776668 
L 113.12336 454.564978 
L 112.90016 454.39128 
L 112.2256 457.703459 
L 112.0024 458.777174 
L 111.7792 459.122472 
L 111.3328 461.770686 
L 111.1096 461.678935 
L 110.6632 463.789943 
L 110.44 463.434142 
L 109.99856 466.182528 
L 109.77536 465.808517 
L 109.55216 466.736548 
L 109.33392 466.927073 
L 108.88752 466.251892 
L 108.66928 466.970519 
L 108.44608 465.895407 
L 108.22784 465.630673 
L 108.00464 464.628403 
L 107.7864 464.409195 
L 107.5632 463.115559 
L 107.34496 465.363858 
L 107.12176 463.469279 
L 106.90352 463.058862 
L 106.68528 463.11281 
L 106.0256 465.596463 
L 105.80736 465.340834 
L 105.58416 466.350812 
L 105.36592 466.741652 
L 104.7112 469.844474 
L 104.49296 469.80737 
L 104.27472 469.997896 
L 104.05648 471.253729 
L 103.83824 471.45336 
L 103.62 470.523947 
L 103.40176 472.562827 
L 103.18352 471.751782 
L 102.97024 472.179058 
L 102.752 471.978061 
L 102.53376 471.531223 
L 102.31552 470.720178 
L 102.10224 471.429715 
L 101.884 471.083034 
L 101.66576 469.306838 
L 101.23424 470.297953 
L 100.80272 470.424075 
L 100.58944 469.895306 
L 100.3712 470.195094 
L 100.15792 470.003218 
L 99.94464 471.614169 
L 99.7264 472.305481 
L 99.51312 471.403399 
L 98.44176 474.532232 
L 98.01024 474.876878 
L 97.79696 475.750309 
L 97.58368 475.112278 
L 97.15712 476.986612 
L 96.94384 477.204469 
L 96.73056 476.484491 
L 96.30896 477.002167 
L 96.09568 476.509819 
L 95.8824 476.390784 
L 95.66912 476.089645 
L 95.45584 477.090548 
L 95.03424 476.160499 
L 94.82096 475.42231 
L 94.61264 476.505176 
L 94.39936 475.712357 
L 93.76448 476.730151 
L 93.55616 475.973767 
L 93.34288 476.701515 
L 93.13456 476.80102 
L 92.92624 477.902097 
L 92.71296 477.701115 
L 92.50464 478.192143 
L 92.29632 478.118649 
L 91.87472 479.091585 
L 91.6664 479.081828 
L 91.45808 480.21022 
L 91.2448 480.655706 
L 91.03648 480.691475 
L 90.82816 481.01861 
L 90.61984 480.134754 
L 90.41152 480.598466 
L 90.2032 480.424816 
L 89.99488 480.05085 
L 89.78656 480.441722 
L 89.57824 480.577647 
L 89.36992 480.249208 
L 89.1616 480.312292 
L 88.95328 480.029379 
L 88.74496 479.200154 
L 88.5416 479.873302 
L 88.33328 479.845334 
L 88.12496 480.181574 
L 87.91664 480.290184 
L 87.71328 479.879814 
L 87.50496 480.26158 
L 87.29664 480.215402 
L 87.09328 479.859663 
L 86.6816 481.843306 
L 86.47328 481.269027 
L 86.26992 481.559756 
L 86.0616 482.333046 
L 85.85824 482.605565 
L 85.64992 482.47744 
L 85.44656 482.877432 
L 85.2432 482.649165 
L 84.62816 483.621496 
L 84.21648 483.392577 
L 84.01312 483.892726 
L 83.80976 483.673565 
L 83.6064 483.244984 
L 83.40304 483.326294 
L 83.19968 482.651873 
L 82.99632 483.470704 
L 82.79296 483.087649 
L 82.5896 483.232695 
L 82.38624 482.713063 
L 82.18288 482.839899 
L 81.97952 483.340048 
L 81.77616 483.211938 
L 81.5728 483.457142 
L 81.3744 483.40189 
L 81.17104 483.619778 
L 80.96768 483.673772 
L 80.76432 484.046448 
L 80.56592 483.481305 
L 80.36256 484.190874 
L 80.1592 483.980818 
L 79.75744 484.198085 
L 79.15232 485.37076 
L 78.95392 485.151614 
L 78.75056 485.924919 
L 78.35376 485.35005 
L 77.952 485.97705 
L 77.7536 486.103902 
L 77.35184 485.419755 
L 77.15344 485.182398 
L 76.75168 485.827609 
L 76.55328 485.781462 
L 76.35488 485.516791 
L 76.15648 485.543485 
L 75.95808 485.078499 
L 75.56128 485.796567 
L 75.36288 485.805051 
L 74.96608 486.295489 
L 74.76768 486.267553 
L 74.56928 486.103038 
L 74.37088 486.748886 
L 74.17744 486.402283 
L 73.78064 487.011088 
L 73.3888 487.091808 
L 73.1904 486.799821 
L 72.992 487.309091 
L 72.79856 486.771279 
L 72.60016 486.980077 
L 72.40176 486.833773 
L 72.20832 487.124534 
L 72.00992 487.005545 
L 72.00992 487.005545 
" clip-path="url(#pca056976ff)" style="fill: none; stroke-dasharray: 3.7,1.6; stroke-dashoffset: 0; stroke: #1fa187"/>
   </g>
   <g id="line2d_12">
    <path d="M 72.00992 476.657978 
L 76.481723 474.938431 
L 80.953526 472.95223 
L 84.530968 471.150645 
L 88.10841 469.14222 
L 91.685852 466.909884 
L 95.263295 464.436117 
L 98.840737 461.703079 
L 102.418179 458.692764 
L 105.995621 455.38718 
L 109.573064 451.76854 
L 113.150506 447.819488 
L 116.727948 443.523334 
L 120.30539 438.864315 
L 123.882833 433.827871 
L 127.460275 428.400931 
L 131.037717 422.57222 
L 134.615159 416.332562 
L 138.192602 409.675196 
L 141.770044 402.596083 
L 145.347486 395.094214 
L 149.819289 385.126231 
L 154.291092 374.514034 
L 158.762894 363.279613 
L 163.234697 351.455103 
L 168.600861 336.547745 
L 173.967024 320.947493 
L 180.227548 302.02948 
L 188.276793 276.923343 
L 205.269644 223.582343 
L 211.530168 204.81815 
L 216.00197 192.022991 
L 220.473773 179.880685 
L 224.051215 170.722116 
L 227.628658 162.125289 
L 231.2061 154.150397 
L 233.889182 148.611737 
L 236.572263 143.477557 
L 239.255345 138.769007 
L 241.938427 134.505679 
L 244.621508 130.70547 
L 247.30459 127.384463 
L 249.987672 124.556807 
L 251.776393 122.951857 
L 253.565114 121.574674 
L 255.353835 120.4279 
L 257.142556 119.51374 
L 258.931277 118.833957 
L 260.719998 118.38986 
L 262.50872 118.182308 
L 264.297441 118.211702 
L 266.086162 118.477985 
L 267.874883 118.980643 
L 269.663604 119.718705 
L 271.452325 120.690747 
L 273.241046 121.894897 
L 275.029767 123.328842 
L 276.818488 124.989832 
L 278.60721 126.874691 
L 281.290291 130.113768 
L 283.973373 133.834561 
L 286.656455 138.021305 
L 289.339536 142.656399 
L 292.022618 147.720525 
L 294.7057 153.192787 
L 298.283142 161.085223 
L 301.860584 169.606955 
L 305.438026 178.69817 
L 309.909829 190.7676 
L 314.381632 203.50279 
L 319.747795 219.482262 
L 326.90268 241.605186 
L 350.156055 314.259577 
L 356.416578 332.698427 
L 361.782742 347.789245 
L 366.254545 359.783371 
L 370.726347 371.199133 
L 375.19815 382.001245 
L 379.669953 392.164725 
L 384.141756 401.674313 
L 387.719198 408.806691 
L 391.29664 415.517023 
L 394.874083 421.808982 
L 398.451525 427.689003 
L 402.028967 433.165974 
L 405.606409 438.250925 
L 409.183852 442.956715 
L 412.761294 447.297734 
L 416.338736 451.28961 
L 419.916178 454.948928 
L 423.493621 458.292977 
L 427.071063 461.339499 
L 430.648505 464.106474 
L 434.225947 466.611915 
L 437.803389 468.873691 
L 441.380832 470.909373 
L 445.852635 473.16208 
L 450.324437 475.120475 
L 454.79624 476.815176 
L 459.268043 478.274982 
L 463.739846 479.52673 
L 469.106009 480.788959 
L 474.472173 481.826092 
L 480.732696 482.797586 
L 487.887581 483.65148 
L 495.936826 484.356417 
L 504.880432 484.902463 
L 515.612758 485.326226 
L 518.29584 485.403161 
L 518.29584 485.403161 
" clip-path="url(#pca056976ff)" style="fill: none; stroke-dasharray: 3.7,1.6; stroke-dashoffset: 0; stroke: #46327e"/>
   </g>
   <g id="patch_3">
    <path d="M 72 506.4 
L 72 86.4 
" style="fill: none; stroke: #000000; stroke-width: 0.8; stroke-linejoin: miter; stroke-linecap: square"/>
   </g>
   <g id="patch_4">
    <path d="M 518.4 506.4 
L 518.4 86.4 
" style="fill: none; stroke: #000000; stroke-width: 0.8; stroke-linejoin: miter; stroke-linecap: square"/>
   </g>
   <g id="patch_5">
    <path d="M 72 506.4 
L 518.4 506.4 
" style="fill: none; stroke: #000000; stroke-width: 0.8; stroke-linejoin: miter; stroke-linecap: square"/>
   </g>
   <g id="patch_6">
    <path d="M 72 86.4 
L 518.4 86.4 
" style="fill: none; stroke: #000000; stroke-width: 0.8; stroke-linejoin: miter; stroke-linecap: square"/>
   </g>
   <g id="legend_1">
    <g id="patch_7">
     <path d="M 360.178125 123.75625 
L 511.4 123.75625 
Q 513.4 123.75625 513.4 121.75625 
L 513.4 93.4 
Q 513.4 91.4 511.4 91.4 
L 360.178125 91.4 
Q 358.178125 91.4 358.178125 93.4 
L 358.178125 121.75625 
Q 358.178125 123.75625 360.178125 123.75625 
z
" style="fill: #ffffff; opacity: 0.8; stroke: #cccccc; stroke-linejoin: miter"/>
    </g>
    <g id="line2d_13">
     <path d="M 362.178125 99.498437 
L 372.178125 99.498437 
L 382.178125 99.498437 
" style="fill: none; stroke-dasharray: 3.7,1.6; stroke-dashoffset: 0; stroke: #1fa187"/>
    </g>
    <g id="text_7">
     <!-- Baseline-corrected data -->
     <g transform="translate(390.178125 102.998437) scale(0.1 -0.1)">
      <defs>
       <path id="DejaVuSans-42" d="M 1259 2228 
L 1259 519 
L 2272 519 
Q 2781 519 3026 730 
Q 3272 941 3272 1375 
Q 3272 1813 3026 2020 
Q 2781 2228 2272 2228 
L 1259 2228 
z
M 1259 4147 
L 1259 2741 
L 2194 2741 
Q 2656 2741 2882 2914 
Q 3109 3088 3109 3444 
Q 3109 3797 2882 3972 
Q 2656 4147 2194 4147 
L 1259 4147 
z
M 628 4666 
L 2241 4666 
Q 2963 4666 3353 4366 
Q 3744 4066 3744 3513 
Q 3744 3084 3544 2831 
Q 3344 2578 2956 2516 
Q 3422 2416 3680 2098 
Q 3938 1781 3938 1306 
Q 3938 681 3513 340 
Q 3088 0 2303 0 
L 628 0 
L 628 4666 
z
" transform="scale(0.015625)"/>
       <path id="DejaVuSans-6c" d="M 603 4863 
L 1178 4863 
L 1178 0 
L 603 0 
L 603 4863 
z
" transform="scale(0.015625)"/>
       <path id="DejaVuSans-2d" d="M 313 2009 
L 1997 2009 
L 1997 1497 
L 313 1497 
L 313 2009 
z
" transform="scale(0.015625)"/>
       <path id="DejaVuSans-63" d="M 3122 3366 
L 3122 2828 
Q 2878 2963 2633 3030 
Q 2388 3097 2138 3097 
Q 1578 3097 1268 2742 
Q 959 2388 959 1747 
Q 959 1106 1268 751 
Q 1578 397 2138 397 
Q 2388 397 2633 464 
Q 2878 531 3122 666 
L 3122 134 
Q 2881 22 2623 -34 
Q 2366 -91 2075 -91 
Q 1284 -91 818 406 
Q 353 903 353 1747 
Q 353 2603 823 3093 
Q 1294 3584 2113 3584 
Q 2378 3584 2631 3529 
Q 2884 3475 3122 3366 
z
" transform="scale(0.015625)"/>
       <path id="DejaVuSans-6f" d="M 1959 3097 
Q 1497 3097 1228 2736 
Q 959 2375 959 1747 
Q 959 1119 1226 758 
Q 1494 397 1959 397 
Q 2419 397 2687 759 
Q 2956 1122 2956 1747 
Q 2956 2369 2687 2733 
Q 2419 3097 1959 3097 
z
M 1959 3584 
Q 2709 3584 3137 3096 
Q 3566 2609 3566 1747 
Q 3566 888 3137 398 
Q 2709 -91 1959 -91 
Q 1206 -91 779 398 
Q 353 888 353 1747 
Q 353 2609 779 3096 
Q 1206 3584 1959 3584 
z
" transform="scale(0.015625)"/>
       <path id="DejaVuSans-72" d="M 2631 2963 
Q 2534 3019 2420 3045 
Q 2306 3072 2169 3072 
Q 1681 3072 1420 2755 
Q 1159 2438 1159 1844 
L 1159 0 
L 581 0 
L 581 3500 
L 1159 3500 
L 1159 2956 
Q 1341 3275 1631 3429 
Q 1922 3584 2338 3584 
Q 2397 3584 2469 3576 
Q 2541 3569 2628 3553 
L 2631 2963 
z
" transform="scale(0.015625)"/>
       <path id="DejaVuSans-64" d="M 2906 2969 
L 2906 4863 
L 3481 4863 
L 3481 0 
L 2906 0 
L 2906 525 
Q 2725 213 2448 61 
Q 2172 -91 1784 -91 
Q 1150 -91 751 415 
Q 353 922 353 1747 
Q 353 2572 751 3078 
Q 1150 3584 1784 3584 
Q 2172 3584 2448 3432 
Q 2725 3281 2906 2969 
z
M 947 1747 
Q 947 1113 1208 752 
Q 1469 391 1925 391 
Q 2381 391 2643 752 
Q 2906 1113 2906 1747 
Q 2906 2381 2643 2742 
Q 2381 3103 1925 3103 
Q 1469 3103 1208 2742 
Q 947 2381 947 1747 
z
" transform="scale(0.015625)"/>
      </defs>
      <use xlink:href="#DejaVuSans-42"/>
      <use xlink:href="#DejaVuSans-61" transform="translate(68.603516 0)"/>
      <use xlink:href="#DejaVuSans-73" transform="translate(129.882812 0)"/>
      <use xlink:href="#DejaVuSans-65" transform="translate(181.982422 0)"/>
      <use xlink:href="#DejaVuSans-6c" transform="translate(243.505859 0)"/>
      <use xlink:href="#DejaVuSans-69" transform="translate(271.289062 0)"/>
      <use xlink:href="#DejaVuSans-6e" transform="translate(299.072266 0)"/>
      <use xlink:href="#DejaVuSans-65" transform="translate(362.451172 0)"/>
      <use xlink:href="#DejaVuSans-2d" transform="translate(423.974609 0)"/>
      <use xlink:href="#DejaVuSans-63" transform="translate(460.058594 0)"/>
      <use xlink:href="#DejaVuSans-6f" transform="translate(515.039062 0)"/>
      <use xlink:href="#DejaVuSans-72" transform="translate(576.220703 0)"/>
      <use xlink:href="#DejaVuSans-72" transform="translate(615.583984 0)"/>
      <use xlink:href="#DejaVuSans-65" transform="translate(654.447266 0)"/>
      <use xlink:href="#DejaVuSans-63" transform="translate(715.970703 0)"/>
      <use xlink:href="#DejaVuSans-74" transform="translate(770.951172 0)"/>
      <use xlink:href="#DejaVuSans-65" transform="translate(810.160156 0)"/>
      <use xlink:href="#DejaVuSans-64" transform="translate(871.683594 0)"/>
      <use xlink:href="#DejaVuSans-20" transform="translate(935.160156 0)"/>
      <use xlink:href="#DejaVuSans-64" transform="translate(966.947266 0)"/>
      <use xlink:href="#DejaVuSans-61" transform="translate(1030.423828 0)"/>
      <use xlink:href="#DejaVuSans-74" transform="translate(1091.703125 0)"/>
      <use xlink:href="#DejaVuSans-61" transform="translate(1130.912109 0)"/>
     </g>
    </g>
    <g id="line2d_14">
     <path d="M 362.178125 114.176562 
L 372.178125 114.176562 
L 382.178125 114.176562 
" style="fill: none; stroke-dasharray: 3.7,1.6; stroke-dashoffset: 0; stroke: #46327e"/>
    </g>
    <g id="text_8">
     <!-- Gaussian fit -->
     <g transform="translate(390.178125 117.676562) scale(0.1 -0.1)">
      <defs>
       <path id="DejaVuSans-47" d="M 3809 666 
L 3809 1919 
L 2778 1919 
L 2778 2438 
L 4434 2438 
L 4434 434 
Q 4069 175 3628 42 
Q 3188 -91 2688 -91 
Q 1594 -91 976 548 
Q 359 1188 359 2328 
Q 359 3472 976 4111 
Q 1594 4750 2688 4750 
Q 3144 4750 3555 4637 
Q 3966 4525 4313 4306 
L 4313 3634 
Q 3963 3931 3569 4081 
Q 3175 4231 2741 4231 
Q 1884 4231 1454 3753 
Q 1025 3275 1025 2328 
Q 1025 1384 1454 906 
Q 1884 428 2741 428 
Q 3075 428 3337 486 
Q 3600 544 3809 666 
z
" transform="scale(0.015625)"/>
       <path id="DejaVuSans-66" d="M 2375 4863 
L 2375 4384 
L 1825 4384 
Q 1516 4384 1395 4259 
Q 1275 4134 1275 3809 
L 1275 3500 
L 2222 3500 
L 2222 3053 
L 1275 3053 
L 1275 0 
L 697 0 
L 697 3053 
L 147 3053 
L 147 3500 
L 697 3500 
L 697 3744 
Q 697 4328 969 4595 
Q 1241 4863 1831 4863 
L 2375 4863 
z
" transform="scale(0.015625)"/>
      </defs>
      <use xlink:href="#DejaVuSans-47"/>
      <use xlink:href="#DejaVuSans-61" transform="translate(77.490234 0)"/>
      <use xlink:href="#DejaVuSans-75" transform="translate(138.769531 0)"/>
      <use xlink:href="#DejaVuSans-73" transform="translate(202.148438 0)"/>
      <use xlink:href="#DejaVuSans-73" transform="translate(254.248047 0)"/>
      <use xlink:href="#DejaVuSans-69" transform="translate(306.347656 0)"/>
      <use xlink:href="#DejaVuSans-61" transform="translate(334.130859 0)"/>
      <use xlink:href="#DejaVuSans-6e" transform="translate(395.410156 0)"/>
      <use xlink:href="#DejaVuSans-20" transform="translate(458.789062 0)"/>
      <use xlink:href="#DejaVuSans-66" transform="translate(490.576172 0)"/>
      <use xlink:href="#DejaVuSans-69" transform="translate(525.78125 0)"/>
      <use xlink:href="#DejaVuSans-74" transform="translate(553.564453 0)"/>
     </g>
    </g>
   </g>
  </g>
  <g id="axes_2">
   <g id="patch_8">
    <path d="M 72 640.8 
L 518.4 640.8 
L 518.4 556.8 
L 72 556.8 
z
" style="fill: #ffffff"/>
   </g>
   <g id="matplotlib.axis_3">
    <g id="xtick_6">
     <g id="line2d_15">
      <g>
       <use xlink:href="#m350e839f5e" x="72" y="640.8" style="stroke: #000000; stroke-width: 0.8"/>
      </g>
     </g>
     <g id="text_9">
      <!-- 1.2 -->
      <g transform="translate(64.048438 655.398437) scale(0.1 -0.1)">
       <use xlink:href="#DejaVuSans-31"/>
       <use xlink:href="#DejaVuSans-2e" transform="translate(63.623047 0)"/>
       <use xlink:href="#DejaVuSans-32" transform="translate(95.410156 0)"/>
      </g>
     </g>
    </g>
    <g id="xtick_7">
     <g id="line2d_16">
      <g>
       <use xlink:href="#m350e839f5e" x="171.2" y="640.8" style="stroke: #000000; stroke-width: 0.8"/>
      </g>
     </g>
     <g id="text_10">
      <!-- 1.4 -->
      <g transform="translate(163.248437 655.398437) scale(0.1 -0.1)">
       <use xlink:href="#DejaVuSans-31"/>
       <use xlink:href="#DejaVuSans-2e" transform="translate(63.623047 0)"/>
       <use xlink:href="#DejaVuSans-34" transform="translate(95.410156 0)"/>
      </g>
     </g>
    </g>
    <g id="xtick_8">
     <g id="line2d_17">
      <g>
       <use xlink:href="#m350e839f5e" x="270.4" y="640.8" style="stroke: #000000; stroke-width: 0.8"/>
      </g>
     </g>
     <g id="text_11">
      <!-- 1.6 -->
      <g transform="translate(262.448438 655.398437) scale(0.1 -0.1)">
       <defs>
        <path id="DejaVuSans-36" d="M 2113 2584 
Q 1688 2584 1439 2293 
Q 1191 2003 1191 1497 
Q 1191 994 1439 701 
Q 1688 409 2113 409 
Q 2538 409 2786 701 
Q 3034 994 3034 1497 
Q 3034 2003 2786 2293 
Q 2538 2584 2113 2584 
z
M 3366 4563 
L 3366 3988 
Q 3128 4100 2886 4159 
Q 2644 4219 2406 4219 
Q 1781 4219 1451 3797 
Q 1122 3375 1075 2522 
Q 1259 2794 1537 2939 
Q 1816 3084 2150 3084 
Q 2853 3084 3261 2657 
Q 3669 2231 3669 1497 
Q 3669 778 3244 343 
Q 2819 -91 2113 -91 
Q 1303 -91 875 529 
Q 447 1150 447 2328 
Q 447 3434 972 4092 
Q 1497 4750 2381 4750 
Q 2619 4750 2861 4703 
Q 3103 4656 3366 4563 
z
" transform="scale(0.015625)"/>
       </defs>
       <use xlink:href="#DejaVuSans-31"/>
       <use xlink:href="#DejaVuSans-2e" transform="translate(63.623047 0)"/>
       <use xlink:href="#DejaVuSans-36" transform="translate(95.410156 0)"/>
      </g>
     </g>
    </g>
    <g id="xtick_9">
     <g id="line2d_18">
      <g>
       <use xlink:href="#m350e839f5e" x="369.6" y="640.8" style="stroke: #000000; stroke-width: 0.8"/>
      </g>
     </g>
     <g id="text_12">
      <!-- 1.8 -->
      <g transform="translate(361.648438 655.398437) scale(0.1 -0.1)">
       <defs>
        <path id="DejaVuSans-38" d="M 2034 2216 
Q 1584 2216 1326 1975 
Q 1069 1734 1069 1313 
Q 1069 891 1326 650 
Q 1584 409 2034 409 
Q 2484 409 2743 651 
Q 3003 894 3003 1313 
Q 3003 1734 2745 1975 
Q 2488 2216 2034 2216 
z
M 1403 2484 
Q 997 2584 770 2862 
Q 544 3141 544 3541 
Q 544 4100 942 4425 
Q 1341 4750 2034 4750 
Q 2731 4750 3128 4425 
Q 3525 4100 3525 3541 
Q 3525 3141 3298 2862 
Q 3072 2584 2669 2484 
Q 3125 2378 3379 2068 
Q 3634 1759 3634 1313 
Q 3634 634 3220 271 
Q 2806 -91 2034 -91 
Q 1263 -91 848 271 
Q 434 634 434 1313 
Q 434 1759 690 2068 
Q 947 2378 1403 2484 
z
M 1172 3481 
Q 1172 3119 1398 2916 
Q 1625 2713 2034 2713 
Q 2441 2713 2670 2916 
Q 2900 3119 2900 3481 
Q 2900 3844 2670 4047 
Q 2441 4250 2034 4250 
Q 1625 4250 1398 4047 
Q 1172 3844 1172 3481 
z
" transform="scale(0.015625)"/>
       </defs>
       <use xlink:href="#DejaVuSans-31"/>
       <use xlink:href="#DejaVuSans-2e" transform="translate(63.623047 0)"/>
       <use xlink:href="#DejaVuSans-38" transform="translate(95.410156 0)"/>
      </g>
     </g>
    </g>
    <g id="xtick_10">
     <g id="line2d_19">
      <g>
       <use xlink:href="#m350e839f5e" x="468.8" y="640.8" style="stroke: #000000; stroke-width: 0.8"/>
      </g>
     </g>
     <g id="text_13">
      <!-- 2.0 -->
      <g transform="translate(460.848437 655.398437) scale(0.1 -0.1)">
       <use xlink:href="#DejaVuSans-32"/>
       <use xlink:href="#DejaVuSans-2e" transform="translate(63.623047 0)"/>
       <use xlink:href="#DejaVuSans-30" transform="translate(95.410156 0)"/>
      </g>
     </g>
    </g>
   </g>
   <g id="matplotlib.axis_4">
    <g id="ytick_6">
     <g id="line2d_20">
      <g>
       <use xlink:href="#ma9bd6574d0" x="72" y="622.8" style="stroke: #000000; stroke-width: 0.8"/>
      </g>
     </g>
     <g id="text_14">
      <!-- −20 -->
      <g transform="translate(43.895313 626.599219) scale(0.1 -0.1)">
       <defs>
        <path id="DejaVuSans-2212" d="M 678 2272 
L 4684 2272 
L 4684 1741 
L 678 1741 
L 678 2272 
z
" transform="scale(0.015625)"/>
       </defs>
       <use xlink:href="#DejaVuSans-2212"/>
       <use xlink:href="#DejaVuSans-32" transform="translate(83.789062 0)"/>
       <use xlink:href="#DejaVuSans-30" transform="translate(147.412109 0)"/>
      </g>
     </g>
    </g>
    <g id="ytick_7">
     <g id="line2d_21">
      <g>
       <use xlink:href="#ma9bd6574d0" x="72" y="598.8" style="stroke: #000000; stroke-width: 0.8"/>
      </g>
     </g>
     <g id="text_15">
      <!-- 0 -->
      <g transform="translate(58.6375 602.599219) scale(0.1 -0.1)">
       <use xlink:href="#DejaVuSans-30"/>
      </g>
     </g>
    </g>
    <g id="ytick_8">
     <g id="line2d_22">
      <g>
       <use xlink:href="#ma9bd6574d0" x="72" y="574.8" style="stroke: #000000; stroke-width: 0.8"/>
      </g>
     </g>
     <g id="text_16">
      <!-- 20 -->
      <g transform="translate(52.275 578.599219) scale(0.1 -0.1)">
       <use xlink:href="#DejaVuSans-32"/>
       <use xlink:href="#DejaVuSans-30" transform="translate(63.623047 0)"/>
      </g>
     </g>
    </g>
    <g id="text_17">
     <!-- Residuals -->
     <g transform="translate(37.815625 622.520312) rotate(-90) scale(0.1 -0.1)">
      <defs>
       <path id="DejaVuSans-52" d="M 2841 2188 
Q 3044 2119 3236 1894 
Q 3428 1669 3622 1275 
L 4263 0 
L 3584 0 
L 2988 1197 
Q 2756 1666 2539 1819 
Q 2322 1972 1947 1972 
L 1259 1972 
L 1259 0 
L 628 0 
L 628 4666 
L 2053 4666 
Q 2853 4666 3247 4331 
Q 3641 3997 3641 3322 
Q 3641 2881 3436 2590 
Q 3231 2300 2841 2188 
z
M 1259 4147 
L 1259 2491 
L 2053 2491 
Q 2509 2491 2742 2702 
Q 2975 2913 2975 3322 
Q 2975 3731 2742 3939 
Q 2509 4147 2053 4147 
L 1259 4147 
z
" transform="scale(0.015625)"/>
      </defs>
      <use xlink:href="#DejaVuSans-52"/>
      <use xlink:href="#DejaVuSans-65" transform="translate(64.982422 0)"/>
      <use xlink:href="#DejaVuSans-73" transform="translate(126.505859 0)"/>
      <use xlink:href="#DejaVuSans-69" transform="translate(178.605469 0)"/>
      <use xlink:href="#DejaVuSans-64" transform="translate(206.388672 0)"/>
      <use xlink:href="#DejaVuSans-75" transform="translate(269.865234 0)"/>
      <use xlink:href="#DejaVuSans-61" transform="translate(333.244141 0)"/>
      <use xlink:href="#DejaVuSans-6c" transform="translate(394.523438 0)"/>
      <use xlink:href="#DejaVuSans-73" transform="translate(422.306641 0)"/>
     </g>
    </g>
   </g>
   <g id="line2d_23">
    <path d="M 518.29584 626.726209 
L 517.68576 624.518899 
L 517.07568 623.456383 
L 516.4656 611.706291 
L 515.85552 623.66892 
L 515.24544 620.77394 
L 514.63536 618.836468 
L 514.03024 616.536671 
L 513.42016 620.323574 
L 512.81504 615.877012 
L 512.20992 615.773473 
L 511.6048 614.342852 
L 510.99968 615.197702 
L 510.39952 611.755143 
L 509.7944 616.849207 
L 509.19424 615.508548 
L 508.58912 607.150061 
L 507.98896 610.643264 
L 507.3888 607.063506 
L 506.7936 604.423645 
L 506.19344 607.128275 
L 504.99808 602.568574 
L 504.40288 606.102519 
L 503.21248 599.530068 
L 502.61728 606.091308 
L 502.02208 601.388608 
L 501.43184 609.942031 
L 500.83664 608.721042 
L 499.65616 598.519708 
L 499.06592 604.221768 
L 498.47568 601.335062 
L 497.88544 599.303394 
L 497.30016 600.542699 
L 496.70992 600.737911 
L 496.12464 602.219925 
L 495.53936 597.515452 
L 494.95408 601.790243 
L 494.3688 599.000609 
L 493.78352 601.163465 
L 493.2032 596.073354 
L 492.61792 598.070481 
L 492.0376 597.017189 
L 491.45728 599.461946 
L 490.29664 594.008192 
L 489.71632 596.984884 
L 489.136 601.144971 
L 488.56064 593.179488 
L 487.98528 593.42029 
L 487.40496 595.47401 
L 486.25424 589.353657 
L 485.67888 595.675017 
L 485.10848 593.784934 
L 484.53312 594.916936 
L 483.96272 592.482577 
L 483.38736 591.705864 
L 482.81696 593.057296 
L 482.24656 583.746789 
L 481.67616 590.542862 
L 481.11072 590.586251 
L 480.54032 585.683701 
L 479.96992 590.338004 
L 479.40448 586.837043 
L 478.83904 584.677194 
L 478.2736 589.82381 
L 477.70816 587.767918 
L 477.14272 586.434058 
L 476.57728 585.56037 
L 476.01184 586.416523 
L 475.45136 587.548603 
L 474.89088 586.442613 
L 474.32544 590.231389 
L 473.76496 586.083937 
L 473.20448 586.561952 
L 472.64896 586.709879 
L 472.08848 584.025551 
L 471.528 585.881861 
L 470.97248 584.446428 
L 470.41696 586.900143 
L 469.85648 581.878303 
L 469.30096 582.761786 
L 468.74544 585.745896 
L 468.19488 584.307244 
L 467.63936 585.667537 
L 467.08384 580.567473 
L 466.53328 581.865442 
L 465.98272 580.686001 
L 465.43216 585.543878 
L 464.8816 580.812673 
L 464.33104 581.423371 
L 463.78048 579.861375 
L 463.22992 581.66431 
L 462.68432 586.270908 
L 462.13376 581.771791 
L 461.58816 582.319262 
L 461.04256 580.468826 
L 460.49696 580.20047 
L 459.95136 583.687591 
L 459.40576 578.02497 
L 458.86016 581.081125 
L 458.31952 579.975922 
L 457.77392 577.551441 
L 457.23328 577.451948 
L 456.69264 578.393411 
L 456.152 582.290564 
L 455.07072 577.838025 
L 454.53008 579.402659 
L 453.9944 576.646107 
L 453.45376 577.704831 
L 452.91808 579.041179 
L 452.3824 577.106337 
L 451.84672 580.639877 
L 451.31104 575.56496 
L 450.77536 579.109615 
L 450.23968 575.052227 
L 449.70896 581.170229 
L 449.17328 579.317394 
L 448.64256 575.482303 
L 448.11184 575.514623 
L 447.57616 575.042869 
L 447.04544 574.291514 
L 446.51472 579.767452 
L 445.98896 576.050524 
L 445.45824 577.172033 
L 444.93248 575.882696 
L 444.40176 576.51668 
L 443.876 575.876828 
L 443.35024 577.10192 
L 442.82448 578.016312 
L 442.29872 575.564647 
L 440.72144 577.278805 
L 440.20064 577.348419 
L 439.67984 573.963969 
L 439.15408 574.701213 
L 438.63328 578.52503 
L 438.11248 576.300501 
L 437.59168 576.646058 
L 437.07584 576.743681 
L 436.55504 577.272955 
L 436.03424 575.308246 
L 435.5184 575.647912 
L 435.00256 576.604423 
L 434.48176 577.021129 
L 433.96592 575.930534 
L 433.45008 578.653956 
L 432.93424 576.503222 
L 432.42336 577.930666 
L 431.90752 574.476914 
L 431.39664 578.360568 
L 430.8808 576.026962 
L 430.36992 575.103673 
L 429.85904 577.162631 
L 429.34816 580.257118 
L 428.3264 574.970184 
L 427.81552 576.71807 
L 427.30464 581.001915 
L 426.79872 575.861261 
L 426.28784 577.284671 
L 425.78192 577.376462 
L 425.276 573.692416 
L 424.77008 577.689244 
L 424.26416 577.334888 
L 423.25232 575.429656 
L 422.75136 576.963769 
L 422.24544 575.212548 
L 421.74448 572.750538 
L 421.24352 575.86828 
L 420.7376 576.108411 
L 420.23664 573.286776 
L 419.73568 575.283731 
L 419.23472 573.987188 
L 418.73872 576.408415 
L 418.23776 577.316464 
L 417.74176 577.357293 
L 417.2408 578.72681 
L 416.7448 578.00173 
L 416.2488 574.776167 
L 415.74784 576.543723 
L 415.25184 576.372507 
L 414.7608 574.362891 
L 414.2648 578.385409 
L 413.7688 577.647886 
L 413.27776 576.458124 
L 412.78176 578.722595 
L 412.29072 576.948276 
L 411.79968 579.317789 
L 411.30368 578.471061 
L 410.81264 579.122604 
L 410.3216 577.380296 
L 409.83552 580.495713 
L 409.34448 575.591383 
L 408.85344 578.628518 
L 408.36736 575.909413 
L 407.87632 574.986882 
L 407.39024 577.582506 
L 406.90416 579.006072 
L 406.41808 575.171365 
L 405.932 576.068525 
L 405.44592 577.826843 
L 404.95984 578.916777 
L 404.47872 581.247564 
L 403.99264 582.033365 
L 403.51152 580.52208 
L 403.02544 578.290517 
L 402.54432 579.501963 
L 402.0632 575.741722 
L 401.58208 580.206508 
L 401.10096 578.150754 
L 400.61984 581.88529 
L 400.13872 579.287034 
L 399.66256 578.383989 
L 399.18144 580.625978 
L 398.70528 582.219647 
L 398.22416 578.703026 
L 397.748 578.766974 
L 397.27184 580.303991 
L 396.79568 579.676536 
L 396.31952 581.401521 
L 395.84336 578.16232 
L 395.3672 578.588825 
L 394.896 578.621006 
L 394.41984 580.697293 
L 393.94864 580.371719 
L 393.47744 575.877921 
L 393.00128 579.306726 
L 392.53008 578.738341 
L 392.05888 578.477549 
L 391.58768 581.7377 
L 391.11648 579.510046 
L 390.65024 578.645237 
L 390.17904 579.148127 
L 389.7128 577.769113 
L 389.2416 581.243793 
L 388.77536 580.511165 
L 387.84288 581.754089 
L 387.37664 580.140773 
L 386.9104 582.286911 
L 386.44416 580.145134 
L 385.97792 581.534313 
L 385.51168 581.116358 
L 385.0504 578.604385 
L 384.58416 584.649617 
L 384.12288 580.681715 
L 383.6616 581.914839 
L 383.20032 579.71531 
L 382.27776 584.2606 
L 381.81648 581.542863 
L 381.3552 585.474981 
L 380.4376 577.437507 
L 379.97632 583.646444 
L 379.52 581.838381 
L 379.06368 584.191551 
L 378.60736 581.085984 
L 378.14608 581.568999 
L 377.68976 581.855697 
L 376.78208 584.843743 
L 376.32576 582.551966 
L 375.86944 584.264904 
L 375.41808 583.453754 
L 374.96176 583.424744 
L 374.5104 581.148763 
L 374.05904 585.978796 
L 373.60768 583.993476 
L 373.15632 583.012926 
L 372.70496 584.114546 
L 372.2536 583.245476 
L 371.80224 583.723003 
L 371.35088 584.655431 
L 370.90448 587.391909 
L 370.45312 586.660044 
L 370.00672 583.455856 
L 369.11392 585.701994 
L 368.66256 585.668771 
L 368.21616 586.491459 
L 367.76976 586.142744 
L 367.32832 586.871366 
L 366.88192 589.318347 
L 366.43552 587.316144 
L 365.99408 588.323164 
L 365.54768 587.854531 
L 365.10624 584.419346 
L 364.65984 587.254723 
L 364.2184 587.629421 
L 363.77696 588.762118 
L 363.33552 587.189249 
L 362.89408 585.094314 
L 362.45264 587.329203 
L 362.01616 590.150303 
L 361.57472 585.597683 
L 361.13328 588.572911 
L 360.6968 588.881529 
L 360.26032 589.346289 
L 359.81888 591.451759 
L 358.94592 589.738973 
L 358.50944 592.288262 
L 358.07296 591.250391 
L 357.63648 589.851592 
L 357.2 590.202349 
L 356.76848 590.159411 
L 356.332 595.469317 
L 355.90048 594.291174 
L 355.464 593.47154 
L 355.03248 593.113792 
L 354.60096 595.291529 
L 354.16944 595.553572 
L 353.30144 592.33179 
L 352.87488 594.774915 
L 352.44336 590.680006 
L 352.01184 590.520525 
L 351.58528 592.165419 
L 351.15376 591.408886 
L 350.7272 593.756138 
L 350.29568 594.957194 
L 349.86912 595.449334 
L 349.016 594.510856 
L 348.58944 594.801267 
L 348.16288 595.461763 
L 347.73632 595.204446 
L 347.30976 594.133019 
L 346.8832 593.590226 
L 346.4616 595.266268 
L 346.03504 592.374349 
L 345.61344 595.871898 
L 345.19184 594.906989 
L 344.76528 596.411292 
L 344.34368 596.029541 
L 343.92208 596.498115 
L 343.50048 596.791893 
L 343.07888 595.553847 
L 342.24064 598.83603 
L 341.81904 596.402024 
L 341.4024 598.822725 
L 340.56416 596.902223 
L 340.14256 597.529225 
L 339.72592 600.906576 
L 339.30928 600.33015 
L 338.89264 600.316293 
L 338.476 602.337136 
L 338.05936 597.623052 
L 337.64272 600.825514 
L 337.23104 600.186454 
L 336.8144 601.220827 
L 336.39776 600.669524 
L 335.98608 600.319292 
L 335.5744 598.214621 
L 335.15776 600.608522 
L 334.74608 600.417266 
L 334.3344 597.114578 
L 333.51104 598.526059 
L 333.09936 600.53548 
L 332.68768 599.707834 
L 332.276 601.06417 
L 331.86928 600.83215 
L 331.4576 603.845824 
L 331.05088 600.918559 
L 330.6392 602.292476 
L 330.23248 602.544768 
L 329.82576 602.996732 
L 329.41408 602.415645 
L 329.00736 600.079046 
L 328.60064 601.524356 
L 328.19392 600.493746 
L 327.79216 603.455832 
L 327.38544 603.393606 
L 326.57696 605.425742 
L 326.17024 599.989012 
L 325.76848 603.548582 
L 325.36176 605.555732 
L 324.96 605.824304 
L 324.15648 599.692761 
L 322.9512 602.80761 
L 322.54944 601.550551 
L 322.14768 602.111602 
L 321.74592 602.94482 
L 321.34912 605.480914 
L 320.94736 604.497112 
L 320.55056 605.19558 
L 319.752 607.015876 
L 319.3552 605.2546 
L 318.9584 605.09817 
L 318.5616 608.424152 
L 318.1648 605.155686 
L 317.768 603.328206 
L 317.3712 603.0083 
L 316.97936 604.043792 
L 316.58256 603.925209 
L 316.18576 603.515483 
L 315.79392 606.539527 
L 315.40208 605.315031 
L 315.00528 606.372919 
L 314.61344 606.942147 
L 314.2216 606.301107 
L 313.82976 608.472476 
L 313.43792 606.265292 
L 313.04608 608.076793 
L 312.65424 604.933955 
L 312.2624 603.626925 
L 311.87056 603.593212 
L 311.48368 607.823692 
L 311.09184 604.336908 
L 310.7 606.887481 
L 310.31312 604.954395 
L 309.92624 609.337093 
L 309.5344 610.622898 
L 309.14752 610.894523 
L 308.76064 608.251239 
L 308.37376 609.524725 
L 307.98688 609.508414 
L 307.6 609.31692 
L 307.21312 607.29209 
L 306.8312 608.16581 
L 306.05744 606.904763 
L 305.67552 604.597887 
L 305.28864 604.516887 
L 304.90672 603.914465 
L 304.5248 607.871704 
L 304.13792 609.072689 
L 303.756 609.640532 
L 303.37408 609.464008 
L 302.99216 612.853564 
L 302.61024 611.172503 
L 302.22832 607.770724 
L 301.85136 610.611003 
L 301.46944 607.841325 
L 301.08752 608.156399 
L 300.32864 608.301102 
L 299.95168 606.042077 
L 299.56976 606.843768 
L 299.1928 604.252343 
L 298.81584 607.302888 
L 298.43888 608.973799 
L 298.06192 610.000694 
L 297.68496 608.775808 
L 297.308 609.144881 
L 296.93104 610.526229 
L 296.55408 609.095136 
L 296.17712 608.381789 
L 295.80512 610.574719 
L 295.42816 610.795202 
L 295.05616 604.970016 
L 294.6792 602.242862 
L 294.3072 601.497323 
L 293.93024 604.168287 
L 293.18624 602.314819 
L 292.81424 604.940746 
L 292.07024 606.124346 
L 291.69824 603.788905 
L 291.32624 604.877006 
L 290.9592 609.868089 
L 290.5872 610.422296 
L 290.22016 609.38423 
L 289.84816 607.148463 
L 289.48112 608.108266 
L 289.10912 604.279965 
L 288.74208 606.593608 
L 288.00304 600.850021 
L 287.636 601.64863 
L 287.26896 600.042541 
L 286.90192 601.320716 
L 286.53984 607.45249 
L 285.80576 605.188876 
L 285.43872 607.813325 
L 285.07664 605.621095 
L 284.7096 608.437525 
L 284.34752 608.985413 
L 283.98048 606.456071 
L 283.6184 610.591178 
L 283.25632 605.684207 
L 282.16512 600.899249 
L 281.80304 602.461368 
L 281.44096 600.876348 
L 281.07888 603.559528 
L 280.72176 601.76609 
L 280.35968 604.676114 
L 279.9976 604.796699 
L 279.64048 605.14351 
L 279.2784 605.028229 
L 278.92128 609.80675 
L 278.5592 608.311675 
L 278.20208 609.218531 
L 277.84496 605.9056 
L 277.48288 603.963203 
L 277.12576 604.546037 
L 276.76864 603.965338 
L 276.41152 600.08434 
L 276.0544 599.127326 
L 275.69728 599.296693 
L 275.34512 596.593645 
L 274.988 597.233178 
L 274.63088 600.312442 
L 274.27872 599.09681 
L 273.9216 600.527398 
L 273.56944 603.065074 
L 273.21232 603.83306 
L 272.86016 606.397989 
L 272.508 606.076735 
L 272.15088 604.864717 
L 271.79872 606.198604 
L 271.44656 606.183757 
L 271.0944 605.456294 
L 270.74224 604.214399 
L 270.39008 605.792973 
L 270.04288 602.676925 
L 269.69072 597.589549 
L 269.33856 597.619444 
L 268.99136 595.315306 
L 268.6392 598.927685 
L 268.28704 598.921501 
L 267.93984 599.219046 
L 267.59264 596.827093 
L 267.24048 599.618086 
L 266.89328 604.683894 
L 266.54608 604.138684 
L 266.19888 607.130222 
L 265.85168 606.48375 
L 265.50448 605.043267 
L 265.15728 605.406799 
L 264.81008 606.558752 
L 264.46288 604.677298 
L 264.11568 598.431248 
L 263.77344 597.875996 
L 263.42624 598.712321 
L 263.084 594.252549 
L 262.7368 597.417828 
L 262.39456 595.352793 
L 262.04736 595.144686 
L 261.70512 595.731227 
L 261.02064 598.97169 
L 260.6784 598.442472 
L 260.33616 601.557212 
L 259.99392 603.251078 
L 259.65168 601.79103 
L 259.30944 604.722923 
L 258.9672 606.138 
L 258.28768 603.017562 
L 257.94544 599.734625 
L 257.6032 598.777182 
L 257.26592 595.584069 
L 256.92864 595.997716 
L 255.91184 589.182603 
L 255.5696 589.768675 
L 255.23232 590.782573 
L 254.55776 598.045628 
L 254.22048 601.174534 
L 253.8832 599.86218 
L 253.55088 604.946744 
L 253.2136 602.819996 
L 252.87632 603.880038 
L 252.544 603.923169 
L 252.20672 602.054259 
L 251.86944 601.36251 
L 251.53712 599.904188 
L 251.2048 594.999417 
L 250.86752 595.684047 
L 250.5352 592.881813 
L 250.20288 592.962456 
L 249.87056 590.820964 
L 249.53328 591.320984 
L 249.20096 589.787397 
L 248.86864 591.987542 
L 248.54128 595.455668 
L 247.87664 600.138438 
L 247.54432 600.103186 
L 247.212 599.107267 
L 246.88464 600.493378 
L 246.55232 599.795444 
L 246.22496 599.919671 
L 245.89264 596.264858 
L 245.56528 594.588311 
L 245.23792 591.96434 
L 244.9056 590.712438 
L 244.57824 591.080765 
L 244.25088 588.10088 
L 243.92352 589.614208 
L 243.59616 586.84519 
L 241.95936 599.905782 
L 241.63696 600.733681 
L 241.3096 602.599087 
L 240.9872 600.134191 
L 240.65984 602.844231 
L 240.33744 601.225214 
L 240.01008 594.140331 
L 239.68768 596.493981 
L 239.36528 591.658411 
L 239.03792 590.248465 
L 238.71552 587.945293 
L 238.39312 586.828805 
L 238.07072 585.145222 
L 237.74832 587.976096 
L 237.42592 589.208284 
L 237.10352 591.451556 
L 236.78112 592.513156 
L 236.14128 599.046212 
L 235.81888 599.149753 
L 235.17904 601.805024 
L 234.85664 599.766621 
L 234.5392 599.531661 
L 234.22176 596.956659 
L 233.89936 593.424736 
L 233.58192 592.366392 
L 233.26448 592.869923 
L 232.94704 585.548988 
L 232.62464 588.065836 
L 231.98976 583.786192 
L 231.67232 583.573755 
L 231.35984 584.319628 
L 231.0424 588.33894 
L 230.72496 588.792773 
L 229.46016 598.257743 
L 229.14768 599.245642 
L 228.83024 599.584457 
L 228.51776 601.704506 
L 228.20528 600.174376 
L 227.88784 601.204299 
L 227.57536 599.058834 
L 227.26288 598.530034 
L 226.9504 593.531454 
L 226.32544 589.998721 
L 226.01296 589.271048 
L 225.70048 587.557871 
L 225.388 584.637542 
L 225.07552 585.073119 
L 224.768 588.171585 
L 224.45552 585.895127 
L 224.14304 585.40226 
L 223.83552 591.472411 
L 223.52304 593.260498 
L 223.21552 596.592624 
L 222.28304 600.653835 
L 221.97552 600.124293 
L 221.668 603.53707 
L 221.36048 603.258688 
L 221.05296 599.496844 
L 220.43792 595.208642 
L 220.1304 592.468605 
L 219.82288 587.933212 
L 219.51536 588.023256 
L 219.20784 584.425183 
L 218.90032 584.294483 
L 218.59776 581.828009 
L 217.68016 589.872542 
L 216.76752 592.768592 
L 216.46 597.006952 
L 216.15744 598.121786 
L 215.85488 601.276184 
L 215.55232 606.887362 
L 214.94224 602.809545 
L 214.63968 602.827595 
L 214.33712 600.116714 
L 214.03952 595.295659 
L 213.73696 593.722952 
L 213.4344 590.635222 
L 213.13184 589.663032 
L 212.82928 586.175755 
L 212.53168 586.097666 
L 211.93152 584.949303 
L 211.62896 585.13189 
L 211.33136 587.08826 
L 211.0288 587.58604 
L 210.7312 590.22776 
L 210.4336 590.046048 
L 209.53584 601.14732 
L 209.23824 603.056254 
L 208.94064 603.031008 
L 208.64304 603.524375 
L 208.34544 603.476023 
L 208.04784 600.40605 
L 207.75024 599.310979 
L 207.45264 599.306995 
L 207.15504 592.622867 
L 206.8624 592.014189 
L 206.2672 585.399994 
L 205.97456 582.117792 
L 205.67696 581.70959 
L 205.38432 584.355875 
L 205.09168 582.693061 
L 204.79408 585.64731 
L 204.50144 584.326504 
L 204.2088 586.962357 
L 203.61856 597.229122 
L 203.32592 597.109252 
L 203.03328 601.472736 
L 202.74064 601.350882 
L 202.448 603.470882 
L 202.15536 600.786266 
L 201.86272 602.066932 
L 201.57008 600.749082 
L 201.2824 596.229874 
L 200.98976 594.0607 
L 200.40944 588.135956 
L 200.1168 586.477383 
L 199.82416 583.357485 
L 199.53648 583.401408 
L 198.95616 580.483423 
L 198.3808 582.334443 
L 198.08816 583.092185 
L 197.80048 588.227069 
L 197.5128 587.163688 
L 196.93744 593.789094 
L 196.64976 594.452643 
L 196.0744 600.932588 
L 195.78672 602.783753 
L 195.49904 603.521402 
L 195.21136 607.268173 
L 194.92864 606.187764 
L 194.64096 601.723924 
L 194.35328 599.690384 
L 194.07056 601.534934 
L 193.78288 594.64525 
L 193.50016 595.09924 
L 193.21248 588.611886 
L 192.92976 586.18466 
L 192.64208 585.375501 
L 192.35936 585.552958 
L 192.07664 586.817123 
L 191.79392 584.119447 
L 191.5112 584.906387 
L 191.22352 586.78321 
L 189.24944 605.650369 
L 188.96672 606.262556 
L 188.684 608.20425 
L 188.40624 604.850417 
L 188.12352 605.537264 
L 187.8408 603.024987 
L 187.56304 598.92327 
L 187.28032 597.160983 
L 186.7248 590.516991 
L 186.16432 585.026964 
L 185.88656 584.627523 
L 185.6088 584.032847 
L 185.32608 586.298002 
L 185.04832 584.593043 
L 184.4928 585.982462 
L 184.21504 591.018858 
L 183.93728 589.909815 
L 182.55344 609.315259 
L 182.27568 605.42273 
L 182.00288 605.21348 
L 181.72512 607.609033 
L 181.45232 605.357689 
L 181.17456 599.690255 
L 180.90176 598.991187 
L 180.624 596.786116 
L 179.80064 586.542931 
L 179.52784 585.17354 
L 179.25504 585.16095 
L 178.98224 583.775558 
L 178.70944 589.218306 
L 178.43664 588.98676 
L 178.16384 590.860403 
L 176.79984 609.708144 
L 176.52704 606.706122 
L 176.2592 611.156455 
L 175.9864 608.636596 
L 175.7136 607.229464 
L 175.17296 598.653954 
L 174.90512 597.575772 
L 173.82384 586.072322 
L 173.556 588.572553 
L 173.28816 588.817032 
L 173.01536 589.849533 
L 172.74752 587.559411 
L 172.47968 592.596595 
L 172.21184 593.511475 
L 171.67616 600.520569 
L 171.40832 605.326438 
L 171.14048 606.919443 
L 170.87264 607.797524 
L 170.6048 609.279203 
L 170.34192 608.66422 
L 170.07408 608.458739 
L 169.54336 606.550339 
L 169.27552 603.42937 
L 169.00768 598.969065 
L 168.7448 598.516229 
L 167.68336 586.689392 
L 167.42048 586.227433 
L 167.1576 590.011162 
L 166.88976 587.677185 
L 166.62688 588.585086 
L 166.364 593.089332 
L 166.10112 594.077102 
L 165.83824 596.380471 
L 165.57536 601.55319 
L 165.31248 602.992172 
L 165.0496 607.892785 
L 164.78672 606.180402 
L 164.52384 611.060374 
L 163.99808 611.564628 
L 163.74016 611.084126 
L 163.47728 609.495708 
L 163.2144 606.784891 
L 162.95648 600.838065 
L 162.6936 598.520953 
L 162.43072 593.167263 
L 162.1728 594.788937 
L 161.90992 589.310928 
L 161.652 589.15916 
L 161.39408 590.175717 
L 161.1312 586.302223 
L 160.87328 589.171895 
L 160.61536 588.174702 
L 160.35248 589.406582 
L 160.09456 593.782558 
L 159.83664 592.540581 
L 159.57872 597.31171 
L 158.80496 605.39638 
L 158.0312 613.123282 
L 157.52032 610.306917 
L 157.2624 613.68968 
L 156.4936 602.592577 
L 156.23568 606.722907 
L 155.98272 599.485929 
L 155.7248 598.231017 
L 155.21392 594.755396 
L 154.96096 588.52333 
L 154.70304 590.46216 
L 154.45008 589.949303 
L 154.19712 590.836847 
L 153.94416 592.36333 
L 153.68624 593.034219 
L 153.18032 598.048442 
L 152.6744 601.174225 
L 152.16848 609.97613 
L 151.91552 610.31955 
L 151.4096 614.436091 
L 151.15664 613.308665 
L 150.90864 613.689104 
L 150.65568 613.077772 
L 149.6488 602.660005 
L 149.4008 597.783188 
L 149.14784 599.026711 
L 148.64688 594.668113 
L 148.15088 595.015792 
L 147.89792 590.662243 
L 147.64992 591.656444 
L 147.14896 595.266898 
L 146.90096 596.078782 
L 146.65296 599.122209 
L 146.40496 600.32317 
L 146.15696 604.104193 
L 145.90896 610.416345 
L 145.66096 612.303421 
L 145.41296 612.247396 
L 145.16496 613.000399 
L 144.91696 614.5213 
L 144.66896 614.237077 
L 144.42592 616.226385 
L 143.92992 609.664309 
L 143.68192 609.115517 
L 143.43888 606.957058 
L 143.19088 602.715942 
L 142.94288 603.80651 
L 142.45184 597.346257 
L 142.2088 598.302961 
L 141.96576 596.377369 
L 141.71776 596.33666 
L 141.47472 598.56605 
L 141.22672 598.322696 
L 140.74064 600.141801 
L 140.4976 605.478545 
L 140.2496 605.954873 
L 140.00656 608.091193 
L 139.52048 615.338467 
L 139.27744 615.75876 
L 138.79136 619.296276 
L 138.54832 618.709421 
L 138.30528 615.254031 
L 138.06224 617.336122 
L 137.82416 613.372939 
L 137.58112 612.996283 
L 137.33808 605.011538 
L 137.09504 604.492645 
L 136.85696 607.080765 
L 136.61392 606.196125 
L 136.37088 603.470358 
L 136.1328 604.028269 
L 135.88976 599.043166 
L 135.65168 598.458874 
L 135.40864 602.180507 
L 135.17056 601.185377 
L 134.93248 601.717897 
L 134.45136 607.657232 
L 134.21328 608.043842 
L 133.97024 612.464441 
L 133.73216 613.22114 
L 133.01792 619.222144 
L 132.54176 624.817873 
L 132.0656 617.808216 
L 131.82752 618.594991 
L 131.58944 617.77578 
L 131.35136 612.570398 
L 130.63712 608.964457 
L 130.16592 603.317917 
L 129.92784 606.27669 
L 129.69472 607.233857 
L 129.45664 606.703246 
L 129.22352 607.010149 
L 128.98544 607.072648 
L 128.28112 614.859116 
L 128.04304 615.962904 
L 127.33872 622.367285 
L 127.1056 622.10655 
L 126.87248 623.064416 
L 126.63936 623.374641 
L 126.40624 619.829684 
L 126.16816 620.140955 
L 125.93504 621.131434 
L 125.70192 616.470213 
L 125.4688 614.590142 
L 125.23568 614.117281 
L 124.76944 610.131051 
L 124.54128 609.093568 
L 124.30816 610.121722 
L 123.84192 605.762305 
L 123.6088 610.524713 
L 123.38064 610.252255 
L 122.9144 615.652967 
L 122.68624 618.048657 
L 122.45312 617.133194 
L 121.99184 622.114484 
L 121.76368 622.988182 
L 121.53056 619.218138 
L 121.3024 621.541571 
L 121.06928 621.544449 
L 120.84112 621.80938 
L 120.61296 619.469771 
L 120.37984 622.041776 
L 120.15168 615.544207 
L 119.92352 614.746435 
L 119.69536 613.323097 
L 119.4672 614.241417 
L 119.23904 610.693675 
L 118.77776 614.240198 
L 118.5496 612.993527 
L 118.32144 613.252973 
L 117.87008 613.052868 
L 117.41376 618.26373 
L 117.1856 618.92588 
L 116.95744 621.978621 
L 116.72928 623.278678 
L 116.50608 625.588283 
L 116.27792 625.109055 
L 116.04976 624.93123 
L 115.82656 627.170678 
L 115.5984 626.932489 
L 115.3752 624.408824 
L 115.14704 627.837265 
L 114.92384 627.129017 
L 114.69568 624.904613 
L 114.47248 621.077529 
L 114.24432 621.030431 
L 114.02112 622.442129 
L 113.79792 615.526441 
L 113.56976 617.218931 
L 113.34656 615.422127 
L 113.12336 612.483873 
L 112.90016 611.651025 
L 112.672 613.793924 
L 112.4488 614.80246 
L 112.0024 618.811159 
L 111.7792 619.07864 
L 111.3328 623.72682 
L 111.1096 623.103378 
L 110.6632 626.706394 
L 110.44 625.533973 
L 109.99856 630.578321 
L 109.77536 629.375852 
L 109.55216 630.970197 
L 109.33392 630.993997 
L 108.88752 628.734939 
L 108.66928 629.911233 
L 108.44608 627.161519 
L 108.22784 626.184908 
L 108.00464 623.568848 
L 107.7864 622.678908 
L 107.5632 619.390677 
L 107.34496 623.982302 
L 107.12176 619.337493 
L 106.90352 618.001767 
L 106.68528 617.704644 
L 106.0256 622.087767 
L 105.80736 621.104253 
L 105.58416 623.006151 
L 105.36592 623.509872 
L 104.7112 629.540443 
L 104.49296 629.086612 
L 104.27472 629.164434 
L 104.05648 631.745562 
L 103.83824 631.859576 
L 103.62 629.308259 
L 103.40176 633.781767 
L 103.18352 631.505801 
L 102.97024 632.181957 
L 102.752 631.351364 
L 102.53376 629.925979 
L 102.31552 627.613778 
L 102.10224 628.979107 
L 101.884 627.780855 
L 101.66576 623.089322 
L 101.23424 624.784042 
L 101.02096 624.44725 
L 100.80272 624.372403 
L 100.58944 622.702828 
L 100.3712 623.07977 
L 100.15792 622.24087 
L 99.94464 625.921821 
L 99.7264 627.307531 
L 99.51312 624.687027 
L 98.44176 630.979572 
L 98.22848 631.009086 
L 98.01024 631.222327 
L 97.79696 633.174942 
L 97.58368 631.20018 
L 97.15712 635.493487 
L 96.94384 635.769629 
L 96.73056 633.567911 
L 96.30896 634.348852 
L 96.09568 632.733928 
L 95.8824 632.111787 
L 95.66912 630.996761 
L 95.45584 633.3966 
L 95.03424 630.277208 
L 94.82096 627.953803 
L 94.61264 630.618127 
L 94.39936 628.133309 
L 93.76448 630.042037 
L 93.55616 627.636758 
L 93.34288 629.368906 
L 93.13456 629.355612 
L 92.92624 632.171705 
L 92.71296 631.314577 
L 92.50464 632.427819 
L 92.29632 631.940213 
L 91.87472 634.173226 
L 91.6664 633.876777 
L 91.45808 636.875431 
L 91.2448 637.907526 
L 91.03648 637.760361 
L 90.82816 638.466977 
L 90.61984 635.623343 
L 90.41152 636.734053 
L 90.2032 635.968933 
L 89.99488 634.60539 
L 89.78656 635.513569 
L 89.57824 635.66776 
L 89.36992 634.430921 
L 89.1616 634.366841 
L 88.95328 633.257905 
L 88.74496 630.48458 
L 88.5416 632.276146 
L 88.33328 631.932912 
L 88.12496 632.706844 
L 87.91664 632.787405 
L 87.71328 631.272342 
L 87.50496 632.199675 
L 87.29664 631.803283 
L 87.09328 630.444566 
L 86.6816 636.181726 
L 86.47328 634.133578 
L 86.26992 634.821256 
L 86.0616 637.046316 
L 85.85824 637.695316 
L 85.64992 637.060959 
L 85.44656 638.128821 
L 85.2432 637.177041 
L 85.03488 637.95643 
L 84.83152 639.311682 
L 84.62816 639.69739 
L 84.21648 638.53061 
L 84.01312 639.975636 
L 83.80976 639.049016 
L 83.6064 637.420712 
L 83.40304 637.484677 
L 83.19968 635.018316 
L 82.99632 637.558238 
L 82.79296 636.061173 
L 82.5896 636.34432 
L 82.38624 634.370739 
L 82.18288 634.591189 
L 81.97952 636.094229 
L 81.77616 635.449591 
L 81.5728 636.09062 
L 81.3744 635.702144 
L 81.17104 636.257432 
L 80.96768 636.246603 
L 80.76432 637.353988 
L 80.56592 635.17837 
L 80.36256 637.482551 
L 80.1592 636.547821 
L 79.9608 636.875305 
L 79.75744 636.942238 
L 79.15232 640.611916 
L 78.95392 639.649724 
L 78.75056 642.286569 
L 78.35376 639.860916 
L 77.952 641.837135 
L 77.7536 642.14935 
L 77.35184 639.281334 
L 77.15344 638.227959 
L 76.75168 640.325378 
L 76.55328 639.993271 
L 76.35488 638.829243 
L 76.15648 638.770263 
L 75.95808 636.828605 
L 75.56128 639.268051 
L 75.36288 639.14565 
L 74.96608 640.751201 
L 74.76768 640.495006 
L 74.56928 639.7012 
L 74.37088 642.102501 
L 74.17744 640.593784 
L 73.97904 642.15024 
L 73.78064 642.7384 
L 73.58224 642.712129 
L 73.3888 642.800404 
L 73.1904 641.490229 
L 72.992 643.419546 
L 72.79856 641.107823 
L 72.60016 641.826027 
L 72.40176 641.095381 
L 72.20832 642.16254 
L 72.00992 641.543427 
L 72.00992 641.543427 
" clip-path="url(#p98d7306264)" style="fill: none; stroke-dasharray: 3.7,1.6; stroke-dashoffset: 0; stroke: #808080"/>
   </g>
   <g id="line2d_24">
    <path d="M 72 598.8 
L 518.4 598.8 
" clip-path="url(#p98d7306264)" style="fill: none; stroke-dasharray: 5.55,2.4; stroke-dashoffset: 0; stroke: #000000; stroke-width: 1.5"/>
   </g>
   <g id="patch_9">
    <path d="M 72 640.8 
L 72 556.8 
" style="fill: none; stroke: #000000; stroke-width: 0.8; stroke-linejoin: miter; stroke-linecap: square"/>
   </g>
   <g id="patch_10">
    <path d="M 518.4 640.8 
L 518.4 556.8 
" style="fill: none; stroke: #000000; stroke-width: 0.8; stroke-linejoin: miter; stroke-linecap: square"/>
   </g>
   <g id="patch_11">
    <path d="M 72 640.8 
L 518.4 640.8 
" style="fill: none; stroke: #000000; stroke-width: 0.8; stroke-linejoin: miter; stroke-linecap: square"/>
   </g>
   <g id="patch_12">
    <path d="M 72 556.8 
L 518.4 556.8 
" style="fill: none; stroke: #000000; stroke-width: 0.8; stroke-linejoin: miter; stroke-linecap: square"/>
   </g>
  </g>
  <g id="text_18">
   <!-- Photon energy (eV) -->
   <g transform="translate(229.8825 710.304375) scale(0.12 -0.12)">
    <defs>
     <path id="DejaVuSans-50" d="M 1259 4147 
L 1259 2394 
L 2053 2394 
Q 2494 2394 2734 2622 
Q 2975 2850 2975 3272 
Q 2975 3691 2734 3919 
Q 2494 4147 2053 4147 
L 1259 4147 
z
M 628 4666 
L 2053 4666 
Q 2838 4666 3239 4311 
Q 3641 3956 3641 3272 
Q 3641 2581 3239 2228 
Q 2838 1875 2053 1875 
L 1259 1875 
L 1259 0 
L 628 0 
L 628 4666 
z
" transform="scale(0.015625)"/>
     <path id="DejaVuSans-68" d="M 3513 2113 
L 3513 0 
L 2938 0 
L 2938 2094 
Q 2938 2591 2744 2837 
Q 2550 3084 2163 3084 
Q 1697 3084 1428 2787 
Q 1159 2491 1159 1978 
L 1159 0 
L 581 0 
L 581 4863 
L 1159 4863 
L 1159 2956 
Q 1366 3272 1645 3428 
Q 1925 3584 2291 3584 
Q 2894 3584 3203 3211 
Q 3513 2838 3513 2113 
z
" transform="scale(0.015625)"/>
     <path id="DejaVuSans-67" d="M 2906 1791 
Q 2906 2416 2648 2759 
Q 2391 3103 1925 3103 
Q 1463 3103 1205 2759 
Q 947 2416 947 1791 
Q 947 1169 1205 825 
Q 1463 481 1925 481 
Q 2391 481 2648 825 
Q 2906 1169 2906 1791 
z
M 3481 434 
Q 3481 -459 3084 -895 
Q 2688 -1331 1869 -1331 
Q 1566 -1331 1297 -1286 
Q 1028 -1241 775 -1147 
L 775 -588 
Q 1028 -725 1275 -790 
Q 1522 -856 1778 -856 
Q 2344 -856 2625 -561 
Q 2906 -266 2906 331 
L 2906 616 
Q 2728 306 2450 153 
Q 2172 0 1784 0 
Q 1141 0 747 490 
Q 353 981 353 1791 
Q 353 2603 747 3093 
Q 1141 3584 1784 3584 
Q 2172 3584 2450 3431 
Q 2728 3278 2906 2969 
L 2906 3500 
L 3481 3500 
L 3481 434 
z
" transform="scale(0.015625)"/>
     <path id="DejaVuSans-56" d="M 1831 0 
L 50 4666 
L 709 4666 
L 2188 738 
L 3669 4666 
L 4325 4666 
L 2547 0 
L 1831 0 
z
" transform="scale(0.015625)"/>
    </defs>
    <use xlink:href="#DejaVuSans-50"/>
    <use xlink:href="#DejaVuSans-68" transform="translate(60.302734 0)"/>
    <use xlink:href="#DejaVuSans-6f" transform="translate(123.681641 0)"/>
    <use xlink:href="#DejaVuSans-74" transform="translate(184.863281 0)"/>
    <use xlink:href="#DejaVuSans-6f" transform="translate(224.072266 0)"/>
    <use xlink:href="#DejaVuSans-6e" transform="translate(285.253906 0)"/>
    <use xlink:href="#DejaVuSans-20" transform="translate(348.632812 0)"/>
    <use xlink:href="#DejaVuSans-65" transform="translate(380.419922 0)"/>
    <use xlink:href="#DejaVuSans-6e" transform="translate(441.943359 0)"/>
    <use xlink:href="#DejaVuSans-65" transform="translate(505.322266 0)"/>
    <use xlink:href="#DejaVuSans-72" transform="translate(566.845703 0)"/>
    <use xlink:href="#DejaVuSans-67" transform="translate(606.208984 0)"/>
    <use xlink:href="#DejaVuSans-79" transform="translate(669.685547 0)"/>
    <use xlink:href="#DejaVuSans-20" transform="translate(728.865234 0)"/>
    <use xlink:href="#DejaVuSans-28" transform="translate(760.652344 0)"/>
    <use xlink:href="#DejaVuSans-65" transform="translate(799.666016 0)"/>
    <use xlink:href="#DejaVuSans-56" transform="translate(861.189453 0)"/>
    <use xlink:href="#DejaVuSans-29" transform="translate(929.597656 0)"/>
   </g>
  </g>
  <g id="text_19">
   <!-- Excitation power 1.3 mW -->
   <g transform="translate(212.689687 23.518125) scale(0.12 -0.12)">
    <defs>
     <path id="DejaVuSans-45" d="M 628 4666 
L 3578 4666 
L 3578 4134 
L 1259 4134 
L 1259 2753 
L 3481 2753 
L 3481 2222 
L 1259 2222 
L 1259 531 
L 3634 531 
L 3634 0 
L 628 0 
L 628 4666 
z
" transform="scale(0.015625)"/>
     <path id="DejaVuSans-78" d="M 3513 3500 
L 2247 1797 
L 3578 0 
L 2900 0 
L 1881 1375 
L 863 0 
L 184 0 
L 1544 1831 
L 300 3500 
L 978 3500 
L 1906 2253 
L 2834 3500 
L 3513 3500 
z
" transform="scale(0.015625)"/>
     <path id="DejaVuSans-70" d="M 1159 525 
L 1159 -1331 
L 581 -1331 
L 581 3500 
L 1159 3500 
L 1159 2969 
Q 1341 3281 1617 3432 
Q 1894 3584 2278 3584 
Q 2916 3584 3314 3078 
Q 3713 2572 3713 1747 
Q 3713 922 3314 415 
Q 2916 -91 2278 -91 
Q 1894 -91 1617 61 
Q 1341 213 1159 525 
z
M 3116 1747 
Q 3116 2381 2855 2742 
Q 2594 3103 2138 3103 
Q 1681 3103 1420 2742 
Q 1159 2381 1159 1747 
Q 1159 1113 1420 752 
Q 1681 391 2138 391 
Q 2594 391 2855 752 
Q 3116 1113 3116 1747 
z
" transform="scale(0.015625)"/>
     <path id="DejaVuSans-77" d="M 269 3500 
L 844 3500 
L 1563 769 
L 2278 3500 
L 2956 3500 
L 3675 769 
L 4391 3500 
L 4966 3500 
L 4050 0 
L 3372 0 
L 2619 2869 
L 1863 0 
L 1184 0 
L 269 3500 
z
" transform="scale(0.015625)"/>
     <path id="DejaVuSans-6d" d="M 3328 2828 
Q 3544 3216 3844 3400 
Q 4144 3584 4550 3584 
Q 5097 3584 5394 3201 
Q 5691 2819 5691 2113 
L 5691 0 
L 5113 0 
L 5113 2094 
Q 5113 2597 4934 2840 
Q 4756 3084 4391 3084 
Q 3944 3084 3684 2787 
Q 3425 2491 3425 1978 
L 3425 0 
L 2847 0 
L 2847 2094 
Q 2847 2600 2669 2842 
Q 2491 3084 2119 3084 
Q 1678 3084 1418 2786 
Q 1159 2488 1159 1978 
L 1159 0 
L 581 0 
L 581 3500 
L 1159 3500 
L 1159 2956 
Q 1356 3278 1631 3431 
Q 1906 3584 2284 3584 
Q 2666 3584 2933 3390 
Q 3200 3197 3328 2828 
z
" transform="scale(0.015625)"/>
     <path id="DejaVuSans-57" d="M 213 4666 
L 850 4666 
L 1831 722 
L 2809 4666 
L 3519 4666 
L 4500 722 
L 5478 4666 
L 6119 4666 
L 4947 0 
L 4153 0 
L 3169 4050 
L 2175 0 
L 1381 0 
L 213 4666 
z
" transform="scale(0.015625)"/>
    </defs>
    <use xlink:href="#DejaVuSans-45"/>
    <use xlink:href="#DejaVuSans-78" transform="translate(63.183594 0)"/>
    <use xlink:href="#DejaVuSans-63" transform="translate(120.613281 0)"/>
    <use xlink:href="#DejaVuSans-69" transform="translate(175.59375 0)"/>
    <use xlink:href="#DejaVuSans-74" transform="translate(203.376953 0)"/>
    <use xlink:href="#DejaVuSans-61" transform="translate(242.585938 0)"/>
    <use xlink:href="#DejaVuSans-74" transform="translate(303.865234 0)"/>
    <use xlink:href="#DejaVuSans-69" transform="translate(343.074219 0)"/>
    <use xlink:href="#DejaVuSans-6f" transform="translate(370.857422 0)"/>
    <use xlink:href="#DejaVuSans-6e" transform="translate(432.039062 0)"/>
    <use xlink:href="#DejaVuSans-20" transform="translate(495.417969 0)"/>
    <use xlink:href="#DejaVuSans-70" transform="translate(527.205078 0)"/>
    <use xlink:href="#DejaVuSans-6f" transform="translate(590.681641 0)"/>
    <use xlink:href="#DejaVuSans-77" transform="translate(651.863281 0)"/>
    <use xlink:href="#DejaVuSans-65" transform="translate(733.650391 0)"/>
    <use xlink:href="#DejaVuSans-72" transform="translate(795.173828 0)"/>
    <use xlink:href="#DejaVuSans-20" transform="translate(836.287109 0)"/>
    <use xlink:href="#DejaVuSans-31" transform="translate(868.074219 0)"/>
    <use xlink:href="#DejaVuSans-2e" transform="translate(931.697266 0)"/>
    <use xlink:href="#DejaVuSans-33" transform="translate(963.484375 0)"/>
    <use xlink:href="#DejaVuSans-20" transform="translate(1027.107422 0)"/>
    <use xlink:href="#DejaVuSans-6d" transform="translate(1058.894531 0)"/>
    <use xlink:href="#DejaVuSans-57" transform="translate(1156.306641 0)"/>
   </g>
  </g>
 </g>
 <defs>
  <clipPath id="pca056976ff">
   <rect x="72" y="86.4" width="446.4" height="420"/>
  </clipPath>
  <clipPath id="p98d7306264">
   <rect x="72" y="556.8" width="446.4" height="84"/>
  </clipPath>
 </defs>
</svg>
