<?xml version="1.0" encoding="utf-8" standalone="no"?>
<!DOCTYPE svg PUBLIC "-//W3C//DTD SVG 1.1//EN"
  "http://www.w3.org/Graphics/SVG/1.1/DTD/svg11.dtd">
<svg xmlns:xlink="http://www.w3.org/1999/xlink" width="576pt" height="720pt" viewBox="0 0 576 720" xmlns="http://www.w3.org/2000/svg" version="1.1">
 <metadata>
  <rdf:RDF xmlns:dc="http://purl.org/dc/elements/1.1/" xmlns:cc="http://creativecommons.org/ns#" xmlns:rdf="http://www.w3.org/1999/02/22-rdf-syntax-ns#">
   <cc:Work>
    <dc:type rdf:resource="http://purl.org/dc/dcmitype/StillImage"/>
    <dc:date>2026-06-10T15:01:55.374550</dc:date>
    <dc:format>image/svg+xml</dc:format>
    <dc:creator>
     <cc:Agent>
      <dc:title>Matplotlib v3.10.0, https://matplotlib.org/</dc:title>
     </cc:Agent>
    </dc:creator>
   </cc:Work>
  </rdf:RDF>
 </metadata>
 <defs>
  <style type="text/css">*{stroke-linejoin: round; stroke-linecap: butt}</style>
 </defs>
 <g id="figure_1">
  <g id="patch_1">
   <path d="M 0 720 
L 576 720 
L 576 0 
L 0 0 
z
" style="fill: #ffffff"/>
  </g>
  <g id="axes_1">
   <g id="patch_2">
    <path d="M 72 506.4 
L 518.4 506.4 
L 518.4 86.4 
L 72 86.4 
z
" style="fill: #ffffff"/>
   </g>
   <g id="matplotlib.axis_1">
    <g id="xtick_1">
     <g id="line2d_1">
      <defs>
       <path id="m43c87112b0" d="M 0 0 
L 0 3.5 
" style="stroke: #000000; stroke-width: 0.8"/>
      </defs>
      <g>
       <use xlink:href="#m43c87112b0" x="72" y="506.4" style="stroke: #000000; stroke-width: 0.8"/>
      </g>
     </g>
    </g>
    <g id="xtick_2">
     <g id="line2d_2">
      <g>
       <use xlink:href="#m43c87112b0" x="171.2" y="506.4" style="stroke: #000000; stroke-width: 0.8"/>
      </g>
     </g>
    </g>
    <g id="xtick_3">
     <g id="line2d_3">
      <g>
       <use xlink:href="#m43c87112b0" x="270.4" y="506.4" style="stroke: #000000; stroke-width: 0.8"/>
      </g>
     </g>
    </g>
    <g id="xtick_4">
     <g id="line2d_4">
      <g>
       <use xlink:href="#m43c87112b0" x="369.6" y="506.4" style="stroke: #000000; stroke-width: 0.8"/>
      </g>
     </g>
    </g>
    <g id="xtick_5">
     <g id="line2d_5">
      <g>
       <use xlink:href="#m43c87112b0" x="468.8" y="506.4" style="stroke: #000000; stroke-width: 0.8"/>
      </g>
     </g>
    </g>
   </g>
   <g id="matplotlib.axis_2">
    <g id="ytick_1">
     <g id="line2d_6">
      <defs>
       <path id="mf386def830" d="M 0 0 
L -3.5 0 
" style="stroke: #000000; stroke-width: 0.8"/>
      </defs>
      <g>
       <use xlink:href="#mf386def830" x="72" y="485.560723" style="stroke: #000000; stroke-width: 0.8"/>
      </g>
     </g>
     <g id="text_1">
      <!-- 0 -->
      <g transform="translate(58.6375 489.359941) scale(0.1 -0.1)">
       <defs>
        <path id="DejaVuSans-30" d="M 2034 4250 
Q 1547 4250 1301 3770 
Q 1056 3291 1056 2328 
Q 1056 1369 1301 889 
Q 1547 409 2034 409 
Q 2525 409 2770 889 
Q 3016 1369 3016 2328 
Q 3016 3291 2770 3770 
Q 2525 4250 2034 4250 
z
M 2034 4750 
Q 2819 4750 3233 4129 
Q 3647 3509 3647 2328 
Q 3647 1150 3233 529 
Q 2819 -91 2034 -91 
Q 1250 -91 836 529 
Q 422 1150 422 2328 
Q 422 3509 836 4129 
Q 1250 4750 2034 4750 
z
" transform="scale(0.015625)"/>
       </defs>
       <use xlink:href="#DejaVuSans-30"/>
      </g>
     </g>
    </g>
    <g id="ytick_2">
     <g id="line2d_7">
      <g>
       <use xlink:href="#mf386def830" x="72" y="392.97453" style="stroke: #000000; stroke-width: 0.8"/>
      </g>
     </g>
     <g id="text_2">
      <!-- 5000 -->
      <g transform="translate(39.55 396.773749) scale(0.1 -0.1)">
       <defs>
        <path id="DejaVuSans-35" d="M 691 4666 
L 3169 4666 
L 3169 4134 
L 1269 4134 
L 1269 2991 
Q 1406 3038 1543 3061 
Q 1681 3084 1819 3084 
Q 2600 3084 3056 2656 
Q 3513 2228 3513 1497 
Q 3513 744 3044 326 
Q 2575 -91 1722 -91 
Q 1428 -91 1123 -41 
Q 819 9 494 109 
L 494 744 
Q 775 591 1075 516 
Q 1375 441 1709 441 
Q 2250 441 2565 725 
Q 2881 1009 2881 1497 
Q 2881 1984 2565 2268 
Q 2250 2553 1709 2553 
Q 1456 2553 1204 2497 
Q 953 2441 691 2322 
L 691 4666 
z
" transform="scale(0.015625)"/>
       </defs>
       <use xlink:href="#DejaVuSans-35"/>
       <use xlink:href="#DejaVuSans-30" transform="translate(63.623047 0)"/>
       <use xlink:href="#DejaVuSans-30" transform="translate(127.246094 0)"/>
       <use xlink:href="#DejaVuSans-30" transform="translate(190.869141 0)"/>
      </g>
     </g>
    </g>
    <g id="ytick_3">
     <g id="line2d_8">
      <g>
       <use xlink:href="#mf386def830" x="72" y="300.388337" style="stroke: #000000; stroke-width: 0.8"/>
      </g>
     </g>
     <g id="text_3">
      <!-- 10000 -->
      <g transform="translate(33.1875 304.187556) scale(0.1 -0.1)">
       <defs>
        <path id="DejaVuSans-31" d="M 794 531 
L 1825 531 
L 1825 4091 
L 703 3866 
L 703 4441 
L 1819 4666 
L 2450 4666 
L 2450 531 
L 3481 531 
L 3481 0 
L 794 0 
L 794 531 
z
" transform="scale(0.015625)"/>
       </defs>
       <use xlink:href="#DejaVuSans-31"/>
       <use xlink:href="#DejaVuSans-30" transform="translate(63.623047 0)"/>
       <use xlink:href="#DejaVuSans-30" transform="translate(127.246094 0)"/>
       <use xlink:href="#DejaVuSans-30" transform="translate(190.869141 0)"/>
       <use xlink:href="#DejaVuSans-30" transform="translate(254.492188 0)"/>
      </g>
     </g>
    </g>
    <g id="ytick_4">
     <g id="line2d_9">
      <g>
       <use xlink:href="#mf386def830" x="72" y="207.802144" style="stroke: #000000; stroke-width: 0.8"/>
      </g>
     </g>
     <g id="text_4">
      <!-- 15000 -->
      <g transform="translate(33.1875 211.601363) scale(0.1 -0.1)">
       <use xlink:href="#DejaVuSans-31"/>
       <use xlink:href="#DejaVuSans-35" transform="translate(63.623047 0)"/>
       <use xlink:href="#DejaVuSans-30" transform="translate(127.246094 0)"/>
       <use xlink:href="#DejaVuSans-30" transform="translate(190.869141 0)"/>
       <use xlink:href="#DejaVuSans-30" transform="translate(254.492188 0)"/>
      </g>
     </g>
    </g>
    <g id="ytick_5">
     <g id="line2d_10">
      <g>
       <use xlink:href="#mf386def830" x="72" y="115.215952" style="stroke: #000000; stroke-width: 0.8"/>
      </g>
     </g>
     <g id="text_5">
      <!-- 20000 -->
      <g transform="translate(33.1875 119.01517) scale(0.1 -0.1)">
       <defs>
        <path id="DejaVuSans-32" d="M 1228 531 
L 3431 531 
L 3431 0 
L 469 0 
L 469 531 
Q 828 903 1448 1529 
Q 2069 2156 2228 2338 
Q 2531 2678 2651 2914 
Q 2772 3150 2772 3378 
Q 2772 3750 2511 3984 
Q 2250 4219 1831 4219 
Q 1534 4219 1204 4116 
Q 875 4013 500 3803 
L 500 4441 
Q 881 4594 1212 4672 
Q 1544 4750 1819 4750 
Q 2544 4750 2975 4387 
Q 3406 4025 3406 3419 
Q 3406 3131 3298 2873 
Q 3191 2616 2906 2266 
Q 2828 2175 2409 1742 
Q 1991 1309 1228 531 
z
" transform="scale(0.015625)"/>
       </defs>
       <use xlink:href="#DejaVuSans-32"/>
       <use xlink:href="#DejaVuSans-30" transform="translate(63.623047 0)"/>
       <use xlink:href="#DejaVuSans-30" transform="translate(127.246094 0)"/>
       <use xlink:href="#DejaVuSans-30" transform="translate(190.869141 0)"/>
       <use xlink:href="#DejaVuSans-30" transform="translate(254.492188 0)"/>
      </g>
     </g>
    </g>
    <g id="text_6">
     <!-- Intensitiy (a.u.) -->
     <g transform="translate(27.107812 334.453125) rotate(-90) scale(0.1 -0.1)">
      <defs>
       <path id="DejaVuSans-49" d="M 628 4666 
L 1259 4666 
L 1259 0 
L 628 0 
L 628 4666 
z
" transform="scale(0.015625)"/>
       <path id="DejaVuSans-6e" d="M 3513 2113 
L 3513 0 
L 2938 0 
L 2938 2094 
Q 2938 2591 2744 2837 
Q 2550 3084 2163 3084 
Q 1697 3084 1428 2787 
Q 1159 2491 1159 1978 
L 1159 0 
L 581 0 
L 581 3500 
L 1159 3500 
L 1159 2956 
Q 1366 3272 1645 3428 
Q 1925 3584 2291 3584 
Q 2894 3584 3203 3211 
Q 3513 2838 3513 2113 
z
" transform="scale(0.015625)"/>
       <path id="DejaVuSans-74" d="M 1172 4494 
L 1172 3500 
L 2356 3500 
L 2356 3053 
L 1172 3053 
L 1172 1153 
Q 1172 725 1289 603 
Q 1406 481 1766 481 
L 2356 481 
L 2356 0 
L 1766 0 
Q 1100 0 847 248 
Q 594 497 594 1153 
L 594 3053 
L 172 3053 
L 172 3500 
L 594 3500 
L 594 4494 
L 1172 4494 
z
" transform="scale(0.015625)"/>
       <path id="DejaVuSans-65" d="M 3597 1894 
L 3597 1613 
L 953 1613 
Q 991 1019 1311 708 
Q 1631 397 2203 397 
Q 2534 397 2845 478 
Q 3156 559 3463 722 
L 3463 178 
Q 3153 47 2828 -22 
Q 2503 -91 2169 -91 
Q 1331 -91 842 396 
Q 353 884 353 1716 
Q 353 2575 817 3079 
Q 1281 3584 2069 3584 
Q 2775 3584 3186 3129 
Q 3597 2675 3597 1894 
z
M 3022 2063 
Q 3016 2534 2758 2815 
Q 2500 3097 2075 3097 
Q 1594 3097 1305 2825 
Q 1016 2553 972 2059 
L 3022 2063 
z
" transform="scale(0.015625)"/>
       <path id="DejaVuSans-73" d="M 2834 3397 
L 2834 2853 
Q 2591 2978 2328 3040 
Q 2066 3103 1784 3103 
Q 1356 3103 1142 2972 
Q 928 2841 928 2578 
Q 928 2378 1081 2264 
Q 1234 2150 1697 2047 
L 1894 2003 
Q 2506 1872 2764 1633 
Q 3022 1394 3022 966 
Q 3022 478 2636 193 
Q 2250 -91 1575 -91 
Q 1294 -91 989 -36 
Q 684 19 347 128 
L 347 722 
Q 666 556 975 473 
Q 1284 391 1588 391 
Q 1994 391 2212 530 
Q 2431 669 2431 922 
Q 2431 1156 2273 1281 
Q 2116 1406 1581 1522 
L 1381 1569 
Q 847 1681 609 1914 
Q 372 2147 372 2553 
Q 372 3047 722 3315 
Q 1072 3584 1716 3584 
Q 2034 3584 2315 3537 
Q 2597 3491 2834 3397 
z
" transform="scale(0.015625)"/>
       <path id="DejaVuSans-69" d="M 603 3500 
L 1178 3500 
L 1178 0 
L 603 0 
L 603 3500 
z
M 603 4863 
L 1178 4863 
L 1178 4134 
L 603 4134 
L 603 4863 
z
" transform="scale(0.015625)"/>
       <path id="DejaVuSans-79" d="M 2059 -325 
Q 1816 -950 1584 -1140 
Q 1353 -1331 966 -1331 
L 506 -1331 
L 506 -850 
L 844 -850 
Q 1081 -850 1212 -737 
Q 1344 -625 1503 -206 
L 1606 56 
L 191 3500 
L 800 3500 
L 1894 763 
L 2988 3500 
L 3597 3500 
L 2059 -325 
z
" transform="scale(0.015625)"/>
       <path id="DejaVuSans-20" transform="scale(0.015625)"/>
       <path id="DejaVuSans-28" d="M 1984 4856 
Q 1566 4138 1362 3434 
Q 1159 2731 1159 2009 
Q 1159 1288 1364 580 
Q 1569 -128 1984 -844 
L 1484 -844 
Q 1016 -109 783 600 
Q 550 1309 550 2009 
Q 550 2706 781 3412 
Q 1013 4119 1484 4856 
L 1984 4856 
z
" transform="scale(0.015625)"/>
       <path id="DejaVuSans-61" d="M 2194 1759 
Q 1497 1759 1228 1600 
Q 959 1441 959 1056 
Q 959 750 1161 570 
Q 1363 391 1709 391 
Q 2188 391 2477 730 
Q 2766 1069 2766 1631 
L 2766 1759 
L 2194 1759 
z
M 3341 1997 
L 3341 0 
L 2766 0 
L 2766 531 
Q 2569 213 2275 61 
Q 1981 -91 1556 -91 
Q 1019 -91 701 211 
Q 384 513 384 1019 
Q 384 1609 779 1909 
Q 1175 2209 1959 2209 
L 2766 2209 
L 2766 2266 
Q 2766 2663 2505 2880 
Q 2244 3097 1772 3097 
Q 1472 3097 1187 3025 
Q 903 2953 641 2809 
L 641 3341 
Q 956 3463 1253 3523 
Q 1550 3584 1831 3584 
Q 2591 3584 2966 3190 
Q 3341 2797 3341 1997 
z
" transform="scale(0.015625)"/>
       <path id="DejaVuSans-2e" d="M 684 794 
L 1344 794 
L 1344 0 
L 684 0 
L 684 794 
z
" transform="scale(0.015625)"/>
       <path id="DejaVuSans-75" d="M 544 1381 
L 544 3500 
L 1119 3500 
L 1119 1403 
Q 1119 906 1312 657 
Q 1506 409 1894 409 
Q 2359 409 2629 706 
Q 2900 1003 2900 1516 
L 2900 3500 
L 3475 3500 
L 3475 0 
L 2900 0 
L 2900 538 
Q 2691 219 2414 64 
Q 2138 -91 1772 -91 
Q 1169 -91 856 284 
Q 544 659 544 1381 
z
M 1991 3584 
L 1991 3584 
z
" transform="scale(0.015625)"/>
       <path id="DejaVuSans-29" d="M 513 4856 
L 1013 4856 
Q 1481 4119 1714 3412 
Q 1947 2706 1947 2009 
Q 1947 1309 1714 600 
Q 1481 -109 1013 -844 
L 513 -844 
Q 928 -128 1133 580 
Q 1338 1288 1338 2009 
Q 1338 2731 1133 3434 
Q 928 4138 513 4856 
z
" transform="scale(0.015625)"/>
      </defs>
      <use xlink:href="#DejaVuSans-49"/>
      <use xlink:href="#DejaVuSans-6e" transform="translate(29.492188 0)"/>
      <use xlink:href="#DejaVuSans-74" transform="translate(92.871094 0)"/>
      <use xlink:href="#DejaVuSans-65" transform="translate(132.080078 0)"/>
      <use xlink:href="#DejaVuSans-6e" transform="translate(193.603516 0)"/>
      <use xlink:href="#DejaVuSans-73" transform="translate(256.982422 0)"/>
      <use xlink:href="#DejaVuSans-69" transform="translate(309.082031 0)"/>
      <use xlink:href="#DejaVuSans-74" transform="translate(336.865234 0)"/>
      <use xlink:href="#DejaVuSans-69" transform="translate(376.074219 0)"/>
      <use xlink:href="#DejaVuSans-79" transform="translate(403.857422 0)"/>
      <use xlink:href="#DejaVuSans-20" transform="translate(463.037109 0)"/>
      <use xlink:href="#DejaVuSans-28" transform="translate(494.824219 0)"/>
      <use xlink:href="#DejaVuSans-61" transform="translate(533.837891 0)"/>
      <use xlink:href="#DejaVuSans-2e" transform="translate(595.117188 0)"/>
      <use xlink:href="#DejaVuSans-75" transform="translate(626.904297 0)"/>
      <use xlink:href="#DejaVuSans-2e" transform="translate(690.283203 0)"/>
      <use xlink:href="#DejaVuSans-29" transform="translate(722.070312 0)"/>
     </g>
    </g>
   </g>
   <g id="line2d_11">
    <path d="M 518.29584 485.799162 
L 517.68576 486.614391 
L 516.4656 486.467193 
L 515.85552 486.35656 
L 515.24544 486.412582 
L 514.63536 486.672294 
L 513.42016 486.506575 
L 512.20992 485.526094 
L 511.6048 486.26725 
L 510.99968 486.452889 
L 509.7944 485.676094 
L 509.19424 486.361694 
L 508.58912 486.010333 
L 507.98896 486.270037 
L 507.3888 485.918672 
L 506.7936 486.12282 
L 506.19344 485.752938 
L 505.59328 486.142262 
L 504.99808 485.587204 
L 504.40288 485.569145 
L 503.80768 486.106604 
L 503.21248 485.162684 
L 502.61728 485.440901 
L 502.02208 485.311739 
L 501.43184 485.386263 
L 500.2464 485.127935 
L 499.65616 485.498735 
L 499.06592 485.554741 
L 498.47568 485.79592 
L 497.88544 485.259375 
L 497.30016 485.796826 
L 496.70992 484.945488 
L 496.12464 485.686629 
L 495.53936 484.464942 
L 494.95408 484.520945 
L 494.3688 484.373258 
L 493.78352 484.040399 
L 493.2032 484.670432 
L 492.0376 484.967606 
L 490.87696 483.709329 
L 490.29664 484.024569 
L 489.71632 484.099085 
L 489.136 484.340257 
L 488.56064 484.3407 
L 487.98528 483.526385 
L 487.40496 483.860142 
L 486.8296 483.638379 
L 486.25424 483.046271 
L 485.67888 482.972645 
L 485.10848 483.417499 
L 484.53312 482.973528 
L 483.96272 482.844347 
L 483.38736 483.418825 
L 482.81696 483.678506 
L 482.24656 483.419704 
L 481.67616 482.10542 
L 481.11072 482.439166 
L 480.54032 481.735951 
L 479.96992 481.791942 
L 479.40448 482.236791 
L 478.83904 482.255744 
L 478.2736 482.071008 
L 477.70816 482.182547 
L 477.14272 482.460741 
L 476.57728 482.590798 
L 476.01184 482.591234 
L 474.89088 481.295891 
L 474.32544 481.796292 
L 473.76496 480.796793 
L 473.20448 480.593535 
L 472.64896 481.464274 
L 472.08848 481.001775 
L 471.528 480.724448 
L 470.41696 480.910477 
L 469.85648 479.577668 
L 469.30096 479.966958 
L 468.74544 479.652593 
L 468.19488 478.727155 
L 467.63936 478.764618 
L 467.08384 479.690908 
L 466.53328 479.228401 
L 465.98272 479.06217 
L 465.43216 478.414491 
L 464.8816 479.044502 
L 464.33104 478.767168 
L 463.78048 478.082454 
L 463.22992 478.286568 
L 462.68432 479.046195 
L 462.13376 478.157792 
L 461.58816 478.417454 
L 461.04256 476.732806 
L 460.49696 476.473985 
L 459.95136 477.937267 
L 459.40576 477.159964 
L 458.86016 476.734488 
L 458.31952 476.549732 
L 457.77392 476.90198 
L 457.23328 475.587673 
L 456.69264 476.217676 
L 456.152 475.088541 
L 455.61136 475.477819 
L 455.07072 476.070788 
L 454.53008 474.441687 
L 453.9944 475.219824 
L 453.45376 475.238758 
L 452.91808 473.350413 
L 452.3824 474.017446 
L 451.84672 475.073341 
L 451.31104 474.16641 
L 450.77536 474.370512 
L 450.23968 472.537718 
L 449.70896 472.926989 
L 449.17328 472.649644 
L 448.64256 473.112984 
L 448.11184 472.169013 
L 447.57616 472.169426 
L 447.04544 471.410629 
L 446.51472 471.077727 
L 445.45824 470.874852 
L 444.93248 470.041981 
L 444.40176 471.097873 
L 443.876 470.653864 
L 443.35024 469.58027 
L 442.82448 468.895537 
L 442.29872 469.432942 
L 441.77296 470.266623 
L 440.72144 469.045296 
L 440.20064 469.045697 
L 439.67984 468.397995 
L 439.15408 467.213297 
L 438.11248 466.917824 
L 437.59168 467.047846 
L 437.07584 465.974244 
L 436.55504 465.47468 
L 436.03424 465.697288 
L 435.5184 463.864479 
L 435.00256 465.901773 
L 434.48176 463.402347 
L 433.96592 463.0324 
L 433.45008 463.866073 
L 432.93424 462.033264 
L 431.90752 462.571055 
L 431.39664 460.88638 
L 430.8808 461.257123 
L 430.36992 461.201965 
L 429.85904 461.9986 
L 429.34816 460.443545 
L 428.83728 460.092112 
L 428.3264 459.166643 
L 427.81552 459.259623 
L 427.30464 459.056327 
L 426.79872 459.649269 
L 426.28784 457.964594 
L 425.78192 458.909363 
L 425.276 455.224822 
L 424.77008 456.98435 
L 424.26416 455.70705 
L 423.75824 455.633371 
L 423.25232 453.948693 
L 422.75136 455.763768 
L 422.24544 453.819848 
L 421.74448 453.801717 
L 421.24352 452.728103 
L 420.7376 453.432148 
L 420.23664 453.9325 
L 419.73568 450.210921 
L 419.23472 451.748238 
L 418.73872 451.156068 
L 418.23776 450.267627 
L 417.74176 449.638423 
L 417.2408 450.398016 
L 416.7448 449.416984 
L 416.2488 448.954436 
L 415.74784 449.214063 
L 415.25184 448.121928 
L 414.7608 445.252135 
L 414.2648 445.90062 
L 413.7688 445.956554 
L 413.27776 444.697761 
L 412.78176 445.105522 
L 412.29072 446.291004 
L 411.79968 443.273072 
L 411.30368 443.736386 
L 410.81264 442.107247 
L 410.3216 442.366867 
L 409.83552 441.274724 
L 409.34448 441.386206 
L 408.85344 440.47924 
L 407.87632 437.794994 
L 407.39024 437.758334 
L 406.90416 438.221639 
L 406.41808 437.2406 
L 405.932 434.537458 
L 405.44592 436.611763 
L 404.95984 434.241931 
L 403.99264 433.039056 
L 403.51152 431.780255 
L 403.02544 433.484216 
L 402.54432 427.744242 
L 402.0632 430.577751 
L 401.10096 427.189838 
L 400.61984 430.134449 
L 400.13872 427.135027 
L 399.66256 429.209325 
L 399.18144 426.117317 
L 398.70528 428.395304 
L 398.22416 423.914504 
L 397.748 426.896146 
L 397.27184 421.933893 
L 396.79568 421.73057 
L 396.31952 422.101282 
L 395.84336 422.120166 
L 395.3672 421.527982 
L 394.41984 421.047264 
L 393.94864 416.807179 
L 393.47744 418.270404 
L 393.00128 417.733771 
L 392.53008 415.604652 
L 392.05888 414.975429 
L 391.58768 410.920517 
L 391.11648 411.031983 
L 390.65024 412.99517 
L 390.17904 413.699188 
L 389.7128 410.514582 
L 389.2416 413.070325 
L 388.30912 406.330768 
L 387.84288 408.275438 
L 387.37664 406.590728 
L 386.9104 403.387605 
L 386.44416 404.165689 
L 385.97792 406.110358 
L 385.51168 401.629546 
L 385.0504 400.185557 
L 384.58416 399.389675 
L 384.12288 399.92703 
L 383.6616 402.890144 
L 383.20032 397.779741 
L 382.73904 398.946683 
L 382.27776 396.72497 
L 381.81648 396.22536 
L 381.3552 395.059129 
L 380.4376 394.30063 
L 379.97632 391.727089 
L 379.52 390.246062 
L 379.06368 390.635275 
L 378.60736 390.8208 
L 377.68976 387.525438 
L 377.2384 384.988924 
L 376.78208 386.063276 
L 376.32576 383.952662 
L 375.86944 386.1936 
L 375.41808 378.972225 
L 374.96176 378.768887 
L 374.5104 377.602649 
L 374.05904 378.954755 
L 373.60768 378.76993 
L 373.15632 379.807244 
L 372.70496 377.80773 
L 372.2536 378.919112 
L 371.80224 374.364219 
L 371.35088 375.179326 
L 370.90448 373.976049 
L 370.45312 371.254363 
L 370.00672 367.643845 
L 369.56032 369.866258 
L 369.11392 366.311292 
L 368.66256 367.256019 
L 368.21616 368.88588 
L 367.76976 363.127363 
L 367.32832 367.386668 
L 366.88192 364.239082 
L 366.43552 359.054599 
L 365.99408 363.499076 
L 365.54768 362.036559 
L 365.10624 358.94452 
L 364.65984 357.000554 
L 364.2184 354.112205 
L 363.77696 354.890269 
L 363.33552 353.909196 
L 362.89408 354.076191 
L 362.45264 354.798704 
L 362.01616 349.799386 
L 361.57472 354.706794 
L 361.13328 351.059238 
L 360.6968 349.244885 
L 360.26032 349.004498 
L 359.3824 345.07952 
L 358.94592 341.913408 
L 358.50944 346.043089 
L 358.07296 338.506909 
L 357.63648 341.210762 
L 357.2 341.025926 
L 356.76848 343.22981 
L 356.332 336.156562 
L 355.90048 336.879066 
L 355.464 338.064506 
L 355.03248 335.84277 
L 354.60096 334.880206 
L 354.16944 332.899194 
L 353.73296 331.640358 
L 353.30144 327.696519 
L 352.87488 329.789296 
L 352.44336 329.51187 
L 351.58528 326.383118 
L 351.15376 323.365141 
L 350.7272 325.939366 
L 350.29568 324.458319 
L 349.86912 324.329027 
L 349.44256 322.310977 
L 349.016 324.200064 
L 348.58944 315.497291 
L 348.16288 318.756653 
L 347.73632 313.424017 
L 347.30976 310.294933 
L 346.8832 311.64702 
L 346.03504 309.518191 
L 345.61344 312.314619 
L 345.19184 311.889048 
L 344.76528 311.074618 
L 344.34368 307.649254 
L 343.92208 303.298027 
L 343.50048 308.853524 
L 343.07888 305.446677 
L 342.66224 305.206274 
L 341.81904 300.910924 
L 341.4024 300.355728 
L 340.9808 297.134054 
L 340.56416 299.57865 
L 340.14256 298.727182 
L 339.72592 294.153746 
L 339.30928 296.54279 
L 338.89264 295.283939 
L 338.476 292.13633 
L 337.64272 294.22942 
L 337.23104 290.729979 
L 336.8144 284.582577 
L 336.39776 287.471587 
L 335.98608 282.620388 
L 335.5744 284.861291 
L 334.74608 275.010759 
L 334.3344 277.510903 
L 333.92272 278.177841 
L 333.51104 274.511745 
L 333.09936 276.308235 
L 332.68768 272.586587 
L 332.276 276.956973 
L 331.86928 275.698114 
L 331.4576 269.365535 
L 331.05088 268.939952 
L 330.6392 269.551339 
L 330.23248 268.755411 
L 329.82576 269.644552 
L 329.41408 262.200939 
L 329.00736 265.423252 
L 328.60064 264.664359 
L 328.19392 260.202018 
L 327.79216 262.479948 
L 327.38544 261.776606 
L 326.97872 258.314196 
L 326.57696 258.370057 
L 326.17024 258.740716 
L 325.76848 255.315336 
L 325.36176 257.704373 
L 324.15648 251.039096 
L 323.74976 245.354617 
L 323.35296 242.910648 
L 322.9512 244.040509 
L 322.54944 244.003784 
L 322.14768 240.133991 
L 321.74592 240.893507 
L 321.34912 240.449399 
L 320.94736 240.727468 
L 320.55056 239.320463 
L 320.15376 243.376044 
L 319.752 243.302285 
L 319.3552 242.821143 
L 318.9584 236.210794 
L 318.5616 236.840686 
L 317.768 231.267609 
L 317.3712 232.823363 
L 316.97936 226.490769 
L 316.58256 228.60204 
L 316.18576 226.695071 
L 315.40208 227.214157 
L 315.00528 224.159119 
L 314.61344 226.048179 
L 314.2216 228.863101 
L 313.82976 218.104888 
L 313.43792 225.308395 
L 313.04608 217.51294 
L 312.65424 214.735656 
L 312.2624 214.958165 
L 311.87056 211.088364 
L 311.48368 208.75549 
L 311.09184 209.533516 
L 310.7 214.700128 
L 310.31312 213.163495 
L 309.92624 209.349242 
L 309.5344 208.294062 
L 309.14752 210.164601 
L 308.76064 214.442381 
L 308.37376 211.239197 
L 307.98688 210.332151 
L 307.6 206.517898 
L 307.21312 208.629161 
L 306.8312 199.759698 
L 306.44432 200.445134 
L 306.05744 196.427191 
L 305.67552 197.075589 
L 305.28864 199.668301 
L 304.90672 196.946561 
L 304.5248 199.076338 
L 304.13792 194.651016 
L 303.756 196.688206 
L 303.37408 193.318363 
L 302.61024 197.670503 
L 302.22832 195.022832 
L 301.85136 191.060434 
L 301.46944 184.357488 
L 301.08752 191.709126 
L 300.71056 187.820796 
L 299.95168 175.248176 
L 299.56976 181.581366 
L 299.1928 180.137312 
L 298.81584 184.896533 
L 298.43888 176.286307 
L 298.06192 184.360114 
L 297.68496 181.656888 
L 297.308 182.749695 
L 296.93104 185.064641 
L 296.55408 178.009863 
L 296.17712 173.658603 
L 295.80512 174.399579 
L 295.42816 172.437042 
L 294.6792 165.919551 
L 294.3072 166.197597 
L 293.93024 160.827888 
L 293.55824 163.957588 
L 293.18624 159.717427 
L 292.81424 164.143334 
L 292.44224 162.958517 
L 292.07024 159.959011 
L 291.69824 160.977746 
L 290.9592 169.551797 
L 290.5872 162.237775 
L 290.22016 165.793367 
L 289.84816 160.627344 
L 289.48112 159.627696 
L 289.10912 150.610088 
L 288.74208 153.554612 
L 288.37504 155.110343 
L 288.00304 153.332974 
L 287.636 152.574051 
L 287.26896 152.66692 
L 286.90192 148.111962 
L 286.1728 156.926729 
L 285.80576 152.205116 
L 285.43872 149.946296 
L 285.07664 153.853713 
L 284.34752 156.742964 
L 283.98048 153.724937 
L 283.6184 149.114423 
L 283.25632 149.077668 
L 282.88928 140.041538 
L 282.5272 138.634507 
L 282.16512 141.690131 
L 281.80304 135.783411 
L 281.44096 137.690965 
L 281.07888 135.1729 
L 280.72176 139.63583 
L 280.35968 138.599143 
L 279.9976 140.377077 
L 279.2784 141.581252 
L 278.92128 145.45163 
L 278.5592 140.359669 
L 278.20208 138.137875 
L 277.84496 140.749081 
L 277.12576 133.953809 
L 276.76864 132.083843 
L 276.41152 132.065601 
L 276.0544 124.714532 
L 275.69728 124.56667 
L 275.34512 128.437044 
L 274.988 122.73401 
L 274.63088 123.215733 
L 274.27872 124.734418 
L 273.9216 130.049141 
L 273.56944 127.234792 
L 273.21232 133.493894 
L 272.86016 133.808958 
L 272.508 135.272092 
L 272.15088 133.328057 
L 271.79872 136.93919 
L 271.44656 136.513565 
L 271.0944 124.459114 
L 270.74224 129.422005 
L 270.39008 125.033691 
L 270.04288 127.848579 
L 269.69072 125.274954 
L 269.33856 120.312606 
L 268.99136 123.516355 
L 268.6392 119.239145 
L 268.28704 112.388038 
L 267.93984 118.758235 
L 267.59264 121.684227 
L 267.24048 122.554808 
L 266.89328 122.99949 
L 266.54608 127.906825 
L 265.85168 122.666982 
L 265.50448 125.944801 
L 265.15728 130.370689 
L 264.81008 128.463681 
L 264.46288 125.427121 
L 264.11568 124.353389 
L 263.77344 124.186997 
L 263.084 113.151255 
L 262.7368 117.225315 
L 262.04736 110.541123 
L 261.70512 114.337421 
L 261.36288 115.874615 
L 261.02064 119.15243 
L 260.6784 120.689625 
L 260.33616 124.430371 
L 259.99392 124.504703 
L 259.65168 126.319656 
L 259.30944 124.431162 
L 258.9672 132.560493 
L 258.62496 127.616654 
L 257.94544 121.8398 
L 257.6032 112.803651 
L 257.26592 117.544324 
L 256.92864 112.211619 
L 256.5864 110.749021 
L 256.24912 108.305006 
L 255.91184 108.157128 
L 255.5696 105.490909 
L 255.23232 107.231789 
L 254.89504 106.750601 
L 254.55776 117.694549 
L 254.22048 118.89843 
L 253.8832 124.139068 
L 253.55088 117.250911 
L 253.2136 130.342859 
L 252.544 122.029135 
L 252.20672 125.529153 
L 251.86944 126.881171 
L 251.53712 124.548255 
L 251.2048 119.585892 
L 250.86752 118.475117 
L 250.5352 112.605409 
L 250.20288 110.82801 
L 249.87056 116.216782 
L 249.53328 115.605974 
L 249.20096 108.662265 
L 248.86864 116.050899 
L 248.54128 120.254565 
L 248.20896 118.329028 
L 247.212 135.921173 
L 246.88464 128.440461 
L 246.55232 132.440441 
L 246.22496 124.644936 
L 245.89264 125.348847 
L 245.56528 120.497583 
L 244.9056 118.220471 
L 244.57824 116.054206 
L 244.25088 115.554493 
L 243.92352 107.425677 
L 243.59616 113.05517 
L 243.2688 114.610871 
L 242.94144 121.406949 
L 242.61408 122.518236 
L 241.95936 134.703084 
L 241.63696 136.888366 
L 241.3096 135.684998 
L 240.9872 140.96266 
L 240.65984 139.351912 
L 240.33744 133.222955 
L 240.01008 131.630724 
L 239.68768 136.538041 
L 239.36528 126.113084 
L 238.71552 122.410137 
L 238.07072 114.540808 
L 237.74832 122.892331 
L 237.42592 126.299751 
L 237.10352 124.577897 
L 236.78112 127.948282 
L 236.14128 139.577601 
L 235.81888 143.762746 
L 235.49648 142.077925 
L 235.17904 149.281376 
L 234.85664 148.577969 
L 234.5392 142.486043 
L 234.22176 140.634563 
L 233.58192 134.413264 
L 233.26448 132.746957 
L 232.94704 132.02503 
L 232.62464 130.858692 
L 232.3072 128.451696 
L 231.98976 132.525733 
L 231.67232 129.433599 
L 231.35984 132.118839 
L 231.0424 138.063117 
L 230.72496 136.433845 
L 230.40752 141.655951 
L 230.09504 139.952606 
L 229.14768 157.303989 
L 228.83024 156.45244 
L 228.51776 162.02637 
L 228.20528 159.08237 
L 227.88784 160.545476 
L 227.57536 155.620132 
L 227.26288 153.768649 
L 226.9504 156.694613 
L 226.63792 146.362235 
L 226.32544 150.843647 
L 226.01296 147.955199 
L 225.70048 143.048372 
L 224.768 151.104089 
L 224.45552 152.344985 
L 224.14304 152.234122 
L 223.83552 156.271117 
L 223.52304 158.882289 
L 222.90304 172.289247 
L 222.59552 170.97476 
L 222.28304 175.733931 
L 221.97552 177.030375 
L 221.668 178.808267 
L 221.36048 183.215607 
L 221.05296 176.06819 
L 220.74544 174.068565 
L 220.43792 173.179975 
L 220.1304 170.069316 
L 219.51536 158.792791 
L 219.20784 164.570407 
L 218.90032 159.219162 
L 218.59776 165.144911 
L 218.29024 162.200907 
L 217.98272 167.015626 
L 217.68016 168.21948 
L 217.37264 176.84875 
L 217.07008 176.73788 
L 216.76752 183.385802 
L 216.46 183.31197 
L 216.15744 188.700719 
L 215.85488 189.904573 
L 215.55232 197.45984 
L 215.24976 199.867314 
L 214.94224 198.941689 
L 214.63968 192.831233 
L 214.33712 198.071845 
L 214.03952 197.535074 
L 213.73696 190.461723 
L 213.4344 186.110405 
L 213.13184 186.999465 
L 212.82928 181.01863 
L 212.53168 181.333653 
L 212.22912 180.7043 
L 211.93152 185.148667 
L 211.62896 184.778555 
L 211.33136 191.130197 
L 211.0288 193.722844 
L 210.7312 192.130591 
L 210.4336 198.334095 
L 210.13104 199.908293 
L 209.83344 204.130453 
L 209.23824 218.22253 
L 208.94064 215.611829 
L 208.64304 214.926921 
L 208.04784 222.389826 
L 207.75024 217.205229 
L 207.45264 209.557839 
L 207.15504 212.187516 
L 206.8624 204.873432 
L 206.5648 207.132765 
L 206.2672 205.447925 
L 205.67696 200.615381 
L 205.38432 199.967503 
L 205.09168 202.615694 
L 204.79408 203.226992 
L 204.2088 215.948786 
L 203.9112 217.72667 
L 203.32592 224.559982 
L 203.03328 231.726379 
L 202.74064 230.837777 
L 202.448 239.70776 
L 202.15536 238.930262 
L 201.86272 242.411728 
L 201.57008 234.208817 
L 201.2824 235.634866 
L 200.98976 227.246783 
L 200.69712 223.525043 
L 200.40944 221.932782 
L 200.1168 226.766007 
L 199.53648 221.729765 
L 199.2488 219.804194 
L 198.66848 227.19302 
L 198.3808 225.341518 
L 198.08816 227.619364 
L 197.80048 228.397309 
L 197.22512 237.4712 
L 196.93744 240.434179 
L 196.64976 246.711745 
L 196.36208 248.822932 
L 195.49904 263.896629 
L 195.21136 264.989368 
L 194.92864 261.360207 
L 194.64096 261.434498 
L 194.35328 258.74972 
L 194.07056 260.54611 
L 193.78288 253.602367 
L 193.50016 254.917309 
L 193.21248 251.510359 
L 192.92976 244.622164 
L 192.64208 243.418765 
L 192.35936 244.048569 
L 191.79392 251.344797 
L 191.5112 250.43767 
L 191.22352 256.067133 
L 190.9408 257.622798 
L 190.65808 263.955912 
L 190.37536 262.104406 
L 190.09264 266.530244 
L 189.80992 276.19646 
L 189.53216 278.270605 
L 189.24944 282.252029 
L 188.96672 288.511074 
L 188.40624 282.308231 
L 188.12352 281.178897 
L 187.8408 282.160529 
L 187.56304 278.642467 
L 187.28032 277.883479 
L 187.00256 272.661831 
L 186.7248 271.773218 
L 186.44208 269.32916 
L 186.16432 274.347546 
L 185.88656 269.292554 
L 185.6088 266.941079 
L 185.32608 266.348745 
L 185.04832 272.089303 
L 184.77056 273.848655 
L 184.4928 273.385938 
L 183.93728 281.033986 
L 183.65952 289.311405 
L 183.38176 290.200447 
L 183.10896 289.571071 
L 182.8312 301.663042 
L 182.27568 306.903848 
L 182.00288 304.515335 
L 181.72512 304.44148 
L 181.45232 301.312277 
L 181.17456 303.108663 
L 180.90176 300.460908 
L 180.624 294.257847 
L 180.3512 293.406265 
L 180.0784 291.29551 
L 179.80064 290.814276 
L 179.52784 291.203348 
L 179.25504 292.166454 
L 178.70944 297.222081 
L 178.43664 296.22236 
L 178.16384 299.129777 
L 177.61824 313.943989 
L 177.34544 314.110854 
L 177.07264 322.258649 
L 176.79984 324.86979 
L 176.52704 325.018138 
L 176.2592 327.425586 
L 175.9864 325.444451 
L 175.7136 328.981454 
L 175.44576 326.03742 
L 175.17296 320.593562 
L 174.90512 318.3717 
L 174.63232 318.631151 
L 174.36448 313.557634 
L 174.09168 311.002465 
L 173.82384 313.317327 
L 173.556 307.466086 
L 172.74752 318.132638 
L 172.47968 319.70681 
L 172.21184 325.669567 
L 171.944 328.03998 
L 171.67616 333.780531 
L 171.40832 335.299151 
L 170.87264 341.076942 
L 170.6048 343.336251 
L 170.34192 349.447143 
L 170.07408 343.132971 
L 169.54336 342.040863 
L 169.27552 339.022759 
L 169.00768 339.097035 
L 168.7448 336.764065 
L 168.47696 332.764548 
L 168.21408 335.98675 
L 167.94624 331.894647 
L 167.68336 330.857884 
L 167.42048 331.450638 
L 167.1576 331.654531 
L 166.88976 335.691495 
L 166.62688 336.136111 
L 166.364 340.284175 
L 166.10112 340.154757 
L 165.83824 346.913752 
L 165.57536 347.191713 
L 165.0496 356.3026 
L 164.78672 358.543388 
L 164.52384 362.061866 
L 164.26096 360.932517 
L 163.99808 363.839926 
L 163.74016 363.46978 
L 163.2144 356.507704 
L 162.95648 359.100316 
L 162.43072 351.52717 
L 162.1728 348.027611 
L 161.90992 349.805469 
L 161.652 347.583599 
L 161.39408 351.12059 
L 161.1312 349.417207 
L 160.87328 348.769302 
L 160.61536 350.806397 
L 160.35248 350.232565 
L 159.83664 360.195237 
L 159.57872 361.380539 
L 159.3208 366.769255 
L 159.06288 366.528729 
L 158.80496 371.67672 
L 158.54704 372.158367 
L 158.28912 375.565738 
L 157.77328 373.307032 
L 157.52032 380.565985 
L 157.2624 377.270115 
L 157.00448 375.807452 
L 156.74656 379.714788 
L 156.4936 376.030053 
L 156.23568 375.4377 
L 155.98272 369.216103 
L 155.7248 371.123577 
L 155.47184 369.883117 
L 155.21392 367.753833 
L 154.96096 368.902097 
L 154.70304 367.346848 
L 154.45008 368.402525 
L 154.19712 373.791237 
L 153.94416 370.662018 
L 153.68624 371.421424 
L 153.43328 373.995515 
L 153.18032 379.532364 
L 152.92736 381.625007 
L 152.6744 384.921271 
L 152.42144 386.199155 
L 151.91552 392.550958 
L 151.66256 393.736256 
L 151.4096 398.106519 
L 151.15664 395.218025 
L 150.90864 395.570044 
L 150.65568 394.255515 
L 150.40272 395.255641 
L 150.15472 391.682005 
L 149.90176 392.88582 
L 149.6488 388.997395 
L 149.4008 388.368 
L 149.14784 390.053264 
L 148.64688 383.868892 
L 148.15088 386.332067 
L 147.89792 384.795331 
L 147.64992 385.073281 
L 147.40192 387.221472 
L 147.14896 392.83239 
L 146.90096 392.758512 
L 146.65296 394.980772 
L 146.40496 399.258445 
L 146.15696 400.628912 
L 145.90896 403.554827 
L 145.66096 403.388363 
L 145.41296 407.184588 
L 145.16496 407.388469 
L 144.91696 408.147867 
L 144.66896 407.99992 
L 144.42592 409.833314 
L 144.17792 410.444574 
L 143.92992 407.222765 
L 143.68192 408.611749 
L 143.19088 405.093852 
L 142.94288 404.686664 
L 142.69984 403.538783 
L 142.45184 400.205871 
L 142.2088 404.576127 
L 141.96576 402.502383 
L 141.71776 404.632057 
L 141.47472 402.539796 
L 141.22672 403.799159 
L 140.98368 408.595312 
L 140.74064 409.076947 
L 140.4976 410.98441 
L 140.2496 411.336429 
L 140.00656 415.614098 
L 139.76352 416.743837 
L 139.52048 419.31792 
L 139.27744 418.762591 
L 139.0344 421.836639 
L 138.54832 425.28122 
L 138.30528 422.65196 
L 138.06224 423.652078 
L 137.82416 420.5784 
L 137.58112 422.522897 
L 137.33808 422.671223 
L 137.09504 418.171721 
L 136.85696 417.486767 
L 136.61392 418.209126 
L 136.37088 416.857555 
L 136.1328 420.413048 
L 135.88976 414.858064 
L 135.65168 419.043143 
L 135.40864 418.5804 
L 135.17056 419.636066 
L 134.93248 418.080801 
L 134.21328 426.914078 
L 133.97024 426.914266 
L 133.256 431.025643 
L 132.77984 436.52563 
L 132.30368 434.285411 
L 132.0656 437.80387 
L 131.58944 432.156479 
L 131.35136 431.897421 
L 131.11328 431.805019 
L 130.8752 429.897926 
L 130.63712 431.953523 
L 130.16592 429.305921 
L 129.92784 429.157967 
L 129.69472 429.324802 
L 129.45664 431.065606 
L 129.22352 431.491682 
L 128.51424 435.732676 
L 128.28112 437.04758 
L 128.04304 440.677142 
L 127.80992 442.103149 
L 127.5768 441.214501 
L 127.33872 443.418236 
L 126.87248 443.955595 
L 126.63936 443.066948 
L 126.40624 445.141058 
L 126.16816 445.363448 
L 125.93504 444.67849 
L 125.70192 441.919601 
L 125.4688 443.660401 
L 125.23568 442.031064 
L 125.00256 439.605486 
L 124.76944 438.624252 
L 124.54128 440.439117 
L 124.30816 440.050434 
L 124.07504 438.93958 
L 123.84192 439.143449 
L 123.6088 440.013939 
L 123.38064 441.439942 
L 123.14752 441.569742 
L 122.9144 445.328922 
L 122.45312 448.958656 
L 121.99184 449.607115 
L 121.76368 449.292497 
L 121.53056 449.848194 
L 121.3024 453.088887 
L 121.06928 452.848342 
L 120.84112 449.330243 
L 120.61296 452.385763 
L 120.37984 451.256391 
L 120.15168 448.627119 
L 119.92352 450.256812 
L 119.69536 448.608954 
L 119.4672 448.090647 
L 119.23904 449.646271 
L 119.00592 447.331796 
L 118.77776 451.239109 
L 118.5496 450.739319 
L 118.32144 450.832081 
L 118.09328 451.221119 
L 117.87008 450.517636 
L 117.64192 451.036295 
L 117.41376 454.05478 
L 117.1856 453.166129 
L 116.95744 454.832856 
L 116.72928 455.147825 
L 116.27792 457.944276 
L 116.04976 459.185107 
L 115.82656 458.129796 
L 115.5984 460.277971 
L 115.3752 459.315247 
L 115.14704 458.963595 
L 114.92384 461.09325 
L 114.24432 458.075464 
L 114.02112 459.408877 
L 113.79792 457.261049 
L 113.56976 457.09457 
L 113.34656 455.502259 
L 113.12336 457.502293 
L 112.90016 455.798879 
L 112.672 456.299021 
L 112.2256 458.336261 
L 111.7792 461.225294 
L 111.556 461.077328 
L 111.3328 463.169948 
L 111.1096 462.707189 
L 110.44 464.577946 
L 110.22176 466.115045 
L 109.99856 465.411562 
L 109.77536 466.226493 
L 109.55216 467.837665 
L 108.88752 464.912453 
L 108.66928 466.745828 
L 108.44608 464.783173 
L 108.22784 464.65372 
L 108.00464 465.042754 
L 107.7864 464.431854 
L 107.5632 464.654232 
L 107.34496 465.154366 
L 107.12176 464.913814 
L 106.90352 463.877017 
L 106.68528 463.617944 
L 106.46208 463.969943 
L 106.24384 464.766353 
L 106.0256 464.359142 
L 105.80736 467.247999 
L 105.58416 467.229654 
L 105.36592 467.951994 
L 105.14768 468.211404 
L 104.7112 471.174498 
L 104.49296 470.248805 
L 104.27472 471.489628 
L 104.05648 471.823106 
L 103.83824 471.656619 
L 103.18352 472.786676 
L 102.97024 471.990599 
L 102.752 472.50925 
L 102.53376 470.787315 
L 102.10224 470.546923 
L 101.884 472.139574 
L 101.66576 469.917673 
L 101.45248 469.936355 
L 101.23424 470.658695 
L 101.02096 471.973584 
L 100.80272 470.325718 
L 100.58944 470.844365 
L 100.3712 469.270568 
L 100.15792 471.752042 
L 99.94464 470.78931 
L 99.7264 473.289305 
L 99.51312 473.474642 
L 99.29984 472.141565 
L 99.0816 472.919458 
L 98.86832 472.271519 
L 98.65504 474.475234 
L 98.22848 475.049598 
L 98.01024 476.253386 
L 97.79696 475.79062 
L 97.58368 476.772198 
L 97.3704 476.3835 
L 97.15712 477.42063 
L 96.94384 476.809725 
L 96.73056 476.791372 
L 96.51728 477.97664 
L 96.30896 475.69918 
L 96.09568 477.754758 
L 95.8824 477.403095 
L 95.66912 476.607018 
L 95.45584 477.125665 
L 95.24752 475.570378 
L 95.03424 476.514921 
L 94.82096 475.792913 
L 94.61264 476.015281 
L 94.39936 476.570962 
L 94.18608 476.34892 
L 93.97776 476.423149 
L 93.76448 475.293762 
L 93.55616 475.627233 
L 93.34288 477.01619 
L 93.13456 477.405213 
L 92.92624 476.923925 
L 92.71296 478.498055 
L 92.50464 477.572353 
L 92.29632 478.40579 
L 92.08304 478.665195 
L 91.87472 478.387597 
L 91.6664 480.591309 
L 91.45808 479.739677 
L 91.2448 479.81391 
L 91.03648 480.684381 
L 90.82816 480.610472 
L 90.61984 480.888392 
L 90.41152 480.944104 
L 90.2032 480.462816 
L 89.99488 480.90739 
L 89.78656 480.333517 
L 89.57824 480.463298 
L 89.36992 479.907941 
L 89.1616 480.296964 
L 88.95328 480.334159 
L 88.74496 480.538009 
L 88.5416 480.5752 
L 88.33328 480.019844 
L 87.91664 481.297854 
L 87.71328 480.224011 
L 87.29664 480.761332 
L 87.09328 481.150351 
L 86.88496 481.206063 
L 86.6816 481.595082 
L 86.47328 481.058242 
L 86.26992 482.669399 
L 86.0616 482.095525 
L 85.85824 482.669716 
L 85.64992 483.595739 
L 85.44656 482.910758 
L 85.2432 483.74419 
L 85.03488 483.670282 
L 84.83152 483.855611 
L 84.62816 483.226181 
L 84.4248 483.707786 
L 84.21648 483.541292 
L 84.01312 484.041414 
L 83.6064 483.875072 
L 83.40304 483.523401 
L 83.19968 483.875386 
L 82.99632 482.801543 
L 82.79296 483.653492 
L 82.5896 483.635132 
L 82.38624 483.950082 
L 82.18288 483.005859 
L 81.97952 483.320809 
L 81.77616 483.15431 
L 81.5728 483.858122 
L 81.3744 482.95093 
L 81.17104 483.858432 
L 80.96768 483.932658 
L 80.76432 483.747642 
L 80.36256 485.284882 
L 80.1592 484.322143 
L 79.9608 484.914847 
L 79.75744 484.655763 
L 79.55408 484.970712 
L 79.35568 484.859762 
L 79.15232 485.100643 
L 78.95392 485.656313 
L 78.75056 485.65647 
L 78.55216 485.249243 
L 78.35376 485.916017 
L 78.1504 485.545829 
L 77.952 486.231119 
L 77.7536 485.601686 
L 77.55024 485.861084 
L 76.95504 485.88006 
L 76.75168 486.083907 
L 76.35488 485.176868 
L 76.15648 485.880676 
L 75.75968 485.121775 
L 75.56128 485.955203 
L 74.96608 486.048248 
L 74.76768 486.696504 
L 74.56928 486.289278 
L 74.17744 486.733994 
L 73.97904 486.734147 
L 73.78064 487.123162 
L 73.58224 486.88259 
L 73.3888 487.271602 
L 72.992 486.901563 
L 72.79856 487.309091 
L 72.60016 486.957416 
L 72.40176 487.216811 
L 72.20832 486.865132 
L 72.00992 487.291181 
L 72.00992 487.291181 
" clip-path="url(#p3c6147bca6)" style="fill: none; stroke-dasharray: 3.7,1.6; stroke-dashoffset: 0; stroke: #1fa187"/>
   </g>
   <g id="line2d_12">
    <path d="M 72.00992 477.427033 
L 76.481723 475.838799 
L 80.953526 473.989993 
L 84.530968 472.301709 
L 88.10841 470.408589 
L 91.685852 468.292467 
L 95.263295 465.934565 
L 98.840737 463.315631 
L 102.418179 460.416094 
L 105.995621 457.21625 
L 109.573064 453.696477 
L 113.150506 449.837469 
L 116.727948 445.620499 
L 120.30539 441.027708 
L 123.882833 436.042413 
L 127.460275 430.649433 
L 131.037717 424.835435 
L 134.615159 418.589282 
L 138.192602 411.902403 
L 141.770044 404.769144 
L 145.347486 397.187134 
L 148.924928 389.157622 
L 153.396731 378.499752 
L 157.868534 367.170652 
L 162.340337 355.201035 
L 166.812139 342.633397 
L 172.178303 326.840741 
L 178.438827 307.586976 
L 185.593711 284.776684 
L 207.952725 212.807194 
L 213.318889 196.628701 
L 217.790691 183.837727 
L 221.368134 174.158127 
L 224.945576 165.045871 
L 228.523018 156.568068 
L 232.10046 148.788425 
L 234.783542 143.44784 
L 237.466624 138.556859 
L 240.149705 134.137056 
L 242.832787 130.208107 
L 245.515869 126.78765 
L 247.30459 124.797569 
L 249.093311 123.044423 
L 250.882032 121.531766 
L 252.670753 120.262675 
L 254.459474 119.239736 
L 256.248196 118.46504 
L 258.036917 117.940171 
L 259.825638 117.666204 
L 261.614359 117.643702 
L 263.40308 117.872711 
L 265.191801 118.35276 
L 266.980522 119.082867 
L 268.769243 120.061536 
L 270.557965 121.286769 
L 272.346686 122.756066 
L 274.135407 124.466438 
L 275.924128 126.414416 
L 277.712849 128.596062 
L 280.395931 132.296928 
L 283.079012 136.496892 
L 285.762094 141.177184 
L 288.445176 146.317068 
L 291.128257 151.894 
L 294.7057 159.967733 
L 298.283142 168.713935 
L 301.860584 178.067402 
L 306.332387 190.508974 
L 310.80419 203.654523 
L 316.170353 220.159858 
L 323.325238 243.00678 
L 343.895531 309.38522 
L 350.156055 328.565146 
L 355.522218 344.279319 
L 359.994021 356.772947 
L 364.465823 368.662419 
L 368.937626 379.90678 
L 373.409429 390.476791 
L 376.986871 398.434698 
L 380.564314 405.944645 
L 384.141756 413.005985 
L 387.719198 419.621643 
L 391.29664 425.797762 
L 394.874083 431.543352 
L 398.451525 436.869925 
L 402.028967 441.791135 
L 405.606409 446.322427 
L 409.183852 450.480695 
L 412.761294 454.283957 
L 416.338736 457.751052 
L 419.916178 460.901352 
L 423.493621 463.754511 
L 427.071063 466.330222 
L 430.648505 468.648018 
L 434.225947 470.727085 
L 437.803389 472.586111 
L 442.275192 474.627901 
L 446.746995 476.387665 
L 451.218798 477.896998 
L 455.690601 479.185291 
L 461.056764 480.477452 
L 466.422927 481.532587 
L 472.683451 482.513901 
L 478.943975 483.275376 
L 486.09886 483.932325 
L 495.042465 484.510965 
L 505.774792 484.954708 
L 518.29584 485.251267 
L 518.29584 485.251267 
" clip-path="url(#p3c6147bca6)" style="fill: none; stroke-dasharray: 3.7,1.6; stroke-dashoffset: 0; stroke: #46327e"/>
   </g>
   <g id="patch_3">
    <path d="M 72 506.4 
L 72 86.4 
" style="fill: none; stroke: #000000; stroke-width: 0.8; stroke-linejoin: miter; stroke-linecap: square"/>
   </g>
   <g id="patch_4">
    <path d="M 518.4 506.4 
L 518.4 86.4 
" style="fill: none; stroke: #000000; stroke-width: 0.8; stroke-linejoin: miter; stroke-linecap: square"/>
   </g>
   <g id="patch_5">
    <path d="M 72 506.4 
L 518.4 506.4 
" style="fill: none; stroke: #000000; stroke-width: 0.8; stroke-linejoin: miter; stroke-linecap: square"/>
   </g>
   <g id="patch_6">
    <path d="M 72 86.4 
L 518.4 86.4 
" style="fill: none; stroke: #000000; stroke-width: 0.8; stroke-linejoin: miter; stroke-linecap: square"/>
   </g>
   <g id="legend_1">
    <g id="patch_7">
     <path d="M 360.178125 123.75625 
L 511.4 123.75625 
Q 513.4 123.75625 513.4 121.75625 
L 513.4 93.4 
Q 513.4 91.4 511.4 91.4 
L 360.178125 91.4 
Q 358.178125 91.4 358.178125 93.4 
L 358.178125 121.75625 
Q 358.178125 123.75625 360.178125 123.75625 
z
" style="fill: #ffffff; opacity: 0.8; stroke: #cccccc; stroke-linejoin: miter"/>
    </g>
    <g id="line2d_13">
     <path d="M 362.178125 99.498437 
L 372.178125 99.498437 
L 382.178125 99.498437 
" style="fill: none; stroke-dasharray: 3.7,1.6; stroke-dashoffset: 0; stroke: #1fa187"/>
    </g>
    <g id="text_7">
     <!-- Baseline-corrected data -->
     <g transform="translate(390.178125 102.998437) scale(0.1 -0.1)">
      <defs>
       <path id="DejaVuSans-42" d="M 1259 2228 
L 1259 519 
L 2272 519 
Q 2781 519 3026 730 
Q 3272 941 3272 1375 
Q 3272 1813 3026 2020 
Q 2781 2228 2272 2228 
L 1259 2228 
z
M 1259 4147 
L 1259 2741 
L 2194 2741 
Q 2656 2741 2882 2914 
Q 3109 3088 3109 3444 
Q 3109 3797 2882 3972 
Q 2656 4147 2194 4147 
L 1259 4147 
z
M 628 4666 
L 2241 4666 
Q 2963 4666 3353 4366 
Q 3744 4066 3744 3513 
Q 3744 3084 3544 2831 
Q 3344 2578 2956 2516 
Q 3422 2416 3680 2098 
Q 3938 1781 3938 1306 
Q 3938 681 3513 340 
Q 3088 0 2303 0 
L 628 0 
L 628 4666 
z
" transform="scale(0.015625)"/>
       <path id="DejaVuSans-6c" d="M 603 4863 
L 1178 4863 
L 1178 0 
L 603 0 
L 603 4863 
z
" transform="scale(0.015625)"/>
       <path id="DejaVuSans-2d" d="M 313 2009 
L 1997 2009 
L 1997 1497 
L 313 1497 
L 313 2009 
z
" transform="scale(0.015625)"/>
       <path id="DejaVuSans-63" d="M 3122 3366 
L 3122 2828 
Q 2878 2963 2633 3030 
Q 2388 3097 2138 3097 
Q 1578 3097 1268 2742 
Q 959 2388 959 1747 
Q 959 1106 1268 751 
Q 1578 397 2138 397 
Q 2388 397 2633 464 
Q 2878 531 3122 666 
L 3122 134 
Q 2881 22 2623 -34 
Q 2366 -91 2075 -91 
Q 1284 -91 818 406 
Q 353 903 353 1747 
Q 353 2603 823 3093 
Q 1294 3584 2113 3584 
Q 2378 3584 2631 3529 
Q 2884 3475 3122 3366 
z
" transform="scale(0.015625)"/>
       <path id="DejaVuSans-6f" d="M 1959 3097 
Q 1497 3097 1228 2736 
Q 959 2375 959 1747 
Q 959 1119 1226 758 
Q 1494 397 1959 397 
Q 2419 397 2687 759 
Q 2956 1122 2956 1747 
Q 2956 2369 2687 2733 
Q 2419 3097 1959 3097 
z
M 1959 3584 
Q 2709 3584 3137 3096 
Q 3566 2609 3566 1747 
Q 3566 888 3137 398 
Q 2709 -91 1959 -91 
Q 1206 -91 779 398 
Q 353 888 353 1747 
Q 353 2609 779 3096 
Q 1206 3584 1959 3584 
z
" transform="scale(0.015625)"/>
       <path id="DejaVuSans-72" d="M 2631 2963 
Q 2534 3019 2420 3045 
Q 2306 3072 2169 3072 
Q 1681 3072 1420 2755 
Q 1159 2438 1159 1844 
L 1159 0 
L 581 0 
L 581 3500 
L 1159 3500 
L 1159 2956 
Q 1341 3275 1631 3429 
Q 1922 3584 2338 3584 
Q 2397 3584 2469 3576 
Q 2541 3569 2628 3553 
L 2631 2963 
z
" transform="scale(0.015625)"/>
       <path id="DejaVuSans-64" d="M 2906 2969 
L 2906 4863 
L 3481 4863 
L 3481 0 
L 2906 0 
L 2906 525 
Q 2725 213 2448 61 
Q 2172 -91 1784 -91 
Q 1150 -91 751 415 
Q 353 922 353 1747 
Q 353 2572 751 3078 
Q 1150 3584 1784 3584 
Q 2172 3584 2448 3432 
Q 2725 3281 2906 2969 
z
M 947 1747 
Q 947 1113 1208 752 
Q 1469 391 1925 391 
Q 2381 391 2643 752 
Q 2906 1113 2906 1747 
Q 2906 2381 2643 2742 
Q 2381 3103 1925 3103 
Q 1469 3103 1208 2742 
Q 947 2381 947 1747 
z
" transform="scale(0.015625)"/>
      </defs>
      <use xlink:href="#DejaVuSans-42"/>
      <use xlink:href="#DejaVuSans-61" transform="translate(68.603516 0)"/>
      <use xlink:href="#DejaVuSans-73" transform="translate(129.882812 0)"/>
      <use xlink:href="#DejaVuSans-65" transform="translate(181.982422 0)"/>
      <use xlink:href="#DejaVuSans-6c" transform="translate(243.505859 0)"/>
      <use xlink:href="#DejaVuSans-69" transform="translate(271.289062 0)"/>
      <use xlink:href="#DejaVuSans-6e" transform="translate(299.072266 0)"/>
      <use xlink:href="#DejaVuSans-65" transform="translate(362.451172 0)"/>
      <use xlink:href="#DejaVuSans-2d" transform="translate(423.974609 0)"/>
      <use xlink:href="#DejaVuSans-63" transform="translate(460.058594 0)"/>
      <use xlink:href="#DejaVuSans-6f" transform="translate(515.039062 0)"/>
      <use xlink:href="#DejaVuSans-72" transform="translate(576.220703 0)"/>
      <use xlink:href="#DejaVuSans-72" transform="translate(615.583984 0)"/>
      <use xlink:href="#DejaVuSans-65" transform="translate(654.447266 0)"/>
      <use xlink:href="#DejaVuSans-63" transform="translate(715.970703 0)"/>
      <use xlink:href="#DejaVuSans-74" transform="translate(770.951172 0)"/>
      <use xlink:href="#DejaVuSans-65" transform="translate(810.160156 0)"/>
      <use xlink:href="#DejaVuSans-64" transform="translate(871.683594 0)"/>
      <use xlink:href="#DejaVuSans-20" transform="translate(935.160156 0)"/>
      <use xlink:href="#DejaVuSans-64" transform="translate(966.947266 0)"/>
      <use xlink:href="#DejaVuSans-61" transform="translate(1030.423828 0)"/>
      <use xlink:href="#DejaVuSans-74" transform="translate(1091.703125 0)"/>
      <use xlink:href="#DejaVuSans-61" transform="translate(1130.912109 0)"/>
     </g>
    </g>
    <g id="line2d_14">
     <path d="M 362.178125 114.176562 
L 372.178125 114.176562 
L 382.178125 114.176562 
" style="fill: none; stroke-dasharray: 3.7,1.6; stroke-dashoffset: 0; stroke: #46327e"/>
    </g>
    <g id="text_8">
     <!-- Gaussian fit -->
     <g transform="translate(390.178125 117.676562) scale(0.1 -0.1)">
      <defs>
       <path id="DejaVuSans-47" d="M 3809 666 
L 3809 1919 
L 2778 1919 
L 2778 2438 
L 4434 2438 
L 4434 434 
Q 4069 175 3628 42 
Q 3188 -91 2688 -91 
Q 1594 -91 976 548 
Q 359 1188 359 2328 
Q 359 3472 976 4111 
Q 1594 4750 2688 4750 
Q 3144 4750 3555 4637 
Q 3966 4525 4313 4306 
L 4313 3634 
Q 3963 3931 3569 4081 
Q 3175 4231 2741 4231 
Q 1884 4231 1454 3753 
Q 1025 3275 1025 2328 
Q 1025 1384 1454 906 
Q 1884 428 2741 428 
Q 3075 428 3337 486 
Q 3600 544 3809 666 
z
" transform="scale(0.015625)"/>
       <path id="DejaVuSans-66" d="M 2375 4863 
L 2375 4384 
L 1825 4384 
Q 1516 4384 1395 4259 
Q 1275 4134 1275 3809 
L 1275 3500 
L 2222 3500 
L 2222 3053 
L 1275 3053 
L 1275 0 
L 697 0 
L 697 3053 
L 147 3053 
L 147 3500 
L 697 3500 
L 697 3744 
Q 697 4328 969 4595 
Q 1241 4863 1831 4863 
L 2375 4863 
z
" transform="scale(0.015625)"/>
      </defs>
      <use xlink:href="#DejaVuSans-47"/>
      <use xlink:href="#DejaVuSans-61" transform="translate(77.490234 0)"/>
      <use xlink:href="#DejaVuSans-75" transform="translate(138.769531 0)"/>
      <use xlink:href="#DejaVuSans-73" transform="translate(202.148438 0)"/>
      <use xlink:href="#DejaVuSans-73" transform="translate(254.248047 0)"/>
      <use xlink:href="#DejaVuSans-69" transform="translate(306.347656 0)"/>
      <use xlink:href="#DejaVuSans-61" transform="translate(334.130859 0)"/>
      <use xlink:href="#DejaVuSans-6e" transform="translate(395.410156 0)"/>
      <use xlink:href="#DejaVuSans-20" transform="translate(458.789062 0)"/>
      <use xlink:href="#DejaVuSans-66" transform="translate(490.576172 0)"/>
      <use xlink:href="#DejaVuSans-69" transform="translate(525.78125 0)"/>
      <use xlink:href="#DejaVuSans-74" transform="translate(553.564453 0)"/>
     </g>
    </g>
   </g>
  </g>
  <g id="axes_2">
   <g id="patch_8">
    <path d="M 72 640.8 
L 518.4 640.8 
L 518.4 556.8 
L 72 556.8 
z
" style="fill: #ffffff"/>
   </g>
   <g id="matplotlib.axis_3">
    <g id="xtick_6">
     <g id="line2d_15">
      <g>
       <use xlink:href="#m43c87112b0" x="72" y="640.8" style="stroke: #000000; stroke-width: 0.8"/>
      </g>
     </g>
     <g id="text_9">
      <!-- 1.2 -->
      <g transform="translate(64.048438 655.398437) scale(0.1 -0.1)">
       <use xlink:href="#DejaVuSans-31"/>
       <use xlink:href="#DejaVuSans-2e" transform="translate(63.623047 0)"/>
       <use xlink:href="#DejaVuSans-32" transform="translate(95.410156 0)"/>
      </g>
     </g>
    </g>
    <g id="xtick_7">
     <g id="line2d_16">
      <g>
       <use xlink:href="#m43c87112b0" x="171.2" y="640.8" style="stroke: #000000; stroke-width: 0.8"/>
      </g>
     </g>
     <g id="text_10">
      <!-- 1.4 -->
      <g transform="translate(163.248437 655.398437) scale(0.1 -0.1)">
       <defs>
        <path id="DejaVuSans-34" d="M 2419 4116 
L 825 1625 
L 2419 1625 
L 2419 4116 
z
M 2253 4666 
L 3047 4666 
L 3047 1625 
L 3713 1625 
L 3713 1100 
L 3047 1100 
L 3047 0 
L 2419 0 
L 2419 1100 
L 313 1100 
L 313 1709 
L 2253 4666 
z
" transform="scale(0.015625)"/>
       </defs>
       <use xlink:href="#DejaVuSans-31"/>
       <use xlink:href="#DejaVuSans-2e" transform="translate(63.623047 0)"/>
       <use xlink:href="#DejaVuSans-34" transform="translate(95.410156 0)"/>
      </g>
     </g>
    </g>
    <g id="xtick_8">
     <g id="line2d_17">
      <g>
       <use xlink:href="#m43c87112b0" x="270.4" y="640.8" style="stroke: #000000; stroke-width: 0.8"/>
      </g>
     </g>
     <g id="text_11">
      <!-- 1.6 -->
      <g transform="translate(262.448438 655.398437) scale(0.1 -0.1)">
       <defs>
        <path id="DejaVuSans-36" d="M 2113 2584 
Q 1688 2584 1439 2293 
Q 1191 2003 1191 1497 
Q 1191 994 1439 701 
Q 1688 409 2113 409 
Q 2538 409 2786 701 
Q 3034 994 3034 1497 
Q 3034 2003 2786 2293 
Q 2538 2584 2113 2584 
z
M 3366 4563 
L 3366 3988 
Q 3128 4100 2886 4159 
Q 2644 4219 2406 4219 
Q 1781 4219 1451 3797 
Q 1122 3375 1075 2522 
Q 1259 2794 1537 2939 
Q 1816 3084 2150 3084 
Q 2853 3084 3261 2657 
Q 3669 2231 3669 1497 
Q 3669 778 3244 343 
Q 2819 -91 2113 -91 
Q 1303 -91 875 529 
Q 447 1150 447 2328 
Q 447 3434 972 4092 
Q 1497 4750 2381 4750 
Q 2619 4750 2861 4703 
Q 3103 4656 3366 4563 
z
" transform="scale(0.015625)"/>
       </defs>
       <use xlink:href="#DejaVuSans-31"/>
       <use xlink:href="#DejaVuSans-2e" transform="translate(63.623047 0)"/>
       <use xlink:href="#DejaVuSans-36" transform="translate(95.410156 0)"/>
      </g>
     </g>
    </g>
    <g id="xtick_9">
     <g id="line2d_18">
      <g>
       <use xlink:href="#m43c87112b0" x="369.6" y="640.8" style="stroke: #000000; stroke-width: 0.8"/>
      </g>
     </g>
     <g id="text_12">
      <!-- 1.8 -->
      <g transform="translate(361.648438 655.398437) scale(0.1 -0.1)">
       <defs>
        <path id="DejaVuSans-38" d="M 2034 2216 
Q 1584 2216 1326 1975 
Q 1069 1734 1069 1313 
Q 1069 891 1326 650 
Q 1584 409 2034 409 
Q 2484 409 2743 651 
Q 3003 894 3003 1313 
Q 3003 1734 2745 1975 
Q 2488 2216 2034 2216 
z
M 1403 2484 
Q 997 2584 770 2862 
Q 544 3141 544 3541 
Q 544 4100 942 4425 
Q 1341 4750 2034 4750 
Q 2731 4750 3128 4425 
Q 3525 4100 3525 3541 
Q 3525 3141 3298 2862 
Q 3072 2584 2669 2484 
Q 3125 2378 3379 2068 
Q 3634 1759 3634 1313 
Q 3634 634 3220 271 
Q 2806 -91 2034 -91 
Q 1263 -91 848 271 
Q 434 634 434 1313 
Q 434 1759 690 2068 
Q 947 2378 1403 2484 
z
M 1172 3481 
Q 1172 3119 1398 2916 
Q 1625 2713 2034 2713 
Q 2441 2713 2670 2916 
Q 2900 3119 2900 3481 
Q 2900 3844 2670 4047 
Q 2441 4250 2034 4250 
Q 1625 4250 1398 4047 
Q 1172 3844 1172 3481 
z
" transform="scale(0.015625)"/>
       </defs>
       <use xlink:href="#DejaVuSans-31"/>
       <use xlink:href="#DejaVuSans-2e" transform="translate(63.623047 0)"/>
       <use xlink:href="#DejaVuSans-38" transform="translate(95.410156 0)"/>
      </g>
     </g>
    </g>
    <g id="xtick_10">
     <g id="line2d_19">
      <g>
       <use xlink:href="#m43c87112b0" x="468.8" y="640.8" style="stroke: #000000; stroke-width: 0.8"/>
      </g>
     </g>
     <g id="text_13">
      <!-- 2.0 -->
      <g transform="translate(460.848437 655.398437) scale(0.1 -0.1)">
       <use xlink:href="#DejaVuSans-32"/>
       <use xlink:href="#DejaVuSans-2e" transform="translate(63.623047 0)"/>
       <use xlink:href="#DejaVuSans-30" transform="translate(95.410156 0)"/>
      </g>
     </g>
    </g>
   </g>
   <g id="matplotlib.axis_4">
    <g id="ytick_6">
     <g id="line2d_20">
      <g>
       <use xlink:href="#mf386def830" x="72" y="622.8" style="stroke: #000000; stroke-width: 0.8"/>
      </g>
     </g>
     <g id="text_14">
      <!-- −20 -->
      <g transform="translate(43.895313 626.599219) scale(0.1 -0.1)">
       <defs>
        <path id="DejaVuSans-2212" d="M 678 2272 
L 4684 2272 
L 4684 1741 
L 678 1741 
L 678 2272 
z
" transform="scale(0.015625)"/>
       </defs>
       <use xlink:href="#DejaVuSans-2212"/>
       <use xlink:href="#DejaVuSans-32" transform="translate(83.789062 0)"/>
       <use xlink:href="#DejaVuSans-30" transform="translate(147.412109 0)"/>
      </g>
     </g>
    </g>
    <g id="ytick_7">
     <g id="line2d_21">
      <g>
       <use xlink:href="#mf386def830" x="72" y="598.8" style="stroke: #000000; stroke-width: 0.8"/>
      </g>
     </g>
     <g id="text_15">
      <!-- 0 -->
      <g transform="translate(58.6375 602.599219) scale(0.1 -0.1)">
       <use xlink:href="#DejaVuSans-30"/>
      </g>
     </g>
    </g>
    <g id="ytick_8">
     <g id="line2d_22">
      <g>
       <use xlink:href="#mf386def830" x="72" y="574.8" style="stroke: #000000; stroke-width: 0.8"/>
      </g>
     </g>
     <g id="text_16">
      <!-- 20 -->
      <g transform="translate(52.275 578.599219) scale(0.1 -0.1)">
       <use xlink:href="#DejaVuSans-32"/>
       <use xlink:href="#DejaVuSans-30" transform="translate(63.623047 0)"/>
      </g>
     </g>
    </g>
    <g id="text_17">
     <!-- Residuals -->
     <g transform="translate(37.815625 622.520312) rotate(-90) scale(0.1 -0.1)">
      <defs>
       <path id="DejaVuSans-52" d="M 2841 2188 
Q 3044 2119 3236 1894 
Q 3428 1669 3622 1275 
L 4263 0 
L 3584 0 
L 2988 1197 
Q 2756 1666 2539 1819 
Q 2322 1972 1947 1972 
L 1259 1972 
L 1259 0 
L 628 0 
L 628 4666 
L 2053 4666 
Q 2853 4666 3247 4331 
Q 3641 3997 3641 3322 
Q 3641 2881 3436 2590 
Q 3231 2300 2841 2188 
z
M 1259 4147 
L 1259 2491 
L 2053 2491 
Q 2509 2491 2742 2702 
Q 2975 2913 2975 3322 
Q 2975 3731 2742 3939 
Q 2509 4147 2053 4147 
L 1259 4147 
z
" transform="scale(0.015625)"/>
      </defs>
      <use xlink:href="#DejaVuSans-52"/>
      <use xlink:href="#DejaVuSans-65" transform="translate(64.982422 0)"/>
      <use xlink:href="#DejaVuSans-73" transform="translate(126.505859 0)"/>
      <use xlink:href="#DejaVuSans-69" transform="translate(178.605469 0)"/>
      <use xlink:href="#DejaVuSans-64" transform="translate(206.388672 0)"/>
      <use xlink:href="#DejaVuSans-75" transform="translate(269.865234 0)"/>
      <use xlink:href="#DejaVuSans-61" transform="translate(333.244141 0)"/>
      <use xlink:href="#DejaVuSans-6c" transform="translate(394.523438 0)"/>
      <use xlink:href="#DejaVuSans-73" transform="translate(422.306641 0)"/>
     </g>
    </g>
   </g>
   <g id="line2d_23">
    <path d="M 518.29584 607.485434 
L 517.68576 620.21402 
L 517.07568 619.749087 
L 515.85552 615.84513 
L 515.24544 616.555634 
L 514.63536 620.165967 
L 514.03024 618.435162 
L 513.42016 617.531296 
L 512.20992 604.122867 
L 511.6048 614.022443 
L 510.99968 616.383008 
L 510.39952 610.612573 
L 509.7944 606.427272 
L 509.19424 615.002301 
L 508.58912 610.659536 
L 507.98896 613.793383 
L 507.3888 609.610429 
L 506.7936 612.023753 
L 506.19344 607.791458 
L 505.59328 612.254033 
L 504.99808 606.099601 
L 504.40288 606.007195 
L 503.80768 611.900725 
L 503.21248 601.920426 
L 502.61728 605.001932 
L 502.02208 603.809029 
L 501.43184 604.717707 
L 500.83664 603.02163 
L 500.2464 602.471416 
L 499.65616 606.241426 
L 499.06592 606.905804 
L 498.47568 609.293505 
L 497.88544 604.425031 
L 497.30016 609.487416 
L 496.70992 601.942964 
L 496.12464 608.70675 
L 495.53936 598.174 
L 494.95408 598.925666 
L 494.3688 597.938737 
L 493.78352 595.442954 
L 493.2032 600.939708 
L 492.0376 603.798608 
L 490.87696 594.447632 
L 490.29664 597.206967 
L 489.71632 598.080421 
L 489.136 600.176631 
L 488.56064 600.453804 
L 487.98528 594.837451 
L 487.40496 597.575578 
L 486.8296 596.336099 
L 486.25424 592.569735 
L 485.67888 592.461991 
L 485.10848 595.861196 
L 484.53312 593.263722 
L 483.96272 592.808559 
L 483.38736 596.935184 
L 482.81696 598.944767 
L 482.24656 597.640305 
L 481.67616 589.814418 
L 481.11072 592.314752 
L 480.54032 588.482748 
L 479.96992 589.297788 
L 479.40448 592.389738 
L 478.83904 592.931849 
L 478.2736 592.299122 
L 477.70816 593.371353 
L 477.14272 595.357319 
L 476.57728 596.482936 
L 476.01184 596.881889 
L 474.89088 590.782839 
L 474.32544 593.887973 
L 473.76496 589.153952 
L 473.20448 588.619448 
L 472.64896 593.525376 
L 472.08848 591.676663 
L 471.528 590.795274 
L 470.97248 591.471344 
L 470.41696 592.673816 
L 469.85648 586.83735 
L 469.30096 589.213968 
L 468.74544 588.288126 
L 468.19488 584.598156 
L 467.63936 585.35909 
L 467.08384 590.074804 
L 466.53328 588.565453 
L 465.98272 588.391691 
L 465.43216 586.162414 
L 464.8816 589.424489 
L 464.33104 588.810921 
L 463.78048 586.532622 
L 463.22992 587.96158 
L 462.68432 591.612465 
L 462.13376 588.596447 
L 461.58816 590.197874 
L 461.04256 584.17008 
L 460.49696 583.802868 
L 459.95136 590.033848 
L 459.40576 587.671564 
L 458.86016 586.687353 
L 458.31952 586.619046 
L 457.77392 588.527815 
L 457.23328 584.387489 
L 456.69264 587.285113 
L 456.152 583.925522 
L 455.61136 585.94638 
L 455.07072 588.635557 
L 454.53008 583.699942 
L 453.9944 586.994938 
L 453.45376 587.702773 
L 452.91808 582.10996 
L 452.3824 584.985729 
L 451.84672 589.064902 
L 451.31104 586.802382 
L 450.77536 588.107103 
L 450.23968 583.033859 
L 449.70896 584.938806 
L 449.17328 584.783339 
L 448.64256 586.875774 
L 448.11184 584.724528 
L 447.57616 585.431941 
L 447.04544 583.905597 
L 446.51472 583.656827 
L 445.98896 584.161341 
L 445.45824 584.515713 
L 444.93248 582.89074 
L 444.40176 586.568119 
L 443.876 586.047789 
L 443.35024 583.834601 
L 442.82448 582.725883 
L 442.29872 584.912 
L 441.77296 587.847842 
L 440.72144 586.100023 
L 440.20064 586.82792 
L 439.67984 585.908205 
L 439.15408 583.676114 
L 438.11248 584.46996 
L 437.59168 585.549506 
L 437.07584 583.705614 
L 436.55504 583.288719 
L 436.03424 584.601513 
L 435.5184 581.072382 
L 435.00256 586.611854 
L 434.48176 581.627064 
L 433.96592 581.59339 
L 433.45008 584.288441 
L 432.93424 580.98251 
L 431.90752 583.804006 
L 431.39664 580.942125 
L 430.8808 582.578818 
L 430.36992 583.280087 
L 429.85904 585.78033 
L 429.34816 583.320362 
L 428.83728 583.414436 
L 428.3264 582.337603 
L 427.81552 583.366973 
L 427.30464 583.790778 
L 426.79872 585.803582 
L 426.28784 583.282391 
L 425.78192 585.977586 
L 425.276 579.617432 
L 424.77008 583.892945 
L 424.26416 582.292116 
L 423.75824 583.013962 
L 423.25232 580.704816 
L 422.75136 584.962805 
L 422.24544 582.219618 
L 421.74448 583.054653 
L 421.24352 581.969091 
L 420.23664 585.879365 
L 419.73568 580.142195 
L 419.23472 583.744501 
L 418.73872 583.581784 
L 418.23776 582.929888 
L 417.74176 582.734709 
L 417.2408 584.920007 
L 416.7448 584.14087 
L 416.2488 584.250935 
L 415.74784 585.574664 
L 415.25184 584.658614 
L 414.7608 580.862972 
L 414.2648 582.833749 
L 413.7688 583.83368 
L 413.27776 582.72863 
L 412.78176 584.289682 
L 412.29072 587.044455 
L 411.79968 583.240435 
L 411.30368 584.877824 
L 410.81264 583.293509 
L 410.3216 584.607903 
L 409.83552 583.869495 
L 409.34448 584.958698 
L 408.85344 584.532977 
L 407.87632 582.453211 
L 407.39024 583.337165 
L 406.90416 584.936108 
L 406.41808 584.461981 
L 405.932 581.568451 
L 405.44592 585.437349 
L 404.95984 583.064309 
L 404.47872 583.109284 
L 403.99264 583.300396 
L 403.51152 582.529703 
L 403.02544 585.799188 
L 402.54432 579.021454 
L 402.0632 583.785382 
L 401.10096 581.235091 
L 400.61984 586.055417 
L 400.13872 583.114863 
L 399.66256 586.743268 
L 399.18144 583.740032 
L 398.70528 587.590401 
L 398.22416 582.892867 
L 397.748 587.594347 
L 397.27184 582.372629 
L 396.79568 583.102686 
L 396.31952 584.535263 
L 395.84336 585.52942 
L 395.3672 585.780822 
L 394.41984 587.129467 
L 393.94864 583.062565 
L 393.47744 585.767067 
L 393.00128 586.118131 
L 392.53008 584.615089 
L 392.05888 584.869949 
L 391.58768 581.206618 
L 391.11648 582.340761 
L 390.65024 585.551769 
L 390.17904 587.325952 
L 389.7128 584.73606 
L 389.2416 588.562981 
L 388.30912 583.102425 
L 387.84288 586.217364 
L 387.37664 585.378224 
L 386.9104 582.926807 
L 386.44416 584.764043 
L 385.97792 587.824166 
L 385.51168 584.080473 
L 385.0504 583.562104 
L 384.58416 583.743693 
L 384.12288 585.300258 
L 383.6616 589.341394 
L 383.20032 585.085852 
L 382.73904 587.269603 
L 382.27776 586.011171 
L 381.81648 586.504946 
L 381.3552 586.334919 
L 380.4376 587.56564 
L 379.97632 586.034226 
L 379.52 585.582669 
L 378.60736 588.126376 
L 377.68976 586.962831 
L 377.2384 585.542976 
L 376.78208 587.559597 
L 376.32576 586.575992 
L 375.86944 589.665117 
L 375.41808 583.947662 
L 374.96176 584.778384 
L 374.5104 584.713206 
L 374.05904 586.950712 
L 373.60768 587.777184 
L 373.15632 589.703069 
L 372.70496 588.891325 
L 372.2536 590.869369 
L 371.80224 587.805623 
L 371.35088 589.519472 
L 370.90448 589.43881 
L 370.45312 588.050054 
L 370.00672 585.898877 
L 369.56032 588.816358 
L 369.11392 586.742936 
L 368.66256 588.556017 
L 368.21616 590.928293 
L 367.76976 587.027864 
L 367.32832 591.598865 
L 366.88192 589.933331 
L 366.43552 586.591795 
L 365.99408 591.266516 
L 365.54768 591.034813 
L 365.10624 589.461336 
L 364.65984 588.857946 
L 364.2184 587.486575 
L 363.77696 589.101391 
L 363.33552 589.288613 
L 362.89408 590.399394 
L 362.45264 591.94768 
L 362.01616 588.931835 
L 361.57472 593.789377 
L 361.13328 591.876853 
L 360.6968 591.411265 
L 360.26032 592.181077 
L 359.3824 591.064539 
L 358.94592 589.590155 
L 358.50944 593.715028 
L 358.07296 588.922507 
L 357.63648 591.940684 
L 357.2 592.755755 
L 356.76848 595.351692 
L 356.332 590.999663 
L 355.464 594.31528 
L 355.03248 593.607327 
L 354.60096 593.834793 
L 354.16944 593.318571 
L 353.73296 593.347453 
L 353.30144 591.420658 
L 352.87488 593.864695 
L 352.44336 594.596867 
L 351.58528 594.205691 
L 351.15376 592.989864 
L 350.7272 595.733885 
L 350.29568 595.611166 
L 349.86912 596.430707 
L 349.44256 595.926263 
L 349.016 598.149068 
L 348.58944 593.012005 
L 348.16288 596.180766 
L 347.73632 593.416237 
L 347.30976 592.186141 
L 346.8832 594.026943 
L 346.03504 594.389441 
L 345.61344 597.171838 
L 345.19184 597.769794 
L 344.76528 598.115476 
L 344.34368 596.708862 
L 343.92208 594.699659 
L 343.50048 599.266426 
L 343.07888 597.889682 
L 342.66224 598.595735 
L 342.24064 597.865882 
L 341.81904 597.529806 
L 341.4024 598.030312 
L 340.9808 596.812014 
L 340.56416 599.250972 
L 340.14256 599.564571 
L 339.72592 597.482173 
L 339.30928 599.862156 
L 338.89264 599.905495 
L 338.476 598.752061 
L 337.64272 601.756131 
L 337.23104 600.381123 
L 336.8144 597.36984 
L 336.39776 600.014138 
L 335.98608 597.821841 
L 335.5744 600.037727 
L 334.74608 595.619179 
L 334.3344 597.981977 
L 333.92272 599.209476 
L 333.51104 597.789132 
L 333.09936 599.69682 
L 332.68768 598.251413 
L 332.276 601.700357 
L 331.86928 601.731046 
L 331.4576 598.727697 
L 331.05088 599.266341 
L 330.6392 600.429851 
L 330.23248 600.740355 
L 329.82576 602.047817 
L 329.41408 598.433359 
L 329.00736 601.114496 
L 328.60064 601.441285 
L 328.19392 599.597112 
L 327.79216 601.69025 
L 327.38544 602.044506 
L 326.97872 600.794543 
L 326.17024 602.549853 
L 325.76848 601.320158 
L 325.36176 603.444121 
L 324.15648 601.83982 
L 323.74976 599.35243 
L 323.35296 598.694734 
L 322.9512 600.067395 
L 322.54944 600.774775 
L 322.14768 599.324 
L 321.74592 600.473997 
L 321.34912 600.93546 
L 320.94736 601.804963 
L 320.55056 601.72319 
L 320.15376 604.670647 
L 319.752 605.32611 
L 319.3552 605.743744 
L 318.9584 602.783836 
L 318.5616 603.813347 
L 318.1648 602.756904 
L 317.768 602.119118 
L 317.3712 603.643427 
L 316.97936 600.860059 
L 316.58256 602.678602 
L 316.18576 602.311706 
L 315.40208 603.896527 
L 315.00528 602.907146 
L 314.61344 604.564462 
L 314.2216 606.708121 
L 313.82976 601.59203 
L 313.43792 606.067576 
L 313.04608 602.546919 
L 312.65424 601.701918 
L 312.2624 602.446592 
L 311.87056 601.02426 
L 311.48368 600.408158 
L 311.09184 601.436779 
L 310.7 604.762574 
L 310.31312 604.553272 
L 309.92624 603.151917 
L 309.5344 603.20105 
L 309.14752 604.763444 
L 308.76064 607.568192 
L 308.37376 606.479771 
L 307.98688 606.58172 
L 307.6 605.17898 
L 307.21312 606.834407 
L 306.8312 602.822771 
L 306.44432 603.738957 
L 306.05744 602.237634 
L 305.67552 603.120109 
L 305.28864 604.996954 
L 304.90672 604.147425 
L 304.5248 605.76759 
L 304.13792 604.055609 
L 303.756 605.617654 
L 303.37408 604.433856 
L 302.61024 607.666376 
L 302.22832 606.840283 
L 301.85136 605.346328 
L 301.46944 602.485073 
L 301.08752 606.67449 
L 300.71056 605.216315 
L 299.95168 599.918921 
L 299.56976 603.565931 
L 299.1928 603.324856 
L 298.81584 606.161114 
L 298.43888 602.357976 
L 298.06192 606.821276 
L 297.68496 605.941525 
L 297.308 606.93447 
L 296.93104 608.523448 
L 296.55408 605.493827 
L 296.17712 603.797949 
L 295.80512 604.596347 
L 295.42816 604.070098 
L 294.6792 601.738936 
L 294.3072 602.295977 
L 293.93024 600.101019 
L 293.55824 602.039541 
L 293.18624 600.386959 
L 292.81424 602.942149 
L 292.44224 602.766768 
L 292.07024 601.709366 
L 291.69824 602.594345 
L 290.9592 607.495496 
L 290.5872 604.343365 
L 290.22016 606.422221 
L 289.84816 604.303943 
L 289.48112 604.182827 
L 289.10912 600.216527 
L 288.74208 601.982619 
L 288.37504 603.076214 
L 288.00304 602.574425 
L 287.636 602.551616 
L 287.26896 602.931381 
L 286.90192 601.090943 
L 286.1728 605.931983 
L 285.80576 604.002995 
L 285.43872 603.243071 
L 285.07664 605.40131 
L 284.34752 607.365852 
L 283.98048 606.230414 
L 283.6184 604.336428 
L 283.25632 604.601467 
L 282.88928 600.619993 
L 282.5272 600.233624 
L 282.16512 601.945663 
L 281.80304 599.432955 
L 281.44096 600.594678 
L 281.07888 599.670922 
L 280.72176 602.018527 
L 280.35968 601.781715 
L 279.9976 602.860527 
L 279.2784 603.896659 
L 278.92128 605.934682 
L 278.5592 603.779144 
L 278.20208 602.960079 
L 277.84496 604.394229 
L 277.12576 601.643871 
L 276.76864 600.975298 
L 276.41152 601.165606 
L 276.0544 597.938531 
L 275.69728 598.06148 
L 275.34512 600.045454 
L 274.988 597.577266 
L 274.63088 597.979562 
L 274.27872 598.855985 
L 273.9216 601.490664 
L 273.56944 600.346643 
L 273.21232 603.407036 
L 272.86016 603.704399 
L 272.508 604.52888 
L 272.15088 603.773306 
L 271.79872 605.58229 
L 271.44656 605.518601 
L 271.0944 600.074662 
L 270.74224 602.494762 
L 270.39008 600.588866 
L 270.04288 602.004786 
L 269.69072 600.929505 
L 269.33856 598.748193 
L 268.99136 600.32986 
L 268.6392 598.457363 
L 268.28704 595.394766 
L 267.93984 598.422606 
L 267.59264 599.857324 
L 267.24048 600.341183 
L 266.89328 600.623148 
L 266.54608 602.955848 
L 265.85168 600.67539 
L 265.50448 602.243845 
L 265.15728 604.335796 
L 264.81008 603.508973 
L 264.46288 602.158464 
L 264.11568 601.706897 
L 263.77344 601.667936 
L 263.084 596.656082 
L 262.7368 598.555047 
L 262.04736 595.519588 
L 261.70512 597.27738 
L 261.36288 597.992215 
L 261.02064 599.503003 
L 260.6784 600.209327 
L 260.33616 601.924507 
L 259.99392 601.949918 
L 259.65168 602.771421 
L 259.30944 601.885994 
L 258.9672 605.602697 
L 258.62496 603.303974 
L 257.94544 600.584064 
L 257.6032 596.38926 
L 257.26592 598.527939 
L 256.92864 596.028145 
L 256.5864 595.303697 
L 256.24912 594.123897 
L 255.91184 593.996559 
L 255.5696 592.704558 
L 255.23232 593.438353 
L 254.89504 593.144789 
L 254.55776 598.110696 
L 254.22048 598.586336 
L 253.8832 600.918829 
L 253.55088 597.657723 
L 253.2136 603.603986 
L 252.544 599.577349 
L 252.20672 601.089828 
L 251.86944 601.607449 
L 251.53712 600.421061 
L 251.2048 598.015099 
L 250.86752 597.381989 
L 250.5352 594.545873 
L 250.20288 593.596606 
L 249.87056 595.958617 
L 249.53328 595.539308 
L 249.20096 592.185007 
L 248.86864 595.464036 
L 248.54128 597.267983 
L 248.20896 596.225429 
L 247.212 603.920039 
L 246.88464 600.285141 
L 246.55232 601.976728 
L 246.22496 598.183498 
L 245.89264 598.334664 
L 245.56528 595.89884 
L 244.9056 594.465953 
L 244.57824 593.26496 
L 244.25088 592.836503 
L 243.92352 588.84224 
L 243.59616 591.266458 
L 243.2688 591.785803 
L 242.94144 594.753104 
L 242.61408 595.060045 
L 241.95936 600.332823 
L 241.63696 601.140362 
L 241.3096 600.352115 
L 240.9872 602.606015 
L 240.65984 601.619425 
L 240.33744 598.507052 
L 240.01008 597.518019 
L 239.68768 599.588453 
L 239.36528 594.433347 
L 238.71552 592.178603 
L 238.07072 587.937968 
L 237.74832 591.619804 
L 237.42592 592.963436 
L 237.10352 591.875548 
L 236.78112 593.197449 
L 236.14128 598.164604 
L 235.81888 599.872891 
L 235.49648 598.787856 
L 235.17904 601.935272 
L 234.85664 601.311796 
L 234.5392 598.117808 
L 234.22176 596.940028 
L 233.58192 593.359498 
L 233.26448 592.25372 
L 232.62464 590.714897 
L 232.3072 589.238726 
L 231.98976 590.872141 
L 231.67232 589.057651 
L 231.35984 590.024493 
L 231.0424 592.556471 
L 230.72496 591.43555 
L 230.40752 593.619482 
L 230.09504 592.461171 
L 229.14768 599.841305 
L 228.83024 599.082052 
L 228.51776 601.447967 
L 228.20528 599.670582 
L 227.88784 600.028568 
L 227.57536 597.274026 
L 227.26288 596.011909 
L 226.9504 597.080094 
L 226.63792 591.658812 
L 226.32544 593.481591 
L 226.01296 591.69051 
L 225.70048 588.901389 
L 224.768 591.712145 
L 224.45552 591.933812 
L 224.14304 591.485683 
L 223.83552 593.092351 
L 223.52304 593.988098 
L 222.90304 599.849838 
L 222.59552 598.805142 
L 222.28304 600.772827 
L 221.97552 601.023719 
L 221.668 601.513425 
L 221.36048 603.316346 
L 221.05296 599.339964 
L 220.74544 597.930397 
L 220.43792 597.072463 
L 220.1304 595.093856 
L 219.51536 588.567986 
L 219.20784 591.047177 
L 218.90032 587.90968 
L 218.59776 590.472741 
L 218.29024 588.541131 
L 217.98272 590.537586 
L 217.68016 590.710789 
L 217.37264 594.6524 
L 217.07008 594.158464 
L 216.76752 597.109017 
L 216.46 596.625313 
L 216.15744 598.940235 
L 215.85488 599.116122 
L 215.55232 602.549594 
L 215.24976 603.346415 
L 214.94224 602.421524 
L 214.63968 598.827402 
L 214.33712 601.07971 
L 214.03952 600.358197 
L 213.4344 593.522151 
L 213.13184 593.514086 
L 212.82928 589.931463 
L 212.53168 589.623572 
L 212.22912 588.812629 
L 211.93152 590.656734 
L 211.62896 589.977579 
L 211.33136 592.826189 
L 211.0288 593.700973 
L 210.7312 592.384526 
L 210.4336 595.168498 
L 210.13104 595.509951 
L 209.83344 597.258455 
L 209.23824 603.76295 
L 208.94064 601.901618 
L 208.64304 601.057287 
L 208.04784 604.070537 
L 207.75024 600.816851 
L 207.45264 596.232299 
L 207.15504 597.143584 
L 206.8624 592.722489 
L 206.5648 593.429402 
L 206.2672 592.011192 
L 205.67696 588.374071 
L 205.38432 587.507307 
L 205.09168 588.426019 
L 204.79408 588.230406 
L 204.2088 594.128208 
L 203.9112 594.576957 
L 203.32592 597.292847 
L 203.03328 600.718325 
L 202.74064 599.719341 
L 202.448 604.10018 
L 202.15536 603.163755 
L 201.86272 604.581708 
L 201.57008 599.52187 
L 201.2824 599.803423 
L 200.98976 594.61162 
L 200.69712 592.003036 
L 200.40944 590.583447 
L 200.1168 592.746938 
L 199.2488 587.215205 
L 198.66848 590.287401 
L 198.3808 588.69497 
L 198.08816 589.430011 
L 197.80048 589.324032 
L 197.22512 593.401334 
L 196.93744 594.551149 
L 196.64976 597.60478 
L 196.36208 598.277693 
L 196.0744 600.583158 
L 195.78672 603.84774 
L 195.49904 605.360163 
L 195.21136 605.463617 
L 194.92864 602.837726 
L 194.64096 602.344266 
L 194.35328 600.241845 
L 194.07056 600.755135 
L 193.78288 596.150217 
L 193.50016 596.37501 
L 193.21248 593.818559 
L 192.92976 589.212933 
L 192.64208 587.929967 
L 192.35936 587.734634 
L 192.07664 588.985567 
L 191.79392 590.922818 
L 191.5112 589.818733 
L 191.22352 592.594466 
L 190.9408 592.959701 
L 190.65808 596.184973 
L 190.37536 594.516676 
L 190.09264 596.613235 
L 189.80992 601.87446 
L 189.53216 602.586652 
L 189.24944 604.445875 
L 188.96672 607.693746 
L 188.40624 602.847127 
L 188.12352 601.606538 
L 187.8408 601.651333 
L 187.56304 598.949496 
L 187.28032 597.920406 
L 187.00256 594.150753 
L 186.7248 593.037244 
L 186.44208 590.9475 
L 186.16432 593.482037 
L 185.88656 589.773868 
L 185.6088 587.731849 
L 185.32608 586.767723 
L 185.04832 589.768751 
L 184.77056 590.28954 
L 184.4928 589.417871 
L 183.93728 593.072064 
L 183.65952 597.728034 
L 183.38176 597.724078 
L 183.10896 596.766442 
L 182.8312 603.893031 
L 182.55344 604.755829 
L 182.27568 606.13253 
L 182.00288 604.060076 
L 181.72512 603.455933 
L 181.45232 600.891941 
L 181.17456 601.48618 
L 180.90176 599.21846 
L 180.624 594.624654 
L 180.3512 593.499253 
L 180.0784 591.548758 
L 179.80064 590.643566 
L 179.52784 590.315251 
L 179.25504 590.362884 
L 178.70944 592.524887 
L 178.43664 591.283074 
L 178.16384 592.625085 
L 177.61824 601.323353 
L 177.34544 600.872984 
L 177.07264 605.761305 
L 176.79984 606.960907 
L 176.52704 606.511434 
L 176.2592 607.593393 
L 175.9864 605.706395 
L 175.7136 607.548758 
L 175.44576 605.010534 
L 175.17296 600.749012 
L 174.90512 598.676294 
L 174.63232 598.281319 
L 174.36448 594.238587 
L 174.09168 591.897436 
L 173.82384 592.912924 
L 173.556 588.292138 
L 173.28816 590.498705 
L 173.01536 593.812661 
L 172.74752 593.932319 
L 172.47968 594.45437 
L 172.21184 598.051098 
L 171.944 599.14717 
L 171.67616 602.620284 
L 171.40832 603.135422 
L 170.87264 606.119663 
L 170.6048 607.177829 
L 170.34192 610.996568 
L 170.07408 605.951862 
L 169.54336 604.080129 
L 169.27552 601.354331 
L 169.00768 600.847321 
L 168.7448 598.607564 
L 168.47696 595.137795 
L 168.21408 596.914761 
L 167.94624 593.357391 
L 167.68336 592.027517 
L 167.42048 591.886674 
L 167.1576 591.460605 
L 166.88976 593.847924 
L 166.62688 593.605452 
L 166.364 596.107208 
L 166.10112 595.445803 
L 165.83824 599.913602 
L 165.57536 599.565989 
L 165.0496 605.293742 
L 164.78672 606.440175 
L 164.52384 608.558958 
L 164.26096 607.172113 
L 163.99808 608.843573 
L 163.74016 608.040916 
L 163.2144 601.645201 
L 162.95648 603.094649 
L 162.1728 592.894172 
L 161.90992 593.699033 
L 161.652 591.408954 
L 161.39408 593.600578 
L 160.87328 590.620398 
L 160.61536 591.653089 
L 160.35248 590.622622 
L 159.83664 597.384749 
L 159.57872 597.776961 
L 159.3208 601.526112 
L 159.06288 600.794912 
L 158.80496 604.383914 
L 158.54704 604.240987 
L 158.28912 606.459226 
L 157.77328 603.577246 
L 157.52032 608.961422 
L 157.2624 605.756053 
L 157.00448 604.034089 
L 156.74656 606.71059 
L 156.4936 603.166548 
L 156.23568 602.145851 
L 155.98272 596.472465 
L 155.7248 597.504988 
L 155.47184 595.935483 
L 155.21392 593.606088 
L 154.96096 594.019763 
L 154.70304 592.156913 
L 154.45008 592.494484 
L 154.19712 596.495062 
L 153.94416 593.306398 
L 153.68624 593.393348 
L 153.43328 595.039376 
L 153.18032 599.2282 
L 152.92736 600.492031 
L 152.6744 602.799497 
L 152.42144 603.382688 
L 151.91552 607.856147 
L 151.66256 608.384576 
L 151.4096 611.69572 
L 151.15664 608.679039 
L 150.90864 608.499041 
L 150.65568 606.843686 
L 150.40272 607.223066 
L 150.15472 603.568197 
L 149.90176 604.12466 
L 149.6488 600.152148 
L 149.4008 599.078596 
L 149.14784 600.063626 
L 148.64688 593.457344 
L 148.39888 593.898385 
L 148.15088 594.629378 
L 147.89792 592.695891 
L 147.64992 592.418367 
L 147.40192 593.851996 
L 147.14896 598.463181 
L 146.90096 597.882737 
L 146.65296 599.420434 
L 146.40496 602.872666 
L 146.15696 603.647773 
L 145.90896 605.878649 
L 145.66096 605.235495 
L 145.41296 608.304647 
L 145.16496 608.017184 
L 144.91696 608.253848 
L 144.66896 607.635655 
L 144.42592 608.905246 
L 144.17792 609.01188 
L 143.92992 605.46167 
L 143.68192 606.307156 
L 143.19088 601.962854 
L 142.94288 601.07521 
L 142.69984 599.475874 
L 142.45184 595.733359 
L 142.2088 599.495363 
L 141.96576 596.97621 
L 141.71776 598.559896 
L 141.47472 596.007923 
L 141.22672 596.74293 
L 140.98368 600.999753 
L 140.74064 600.996211 
L 140.4976 602.416537 
L 140.2496 602.282164 
L 140.00656 606.098303 
L 139.76352 606.771548 
L 139.52048 608.909692 
L 139.27744 607.893149 
L 139.0344 610.560631 
L 138.54832 613.18778 
L 138.30528 610.05239 
L 138.06224 610.634626 
L 137.82416 607.025556 
L 137.58112 608.584106 
L 137.33808 608.288336 
L 137.09504 603.147594 
L 136.85696 601.974722 
L 136.61392 602.2633 
L 136.37088 600.373031 
L 136.1328 603.663618 
L 135.88976 597.317347 
L 135.65168 601.292655 
L 135.40864 600.330965 
L 135.17056 600.998832 
L 134.93248 598.871601 
L 134.21328 607.035573 
L 133.97024 606.590244 
L 133.256 609.789223 
L 132.77984 615.015422 
L 132.30368 611.711153 
L 132.0656 615.221032 
L 131.58944 608.071626 
L 131.11328 606.822851 
L 130.8752 604.231754 
L 130.63712 606.134981 
L 130.16592 602.252661 
L 129.92784 601.642178 
L 129.69472 601.401978 
L 129.45664 602.974011 
L 129.22352 603.041723 
L 128.98544 604.526229 
L 128.75232 605.166278 
L 128.28112 607.85058 
L 128.04304 611.718394 
L 127.80992 613.013367 
L 127.5768 611.569044 
L 127.33872 613.795182 
L 127.1056 613.85397 
L 126.87248 613.670767 
L 126.63936 612.217498 
L 126.40624 614.335955 
L 126.16816 614.218022 
L 125.93504 613.005827 
L 125.70192 609.256393 
L 125.4688 610.993926 
L 124.76944 603.599611 
L 124.54128 605.450572 
L 124.30816 604.563192 
L 124.07504 602.769429 
L 123.84192 602.614111 
L 123.6088 603.298635 
L 123.38064 604.69991 
L 123.14752 604.462249 
L 122.9144 608.838506 
L 122.45312 612.719013 
L 121.99184 612.819465 
L 121.76368 612.051217 
L 121.53056 612.401032 
L 121.3024 616.258745 
L 121.06928 615.589617 
L 120.84112 610.629031 
L 120.61296 614.283234 
L 120.37984 612.433225 
L 120.15168 608.593589 
L 119.92352 610.390021 
L 119.69536 607.829797 
L 119.4672 606.765573 
L 119.23904 608.481086 
L 119.00592 604.987291 
L 118.77776 609.893063 
L 118.5496 608.854587 
L 118.32144 608.617831 
L 118.09328 608.78634 
L 117.87008 607.467938 
L 117.64192 607.816042 
L 117.41376 611.620264 
L 117.1856 610.039599 
L 116.95744 612.002996 
L 116.72928 612.096113 
L 116.50608 614.299482 
L 116.04976 616.759629 
L 115.82656 614.94731 
L 115.5984 617.665822 
L 115.3752 615.979749 
L 115.14704 615.150473 
L 114.92384 617.885016 
L 114.24432 612.560819 
L 114.02112 614.174284 
L 113.79792 610.716843 
L 113.56976 610.133486 
L 113.34656 607.458211 
L 113.12336 610.068556 
L 112.90016 607.213527 
L 112.672 607.608369 
L 112.4488 608.512904 
L 112.0024 611.571493 
L 111.7792 613.678548 
L 111.556 613.140598 
L 111.3328 616.00342 
L 111.1096 614.994087 
L 110.6632 615.858792 
L 110.44 616.954836 
L 110.22176 619.040505 
L 109.99856 617.660172 
L 109.77536 618.636145 
L 109.55216 620.865418 
L 108.88752 615.411476 
L 108.66928 618.027673 
L 108.44608 614.618531 
L 108.22784 614.120449 
L 108.00464 614.44491 
L 107.7864 613.172068 
L 107.5632 613.230261 
L 107.34496 613.747418 
L 107.12176 613.05934 
L 106.90352 611.075554 
L 106.68528 610.35297 
L 106.46208 610.624593 
L 106.24384 611.640028 
L 106.0256 610.672031 
L 105.80736 615.17548 
L 105.58416 614.859142 
L 105.36592 615.788482 
L 105.14768 615.948773 
L 104.92944 619.015482 
L 104.7112 620.414394 
L 104.49296 618.586222 
L 104.27472 620.439313 
L 104.05648 620.755553 
L 103.83824 620.217461 
L 103.40176 621.05649 
L 103.18352 621.419042 
L 102.97024 619.791337 
L 102.752 620.446836 
L 102.53376 617.176352 
L 102.10224 616.23827 
L 101.884 618.803401 
L 101.66576 614.594878 
L 101.45248 614.368674 
L 101.23424 615.399153 
L 101.02096 617.512101 
L 100.80272 614.281108 
L 100.58944 614.964568 
L 100.3712 611.838507 
L 100.15792 616.109135 
L 99.94464 614.094712 
L 99.7264 618.437178 
L 99.51312 618.541569 
L 99.29984 615.831876 
L 99.0816 617.028442 
L 98.86832 615.576713 
L 98.65504 619.464918 
L 98.44176 619.967163 
L 98.22848 620.089913 
L 98.01024 622.141896 
L 97.79696 621.043126 
L 97.58368 622.698001 
L 97.3704 621.738491 
L 97.15712 623.518632 
L 96.94384 622.128886 
L 96.73056 621.879774 
L 96.51728 623.973933 
L 96.30896 619.323249 
L 96.09568 623.133775 
L 95.8824 622.235023 
L 95.66912 620.452814 
L 95.45584 621.266928 
L 95.24752 617.964214 
L 95.03424 619.629495 
L 94.82096 617.965589 
L 94.61264 618.197626 
L 94.39936 619.101649 
L 94.18608 618.43621 
L 93.97776 618.375805 
L 93.76448 615.850948 
L 93.55616 616.315593 
L 93.34288 618.954273 
L 93.13456 619.552137 
L 92.92624 618.349955 
L 92.71296 621.417122 
L 92.50464 619.286686 
L 92.29632 620.833966 
L 92.08304 621.180498 
L 91.87472 620.400167 
L 91.6664 624.882961 
L 91.45808 622.890583 
L 91.2448 622.860626 
L 91.03648 624.546078 
L 90.82816 624.210334 
L 90.61984 624.634726 
L 90.41152 624.581252 
L 90.2032 623.358181 
L 89.99488 624.153366 
L 89.78656 622.718908 
L 89.57824 622.826581 
L 89.36992 621.420022 
L 89.1616 622.102563 
L 88.95328 622.007092 
L 88.74496 622.285528 
L 88.5416 622.197187 
L 88.33328 620.768591 
L 87.91664 623.313527 
L 87.71328 620.698029 
L 87.50496 621.029193 
L 87.09328 622.306236 
L 86.88496 622.265705 
L 86.6816 623.005665 
L 86.47328 621.586696 
L 86.26992 625.19741 
L 86.0616 623.691762 
L 85.85824 624.891682 
L 85.64992 626.932905 
L 85.44656 625.159829 
L 85.2432 627.002891 
L 85.03488 626.681506 
L 84.83152 626.986722 
L 84.62816 625.326034 
L 84.4248 626.350002 
L 84.21648 625.800971 
L 84.01312 626.882744 
L 83.80976 626.65584 
L 83.6064 626.200318 
L 83.40304 625.19285 
L 83.19968 625.926469 
L 82.99632 623.112256 
L 82.79296 625.097475 
L 82.5896 624.912742 
L 82.38624 625.568595 
L 82.18288 623.042497 
L 81.97952 623.698806 
L 81.77616 623.13296 
L 81.5728 624.793602 
L 81.3744 622.32881 
L 81.17104 624.527618 
L 80.96768 624.585314 
L 80.76432 623.970234 
L 80.36256 627.73395 
L 80.1592 625.080563 
L 79.9608 626.521267 
L 79.75744 625.711659 
L 79.55408 626.425825 
L 79.35568 626.011031 
L 79.15232 626.535641 
L 78.95392 627.916743 
L 78.75056 627.804257 
L 78.55216 626.588472 
L 78.35376 628.292503 
L 78.1504 627.17011 
L 77.952 628.943081 
L 77.7536 627.104357 
L 77.55024 627.71118 
L 77.35184 627.554378 
L 77.15344 627.242448 
L 76.95504 627.448085 
L 76.75168 627.914375 
L 76.35488 625.138967 
L 76.15648 627.030902 
L 75.75968 624.647515 
L 75.56128 626.936716 
L 75.36288 626.942786 
L 75.16448 626.627508 
L 74.96608 626.904485 
L 74.76768 628.701782 
L 74.56928 627.414005 
L 74.37088 628.301463 
L 74.17744 628.541407 
L 73.97904 628.451819 
L 73.78064 629.522976 
L 73.58224 628.717569 
L 73.3888 629.802539 
L 72.992 628.516899 
L 72.79856 629.673488 
L 72.60016 628.518471 
L 72.40176 629.229859 
L 72.20832 628.06801 
L 72.00992 629.300639 
L 72.00992 629.300639 
" clip-path="url(#p08f9c541a0)" style="fill: none; stroke-dasharray: 3.7,1.6; stroke-dashoffset: 0; stroke: #808080"/>
   </g>
   <g id="line2d_24">
    <path d="M 72 598.8 
L 518.4 598.8 
" clip-path="url(#p08f9c541a0)" style="fill: none; stroke-dasharray: 5.55,2.4; stroke-dashoffset: 0; stroke: #000000; stroke-width: 1.5"/>
   </g>
   <g id="patch_9">
    <path d="M 72 640.8 
L 72 556.8 
" style="fill: none; stroke: #000000; stroke-width: 0.8; stroke-linejoin: miter; stroke-linecap: square"/>
   </g>
   <g id="patch_10">
    <path d="M 518.4 640.8 
L 518.4 556.8 
" style="fill: none; stroke: #000000; stroke-width: 0.8; stroke-linejoin: miter; stroke-linecap: square"/>
   </g>
   <g id="patch_11">
    <path d="M 72 640.8 
L 518.4 640.8 
" style="fill: none; stroke: #000000; stroke-width: 0.8; stroke-linejoin: miter; stroke-linecap: square"/>
   </g>
   <g id="patch_12">
    <path d="M 72 556.8 
L 518.4 556.8 
" style="fill: none; stroke: #000000; stroke-width: 0.8; stroke-linejoin: miter; stroke-linecap: square"/>
   </g>
  </g>
  <g id="text_18">
   <!-- Photon energy (eV) -->
   <g transform="translate(229.8825 710.304375) scale(0.12 -0.12)">
    <defs>
     <path id="DejaVuSans-50" d="M 1259 4147 
L 1259 2394 
L 2053 2394 
Q 2494 2394 2734 2622 
Q 2975 2850 2975 3272 
Q 2975 3691 2734 3919 
Q 2494 4147 2053 4147 
L 1259 4147 
z
M 628 4666 
L 2053 4666 
Q 2838 4666 3239 4311 
Q 3641 3956 3641 3272 
Q 3641 2581 3239 2228 
Q 2838 1875 2053 1875 
L 1259 1875 
L 1259 0 
L 628 0 
L 628 4666 
z
" transform="scale(0.015625)"/>
     <path id="DejaVuSans-68" d="M 3513 2113 
L 3513 0 
L 2938 0 
L 2938 2094 
Q 2938 2591 2744 2837 
Q 2550 3084 2163 3084 
Q 1697 3084 1428 2787 
Q 1159 2491 1159 1978 
L 1159 0 
L 581 0 
L 581 4863 
L 1159 4863 
L 1159 2956 
Q 1366 3272 1645 3428 
Q 1925 3584 2291 3584 
Q 2894 3584 3203 3211 
Q 3513 2838 3513 2113 
z
" transform="scale(0.015625)"/>
     <path id="DejaVuSans-67" d="M 2906 1791 
Q 2906 2416 2648 2759 
Q 2391 3103 1925 3103 
Q 1463 3103 1205 2759 
Q 947 2416 947 1791 
Q 947 1169 1205 825 
Q 1463 481 1925 481 
Q 2391 481 2648 825 
Q 2906 1169 2906 1791 
z
M 3481 434 
Q 3481 -459 3084 -895 
Q 2688 -1331 1869 -1331 
Q 1566 -1331 1297 -1286 
Q 1028 -1241 775 -1147 
L 775 -588 
Q 1028 -725 1275 -790 
Q 1522 -856 1778 -856 
Q 2344 -856 2625 -561 
Q 2906 -266 2906 331 
L 2906 616 
Q 2728 306 2450 153 
Q 2172 0 1784 0 
Q 1141 0 747 490 
Q 353 981 353 1791 
Q 353 2603 747 3093 
Q 1141 3584 1784 3584 
Q 2172 3584 2450 3431 
Q 2728 3278 2906 2969 
L 2906 3500 
L 3481 3500 
L 3481 434 
z
" transform="scale(0.015625)"/>
     <path id="DejaVuSans-56" d="M 1831 0 
L 50 4666 
L 709 4666 
L 2188 738 
L 3669 4666 
L 4325 4666 
L 2547 0 
L 1831 0 
z
" transform="scale(0.015625)"/>
    </defs>
    <use xlink:href="#DejaVuSans-50"/>
    <use xlink:href="#DejaVuSans-68" transform="translate(60.302734 0)"/>
    <use xlink:href="#DejaVuSans-6f" transform="translate(123.681641 0)"/>
    <use xlink:href="#DejaVuSans-74" transform="translate(184.863281 0)"/>
    <use xlink:href="#DejaVuSans-6f" transform="translate(224.072266 0)"/>
    <use xlink:href="#DejaVuSans-6e" transform="translate(285.253906 0)"/>
    <use xlink:href="#DejaVuSans-20" transform="translate(348.632812 0)"/>
    <use xlink:href="#DejaVuSans-65" transform="translate(380.419922 0)"/>
    <use xlink:href="#DejaVuSans-6e" transform="translate(441.943359 0)"/>
    <use xlink:href="#DejaVuSans-65" transform="translate(505.322266 0)"/>
    <use xlink:href="#DejaVuSans-72" transform="translate(566.845703 0)"/>
    <use xlink:href="#DejaVuSans-67" transform="translate(606.208984 0)"/>
    <use xlink:href="#DejaVuSans-79" transform="translate(669.685547 0)"/>
    <use xlink:href="#DejaVuSans-20" transform="translate(728.865234 0)"/>
    <use xlink:href="#DejaVuSans-28" transform="translate(760.652344 0)"/>
    <use xlink:href="#DejaVuSans-65" transform="translate(799.666016 0)"/>
    <use xlink:href="#DejaVuSans-56" transform="translate(861.189453 0)"/>
    <use xlink:href="#DejaVuSans-29" transform="translate(929.597656 0)"/>
   </g>
  </g>
  <g id="text_19">
   <!-- Excitation power 0.3 mW -->
   <g transform="translate(212.689687 23.518125) scale(0.12 -0.12)">
    <defs>
     <path id="DejaVuSans-45" d="M 628 4666 
L 3578 4666 
L 3578 4134 
L 1259 4134 
L 1259 2753 
L 3481 2753 
L 3481 2222 
L 1259 2222 
L 1259 531 
L 3634 531 
L 3634 0 
L 628 0 
L 628 4666 
z
" transform="scale(0.015625)"/>
     <path id="DejaVuSans-78" d="M 3513 3500 
L 2247 1797 
L 3578 0 
L 2900 0 
L 1881 1375 
L 863 0 
L 184 0 
L 1544 1831 
L 300 3500 
L 978 3500 
L 1906 2253 
L 2834 3500 
L 3513 3500 
z
" transform="scale(0.015625)"/>
     <path id="DejaVuSans-70" d="M 1159 525 
L 1159 -1331 
L 581 -1331 
L 581 3500 
L 1159 3500 
L 1159 2969 
Q 1341 3281 1617 3432 
Q 1894 3584 2278 3584 
Q 2916 3584 3314 3078 
Q 3713 2572 3713 1747 
Q 3713 922 3314 415 
Q 2916 -91 2278 -91 
Q 1894 -91 1617 61 
Q 1341 213 1159 525 
z
M 3116 1747 
Q 3116 2381 2855 2742 
Q 2594 3103 2138 3103 
Q 1681 3103 1420 2742 
Q 1159 2381 1159 1747 
Q 1159 1113 1420 752 
Q 1681 391 2138 391 
Q 2594 391 2855 752 
Q 3116 1113 3116 1747 
z
" transform="scale(0.015625)"/>
     <path id="DejaVuSans-77" d="M 269 3500 
L 844 3500 
L 1563 769 
L 2278 3500 
L 2956 3500 
L 3675 769 
L 4391 3500 
L 4966 3500 
L 4050 0 
L 3372 0 
L 2619 2869 
L 1863 0 
L 1184 0 
L 269 3500 
z
" transform="scale(0.015625)"/>
     <path id="DejaVuSans-33" d="M 2597 2516 
Q 3050 2419 3304 2112 
Q 3559 1806 3559 1356 
Q 3559 666 3084 287 
Q 2609 -91 1734 -91 
Q 1441 -91 1130 -33 
Q 819 25 488 141 
L 488 750 
Q 750 597 1062 519 
Q 1375 441 1716 441 
Q 2309 441 2620 675 
Q 2931 909 2931 1356 
Q 2931 1769 2642 2001 
Q 2353 2234 1838 2234 
L 1294 2234 
L 1294 2753 
L 1863 2753 
Q 2328 2753 2575 2939 
Q 2822 3125 2822 3475 
Q 2822 3834 2567 4026 
Q 2313 4219 1838 4219 
Q 1578 4219 1281 4162 
Q 984 4106 628 3988 
L 628 4550 
Q 988 4650 1302 4700 
Q 1616 4750 1894 4750 
Q 2613 4750 3031 4423 
Q 3450 4097 3450 3541 
Q 3450 3153 3228 2886 
Q 3006 2619 2597 2516 
z
" transform="scale(0.015625)"/>
     <path id="DejaVuSans-6d" d="M 3328 2828 
Q 3544 3216 3844 3400 
Q 4144 3584 4550 3584 
Q 5097 3584 5394 3201 
Q 5691 2819 5691 2113 
L 5691 0 
L 5113 0 
L 5113 2094 
Q 5113 2597 4934 2840 
Q 4756 3084 4391 3084 
Q 3944 3084 3684 2787 
Q 3425 2491 3425 1978 
L 3425 0 
L 2847 0 
L 2847 2094 
Q 2847 2600 2669 2842 
Q 2491 3084 2119 3084 
Q 1678 3084 1418 2786 
Q 1159 2488 1159 1978 
L 1159 0 
L 581 0 
L 581 3500 
L 1159 3500 
L 1159 2956 
Q 1356 3278 1631 3431 
Q 1906 3584 2284 3584 
Q 2666 3584 2933 3390 
Q 3200 3197 3328 2828 
z
" transform="scale(0.015625)"/>
     <path id="DejaVuSans-57" d="M 213 4666 
L 850 4666 
L 1831 722 
L 2809 4666 
L 3519 4666 
L 4500 722 
L 5478 4666 
L 6119 4666 
L 4947 0 
L 4153 0 
L 3169 4050 
L 2175 0 
L 1381 0 
L 213 4666 
z
" transform="scale(0.015625)"/>
    </defs>
    <use xlink:href="#DejaVuSans-45"/>
    <use xlink:href="#DejaVuSans-78" transform="translate(63.183594 0)"/>
    <use xlink:href="#DejaVuSans-63" transform="translate(120.613281 0)"/>
    <use xlink:href="#DejaVuSans-69" transform="translate(175.59375 0)"/>
    <use xlink:href="#DejaVuSans-74" transform="translate(203.376953 0)"/>
    <use xlink:href="#DejaVuSans-61" transform="translate(242.585938 0)"/>
    <use xlink:href="#DejaVuSans-74" transform="translate(303.865234 0)"/>
    <use xlink:href="#DejaVuSans-69" transform="translate(343.074219 0)"/>
    <use xlink:href="#DejaVuSans-6f" transform="translate(370.857422 0)"/>
    <use xlink:href="#DejaVuSans-6e" transform="translate(432.039062 0)"/>
    <use xlink:href="#DejaVuSans-20" transform="translate(495.417969 0)"/>
    <use xlink:href="#DejaVuSans-70" transform="translate(527.205078 0)"/>
    <use xlink:href="#DejaVuSans-6f" transform="translate(590.681641 0)"/>
    <use xlink:href="#DejaVuSans-77" transform="translate(651.863281 0)"/>
    <use xlink:href="#DejaVuSans-65" transform="translate(733.650391 0)"/>
    <use xlink:href="#DejaVuSans-72" transform="translate(795.173828 0)"/>
    <use xlink:href="#DejaVuSans-20" transform="translate(836.287109 0)"/>
    <use xlink:href="#DejaVuSans-30" transform="translate(868.074219 0)"/>
    <use xlink:href="#DejaVuSans-2e" transform="translate(931.697266 0)"/>
    <use xlink:href="#DejaVuSans-33" transform="translate(963.484375 0)"/>
    <use xlink:href="#DejaVuSans-20" transform="translate(1027.107422 0)"/>
    <use xlink:href="#DejaVuSans-6d" transform="translate(1058.894531 0)"/>
    <use xlink:href="#DejaVuSans-57" transform="translate(1156.306641 0)"/>
   </g>
  </g>
 </g>
 <defs>
  <clipPath id="p3c6147bca6">
   <rect x="72" y="86.4" width="446.4" height="420"/>
  </clipPath>
  <clipPath id="p08f9c541a0">
   <rect x="72" y="556.8" width="446.4" height="84"/>
  </clipPath>
 </defs>
</svg>
