<?xml version="1.0" encoding="utf-8" standalone="no"?>
<!DOCTYPE svg PUBLIC "-//W3C//DTD SVG 1.1//EN"
  "http://www.w3.org/Graphics/SVG/1.1/DTD/svg11.dtd">
<svg xmlns:xlink="http://www.w3.org/1999/xlink" width="576pt" height="720pt" viewBox="0 0 576 720" xmlns="http://www.w3.org/2000/svg" version="1.1">
 <metadata>
  <rdf:RDF xmlns:dc="http://purl.org/dc/elements/1.1/" xmlns:cc="http://creativecommons.org/ns#" xmlns:rdf="http://www.w3.org/1999/02/22-rdf-syntax-ns#">
   <cc:Work>
    <dc:type rdf:resource="http://purl.org/dc/dcmitype/StillImage"/>
    <dc:date>2026-06-10T15:01:55.175217</dc:date>
    <dc:format>image/svg+xml</dc:format>
    <dc:creator>
     <cc:Agent>
      <dc:title>Matplotlib v3.10.0, https://matplotlib.org/</dc:title>
     </cc:Agent>
    </dc:creator>
   </cc:Work>
  </rdf:RDF>
 </metadata>
 <defs>
  <style type="text/css">*{stroke-linejoin: round; stroke-linecap: butt}</style>
 </defs>
 <g id="figure_1">
  <g id="patch_1">
   <path d="M 0 720 
L 576 720 
L 576 0 
L 0 0 
z
" style="fill: #ffffff"/>
  </g>
  <g id="axes_1">
   <g id="patch_2">
    <path d="M 72 506.4 
L 518.4 506.4 
L 518.4 86.4 
L 72 86.4 
z
" style="fill: #ffffff"/>
   </g>
   <g id="matplotlib.axis_1">
    <g id="xtick_1">
     <g id="line2d_1">
      <defs>
       <path id="m69ae53e08f" d="M 0 0 
L 0 3.5 
" style="stroke: #000000; stroke-width: 0.8"/>
      </defs>
      <g>
       <use xlink:href="#m69ae53e08f" x="72" y="506.4" style="stroke: #000000; stroke-width: 0.8"/>
      </g>
     </g>
    </g>
    <g id="xtick_2">
     <g id="line2d_2">
      <g>
       <use xlink:href="#m69ae53e08f" x="171.2" y="506.4" style="stroke: #000000; stroke-width: 0.8"/>
      </g>
     </g>
    </g>
    <g id="xtick_3">
     <g id="line2d_3">
      <g>
       <use xlink:href="#m69ae53e08f" x="270.4" y="506.4" style="stroke: #000000; stroke-width: 0.8"/>
      </g>
     </g>
    </g>
    <g id="xtick_4">
     <g id="line2d_4">
      <g>
       <use xlink:href="#m69ae53e08f" x="369.6" y="506.4" style="stroke: #000000; stroke-width: 0.8"/>
      </g>
     </g>
    </g>
    <g id="xtick_5">
     <g id="line2d_5">
      <g>
       <use xlink:href="#m69ae53e08f" x="468.8" y="506.4" style="stroke: #000000; stroke-width: 0.8"/>
      </g>
     </g>
    </g>
   </g>
   <g id="matplotlib.axis_2">
    <g id="ytick_1">
     <g id="line2d_6">
      <defs>
       <path id="m8150c24659" d="M 0 0 
L -3.5 0 
" style="stroke: #000000; stroke-width: 0.8"/>
      </defs>
      <g>
       <use xlink:href="#m8150c24659" x="72" y="484.722137" style="stroke: #000000; stroke-width: 0.8"/>
      </g>
     </g>
     <g id="text_1">
      <!-- 0 -->
      <g transform="translate(58.6375 488.521356) scale(0.1 -0.1)">
       <defs>
        <path id="DejaVuSans-30" d="M 2034 4250 
Q 1547 4250 1301 3770 
Q 1056 3291 1056 2328 
Q 1056 1369 1301 889 
Q 1547 409 2034 409 
Q 2525 409 2770 889 
Q 3016 1369 3016 2328 
Q 3016 3291 2770 3770 
Q 2525 4250 2034 4250 
z
M 2034 4750 
Q 2819 4750 3233 4129 
Q 3647 3509 3647 2328 
Q 3647 1150 3233 529 
Q 2819 -91 2034 -91 
Q 1250 -91 836 529 
Q 422 1150 422 2328 
Q 422 3509 836 4129 
Q 1250 4750 2034 4750 
z
" transform="scale(0.015625)"/>
       </defs>
       <use xlink:href="#DejaVuSans-30"/>
      </g>
     </g>
    </g>
    <g id="ytick_2">
     <g id="line2d_7">
      <g>
       <use xlink:href="#m8150c24659" x="72" y="408.351913" style="stroke: #000000; stroke-width: 0.8"/>
      </g>
     </g>
     <g id="text_2">
      <!-- 2000 -->
      <g transform="translate(39.55 412.151132) scale(0.1 -0.1)">
       <defs>
        <path id="DejaVuSans-32" d="M 1228 531 
L 3431 531 
L 3431 0 
L 469 0 
L 469 531 
Q 828 903 1448 1529 
Q 2069 2156 2228 2338 
Q 2531 2678 2651 2914 
Q 2772 3150 2772 3378 
Q 2772 3750 2511 3984 
Q 2250 4219 1831 4219 
Q 1534 4219 1204 4116 
Q 875 4013 500 3803 
L 500 4441 
Q 881 4594 1212 4672 
Q 1544 4750 1819 4750 
Q 2544 4750 2975 4387 
Q 3406 4025 3406 3419 
Q 3406 3131 3298 2873 
Q 3191 2616 2906 2266 
Q 2828 2175 2409 1742 
Q 1991 1309 1228 531 
z
" transform="scale(0.015625)"/>
       </defs>
       <use xlink:href="#DejaVuSans-32"/>
       <use xlink:href="#DejaVuSans-30" transform="translate(63.623047 0)"/>
       <use xlink:href="#DejaVuSans-30" transform="translate(127.246094 0)"/>
       <use xlink:href="#DejaVuSans-30" transform="translate(190.869141 0)"/>
      </g>
     </g>
    </g>
    <g id="ytick_3">
     <g id="line2d_8">
      <g>
       <use xlink:href="#m8150c24659" x="72" y="331.981689" style="stroke: #000000; stroke-width: 0.8"/>
      </g>
     </g>
     <g id="text_3">
      <!-- 4000 -->
      <g transform="translate(39.55 335.780908) scale(0.1 -0.1)">
       <defs>
        <path id="DejaVuSans-34" d="M 2419 4116 
L 825 1625 
L 2419 1625 
L 2419 4116 
z
M 2253 4666 
L 3047 4666 
L 3047 1625 
L 3713 1625 
L 3713 1100 
L 3047 1100 
L 3047 0 
L 2419 0 
L 2419 1100 
L 313 1100 
L 313 1709 
L 2253 4666 
z
" transform="scale(0.015625)"/>
       </defs>
       <use xlink:href="#DejaVuSans-34"/>
       <use xlink:href="#DejaVuSans-30" transform="translate(63.623047 0)"/>
       <use xlink:href="#DejaVuSans-30" transform="translate(127.246094 0)"/>
       <use xlink:href="#DejaVuSans-30" transform="translate(190.869141 0)"/>
      </g>
     </g>
    </g>
    <g id="ytick_4">
     <g id="line2d_9">
      <g>
       <use xlink:href="#m8150c24659" x="72" y="255.611465" style="stroke: #000000; stroke-width: 0.8"/>
      </g>
     </g>
     <g id="text_4">
      <!-- 6000 -->
      <g transform="translate(39.55 259.410684) scale(0.1 -0.1)">
       <defs>
        <path id="DejaVuSans-36" d="M 2113 2584 
Q 1688 2584 1439 2293 
Q 1191 2003 1191 1497 
Q 1191 994 1439 701 
Q 1688 409 2113 409 
Q 2538 409 2786 701 
Q 3034 994 3034 1497 
Q 3034 2003 2786 2293 
Q 2538 2584 2113 2584 
z
M 3366 4563 
L 3366 3988 
Q 3128 4100 2886 4159 
Q 2644 4219 2406 4219 
Q 1781 4219 1451 3797 
Q 1122 3375 1075 2522 
Q 1259 2794 1537 2939 
Q 1816 3084 2150 3084 
Q 2853 3084 3261 2657 
Q 3669 2231 3669 1497 
Q 3669 778 3244 343 
Q 2819 -91 2113 -91 
Q 1303 -91 875 529 
Q 447 1150 447 2328 
Q 447 3434 972 4092 
Q 1497 4750 2381 4750 
Q 2619 4750 2861 4703 
Q 3103 4656 3366 4563 
z
" transform="scale(0.015625)"/>
       </defs>
       <use xlink:href="#DejaVuSans-36"/>
       <use xlink:href="#DejaVuSans-30" transform="translate(63.623047 0)"/>
       <use xlink:href="#DejaVuSans-30" transform="translate(127.246094 0)"/>
       <use xlink:href="#DejaVuSans-30" transform="translate(190.869141 0)"/>
      </g>
     </g>
    </g>
    <g id="ytick_5">
     <g id="line2d_10">
      <g>
       <use xlink:href="#m8150c24659" x="72" y="179.241241" style="stroke: #000000; stroke-width: 0.8"/>
      </g>
     </g>
     <g id="text_5">
      <!-- 8000 -->
      <g transform="translate(39.55 183.04046) scale(0.1 -0.1)">
       <defs>
        <path id="DejaVuSans-38" d="M 2034 2216 
Q 1584 2216 1326 1975 
Q 1069 1734 1069 1313 
Q 1069 891 1326 650 
Q 1584 409 2034 409 
Q 2484 409 2743 651 
Q 3003 894 3003 1313 
Q 3003 1734 2745 1975 
Q 2488 2216 2034 2216 
z
M 1403 2484 
Q 997 2584 770 2862 
Q 544 3141 544 3541 
Q 544 4100 942 4425 
Q 1341 4750 2034 4750 
Q 2731 4750 3128 4425 
Q 3525 4100 3525 3541 
Q 3525 3141 3298 2862 
Q 3072 2584 2669 2484 
Q 3125 2378 3379 2068 
Q 3634 1759 3634 1313 
Q 3634 634 3220 271 
Q 2806 -91 2034 -91 
Q 1263 -91 848 271 
Q 434 634 434 1313 
Q 434 1759 690 2068 
Q 947 2378 1403 2484 
z
M 1172 3481 
Q 1172 3119 1398 2916 
Q 1625 2713 2034 2713 
Q 2441 2713 2670 2916 
Q 2900 3119 2900 3481 
Q 2900 3844 2670 4047 
Q 2441 4250 2034 4250 
Q 1625 4250 1398 4047 
Q 1172 3844 1172 3481 
z
" transform="scale(0.015625)"/>
       </defs>
       <use xlink:href="#DejaVuSans-38"/>
       <use xlink:href="#DejaVuSans-30" transform="translate(63.623047 0)"/>
       <use xlink:href="#DejaVuSans-30" transform="translate(127.246094 0)"/>
       <use xlink:href="#DejaVuSans-30" transform="translate(190.869141 0)"/>
      </g>
     </g>
    </g>
    <g id="ytick_6">
     <g id="line2d_11">
      <g>
       <use xlink:href="#m8150c24659" x="72" y="102.871017" style="stroke: #000000; stroke-width: 0.8"/>
      </g>
     </g>
     <g id="text_6">
      <!-- 10000 -->
      <g transform="translate(33.1875 106.670236) scale(0.1 -0.1)">
       <defs>
        <path id="DejaVuSans-31" d="M 794 531 
L 1825 531 
L 1825 4091 
L 703 3866 
L 703 4441 
L 1819 4666 
L 2450 4666 
L 2450 531 
L 3481 531 
L 3481 0 
L 794 0 
L 794 531 
z
" transform="scale(0.015625)"/>
       </defs>
       <use xlink:href="#DejaVuSans-31"/>
       <use xlink:href="#DejaVuSans-30" transform="translate(63.623047 0)"/>
       <use xlink:href="#DejaVuSans-30" transform="translate(127.246094 0)"/>
       <use xlink:href="#DejaVuSans-30" transform="translate(190.869141 0)"/>
       <use xlink:href="#DejaVuSans-30" transform="translate(254.492188 0)"/>
      </g>
     </g>
    </g>
    <g id="text_7">
     <!-- Intensitiy (a.u.) -->
     <g transform="translate(27.107812 334.453125) rotate(-90) scale(0.1 -0.1)">
      <defs>
       <path id="DejaVuSans-49" d="M 628 4666 
L 1259 4666 
L 1259 0 
L 628 0 
L 628 4666 
z
" transform="scale(0.015625)"/>
       <path id="DejaVuSans-6e" d="M 3513 2113 
L 3513 0 
L 2938 0 
L 2938 2094 
Q 2938 2591 2744 2837 
Q 2550 3084 2163 3084 
Q 1697 3084 1428 2787 
Q 1159 2491 1159 1978 
L 1159 0 
L 581 0 
L 581 3500 
L 1159 3500 
L 1159 2956 
Q 1366 3272 1645 3428 
Q 1925 3584 2291 3584 
Q 2894 3584 3203 3211 
Q 3513 2838 3513 2113 
z
" transform="scale(0.015625)"/>
       <path id="DejaVuSans-74" d="M 1172 4494 
L 1172 3500 
L 2356 3500 
L 2356 3053 
L 1172 3053 
L 1172 1153 
Q 1172 725 1289 603 
Q 1406 481 1766 481 
L 2356 481 
L 2356 0 
L 1766 0 
Q 1100 0 847 248 
Q 594 497 594 1153 
L 594 3053 
L 172 3053 
L 172 3500 
L 594 3500 
L 594 4494 
L 1172 4494 
z
" transform="scale(0.015625)"/>
       <path id="DejaVuSans-65" d="M 3597 1894 
L 3597 1613 
L 953 1613 
Q 991 1019 1311 708 
Q 1631 397 2203 397 
Q 2534 397 2845 478 
Q 3156 559 3463 722 
L 3463 178 
Q 3153 47 2828 -22 
Q 2503 -91 2169 -91 
Q 1331 -91 842 396 
Q 353 884 353 1716 
Q 353 2575 817 3079 
Q 1281 3584 2069 3584 
Q 2775 3584 3186 3129 
Q 3597 2675 3597 1894 
z
M 3022 2063 
Q 3016 2534 2758 2815 
Q 2500 3097 2075 3097 
Q 1594 3097 1305 2825 
Q 1016 2553 972 2059 
L 3022 2063 
z
" transform="scale(0.015625)"/>
       <path id="DejaVuSans-73" d="M 2834 3397 
L 2834 2853 
Q 2591 2978 2328 3040 
Q 2066 3103 1784 3103 
Q 1356 3103 1142 2972 
Q 928 2841 928 2578 
Q 928 2378 1081 2264 
Q 1234 2150 1697 2047 
L 1894 2003 
Q 2506 1872 2764 1633 
Q 3022 1394 3022 966 
Q 3022 478 2636 193 
Q 2250 -91 1575 -91 
Q 1294 -91 989 -36 
Q 684 19 347 128 
L 347 722 
Q 666 556 975 473 
Q 1284 391 1588 391 
Q 1994 391 2212 530 
Q 2431 669 2431 922 
Q 2431 1156 2273 1281 
Q 2116 1406 1581 1522 
L 1381 1569 
Q 847 1681 609 1914 
Q 372 2147 372 2553 
Q 372 3047 722 3315 
Q 1072 3584 1716 3584 
Q 2034 3584 2315 3537 
Q 2597 3491 2834 3397 
z
" transform="scale(0.015625)"/>
       <path id="DejaVuSans-69" d="M 603 3500 
L 1178 3500 
L 1178 0 
L 603 0 
L 603 3500 
z
M 603 4863 
L 1178 4863 
L 1178 4134 
L 603 4134 
L 603 4863 
z
" transform="scale(0.015625)"/>
       <path id="DejaVuSans-79" d="M 2059 -325 
Q 1816 -950 1584 -1140 
Q 1353 -1331 966 -1331 
L 506 -1331 
L 506 -850 
L 844 -850 
Q 1081 -850 1212 -737 
Q 1344 -625 1503 -206 
L 1606 56 
L 191 3500 
L 800 3500 
L 1894 763 
L 2988 3500 
L 3597 3500 
L 2059 -325 
z
" transform="scale(0.015625)"/>
       <path id="DejaVuSans-20" transform="scale(0.015625)"/>
       <path id="DejaVuSans-28" d="M 1984 4856 
Q 1566 4138 1362 3434 
Q 1159 2731 1159 2009 
Q 1159 1288 1364 580 
Q 1569 -128 1984 -844 
L 1484 -844 
Q 1016 -109 783 600 
Q 550 1309 550 2009 
Q 550 2706 781 3412 
Q 1013 4119 1484 4856 
L 1984 4856 
z
" transform="scale(0.015625)"/>
       <path id="DejaVuSans-61" d="M 2194 1759 
Q 1497 1759 1228 1600 
Q 959 1441 959 1056 
Q 959 750 1161 570 
Q 1363 391 1709 391 
Q 2188 391 2477 730 
Q 2766 1069 2766 1631 
L 2766 1759 
L 2194 1759 
z
M 3341 1997 
L 3341 0 
L 2766 0 
L 2766 531 
Q 2569 213 2275 61 
Q 1981 -91 1556 -91 
Q 1019 -91 701 211 
Q 384 513 384 1019 
Q 384 1609 779 1909 
Q 1175 2209 1959 2209 
L 2766 2209 
L 2766 2266 
Q 2766 2663 2505 2880 
Q 2244 3097 1772 3097 
Q 1472 3097 1187 3025 
Q 903 2953 641 2809 
L 641 3341 
Q 956 3463 1253 3523 
Q 1550 3584 1831 3584 
Q 2591 3584 2966 3190 
Q 3341 2797 3341 1997 
z
" transform="scale(0.015625)"/>
       <path id="DejaVuSans-2e" d="M 684 794 
L 1344 794 
L 1344 0 
L 684 0 
L 684 794 
z
" transform="scale(0.015625)"/>
       <path id="DejaVuSans-75" d="M 544 1381 
L 544 3500 
L 1119 3500 
L 1119 1403 
Q 1119 906 1312 657 
Q 1506 409 1894 409 
Q 2359 409 2629 706 
Q 2900 1003 2900 1516 
L 2900 3500 
L 3475 3500 
L 3475 0 
L 2900 0 
L 2900 538 
Q 2691 219 2414 64 
Q 2138 -91 1772 -91 
Q 1169 -91 856 284 
Q 544 659 544 1381 
z
M 1991 3584 
L 1991 3584 
z
" transform="scale(0.015625)"/>
       <path id="DejaVuSans-29" d="M 513 4856 
L 1013 4856 
Q 1481 4119 1714 3412 
Q 1947 2706 1947 2009 
Q 1947 1309 1714 600 
Q 1481 -109 1013 -844 
L 513 -844 
Q 928 -128 1133 580 
Q 1338 1288 1338 2009 
Q 1338 2731 1133 3434 
Q 928 4138 513 4856 
z
" transform="scale(0.015625)"/>
      </defs>
      <use xlink:href="#DejaVuSans-49"/>
      <use xlink:href="#DejaVuSans-6e" transform="translate(29.492188 0)"/>
      <use xlink:href="#DejaVuSans-74" transform="translate(92.871094 0)"/>
      <use xlink:href="#DejaVuSans-65" transform="translate(132.080078 0)"/>
      <use xlink:href="#DejaVuSans-6e" transform="translate(193.603516 0)"/>
      <use xlink:href="#DejaVuSans-73" transform="translate(256.982422 0)"/>
      <use xlink:href="#DejaVuSans-69" transform="translate(309.082031 0)"/>
      <use xlink:href="#DejaVuSans-74" transform="translate(336.865234 0)"/>
      <use xlink:href="#DejaVuSans-69" transform="translate(376.074219 0)"/>
      <use xlink:href="#DejaVuSans-79" transform="translate(403.857422 0)"/>
      <use xlink:href="#DejaVuSans-20" transform="translate(463.037109 0)"/>
      <use xlink:href="#DejaVuSans-28" transform="translate(494.824219 0)"/>
      <use xlink:href="#DejaVuSans-61" transform="translate(533.837891 0)"/>
      <use xlink:href="#DejaVuSans-2e" transform="translate(595.117188 0)"/>
      <use xlink:href="#DejaVuSans-75" transform="translate(626.904297 0)"/>
      <use xlink:href="#DejaVuSans-2e" transform="translate(690.283203 0)"/>
      <use xlink:href="#DejaVuSans-29" transform="translate(722.070312 0)"/>
     </g>
    </g>
   </g>
   <g id="line2d_12">
    <path d="M 518.29584 486.425483 
L 517.68576 485.587664 
L 517.07568 486.162695 
L 516.4656 485.477617 
L 515.85552 486.167203 
L 515.24544 485.52031 
L 514.63536 485.789859 
L 513.42016 485.756164 
L 512.20992 486.066116 
L 511.6048 486.297462 
L 510.99968 486.185142 
L 510.39952 485.232731 
L 509.7944 485.922299 
L 509.19424 485.313554 
L 508.58912 485.124864 
L 507.98896 485.432563 
L 507.3888 484.671078 
L 506.7936 485.704275 
L 506.19344 485.553751 
L 505.59328 484.830451 
L 504.99808 485.940019 
L 504.40288 484.873034 
L 503.80768 485.562565 
L 503.21248 485.717505 
L 502.61728 485.528778 
L 502.02208 485.110941 
L 501.43184 485.151306 
L 500.83664 485.611727 
L 500.2464 484.88839 
L 499.65616 485.272422 
L 499.06592 484.5109 
L 498.47568 485.200413 
L 497.88544 484.477076 
L 497.30016 485.16657 
L 496.70992 484.137753 
L 495.53936 484.90578 
L 494.95408 484.335165 
L 493.78352 484.301305 
L 493.2032 484.532559 
L 492.61792 484.305611 
L 492.0376 484.231385 
L 491.45728 483.851677 
L 490.29664 484.008706 
L 489.71632 484.621811 
L 489.136 484.089364 
L 488.56064 484.16786 
L 487.98528 483.215357 
L 487.40496 482.721095 
L 486.8296 483.601478 
L 486.25424 483.450863 
L 485.67888 484.254876 
L 485.10848 484.027873 
L 484.53312 484.068184 
L 483.96272 483.153848 
L 483.38736 483.194159 
L 482.24656 484.649408 
L 481.67616 483.811443 
L 481.11072 482.324312 
L 480.54032 482.861011 
L 479.96992 482.595822 
L 479.40448 482.865207 
L 478.83904 482.714556 
L 478.2736 481.914757 
L 477.70816 482.107772 
L 477.14272 481.918935 
L 476.57728 482.570171 
L 476.01184 482.725001 
L 475.45136 482.650701 
L 474.89088 481.736329 
L 474.32544 482.998527 
L 473.76496 482.236895 
L 473.20448 481.933485 
L 472.64896 481.897352 
L 472.08848 482.357644 
L 471.528 482.016048 
L 470.97248 481.101658 
L 470.41696 481.141896 
L 469.85648 481.449447 
L 469.30096 481.489684 
L 468.74544 481.415367 
L 468.19488 481.226475 
L 467.08384 480.275952 
L 466.53328 480.774392 
L 465.98272 479.859984 
L 465.43216 478.449168 
L 464.8816 479.444015 
L 464.33104 479.636975 
L 463.78048 480.822747 
L 463.22992 479.679228 
L 462.68432 479.146652 
L 461.58816 479.723478 
L 461.04256 478.732681 
L 460.49696 478.391031 
L 459.95136 478.202121 
L 459.40576 478.395062 
L 458.86016 476.831488 
L 458.31952 476.833486 
L 457.77392 478.01924 
L 457.23328 477.792126 
L 456.69264 478.099605 
L 456.152 475.61957 
L 455.61136 475.927048 
L 455.07072 476.960043 
L 453.9944 476.123947 
L 452.91808 476.127923 
L 452.3824 475.21346 
L 451.31104 474.491901 
L 450.77536 474.761176 
L 450.23968 475.183191 
L 449.70896 473.046785 
L 449.17328 475.683537 
L 448.64256 474.310834 
L 448.11184 474.732831 
L 447.57616 473.360145 
L 447.04544 474.431289 
L 446.51472 473.936844 
L 445.98896 473.060528 
L 445.45824 470.618642 
L 444.93248 474.019059 
L 444.40176 471.882654 
L 443.876 471.884596 
L 443.35024 471.313762 
L 442.82448 472.232147 
L 442.29872 471.546757 
L 441.77296 471.472329 
L 441.2472 470.977865 
L 440.20064 472.01273 
L 439.67984 469.341696 
L 439.15408 470.565562 
L 438.63328 470.643856 
L 437.59168 468.051116 
L 437.07584 468.129392 
L 436.55504 468.856834 
L 436.03424 467.675019 
L 435.5184 467.63874 
L 435.00256 466.265981 
L 434.48176 467.87168 
L 433.96592 467.224439 
L 433.45008 465.126164 
L 432.93424 465.700846 
L 431.90752 464.100864 
L 431.39664 466.584784 
L 430.8808 463.188215 
L 430.36992 463.151917 
L 429.85904 467.086871 
L 429.34816 461.666472 
L 428.83728 462.050211 
L 427.81552 464.383278 
L 427.30464 462.284984 
L 426.79872 463.126925 
L 426.28784 462.441481 
L 425.78192 459.923132 
L 425.276 459.084929 
L 424.77008 459.545019 
L 424.26416 460.463331 
L 423.75824 459.128721 
L 423.25232 460.54344 
L 422.75136 458.445109 
L 422.24544 461.158121 
L 421.74448 456.119537 
L 421.24352 457.076016 
L 420.7376 454.214001 
L 420.23664 458.60714 
L 419.73568 454.714109 
L 419.23472 454.486849 
L 418.73872 456.588863 
L 418.23776 457.239861 
L 417.74176 452.65948 
L 417.2408 454.761512 
L 416.7448 451.82309 
L 416.2488 454.1924 
L 415.74784 453.354178 
L 415.25184 450.606682 
L 414.7608 451.83042 
L 414.2648 451.259476 
L 413.7688 450.115755 
L 413.27776 452.255935 
L 412.78176 449.699365 
L 412.29072 448.28833 
L 411.79968 447.602812 
L 411.30368 447.833755 
L 410.81264 443.406096 
L 410.3216 447.302792 
L 409.83552 447.533698 
L 408.85344 445.208035 
L 408.36736 443.071464 
L 407.87632 445.3262 
L 407.39024 445.633477 
L 406.90416 442.924129 
L 406.41808 441.780372 
L 405.932 441.362131 
L 405.44592 445.106068 
L 404.95984 442.931312 
L 404.47872 439.725541 
L 403.99264 439.269115 
L 403.51152 440.110965 
L 403.02544 437.134322 
L 402.54432 439.847242 
L 402.0632 437.214247 
L 401.10096 436.60684 
L 400.61984 435.272139 
L 400.13872 434.586584 
L 399.66256 435.16112 
L 399.18144 432.948161 
L 398.70528 433.980918 
L 398.22416 431.156997 
L 397.748 431.655163 
L 397.27184 428.105706 
L 396.79568 431.27683 
L 395.84336 430.554831 
L 395.3672 425.974377 
L 394.896 430.061924 
L 394.41984 424.946879 
L 393.94864 424.108547 
L 393.47744 426.363209 
L 393.00128 425.677636 
L 392.53008 422.471828 
L 392.05888 421.480756 
L 391.58768 422.589865 
L 391.11648 421.216942 
L 390.65024 419.385779 
L 390.17904 420.647628 
L 389.7128 418.243689 
L 389.2416 420.04013 
L 388.77536 417.48345 
L 388.30912 410.497297 
L 387.84288 415.615824 
L 387.37664 413.708291 
L 386.9104 412.449905 
L 386.44416 411.917036 
L 385.97792 414.209865 
L 385.51168 409.89667 
L 385.0504 413.220479 
L 384.58416 409.250949 
L 384.12288 408.718062 
L 383.20032 409.523358 
L 382.27776 403.378963 
L 381.81648 404.755331 
L 381.3552 409.224693 
L 380.89392 403.956852 
L 380.4376 402.583874 
L 379.97632 402.394652 
L 379.52 401.823562 
L 379.06368 397.892181 
L 378.60736 400.68138 
L 378.14608 398.162867 
L 377.68976 396.484408 
L 377.2384 397.211592 
L 376.78208 393.814803 
L 376.32576 395.8403 
L 375.86944 396.872984 
L 375.41808 390.650478 
L 374.96176 391.644977 
L 374.5104 389.661018 
L 374.05904 388.975354 
L 373.60768 391.459054 
L 373.15632 386.534842 
L 372.70496 389.476763 
L 372.2536 391.082205 
L 371.80224 390.129245 
L 371.35088 381.768373 
L 370.90448 379.975322 
L 370.45312 385.170164 
L 369.11392 377.576275 
L 368.66256 378.799866 
L 368.21616 375.135744 
L 367.76976 381.323381 
L 367.32832 378.384759 
L 366.88192 374.224231 
L 366.43552 372.813031 
L 365.99408 375.182138 
L 365.54768 370.563389 
L 365.10624 371.366907 
L 364.65984 369.192005 
L 364.2184 370.224634 
L 363.77696 366.064088 
L 363.33552 369.311453 
L 362.89408 371.222339 
L 362.45264 364.465205 
L 362.01616 362.863043 
L 361.13328 364.126414 
L 360.6968 361.035032 
L 360.26032 360.616608 
L 359.81888 364.398565 
L 358.94592 353.328108 
L 358.50944 356.651825 
L 357.63648 352.683799 
L 357.2 348.179568 
L 356.76848 348.028422 
L 356.332 355.667057 
L 355.90048 349.177182 
L 355.464 348.071426 
L 355.03248 352.044272 
L 354.60096 344.67614 
L 354.16944 355.17864 
L 353.73296 342.082759 
L 353.30144 348.232156 
L 352.87488 342.62052 
L 352.44336 339.22364 
L 352.01184 348.16055 
L 351.58528 344.496355 
L 351.15376 331.820492 
L 350.7272 341.406531 
L 350.29568 335.489433 
L 349.86912 337.094784 
L 349.44256 333.316033 
L 349.016 335.035939 
L 348.58944 332.097262 
L 348.16288 333.358946 
L 347.73632 333.169597 
L 347.30976 325.53415 
L 346.8832 322.060881 
L 346.4616 324.124434 
L 346.03504 323.667789 
L 345.61344 328.557041 
L 345.19184 323.747274 
L 344.76528 322.717852 
L 344.34368 323.483112 
L 343.92208 324.821148 
L 343.07888 319.249237 
L 342.66224 317.761557 
L 342.24064 310.507943 
L 341.81904 320.743111 
L 341.4024 315.818771 
L 340.9808 314.216553 
L 340.56416 311.697875 
L 340.14256 310.592065 
L 339.72592 307.920646 
L 339.30928 306.051115 
L 338.89264 309.260203 
L 338.476 309.261743 
L 338.05936 306.323028 
L 337.64272 304.835348 
L 337.23104 301.514764 
L 336.39776 304.11443 
L 335.98608 295.600671 
L 335.5744 290.332647 
L 335.15776 292.357997 
L 334.74608 295.337957 
L 334.3344 294.270294 
L 333.92272 291.980709 
L 333.51104 295.113409 
L 333.09936 289.272607 
L 332.68768 294.161823 
L 332.276 289.542945 
L 331.86928 286.489639 
L 331.4576 285.192866 
L 331.05088 286.759958 
L 330.6392 287.29607 
L 330.23248 281.684362 
L 329.82576 286.764484 
L 329.41408 280.809127 
L 329.00736 277.946747 
L 328.60064 281.76676 
L 328.19392 275.62046 
L 327.79216 276.882053 
L 327.38544 271.957676 
L 326.97872 276.274096 
L 326.17024 271.160278 
L 325.76848 269.405247 
L 325.36176 272.69067 
L 324.96 270.057381 
L 324.55824 264.101988 
L 324.15648 261.77418 
L 323.74976 262.272089 
L 323.35296 262.579036 
L 322.9512 263.840629 
L 322.54944 259.718121 
L 322.14768 260.101457 
L 321.74592 259.301054 
L 321.34912 251.665497 
L 320.94736 260.067706 
L 320.55056 256.594327 
L 320.15376 257.054014 
L 319.752 253.618838 
L 319.3552 256.560558 
L 318.9584 250.299665 
L 318.5616 251.370314 
L 318.1648 249.615265 
L 317.768 245.64548 
L 317.3712 249.389086 
L 316.97936 240.798884 
L 316.58256 242.67142 
L 316.18576 243.703884 
L 315.79392 249.394914 
L 315.40208 238.742715 
L 315.00528 243.020913 
L 314.61344 238.860184 
L 314.2216 240.656332 
L 313.82976 240.581409 
L 313.43792 231.876651 
L 313.04608 235.543869 
L 312.65424 235.774428 
L 312.2624 222.411086 
L 311.87056 230.240482 
L 311.48368 225.468772 
L 311.09184 227.073994 
L 310.7 226.999072 
L 310.31312 230.437161 
L 309.92624 225.321785 
L 309.5344 232.425664 
L 309.14752 217.191233 
L 308.76064 228.991862 
L 308.37376 227.618628 
L 307.98688 221.89229 
L 307.6 218.877096 
L 307.21312 222.277 
L 306.8312 221.591079 
L 306.44432 210.786121 
L 306.05744 209.603812 
L 305.67552 213.232809 
L 305.28864 209.721208 
L 304.90672 216.328643 
L 304.13792 207.930759 
L 303.756 218.31852 
L 303.37408 206.902583 
L 302.99216 216.641197 
L 302.22832 204.615709 
L 301.85136 196.330932 
L 301.08752 202.061521 
L 300.71056 198.817179 
L 300.32864 198.207628 
L 299.95168 192.710365 
L 299.56976 190.344299 
L 299.1928 198.288195 
L 298.81584 196.303961 
L 298.43888 200.658457 
L 298.06192 190.044388 
L 297.68496 198.370135 
L 297.308 199.631637 
L 296.93104 196.998257 
L 296.55408 187.606112 
L 296.17712 187.302024 
L 295.80512 194.634939 
L 295.42816 183.600835 
L 295.05616 191.391972 
L 294.6792 187.231187 
L 294.3072 181.886646 
L 293.93024 179.329636 
L 293.55824 174.939722 
L 293.18624 173.719173 
L 292.81424 175.515248 
L 292.44224 176.47125 
L 292.07024 180.596616 
L 291.69824 175.099334 
L 291.32624 173.382379 
L 290.9592 178.080504 
L 290.5872 176.859954 
L 290.22016 171.400839 
L 289.84816 178.084608 
L 289.48112 167.699614 
L 289.10912 172.550497 
L 288.00304 160.029867 
L 287.636 164.766177 
L 287.26896 167.784157 
L 286.90192 165.188925 
L 286.53984 160.264383 
L 286.1728 168.819204 
L 285.80576 159.045172 
L 285.43872 166.339884 
L 285.07664 157.482276 
L 284.7096 168.82461 
L 284.34752 167.031247 
L 283.98048 160.96117 
L 283.6184 159.473289 
L 283.25632 162.41488 
L 282.88928 161.690719 
L 282.5272 157.60625 
L 282.16512 148.786826 
L 281.80304 146.764353 
L 281.44096 149.553204 
L 281.07888 149.860023 
L 280.72176 153.641668 
L 280.35968 150.129975 
L 279.9976 149.21487 
L 279.64048 153.760218 
L 279.2784 151.92867 
L 278.92128 162.354525 
L 278.5592 158.613722 
L 278.20208 158.271375 
L 277.84496 159.609173 
L 277.48288 149.300531 
L 277.12576 149.07274 
L 276.76864 135.823825 
L 276.41152 134.412295 
L 276.0544 136.513796 
L 275.69728 144.724914 
L 275.34512 126.779213 
L 274.988 137.395993 
L 274.63088 134.380689 
L 274.27872 129.53248 
L 273.9216 137.209007 
L 273.56944 137.82127 
L 273.21232 138.12807 
L 272.86016 137.518409 
L 272.508 141.185481 
L 272.15088 139.659396 
L 271.44656 142.907733 
L 271.0944 145.658362 
L 270.74224 135.807904 
L 270.39008 141.498787 
L 269.69072 127.334694 
L 269.33856 129.970767 
L 268.99136 122.296843 
L 268.6392 134.51738 
L 268.28704 134.28957 
L 267.59264 128.182517 
L 267.24048 135.095324 
L 266.89328 137.120417 
L 266.54608 145.63698 
L 265.85168 132.923903 
L 265.50448 139.913061 
L 265.15728 134.224762 
L 264.81008 138.120926 
L 264.46288 133.42544 
L 264.11568 122.35304 
L 263.77344 122.659786 
L 263.42624 130.985423 
L 263.084 121.134928 
L 262.7368 119.265141 
L 262.39456 122.015733 
L 262.04736 123.735346 
L 261.70512 115.641366 
L 261.36288 123.088728 
L 261.02064 126.946688 
L 260.6784 124.962327 
L 260.33616 124.543555 
L 259.99392 127.866924 
L 259.65168 141.232978 
L 259.30944 128.59497 
L 258.9672 132.414745 
L 258.62496 133.447008 
L 258.28768 132.531811 
L 257.94544 123.67413 
L 257.6032 125.279169 
L 256.92864 114.207978 
L 256.5864 118.867826 
L 256.24912 105.657024 
L 255.91184 115.510029 
L 255.5696 106.499607 
L 255.23232 112.343175 
L 254.89504 122.387105 
L 254.55776 120.517281 
L 253.8832 126.018429 
L 253.55088 133.007532 
L 253.2136 129.266637 
L 252.87632 122.738229 
L 252.544 129.841888 
L 252.20672 127.552027 
L 251.86944 130.264416 
L 251.53712 121.253957 
L 251.2048 119.460485 
L 250.86752 119.538101 
L 250.5352 121.143103 
L 250.20288 114.614677 
L 249.87056 110.911949 
L 249.53328 105.490909 
L 248.86864 115.192383 
L 248.54128 110.191343 
L 248.20896 117.218631 
L 247.87664 120.351038 
L 247.54432 132.876982 
L 247.212 136.009389 
L 246.88464 124.822361 
L 246.55232 129.673098 
L 245.89264 132.615789 
L 245.56528 126.812861 
L 245.23792 118.718827 
L 244.57824 113.566274 
L 244.25088 116.278626 
L 243.92352 114.44695 
L 243.2688 123.919277 
L 242.94144 121.85849 
L 242.28672 131.750853 
L 241.95936 137.556199 
L 241.63696 136.755503 
L 240.9872 146.991513 
L 240.33744 137.944042 
L 240.01008 136.341477 
L 239.68768 137.03 
L 239.36528 124.162808 
L 239.03792 119.390879 
L 238.71552 128.212831 
L 238.39312 126.877543 
L 238.07072 123.098408 
L 237.74832 122.870488 
L 237.42592 124.513639 
L 236.78112 132.57308 
L 236.45872 131.734199 
L 236.14128 144.718309 
L 235.81888 141.588321 
L 235.17904 151.136963 
L 234.85664 141.668246 
L 234.5392 142.814972 
L 233.58192 133.959563 
L 233.26448 139.650317 
L 232.94704 130.9071 
L 232.62464 135.566874 
L 232.3072 135.644417 
L 231.98976 127.588531 
L 231.67232 134.615765 
L 231.35984 129.156448 
L 230.72496 144.89106 
L 230.40752 141.417387 
L 230.09504 148.482788 
L 229.7776 145.352781 
L 228.83024 158.186479 
L 228.51776 159.447742 
L 228.20528 165.100293 
L 227.88784 156.586186 
L 227.57536 164.186177 
L 227.26288 163.5 
L 226.9504 153.496655 
L 226.63792 154.261511 
L 226.32544 148.687639 
L 226.01296 148.039647 
L 225.70048 148.040801 
L 225.388 148.156511 
L 225.07552 144.224599 
L 224.768 146.364101 
L 224.45552 145.143332 
L 224.14304 153.736137 
L 223.83552 155.455603 
L 223.52304 158.664307 
L 223.21552 165.386023 
L 222.28304 176.195854 
L 221.97552 169.705521 
L 221.668 187.768215 
L 220.43792 168.718389 
L 220.1304 171.697964 
L 219.82288 165.05489 
L 219.51536 163.299511 
L 219.20784 159.253026 
L 218.90032 159.597828 
L 218.59776 161.851867 
L 218.29024 159.256416 
L 217.98272 162.312361 
L 217.68016 175.296417 
L 217.37264 174.266555 
L 217.07008 174.955004 
L 216.76752 181.447591 
L 216.46 183.625279 
L 216.15744 189.201423 
L 215.85488 200.963555 
L 215.55232 193.404021 
L 215.24976 192.183215 
L 214.94224 190.389651 
L 214.63968 195.965795 
L 214.33712 190.468256 
L 214.03952 189.361988 
L 213.73696 185.430039 
L 213.4344 185.736638 
L 213.13184 189.441711 
L 212.53168 176.346435 
L 212.22912 184.671907 
L 211.93152 175.394024 
L 211.62896 182.039352 
L 211.33136 183.529671 
L 211.0288 193.191622 
L 210.7312 191.970798 
L 210.4336 199.952585 
L 210.13104 197.280745 
L 209.83344 205.415274 
L 209.53584 201.406936 
L 209.23824 216.911191 
L 208.94064 211.68093 
L 208.64304 216.83702 
L 208.34544 218.63282 
L 208.04784 211.378748 
L 207.75024 216.038431 
L 207.45264 209.891727 
L 207.15504 209.587346 
L 206.8624 211.612238 
L 206.5648 203.670834 
L 206.2672 202.411825 
L 205.97456 198.174359 
L 205.67696 197.106275 
L 205.38432 198.787501 
L 205.09168 202.072502 
L 204.79408 211.696249 
L 204.50144 203.10568 
L 204.2088 215.898774 
L 203.9112 213.952433 
L 203.61856 213.304367 
L 203.03328 234.384711 
L 202.74064 232.400166 
L 202.448 236.945276 
L 202.15536 236.37358 
L 201.86272 229.997748 
L 201.57008 227.211316 
L 201.2824 228.930708 
L 200.98976 223.662244 
L 200.69712 227.634577 
L 200.40944 221.182356 
L 200.1168 218.663219 
L 199.82416 224.468438 
L 199.53648 218.894474 
L 199.2488 217.940909 
L 198.95616 222.065982 
L 198.66848 221.112417 
L 198.3808 218.058671 
L 197.80048 230.852828 
L 197.5128 225.889826 
L 197.22512 237.728273 
L 196.93744 242.769771 
L 196.64976 241.128874 
L 196.0744 252.548348 
L 195.78672 255.75696 
L 195.49904 252.397733 
L 195.21136 262.059629 
L 194.92864 261.907933 
L 194.64096 256.448525 
L 194.35328 259.466212 
L 194.07056 259.352701 
L 193.78288 252.671369 
L 193.50016 250.954084 
L 193.21248 250.726036 
L 192.92976 241.600838 
L 192.64208 243.167491 
L 192.35936 241.48839 
L 192.07664 247.484497 
L 191.79392 246.760025 
L 191.5112 249.204916 
L 191.22352 248.060426 
L 190.9408 258.944227 
L 190.65808 257.036016 
L 190.37536 258.029874 
L 189.80992 273.878784 
L 189.53216 279.607577 
L 189.24944 279.417696 
L 188.684 283.391036 
L 188.40624 278.084332 
L 188.12352 284.844141 
L 187.8408 277.551829 
L 187.56304 277.820151 
L 187.28032 273.9645 
L 187.00256 275.989337 
L 186.44208 266.788795 
L 186.16432 275.496027 
L 185.88656 266.599922 
L 185.6088 267.899242 
L 185.32608 267.938472 
L 185.04832 272.750822 
L 184.77056 273.36281 
L 184.21504 280.161812 
L 183.93728 279.322766 
L 183.65952 277.338166 
L 183.38176 285.24351 
L 183.10896 288.299327 
L 182.55344 301.895279 
L 182.27568 302.507267 
L 182.00288 299.224356 
L 181.72512 300.790971 
L 181.45232 296.935283 
L 181.17456 299.265601 
L 180.90176 294.760765 
L 180.624 299.153079 
L 179.80064 282.011006 
L 179.52784 290.603664 
L 179.25504 293.086704 
L 178.98224 290.414754 
L 178.43664 287.705627 
L 178.16384 297.749319 
L 177.89104 300.843321 
L 177.61824 302.448104 
L 177.34544 316.043011 
L 177.07264 316.082204 
L 176.79984 328.073337 
L 176.2592 317.383503 
L 175.9864 325.174274 
L 175.7136 322.005917 
L 175.44576 321.701426 
L 175.17296 318.68581 
L 174.90512 318.228578 
L 174.36448 314.030213 
L 174.09168 307.00516 
L 173.82384 305.898782 
L 173.556 309.947393 
L 173.28816 308.802829 
L 173.01536 306.550915 
L 172.74752 315.945442 
L 172.47968 312.089736 
L 172.21184 315.107349 
L 171.944 322.43988 
L 171.67616 325.381123 
L 171.40832 338.555976 
L 171.14048 337.525968 
L 170.87264 335.999553 
L 170.6048 333.785806 
L 170.07408 343.219489 
L 169.80624 333.59783 
L 169.54336 338.715607 
L 169.00768 331.767895 
L 168.7448 337.458448 
L 168.21408 326.997688 
L 167.94624 330.511708 
L 167.68336 325.014023 
L 167.42048 324.518588 
L 167.1576 331.889285 
L 166.88976 329.790094 
L 166.62688 328.989178 
L 166.364 333.343252 
L 166.10112 332.236855 
L 165.83824 339.913033 
L 165.57536 343.006998 
L 165.0496 352.287923 
L 164.52384 358.208558 
L 164.26096 356.529384 
L 163.74016 358.364193 
L 163.47728 355.539466 
L 163.2144 357.487878 
L 162.6936 347.790784 
L 162.43072 347.295349 
L 162.1728 345.998008 
L 161.90992 342.791429 
L 161.652 349.971183 
L 161.39408 341.876892 
L 161.1312 349.24759 
L 160.87328 342.833444 
L 160.61536 349.402236 
L 160.35248 350.968797 
L 160.09456 351.198861 
L 159.83664 351.047073 
L 159.3208 362.008106 
L 159.06288 362.963687 
L 158.80496 366.248559 
L 158.54704 371.900909 
L 158.28912 368.770682 
L 158.0312 374.613957 
L 157.77328 374.882206 
L 157.52032 375.837768 
L 157.2624 375.265944 
L 157.00448 374.312269 
L 156.74656 375.687886 
L 156.23568 372.711335 
L 155.98272 372.86501 
L 155.7248 367.138196 
L 155.47184 365.11532 
L 155.21392 364.19983 
L 154.96096 361.069585 
L 154.45008 367.18109 
L 154.19712 368.022097 
L 153.94416 368.328513 
L 153.68624 371.269719 
L 153.43328 371.117913 
L 153.18032 377.610317 
L 152.42144 383.760924 
L 152.16848 384.52556 
L 151.91552 389.337819 
L 151.66256 390.637047 
L 151.4096 383.23007 
L 151.15664 391.975395 
L 150.90864 393.847382 
L 150.65568 399.270603 
L 150.40272 392.970994 
L 150.15472 390.146212 
L 149.90176 383.884788 
L 149.6488 385.413127 
L 149.4008 383.428417 
L 149.14784 386.560531 
L 148.89984 387.439705 
L 148.64688 384.996792 
L 148.39888 381.026457 
L 148.15088 383.051184 
L 147.89792 381.94475 
L 147.64992 383.549441 
L 147.40192 386.299685 
L 147.14896 385.536917 
L 146.65296 395.466879 
L 146.40496 395.238685 
L 146.15696 394.743194 
L 145.90896 401.31195 
L 145.66096 399.441795 
L 145.41296 406.316032 
L 145.16496 399.787294 
L 144.66896 410.404587 
L 144.42592 406.396049 
L 144.17792 405.365967 
L 143.92992 405.443253 
L 143.68192 404.374986 
L 143.43888 402.122963 
L 143.19088 397.465295 
L 142.94288 401.131982 
L 142.69984 396.512481 
L 142.45184 399.186355 
L 142.2088 395.788778 
L 141.96576 402.281145 
L 141.71776 397.241627 
L 141.47472 401.061036 
L 141.22672 399.419992 
L 140.98368 401.406516 
L 140.74064 407.364291 
L 140.4976 405.95234 
L 140.2496 406.640588 
L 140.00656 414.73673 
L 139.76352 412.981113 
L 139.52048 413.402047 
L 139.27744 419.283452 
L 139.0344 416.382281 
L 138.79136 417.796028 
L 138.54832 425.701244 
L 138.30528 420.547152 
L 138.06224 419.860718 
L 137.82416 419.670672 
L 137.58112 416.005799 
L 137.33808 416.503103 
L 137.09504 414.518375 
L 136.85696 416.695806 
L 136.61392 413.221859 
L 136.37088 414.21557 
L 136.1328 413.070896 
L 135.88976 412.728128 
L 135.65168 416.394778 
L 135.40864 415.670159 
L 135.17056 416.663852 
L 134.93248 418.497616 
L 134.68944 417.505701 
L 134.21328 423.426153 
L 133.97024 422.930644 
L 133.73216 424.955335 
L 133.49408 433.051458 
L 133.256 429.348382 
L 133.01792 433.053217 
L 132.77984 432.023099 
L 132.54176 431.947608 
L 132.30368 432.139413 
L 132.0656 435.309657 
L 131.35136 430.424601 
L 131.11328 427.485227 
L 130.8752 427.753403 
L 130.16592 424.166623 
L 129.92784 425.1985 
L 129.69472 424.81751 
L 128.75232 432.57257 
L 128.28112 437.347449 
L 128.04304 436.050035 
L 127.80992 436.967339 
L 127.5768 440.939452 
L 127.33872 440.749406 
L 127.1056 444.301483 
L 126.87248 441.13298 
L 126.40624 445.411435 
L 126.16816 441.021026 
L 125.93504 440.525481 
L 125.70192 439.724455 
L 125.4688 441.214536 
L 125.23568 440.528065 
L 124.76944 436.100314 
L 124.54128 435.413825 
L 124.30816 438.011274 
L 123.84192 435.110928 
L 123.6088 440.64863 
L 123.38064 439.007514 
L 123.14752 444.392476 
L 122.9144 442.751377 
L 122.68624 444.814216 
L 122.45312 449.129995 
L 121.99184 445.427743 
L 121.76368 450.621761 
L 121.53056 452.799174 
L 121.3024 450.470725 
L 120.84112 448.601359 
L 120.61296 448.182165 
L 120.37984 447.152029 
L 120.15168 445.510912 
L 119.92352 448.9866 
L 119.4672 447.766362 
L 119.23904 447.95813 
L 119.00592 444.102295 
L 118.77776 447.348873 
L 118.5496 448.762565 
L 118.32144 453.231066 
L 118.09328 451.093543 
L 117.87008 450.36885 
L 117.64192 452.126208 
L 117.1856 451.402377 
L 116.95744 453.465216 
L 116.50608 454.421511 
L 116.27792 456.48435 
L 116.04976 455.759676 
L 115.82656 457.707941 
L 115.5984 457.708784 
L 115.3752 460.344381 
L 115.14704 459.581522 
L 114.92384 460.078753 
L 114.69568 457.903045 
L 114.47248 456.949241 
L 114.24432 456.797344 
L 114.02112 456.950909 
L 113.79792 454.622442 
L 113.56976 455.616097 
L 113.34656 452.256632 
L 113.12336 453.937602 
L 112.90016 457.107791 
L 112.4488 453.978279 
L 112.2256 457.797615 
L 112.0024 456.23285 
L 111.7792 458.906632 
L 111.556 460.205751 
L 111.3328 459.862909 
L 111.1096 463.949541 
L 110.8864 462.27022 
L 110.6632 462.46197 
L 110.44 463.952014 
L 110.22176 464.334672 
L 109.99856 463.304498 
L 109.77536 466.627428 
L 109.55216 465.062663 
L 109.11072 467.27903 
L 108.88752 463.95775 
L 108.44608 467.586966 
L 108.22784 464.189298 
L 108.00464 463.846456 
L 107.7864 461.556156 
L 107.34496 465.681779 
L 107.12176 464.53705 
L 106.90352 462.361305 
L 106.46208 463.699415 
L 106.24384 464.96033 
L 106.0256 464.311989 
L 105.80736 464.694646 
L 105.58416 462.67166 
L 104.92944 469.050993 
L 104.7112 468.784503 
L 104.05648 471.956286 
L 103.83824 469.665986 
L 103.62 470.315939 
L 103.40176 472.722407 
L 103.18352 472.074067 
L 102.97024 469.020045 
L 102.752 469.364518 
L 102.53376 472.000097 
L 102.31552 470.626239 
L 101.884 469.63502 
L 101.66576 468.375718 
L 101.23424 470.592049 
L 101.02096 469.676394 
L 100.80272 468.226166 
L 100.58944 471.014467 
L 100.3712 470.786163 
L 100.15792 471.856134 
L 99.94464 470.100406 
L 99.7264 471.094026 
L 99.29984 470.866491 
L 98.86832 472.739155 
L 98.44176 472.931657 
L 98.22848 474.650775 
L 98.01024 475.224358 
L 97.79696 476.943476 
L 97.58368 474.691342 
L 97.3704 476.677756 
L 97.15712 474.960214 
L 96.94384 476.106555 
L 96.73056 476.412824 
L 96.51728 477.59735 
L 96.30896 476.452567 
L 96.09568 474.544099 
L 95.8824 474.888553 
L 95.66912 475.767598 
L 95.45584 474.661018 
L 95.24752 475.310935 
L 95.03424 475.006242 
L 94.82096 473.174144 
L 94.61264 476.687944 
L 94.39936 475.352253 
L 94.18608 475.658522 
L 93.97776 475.010145 
L 93.55616 476.539107 
L 93.34288 475.203416 
L 93.13456 477.227996 
L 92.92624 476.770545 
L 92.71296 475.93126 
L 92.50464 479.025024 
L 92.29632 479.293089 
L 92.08304 478.377434 
L 91.6664 480.288229 
L 91.45808 478.532484 
L 91.2448 480.633453 
L 90.82816 480.978658 
L 90.61984 479.719319 
L 90.41152 479.987384 
L 90.2032 480.064524 
L 89.99488 480.638071 
L 89.78656 479.875138 
L 89.57824 480.143203 
L 89.36992 479.953047 
L 89.1616 480.335668 
L 88.95328 479.267255 
L 88.74496 479.802616 
L 88.5416 479.459701 
L 88.33328 480.033247 
L 88.12496 480.110387 
L 87.91664 479.958416 
L 87.71328 478.393578 
L 87.29664 480.991705 
L 86.88496 480.993226 
L 86.6816 480.497571 
L 86.47328 480.574711 
L 86.0616 481.378119 
L 85.85824 482.677164 
L 85.44656 483.289647 
L 85.2432 483.023102 
L 85.03488 483.329353 
L 84.83152 482.757327 
L 84.4248 484.171679 
L 84.21648 483.905153 
L 84.01312 483.218572 
L 83.80976 483.562989 
L 83.6064 483.18189 
L 83.40304 483.373566 
L 83.19968 482.41969 
L 82.99632 483.75692 
L 82.79296 483.948597 
L 82.5896 483.872978 
L 82.38624 484.064655 
L 82.18288 482.614372 
L 81.97952 483.684306 
L 81.77616 483.685058 
L 81.5728 483.91492 
L 81.3744 482.693729 
L 81.17104 483.419997 
L 80.96768 482.504306 
L 80.76432 484.567053 
L 80.56592 483.842269 
L 80.1592 484.683844 
L 79.9608 483.920875 
L 79.75744 484.303477 
L 79.55408 484.953376 
L 78.75056 484.383567 
L 78.55216 485.071632 
L 78.1504 485.722264 
L 77.952 484.691999 
L 77.7536 485.418249 
L 77.55024 486.602738 
L 77.35184 485.114252 
L 77.15344 485.725947 
L 76.95504 485.459384 
L 76.75168 484.810988 
L 76.15648 486.416962 
L 75.95808 486.37951 
L 75.75968 485.272874 
L 75.56128 485.235422 
L 75.36288 486.190783 
L 75.16448 485.504184 
L 74.96608 486.039509 
L 74.76768 485.467465 
L 74.56928 486.957417 
L 74.37088 486.499929 
L 74.17744 486.577014 
L 73.97904 487.265079 
L 73.78064 487.113071 
L 73.58224 486.541028 
L 73.3888 486.389002 
L 73.1904 487.077067 
L 72.992 487.268725 
L 72.79856 486.849404 
L 72.40176 487.309091 
L 72.00992 486.699577 
L 72.00992 486.699577 
" clip-path="url(#pb41c6b0250)" style="fill: none; stroke-dasharray: 3.7,1.6; stroke-dashoffset: 0; stroke: #1fa187"/>
   </g>
   <g id="line2d_13">
    <path d="M 72.00992 476.645168 
L 76.481723 475.045366 
L 80.953526 473.179611 
L 84.530968 471.473207 
L 88.10841 469.557316 
L 91.685852 467.413202 
L 95.263295 465.021515 
L 98.840737 462.362431 
L 102.418179 459.415828 
L 105.995621 456.161488 
L 109.573064 452.579323 
L 113.150506 448.649635 
L 116.727948 444.353397 
L 120.30539 439.672565 
L 123.882833 434.590405 
L 127.460275 429.091851 
L 131.037717 423.163862 
L 134.615159 416.795809 
L 138.192602 409.979849 
L 141.770044 402.71131 
L 145.347486 394.989062 
L 148.924928 386.815876 
L 153.396731 375.976364 
L 157.868534 364.467268 
L 162.340337 352.324169 
L 166.812139 339.595097 
L 172.178303 323.633317 
L 178.438827 304.230895 
L 186.488072 278.444097 
L 202.586562 226.575997 
L 207.952725 210.039627 
L 212.424528 196.850184 
L 216.896331 184.352475 
L 220.473773 174.94807 
L 224.051215 166.147935 
L 227.628658 158.019451 
L 230.311739 152.402203 
L 232.994821 147.2236 
L 235.677903 142.507007 
L 238.360984 138.273921 
L 241.044066 134.543809 
L 243.727148 131.333963 
L 245.515869 129.490599 
L 247.30459 127.889015 
L 249.093311 126.532563 
L 250.882032 125.424087 
L 252.670753 124.565917 
L 254.459474 123.959863 
L 256.248196 123.607201 
L 258.036917 123.508677 
L 259.825638 123.664498 
L 261.614359 124.074336 
L 263.40308 124.737325 
L 265.191801 125.652068 
L 266.980522 126.816637 
L 268.769243 128.228587 
L 270.557965 129.884956 
L 272.346686 131.782283 
L 274.135407 133.916614 
L 276.818488 137.552678 
L 279.50157 141.695051 
L 282.184652 146.324651 
L 284.867734 151.420342 
L 287.550815 156.959089 
L 290.233897 162.916137 
L 293.811339 171.463909 
L 297.388781 180.642464 
L 300.966224 190.382434 
L 305.438026 203.237176 
L 310.80419 219.469653 
L 317.064714 239.203051 
L 328.691401 276.851727 
L 337.635007 305.5009 
L 343.895531 324.85561 
L 349.261694 340.764822 
L 354.627857 355.909883 
L 359.09966 367.873429 
L 363.571463 379.191388 
L 368.043266 389.831691 
L 371.620708 397.841922 
L 375.19815 405.399738 
L 378.775592 412.503823 
L 382.353035 419.156633 
L 385.930477 425.364033 
L 389.507919 431.134922 
L 393.085361 436.480847 
L 396.662804 441.415627 
L 400.240246 445.954975 
L 403.817688 450.116137 
L 407.39513 453.917554 
L 410.972573 457.378528 
L 414.550015 460.518932 
L 418.127457 463.358929 
L 421.704899 465.918726 
L 425.282342 468.21836 
L 428.859784 470.277501 
L 432.437226 472.115292 
L 436.909029 474.129338 
L 441.380832 475.860716 
L 445.852635 477.34166 
L 450.324437 478.602103 
L 455.690601 479.862165 
L 461.056764 480.887176 
L 467.317288 481.836356 
L 474.472173 482.658965 
L 482.521418 483.326598 
L 491.465023 483.833308 
L 502.19735 484.216759 
L 516.507119 484.493286 
L 518.29584 484.515519 
L 518.29584 484.515519 
" clip-path="url(#pb41c6b0250)" style="fill: none; stroke-dasharray: 3.7,1.6; stroke-dashoffset: 0; stroke: #46327e"/>
   </g>
   <g id="patch_3">
    <path d="M 72 506.4 
L 72 86.4 
" style="fill: none; stroke: #000000; stroke-width: 0.8; stroke-linejoin: miter; stroke-linecap: square"/>
   </g>
   <g id="patch_4">
    <path d="M 518.4 506.4 
L 518.4 86.4 
" style="fill: none; stroke: #000000; stroke-width: 0.8; stroke-linejoin: miter; stroke-linecap: square"/>
   </g>
   <g id="patch_5">
    <path d="M 72 506.4 
L 518.4 506.4 
" style="fill: none; stroke: #000000; stroke-width: 0.8; stroke-linejoin: miter; stroke-linecap: square"/>
   </g>
   <g id="patch_6">
    <path d="M 72 86.4 
L 518.4 86.4 
" style="fill: none; stroke: #000000; stroke-width: 0.8; stroke-linejoin: miter; stroke-linecap: square"/>
   </g>
   <g id="legend_1">
    <g id="patch_7">
     <path d="M 360.178125 123.75625 
L 511.4 123.75625 
Q 513.4 123.75625 513.4 121.75625 
L 513.4 93.4 
Q 513.4 91.4 511.4 91.4 
L 360.178125 91.4 
Q 358.178125 91.4 358.178125 93.4 
L 358.178125 121.75625 
Q 358.178125 123.75625 360.178125 123.75625 
z
" style="fill: #ffffff; opacity: 0.8; stroke: #cccccc; stroke-linejoin: miter"/>
    </g>
    <g id="line2d_14">
     <path d="M 362.178125 99.498437 
L 372.178125 99.498437 
L 382.178125 99.498437 
" style="fill: none; stroke-dasharray: 3.7,1.6; stroke-dashoffset: 0; stroke: #1fa187"/>
    </g>
    <g id="text_8">
     <!-- Baseline-corrected data -->
     <g transform="translate(390.178125 102.998437) scale(0.1 -0.1)">
      <defs>
       <path id="DejaVuSans-42" d="M 1259 2228 
L 1259 519 
L 2272 519 
Q 2781 519 3026 730 
Q 3272 941 3272 1375 
Q 3272 1813 3026 2020 
Q 2781 2228 2272 2228 
L 1259 2228 
z
M 1259 4147 
L 1259 2741 
L 2194 2741 
Q 2656 2741 2882 2914 
Q 3109 3088 3109 3444 
Q 3109 3797 2882 3972 
Q 2656 4147 2194 4147 
L 1259 4147 
z
M 628 4666 
L 2241 4666 
Q 2963 4666 3353 4366 
Q 3744 4066 3744 3513 
Q 3744 3084 3544 2831 
Q 3344 2578 2956 2516 
Q 3422 2416 3680 2098 
Q 3938 1781 3938 1306 
Q 3938 681 3513 340 
Q 3088 0 2303 0 
L 628 0 
L 628 4666 
z
" transform="scale(0.015625)"/>
       <path id="DejaVuSans-6c" d="M 603 4863 
L 1178 4863 
L 1178 0 
L 603 0 
L 603 4863 
z
" transform="scale(0.015625)"/>
       <path id="DejaVuSans-2d" d="M 313 2009 
L 1997 2009 
L 1997 1497 
L 313 1497 
L 313 2009 
z
" transform="scale(0.015625)"/>
       <path id="DejaVuSans-63" d="M 3122 3366 
L 3122 2828 
Q 2878 2963 2633 3030 
Q 2388 3097 2138 3097 
Q 1578 3097 1268 2742 
Q 959 2388 959 1747 
Q 959 1106 1268 751 
Q 1578 397 2138 397 
Q 2388 397 2633 464 
Q 2878 531 3122 666 
L 3122 134 
Q 2881 22 2623 -34 
Q 2366 -91 2075 -91 
Q 1284 -91 818 406 
Q 353 903 353 1747 
Q 353 2603 823 3093 
Q 1294 3584 2113 3584 
Q 2378 3584 2631 3529 
Q 2884 3475 3122 3366 
z
" transform="scale(0.015625)"/>
       <path id="DejaVuSans-6f" d="M 1959 3097 
Q 1497 3097 1228 2736 
Q 959 2375 959 1747 
Q 959 1119 1226 758 
Q 1494 397 1959 397 
Q 2419 397 2687 759 
Q 2956 1122 2956 1747 
Q 2956 2369 2687 2733 
Q 2419 3097 1959 3097 
z
M 1959 3584 
Q 2709 3584 3137 3096 
Q 3566 2609 3566 1747 
Q 3566 888 3137 398 
Q 2709 -91 1959 -91 
Q 1206 -91 779 398 
Q 353 888 353 1747 
Q 353 2609 779 3096 
Q 1206 3584 1959 3584 
z
" transform="scale(0.015625)"/>
       <path id="DejaVuSans-72" d="M 2631 2963 
Q 2534 3019 2420 3045 
Q 2306 3072 2169 3072 
Q 1681 3072 1420 2755 
Q 1159 2438 1159 1844 
L 1159 0 
L 581 0 
L 581 3500 
L 1159 3500 
L 1159 2956 
Q 1341 3275 1631 3429 
Q 1922 3584 2338 3584 
Q 2397 3584 2469 3576 
Q 2541 3569 2628 3553 
L 2631 2963 
z
" transform="scale(0.015625)"/>
       <path id="DejaVuSans-64" d="M 2906 2969 
L 2906 4863 
L 3481 4863 
L 3481 0 
L 2906 0 
L 2906 525 
Q 2725 213 2448 61 
Q 2172 -91 1784 -91 
Q 1150 -91 751 415 
Q 353 922 353 1747 
Q 353 2572 751 3078 
Q 1150 3584 1784 3584 
Q 2172 3584 2448 3432 
Q 2725 3281 2906 2969 
z
M 947 1747 
Q 947 1113 1208 752 
Q 1469 391 1925 391 
Q 2381 391 2643 752 
Q 2906 1113 2906 1747 
Q 2906 2381 2643 2742 
Q 2381 3103 1925 3103 
Q 1469 3103 1208 2742 
Q 947 2381 947 1747 
z
" transform="scale(0.015625)"/>
      </defs>
      <use xlink:href="#DejaVuSans-42"/>
      <use xlink:href="#DejaVuSans-61" transform="translate(68.603516 0)"/>
      <use xlink:href="#DejaVuSans-73" transform="translate(129.882812 0)"/>
      <use xlink:href="#DejaVuSans-65" transform="translate(181.982422 0)"/>
      <use xlink:href="#DejaVuSans-6c" transform="translate(243.505859 0)"/>
      <use xlink:href="#DejaVuSans-69" transform="translate(271.289062 0)"/>
      <use xlink:href="#DejaVuSans-6e" transform="translate(299.072266 0)"/>
      <use xlink:href="#DejaVuSans-65" transform="translate(362.451172 0)"/>
      <use xlink:href="#DejaVuSans-2d" transform="translate(423.974609 0)"/>
      <use xlink:href="#DejaVuSans-63" transform="translate(460.058594 0)"/>
      <use xlink:href="#DejaVuSans-6f" transform="translate(515.039062 0)"/>
      <use xlink:href="#DejaVuSans-72" transform="translate(576.220703 0)"/>
      <use xlink:href="#DejaVuSans-72" transform="translate(615.583984 0)"/>
      <use xlink:href="#DejaVuSans-65" transform="translate(654.447266 0)"/>
      <use xlink:href="#DejaVuSans-63" transform="translate(715.970703 0)"/>
      <use xlink:href="#DejaVuSans-74" transform="translate(770.951172 0)"/>
      <use xlink:href="#DejaVuSans-65" transform="translate(810.160156 0)"/>
      <use xlink:href="#DejaVuSans-64" transform="translate(871.683594 0)"/>
      <use xlink:href="#DejaVuSans-20" transform="translate(935.160156 0)"/>
      <use xlink:href="#DejaVuSans-64" transform="translate(966.947266 0)"/>
      <use xlink:href="#DejaVuSans-61" transform="translate(1030.423828 0)"/>
      <use xlink:href="#DejaVuSans-74" transform="translate(1091.703125 0)"/>
      <use xlink:href="#DejaVuSans-61" transform="translate(1130.912109 0)"/>
     </g>
    </g>
    <g id="line2d_15">
     <path d="M 362.178125 114.176562 
L 372.178125 114.176562 
L 382.178125 114.176562 
" style="fill: none; stroke-dasharray: 3.7,1.6; stroke-dashoffset: 0; stroke: #46327e"/>
    </g>
    <g id="text_9">
     <!-- Gaussian fit -->
     <g transform="translate(390.178125 117.676562) scale(0.1 -0.1)">
      <defs>
       <path id="DejaVuSans-47" d="M 3809 666 
L 3809 1919 
L 2778 1919 
L 2778 2438 
L 4434 2438 
L 4434 434 
Q 4069 175 3628 42 
Q 3188 -91 2688 -91 
Q 1594 -91 976 548 
Q 359 1188 359 2328 
Q 359 3472 976 4111 
Q 1594 4750 2688 4750 
Q 3144 4750 3555 4637 
Q 3966 4525 4313 4306 
L 4313 3634 
Q 3963 3931 3569 4081 
Q 3175 4231 2741 4231 
Q 1884 4231 1454 3753 
Q 1025 3275 1025 2328 
Q 1025 1384 1454 906 
Q 1884 428 2741 428 
Q 3075 428 3337 486 
Q 3600 544 3809 666 
z
" transform="scale(0.015625)"/>
       <path id="DejaVuSans-66" d="M 2375 4863 
L 2375 4384 
L 1825 4384 
Q 1516 4384 1395 4259 
Q 1275 4134 1275 3809 
L 1275 3500 
L 2222 3500 
L 2222 3053 
L 1275 3053 
L 1275 0 
L 697 0 
L 697 3053 
L 147 3053 
L 147 3500 
L 697 3500 
L 697 3744 
Q 697 4328 969 4595 
Q 1241 4863 1831 4863 
L 2375 4863 
z
" transform="scale(0.015625)"/>
      </defs>
      <use xlink:href="#DejaVuSans-47"/>
      <use xlink:href="#DejaVuSans-61" transform="translate(77.490234 0)"/>
      <use xlink:href="#DejaVuSans-75" transform="translate(138.769531 0)"/>
      <use xlink:href="#DejaVuSans-73" transform="translate(202.148438 0)"/>
      <use xlink:href="#DejaVuSans-73" transform="translate(254.248047 0)"/>
      <use xlink:href="#DejaVuSans-69" transform="translate(306.347656 0)"/>
      <use xlink:href="#DejaVuSans-61" transform="translate(334.130859 0)"/>
      <use xlink:href="#DejaVuSans-6e" transform="translate(395.410156 0)"/>
      <use xlink:href="#DejaVuSans-20" transform="translate(458.789062 0)"/>
      <use xlink:href="#DejaVuSans-66" transform="translate(490.576172 0)"/>
      <use xlink:href="#DejaVuSans-69" transform="translate(525.78125 0)"/>
      <use xlink:href="#DejaVuSans-74" transform="translate(553.564453 0)"/>
     </g>
    </g>
   </g>
  </g>
  <g id="axes_2">
   <g id="patch_8">
    <path d="M 72 640.8 
L 518.4 640.8 
L 518.4 556.8 
L 72 556.8 
z
" style="fill: #ffffff"/>
   </g>
   <g id="matplotlib.axis_3">
    <g id="xtick_6">
     <g id="line2d_16">
      <g>
       <use xlink:href="#m69ae53e08f" x="72" y="640.8" style="stroke: #000000; stroke-width: 0.8"/>
      </g>
     </g>
     <g id="text_10">
      <!-- 1.2 -->
      <g transform="translate(64.048438 655.398437) scale(0.1 -0.1)">
       <use xlink:href="#DejaVuSans-31"/>
       <use xlink:href="#DejaVuSans-2e" transform="translate(63.623047 0)"/>
       <use xlink:href="#DejaVuSans-32" transform="translate(95.410156 0)"/>
      </g>
     </g>
    </g>
    <g id="xtick_7">
     <g id="line2d_17">
      <g>
       <use xlink:href="#m69ae53e08f" x="171.2" y="640.8" style="stroke: #000000; stroke-width: 0.8"/>
      </g>
     </g>
     <g id="text_11">
      <!-- 1.4 -->
      <g transform="translate(163.248437 655.398437) scale(0.1 -0.1)">
       <use xlink:href="#DejaVuSans-31"/>
       <use xlink:href="#DejaVuSans-2e" transform="translate(63.623047 0)"/>
       <use xlink:href="#DejaVuSans-34" transform="translate(95.410156 0)"/>
      </g>
     </g>
    </g>
    <g id="xtick_8">
     <g id="line2d_18">
      <g>
       <use xlink:href="#m69ae53e08f" x="270.4" y="640.8" style="stroke: #000000; stroke-width: 0.8"/>
      </g>
     </g>
     <g id="text_12">
      <!-- 1.6 -->
      <g transform="translate(262.448438 655.398437) scale(0.1 -0.1)">
       <use xlink:href="#DejaVuSans-31"/>
       <use xlink:href="#DejaVuSans-2e" transform="translate(63.623047 0)"/>
       <use xlink:href="#DejaVuSans-36" transform="translate(95.410156 0)"/>
      </g>
     </g>
    </g>
    <g id="xtick_9">
     <g id="line2d_19">
      <g>
       <use xlink:href="#m69ae53e08f" x="369.6" y="640.8" style="stroke: #000000; stroke-width: 0.8"/>
      </g>
     </g>
     <g id="text_13">
      <!-- 1.8 -->
      <g transform="translate(361.648438 655.398437) scale(0.1 -0.1)">
       <use xlink:href="#DejaVuSans-31"/>
       <use xlink:href="#DejaVuSans-2e" transform="translate(63.623047 0)"/>
       <use xlink:href="#DejaVuSans-38" transform="translate(95.410156 0)"/>
      </g>
     </g>
    </g>
    <g id="xtick_10">
     <g id="line2d_20">
      <g>
       <use xlink:href="#m69ae53e08f" x="468.8" y="640.8" style="stroke: #000000; stroke-width: 0.8"/>
      </g>
     </g>
     <g id="text_14">
      <!-- 2.0 -->
      <g transform="translate(460.848437 655.398437) scale(0.1 -0.1)">
       <use xlink:href="#DejaVuSans-32"/>
       <use xlink:href="#DejaVuSans-2e" transform="translate(63.623047 0)"/>
       <use xlink:href="#DejaVuSans-30" transform="translate(95.410156 0)"/>
      </g>
     </g>
    </g>
   </g>
   <g id="matplotlib.axis_4">
    <g id="ytick_7">
     <g id="line2d_21">
      <g>
       <use xlink:href="#m8150c24659" x="72" y="622.8" style="stroke: #000000; stroke-width: 0.8"/>
      </g>
     </g>
     <g id="text_15">
      <!-- −20 -->
      <g transform="translate(43.895313 626.599219) scale(0.1 -0.1)">
       <defs>
        <path id="DejaVuSans-2212" d="M 678 2272 
L 4684 2272 
L 4684 1741 
L 678 1741 
L 678 2272 
z
" transform="scale(0.015625)"/>
       </defs>
       <use xlink:href="#DejaVuSans-2212"/>
       <use xlink:href="#DejaVuSans-32" transform="translate(83.789062 0)"/>
       <use xlink:href="#DejaVuSans-30" transform="translate(147.412109 0)"/>
      </g>
     </g>
    </g>
    <g id="ytick_8">
     <g id="line2d_22">
      <g>
       <use xlink:href="#m8150c24659" x="72" y="598.8" style="stroke: #000000; stroke-width: 0.8"/>
      </g>
     </g>
     <g id="text_16">
      <!-- 0 -->
      <g transform="translate(58.6375 602.599219) scale(0.1 -0.1)">
       <use xlink:href="#DejaVuSans-30"/>
      </g>
     </g>
    </g>
    <g id="ytick_9">
     <g id="line2d_23">
      <g>
       <use xlink:href="#m8150c24659" x="72" y="574.8" style="stroke: #000000; stroke-width: 0.8"/>
      </g>
     </g>
     <g id="text_17">
      <!-- 20 -->
      <g transform="translate(52.275 578.599219) scale(0.1 -0.1)">
       <use xlink:href="#DejaVuSans-32"/>
       <use xlink:href="#DejaVuSans-30" transform="translate(63.623047 0)"/>
      </g>
     </g>
    </g>
    <g id="text_18">
     <!-- Residuals -->
     <g transform="translate(37.815625 622.520312) rotate(-90) scale(0.1 -0.1)">
      <defs>
       <path id="DejaVuSans-52" d="M 2841 2188 
Q 3044 2119 3236 1894 
Q 3428 1669 3622 1275 
L 4263 0 
L 3584 0 
L 2988 1197 
Q 2756 1666 2539 1819 
Q 2322 1972 1947 1972 
L 1259 1972 
L 1259 0 
L 628 0 
L 628 4666 
L 2053 4666 
Q 2853 4666 3247 4331 
Q 3641 3997 3641 3322 
Q 3641 2881 3436 2590 
Q 3231 2300 2841 2188 
z
M 1259 4147 
L 1259 2491 
L 2053 2491 
Q 2509 2491 2742 2702 
Q 2975 2913 2975 3322 
Q 2975 3731 2742 3939 
Q 2509 4147 2053 4147 
L 1259 4147 
z
" transform="scale(0.015625)"/>
      </defs>
      <use xlink:href="#DejaVuSans-52"/>
      <use xlink:href="#DejaVuSans-65" transform="translate(64.982422 0)"/>
      <use xlink:href="#DejaVuSans-73" transform="translate(126.505859 0)"/>
      <use xlink:href="#DejaVuSans-69" transform="translate(178.605469 0)"/>
      <use xlink:href="#DejaVuSans-64" transform="translate(206.388672 0)"/>
      <use xlink:href="#DejaVuSans-75" transform="translate(269.865234 0)"/>
      <use xlink:href="#DejaVuSans-61" transform="translate(333.244141 0)"/>
      <use xlink:href="#DejaVuSans-6c" transform="translate(394.523438 0)"/>
      <use xlink:href="#DejaVuSans-73" transform="translate(422.306641 0)"/>
     </g>
    </g>
   </g>
   <g id="line2d_24">
    <path d="M 518.29584 624.603304 
L 517.68576 613.131217 
L 517.07568 620.484799 
L 516.4656 611.42771 
L 515.85552 620.002211 
L 515.24544 611.730275 
L 514.63536 614.895347 
L 514.03024 614.298376 
L 513.42016 614.169169 
L 512.81504 615.369747 
L 511.6048 619.784501 
L 510.99968 618.31248 
L 510.39952 607.808105 
L 509.7944 615.105448 
L 509.19424 608.590231 
L 508.58912 606.608499 
L 507.98896 609.713451 
L 507.3888 602.083171 
L 506.7936 612.2649 
L 506.19344 610.723083 
L 505.59328 603.807787 
L 504.99808 614.195393 
L 504.40288 604.296584 
L 503.80768 610.562194 
L 503.21248 611.884487 
L 502.61728 610.163696 
L 502.02208 606.529002 
L 501.43184 606.888099 
L 500.83664 610.736967 
L 500.2464 604.762809 
L 499.65616 607.913776 
L 499.06592 601.868364 
L 498.47568 607.362298 
L 497.88544 601.810313 
L 497.30016 607.143394 
L 496.70992 599.488798 
L 496.12464 602.73737 
L 495.53936 605.338447 
L 494.95408 601.330165 
L 494.3688 601.468425 
L 493.78352 601.342455 
L 493.2032 603.044052 
L 492.61792 601.625066 
L 492.0376 601.260753 
L 491.45728 598.921936 
L 490.87696 599.841479 
L 490.29664 600.255802 
L 489.71632 604.229919 
L 489.136 601.06176 
L 488.56064 601.683429 
L 487.98528 596.146604 
L 487.40496 593.468122 
L 486.8296 598.827628 
L 486.25424 598.156619 
L 485.67888 602.878236 
L 485.10848 601.753532 
L 484.53312 602.127223 
L 483.96272 597.350412 
L 483.38736 597.785298 
L 482.81696 602.21048 
L 482.24656 605.728397 
L 481.67616 601.571061 
L 481.11072 594.27252 
L 480.54032 597.202882 
L 479.96992 596.143041 
L 479.40448 597.689922 
L 478.83904 597.205302 
L 478.2736 593.698437 
L 477.70816 594.880338 
L 477.14272 594.295844 
L 476.57728 597.510616 
L 476.01184 598.442856 
L 475.45136 598.351 
L 474.89088 594.639553 
L 474.32544 600.308358 
L 473.76496 597.322645 
L 473.20448 596.322173 
L 472.64896 596.445711 
L 472.08848 598.5802 
L 471.528 597.467409 
L 470.97248 594.132745 
L 470.41696 594.598813 
L 469.85648 596.086966 
L 469.30096 596.52882 
L 468.74544 596.537581 
L 468.19488 596.127096 
L 467.08384 593.301709 
L 466.53328 595.406136 
L 465.98272 592.511328 
L 465.43216 587.976959 
L 464.8816 591.786817 
L 464.33104 592.80201 
L 463.78048 597.109224 
L 463.22992 593.646612 
L 462.68432 592.259585 
L 462.13376 593.73817 
L 461.58816 594.820899 
L 461.04256 592.053636 
L 460.49696 591.370489 
L 459.95136 591.178257 
L 459.40576 592.15206 
L 458.86016 587.864269 
L 458.31952 588.301717 
L 457.77392 592.191615 
L 457.23328 591.922665 
L 456.69264 593.189299 
L 456.152 586.590024 
L 455.61136 587.903977 
L 455.07072 591.189012 
L 454.53008 590.360097 
L 453.9944 589.758876 
L 453.45376 590.095029 
L 452.91808 590.627399 
L 452.3824 588.679232 
L 451.31104 587.744384 
L 450.77536 588.883377 
L 450.23968 590.382941 
L 449.70896 585.583845 
L 449.17328 592.468059 
L 448.64256 589.597067 
L 448.11184 591.049133 
L 447.57616 588.276035 
L 447.04544 591.230103 
L 446.51472 590.539322 
L 445.98896 589.001273 
L 445.45824 583.998471 
L 444.93248 592.064586 
L 444.40176 587.821885 
L 443.876 588.31444 
L 443.35024 587.574502 
L 442.82448 590.02159 
L 442.29872 589.054025 
L 441.77296 589.385112 
L 441.2472 588.852871 
L 440.20064 591.917248 
L 439.67984 587.054665 
L 439.15408 589.989297 
L 438.63328 590.629905 
L 437.59168 586.637046 
L 437.07584 587.310449 
L 436.55504 589.199471 
L 436.03424 587.51709 
L 435.5184 587.97472 
L 435.00256 586.001892 
L 434.48176 589.440852 
L 433.96592 588.800937 
L 433.45008 585.622455 
L 432.93424 587.182237 
L 431.90752 585.522107 
L 431.39664 590.293034 
L 430.8808 585.111858 
L 430.36992 585.620337 
L 429.85904 592.665905 
L 429.34816 584.328124 
L 428.83728 585.53195 
L 427.81552 590.375838 
L 427.30464 587.617124 
L 426.79872 589.483747 
L 426.28784 588.976337 
L 425.78192 585.684557 
L 425.276 585.00117 
L 424.77008 586.282527 
L 424.26416 588.228043 
L 423.75824 586.834009 
L 423.25232 589.477661 
L 422.75136 587.005361 
L 422.24544 591.471946 
L 421.74448 584.874732 
L 421.24352 586.823374 
L 420.7376 583.436343 
L 420.23664 590.11907 
L 419.73568 585.363226 
L 419.23472 585.666257 
L 418.73872 589.094106 
L 418.23776 590.543737 
L 417.74176 585.066574 
L 417.2408 588.439626 
L 416.7448 585.219848 
L 416.2488 588.886611 
L 415.74784 588.416074 
L 415.25184 585.543048 
L 414.7608 587.695311 
L 414.2648 587.595622 
L 413.7688 586.799864 
L 413.27776 590.02939 
L 412.78176 587.53071 
L 412.29072 586.450793 
L 411.79968 586.260331 
L 411.30368 587.169286 
L 410.81264 582.608317 
L 410.3216 587.799307 
L 409.83552 588.683419 
L 408.85344 587.283765 
L 408.36736 585.510781 
L 407.87632 588.677707 
L 407.39024 589.640418 
L 406.90416 587.284211 
L 406.41808 586.677294 
L 405.932 586.871022 
L 405.44592 591.529741 
L 404.95984 589.82922 
L 404.47872 587.068098 
L 403.99264 587.241701 
L 403.51152 588.761842 
L 403.02544 586.336424 
L 402.54432 589.768264 
L 402.0632 587.728536 
L 401.10096 588.419746 
L 400.61984 587.745168 
L 400.13872 587.726991 
L 399.66256 588.940922 
L 399.18144 587.446271 
L 398.70528 589.099353 
L 398.22416 587.055397 
L 397.748 588.193576 
L 397.27184 585.509522 
L 396.79568 589.155439 
L 395.84336 589.799829 
L 395.3672 586.264537 
L 394.896 590.653805 
L 394.41984 586.693657 
L 393.94864 586.619409 
L 393.47744 589.303491 
L 393.00128 589.367044 
L 392.53008 587.219365 
L 392.05888 587.036583 
L 391.58768 588.678998 
L 391.11648 588.173685 
L 390.65024 587.283685 
L 390.17904 589.039488 
L 389.7128 587.686377 
L 389.2416 589.875175 
L 388.77536 588.420374 
L 388.30912 583.339079 
L 387.84288 588.245551 
L 387.37664 587.376923 
L 386.9104 587.05057 
L 386.44416 587.317156 
L 385.97792 589.840142 
L 385.51168 587.101723 
L 385.0504 590.409767 
L 384.58416 587.983703 
L 384.12288 588.25819 
L 383.20032 590.249833 
L 382.27776 586.949158 
L 381.81648 588.687633 
L 381.3552 592.724065 
L 380.89392 589.476504 
L 380.4376 589.145156 
L 379.97632 589.700146 
L 379.52 589.967754 
L 379.06368 587.800001 
L 378.60736 590.509507 
L 378.14608 589.395462 
L 377.68976 588.891183 
L 377.2384 590.094046 
L 376.78208 588.392687 
L 376.32576 590.51063 
L 375.86944 591.918225 
L 375.41808 588.290345 
L 374.96176 589.678597 
L 374.5104 589.0127 
L 374.05904 589.241663 
L 373.60768 591.614133 
L 373.15632 588.988432 
L 372.70496 591.651206 
L 372.2536 593.401091 
L 371.80224 593.446621 
L 371.35088 588.632309 
L 370.90448 588.1573 
L 370.45312 592.237379 
L 370.00672 591.387222 
L 369.11392 589.411311 
L 368.66256 590.89162 
L 368.21616 589.264974 
L 367.76976 593.850427 
L 367.32832 592.679991 
L 366.88192 590.774275 
L 366.43552 590.593178 
L 365.99408 592.735745 
L 365.54768 590.592219 
L 365.10624 591.767814 
L 364.65984 591.139653 
L 364.2184 592.446397 
L 363.77696 590.631879 
L 363.33552 593.256142 
L 362.89408 595.064907 
L 362.45264 591.744264 
L 362.01616 591.479878 
L 361.13328 593.582526 
L 360.6968 592.46284 
L 360.26032 592.896185 
L 359.81888 595.742017 
L 358.94592 590.778295 
L 358.50944 593.337497 
L 358.07296 592.980129 
L 357.63648 592.458838 
L 357.2 590.62885 
L 356.76848 591.221959 
L 356.332 596.113212 
L 355.90048 593.204814 
L 355.464 593.273711 
L 355.03248 596.09727 
L 354.60096 592.763405 
L 354.16944 599.085381 
L 353.73296 592.711925 
L 353.30144 596.659903 
L 352.87488 594.320972 
L 352.44336 593.18442 
L 352.01184 598.55337 
L 351.58528 597.266154 
L 351.15376 591.298475 
L 350.7272 596.942835 
L 350.29568 594.529676 
L 349.86912 596.006368 
L 349.44256 594.712158 
L 349.016 596.238894 
L 348.58944 595.386715 
L 348.16288 596.670497 
L 347.73632 597.214347 
L 347.30976 594.018224 
L 346.8832 592.931666 
L 346.4616 594.605033 
L 346.03504 595.024883 
L 345.61344 598.075388 
L 345.19184 596.333903 
L 344.76528 596.467334 
L 343.92208 598.744202 
L 343.50048 597.830229 
L 343.07888 597.293434 
L 342.66224 597.195283 
L 342.24064 594.349683 
L 341.81904 599.858615 
L 341.4024 598.126145 
L 340.9808 597.98618 
L 340.56416 597.410084 
L 340.14256 597.50995 
L 339.72592 596.871673 
L 339.30928 596.612966 
L 338.89264 598.713294 
L 338.476 599.317144 
L 338.05936 598.56411 
L 337.64272 598.483544 
L 337.23104 597.55985 
L 336.39776 599.943672 
L 335.98608 596.679903 
L 335.5744 594.902716 
L 335.15776 596.420994 
L 334.74608 598.34954 
L 334.3344 598.460912 
L 333.92272 598.029478 
L 333.51104 600.002903 
L 333.09936 598.003696 
L 332.68768 600.737904 
L 332.276 599.286858 
L 331.86928 598.523192 
L 331.4576 598.537016 
L 331.05088 599.78725 
L 330.6392 600.590792 
L 330.23248 598.732249 
L 329.82576 601.480957 
L 329.41408 599.492107 
L 329.00736 598.830273 
L 328.60064 601.01723 
L 328.19392 598.962152 
L 327.79216 600.04672 
L 327.38544 598.52322 
L 326.97872 600.893722 
L 326.17024 599.841954 
L 325.76848 599.651683 
L 325.36176 601.562408 
L 324.96 601.004617 
L 324.55824 599.07873 
L 324.15648 598.657209 
L 322.9512 601.099081 
L 322.54944 599.945814 
L 322.14768 600.626879 
L 321.74592 600.824928 
L 321.34912 598.25769 
L 320.94736 602.162753 
L 320.55056 601.275146 
L 320.15376 601.965582 
L 319.752 601.10404 
L 319.3552 602.777914 
L 318.9584 600.790154 
L 318.5616 601.714286 
L 318.1648 601.517462 
L 317.768 600.449044 
L 317.3712 602.414581 
L 316.97936 599.532081 
L 316.18576 601.648406 
L 315.79392 604.33886 
L 315.40208 600.678034 
L 315.00528 602.815374 
L 314.61344 601.67931 
L 314.2216 602.840609 
L 313.82976 603.276914 
L 313.43792 600.404613 
L 313.04608 602.272599 
L 312.65424 602.820549 
L 312.2624 598.194821 
L 311.87056 601.630745 
L 311.48368 600.273588 
L 311.09184 601.335736 
L 310.7 601.758659 
L 310.31312 603.493572 
L 309.92624 602.010708 
L 309.5344 605.112506 
L 309.14752 599.850715 
L 308.76064 604.685777 
L 308.37376 604.599581 
L 307.98688 602.897037 
L 307.6 602.204205 
L 307.21312 603.883234 
L 306.8312 604.041818 
L 306.44432 600.479992 
L 306.05744 600.464902 
L 305.67552 602.206154 
L 305.28864 601.33246 
L 304.90672 604.148892 
L 304.5248 602.793329 
L 304.13792 601.89084 
L 303.756 606.056311 
L 303.37408 602.307396 
L 302.99216 606.217986 
L 302.22832 602.644847 
L 301.85136 600.04383 
L 301.08752 602.861324 
L 300.71056 602.070444 
L 300.32864 602.225565 
L 299.95168 600.632152 
L 299.56976 600.160626 
L 299.1928 603.343939 
L 298.81584 602.99586 
L 298.43888 604.889534 
L 298.06192 601.487861 
L 297.68496 604.7739 
L 297.308 605.560123 
L 296.93104 604.972757 
L 296.55408 602.013522 
L 296.17712 602.245447 
L 295.80512 605.141355 
L 295.42816 601.615835 
L 295.05616 604.659093 
L 294.6792 603.533737 
L 294.3072 601.993729 
L 293.93024 601.427895 
L 293.55824 600.221851 
L 293.18624 600.113926 
L 292.44224 601.684116 
L 292.07024 603.409781 
L 291.69824 601.81651 
L 291.32624 601.52443 
L 290.9592 603.428528 
L 290.5872 603.300276 
L 290.22016 601.715163 
L 289.84816 604.286673 
L 289.48112 601.017685 
L 289.10912 602.953407 
L 288.00304 599.511799 
L 287.636 601.386858 
L 287.26896 602.672474 
L 286.90192 602.052418 
L 286.53984 600.640185 
L 286.1728 603.784119 
L 285.80576 600.735429 
L 285.43872 603.442159 
L 285.07664 600.700416 
L 284.7096 604.756685 
L 284.34752 604.386671 
L 283.98048 602.583088 
L 283.6184 602.313115 
L 283.25632 603.523995 
L 282.88928 603.506634 
L 282.5272 602.360719 
L 282.16512 599.633717 
L 281.80304 599.175877 
L 281.44096 600.319066 
L 281.07888 600.631091 
L 280.72176 602.092466 
L 280.35968 601.127903 
L 279.9976 601.024165 
L 279.64048 602.72614 
L 279.2784 602.311753 
L 278.92128 605.95118 
L 278.5592 604.897383 
L 278.20208 604.963383 
L 277.84496 605.581418 
L 277.48288 602.354143 
L 277.12576 602.451164 
L 276.76864 598.254062 
L 276.41152 597.958346 
L 276.0544 598.816104 
L 275.69728 601.678702 
L 275.34512 595.936845 
L 274.988 599.581527 
L 274.63088 598.744715 
L 274.27872 597.302803 
L 273.9216 599.966719 
L 273.21232 600.548738 
L 272.86016 600.484005 
L 272.508 601.814706 
L 272.15088 601.445713 
L 271.44656 602.753002 
L 271.0944 603.768658 
L 270.74224 600.671264 
L 270.39008 602.63927 
L 269.69072 598.240954 
L 269.33856 599.204025 
L 268.99136 596.807607 
L 268.6392 600.881143 
L 268.28704 600.901769 
L 267.93984 600.136369 
L 267.59264 599.095706 
L 267.24048 601.426325 
L 266.89328 602.164632 
L 266.54608 605.005684 
L 265.85168 601.028015 
L 265.50448 603.362647 
L 265.15728 601.584602 
L 264.81008 602.909681 
L 264.46288 601.448282 
L 264.11568 597.919673 
L 263.77344 598.072778 
L 263.42624 600.818989 
L 263.084 597.678518 
L 262.7368 597.118987 
L 262.39456 598.050584 
L 262.04736 598.645951 
L 261.70512 596.064061 
L 261.36288 598.504905 
L 261.02064 599.781676 
L 260.6784 599.166598 
L 260.33616 599.054686 
L 259.99392 600.149231 
L 259.65168 604.486097 
L 259.30944 600.416244 
L 258.9672 601.661916 
L 258.62496 602.003805 
L 258.28768 601.713398 
L 257.94544 598.853826 
L 257.6032 599.371895 
L 256.92864 595.784669 
L 256.5864 597.280846 
L 256.24912 592.999341 
L 255.91184 596.168018 
L 255.5696 593.237211 
L 255.23232 595.104443 
L 254.89504 598.326901 
L 254.55776 597.695402 
L 253.8832 599.411505 
L 253.55088 601.637003 
L 253.2136 600.38878 
L 252.87632 598.235348 
L 252.544 600.490351 
L 252.20672 599.702287 
L 251.86944 600.530455 
L 251.53712 597.560856 
L 251.2048 596.924599 
L 250.86752 596.890499 
L 250.5352 597.349373 
L 250.20288 595.169243 
L 249.87056 593.901264 
L 249.53328 592.071303 
L 248.86864 595.068727 
L 248.54128 593.367462 
L 248.20896 595.567398 
L 247.87664 596.500714 
L 247.54432 600.484814 
L 247.212 601.415118 
L 246.88464 597.687396 
L 246.55232 599.171001 
L 245.89264 599.934185 
L 245.56528 597.943074 
L 245.23792 595.200776 
L 244.57824 593.29919 
L 244.25088 594.070082 
L 243.92352 593.355112 
L 243.2688 596.209111 
L 242.94144 595.411251 
L 242.28672 598.393751 
L 241.95936 600.165093 
L 241.63696 599.772393 
L 240.9872 602.861112 
L 240.33744 599.610874 
L 240.01008 598.938398 
L 239.68768 599.018631 
L 239.36528 594.633537 
L 239.03792 592.904807 
L 238.71552 595.655227 
L 238.39312 595.056043 
L 238.07072 593.6468 
L 237.74832 593.40633 
L 237.42592 593.781657 
L 236.78112 596.107018 
L 236.45872 595.655551 
L 236.14128 599.787298 
L 235.81888 598.573 
L 235.17904 601.388806 
L 234.85664 598.057532 
L 234.5392 598.255397 
L 233.58192 594.731127 
L 233.26448 596.435768 
L 232.94704 593.315657 
L 232.62464 594.669472 
L 232.3072 594.491997 
L 231.98976 591.585621 
L 231.67232 593.73238 
L 231.35984 591.690982 
L 230.72496 596.551053 
L 230.40752 595.165519 
L 230.09504 597.331266 
L 229.7776 596.055631 
L 228.83024 599.725685 
L 228.51776 599.930371 
L 228.20528 601.622643 
L 227.88784 598.503929 
L 227.57536 600.856139 
L 227.26288 600.392702 
L 226.9504 596.753688 
L 226.63792 596.775784 
L 226.32544 594.63291 
L 226.01296 594.166305 
L 225.388 593.708085 
L 225.07552 592.107639 
L 224.768 592.589233 
L 224.45552 591.91161 
L 224.14304 594.605849 
L 223.83552 594.941906 
L 223.52304 595.786234 
L 223.21552 597.847437 
L 222.28304 600.80149 
L 221.97552 598.289902 
L 221.668 604.296047 
L 220.43792 596.594206 
L 220.1304 597.357784 
L 219.82288 594.755254 
L 219.51536 593.85663 
L 219.20784 592.15048 
L 218.90032 591.980615 
L 218.59776 592.484932 
L 218.29024 591.276599 
L 217.98272 592.056301 
L 217.68016 596.346945 
L 217.37264 595.688049 
L 217.07008 595.639094 
L 216.76752 597.646383 
L 216.46 598.121116 
L 216.15744 599.808849 
L 215.85488 603.702272 
L 215.55232 600.71684 
L 214.94224 599.039628 
L 214.63968 600.734146 
L 214.33712 598.461649 
L 214.03952 597.76322 
L 213.73696 596.040369 
L 213.4344 595.837674 
L 213.13184 596.858891 
L 212.53168 591.494341 
L 212.22912 594.183948 
L 211.93152 590.498688 
L 211.62896 592.582023 
L 211.33136 592.799847 
L 211.0288 595.990446 
L 210.7312 595.22221 
L 210.4336 597.815361 
L 210.13104 596.508692 
L 209.83344 599.165976 
L 209.53584 597.369714 
L 209.23824 602.746505 
L 208.94064 600.497975 
L 208.64304 602.075253 
L 208.34544 602.41431 
L 208.04784 599.402112 
L 207.75024 600.79845 
L 207.45264 598.183391 
L 207.15504 597.733118 
L 206.8624 598.154447 
L 206.5648 594.849269 
L 206.2672 594.031523 
L 205.97456 592.100131 
L 205.67696 591.34493 
L 205.38432 591.625818 
L 205.09168 592.510783 
L 204.79408 595.783105 
L 204.50144 592.189375 
L 204.2088 596.676515 
L 203.9112 595.583796 
L 203.61856 594.985632 
L 203.03328 602.310352 
L 202.74064 601.208591 
L 202.448 602.600112 
L 202.15536 602.035179 
L 201.86272 599.239401 
L 201.57008 597.813438 
L 201.2824 598.123891 
L 200.98976 595.731588 
L 200.69712 596.903392 
L 200.40944 594.0466 
L 200.1168 592.699043 
L 199.82416 594.582841 
L 199.53648 592.046512 
L 199.2488 591.303592 
L 198.95616 592.536842 
L 198.66848 591.791106 
L 198.3808 590.217825 
L 197.80048 594.492549 
L 197.5128 592.160475 
L 197.22512 596.46407 
L 196.93744 598.090497 
L 196.64976 597.069784 
L 196.0744 600.875089 
L 195.78672 601.789657 
L 195.49904 600.079484 
L 195.21136 603.582973 
L 194.92864 603.163997 
L 194.64096 600.600371 
L 194.35328 601.445361 
L 194.07056 601.034532 
L 193.78288 597.955814 
L 193.50016 596.885294 
L 193.21248 596.409185 
L 192.92976 592.312849 
L 192.64208 592.557778 
L 192.35936 591.482611 
L 192.07664 593.549125 
L 191.79392 592.863477 
L 191.5112 593.47944 
L 191.22352 592.610535 
L 190.9408 596.716461 
L 190.65808 595.541123 
L 190.37536 595.565372 
L 189.80992 601.391708 
L 189.53216 603.412882 
L 189.24944 602.958671 
L 188.684 603.874561 
L 188.40624 601.269756 
L 188.12352 603.741372 
L 187.8408 600.278475 
L 187.56304 600.013227 
L 187.28032 597.987758 
L 187.00256 598.464704 
L 186.44208 593.751011 
L 186.16432 597.086817 
L 185.88656 592.875009 
L 185.6088 593.034471 
L 185.32608 592.643943 
L 185.04832 594.323342 
L 184.77056 594.189831 
L 184.4928 595.051261 
L 184.21504 596.349087 
L 183.93728 595.586819 
L 183.65952 594.320358 
L 183.38176 597.383799 
L 183.10896 598.33786 
L 182.55344 603.549247 
L 182.27568 603.436948 
L 182.00288 601.604418 
L 181.72512 601.912115 
L 181.45232 599.813274 
L 181.17456 600.46 
L 180.90176 598.058363 
L 180.624 599.629771 
L 179.80064 590.709262 
L 179.52784 594.189103 
L 179.25504 594.912882 
L 178.70944 592.210475 
L 178.43664 591.243091 
L 178.16384 595.43299 
L 177.89104 596.45155 
L 177.61824 596.789915 
L 177.34544 602.664071 
L 177.07264 602.295963 
L 176.79984 607.469451 
L 176.2592 601.743168 
L 175.9864 604.99279 
L 175.7136 603.126887 
L 175.44576 602.603935 
L 175.17296 600.796123 
L 174.90512 600.194139 
L 174.36448 597.419147 
L 174.09168 593.677421 
L 173.82384 592.745226 
L 173.556 594.271346 
L 173.28816 593.319084 
L 173.01536 591.823608 
L 172.74752 595.933862 
L 172.47968 593.672687 
L 172.21184 594.725377 
L 171.944 597.876497 
L 171.67616 598.909591 
L 171.40832 604.936386 
L 170.87264 602.924532 
L 170.6048 601.452593 
L 170.07408 605.338328 
L 169.80624 600.197339 
L 169.54336 602.351646 
L 169.00768 598.111127 
L 168.7448 600.565913 
L 168.21408 594.529367 
L 167.94624 595.89226 
L 167.68336 592.716718 
L 167.42048 592.059932 
L 167.1576 595.396564 
L 166.88976 593.920753 
L 166.62688 593.108667 
L 166.364 594.932843 
L 166.10112 593.964173 
L 165.83824 597.512376 
L 165.57536 598.715364 
L 165.0496 602.74867 
L 164.52384 605.07636 
L 164.26096 603.824084 
L 163.74016 604.040776 
L 163.47728 602.174404 
L 163.2144 602.823076 
L 162.6936 596.913232 
L 162.43072 596.25287 
L 162.1728 595.168742 
L 161.90992 593.048565 
L 161.652 596.508999 
L 161.39408 591.755878 
L 161.1312 595.329574 
L 160.87328 591.4597 
L 160.61536 594.626414 
L 160.35248 595.077717 
L 160.09456 594.809742 
L 159.83664 594.332096 
L 159.3208 599.581019 
L 159.06288 599.728221 
L 158.80496 601.168479 
L 158.54704 603.933959 
L 158.28912 601.820707 
L 158.0312 604.712774 
L 157.77328 604.497198 
L 157.52032 604.674996 
L 157.00448 603.080095 
L 156.74656 603.490016 
L 156.23568 601.061502 
L 155.98272 600.781201 
L 155.7248 597.120783 
L 154.96096 592.462615 
L 154.45008 595.225567 
L 154.19712 595.332418 
L 153.94416 595.128297 
L 153.68624 596.463154 
L 153.43328 595.993946 
L 153.18032 599.44568 
L 152.42144 601.993581 
L 152.16848 602.087585 
L 151.91552 604.608231 
L 151.66256 605.034326 
L 151.4096 600.217733 
L 151.15664 605.136416 
L 150.90864 605.925891 
L 150.65568 608.873547 
L 150.40272 604.691574 
L 150.15472 602.618176 
L 149.90176 598.418558 
L 149.6488 598.987874 
L 149.4008 597.401274 
L 149.14784 598.966328 
L 148.89984 599.15073 
L 148.64688 597.261712 
L 148.39888 594.416021 
L 148.15088 595.310118 
L 147.89792 594.236121 
L 147.64992 594.873141 
L 147.40192 596.239521 
L 147.14896 595.380716 
L 146.65296 600.974343 
L 146.15696 599.803954 
L 145.90896 603.677348 
L 145.66096 602.12631 
L 145.41296 606.2313 
L 145.16496 601.65449 
L 144.66896 607.897744 
L 144.42592 604.947189 
L 144.17792 603.932279 
L 143.92992 603.643141 
L 143.68192 602.595406 
L 143.43888 600.763576 
L 143.19088 597.312685 
L 142.94288 599.402879 
L 142.69984 595.961738 
L 142.45184 597.39622 
L 142.2088 594.754168 
L 141.96576 598.786866 
L 141.71776 595.014187 
L 141.47472 597.256576 
L 141.22672 595.778794 
L 140.98368 596.78519 
L 140.74064 600.528085 
L 140.4976 599.216124 
L 140.2496 599.342567 
L 140.00656 604.616958 
L 139.76352 603.070622 
L 139.52048 603.035323 
L 139.27744 606.825141 
L 139.0344 604.470646 
L 138.79136 605.143536 
L 138.54832 610.411653 
L 138.30528 606.45246 
L 137.82416 605.201128 
L 137.58112 602.257868 
L 137.33808 602.287129 
L 137.09504 600.529262 
L 136.85696 601.777592 
L 136.61392 598.929557 
L 136.37088 599.315591 
L 136.1328 598.151409 
L 135.88976 597.56158 
L 135.65168 599.922288 
L 135.40864 599.055987 
L 135.17056 599.463128 
L 134.93248 600.497622 
L 134.68944 599.430347 
L 134.45136 601.928763 
L 134.21328 603.214737 
L 133.97024 602.523692 
L 133.73216 603.736668 
L 133.49408 609.552485 
L 133.256 606.451717 
L 133.01792 608.973408 
L 132.77984 607.895505 
L 132.54176 607.543734 
L 132.30368 607.396683 
L 132.0656 609.548271 
L 131.35136 604.879388 
L 131.11328 602.280319 
L 130.8752 602.181673 
L 130.16592 598.418078 
L 129.92784 598.918354 
L 129.69472 598.303237 
L 129.45664 599.756835 
L 129.22352 601.994676 
L 128.98544 602.181523 
L 128.51424 604.613909 
L 128.28112 606.593392 
L 128.04304 605.245648 
L 127.80992 605.710761 
L 127.5768 608.691397 
L 127.33872 608.25503 
L 127.1056 610.919826 
L 126.87248 608.023718 
L 126.40624 611.051026 
L 126.16816 607.099552 
L 125.70192 605.452364 
L 125.4688 606.434622 
L 125.23568 605.574389 
L 124.76944 601.225544 
L 124.54128 600.349369 
L 124.30816 602.29288 
L 123.84192 599.199272 
L 123.6088 603.724017 
L 123.38064 602.014519 
L 123.14752 606.449124 
L 122.9144 604.734215 
L 122.68624 606.284816 
L 122.45312 609.837655 
L 121.99184 606.025301 
L 121.76368 610.410315 
L 121.53056 612.112261 
L 121.3024 609.771711 
L 120.84112 607.570561 
L 120.61296 606.932932 
L 120.37984 605.728367 
L 120.15168 603.962239 
L 119.92352 606.89403 
L 119.4672 605.251037 
L 119.23904 605.168794 
L 119.00592 601.304596 
L 118.77776 604.071634 
L 118.5496 605.137115 
L 118.32144 609.092315 
L 118.09328 606.825218 
L 117.87008 605.890863 
L 117.64192 607.31113 
L 117.1856 606.118546 
L 116.95744 607.853357 
L 116.50608 608.295574 
L 116.27792 610.060936 
L 116.04976 609.117547 
L 115.82656 610.794095 
L 115.5984 610.563195 
L 115.3752 612.937997 
L 115.14704 611.959411 
L 114.92384 612.23292 
L 114.47248 608.655887 
L 114.24432 608.267429 
L 114.02112 608.190811 
L 113.79792 605.60324 
L 113.56976 606.367356 
L 113.34656 602.706655 
L 113.12336 604.17718 
L 112.90016 607.188376 
L 112.4488 603.483431 
L 112.2256 607.202729 
L 112.0024 605.343133 
L 111.7792 607.901459 
L 111.556 609.037726 
L 111.3328 608.455124 
L 111.1096 612.549343 
L 110.8864 610.560943 
L 110.6632 610.550581 
L 110.44 611.928086 
L 110.22176 612.134599 
L 109.99856 610.819575 
L 109.77536 614.195917 
L 109.55216 612.302304 
L 109.11072 614.316739 
L 108.88752 610.482867 
L 108.44608 614.073084 
L 108.22784 610.120295 
L 108.00464 609.530465 
L 107.7864 606.770178 
L 107.34496 610.970337 
L 107.12176 609.476152 
L 106.90352 606.810047 
L 106.46208 607.905394 
L 106.24384 609.140797 
L 106.0256 608.193765 
L 105.80736 608.429567 
L 105.58416 605.880454 
L 104.92944 612.704629 
L 104.7112 612.205975 
L 104.05648 615.410175 
L 103.83824 612.507807 
L 103.62 613.101682 
L 103.40176 615.809828 
L 103.18352 614.858682 
L 102.97024 610.99657 
L 102.752 611.228008 
L 102.53376 614.253775 
L 102.10224 611.522857 
L 101.884 610.824073 
L 101.66576 609.082513 
L 101.45248 609.987567 
L 101.23424 611.467268 
L 100.80272 608.141619 
L 100.58944 611.467051 
L 100.3712 611.000036 
L 100.15792 612.18265 
L 99.94464 609.775565 
L 99.7264 610.863212 
L 99.29984 610.221685 
L 99.0816 611.672847 
L 98.86832 612.297541 
L 98.65504 612.331107 
L 98.44176 612.216321 
L 98.22848 614.307397 
L 98.01024 614.902417 
L 97.79696 617.021976 
L 97.58368 613.886148 
L 97.3704 616.376468 
L 97.15712 613.931946 
L 96.94384 615.315649 
L 96.73056 615.578717 
L 96.51728 617.033206 
L 96.30896 615.339898 
L 96.09568 612.590527 
L 95.8824 612.904145 
L 95.66912 613.955634 
L 95.45584 612.27857 
L 95.24752 613.024538 
L 95.03424 612.447547 
L 94.82096 609.737265 
L 94.61264 614.494533 
L 94.39936 612.471387 
L 94.18608 612.749928 
L 93.97776 611.683635 
L 93.55616 613.557908 
L 93.34288 611.49799 
L 93.13456 614.257844 
L 92.92624 613.457996 
L 92.71296 612.096594 
L 92.50464 616.448663 
L 92.29632 616.710294 
L 92.08304 615.237386 
L 91.6664 617.792679 
L 91.45808 615.068116 
L 91.2448 618.059226 
L 90.82816 618.337027 
L 90.61984 616.323755 
L 90.41152 616.603924 
L 90.2032 616.597718 
L 89.99488 617.348368 
L 89.78656 616.063043 
L 89.57824 616.350815 
L 89.36992 615.936048 
L 89.1616 616.404816 
L 88.95328 614.625819 
L 88.74496 615.33328 
L 88.5416 614.676325 
L 88.33328 615.451501 
L 88.12496 615.451217 
L 87.91664 615.089391 
L 87.71328 612.484184 
L 87.29664 616.380514 
L 86.88496 616.155071 
L 86.6816 615.239865 
L 86.47328 615.247141 
L 86.0616 616.33154 
L 85.85824 618.359121 
L 85.64992 618.950561 
L 85.44656 619.170118 
L 85.2432 618.629655 
L 85.03488 619.040645 
L 84.83152 617.984897 
L 84.4248 620.176624 
L 84.21648 619.63198 
L 84.01312 618.370503 
L 83.80976 618.863659 
L 83.6064 618.115736 
L 83.40304 618.350313 
L 83.19968 616.605084 
L 82.99632 618.827789 
L 82.79296 619.070728 
L 82.5896 618.848426 
L 82.38624 619.095196 
L 82.18288 616.446888 
L 81.97952 618.244137 
L 81.77616 618.154565 
L 81.5728 618.474368 
L 81.3744 616.198305 
L 81.17104 617.408148 
L 80.96768 615.661452 
L 80.76432 619.30528 
L 80.56592 617.903931 
L 80.1592 619.272231 
L 79.9608 617.786297 
L 79.75744 618.406964 
L 79.55408 619.530029 
L 78.75056 618.143249 
L 78.55216 619.366342 
L 78.1504 620.456805 
L 77.952 618.411687 
L 77.7536 619.732185 
L 77.55024 621.94785 
L 77.35184 618.997536 
L 77.15344 620.115545 
L 76.95504 619.525725 
L 76.75168 618.180497 
L 76.15648 621.146749 
L 75.95808 621.010247 
L 75.75968 618.732059 
L 75.56128 618.586396 
L 75.36288 620.444679 
L 75.16448 618.990546 
L 74.96608 620.01216 
L 74.76768 618.78024 
L 74.56928 621.769042 
L 74.37088 620.771756 
L 74.17744 620.874059 
L 73.97904 622.244817 
L 73.78064 621.876415 
L 73.58224 620.626779 
L 73.3888 620.251767 
L 73.1904 621.645122 
L 72.992 621.999146 
L 72.79856 621.058861 
L 72.40176 621.938067 
L 72.00992 620.525338 
L 72.00992 620.525338 
" clip-path="url(#p5cee6439a2)" style="fill: none; stroke-dasharray: 3.7,1.6; stroke-dashoffset: 0; stroke: #808080"/>
   </g>
   <g id="line2d_25">
    <path d="M 72 598.8 
L 518.4 598.8 
" clip-path="url(#p5cee6439a2)" style="fill: none; stroke-dasharray: 5.55,2.4; stroke-dashoffset: 0; stroke: #000000; stroke-width: 1.5"/>
   </g>
   <g id="patch_9">
    <path d="M 72 640.8 
L 72 556.8 
" style="fill: none; stroke: #000000; stroke-width: 0.8; stroke-linejoin: miter; stroke-linecap: square"/>
   </g>
   <g id="patch_10">
    <path d="M 518.4 640.8 
L 518.4 556.8 
" style="fill: none; stroke: #000000; stroke-width: 0.8; stroke-linejoin: miter; stroke-linecap: square"/>
   </g>
   <g id="patch_11">
    <path d="M 72 640.8 
L 518.4 640.8 
" style="fill: none; stroke: #000000; stroke-width: 0.8; stroke-linejoin: miter; stroke-linecap: square"/>
   </g>
   <g id="patch_12">
    <path d="M 72 556.8 
L 518.4 556.8 
" style="fill: none; stroke: #000000; stroke-width: 0.8; stroke-linejoin: miter; stroke-linecap: square"/>
   </g>
  </g>
  <g id="text_19">
   <!-- Photon energy (eV) -->
   <g transform="translate(229.8825 710.304375) scale(0.12 -0.12)">
    <defs>
     <path id="DejaVuSans-50" d="M 1259 4147 
L 1259 2394 
L 2053 2394 
Q 2494 2394 2734 2622 
Q 2975 2850 2975 3272 
Q 2975 3691 2734 3919 
Q 2494 4147 2053 4147 
L 1259 4147 
z
M 628 4666 
L 2053 4666 
Q 2838 4666 3239 4311 
Q 3641 3956 3641 3272 
Q 3641 2581 3239 2228 
Q 2838 1875 2053 1875 
L 1259 1875 
L 1259 0 
L 628 0 
L 628 4666 
z
" transform="scale(0.015625)"/>
     <path id="DejaVuSans-68" d="M 3513 2113 
L 3513 0 
L 2938 0 
L 2938 2094 
Q 2938 2591 2744 2837 
Q 2550 3084 2163 3084 
Q 1697 3084 1428 2787 
Q 1159 2491 1159 1978 
L 1159 0 
L 581 0 
L 581 4863 
L 1159 4863 
L 1159 2956 
Q 1366 3272 1645 3428 
Q 1925 3584 2291 3584 
Q 2894 3584 3203 3211 
Q 3513 2838 3513 2113 
z
" transform="scale(0.015625)"/>
     <path id="DejaVuSans-67" d="M 2906 1791 
Q 2906 2416 2648 2759 
Q 2391 3103 1925 3103 
Q 1463 3103 1205 2759 
Q 947 2416 947 1791 
Q 947 1169 1205 825 
Q 1463 481 1925 481 
Q 2391 481 2648 825 
Q 2906 1169 2906 1791 
z
M 3481 434 
Q 3481 -459 3084 -895 
Q 2688 -1331 1869 -1331 
Q 1566 -1331 1297 -1286 
Q 1028 -1241 775 -1147 
L 775 -588 
Q 1028 -725 1275 -790 
Q 1522 -856 1778 -856 
Q 2344 -856 2625 -561 
Q 2906 -266 2906 331 
L 2906 616 
Q 2728 306 2450 153 
Q 2172 0 1784 0 
Q 1141 0 747 490 
Q 353 981 353 1791 
Q 353 2603 747 3093 
Q 1141 3584 1784 3584 
Q 2172 3584 2450 3431 
Q 2728 3278 2906 2969 
L 2906 3500 
L 3481 3500 
L 3481 434 
z
" transform="scale(0.015625)"/>
     <path id="DejaVuSans-56" d="M 1831 0 
L 50 4666 
L 709 4666 
L 2188 738 
L 3669 4666 
L 4325 4666 
L 2547 0 
L 1831 0 
z
" transform="scale(0.015625)"/>
    </defs>
    <use xlink:href="#DejaVuSans-50"/>
    <use xlink:href="#DejaVuSans-68" transform="translate(60.302734 0)"/>
    <use xlink:href="#DejaVuSans-6f" transform="translate(123.681641 0)"/>
    <use xlink:href="#DejaVuSans-74" transform="translate(184.863281 0)"/>
    <use xlink:href="#DejaVuSans-6f" transform="translate(224.072266 0)"/>
    <use xlink:href="#DejaVuSans-6e" transform="translate(285.253906 0)"/>
    <use xlink:href="#DejaVuSans-20" transform="translate(348.632812 0)"/>
    <use xlink:href="#DejaVuSans-65" transform="translate(380.419922 0)"/>
    <use xlink:href="#DejaVuSans-6e" transform="translate(441.943359 0)"/>
    <use xlink:href="#DejaVuSans-65" transform="translate(505.322266 0)"/>
    <use xlink:href="#DejaVuSans-72" transform="translate(566.845703 0)"/>
    <use xlink:href="#DejaVuSans-67" transform="translate(606.208984 0)"/>
    <use xlink:href="#DejaVuSans-79" transform="translate(669.685547 0)"/>
    <use xlink:href="#DejaVuSans-20" transform="translate(728.865234 0)"/>
    <use xlink:href="#DejaVuSans-28" transform="translate(760.652344 0)"/>
    <use xlink:href="#DejaVuSans-65" transform="translate(799.666016 0)"/>
    <use xlink:href="#DejaVuSans-56" transform="translate(861.189453 0)"/>
    <use xlink:href="#DejaVuSans-29" transform="translate(929.597656 0)"/>
   </g>
  </g>
  <g id="text_20">
   <!-- Excitation power 0.1 mW -->
   <g transform="translate(212.689687 23.518125) scale(0.12 -0.12)">
    <defs>
     <path id="DejaVuSans-45" d="M 628 4666 
L 3578 4666 
L 3578 4134 
L 1259 4134 
L 1259 2753 
L 3481 2753 
L 3481 2222 
L 1259 2222 
L 1259 531 
L 3634 531 
L 3634 0 
L 628 0 
L 628 4666 
z
" transform="scale(0.015625)"/>
     <path id="DejaVuSans-78" d="M 3513 3500 
L 2247 1797 
L 3578 0 
L 2900 0 
L 1881 1375 
L 863 0 
L 184 0 
L 1544 1831 
L 300 3500 
L 978 3500 
L 1906 2253 
L 2834 3500 
L 3513 3500 
z
" transform="scale(0.015625)"/>
     <path id="DejaVuSans-70" d="M 1159 525 
L 1159 -1331 
L 581 -1331 
L 581 3500 
L 1159 3500 
L 1159 2969 
Q 1341 3281 1617 3432 
Q 1894 3584 2278 3584 
Q 2916 3584 3314 3078 
Q 3713 2572 3713 1747 
Q 3713 922 3314 415 
Q 2916 -91 2278 -91 
Q 1894 -91 1617 61 
Q 1341 213 1159 525 
z
M 3116 1747 
Q 3116 2381 2855 2742 
Q 2594 3103 2138 3103 
Q 1681 3103 1420 2742 
Q 1159 2381 1159 1747 
Q 1159 1113 1420 752 
Q 1681 391 2138 391 
Q 2594 391 2855 752 
Q 3116 1113 3116 1747 
z
" transform="scale(0.015625)"/>
     <path id="DejaVuSans-77" d="M 269 3500 
L 844 3500 
L 1563 769 
L 2278 3500 
L 2956 3500 
L 3675 769 
L 4391 3500 
L 4966 3500 
L 4050 0 
L 3372 0 
L 2619 2869 
L 1863 0 
L 1184 0 
L 269 3500 
z
" transform="scale(0.015625)"/>
     <path id="DejaVuSans-6d" d="M 3328 2828 
Q 3544 3216 3844 3400 
Q 4144 3584 4550 3584 
Q 5097 3584 5394 3201 
Q 5691 2819 5691 2113 
L 5691 0 
L 5113 0 
L 5113 2094 
Q 5113 2597 4934 2840 
Q 4756 3084 4391 3084 
Q 3944 3084 3684 2787 
Q 3425 2491 3425 1978 
L 3425 0 
L 2847 0 
L 2847 2094 
Q 2847 2600 2669 2842 
Q 2491 3084 2119 3084 
Q 1678 3084 1418 2786 
Q 1159 2488 1159 1978 
L 1159 0 
L 581 0 
L 581 3500 
L 1159 3500 
L 1159 2956 
Q 1356 3278 1631 3431 
Q 1906 3584 2284 3584 
Q 2666 3584 2933 3390 
Q 3200 3197 3328 2828 
z
" transform="scale(0.015625)"/>
     <path id="DejaVuSans-57" d="M 213 4666 
L 850 4666 
L 1831 722 
L 2809 4666 
L 3519 4666 
L 4500 722 
L 5478 4666 
L 6119 4666 
L 4947 0 
L 4153 0 
L 3169 4050 
L 2175 0 
L 1381 0 
L 213 4666 
z
" transform="scale(0.015625)"/>
    </defs>
    <use xlink:href="#DejaVuSans-45"/>
    <use xlink:href="#DejaVuSans-78" transform="translate(63.183594 0)"/>
    <use xlink:href="#DejaVuSans-63" transform="translate(120.613281 0)"/>
    <use xlink:href="#DejaVuSans-69" transform="translate(175.59375 0)"/>
    <use xlink:href="#DejaVuSans-74" transform="translate(203.376953 0)"/>
    <use xlink:href="#DejaVuSans-61" transform="translate(242.585938 0)"/>
    <use xlink:href="#DejaVuSans-74" transform="translate(303.865234 0)"/>
    <use xlink:href="#DejaVuSans-69" transform="translate(343.074219 0)"/>
    <use xlink:href="#DejaVuSans-6f" transform="translate(370.857422 0)"/>
    <use xlink:href="#DejaVuSans-6e" transform="translate(432.039062 0)"/>
    <use xlink:href="#DejaVuSans-20" transform="translate(495.417969 0)"/>
    <use xlink:href="#DejaVuSans-70" transform="translate(527.205078 0)"/>
    <use xlink:href="#DejaVuSans-6f" transform="translate(590.681641 0)"/>
    <use xlink:href="#DejaVuSans-77" transform="translate(651.863281 0)"/>
    <use xlink:href="#DejaVuSans-65" transform="translate(733.650391 0)"/>
    <use xlink:href="#DejaVuSans-72" transform="translate(795.173828 0)"/>
    <use xlink:href="#DejaVuSans-20" transform="translate(836.287109 0)"/>
    <use xlink:href="#DejaVuSans-30" transform="translate(868.074219 0)"/>
    <use xlink:href="#DejaVuSans-2e" transform="translate(931.697266 0)"/>
    <use xlink:href="#DejaVuSans-31" transform="translate(963.484375 0)"/>
    <use xlink:href="#DejaVuSans-20" transform="translate(1027.107422 0)"/>
    <use xlink:href="#DejaVuSans-6d" transform="translate(1058.894531 0)"/>
    <use xlink:href="#DejaVuSans-57" transform="translate(1156.306641 0)"/>
   </g>
  </g>
 </g>
 <defs>
  <clipPath id="pb41c6b0250">
   <rect x="72" y="86.4" width="446.4" height="420"/>
  </clipPath>
  <clipPath id="p5cee6439a2">
   <rect x="72" y="556.8" width="446.4" height="84"/>
  </clipPath>
 </defs>
</svg>
