<?xml version="1.0" encoding="utf-8" standalone="no"?>
<!DOCTYPE svg PUBLIC "-//W3C//DTD SVG 1.1//EN"
  "http://www.w3.org/Graphics/SVG/1.1/DTD/svg11.dtd">
<svg xmlns:xlink="http://www.w3.org/1999/xlink" width="576pt" height="720pt" viewBox="0 0 576 720" xmlns="http://www.w3.org/2000/svg" version="1.1">
 <metadata>
  <rdf:RDF xmlns:dc="http://purl.org/dc/elements/1.1/" xmlns:cc="http://creativecommons.org/ns#" xmlns:rdf="http://www.w3.org/1999/02/22-rdf-syntax-ns#">
   <cc:Work>
    <dc:type rdf:resource="http://purl.org/dc/dcmitype/StillImage"/>
    <dc:date>2026-06-10T15:01:55.792325</dc:date>
    <dc:format>image/svg+xml</dc:format>
    <dc:creator>
     <cc:Agent>
      <dc:title>Matplotlib v3.10.0, https://matplotlib.org/</dc:title>
     </cc:Agent>
    </dc:creator>
   </cc:Work>
  </rdf:RDF>
 </metadata>
 <defs>
  <style type="text/css">*{stroke-linejoin: round; stroke-linecap: butt}</style>
 </defs>
 <g id="figure_1">
  <g id="patch_1">
   <path d="M 0 720 
L 576 720 
L 576 0 
L 0 0 
z
" style="fill: #ffffff"/>
  </g>
  <g id="axes_1">
   <g id="patch_2">
    <path d="M 72 506.4 
L 518.4 506.4 
L 518.4 86.4 
L 72 86.4 
z
" style="fill: #ffffff"/>
   </g>
   <g id="matplotlib.axis_1">
    <g id="xtick_1">
     <g id="line2d_1">
      <defs>
       <path id="md5e181d8bf" d="M 0 0 
L 0 3.5 
" style="stroke: #000000; stroke-width: 0.8"/>
      </defs>
      <g>
       <use xlink:href="#md5e181d8bf" x="72" y="506.4" style="stroke: #000000; stroke-width: 0.8"/>
      </g>
     </g>
    </g>
    <g id="xtick_2">
     <g id="line2d_2">
      <g>
       <use xlink:href="#md5e181d8bf" x="171.2" y="506.4" style="stroke: #000000; stroke-width: 0.8"/>
      </g>
     </g>
    </g>
    <g id="xtick_3">
     <g id="line2d_3">
      <g>
       <use xlink:href="#md5e181d8bf" x="270.4" y="506.4" style="stroke: #000000; stroke-width: 0.8"/>
      </g>
     </g>
    </g>
    <g id="xtick_4">
     <g id="line2d_4">
      <g>
       <use xlink:href="#md5e181d8bf" x="369.6" y="506.4" style="stroke: #000000; stroke-width: 0.8"/>
      </g>
     </g>
    </g>
    <g id="xtick_5">
     <g id="line2d_5">
      <g>
       <use xlink:href="#md5e181d8bf" x="468.8" y="506.4" style="stroke: #000000; stroke-width: 0.8"/>
      </g>
     </g>
    </g>
   </g>
   <g id="matplotlib.axis_2">
    <g id="ytick_1">
     <g id="line2d_6">
      <defs>
       <path id="m0d42a67dce" d="M 0 0 
L -3.5 0 
" style="stroke: #000000; stroke-width: 0.8"/>
      </defs>
      <g>
       <use xlink:href="#m0d42a67dce" x="72" y="485.999197" style="stroke: #000000; stroke-width: 0.8"/>
      </g>
     </g>
     <g id="text_1">
      <!-- 0 -->
      <g transform="translate(58.6375 489.798416) scale(0.1 -0.1)">
       <defs>
        <path id="DejaVuSans-30" d="M 2034 4250 
Q 1547 4250 1301 3770 
Q 1056 3291 1056 2328 
Q 1056 1369 1301 889 
Q 1547 409 2034 409 
Q 2525 409 2770 889 
Q 3016 1369 3016 2328 
Q 3016 3291 2770 3770 
Q 2525 4250 2034 4250 
z
M 2034 4750 
Q 2819 4750 3233 4129 
Q 3647 3509 3647 2328 
Q 3647 1150 3233 529 
Q 2819 -91 2034 -91 
Q 1250 -91 836 529 
Q 422 1150 422 2328 
Q 422 3509 836 4129 
Q 1250 4750 2034 4750 
z
" transform="scale(0.015625)"/>
       </defs>
       <use xlink:href="#DejaVuSans-30"/>
      </g>
     </g>
    </g>
    <g id="ytick_2">
     <g id="line2d_7">
      <g>
       <use xlink:href="#m0d42a67dce" x="72" y="428.978477" style="stroke: #000000; stroke-width: 0.8"/>
      </g>
     </g>
     <g id="text_2">
      <!-- 5000 -->
      <g transform="translate(39.55 432.777696) scale(0.1 -0.1)">
       <defs>
        <path id="DejaVuSans-35" d="M 691 4666 
L 3169 4666 
L 3169 4134 
L 1269 4134 
L 1269 2991 
Q 1406 3038 1543 3061 
Q 1681 3084 1819 3084 
Q 2600 3084 3056 2656 
Q 3513 2228 3513 1497 
Q 3513 744 3044 326 
Q 2575 -91 1722 -91 
Q 1428 -91 1123 -41 
Q 819 9 494 109 
L 494 744 
Q 775 591 1075 516 
Q 1375 441 1709 441 
Q 2250 441 2565 725 
Q 2881 1009 2881 1497 
Q 2881 1984 2565 2268 
Q 2250 2553 1709 2553 
Q 1456 2553 1204 2497 
Q 953 2441 691 2322 
L 691 4666 
z
" transform="scale(0.015625)"/>
       </defs>
       <use xlink:href="#DejaVuSans-35"/>
       <use xlink:href="#DejaVuSans-30" transform="translate(63.623047 0)"/>
       <use xlink:href="#DejaVuSans-30" transform="translate(127.246094 0)"/>
       <use xlink:href="#DejaVuSans-30" transform="translate(190.869141 0)"/>
      </g>
     </g>
    </g>
    <g id="ytick_3">
     <g id="line2d_8">
      <g>
       <use xlink:href="#m0d42a67dce" x="72" y="371.957757" style="stroke: #000000; stroke-width: 0.8"/>
      </g>
     </g>
     <g id="text_3">
      <!-- 10000 -->
      <g transform="translate(33.1875 375.756976) scale(0.1 -0.1)">
       <defs>
        <path id="DejaVuSans-31" d="M 794 531 
L 1825 531 
L 1825 4091 
L 703 3866 
L 703 4441 
L 1819 4666 
L 2450 4666 
L 2450 531 
L 3481 531 
L 3481 0 
L 794 0 
L 794 531 
z
" transform="scale(0.015625)"/>
       </defs>
       <use xlink:href="#DejaVuSans-31"/>
       <use xlink:href="#DejaVuSans-30" transform="translate(63.623047 0)"/>
       <use xlink:href="#DejaVuSans-30" transform="translate(127.246094 0)"/>
       <use xlink:href="#DejaVuSans-30" transform="translate(190.869141 0)"/>
       <use xlink:href="#DejaVuSans-30" transform="translate(254.492188 0)"/>
      </g>
     </g>
    </g>
    <g id="ytick_4">
     <g id="line2d_9">
      <g>
       <use xlink:href="#m0d42a67dce" x="72" y="314.937037" style="stroke: #000000; stroke-width: 0.8"/>
      </g>
     </g>
     <g id="text_4">
      <!-- 15000 -->
      <g transform="translate(33.1875 318.736256) scale(0.1 -0.1)">
       <use xlink:href="#DejaVuSans-31"/>
       <use xlink:href="#DejaVuSans-35" transform="translate(63.623047 0)"/>
       <use xlink:href="#DejaVuSans-30" transform="translate(127.246094 0)"/>
       <use xlink:href="#DejaVuSans-30" transform="translate(190.869141 0)"/>
       <use xlink:href="#DejaVuSans-30" transform="translate(254.492188 0)"/>
      </g>
     </g>
    </g>
    <g id="ytick_5">
     <g id="line2d_10">
      <g>
       <use xlink:href="#m0d42a67dce" x="72" y="257.916318" style="stroke: #000000; stroke-width: 0.8"/>
      </g>
     </g>
     <g id="text_5">
      <!-- 20000 -->
      <g transform="translate(33.1875 261.715536) scale(0.1 -0.1)">
       <defs>
        <path id="DejaVuSans-32" d="M 1228 531 
L 3431 531 
L 3431 0 
L 469 0 
L 469 531 
Q 828 903 1448 1529 
Q 2069 2156 2228 2338 
Q 2531 2678 2651 2914 
Q 2772 3150 2772 3378 
Q 2772 3750 2511 3984 
Q 2250 4219 1831 4219 
Q 1534 4219 1204 4116 
Q 875 4013 500 3803 
L 500 4441 
Q 881 4594 1212 4672 
Q 1544 4750 1819 4750 
Q 2544 4750 2975 4387 
Q 3406 4025 3406 3419 
Q 3406 3131 3298 2873 
Q 3191 2616 2906 2266 
Q 2828 2175 2409 1742 
Q 1991 1309 1228 531 
z
" transform="scale(0.015625)"/>
       </defs>
       <use xlink:href="#DejaVuSans-32"/>
       <use xlink:href="#DejaVuSans-30" transform="translate(63.623047 0)"/>
       <use xlink:href="#DejaVuSans-30" transform="translate(127.246094 0)"/>
       <use xlink:href="#DejaVuSans-30" transform="translate(190.869141 0)"/>
       <use xlink:href="#DejaVuSans-30" transform="translate(254.492188 0)"/>
      </g>
     </g>
    </g>
    <g id="ytick_6">
     <g id="line2d_11">
      <g>
       <use xlink:href="#m0d42a67dce" x="72" y="200.895598" style="stroke: #000000; stroke-width: 0.8"/>
      </g>
     </g>
     <g id="text_6">
      <!-- 25000 -->
      <g transform="translate(33.1875 204.694816) scale(0.1 -0.1)">
       <use xlink:href="#DejaVuSans-32"/>
       <use xlink:href="#DejaVuSans-35" transform="translate(63.623047 0)"/>
       <use xlink:href="#DejaVuSans-30" transform="translate(127.246094 0)"/>
       <use xlink:href="#DejaVuSans-30" transform="translate(190.869141 0)"/>
       <use xlink:href="#DejaVuSans-30" transform="translate(254.492188 0)"/>
      </g>
     </g>
    </g>
    <g id="ytick_7">
     <g id="line2d_12">
      <g>
       <use xlink:href="#m0d42a67dce" x="72" y="143.874878" style="stroke: #000000; stroke-width: 0.8"/>
      </g>
     </g>
     <g id="text_7">
      <!-- 30000 -->
      <g transform="translate(33.1875 147.674096) scale(0.1 -0.1)">
       <defs>
        <path id="DejaVuSans-33" d="M 2597 2516 
Q 3050 2419 3304 2112 
Q 3559 1806 3559 1356 
Q 3559 666 3084 287 
Q 2609 -91 1734 -91 
Q 1441 -91 1130 -33 
Q 819 25 488 141 
L 488 750 
Q 750 597 1062 519 
Q 1375 441 1716 441 
Q 2309 441 2620 675 
Q 2931 909 2931 1356 
Q 2931 1769 2642 2001 
Q 2353 2234 1838 2234 
L 1294 2234 
L 1294 2753 
L 1863 2753 
Q 2328 2753 2575 2939 
Q 2822 3125 2822 3475 
Q 2822 3834 2567 4026 
Q 2313 4219 1838 4219 
Q 1578 4219 1281 4162 
Q 984 4106 628 3988 
L 628 4550 
Q 988 4650 1302 4700 
Q 1616 4750 1894 4750 
Q 2613 4750 3031 4423 
Q 3450 4097 3450 3541 
Q 3450 3153 3228 2886 
Q 3006 2619 2597 2516 
z
" transform="scale(0.015625)"/>
       </defs>
       <use xlink:href="#DejaVuSans-33"/>
       <use xlink:href="#DejaVuSans-30" transform="translate(63.623047 0)"/>
       <use xlink:href="#DejaVuSans-30" transform="translate(127.246094 0)"/>
       <use xlink:href="#DejaVuSans-30" transform="translate(190.869141 0)"/>
       <use xlink:href="#DejaVuSans-30" transform="translate(254.492188 0)"/>
      </g>
     </g>
    </g>
    <g id="ytick_8">
     <g id="line2d_13">
      <g>
       <use xlink:href="#m0d42a67dce" x="72" y="86.854158" style="stroke: #000000; stroke-width: 0.8"/>
      </g>
     </g>
     <g id="text_8">
      <!-- 35000 -->
      <g transform="translate(33.1875 90.653377) scale(0.1 -0.1)">
       <use xlink:href="#DejaVuSans-33"/>
       <use xlink:href="#DejaVuSans-35" transform="translate(63.623047 0)"/>
       <use xlink:href="#DejaVuSans-30" transform="translate(127.246094 0)"/>
       <use xlink:href="#DejaVuSans-30" transform="translate(190.869141 0)"/>
       <use xlink:href="#DejaVuSans-30" transform="translate(254.492188 0)"/>
      </g>
     </g>
    </g>
    <g id="text_9">
     <!-- Intensitiy (a.u.) -->
     <g transform="translate(27.107812 334.453125) rotate(-90) scale(0.1 -0.1)">
      <defs>
       <path id="DejaVuSans-49" d="M 628 4666 
L 1259 4666 
L 1259 0 
L 628 0 
L 628 4666 
z
" transform="scale(0.015625)"/>
       <path id="DejaVuSans-6e" d="M 3513 2113 
L 3513 0 
L 2938 0 
L 2938 2094 
Q 2938 2591 2744 2837 
Q 2550 3084 2163 3084 
Q 1697 3084 1428 2787 
Q 1159 2491 1159 1978 
L 1159 0 
L 581 0 
L 581 3500 
L 1159 3500 
L 1159 2956 
Q 1366 3272 1645 3428 
Q 1925 3584 2291 3584 
Q 2894 3584 3203 3211 
Q 3513 2838 3513 2113 
z
" transform="scale(0.015625)"/>
       <path id="DejaVuSans-74" d="M 1172 4494 
L 1172 3500 
L 2356 3500 
L 2356 3053 
L 1172 3053 
L 1172 1153 
Q 1172 725 1289 603 
Q 1406 481 1766 481 
L 2356 481 
L 2356 0 
L 1766 0 
Q 1100 0 847 248 
Q 594 497 594 1153 
L 594 3053 
L 172 3053 
L 172 3500 
L 594 3500 
L 594 4494 
L 1172 4494 
z
" transform="scale(0.015625)"/>
       <path id="DejaVuSans-65" d="M 3597 1894 
L 3597 1613 
L 953 1613 
Q 991 1019 1311 708 
Q 1631 397 2203 397 
Q 2534 397 2845 478 
Q 3156 559 3463 722 
L 3463 178 
Q 3153 47 2828 -22 
Q 2503 -91 2169 -91 
Q 1331 -91 842 396 
Q 353 884 353 1716 
Q 353 2575 817 3079 
Q 1281 3584 2069 3584 
Q 2775 3584 3186 3129 
Q 3597 2675 3597 1894 
z
M 3022 2063 
Q 3016 2534 2758 2815 
Q 2500 3097 2075 3097 
Q 1594 3097 1305 2825 
Q 1016 2553 972 2059 
L 3022 2063 
z
" transform="scale(0.015625)"/>
       <path id="DejaVuSans-73" d="M 2834 3397 
L 2834 2853 
Q 2591 2978 2328 3040 
Q 2066 3103 1784 3103 
Q 1356 3103 1142 2972 
Q 928 2841 928 2578 
Q 928 2378 1081 2264 
Q 1234 2150 1697 2047 
L 1894 2003 
Q 2506 1872 2764 1633 
Q 3022 1394 3022 966 
Q 3022 478 2636 193 
Q 2250 -91 1575 -91 
Q 1294 -91 989 -36 
Q 684 19 347 128 
L 347 722 
Q 666 556 975 473 
Q 1284 391 1588 391 
Q 1994 391 2212 530 
Q 2431 669 2431 922 
Q 2431 1156 2273 1281 
Q 2116 1406 1581 1522 
L 1381 1569 
Q 847 1681 609 1914 
Q 372 2147 372 2553 
Q 372 3047 722 3315 
Q 1072 3584 1716 3584 
Q 2034 3584 2315 3537 
Q 2597 3491 2834 3397 
z
" transform="scale(0.015625)"/>
       <path id="DejaVuSans-69" d="M 603 3500 
L 1178 3500 
L 1178 0 
L 603 0 
L 603 3500 
z
M 603 4863 
L 1178 4863 
L 1178 4134 
L 603 4134 
L 603 4863 
z
" transform="scale(0.015625)"/>
       <path id="DejaVuSans-79" d="M 2059 -325 
Q 1816 -950 1584 -1140 
Q 1353 -1331 966 -1331 
L 506 -1331 
L 506 -850 
L 844 -850 
Q 1081 -850 1212 -737 
Q 1344 -625 1503 -206 
L 1606 56 
L 191 3500 
L 800 3500 
L 1894 763 
L 2988 3500 
L 3597 3500 
L 2059 -325 
z
" transform="scale(0.015625)"/>
       <path id="DejaVuSans-20" transform="scale(0.015625)"/>
       <path id="DejaVuSans-28" d="M 1984 4856 
Q 1566 4138 1362 3434 
Q 1159 2731 1159 2009 
Q 1159 1288 1364 580 
Q 1569 -128 1984 -844 
L 1484 -844 
Q 1016 -109 783 600 
Q 550 1309 550 2009 
Q 550 2706 781 3412 
Q 1013 4119 1484 4856 
L 1984 4856 
z
" transform="scale(0.015625)"/>
       <path id="DejaVuSans-61" d="M 2194 1759 
Q 1497 1759 1228 1600 
Q 959 1441 959 1056 
Q 959 750 1161 570 
Q 1363 391 1709 391 
Q 2188 391 2477 730 
Q 2766 1069 2766 1631 
L 2766 1759 
L 2194 1759 
z
M 3341 1997 
L 3341 0 
L 2766 0 
L 2766 531 
Q 2569 213 2275 61 
Q 1981 -91 1556 -91 
Q 1019 -91 701 211 
Q 384 513 384 1019 
Q 384 1609 779 1909 
Q 1175 2209 1959 2209 
L 2766 2209 
L 2766 2266 
Q 2766 2663 2505 2880 
Q 2244 3097 1772 3097 
Q 1472 3097 1187 3025 
Q 903 2953 641 2809 
L 641 3341 
Q 956 3463 1253 3523 
Q 1550 3584 1831 3584 
Q 2591 3584 2966 3190 
Q 3341 2797 3341 1997 
z
" transform="scale(0.015625)"/>
       <path id="DejaVuSans-2e" d="M 684 794 
L 1344 794 
L 1344 0 
L 684 0 
L 684 794 
z
" transform="scale(0.015625)"/>
       <path id="DejaVuSans-75" d="M 544 1381 
L 544 3500 
L 1119 3500 
L 1119 1403 
Q 1119 906 1312 657 
Q 1506 409 1894 409 
Q 2359 409 2629 706 
Q 2900 1003 2900 1516 
L 2900 3500 
L 3475 3500 
L 3475 0 
L 2900 0 
L 2900 538 
Q 2691 219 2414 64 
Q 2138 -91 1772 -91 
Q 1169 -91 856 284 
Q 544 659 544 1381 
z
M 1991 3584 
L 1991 3584 
z
" transform="scale(0.015625)"/>
       <path id="DejaVuSans-29" d="M 513 4856 
L 1013 4856 
Q 1481 4119 1714 3412 
Q 1947 2706 1947 2009 
Q 1947 1309 1714 600 
Q 1481 -109 1013 -844 
L 513 -844 
Q 928 -128 1133 580 
Q 1338 1288 1338 2009 
Q 1338 2731 1133 3434 
Q 928 4138 513 4856 
z
" transform="scale(0.015625)"/>
      </defs>
      <use xlink:href="#DejaVuSans-49"/>
      <use xlink:href="#DejaVuSans-6e" transform="translate(29.492188 0)"/>
      <use xlink:href="#DejaVuSans-74" transform="translate(92.871094 0)"/>
      <use xlink:href="#DejaVuSans-65" transform="translate(132.080078 0)"/>
      <use xlink:href="#DejaVuSans-6e" transform="translate(193.603516 0)"/>
      <use xlink:href="#DejaVuSans-73" transform="translate(256.982422 0)"/>
      <use xlink:href="#DejaVuSans-69" transform="translate(309.082031 0)"/>
      <use xlink:href="#DejaVuSans-74" transform="translate(336.865234 0)"/>
      <use xlink:href="#DejaVuSans-69" transform="translate(376.074219 0)"/>
      <use xlink:href="#DejaVuSans-79" transform="translate(403.857422 0)"/>
      <use xlink:href="#DejaVuSans-20" transform="translate(463.037109 0)"/>
      <use xlink:href="#DejaVuSans-28" transform="translate(494.824219 0)"/>
      <use xlink:href="#DejaVuSans-61" transform="translate(533.837891 0)"/>
      <use xlink:href="#DejaVuSans-2e" transform="translate(595.117188 0)"/>
      <use xlink:href="#DejaVuSans-75" transform="translate(626.904297 0)"/>
      <use xlink:href="#DejaVuSans-2e" transform="translate(690.283203 0)"/>
      <use xlink:href="#DejaVuSans-29" transform="translate(722.070312 0)"/>
     </g>
    </g>
   </g>
   <g id="line2d_14">
    <path d="M 518.29584 486.986932 
L 517.68576 486.701128 
L 517.07568 486.67762 
L 516.4656 486.950619 
L 515.85552 486.550774 
L 515.24544 486.470245 
L 514.63536 486.59499 
L 514.03024 486.434638 
L 513.42016 486.810274 
L 512.81504 486.353414 
L 512.20992 486.68344 
L 511.6048 486.671341 
L 510.99968 486.032015 
L 510.39952 486.373451 
L 509.7944 486.486798 
L 509.19424 486.280834 
L 508.58912 485.938015 
L 507.98896 486.439109 
L 507.3888 486.312975 
L 506.7936 485.970167 
L 506.19344 486.300199 
L 505.59328 485.592453 
L 504.99808 486.33304 
L 504.40288 485.191942 
L 503.80768 485.521979 
L 503.21248 485.327426 
L 502.61728 485.589038 
L 502.02208 485.38308 
L 501.43184 485.496444 
L 500.2464 485.209981 
L 499.65616 484.878583 
L 499.06592 484.809481 
L 498.47568 484.557912 
L 497.88544 485.366929 
L 496.70992 484.624311 
L 496.12464 485.262271 
L 495.53936 484.064164 
L 494.95408 484.96442 
L 494.3688 484.325116 
L 493.78352 484.951673 
L 493.2032 484.802753 
L 492.61792 484.380128 
L 491.45728 484.481433 
L 490.87696 484.252684 
L 490.29664 484.719588 
L 489.71632 484.41101 
L 489.136 483.828733 
L 487.40496 483.632876 
L 486.8296 483.153242 
L 485.67888 483.151921 
L 485.10848 483.299521 
L 484.53312 483.196223 
L 483.96272 481.895496 
L 483.38736 482.442235 
L 482.81696 482.601238 
L 482.24656 482.965516 
L 481.67616 482.554312 
L 481.11072 482.530855 
L 480.54032 482.746879 
L 479.96992 482.723417 
L 479.40448 481.684991 
L 478.83904 481.467663 
L 478.2736 482.288112 
L 477.70816 481.569002 
L 476.57728 481.624725 
L 476.01184 481.133698 
L 475.45136 480.961993 
L 474.89088 481.189433 
L 474.32544 481.165976 
L 473.76496 480.46968 
L 473.20448 480.822565 
L 472.64896 479.863979 
L 472.08848 480.547585 
L 471.528 479.77146 
L 470.97248 479.805035 
L 470.41696 480.021076 
L 469.85648 479.712521 
L 469.30096 478.856572 
L 468.74544 479.049805 
L 468.19488 478.878111 
L 467.63936 477.93093 
L 467.08384 477.861868 
L 466.53328 478.271785 
L 465.98272 477.700946 
L 465.43216 477.529252 
L 464.8816 477.825128 
L 464.33104 477.8359 
L 463.78048 477.61859 
L 462.68432 477.617332 
L 462.13376 476.898239 
L 461.58816 476.8634 
L 461.04256 476.269759 
L 460.49696 477.101635 
L 459.95136 476.291315 
L 459.40576 476.062606 
L 458.86016 476.06198 
L 458.31952 474.920945 
L 457.77392 475.524738 
L 457.23328 475.410077 
L 456.69264 474.656783 
L 456.152 475.08952 
L 455.61136 474.233588 
L 455.07072 473.13817 
L 454.53008 473.422653 
L 453.9944 474.516836 
L 453.45376 473.375802 
L 452.91808 473.717311 
L 452.3824 472.553474 
L 451.84672 473.054641 
L 451.31104 471.982037 
L 450.77536 472.620054 
L 450.23968 470.988647 
L 449.70896 472.208281 
L 449.17328 471.489206 
L 448.64256 470.165716 
L 448.11184 470.86076 
L 447.57616 470.084663 
L 447.04544 470.414774 
L 446.51472 469.148305 
L 445.98896 469.113489 
L 445.45824 469.557642 
L 444.93248 469.214914 
L 444.40176 468.655502 
L 443.876 467.765376 
L 443.35024 467.297202 
L 442.82448 467.444853 
L 442.29872 466.429281 
L 441.77296 466.565527 
L 441.2472 467.135131 
L 440.72144 465.230036 
L 440.20064 466.689168 
L 439.67984 465.582369 
L 439.15408 465.205429 
L 438.63328 465.28466 
L 438.11248 464.873513 
L 437.59168 463.607056 
L 437.07584 463.18451 
L 436.55504 463.469016 
L 436.03424 462.419237 
L 435.5184 462.430049 
L 435.00256 462.714561 
L 434.48176 461.835844 
L 433.96592 461.709807 
L 433.45008 460.751267 
L 432.93424 460.625229 
L 432.42336 459.883374 
L 431.90752 460.259118 
L 430.8808 458.456085 
L 430.36992 458.866048 
L 429.85904 458.078576 
L 429.34816 458.579772 
L 428.3264 456.411812 
L 427.81552 456.137526 
L 427.30464 454.620189 
L 426.79872 455.178411 
L 426.28784 454.664639 
L 425.78192 455.017587 
L 424.26416 452.199021 
L 423.75824 453.247622 
L 423.25232 452.220668 
L 422.24544 449.186011 
L 421.74448 448.695058 
L 421.24352 449.515581 
L 420.23664 449.069664 
L 419.73568 448.555903 
L 419.23472 449.228172 
L 418.73872 447.608215 
L 418.23776 447.14007 
L 417.74176 445.736791 
L 417.2408 445.724812 
L 416.7448 445.575989 
L 416.2488 444.36658 
L 415.74784 442.632576 
L 415.25184 442.768856 
L 414.7608 444.33066 
L 414.2648 442.34577 
L 413.27776 439.926959 
L 412.78176 442.001944 
L 412.29072 439.549489 
L 411.30368 438.601813 
L 410.81264 438.943373 
L 410.3216 437.665546 
L 409.83552 438.200983 
L 409.34448 435.851166 
L 408.36736 436.11234 
L 407.87632 433.26074 
L 407.39024 433.967239 
L 406.90416 432.985925 
L 406.41808 429.484295 
L 405.932 430.065349 
L 405.44592 430.213045 
L 404.95984 428.821181 
L 404.47872 429.881214 
L 403.99264 428.728838 
L 403.51152 429.150239 
L 403.02544 425.774055 
L 402.54432 426.469156 
L 402.0632 425.339593 
L 401.58208 425.042533 
L 401.10096 424.528795 
L 400.61984 424.448414 
L 400.13872 423.638167 
L 399.66256 424.310465 
L 399.18144 420.945691 
L 398.70528 420.625828 
L 398.22416 418.583934 
L 397.748 418.058797 
L 397.27184 417.180132 
L 396.79568 417.955067 
L 396.31952 414.601702 
L 395.3672 416.801609 
L 394.896 412.764002 
L 394.41984 415.124113 
L 393.94864 413.834904 
L 393.47744 411.941275 
L 393.00128 411.085418 
L 392.53008 410.65152 
L 392.05888 408.826316 
L 391.58768 410.718863 
L 391.11648 406.669851 
L 390.65024 404.28585 
L 390.17904 404.764284 
L 389.7128 405.550634 
L 389.2416 403.53156 
L 388.77536 403.074859 
L 388.30912 401.500553 
L 386.9104 398.86459 
L 386.44416 396.788501 
L 385.97792 396.548479 
L 385.51168 395.749654 
L 385.0504 393.445487 
L 384.58416 394.619579 
L 384.12288 392.725962 
L 383.6616 393.968484 
L 383.20032 390.968665 
L 382.73904 389.086452 
L 382.27776 388.880648 
L 381.81648 389.199435 
L 380.89392 386.278915 
L 380.4376 384.134412 
L 379.97632 386.711219 
L 379.52 384.578121 
L 379.06368 385.444312 
L 378.60736 384.01827 
L 378.14608 383.447534 
L 377.68976 378.885353 
L 377.2384 381.256897 
L 376.78208 378.838694 
L 376.32576 377.389844 
L 375.86944 377.320896 
L 375.41808 376.282601 
L 374.96176 372.359052 
L 374.5104 372.67785 
L 374.05904 370.795648 
L 373.60768 369.928415 
L 373.15632 371.42184 
L 372.70496 370.634436 
L 372.2536 369.105763 
L 371.80224 365.364686 
L 371.35088 367.359893 
L 370.90448 365.637355 
L 370.45312 366.343894 
L 370.00672 360.949221 
L 369.56032 363.913787 
L 369.11392 359.226171 
L 368.66256 359.818669 
L 368.21616 359.875177 
L 367.76976 357.60524 
L 367.32832 358.403024 
L 366.88192 354.753185 
L 366.43552 355.254455 
L 365.54768 351.695344 
L 365.10624 348.820993 
L 364.65984 351.751345 
L 364.2184 350.496383 
L 363.33552 346.241624 
L 362.89408 346.229713 
L 362.45264 341.952653 
L 362.01616 344.677742 
L 361.57472 344.038604 
L 361.13328 344.186351 
L 360.26032 339.224547 
L 359.81888 341.607506 
L 359.3824 339.132306 
L 358.94592 337.558033 
L 358.50944 337.124175 
L 358.07296 334.740208 
L 357.63648 334.591453 
L 357.2 330.804776 
L 356.76848 332.765794 
L 356.332 330.780972 
L 355.90048 331.521746 
L 355.03248 328.099507 
L 354.60096 326.627877 
L 354.16944 324.597444 
L 353.73296 323.433721 
L 353.30144 323.706925 
L 352.87488 320.786974 
L 352.44336 320.946137 
L 352.01184 319.759611 
L 351.58528 314.638661 
L 351.15376 314.797824 
L 350.7272 318.104536 
L 350.29568 313.690637 
L 349.86912 313.233982 
L 349.44256 314.282674 
L 349.016 312.879474 
L 348.16288 308.453687 
L 347.73632 308.89796 
L 347.30976 305.111294 
L 346.8832 304.061623 
L 346.4616 304.049736 
L 346.03504 299.761288 
L 345.61344 300.159949 
L 345.19184 301.995532 
L 344.76528 298.858903 
L 343.92208 299.53078 
L 343.07888 296.758606 
L 342.66224 295.891413 
L 341.81904 291.180533 
L 341.4024 291.487967 
L 340.9808 287.815349 
L 340.56416 289.194772 
L 339.30928 285.920343 
L 338.89264 286.615518 
L 338.476 280.114677 
L 338.05936 280.17122 
L 337.64272 278.745224 
L 337.23104 278.835985 
L 336.8144 280.420682 
L 336.39776 271.798671 
L 335.98608 276.006328 
L 335.15776 269.265528 
L 334.74608 270.097559 
L 334.3344 267.189029 
L 333.92272 268.317567 
L 333.51104 263.812458 
L 333.09936 266.537576 
L 332.68768 266.229192 
L 332.276 263.594362 
L 331.86928 266.581781 
L 331.4576 265.532127 
L 331.05088 263.87806 
L 330.6392 260.422132 
L 330.23248 260.307623 
L 329.82576 260.694897 
L 329.00736 256.177917 
L 328.60064 255.458989 
L 328.19392 251.809197 
L 327.79216 252.401751 
L 327.38544 250.633642 
L 326.97872 254.852709 
L 326.57696 246.68688 
L 326.17024 253.985066 
L 325.76848 248.476403 
L 325.36176 246.902165 
L 324.96 246.057797 
L 324.55824 242.259756 
L 324.15648 244.654165 
L 323.74976 241.814067 
L 323.35296 236.16856 
L 322.9512 238.61999 
L 322.54944 234.628078 
L 322.14768 233.45299 
L 321.34912 236.690851 
L 320.94736 236.120183 
L 320.55056 234.842463 
L 320.15376 235.412215 
L 319.752 234.077469 
L 319.3552 233.233107 
L 318.1648 226.069939 
L 317.768 225.351022 
L 317.3712 219.101096 
L 316.97936 221.084967 
L 316.58256 224.049589 
L 316.18576 219.989259 
L 315.79392 220.000213 
L 315.40208 219.395344 
L 315.00528 219.942288 
L 314.61344 215.9846 
L 314.2216 216.828057 
L 313.82976 214.980136 
L 313.43792 212.026013 
L 313.04608 217.476744 
L 312.65424 208.54685 
L 312.2624 203.882105 
L 311.87056 203.014941 
L 311.48368 205.283921 
L 311.09184 205.374705 
L 310.7 200.675748 
L 310.31312 202.328905 
L 309.92624 204.654906 
L 309.5344 205.8747 
L 309.14752 206.410251 
L 308.76064 205.748366 
L 308.37376 205.588264 
L 307.98688 204.515831 
L 307.6 204.150454 
L 306.8312 196.269308 
L 306.44432 197.671574 
L 306.05744 191.843613 
L 305.67552 191.090501 
L 305.28864 188.558337 
L 304.90672 191.579997 
L 304.5248 189.811916 
L 304.13792 189.058799 
L 303.37408 192.54759 
L 302.99216 189.924199 
L 302.61024 191.041367 
L 302.22832 187.334581 
L 301.85136 186.341988 
L 301.46944 182.623799 
L 301.08752 182.030345 
L 300.71056 176.305033 
L 300.32864 180.546936 
L 299.95168 174.091758 
L 299.56976 179.177568 
L 299.1928 173.258384 
L 298.81584 175.367718 
L 298.43888 174.626016 
L 298.06192 174.522947 
L 297.68496 176.016457 
L 297.308 176.107257 
L 296.93104 174.920794 
L 296.55408 170.689424 
L 295.80512 171.543875 
L 295.42816 164.98606 
L 295.05616 162.08898 
L 294.6792 162.704371 
L 294.3072 155.439505 
L 293.55824 156.658889 
L 293.18624 153.989892 
L 292.81424 155.038646 
L 292.44224 157.364665 
L 292.07024 155.47115 
L 291.69824 159.998168 
L 291.32624 158.823115 
L 290.9592 157.077859 
L 290.5872 161.604878 
L 290.22016 157.932322 
L 289.84816 149.595466 
L 289.48112 156.414723 
L 289.10912 153.654493 
L 288.37504 145.294413 
L 288.00304 147.517794 
L 287.636 146.548021 
L 287.26896 143.822009 
L 286.53984 145.451965 
L 286.1728 145.029591 
L 285.80576 149.841718 
L 285.43872 152.612504 
L 285.07664 149.247866 
L 284.7096 149.156212 
L 284.34752 148.711034 
L 283.98048 148.9501 
L 283.6184 145.186317 
L 283.25632 144.421824 
L 282.5272 137.031102 
L 282.16512 134.92092 
L 281.80304 133.723069 
L 281.44096 136.790369 
L 281.07888 130.23257 
L 280.35968 133.196822 
L 279.9976 138.624779 
L 279.64048 140.232354 
L 279.2784 139.159949 
L 278.92128 141.771088 
L 278.5592 138.657341 
L 278.20208 138.041108 
L 277.84496 133.524657 
L 277.48288 133.478625 
L 277.12576 129.999951 
L 276.76864 129.828479 
L 276.41152 123.647023 
L 276.0544 124.832644 
L 275.69728 119.540712 
L 275.34512 122.756276 
L 274.988 124.683166 
L 274.63088 123.462513 
L 274.27872 120.611073 
L 273.9216 125.947803 
L 273.56944 125.445616 
L 273.21232 132.173651 
L 272.86016 128.843237 
L 272.508 132.902708 
L 272.15088 132.959319 
L 271.79872 132.536962 
L 271.44656 132.958511 
L 270.74224 126.195045 
L 270.39008 126.240258 
L 270.04288 122.225601 
L 269.33856 117.868409 
L 268.99136 118.666301 
L 268.6392 116.042944 
L 268.28704 119.292721 
L 267.93984 119.098452 
L 267.59264 117.21637 
L 267.24048 122.769784 
L 266.89328 121.731608 
L 266.54608 121.423298 
L 265.50448 128.264589 
L 265.15728 124.535035 
L 264.81008 129.062082 
L 264.46288 122.162176 
L 264.11568 119.048447 
L 263.77344 119.914769 
L 263.42624 119.58365 
L 263.084 117.724382 
L 262.7368 111.132388 
L 262.39456 111.33727 
L 262.04736 116.28627 
L 261.70512 112.157577 
L 261.36288 115.829319 
L 261.02064 117.003553 
L 260.6784 119.420839 
L 259.99392 126.319561 
L 259.65168 123.935702 
L 259.30944 123.536164 
L 258.9672 122.007616 
L 258.62496 124.025757 
L 257.94544 117.672869 
L 257.6032 119.348885 
L 257.26592 115.915851 
L 256.92864 115.584743 
L 256.5864 108.217274 
L 256.24912 106.015887 
L 255.91184 105.490909 
L 255.5696 108.91176 
L 254.89504 108.260949 
L 254.55776 119.48224 
L 254.22048 117.246641 
L 253.8832 121.796507 
L 253.55088 123.643597 
L 253.2136 121.898376 
L 252.87632 127.828144 
L 252.544 127.508446 
L 251.86944 123.721496 
L 251.53712 117.015478 
L 251.2048 118.930993 
L 250.86752 112.122332 
L 250.5352 111.574552 
L 250.20288 111.357492 
L 249.87056 107.399872 
L 249.53328 109.794356 
L 249.20096 107.285063 
L 248.86864 118.15283 
L 248.54128 115.107548 
L 248.20896 118.881939 
L 247.87664 125.530173 
L 247.54432 127.012331 
L 247.212 131.39114 
L 246.88464 130.558262 
L 246.55232 130.044694 
L 245.89264 119.677571 
L 245.56528 124.318681 
L 244.9056 113.358542 
L 244.57824 110.370281 
L 244.25088 114.133273 
L 243.92352 114.543446 
L 243.59616 118.101163 
L 243.2688 117.975342 
L 242.94144 119.788225 
L 242.28672 129.731887 
L 241.95936 129.001647 
L 241.63696 137.15524 
L 241.3096 141.169123 
L 240.9872 138.351929 
L 240.65984 142.092113 
L 240.33744 135.910697 
L 240.01008 139.662284 
L 239.68768 129.204314 
L 239.36528 126.216059 
L 238.71552 122.725645 
L 238.07072 125.176796 
L 237.74832 120.648981 
L 237.42592 126.578766 
L 237.10352 128.528504 
L 236.78112 134.446885 
L 236.45872 135.609738 
L 235.49648 149.669943 
L 235.17904 145.963232 
L 234.85664 147.034851 
L 234.5392 144.058006 
L 234.22176 144.525211 
L 233.89936 141.057981 
L 233.58192 133.485266 
L 233.26448 129.983829 
L 232.94704 130.086102 
L 232.62464 133.38153 
L 232.3072 128.967762 
L 231.98976 131.955283 
L 231.67232 132.000535 
L 231.35984 136.151285 
L 231.0424 134.896465 
L 230.72496 140.347282 
L 230.40752 139.947772 
L 229.7776 150.621328 
L 228.83024 160.176914 
L 228.51776 157.38254 
L 228.20528 164.555388 
L 227.88784 161.475905 
L 227.57536 164.417815 
L 227.26288 160.049669 
L 226.9504 157.722865 
L 226.63792 156.559284 
L 226.32544 146.124134 
L 226.01296 150.993345 
L 225.70048 142.405666 
L 225.388 144.583499 
L 224.768 151.288424 
L 224.45552 148.265967 
L 224.14304 154.469463 
L 223.83552 156.225348 
L 223.52304 163.021859 
L 223.21552 163.352227 
L 222.28304 179.476616 
L 221.97552 178.666569 
L 221.668 182.965578 
L 221.05296 179.190101 
L 220.74544 173.670142 
L 220.43792 175.334794 
L 220.1304 168.389318 
L 219.51536 162.275991 
L 219.20784 162.731804 
L 218.90032 166.266735 
L 218.59776 167.087486 
L 218.29024 168.809159 
L 217.98272 166.995548 
L 217.68016 173.290288 
L 217.37264 174.783878 
L 217.07008 179.367996 
L 216.76752 185.765374 
L 216.46 185.639576 
L 215.85488 196.609668 
L 215.55232 197.761139 
L 215.24976 196.791439 
L 214.94224 202.082609 
L 214.63968 201.979625 
L 214.33712 195.387682 
L 214.03952 194.874154 
L 213.73696 189.297181 
L 213.4344 187.597616 
L 213.13184 184.79185 
L 212.82928 188.908398 
L 212.53168 183.662151 
L 211.62896 187.242016 
L 211.33136 186.956571 
L 211.0288 192.612679 
L 210.7312 192.384255 
L 210.4336 199.306228 
L 210.13104 203.171886 
L 209.83344 205.053228 
L 209.53584 210.218964 
L 209.23824 217.984844 
L 208.94064 217.961695 
L 208.64304 221.165918 
L 208.34544 219.671633 
L 208.04784 224.312778 
L 207.75024 218.256836 
L 207.45264 215.747583 
L 207.15504 214.196278 
L 206.8624 206.931502 
L 206.2672 202.106867 
L 205.97456 204.30753 
L 205.67696 203.873832 
L 205.38432 202.48219 
L 205.09168 204.660046 
L 204.50144 212.801927 
L 204.2088 209.802302 
L 203.61856 226.850819 
L 203.32592 232.130602 
L 203.03328 233.647018 
L 202.15536 240.30603 
L 201.86272 238.173119 
L 201.57008 234.534862 
L 201.2824 229.277221 
L 200.98976 230.736616 
L 200.69712 229.573057 
L 200.40944 229.242007 
L 200.1168 227.348583 
L 199.82416 222.946248 
L 199.53648 223.481912 
L 199.2488 223.675453 
L 198.95616 223.127718 
L 198.66848 227.723258 
L 198.3808 224.951721 
L 197.80048 235.34023 
L 197.5128 232.397631 
L 197.22512 242.558393 
L 196.93744 242.751933 
L 196.36208 252.775515 
L 196.0744 254.896356 
L 195.49904 266.470902 
L 195.21136 265.923173 
L 194.92864 263.185854 
L 194.64096 263.482032 
L 194.35328 261.292106 
L 194.07056 263.10504 
L 193.50016 252.259045 
L 193.21248 249.85244 
L 192.92976 249.042422 
L 192.64208 246.248076 
L 192.35936 246.281964 
L 192.07664 247.695754 
L 191.79392 247.649813 
L 191.22352 255.369763 
L 190.9408 255.837009 
L 190.09264 273.615096 
L 189.80992 271.858533 
L 189.24944 283.227822 
L 188.96672 281.859 
L 188.684 286.203654 
L 188.40624 285.097134 
L 188.12352 286.317053 
L 187.8408 285.404397 
L 187.28032 278.504246 
L 187.00256 280.089104 
L 186.7248 273.120853 
L 186.44208 272.447684 
L 186.16432 269.858625 
L 185.88656 272.492663 
L 185.6088 269.550075 
L 185.32608 272.503424 
L 185.04832 269.868748 
L 184.4928 277.303612 
L 184.21504 276.938361 
L 183.93728 278.876747 
L 183.38176 292.275978 
L 183.10896 294.282795 
L 182.8312 300.178418 
L 182.55344 302.515949 
L 182.27568 309.996749 
L 182.00288 305.788307 
L 181.72512 306.574874 
L 181.45232 304.191095 
L 181.17456 298.979082 
L 180.90176 298.522603 
L 180.624 296.503751 
L 180.3512 296.195526 
L 180.0784 294.03983 
L 179.80064 290.355973 
L 179.52784 294.267281 
L 179.25504 294.24416 
L 178.98224 295.156178 
L 178.70944 294.061067 
L 178.43664 300.652349 
L 178.16384 302.111767 
L 177.89104 310.801411 
L 177.61824 309.854554 
L 176.79984 326.127329 
L 176.52704 325.06643 
L 176.2592 328.407537 
L 175.9864 326.023758 
L 175.7136 327.711258 
L 175.44576 326.775811 
L 175.17296 322.852472 
L 174.90512 316.192145 
L 174.63232 317.446288 
L 173.82384 312.689832 
L 173.556 311.914043 
L 173.28816 314.673538 
L 173.01536 315.220624 
L 172.74752 314.729938 
L 172.47968 321.389651 
L 172.21184 322.199038 
L 171.14048 342.485781 
L 170.87264 341.447696 
L 170.6048 346.191513 
L 170.34192 343.100688 
L 170.07408 341.91435 
L 169.80624 344.673845 
L 169.54336 341.868124 
L 169.27552 341.594117 
L 169.00768 337.716401 
L 168.7448 337.499421 
L 168.47696 335.241093 
L 168.21408 335.229387 
L 167.94624 330.781463 
L 167.68336 331.830343 
L 167.42048 333.517855 
L 167.1576 332.970154 
L 166.88976 333.540054 
L 166.62688 337.713669 
L 166.10112 340.25619 
L 165.57536 348.694653 
L 165.0496 354.156634 
L 164.78672 356.357333 
L 164.52384 359.515979 
L 164.26096 359.960439 
L 163.74016 362.491561 
L 163.47728 359.092824 
L 163.2144 357.347689 
L 162.95648 358.328149 
L 162.6936 353.310024 
L 162.43072 352.00965 
L 162.1728 353.491893 
L 161.90992 349.659799 
L 161.652 351.085021 
L 161.39408 350.366264 
L 161.1312 350.799319 
L 160.87328 352.71492 
L 160.61536 353.250618 
L 160.35248 353.136275 
L 160.09456 355.291363 
L 159.83664 359.670258 
L 159.57872 359.533112 
L 158.54704 373.513409 
L 158.28912 374.927227 
L 158.0312 377.40163 
L 157.52032 380.651225 
L 156.74656 376.989606 
L 156.4936 376.156814 
L 156.23568 377.080253 
L 155.7248 370.522284 
L 155.47184 370.829906 
L 155.21392 368.913714 
L 154.96096 370.532812 
L 154.70304 366.803361 
L 154.45008 368.091739 
L 154.19712 371.877624 
L 153.94416 373.633572 
L 153.68624 372.458649 
L 153.18032 377.418871 
L 152.92736 381.410031 
L 152.6744 382.801047 
L 152.42144 386.700974 
L 152.16848 387.419144 
L 151.91552 392.105957 
L 151.66256 392.037242 
L 151.4096 394.773946 
L 150.90864 395.833957 
L 150.65568 394.85291 
L 150.40272 396.517625 
L 150.15472 391.932875 
L 149.90176 391.932584 
L 149.6488 387.256595 
L 149.4008 390.289813 
L 149.14784 389.742123 
L 148.89984 387.016248 
L 148.64688 389.456445 
L 148.39888 385.111181 
L 148.15088 387.996145 
L 147.89792 385.908897 
L 147.64992 385.292788 
L 147.14896 391.051306 
L 146.90096 392.681814 
L 146.65296 395.817669 
L 146.40496 397.277115 
L 145.41296 408.303784 
L 145.16496 408.565794 
L 144.91696 410.652468 
L 144.66896 410.275847 
L 144.17792 408.690107 
L 143.92992 408.838077 
L 143.68192 405.770077 
L 143.43888 407.446208 
L 143.19088 404.834374 
L 142.94288 403.579634 
L 142.69984 405.050489 
L 142.45184 403.168521 
L 142.2088 403.419133 
L 141.96576 403.293409 
L 141.71776 403.304528 
L 141.47472 404.912234 
L 141.22672 405.265477 
L 140.98368 408.150447 
L 140.74064 407.785235 
L 140.4976 409.769278 
L 140.00656 416.645413 
L 139.76352 417.032875 
L 139.52048 420.70473 
L 139.27744 422.107161 
L 139.0344 421.46825 
L 138.54832 425.356505 
L 138.30528 423.166631 
L 138.06224 422.082958 
L 137.82416 422.01426 
L 137.58112 419.778769 
L 137.33808 420.690822 
L 137.09504 419.972082 
L 136.61392 417.77053 
L 136.37088 417.770251 
L 136.1328 415.54617 
L 135.88976 417.712678 
L 135.65168 415.500001 
L 135.40864 417.141919 
L 135.17056 420.551485 
L 134.93248 420.824911 
L 134.45136 424.633343 
L 134.21328 424.82694 
L 133.97024 426.617112 
L 133.73216 429.274004 
L 133.49408 430.562399 
L 133.256 434.04039 
L 133.01792 433.926075 
L 132.77984 434.199501 
L 132.30368 437.859685 
L 132.0656 435.783858 
L 131.82752 438.24688 
L 131.58944 434.004265 
L 131.35136 432.350391 
L 131.11328 431.620252 
L 130.8752 433.170943 
L 130.63712 428.244079 
L 130.404 429.692138 
L 129.92784 430.64954 
L 129.69472 429.486049 
L 128.75232 435.004574 
L 128.51424 437.969378 
L 128.28112 438.117364 
L 127.80992 441.640704 
L 127.5768 441.822903 
L 127.33872 443.590272 
L 127.1056 443.5786 
L 126.87248 444.262581 
L 126.40624 444.729616 
L 126.16816 444.273177 
L 125.93504 441.74119 
L 125.70192 442.767295 
L 125.4688 444.751349 
L 125.23568 441.227201 
L 125.00256 440.291793 
L 124.54128 440.393901 
L 124.30816 440.062914 
L 124.07504 440.2109 
L 123.84192 439.594809 
L 123.38064 444.076108 
L 123.14752 442.593302 
L 122.68624 447.519362 
L 122.45312 448.134919 
L 122.22496 450.746206 
L 121.99184 451.601249 
L 121.76368 453.334417 
L 121.3024 452.318919 
L 121.06928 452.238823 
L 120.84112 451.691162 
L 120.61296 451.861962 
L 120.37984 449.101892 
L 120.15168 449.991153 
L 119.92352 449.899658 
L 119.69536 448.667749 
L 119.4672 448.952591 
L 119.23904 449.921681 
L 119.00592 447.093186 
L 118.77776 448.974608 
L 118.09328 450.775677 
L 117.64192 453.044584 
L 117.41376 453.39785 
L 116.95744 454.697399 
L 116.50608 457.958466 
L 116.27792 457.559059 
L 115.82656 459.577075 
L 115.3752 460.295018 
L 115.14704 459.348212 
L 114.92384 460.408541 
L 114.69568 460.100368 
L 114.47248 459.233397 
L 114.24432 460.054233 
L 114.02112 457.761744 
L 113.79792 458.331695 
L 113.56976 456.073413 
L 113.34656 456.654768 
L 113.12336 456.278175 
L 112.4488 458.09066 
L 112.2256 459.493113 
L 112.0024 459.937619 
L 111.1096 463.369242 
L 110.8864 463.254944 
L 110.44 465.580877 
L 110.22176 464.862166 
L 109.99856 466.435681 
L 109.77536 466.560871 
L 109.55216 467.6212 
L 109.11072 466.286409 
L 108.88752 466.844956 
L 108.44608 465.806672 
L 108.22784 467.15211 
L 108.00464 465.258766 
L 107.7864 464.847967 
L 107.5632 465.25826 
L 107.12176 464.664738 
L 106.90352 463.706539 
L 106.68528 465.702014 
L 106.24384 464.811984 
L 106.0256 466.191635 
L 105.80736 466.020322 
L 105.36592 468.015541 
L 105.14768 468.209161 
L 104.7112 471.607095 
L 104.49296 470.261156 
L 104.27472 471.937314 
L 103.83824 472.267534 
L 103.62 472.563791 
L 103.40176 471.788059 
L 103.18352 472.722948 
L 102.97024 471.855988 
L 102.752 472.35752 
L 102.53376 471.718638 
L 102.31552 471.638558 
L 101.66576 470.691269 
L 101.45248 470.896299 
L 101.23424 470.063546 
L 101.02096 470.47385 
L 100.58944 472.115552 
L 100.3712 470.26783 
L 100.15792 470.80358 
L 99.94464 472.023578 
L 99.51312 472.171337 
L 99.0816 473.413894 
L 98.86832 474.668105 
L 98.65504 473.789741 
L 98.44176 475.602755 
L 98.22848 475.60251 
L 98.01024 475.203115 
L 97.79696 476.776642 
L 97.58368 476.263211 
L 97.3704 477.038448 
L 97.15712 477.27769 
L 96.94384 477.094979 
L 96.73056 477.071926 
L 96.51728 477.185723 
L 96.30896 476.318769 
L 96.09568 478.017741 
L 95.66912 476.44348 
L 95.24752 477.492177 
L 95.03424 476.180456 
L 94.82096 476.830247 
L 94.61264 475.974698 
L 94.39936 476.373598 
L 94.18608 475.871571 
L 93.97776 476.122223 
L 93.76448 477.000097 
L 93.55616 476.771775 
L 92.92624 478.048316 
L 92.71296 478.162113 
L 92.50464 478.549615 
L 92.29632 478.583588 
L 92.08304 479.164955 
L 91.87472 479.36999 
L 91.6664 480.179446 
L 91.45808 479.848486 
L 91.03648 480.977013 
L 90.61984 480.486156 
L 90.41152 481.546503 
L 89.99488 480.417014 
L 89.78656 481.135236 
L 89.57824 480.222666 
L 89.36992 480.382085 
L 89.1616 480.290613 
L 88.95328 479.799995 
L 88.5416 480.757471 
L 88.33328 480.882678 
L 87.91664 480.403225 
L 87.71328 480.56265 
L 87.50496 480.573815 
L 86.6816 481.747497 
L 86.47328 481.473559 
L 85.64992 483.080598 
L 85.44656 483.969888 
L 85.2432 482.943281 
L 85.03488 483.558866 
L 84.83152 483.752503 
L 84.62816 483.581208 
L 84.21648 484.048305 
L 83.80976 483.568864 
L 83.6064 484.275688 
L 83.40304 483.773672 
L 83.19968 483.910289 
L 82.99632 484.229371 
L 82.5896 483.305169 
L 82.38624 483.145277 
L 82.18288 483.624018 
L 81.97952 483.372894 
L 81.77616 483.771805 
L 81.3744 484.09066 
L 81.17104 483.406178 
L 80.96768 484.512147 
L 80.76432 484.249618 
L 80.56592 483.302847 
L 80.1592 484.397178 
L 79.75744 484.841478 
L 79.55408 484.886861 
L 79.35568 485.148929 
L 79.15232 485.912773 
L 78.95392 485.844121 
L 78.75056 485.570188 
L 78.35376 486.265385 
L 78.1504 485.808986 
L 77.952 486.162287 
L 77.55024 485.580215 
L 77.35184 485.910707 
L 76.75168 485.55649 
L 76.35488 485.499014 
L 76.15648 485.863719 
L 75.95808 485.418729 
L 75.75968 486.308025 
L 75.56128 486.170948 
L 75.36288 486.216337 
L 75.16448 485.953814 
L 74.96608 486.729068 
L 74.76768 486.272674 
L 74.56928 486.477721 
L 74.37088 487.218763 
L 74.17744 486.8308 
L 73.97904 486.864785 
L 73.58224 487.309091 
L 73.3888 487.126403 
L 73.1904 487.228812 
L 72.40176 487.079653 
L 72.00992 486.680059 
L 72.00992 486.680059 
" clip-path="url(#pefc361f045)" style="fill: none; stroke-dasharray: 3.7,1.6; stroke-dashoffset: 0; stroke: #1fa187"/>
   </g>
   <g id="line2d_15">
    <path d="M 72.00992 477.462482 
L 76.481723 475.831795 
L 80.953526 473.93979 
L 85.425328 471.754977 
L 89.002771 469.773981 
L 92.580213 467.566528 
L 96.157655 465.114323 
L 99.735097 462.398685 
L 103.31254 459.400712 
L 106.889982 456.101463 
L 110.467424 452.482164 
L 114.044866 448.524444 
L 117.622309 444.210589 
L 121.199751 439.523819 
L 124.777193 434.448578 
L 128.354635 428.970856 
L 131.932078 423.078502 
L 135.50952 416.761566 
L 139.086962 410.012635 
L 142.664404 402.827166 
L 146.241847 395.203822 
L 149.819289 387.144784 
L 154.291092 376.46782 
L 158.762894 365.140538 
L 163.234697 353.194409 
L 167.7065 340.672155 
L 173.072663 324.962308 
L 179.333187 305.84176 
L 186.488072 283.225245 
L 207.952725 214.734057 
L 213.318889 198.591958 
L 217.790691 185.783168 
L 222.262494 173.702932 
L 225.839937 164.65181 
L 229.417379 156.21589 
L 232.994821 148.456685 
L 235.677903 143.116189 
L 238.360984 138.21145 
L 241.044066 133.763461 
L 243.727148 129.791434 
L 246.410229 126.31267 
L 248.198951 124.275153 
L 249.987672 122.467684 
L 251.776393 120.89382 
L 253.565114 119.556668 
L 255.353835 118.458874 
L 257.142556 117.602616 
L 258.931277 116.989594 
L 260.719998 116.621028 
L 262.50872 116.497653 
L 264.297441 116.619714 
L 266.086162 116.986968 
L 267.874883 117.598683 
L 269.663604 118.453643 
L 271.452325 119.550148 
L 273.241046 120.886025 
L 275.029767 122.458628 
L 276.818488 124.264855 
L 278.60721 126.301151 
L 281.290291 129.778125 
L 283.973373 133.748419 
L 286.656455 138.194742 
L 289.339536 143.097886 
L 292.022618 148.436866 
L 294.7057 154.189072 
L 298.283142 162.459666 
L 301.860584 171.361336 
L 305.438026 180.83012 
L 309.909829 193.362007 
L 314.381632 206.542032 
L 319.747795 223.022163 
L 326.90268 245.738934 
L 345.684252 305.811947 
L 351.944776 324.933653 
L 357.310939 340.644743 
L 362.677102 355.605275 
L 367.148905 367.431988 
L 371.620708 378.632749 
L 376.092511 389.178253 
L 380.564314 399.04976 
L 384.141756 406.455385 
L 387.719198 413.423379 
L 391.29664 419.956715 
L 394.874083 426.061404 
L 398.451525 431.746164 
L 402.028967 437.02208 
L 405.606409 441.902271 
L 409.183852 446.401555 
L 412.761294 450.536133 
L 416.338736 454.323287 
L 419.916178 457.781092 
L 423.493621 460.928148 
L 427.071063 463.783339 
L 430.648505 466.365613 
L 434.225947 468.693783 
L 437.803389 470.786357 
L 441.380832 472.661387 
L 445.852635 474.725811 
L 450.324437 476.510186 
L 454.79624 478.045221 
L 459.268043 479.35956 
L 464.634206 480.682571 
L 470.00037 481.767338 
L 476.260894 482.780894 
L 482.521418 483.571536 
L 489.676302 484.25767 
L 497.725547 484.815822 
L 507.563513 485.274612 
L 518.29584 485.584496 
L 518.29584 485.584496 
" clip-path="url(#pefc361f045)" style="fill: none; stroke-dasharray: 3.7,1.6; stroke-dashoffset: 0; stroke: #46327e"/>
   </g>
   <g id="patch_3">
    <path d="M 72 506.4 
L 72 86.4 
" style="fill: none; stroke: #000000; stroke-width: 0.8; stroke-linejoin: miter; stroke-linecap: square"/>
   </g>
   <g id="patch_4">
    <path d="M 518.4 506.4 
L 518.4 86.4 
" style="fill: none; stroke: #000000; stroke-width: 0.8; stroke-linejoin: miter; stroke-linecap: square"/>
   </g>
   <g id="patch_5">
    <path d="M 72 506.4 
L 518.4 506.4 
" style="fill: none; stroke: #000000; stroke-width: 0.8; stroke-linejoin: miter; stroke-linecap: square"/>
   </g>
   <g id="patch_6">
    <path d="M 72 86.4 
L 518.4 86.4 
" style="fill: none; stroke: #000000; stroke-width: 0.8; stroke-linejoin: miter; stroke-linecap: square"/>
   </g>
   <g id="legend_1">
    <g id="patch_7">
     <path d="M 360.178125 123.75625 
L 511.4 123.75625 
Q 513.4 123.75625 513.4 121.75625 
L 513.4 93.4 
Q 513.4 91.4 511.4 91.4 
L 360.178125 91.4 
Q 358.178125 91.4 358.178125 93.4 
L 358.178125 121.75625 
Q 358.178125 123.75625 360.178125 123.75625 
z
" style="fill: #ffffff; opacity: 0.8; stroke: #cccccc; stroke-linejoin: miter"/>
    </g>
    <g id="line2d_16">
     <path d="M 362.178125 99.498437 
L 372.178125 99.498437 
L 382.178125 99.498437 
" style="fill: none; stroke-dasharray: 3.7,1.6; stroke-dashoffset: 0; stroke: #1fa187"/>
    </g>
    <g id="text_10">
     <!-- Baseline-corrected data -->
     <g transform="translate(390.178125 102.998437) scale(0.1 -0.1)">
      <defs>
       <path id="DejaVuSans-42" d="M 1259 2228 
L 1259 519 
L 2272 519 
Q 2781 519 3026 730 
Q 3272 941 3272 1375 
Q 3272 1813 3026 2020 
Q 2781 2228 2272 2228 
L 1259 2228 
z
M 1259 4147 
L 1259 2741 
L 2194 2741 
Q 2656 2741 2882 2914 
Q 3109 3088 3109 3444 
Q 3109 3797 2882 3972 
Q 2656 4147 2194 4147 
L 1259 4147 
z
M 628 4666 
L 2241 4666 
Q 2963 4666 3353 4366 
Q 3744 4066 3744 3513 
Q 3744 3084 3544 2831 
Q 3344 2578 2956 2516 
Q 3422 2416 3680 2098 
Q 3938 1781 3938 1306 
Q 3938 681 3513 340 
Q 3088 0 2303 0 
L 628 0 
L 628 4666 
z
" transform="scale(0.015625)"/>
       <path id="DejaVuSans-6c" d="M 603 4863 
L 1178 4863 
L 1178 0 
L 603 0 
L 603 4863 
z
" transform="scale(0.015625)"/>
       <path id="DejaVuSans-2d" d="M 313 2009 
L 1997 2009 
L 1997 1497 
L 313 1497 
L 313 2009 
z
" transform="scale(0.015625)"/>
       <path id="DejaVuSans-63" d="M 3122 3366 
L 3122 2828 
Q 2878 2963 2633 3030 
Q 2388 3097 2138 3097 
Q 1578 3097 1268 2742 
Q 959 2388 959 1747 
Q 959 1106 1268 751 
Q 1578 397 2138 397 
Q 2388 397 2633 464 
Q 2878 531 3122 666 
L 3122 134 
Q 2881 22 2623 -34 
Q 2366 -91 2075 -91 
Q 1284 -91 818 406 
Q 353 903 353 1747 
Q 353 2603 823 3093 
Q 1294 3584 2113 3584 
Q 2378 3584 2631 3529 
Q 2884 3475 3122 3366 
z
" transform="scale(0.015625)"/>
       <path id="DejaVuSans-6f" d="M 1959 3097 
Q 1497 3097 1228 2736 
Q 959 2375 959 1747 
Q 959 1119 1226 758 
Q 1494 397 1959 397 
Q 2419 397 2687 759 
Q 2956 1122 2956 1747 
Q 2956 2369 2687 2733 
Q 2419 3097 1959 3097 
z
M 1959 3584 
Q 2709 3584 3137 3096 
Q 3566 2609 3566 1747 
Q 3566 888 3137 398 
Q 2709 -91 1959 -91 
Q 1206 -91 779 398 
Q 353 888 353 1747 
Q 353 2609 779 3096 
Q 1206 3584 1959 3584 
z
" transform="scale(0.015625)"/>
       <path id="DejaVuSans-72" d="M 2631 2963 
Q 2534 3019 2420 3045 
Q 2306 3072 2169 3072 
Q 1681 3072 1420 2755 
Q 1159 2438 1159 1844 
L 1159 0 
L 581 0 
L 581 3500 
L 1159 3500 
L 1159 2956 
Q 1341 3275 1631 3429 
Q 1922 3584 2338 3584 
Q 2397 3584 2469 3576 
Q 2541 3569 2628 3553 
L 2631 2963 
z
" transform="scale(0.015625)"/>
       <path id="DejaVuSans-64" d="M 2906 2969 
L 2906 4863 
L 3481 4863 
L 3481 0 
L 2906 0 
L 2906 525 
Q 2725 213 2448 61 
Q 2172 -91 1784 -91 
Q 1150 -91 751 415 
Q 353 922 353 1747 
Q 353 2572 751 3078 
Q 1150 3584 1784 3584 
Q 2172 3584 2448 3432 
Q 2725 3281 2906 2969 
z
M 947 1747 
Q 947 1113 1208 752 
Q 1469 391 1925 391 
Q 2381 391 2643 752 
Q 2906 1113 2906 1747 
Q 2906 2381 2643 2742 
Q 2381 3103 1925 3103 
Q 1469 3103 1208 2742 
Q 947 2381 947 1747 
z
" transform="scale(0.015625)"/>
      </defs>
      <use xlink:href="#DejaVuSans-42"/>
      <use xlink:href="#DejaVuSans-61" transform="translate(68.603516 0)"/>
      <use xlink:href="#DejaVuSans-73" transform="translate(129.882812 0)"/>
      <use xlink:href="#DejaVuSans-65" transform="translate(181.982422 0)"/>
      <use xlink:href="#DejaVuSans-6c" transform="translate(243.505859 0)"/>
      <use xlink:href="#DejaVuSans-69" transform="translate(271.289062 0)"/>
      <use xlink:href="#DejaVuSans-6e" transform="translate(299.072266 0)"/>
      <use xlink:href="#DejaVuSans-65" transform="translate(362.451172 0)"/>
      <use xlink:href="#DejaVuSans-2d" transform="translate(423.974609 0)"/>
      <use xlink:href="#DejaVuSans-63" transform="translate(460.058594 0)"/>
      <use xlink:href="#DejaVuSans-6f" transform="translate(515.039062 0)"/>
      <use xlink:href="#DejaVuSans-72" transform="translate(576.220703 0)"/>
      <use xlink:href="#DejaVuSans-72" transform="translate(615.583984 0)"/>
      <use xlink:href="#DejaVuSans-65" transform="translate(654.447266 0)"/>
      <use xlink:href="#DejaVuSans-63" transform="translate(715.970703 0)"/>
      <use xlink:href="#DejaVuSans-74" transform="translate(770.951172 0)"/>
      <use xlink:href="#DejaVuSans-65" transform="translate(810.160156 0)"/>
      <use xlink:href="#DejaVuSans-64" transform="translate(871.683594 0)"/>
      <use xlink:href="#DejaVuSans-20" transform="translate(935.160156 0)"/>
      <use xlink:href="#DejaVuSans-64" transform="translate(966.947266 0)"/>
      <use xlink:href="#DejaVuSans-61" transform="translate(1030.423828 0)"/>
      <use xlink:href="#DejaVuSans-74" transform="translate(1091.703125 0)"/>
      <use xlink:href="#DejaVuSans-61" transform="translate(1130.912109 0)"/>
     </g>
    </g>
    <g id="line2d_17">
     <path d="M 362.178125 114.176562 
L 372.178125 114.176562 
L 382.178125 114.176562 
" style="fill: none; stroke-dasharray: 3.7,1.6; stroke-dashoffset: 0; stroke: #46327e"/>
    </g>
    <g id="text_11">
     <!-- Gaussian fit -->
     <g transform="translate(390.178125 117.676562) scale(0.1 -0.1)">
      <defs>
       <path id="DejaVuSans-47" d="M 3809 666 
L 3809 1919 
L 2778 1919 
L 2778 2438 
L 4434 2438 
L 4434 434 
Q 4069 175 3628 42 
Q 3188 -91 2688 -91 
Q 1594 -91 976 548 
Q 359 1188 359 2328 
Q 359 3472 976 4111 
Q 1594 4750 2688 4750 
Q 3144 4750 3555 4637 
Q 3966 4525 4313 4306 
L 4313 3634 
Q 3963 3931 3569 4081 
Q 3175 4231 2741 4231 
Q 1884 4231 1454 3753 
Q 1025 3275 1025 2328 
Q 1025 1384 1454 906 
Q 1884 428 2741 428 
Q 3075 428 3337 486 
Q 3600 544 3809 666 
z
" transform="scale(0.015625)"/>
       <path id="DejaVuSans-66" d="M 2375 4863 
L 2375 4384 
L 1825 4384 
Q 1516 4384 1395 4259 
Q 1275 4134 1275 3809 
L 1275 3500 
L 2222 3500 
L 2222 3053 
L 1275 3053 
L 1275 0 
L 697 0 
L 697 3053 
L 147 3053 
L 147 3500 
L 697 3500 
L 697 3744 
Q 697 4328 969 4595 
Q 1241 4863 1831 4863 
L 2375 4863 
z
" transform="scale(0.015625)"/>
      </defs>
      <use xlink:href="#DejaVuSans-47"/>
      <use xlink:href="#DejaVuSans-61" transform="translate(77.490234 0)"/>
      <use xlink:href="#DejaVuSans-75" transform="translate(138.769531 0)"/>
      <use xlink:href="#DejaVuSans-73" transform="translate(202.148438 0)"/>
      <use xlink:href="#DejaVuSans-73" transform="translate(254.248047 0)"/>
      <use xlink:href="#DejaVuSans-69" transform="translate(306.347656 0)"/>
      <use xlink:href="#DejaVuSans-61" transform="translate(334.130859 0)"/>
      <use xlink:href="#DejaVuSans-6e" transform="translate(395.410156 0)"/>
      <use xlink:href="#DejaVuSans-20" transform="translate(458.789062 0)"/>
      <use xlink:href="#DejaVuSans-66" transform="translate(490.576172 0)"/>
      <use xlink:href="#DejaVuSans-69" transform="translate(525.78125 0)"/>
      <use xlink:href="#DejaVuSans-74" transform="translate(553.564453 0)"/>
     </g>
    </g>
   </g>
  </g>
  <g id="axes_2">
   <g id="patch_8">
    <path d="M 72 640.8 
L 518.4 640.8 
L 518.4 556.8 
L 72 556.8 
z
" style="fill: #ffffff"/>
   </g>
   <g id="matplotlib.axis_3">
    <g id="xtick_6">
     <g id="line2d_18">
      <g>
       <use xlink:href="#md5e181d8bf" x="72" y="640.8" style="stroke: #000000; stroke-width: 0.8"/>
      </g>
     </g>
     <g id="text_12">
      <!-- 1.2 -->
      <g transform="translate(64.048438 655.398437) scale(0.1 -0.1)">
       <use xlink:href="#DejaVuSans-31"/>
       <use xlink:href="#DejaVuSans-2e" transform="translate(63.623047 0)"/>
       <use xlink:href="#DejaVuSans-32" transform="translate(95.410156 0)"/>
      </g>
     </g>
    </g>
    <g id="xtick_7">
     <g id="line2d_19">
      <g>
       <use xlink:href="#md5e181d8bf" x="171.2" y="640.8" style="stroke: #000000; stroke-width: 0.8"/>
      </g>
     </g>
     <g id="text_13">
      <!-- 1.4 -->
      <g transform="translate(163.248437 655.398437) scale(0.1 -0.1)">
       <defs>
        <path id="DejaVuSans-34" d="M 2419 4116 
L 825 1625 
L 2419 1625 
L 2419 4116 
z
M 2253 4666 
L 3047 4666 
L 3047 1625 
L 3713 1625 
L 3713 1100 
L 3047 1100 
L 3047 0 
L 2419 0 
L 2419 1100 
L 313 1100 
L 313 1709 
L 2253 4666 
z
" transform="scale(0.015625)"/>
       </defs>
       <use xlink:href="#DejaVuSans-31"/>
       <use xlink:href="#DejaVuSans-2e" transform="translate(63.623047 0)"/>
       <use xlink:href="#DejaVuSans-34" transform="translate(95.410156 0)"/>
      </g>
     </g>
    </g>
    <g id="xtick_8">
     <g id="line2d_20">
      <g>
       <use xlink:href="#md5e181d8bf" x="270.4" y="640.8" style="stroke: #000000; stroke-width: 0.8"/>
      </g>
     </g>
     <g id="text_14">
      <!-- 1.6 -->
      <g transform="translate(262.448438 655.398437) scale(0.1 -0.1)">
       <defs>
        <path id="DejaVuSans-36" d="M 2113 2584 
Q 1688 2584 1439 2293 
Q 1191 2003 1191 1497 
Q 1191 994 1439 701 
Q 1688 409 2113 409 
Q 2538 409 2786 701 
Q 3034 994 3034 1497 
Q 3034 2003 2786 2293 
Q 2538 2584 2113 2584 
z
M 3366 4563 
L 3366 3988 
Q 3128 4100 2886 4159 
Q 2644 4219 2406 4219 
Q 1781 4219 1451 3797 
Q 1122 3375 1075 2522 
Q 1259 2794 1537 2939 
Q 1816 3084 2150 3084 
Q 2853 3084 3261 2657 
Q 3669 2231 3669 1497 
Q 3669 778 3244 343 
Q 2819 -91 2113 -91 
Q 1303 -91 875 529 
Q 447 1150 447 2328 
Q 447 3434 972 4092 
Q 1497 4750 2381 4750 
Q 2619 4750 2861 4703 
Q 3103 4656 3366 4563 
z
" transform="scale(0.015625)"/>
       </defs>
       <use xlink:href="#DejaVuSans-31"/>
       <use xlink:href="#DejaVuSans-2e" transform="translate(63.623047 0)"/>
       <use xlink:href="#DejaVuSans-36" transform="translate(95.410156 0)"/>
      </g>
     </g>
    </g>
    <g id="xtick_9">
     <g id="line2d_21">
      <g>
       <use xlink:href="#md5e181d8bf" x="369.6" y="640.8" style="stroke: #000000; stroke-width: 0.8"/>
      </g>
     </g>
     <g id="text_15">
      <!-- 1.8 -->
      <g transform="translate(361.648438 655.398437) scale(0.1 -0.1)">
       <defs>
        <path id="DejaVuSans-38" d="M 2034 2216 
Q 1584 2216 1326 1975 
Q 1069 1734 1069 1313 
Q 1069 891 1326 650 
Q 1584 409 2034 409 
Q 2484 409 2743 651 
Q 3003 894 3003 1313 
Q 3003 1734 2745 1975 
Q 2488 2216 2034 2216 
z
M 1403 2484 
Q 997 2584 770 2862 
Q 544 3141 544 3541 
Q 544 4100 942 4425 
Q 1341 4750 2034 4750 
Q 2731 4750 3128 4425 
Q 3525 4100 3525 3541 
Q 3525 3141 3298 2862 
Q 3072 2584 2669 2484 
Q 3125 2378 3379 2068 
Q 3634 1759 3634 1313 
Q 3634 634 3220 271 
Q 2806 -91 2034 -91 
Q 1263 -91 848 271 
Q 434 634 434 1313 
Q 434 1759 690 2068 
Q 947 2378 1403 2484 
z
M 1172 3481 
Q 1172 3119 1398 2916 
Q 1625 2713 2034 2713 
Q 2441 2713 2670 2916 
Q 2900 3119 2900 3481 
Q 2900 3844 2670 4047 
Q 2441 4250 2034 4250 
Q 1625 4250 1398 4047 
Q 1172 3844 1172 3481 
z
" transform="scale(0.015625)"/>
       </defs>
       <use xlink:href="#DejaVuSans-31"/>
       <use xlink:href="#DejaVuSans-2e" transform="translate(63.623047 0)"/>
       <use xlink:href="#DejaVuSans-38" transform="translate(95.410156 0)"/>
      </g>
     </g>
    </g>
    <g id="xtick_10">
     <g id="line2d_22">
      <g>
       <use xlink:href="#md5e181d8bf" x="468.8" y="640.8" style="stroke: #000000; stroke-width: 0.8"/>
      </g>
     </g>
     <g id="text_16">
      <!-- 2.0 -->
      <g transform="translate(460.848437 655.398437) scale(0.1 -0.1)">
       <use xlink:href="#DejaVuSans-32"/>
       <use xlink:href="#DejaVuSans-2e" transform="translate(63.623047 0)"/>
       <use xlink:href="#DejaVuSans-30" transform="translate(95.410156 0)"/>
      </g>
     </g>
    </g>
   </g>
   <g id="matplotlib.axis_4">
    <g id="ytick_9">
     <g id="line2d_23">
      <g>
       <use xlink:href="#m0d42a67dce" x="72" y="622.8" style="stroke: #000000; stroke-width: 0.8"/>
      </g>
     </g>
     <g id="text_17">
      <!-- −20 -->
      <g transform="translate(43.895313 626.599219) scale(0.1 -0.1)">
       <defs>
        <path id="DejaVuSans-2212" d="M 678 2272 
L 4684 2272 
L 4684 1741 
L 678 1741 
L 678 2272 
z
" transform="scale(0.015625)"/>
       </defs>
       <use xlink:href="#DejaVuSans-2212"/>
       <use xlink:href="#DejaVuSans-32" transform="translate(83.789062 0)"/>
       <use xlink:href="#DejaVuSans-30" transform="translate(147.412109 0)"/>
      </g>
     </g>
    </g>
    <g id="ytick_10">
     <g id="line2d_24">
      <g>
       <use xlink:href="#m0d42a67dce" x="72" y="598.8" style="stroke: #000000; stroke-width: 0.8"/>
      </g>
     </g>
     <g id="text_18">
      <!-- 0 -->
      <g transform="translate(58.6375 602.599219) scale(0.1 -0.1)">
       <use xlink:href="#DejaVuSans-30"/>
      </g>
     </g>
    </g>
    <g id="ytick_11">
     <g id="line2d_25">
      <g>
       <use xlink:href="#m0d42a67dce" x="72" y="574.8" style="stroke: #000000; stroke-width: 0.8"/>
      </g>
     </g>
     <g id="text_19">
      <!-- 20 -->
      <g transform="translate(52.275 578.599219) scale(0.1 -0.1)">
       <use xlink:href="#DejaVuSans-32"/>
       <use xlink:href="#DejaVuSans-30" transform="translate(63.623047 0)"/>
      </g>
     </g>
    </g>
    <g id="text_20">
     <!-- Residuals -->
     <g transform="translate(37.815625 622.520312) rotate(-90) scale(0.1 -0.1)">
      <defs>
       <path id="DejaVuSans-52" d="M 2841 2188 
Q 3044 2119 3236 1894 
Q 3428 1669 3622 1275 
L 4263 0 
L 3584 0 
L 2988 1197 
Q 2756 1666 2539 1819 
Q 2322 1972 1947 1972 
L 1259 1972 
L 1259 0 
L 628 0 
L 628 4666 
L 2053 4666 
Q 2853 4666 3247 4331 
Q 3641 3997 3641 3322 
Q 3641 2881 3436 2590 
Q 3231 2300 2841 2188 
z
M 1259 4147 
L 1259 2491 
L 2053 2491 
Q 2509 2491 2742 2702 
Q 2975 2913 2975 3322 
Q 2975 3731 2742 3939 
Q 2509 4147 2053 4147 
L 1259 4147 
z
" transform="scale(0.015625)"/>
      </defs>
      <use xlink:href="#DejaVuSans-52"/>
      <use xlink:href="#DejaVuSans-65" transform="translate(64.982422 0)"/>
      <use xlink:href="#DejaVuSans-73" transform="translate(126.505859 0)"/>
      <use xlink:href="#DejaVuSans-69" transform="translate(178.605469 0)"/>
      <use xlink:href="#DejaVuSans-64" transform="translate(206.388672 0)"/>
      <use xlink:href="#DejaVuSans-75" transform="translate(269.865234 0)"/>
      <use xlink:href="#DejaVuSans-61" transform="translate(333.244141 0)"/>
      <use xlink:href="#DejaVuSans-6c" transform="translate(394.523438 0)"/>
      <use xlink:href="#DejaVuSans-73" transform="translate(422.306641 0)"/>
     </g>
    </g>
   </g>
   <g id="line2d_26">
    <path d="M 518.29584 623.27176 
L 517.68576 618.206084 
L 517.07568 617.73562 
L 516.4656 622.212347 
L 515.85552 615.541972 
L 515.24544 614.226725 
L 514.63536 616.20933 
L 514.03024 613.687478 
L 513.42016 619.475889 
L 512.81504 612.509028 
L 512.20992 617.466738 
L 511.6048 617.265421 
L 510.99968 608.032256 
L 510.39952 613.008022 
L 509.7944 614.649555 
L 509.19424 611.851131 
L 508.58912 607.289298 
L 507.98896 614.132658 
L 507.3888 612.531606 
L 506.7936 608.178317 
L 506.19344 612.541298 
L 505.59328 603.746927 
L 504.99808 613.13684 
L 504.40288 599.322447 
L 503.80768 603.586737 
L 503.21248 601.527792 
L 502.61728 604.853771 
L 502.02208 602.72073 
L 501.43184 604.268919 
L 500.83664 603.238688 
L 500.2464 601.617488 
L 499.65616 598.321975 
L 499.06592 597.929671 
L 498.47568 595.637956 
L 497.88544 604.41957 
L 497.30016 601.416482 
L 496.70992 597.475185 
L 496.12464 604.188217 
L 495.53936 592.73711 
L 494.95408 601.881179 
L 494.3688 596.119234 
L 493.78352 602.412782 
L 493.2032 601.358237 
L 492.61792 597.8456 
L 492.0376 599.159965 
L 491.45728 599.536436 
L 490.87696 597.914187 
L 490.29664 602.356777 
L 489.71632 600.078937 
L 489.136 595.571275 
L 488.56064 595.353143 
L 487.98528 595.897836 
L 487.40496 595.337531 
L 486.8296 591.982873 
L 486.25424 592.134058 
L 485.67888 592.999987 
L 485.10848 594.635516 
L 484.53312 594.348448 
L 483.96272 585.149729 
L 483.38736 589.798457 
L 482.81696 591.518242 
L 482.24656 594.676424 
L 481.67616 592.278593 
L 481.11072 592.656722 
L 480.54032 594.692464 
L 479.96992 595.057734 
L 479.40448 588.600205 
L 478.83904 587.765027 
L 478.2736 593.761817 
L 477.70816 589.660904 
L 477.14272 590.19102 
L 476.57728 591.223669 
L 476.01184 588.761857 
L 475.45136 588.332217 
L 474.89088 590.350996 
L 474.32544 590.8322 
L 473.76496 587.319845 
L 473.20448 590.049338 
L 472.64896 585.132612 
L 472.08848 589.738371 
L 471.528 586.004357 
L 470.97248 586.883271 
L 470.41696 588.759826 
L 469.85648 587.753721 
L 469.30096 583.832955 
L 468.74544 585.596602 
L 468.19488 585.408024 
L 467.63936 581.216302 
L 467.08384 581.642939 
L 466.53328 584.496049 
L 465.98272 582.379437 
L 465.43216 582.30318 
L 464.8816 584.532841 
L 464.33104 585.34437 
L 463.78048 585.058995 
L 463.22992 586.034924 
L 462.68432 586.568578 
L 462.13376 583.997873 
L 461.58816 584.621208 
L 461.04256 582.716929 
L 460.49696 587.243874 
L 459.95136 584.421499 
L 459.40576 584.218778 
L 458.86016 585.020724 
L 458.31952 580.93351 
L 457.77392 584.33847 
L 457.23328 584.669485 
L 456.69264 582.363835 
L 456.152 584.977516 
L 455.61136 582.329841 
L 455.07072 578.793534 
L 454.53008 580.816134 
L 453.9944 585.976941 
L 453.45376 582.37857 
L 452.91808 584.552967 
L 452.3824 580.97822 
L 451.84672 583.749788 
L 451.31104 580.62485 
L 450.77536 583.874412 
L 450.23968 578.80578 
L 449.70896 584.123577 
L 449.17328 582.438692 
L 448.64256 578.660118 
L 448.11184 582.026818 
L 447.57616 580.259203 
L 447.04544 582.320713 
L 446.51472 578.943661 
L 445.98896 579.772291 
L 445.45824 582.198533 
L 444.93248 581.994206 
L 444.40176 581.111318 
L 443.876 579.185165 
L 443.35024 578.658017 
L 442.82448 580.10206 
L 442.29872 577.891514 
L 441.77296 579.308341 
L 441.2472 582.042216 
L 440.72144 577.215736 
L 440.20064 582.614381 
L 439.67984 580.273632 
L 439.15408 580.156437 
L 438.63328 581.380735 
L 438.11248 581.175357 
L 437.59168 578.53337 
L 437.07584 578.344703 
L 436.55504 580.175002 
L 436.03424 578.262621 
L 435.5184 579.322047 
L 435.00256 581.125835 
L 434.48176 579.763829 
L 433.96592 580.455025 
L 433.45008 578.929849 
L 432.93424 579.644363 
L 432.42336 578.739001 
L 431.90752 580.771612 
L 431.39664 579.665939 
L 430.8808 578.25577 
L 430.36992 580.357108 
L 429.85904 579.440112 
L 429.34816 581.748304 
L 428.3264 578.56271 
L 427.81552 578.987694 
L 427.30464 576.444023 
L 426.79872 578.872886 
L 426.28784 578.762758 
L 425.78192 580.67935 
L 425.276 579.676265 
L 424.77008 579.17467 
L 424.26416 577.502824 
L 423.75824 580.988741 
L 423.25232 579.790644 
L 422.75136 577.199794 
L 422.24544 575.328615 
L 421.74448 575.405254 
L 421.24352 578.329735 
L 420.23664 579.649439 
L 419.73568 579.694703 
L 419.23472 582.233962 
L 418.73872 579.977855 
L 418.23776 580.15349 
L 417.74176 578.418902 
L 417.2408 579.555094 
L 416.7448 580.400262 
L 416.2488 579.130841 
L 415.74784 576.868775 
L 415.25184 578.314193 
L 414.7608 582.514359 
L 414.2648 579.821774 
L 413.7688 578.889308 
L 413.27776 577.538688 
L 412.78176 582.648489 
L 412.29072 579.200925 
L 411.79968 579.422468 
L 411.30368 579.812748 
L 410.81264 581.618024 
L 410.3216 580.466459 
L 409.83552 582.603168 
L 409.34448 579.567619 
L 408.36736 582.40609 
L 407.87632 578.597974 
L 407.39024 581.029639 
L 406.90416 580.52647 
L 406.41808 575.726261 
L 405.932 577.94992 
L 405.44592 579.422458 
L 404.95984 578.305887 
L 404.47872 581.285308 
L 403.99264 580.591361 
L 403.51152 582.489028 
L 403.02544 578.197721 
L 402.54432 580.552192 
L 402.0632 579.954609 
L 401.58208 580.705282 
L 401.10096 581.114144 
L 400.61984 582.211008 
L 400.13872 582.164096 
L 399.66256 584.417771 
L 399.18144 580.441987 
L 398.70528 581.180623 
L 398.22416 579.314837 
L 397.748 579.763814 
L 397.27184 579.687691 
L 396.79568 582.088672 
L 396.31952 578.356344 
L 395.3672 584.08718 
L 394.896 579.441377 
L 394.41984 584.107985 
L 393.94864 583.482419 
L 393.47744 582.014875 
L 393.00128 582.058199 
L 392.53008 582.691913 
L 392.05888 581.384654 
L 391.58768 585.265166 
L 391.11648 580.911619 
L 390.65024 578.891892 
L 389.7128 583.13919 
L 389.2416 581.677895 
L 388.77536 582.320844 
L 388.30912 581.480482 
L 387.84288 581.564279 
L 387.37664 581.88164 
L 386.9104 581.803165 
L 386.44416 580.374199 
L 385.97792 581.340074 
L 385.51168 581.587805 
L 385.0504 579.910118 
L 384.58416 582.682233 
L 384.12288 581.55377 
L 383.6616 584.375177 
L 383.20032 581.891134 
L 382.73904 580.828374 
L 382.27776 581.850344 
L 381.81648 583.511758 
L 380.89392 582.499963 
L 380.4376 581.17894 
L 379.97632 585.544002 
L 379.52 584.25172 
L 379.06368 586.531162 
L 378.60736 586.096632 
L 378.14608 586.689811 
L 377.68976 582.625928 
L 377.2384 586.626951 
L 376.78208 585.091949 
L 376.32576 584.691701 
L 375.86944 585.875571 
L 375.41808 585.942948 
L 374.96176 582.779614 
L 374.5104 584.399473 
L 374.05904 583.555604 
L 373.60768 583.854133 
L 373.15632 586.762435 
L 372.70496 587.144028 
L 372.2536 586.719447 
L 371.80224 583.902355 
L 371.35088 587.323123 
L 370.90448 586.703556 
L 370.45312 588.710837 
L 370.00672 584.193869 
L 369.56032 588.586702 
L 369.11392 584.874143 
L 368.66256 586.75888 
L 368.21616 588.058461 
L 367.76976 586.93486 
L 367.32832 588.986809 
L 366.88192 586.462533 
L 366.43552 588.219834 
L 365.99408 587.814353 
L 365.54768 587.062482 
L 365.10624 585.389048 
L 364.65984 589.583646 
L 364.2184 589.545622 
L 363.33552 587.759199 
L 362.89408 588.973356 
L 362.45264 585.994648 
L 362.01616 589.878116 
L 361.57472 590.472524 
L 361.13328 591.829092 
L 360.6968 590.31736 
L 360.26032 589.448174 
L 359.81888 592.94303 
L 359.3824 591.776334 
L 358.94592 591.478231 
L 358.50944 592.263211 
L 358.07296 591.21488 
L 357.63648 592.270336 
L 357.2 589.9344 
L 356.76848 592.937902 
L 356.332 592.291313 
L 355.90048 594.146701 
L 355.464 593.655348 
L 354.60096 593.198822 
L 354.16944 592.530972 
L 353.73296 592.66645 
L 353.30144 594.079902 
L 352.87488 592.620508 
L 352.44336 593.928919 
L 352.01184 594.038287 
L 351.58528 590.66504 
L 351.15376 591.976447 
L 350.7272 596.023378 
L 350.29568 593.322127 
L 349.86912 594.069627 
L 349.44256 596.117221 
L 349.016 596.038573 
L 348.58944 595.140917 
L 348.16288 594.506706 
L 347.73632 596.018449 
L 347.30976 593.929285 
L 346.8832 594.173699 
L 346.4616 595.28044 
L 346.03504 592.803775 
L 345.61344 594.255868 
L 345.19184 596.897609 
L 344.76528 595.405849 
L 343.92208 598.162304 
L 343.07888 598.068233 
L 342.66224 598.435262 
L 342.24064 597.757272 
L 341.81904 596.780883 
L 341.4024 598.102388 
L 340.9808 596.226342 
L 340.56416 598.403669 
L 339.72592 598.597902 
L 339.30928 598.98411 
L 338.89264 600.587348 
L 338.476 596.505542 
L 338.05936 597.606676 
L 337.64272 597.539992 
L 337.23104 598.646953 
L 336.8144 600.923282 
L 336.39776 595.264653 
L 335.98608 599.5557 
L 335.15776 596.419544 
L 334.74608 598.081601 
L 334.3344 596.875876 
L 333.92272 598.753078 
L 333.51104 596.340926 
L 333.09936 599.417769 
L 332.68768 600.186484 
L 332.276 599.199882 
L 331.86928 602.42602 
L 331.4576 602.624665 
L 331.05088 602.3594 
L 330.6392 600.767077 
L 330.23248 601.65026 
L 329.82576 602.899264 
L 329.00736 601.495317 
L 328.60064 601.921819 
L 328.19392 600.202086 
L 327.79216 601.573577 
L 327.38544 601.231521 
L 326.97872 605.233227 
L 326.57696 600.242309 
L 326.17024 606.444948 
L 325.76848 603.387643 
L 325.36176 603.180205 
L 324.96 603.484009 
L 324.55824 601.676585 
L 324.15648 604.286624 
L 323.74976 603.175502 
L 323.35296 600.059284 
L 322.9512 602.689994 
L 322.54944 600.76447 
L 322.14768 600.827573 
L 321.34912 604.846943 
L 320.94736 605.316653 
L 320.55056 605.279461 
L 320.15376 606.524013 
L 319.752 606.451668 
L 319.3552 606.706347 
L 318.9584 605.951168 
L 318.5616 605.574223 
L 318.1648 604.273147 
L 317.768 604.608539 
L 317.3712 601.16029 
L 316.97936 603.329552 
L 316.58256 606.164437 
L 316.18576 604.215415 
L 315.79392 605.02034 
L 315.40208 605.403163 
L 315.00528 606.568717 
L 314.61344 604.68513 
L 314.2216 606.031482 
L 313.82976 605.565824 
L 313.43792 604.359625 
L 313.04608 608.765402 
L 312.65424 603.571889 
L 312.2624 601.231815 
L 311.87056 601.41752 
L 311.48368 603.666321 
L 311.09184 604.473501 
L 310.7 602.115827 
L 309.5344 607.711624 
L 309.14752 608.769799 
L 308.76064 609.038667 
L 308.37376 609.630496 
L 307.98688 609.623135 
L 307.6 610.071827 
L 306.8312 606.317066 
L 306.44432 607.901286 
L 306.05744 604.812614 
L 305.67552 604.990332 
L 305.28864 604.02878 
L 304.90672 606.622417 
L 304.5248 606.135096 
L 304.13792 606.303188 
L 303.37408 609.794182 
L 302.99216 608.745554 
L 302.61024 610.073423 
L 302.22832 608.332642 
L 301.85136 608.304857 
L 301.46944 606.557197 
L 301.08752 606.784221 
L 300.71056 603.762758 
L 300.32864 607.02961 
L 299.95168 603.549799 
L 299.56976 607.32874 
L 299.1928 604.186366 
L 298.81584 606.074382 
L 298.43888 606.170681 
L 298.06192 606.661088 
L 297.68496 608.141058 
L 297.308 608.739467 
L 296.93104 608.537889 
L 296.55408 606.44213 
L 295.80512 608.016092 
L 295.42816 604.477223 
L 295.05616 603.196972 
L 294.6792 604.088749 
L 294.3072 600.112213 
L 293.55824 601.859863 
L 293.18624 600.70763 
L 292.81424 601.832797 
L 292.44224 603.732786 
L 292.07024 603.04256 
L 291.69824 606.272081 
L 291.32624 606.009459 
L 290.9592 605.389009 
L 290.5872 608.590828 
L 290.22016 606.786978 
L 289.84816 602.153447 
L 289.48112 606.719685 
L 289.10912 605.467864 
L 288.37504 601.227201 
L 288.00304 602.982879 
L 287.636 602.795829 
L 287.26896 601.544271 
L 286.53984 603.29367 
L 286.1728 603.41631 
L 285.80576 606.68098 
L 285.43872 608.708429 
L 285.07664 607.039811 
L 284.7096 607.336624 
L 284.34752 607.411286 
L 283.98048 607.895018 
L 283.6184 605.973558 
L 283.25632 605.842945 
L 282.5272 602.072548 
L 282.16512 601.12701 
L 281.80304 600.721332 
L 281.44096 602.851057 
L 281.07888 599.244281 
L 280.35968 601.582238 
L 279.9976 605.086372 
L 279.64048 606.309329 
L 279.2784 605.939464 
L 278.92128 607.744784 
L 278.5592 606.15447 
L 278.20208 606.036047 
L 277.84496 603.604531 
L 277.48288 603.817622 
L 277.12576 601.992819 
L 276.76864 602.118445 
L 276.41152 598.689861 
L 276.0544 599.607185 
L 275.69728 596.697202 
L 275.34512 598.797687 
L 274.988 600.134179 
L 274.63088 599.609905 
L 274.27872 598.11782 
L 273.9216 601.443245 
L 273.56944 601.322934 
L 273.21232 605.451532 
L 272.86016 603.656458 
L 272.508 606.199812 
L 272.15088 606.386782 
L 271.79872 606.284868 
L 271.44656 606.673058 
L 270.74224 602.970373 
L 270.39008 603.122403 
L 270.04288 600.886975 
L 269.33856 598.558655 
L 268.99136 599.129486 
L 268.6392 597.692183 
L 268.28704 599.689247 
L 267.93984 599.662381 
L 267.59264 598.642192 
L 267.24048 601.969724 
L 266.89328 601.432529 
L 266.54608 601.31718 
L 265.50448 605.481262 
L 265.15728 603.343433 
L 264.81008 606.028613 
L 264.46288 602.026787 
L 264.11568 600.23377 
L 263.77344 600.762134 
L 263.42624 600.5854 
L 263.084 599.509832 
L 262.7368 595.662464 
L 262.39456 595.78304 
L 262.04736 598.671557 
L 261.70512 596.248151 
L 261.36288 598.379591 
L 261.02064 599.045794 
L 260.6784 600.433607 
L 259.99392 604.401192 
L 259.65168 602.966298 
L 259.30944 602.686527 
L 258.9672 601.741075 
L 258.62496 602.865125 
L 257.94544 599.019796 
L 257.6032 599.928154 
L 257.26592 597.841877 
L 256.92864 597.566009 
L 256.5864 593.162832 
L 256.24912 591.780081 
L 255.91184 591.373799 
L 255.5696 593.273049 
L 254.89504 592.668896 
L 254.55776 599.131079 
L 254.22048 597.697123 
L 253.8832 600.239302 
L 253.55088 601.193414 
L 253.2136 600.031817 
L 252.87632 603.372794 
L 252.544 603.041073 
L 251.86944 600.507093 
L 251.53712 596.402772 
L 251.2048 597.364034 
L 250.86752 593.182677 
L 250.20288 592.372832 
L 249.87056 589.852749 
L 249.53328 591.068589 
L 249.20096 589.390412 
L 248.86864 595.601724 
L 248.54128 593.601098 
L 248.20896 595.619941 
L 247.87664 599.334817 
L 247.54432 599.993468 
L 247.212 602.362165 
L 246.55232 601.111503 
L 245.89264 594.490497 
L 245.56528 596.998956 
L 244.9056 589.982188 
L 244.57824 587.943816 
L 244.25088 589.913979 
L 243.92352 589.886634 
L 243.59616 591.729257 
L 243.2688 591.374694 
L 242.94144 592.171316 
L 242.28672 597.527118 
L 241.95936 596.796801 
L 241.63696 601.377837 
L 241.3096 603.479504 
L 240.9872 601.494083 
L 240.65984 603.426487 
L 240.33744 599.412414 
L 240.01008 601.344656 
L 239.68768 594.746273 
L 239.36528 592.623497 
L 238.71552 589.847127 
L 238.39312 590.142317 
L 238.07072 590.633338 
L 237.74832 587.549225 
L 237.42592 590.772237 
L 237.10352 591.590713 
L 236.78112 594.80771 
L 236.45872 595.146642 
L 235.49648 602.568065 
L 235.17904 599.946365 
L 234.85664 600.216782 
L 234.5392 598.025135 
L 234.22176 597.924526 
L 233.89936 595.414147 
L 233.58192 590.394908 
L 233.26448 587.850481 
L 232.94704 587.501924 
L 232.62464 589.097761 
L 232.3072 585.974401 
L 231.98976 587.382219 
L 231.67232 586.982248 
L 231.35984 589.108673 
L 231.0424 587.902527 
L 230.72496 590.821433 
L 230.40752 590.135047 
L 229.7776 595.844862 
L 229.14768 598.754794 
L 228.83024 600.425325 
L 228.51776 598.245453 
L 228.20528 602.251343 
L 227.88784 599.877841 
L 227.57536 601.25328 
L 227.26288 598.070773 
L 226.9504 596.152217 
L 226.63792 594.953154 
L 226.32544 587.947053 
L 226.01296 590.508615 
L 225.70048 584.6333 
L 225.388 585.500912 
L 225.07552 587.57927 
L 224.768 588.720135 
L 224.45552 586.309588 
L 224.14304 589.711758 
L 223.83552 590.317664 
L 223.52304 594.102708 
L 223.21552 593.807153 
L 222.28304 602.505072 
L 221.97552 601.482038 
L 221.668 603.710627 
L 221.05296 600.269472 
L 220.74544 596.213755 
L 220.43792 596.748933 
L 220.1304 591.757883 
L 219.51536 586.732202 
L 219.20784 586.468562 
L 218.90032 588.188521 
L 218.59776 588.16619 
L 218.29024 588.715288 
L 217.98272 586.972867 
L 217.68016 590.493684 
L 217.37264 590.893277 
L 217.07008 593.312101 
L 216.76752 596.917314 
L 216.46 596.264554 
L 215.85488 602.31033 
L 215.55232 602.50293 
L 215.24976 601.301693 
L 214.94224 604.201742 
L 214.63968 603.56622 
L 214.33712 598.64792 
L 214.03952 597.736746 
L 213.73696 593.462321 
L 213.4344 591.741444 
L 213.13184 589.279464 
L 212.82928 591.407829 
L 212.53168 587.319807 
L 212.22912 587.426076 
L 211.93152 587.358314 
L 211.62896 587.865604 
L 211.33136 587.061678 
L 211.0288 590.228878 
L 210.7312 589.461134 
L 210.4336 593.501258 
L 210.13104 595.482568 
L 209.83344 596.139307 
L 209.53584 599.01782 
L 209.23824 603.665606 
L 208.94064 603.042546 
L 208.64304 604.609445 
L 208.34544 602.981718 
L 208.04784 605.53096 
L 207.75024 600.780893 
L 207.15504 596.746679 
L 206.8624 591.134339 
L 206.2672 586.512296 
L 205.97456 587.381827 
L 205.67696 586.421045 
L 205.38432 584.803444 
L 205.09168 585.655272 
L 204.50144 589.989231 
L 204.2088 587.240745 
L 203.61856 597.831157 
L 203.32592 600.884163 
L 203.03328 601.303819 
L 202.74064 602.24579 
L 202.448 602.812515 
L 202.15536 604.057108 
L 201.86272 601.900301 
L 201.2824 594.283625 
L 200.98976 594.650444 
L 200.1168 590.20975 
L 199.82416 586.366851 
L 199.53648 586.067116 
L 199.2488 585.519471 
L 198.95616 584.42283 
L 198.66848 587.048515 
L 198.3808 584.35207 
L 197.80048 590.488996 
L 197.5128 587.657537 
L 197.22512 594.371618 
L 196.93744 593.827727 
L 196.36208 599.802437 
L 196.0744 600.681922 
L 195.49904 607.862749 
L 195.21136 606.789552 
L 194.92864 604.101034 
L 194.64096 603.642274 
L 194.35328 601.331863 
L 194.07056 602.008003 
L 193.21248 590.008693 
L 192.92976 588.695687 
L 192.64208 585.870237 
L 192.35936 585.180182 
L 192.07664 585.530897 
L 191.79392 584.776819 
L 191.5112 587.587894 
L 191.22352 589.191894 
L 190.9408 588.832349 
L 190.09264 600.314411 
L 189.80992 598.265794 
L 189.24944 605.650906 
L 188.96672 603.901665 
L 188.684 606.577473 
L 188.40624 605.039473 
L 188.12352 605.295585 
L 187.8408 603.888096 
L 187.28032 597.088423 
L 187.00256 597.630375 
L 186.7248 591.438302 
L 186.44208 590.1759 
L 186.16432 587.405547 
L 185.88656 588.764823 
L 185.6088 585.699188 
L 185.32608 587.303027 
L 185.04832 584.467248 
L 184.77056 587.376266 
L 184.4928 588.945658 
L 184.21504 587.920013 
L 183.93728 588.745829 
L 183.38176 598.115563 
L 183.10896 599.040698 
L 182.8312 603.118848 
L 182.55344 604.317928 
L 182.27568 609.723122 
L 182.00288 605.599753 
L 181.72512 605.543177 
L 181.45232 602.893115 
L 181.17456 597.888136 
L 180.90176 596.801856 
L 180.624 594.404837 
L 180.3512 593.430244 
L 180.0784 590.915233 
L 179.80064 587.101834 
L 179.52784 589.632698 
L 179.25504 588.880384 
L 178.98224 588.910788 
L 178.70944 587.252904 
L 178.43664 592.073425 
L 178.16384 592.577772 
L 177.89104 599.215215 
L 177.61824 597.696476 
L 177.07264 603.580111 
L 176.79984 609.4639 
L 176.52704 607.86219 
L 176.2592 610.052915 
L 175.9864 607.306711 
L 175.7136 608.067333 
L 175.44576 606.57296 
L 175.17296 602.464536 
L 174.90512 595.967041 
L 174.63232 596.333924 
L 173.82384 589.988936 
L 173.556 588.573935 
L 173.28816 590.277513 
L 173.01536 590.017371 
L 172.74752 588.849193 
L 172.47968 594.04332 
L 172.21184 594.042737 
L 171.14048 609.428521 
L 170.87264 607.804523 
L 170.6048 611.413981 
L 170.34192 607.937466 
L 170.07408 606.166866 
L 169.80624 607.99237 
L 169.54336 604.746161 
L 169.27552 603.795958 
L 169.00768 599.5258 
L 168.7448 598.626215 
L 168.47696 595.821882 
L 168.21408 595.101787 
L 167.94624 590.240792 
L 167.68336 590.494686 
L 167.42048 591.348552 
L 167.1576 590.113734 
L 166.88976 589.910662 
L 166.62688 593.117216 
L 166.10112 594.088558 
L 165.83824 598.333128 
L 165.0496 604.521813 
L 164.78672 605.946401 
L 164.52384 608.302302 
L 164.26096 608.053853 
L 163.99808 608.865146 
L 163.74016 609.164418 
L 163.2144 602.796466 
L 162.95648 603.076506 
L 162.6936 597.464989 
L 162.43072 595.480211 
L 162.1728 596.243379 
L 161.90992 591.745609 
L 161.652 592.450259 
L 161.39408 591.029711 
L 161.1312 590.737717 
L 160.87328 591.941491 
L 160.61536 591.771006 
L 160.35248 590.93477 
L 160.09456 592.396502 
L 159.83664 596.115365 
L 159.57872 595.280989 
L 159.3208 598.441587 
L 158.80496 606.394684 
L 158.54704 606.803156 
L 158.28912 607.590953 
L 158.0312 609.477964 
L 157.77328 610.234834 
L 157.52032 611.5423 
L 156.74656 605.761376 
L 156.4936 604.236038 
L 156.23568 604.536645 
L 155.7248 596.281555 
L 155.47184 595.929363 
L 155.21392 593.200898 
L 154.96096 594.240039 
L 154.70304 589.557734 
L 154.45008 590.242537 
L 154.19712 593.61788 
L 153.94416 594.826677 
L 153.68624 592.863029 
L 153.18032 596.883467 
L 152.92736 600.562113 
L 152.6744 601.420976 
L 152.42144 605.038609 
L 152.16848 605.180033 
L 151.91552 609.702261 
L 151.66256 608.992251 
L 151.4096 611.393055 
L 151.15664 611.526068 
L 150.90864 611.330877 
L 150.65568 609.60565 
L 150.40272 610.842564 
L 150.15472 605.065915 
L 149.90176 604.42144 
L 149.6488 598.480571 
L 149.4008 601.275863 
L 149.14784 599.998082 
L 148.89984 596.239568 
L 148.64688 598.3678 
L 148.39888 592.725903 
L 148.15088 595.386986 
L 147.89792 592.304857 
L 147.64992 590.925924 
L 147.40192 594.342325 
L 145.90896 606.185192 
L 145.41296 612.254103 
L 145.16496 611.967935 
L 144.91696 613.869196 
L 144.66896 612.823506 
L 144.17792 609.725749 
L 143.92992 609.301671 
L 143.68192 604.964632 
L 143.43888 606.405669 
L 142.94288 600.433302 
L 142.69984 601.628601 
L 142.45184 598.679139 
L 142.2088 598.369424 
L 141.71776 596.971406 
L 141.47472 598.358445 
L 141.22672 598.170263 
L 140.98368 601.182001 
L 140.74064 600.112318 
L 140.4976 602.013041 
L 140.00656 609.550396 
L 139.76352 609.465551 
L 139.52048 613.593177 
L 139.27744 614.830691 
L 139.0344 613.445234 
L 138.54832 617.361699 
L 138.06224 611.983015 
L 137.82416 611.338355 
L 137.58112 607.832666 
L 137.33808 608.457484 
L 137.09504 606.931856 
L 136.61392 602.854362 
L 136.37088 602.263581 
L 136.1328 598.70516 
L 135.88976 601.01419 
L 135.65168 597.44984 
L 135.40864 599.065489 
L 135.17056 603.10415 
L 134.93248 602.903276 
L 134.45136 606.960331 
L 134.21328 606.667957 
L 133.97024 608.56526 
L 133.73216 611.68736 
L 133.49408 612.93372 
L 133.256 617.237559 
L 133.01792 616.556679 
L 132.77984 616.417025 
L 132.30368 620.531043 
L 132.0656 617.088647 
L 131.82752 620.065515 
L 131.58944 613.520635 
L 131.11328 609.050802 
L 130.8752 610.739645 
L 130.63712 603.102596 
L 130.404 604.651372 
L 130.16592 604.678733 
L 129.92784 604.941407 
L 129.69472 602.704652 
L 128.75232 608.667372 
L 128.51424 612.537196 
L 128.28112 612.250173 
L 127.80992 616.506413 
L 127.5768 616.288769 
L 127.33872 618.454291 
L 127.1056 617.953197 
L 126.87248 618.508208 
L 126.40624 618.259165 
L 126.16816 617.068384 
L 125.93504 612.687309 
L 125.70192 613.775515 
L 125.4688 616.35808 
L 125.23568 610.395949 
L 125.00256 608.435212 
L 124.54128 607.591484 
L 124.30816 606.561942 
L 124.07504 606.285349 
L 123.84192 604.797559 
L 123.38064 610.934246 
L 123.14752 608.066468 
L 122.68624 615.020291 
L 122.45312 615.541237 
L 122.22496 619.31898 
L 121.99184 620.253465 
L 121.76368 622.642012 
L 121.3024 620.089193 
L 121.06928 619.505014 
L 120.84112 618.154316 
L 120.61296 617.991531 
L 120.37984 612.930856 
L 120.15168 613.957069 
L 119.92352 613.34548 
L 119.69536 610.810354 
L 119.4672 610.825409 
L 119.23904 612.004123 
L 119.00592 606.717565 
L 118.77776 609.454268 
L 118.5496 610.0422 
L 118.32144 610.205155 
L 118.09328 611.159153 
L 117.64192 614.194325 
L 117.41376 614.364201 
L 116.95744 615.756356 
L 116.50608 620.655038 
L 116.27792 619.527832 
L 115.82656 622.298075 
L 115.5984 622.746325 
L 115.3752 622.778284 
L 115.14704 620.663495 
L 114.92384 622.180385 
L 114.69568 621.214381 
L 114.47248 619.234017 
L 114.24432 620.32196 
L 114.02112 615.711931 
L 113.79792 616.346888 
L 113.56976 611.749838 
L 113.34656 612.40164 
L 113.12336 611.276776 
L 112.90016 611.979027 
L 112.672 612.251634 
L 112.4488 613.396393 
L 112.2256 615.628231 
L 112.0024 616.063059 
L 111.7792 617.435755 
L 111.556 617.950135 
L 111.1096 621.034895 
L 110.8864 620.431249 
L 110.44 624.17879 
L 110.22176 622.417593 
L 109.99856 625.12029 
L 109.77536 625.002436 
L 109.55216 626.727684 
L 109.11072 623.377032 
L 108.88752 624.123261 
L 108.44608 621.326711 
L 108.22784 623.671518 
L 108.00464 619.48965 
L 107.7864 618.291837 
L 107.5632 618.74866 
L 107.12176 616.792404 
L 106.90352 614.452573 
L 106.68528 618.188709 
L 106.24384 615.603598 
L 106.0256 618.107662 
L 105.80736 617.388046 
L 105.36592 620.856876 
L 105.14768 620.917791 
L 104.7112 627.458305 
L 104.49296 624.26056 
L 104.27472 627.52312 
L 104.05648 627.448771 
L 103.83824 627.597807 
L 103.62 627.923194 
L 103.40176 625.920918 
L 103.18352 627.641483 
L 102.97024 625.435486 
L 102.752 626.218041 
L 102.53376 624.49148 
L 102.31552 623.99242 
L 101.66576 620.910933 
L 101.45248 621.048691 
L 101.23424 618.841464 
L 101.02096 619.441834 
L 100.58944 622.526731 
L 100.3712 617.979051 
L 100.15792 618.882023 
L 99.94464 621.370802 
L 99.51312 621.080018 
L 99.0816 623.354285 
L 98.86832 625.996358 
L 98.65504 623.635778 
L 98.44176 627.623588 
L 98.22848 627.339691 
L 98.01024 626.098491 
L 97.79696 629.573318 
L 97.58368 628.068412 
L 97.3704 629.657755 
L 97.15712 629.965365 
L 96.73056 628.927596 
L 96.51728 628.935536 
L 96.30896 626.546575 
L 96.09568 630.451743 
L 95.66912 626.025343 
L 95.24752 628.100033 
L 95.03424 624.545392 
L 94.82096 625.902545 
L 94.61264 623.476058 
L 94.39936 624.207298 
L 94.18608 622.653621 
L 93.97776 623.019257 
L 93.76448 624.990931 
L 93.55616 624.139555 
L 92.92624 626.65577 
L 92.71296 626.693009 
L 92.50464 627.45587 
L 92.29632 627.296338 
L 92.08304 628.576977 
L 91.87472 628.87762 
L 91.6664 630.790126 
L 91.45808 629.673996 
L 91.03648 632.232849 
L 90.61984 630.454636 
L 90.41152 633.110154 
L 89.99488 629.579575 
L 89.78656 631.326235 
L 89.57824 628.58529 
L 89.36992 628.796453 
L 89.1616 628.313162 
L 88.95328 626.713622 
L 88.5416 628.943336 
L 88.33328 629.072571 
L 87.91664 627.263092 
L 87.71328 627.496097 
L 87.50496 627.302306 
L 86.6816 629.826672 
L 86.47328 628.814599 
L 86.26992 629.874617 
L 85.85824 632.591527 
L 85.64992 632.731543 
L 85.44656 635.187036 
L 85.2432 631.939173 
L 85.03488 633.588278 
L 84.83152 633.986085 
L 84.62816 633.285939 
L 84.21648 634.335297 
L 83.80976 632.50823 
L 83.6064 634.501335 
L 83.40304 632.774921 
L 83.19968 633.018415 
L 82.99632 633.833658 
L 82.5896 630.584992 
L 82.38624 629.896497 
L 82.18288 631.223743 
L 81.97952 630.246165 
L 81.77616 631.333882 
L 81.5728 631.483236 
L 81.3744 632.005771 
L 81.17104 629.626246 
L 80.96768 633.022142 
L 80.76432 632.001714 
L 80.56592 628.748931 
L 80.1592 631.978879 
L 79.75744 633.117636 
L 79.55408 633.10661 
L 79.35568 633.823679 
L 79.15232 636.223952 
L 78.95392 635.849882 
L 78.75056 634.778236 
L 78.55216 635.518816 
L 78.35376 636.84803 
L 78.1504 635.149741 
L 77.952 636.217295 
L 77.55024 633.92917 
L 77.35184 634.929805 
L 76.95504 633.892043 
L 76.75168 633.265811 
L 76.55328 633.201699 
L 76.35488 632.77596 
L 76.15648 633.925655 
L 75.95808 632.203183 
L 75.75968 635.237154 
L 75.56128 634.613924 
L 75.36288 634.64441 
L 75.16448 633.563385 
L 74.96608 636.241699 
L 74.76768 634.454985 
L 74.56928 635.074938 
L 74.37088 637.669044 
L 74.17744 636.126412 
L 73.97904 636.131344 
L 73.58224 637.548694 
L 73.3888 636.755181 
L 73.1904 637.025224 
L 72.40176 636.010353 
L 72.20832 635.374876 
L 72.00992 634.250409 
L 72.00992 634.250409 
" clip-path="url(#p6a31cb900e)" style="fill: none; stroke-dasharray: 3.7,1.6; stroke-dashoffset: 0; stroke: #808080"/>
   </g>
   <g id="line2d_27">
    <path d="M 72 598.8 
L 518.4 598.8 
" clip-path="url(#p6a31cb900e)" style="fill: none; stroke-dasharray: 5.55,2.4; stroke-dashoffset: 0; stroke: #000000; stroke-width: 1.5"/>
   </g>
   <g id="patch_9">
    <path d="M 72 640.8 
L 72 556.8 
" style="fill: none; stroke: #000000; stroke-width: 0.8; stroke-linejoin: miter; stroke-linecap: square"/>
   </g>
   <g id="patch_10">
    <path d="M 518.4 640.8 
L 518.4 556.8 
" style="fill: none; stroke: #000000; stroke-width: 0.8; stroke-linejoin: miter; stroke-linecap: square"/>
   </g>
   <g id="patch_11">
    <path d="M 72 640.8 
L 518.4 640.8 
" style="fill: none; stroke: #000000; stroke-width: 0.8; stroke-linejoin: miter; stroke-linecap: square"/>
   </g>
   <g id="patch_12">
    <path d="M 72 556.8 
L 518.4 556.8 
" style="fill: none; stroke: #000000; stroke-width: 0.8; stroke-linejoin: miter; stroke-linecap: square"/>
   </g>
  </g>
  <g id="text_21">
   <!-- Photon energy (eV) -->
   <g transform="translate(229.8825 710.304375) scale(0.12 -0.12)">
    <defs>
     <path id="DejaVuSans-50" d="M 1259 4147 
L 1259 2394 
L 2053 2394 
Q 2494 2394 2734 2622 
Q 2975 2850 2975 3272 
Q 2975 3691 2734 3919 
Q 2494 4147 2053 4147 
L 1259 4147 
z
M 628 4666 
L 2053 4666 
Q 2838 4666 3239 4311 
Q 3641 3956 3641 3272 
Q 3641 2581 3239 2228 
Q 2838 1875 2053 1875 
L 1259 1875 
L 1259 0 
L 628 0 
L 628 4666 
z
" transform="scale(0.015625)"/>
     <path id="DejaVuSans-68" d="M 3513 2113 
L 3513 0 
L 2938 0 
L 2938 2094 
Q 2938 2591 2744 2837 
Q 2550 3084 2163 3084 
Q 1697 3084 1428 2787 
Q 1159 2491 1159 1978 
L 1159 0 
L 581 0 
L 581 4863 
L 1159 4863 
L 1159 2956 
Q 1366 3272 1645 3428 
Q 1925 3584 2291 3584 
Q 2894 3584 3203 3211 
Q 3513 2838 3513 2113 
z
" transform="scale(0.015625)"/>
     <path id="DejaVuSans-67" d="M 2906 1791 
Q 2906 2416 2648 2759 
Q 2391 3103 1925 3103 
Q 1463 3103 1205 2759 
Q 947 2416 947 1791 
Q 947 1169 1205 825 
Q 1463 481 1925 481 
Q 2391 481 2648 825 
Q 2906 1169 2906 1791 
z
M 3481 434 
Q 3481 -459 3084 -895 
Q 2688 -1331 1869 -1331 
Q 1566 -1331 1297 -1286 
Q 1028 -1241 775 -1147 
L 775 -588 
Q 1028 -725 1275 -790 
Q 1522 -856 1778 -856 
Q 2344 -856 2625 -561 
Q 2906 -266 2906 331 
L 2906 616 
Q 2728 306 2450 153 
Q 2172 0 1784 0 
Q 1141 0 747 490 
Q 353 981 353 1791 
Q 353 2603 747 3093 
Q 1141 3584 1784 3584 
Q 2172 3584 2450 3431 
Q 2728 3278 2906 2969 
L 2906 3500 
L 3481 3500 
L 3481 434 
z
" transform="scale(0.015625)"/>
     <path id="DejaVuSans-56" d="M 1831 0 
L 50 4666 
L 709 4666 
L 2188 738 
L 3669 4666 
L 4325 4666 
L 2547 0 
L 1831 0 
z
" transform="scale(0.015625)"/>
    </defs>
    <use xlink:href="#DejaVuSans-50"/>
    <use xlink:href="#DejaVuSans-68" transform="translate(60.302734 0)"/>
    <use xlink:href="#DejaVuSans-6f" transform="translate(123.681641 0)"/>
    <use xlink:href="#DejaVuSans-74" transform="translate(184.863281 0)"/>
    <use xlink:href="#DejaVuSans-6f" transform="translate(224.072266 0)"/>
    <use xlink:href="#DejaVuSans-6e" transform="translate(285.253906 0)"/>
    <use xlink:href="#DejaVuSans-20" transform="translate(348.632812 0)"/>
    <use xlink:href="#DejaVuSans-65" transform="translate(380.419922 0)"/>
    <use xlink:href="#DejaVuSans-6e" transform="translate(441.943359 0)"/>
    <use xlink:href="#DejaVuSans-65" transform="translate(505.322266 0)"/>
    <use xlink:href="#DejaVuSans-72" transform="translate(566.845703 0)"/>
    <use xlink:href="#DejaVuSans-67" transform="translate(606.208984 0)"/>
    <use xlink:href="#DejaVuSans-79" transform="translate(669.685547 0)"/>
    <use xlink:href="#DejaVuSans-20" transform="translate(728.865234 0)"/>
    <use xlink:href="#DejaVuSans-28" transform="translate(760.652344 0)"/>
    <use xlink:href="#DejaVuSans-65" transform="translate(799.666016 0)"/>
    <use xlink:href="#DejaVuSans-56" transform="translate(861.189453 0)"/>
    <use xlink:href="#DejaVuSans-29" transform="translate(929.597656 0)"/>
   </g>
  </g>
  <g id="text_22">
   <!-- Excitation power 0.7 mW -->
   <g transform="translate(212.689687 23.518125) scale(0.12 -0.12)">
    <defs>
     <path id="DejaVuSans-45" d="M 628 4666 
L 3578 4666 
L 3578 4134 
L 1259 4134 
L 1259 2753 
L 3481 2753 
L 3481 2222 
L 1259 2222 
L 1259 531 
L 3634 531 
L 3634 0 
L 628 0 
L 628 4666 
z
" transform="scale(0.015625)"/>
     <path id="DejaVuSans-78" d="M 3513 3500 
L 2247 1797 
L 3578 0 
L 2900 0 
L 1881 1375 
L 863 0 
L 184 0 
L 1544 1831 
L 300 3500 
L 978 3500 
L 1906 2253 
L 2834 3500 
L 3513 3500 
z
" transform="scale(0.015625)"/>
     <path id="DejaVuSans-70" d="M 1159 525 
L 1159 -1331 
L 581 -1331 
L 581 3500 
L 1159 3500 
L 1159 2969 
Q 1341 3281 1617 3432 
Q 1894 3584 2278 3584 
Q 2916 3584 3314 3078 
Q 3713 2572 3713 1747 
Q 3713 922 3314 415 
Q 2916 -91 2278 -91 
Q 1894 -91 1617 61 
Q 1341 213 1159 525 
z
M 3116 1747 
Q 3116 2381 2855 2742 
Q 2594 3103 2138 3103 
Q 1681 3103 1420 2742 
Q 1159 2381 1159 1747 
Q 1159 1113 1420 752 
Q 1681 391 2138 391 
Q 2594 391 2855 752 
Q 3116 1113 3116 1747 
z
" transform="scale(0.015625)"/>
     <path id="DejaVuSans-77" d="M 269 3500 
L 844 3500 
L 1563 769 
L 2278 3500 
L 2956 3500 
L 3675 769 
L 4391 3500 
L 4966 3500 
L 4050 0 
L 3372 0 
L 2619 2869 
L 1863 0 
L 1184 0 
L 269 3500 
z
" transform="scale(0.015625)"/>
     <path id="DejaVuSans-37" d="M 525 4666 
L 3525 4666 
L 3525 4397 
L 1831 0 
L 1172 0 
L 2766 4134 
L 525 4134 
L 525 4666 
z
" transform="scale(0.015625)"/>
     <path id="DejaVuSans-6d" d="M 3328 2828 
Q 3544 3216 3844 3400 
Q 4144 3584 4550 3584 
Q 5097 3584 5394 3201 
Q 5691 2819 5691 2113 
L 5691 0 
L 5113 0 
L 5113 2094 
Q 5113 2597 4934 2840 
Q 4756 3084 4391 3084 
Q 3944 3084 3684 2787 
Q 3425 2491 3425 1978 
L 3425 0 
L 2847 0 
L 2847 2094 
Q 2847 2600 2669 2842 
Q 2491 3084 2119 3084 
Q 1678 3084 1418 2786 
Q 1159 2488 1159 1978 
L 1159 0 
L 581 0 
L 581 3500 
L 1159 3500 
L 1159 2956 
Q 1356 3278 1631 3431 
Q 1906 3584 2284 3584 
Q 2666 3584 2933 3390 
Q 3200 3197 3328 2828 
z
" transform="scale(0.015625)"/>
     <path id="DejaVuSans-57" d="M 213 4666 
L 850 4666 
L 1831 722 
L 2809 4666 
L 3519 4666 
L 4500 722 
L 5478 4666 
L 6119 4666 
L 4947 0 
L 4153 0 
L 3169 4050 
L 2175 0 
L 1381 0 
L 213 4666 
z
" transform="scale(0.015625)"/>
    </defs>
    <use xlink:href="#DejaVuSans-45"/>
    <use xlink:href="#DejaVuSans-78" transform="translate(63.183594 0)"/>
    <use xlink:href="#DejaVuSans-63" transform="translate(120.613281 0)"/>
    <use xlink:href="#DejaVuSans-69" transform="translate(175.59375 0)"/>
    <use xlink:href="#DejaVuSans-74" transform="translate(203.376953 0)"/>
    <use xlink:href="#DejaVuSans-61" transform="translate(242.585938 0)"/>
    <use xlink:href="#DejaVuSans-74" transform="translate(303.865234 0)"/>
    <use xlink:href="#DejaVuSans-69" transform="translate(343.074219 0)"/>
    <use xlink:href="#DejaVuSans-6f" transform="translate(370.857422 0)"/>
    <use xlink:href="#DejaVuSans-6e" transform="translate(432.039062 0)"/>
    <use xlink:href="#DejaVuSans-20" transform="translate(495.417969 0)"/>
    <use xlink:href="#DejaVuSans-70" transform="translate(527.205078 0)"/>
    <use xlink:href="#DejaVuSans-6f" transform="translate(590.681641 0)"/>
    <use xlink:href="#DejaVuSans-77" transform="translate(651.863281 0)"/>
    <use xlink:href="#DejaVuSans-65" transform="translate(733.650391 0)"/>
    <use xlink:href="#DejaVuSans-72" transform="translate(795.173828 0)"/>
    <use xlink:href="#DejaVuSans-20" transform="translate(836.287109 0)"/>
    <use xlink:href="#DejaVuSans-30" transform="translate(868.074219 0)"/>
    <use xlink:href="#DejaVuSans-2e" transform="translate(931.697266 0)"/>
    <use xlink:href="#DejaVuSans-37" transform="translate(963.484375 0)"/>
    <use xlink:href="#DejaVuSans-20" transform="translate(1027.107422 0)"/>
    <use xlink:href="#DejaVuSans-6d" transform="translate(1058.894531 0)"/>
    <use xlink:href="#DejaVuSans-57" transform="translate(1156.306641 0)"/>
   </g>
  </g>
 </g>
 <defs>
  <clipPath id="pefc361f045">
   <rect x="72" y="86.4" width="446.4" height="420"/>
  </clipPath>
  <clipPath id="p6a31cb900e">
   <rect x="72" y="556.8" width="446.4" height="84"/>
  </clipPath>
 </defs>
</svg>
