<?xml version="1.0" encoding="utf-8" standalone="no"?>
<!DOCTYPE svg PUBLIC "-//W3C//DTD SVG 1.1//EN"
  "http://www.w3.org/Graphics/SVG/1.1/DTD/svg11.dtd">
<svg xmlns:xlink="http://www.w3.org/1999/xlink" width="576pt" height="720pt" viewBox="0 0 576 720" xmlns="http://www.w3.org/2000/svg" version="1.1">
 <metadata>
  <rdf:RDF xmlns:dc="http://purl.org/dc/elements/1.1/" xmlns:cc="http://creativecommons.org/ns#" xmlns:rdf="http://www.w3.org/1999/02/22-rdf-syntax-ns#">
   <cc:Work>
    <dc:type rdf:resource="http://purl.org/dc/dcmitype/StillImage"/>
    <dc:date>2026-06-10T15:01:56.552321</dc:date>
    <dc:format>image/svg+xml</dc:format>
    <dc:creator>
     <cc:Agent>
      <dc:title>Matplotlib v3.10.0, https://matplotlib.org/</dc:title>
     </cc:Agent>
    </dc:creator>
   </cc:Work>
  </rdf:RDF>
 </metadata>
 <defs>
  <style type="text/css">*{stroke-linejoin: round; stroke-linecap: butt}</style>
 </defs>
 <g id="figure_1">
  <g id="patch_1">
   <path d="M 0 720 
L 576 720 
L 576 0 
L 0 0 
z
" style="fill: #ffffff"/>
  </g>
  <g id="axes_1">
   <g id="patch_2">
    <path d="M 72 506.4 
L 518.4 506.4 
L 518.4 86.4 
L 72 86.4 
z
" style="fill: #ffffff"/>
   </g>
   <g id="matplotlib.axis_1">
    <g id="xtick_1">
     <g id="line2d_1">
      <defs>
       <path id="m2ec392f9d0" d="M 0 0 
L 0 3.5 
" style="stroke: #000000; stroke-width: 0.8"/>
      </defs>
      <g>
       <use xlink:href="#m2ec392f9d0" x="72" y="506.4" style="stroke: #000000; stroke-width: 0.8"/>
      </g>
     </g>
    </g>
    <g id="xtick_2">
     <g id="line2d_2">
      <g>
       <use xlink:href="#m2ec392f9d0" x="171.2" y="506.4" style="stroke: #000000; stroke-width: 0.8"/>
      </g>
     </g>
    </g>
    <g id="xtick_3">
     <g id="line2d_3">
      <g>
       <use xlink:href="#m2ec392f9d0" x="270.4" y="506.4" style="stroke: #000000; stroke-width: 0.8"/>
      </g>
     </g>
    </g>
    <g id="xtick_4">
     <g id="line2d_4">
      <g>
       <use xlink:href="#m2ec392f9d0" x="369.6" y="506.4" style="stroke: #000000; stroke-width: 0.8"/>
      </g>
     </g>
    </g>
    <g id="xtick_5">
     <g id="line2d_5">
      <g>
       <use xlink:href="#m2ec392f9d0" x="468.8" y="506.4" style="stroke: #000000; stroke-width: 0.8"/>
      </g>
     </g>
    </g>
   </g>
   <g id="matplotlib.axis_2">
    <g id="ytick_1">
     <g id="line2d_6">
      <defs>
       <path id="m2bc7d41f82" d="M 0 0 
L -3.5 0 
" style="stroke: #000000; stroke-width: 0.8"/>
      </defs>
      <g>
       <use xlink:href="#m2bc7d41f82" x="72" y="485.931315" style="stroke: #000000; stroke-width: 0.8"/>
      </g>
     </g>
     <g id="text_1">
      <!-- 0 -->
      <g transform="translate(58.6375 489.730534) scale(0.1 -0.1)">
       <defs>
        <path id="DejaVuSans-30" d="M 2034 4250 
Q 1547 4250 1301 3770 
Q 1056 3291 1056 2328 
Q 1056 1369 1301 889 
Q 1547 409 2034 409 
Q 2525 409 2770 889 
Q 3016 1369 3016 2328 
Q 3016 3291 2770 3770 
Q 2525 4250 2034 4250 
z
M 2034 4750 
Q 2819 4750 3233 4129 
Q 3647 3509 3647 2328 
Q 3647 1150 3233 529 
Q 2819 -91 2034 -91 
Q 1250 -91 836 529 
Q 422 1150 422 2328 
Q 422 3509 836 4129 
Q 1250 4750 2034 4750 
z
" transform="scale(0.015625)"/>
       </defs>
       <use xlink:href="#DejaVuSans-30"/>
      </g>
     </g>
    </g>
    <g id="ytick_2">
     <g id="line2d_7">
      <g>
       <use xlink:href="#m2bc7d41f82" x="72" y="395.374638" style="stroke: #000000; stroke-width: 0.8"/>
      </g>
     </g>
     <g id="text_2">
      <!-- 10000 -->
      <g transform="translate(33.1875 399.173857) scale(0.1 -0.1)">
       <defs>
        <path id="DejaVuSans-31" d="M 794 531 
L 1825 531 
L 1825 4091 
L 703 3866 
L 703 4441 
L 1819 4666 
L 2450 4666 
L 2450 531 
L 3481 531 
L 3481 0 
L 794 0 
L 794 531 
z
" transform="scale(0.015625)"/>
       </defs>
       <use xlink:href="#DejaVuSans-31"/>
       <use xlink:href="#DejaVuSans-30" transform="translate(63.623047 0)"/>
       <use xlink:href="#DejaVuSans-30" transform="translate(127.246094 0)"/>
       <use xlink:href="#DejaVuSans-30" transform="translate(190.869141 0)"/>
       <use xlink:href="#DejaVuSans-30" transform="translate(254.492188 0)"/>
      </g>
     </g>
    </g>
    <g id="ytick_3">
     <g id="line2d_8">
      <g>
       <use xlink:href="#m2bc7d41f82" x="72" y="304.817962" style="stroke: #000000; stroke-width: 0.8"/>
      </g>
     </g>
     <g id="text_3">
      <!-- 20000 -->
      <g transform="translate(33.1875 308.61718) scale(0.1 -0.1)">
       <defs>
        <path id="DejaVuSans-32" d="M 1228 531 
L 3431 531 
L 3431 0 
L 469 0 
L 469 531 
Q 828 903 1448 1529 
Q 2069 2156 2228 2338 
Q 2531 2678 2651 2914 
Q 2772 3150 2772 3378 
Q 2772 3750 2511 3984 
Q 2250 4219 1831 4219 
Q 1534 4219 1204 4116 
Q 875 4013 500 3803 
L 500 4441 
Q 881 4594 1212 4672 
Q 1544 4750 1819 4750 
Q 2544 4750 2975 4387 
Q 3406 4025 3406 3419 
Q 3406 3131 3298 2873 
Q 3191 2616 2906 2266 
Q 2828 2175 2409 1742 
Q 1991 1309 1228 531 
z
" transform="scale(0.015625)"/>
       </defs>
       <use xlink:href="#DejaVuSans-32"/>
       <use xlink:href="#DejaVuSans-30" transform="translate(63.623047 0)"/>
       <use xlink:href="#DejaVuSans-30" transform="translate(127.246094 0)"/>
       <use xlink:href="#DejaVuSans-30" transform="translate(190.869141 0)"/>
       <use xlink:href="#DejaVuSans-30" transform="translate(254.492188 0)"/>
      </g>
     </g>
    </g>
    <g id="ytick_4">
     <g id="line2d_9">
      <g>
       <use xlink:href="#m2bc7d41f82" x="72" y="214.261285" style="stroke: #000000; stroke-width: 0.8"/>
      </g>
     </g>
     <g id="text_4">
      <!-- 30000 -->
      <g transform="translate(33.1875 218.060504) scale(0.1 -0.1)">
       <defs>
        <path id="DejaVuSans-33" d="M 2597 2516 
Q 3050 2419 3304 2112 
Q 3559 1806 3559 1356 
Q 3559 666 3084 287 
Q 2609 -91 1734 -91 
Q 1441 -91 1130 -33 
Q 819 25 488 141 
L 488 750 
Q 750 597 1062 519 
Q 1375 441 1716 441 
Q 2309 441 2620 675 
Q 2931 909 2931 1356 
Q 2931 1769 2642 2001 
Q 2353 2234 1838 2234 
L 1294 2234 
L 1294 2753 
L 1863 2753 
Q 2328 2753 2575 2939 
Q 2822 3125 2822 3475 
Q 2822 3834 2567 4026 
Q 2313 4219 1838 4219 
Q 1578 4219 1281 4162 
Q 984 4106 628 3988 
L 628 4550 
Q 988 4650 1302 4700 
Q 1616 4750 1894 4750 
Q 2613 4750 3031 4423 
Q 3450 4097 3450 3541 
Q 3450 3153 3228 2886 
Q 3006 2619 2597 2516 
z
" transform="scale(0.015625)"/>
       </defs>
       <use xlink:href="#DejaVuSans-33"/>
       <use xlink:href="#DejaVuSans-30" transform="translate(63.623047 0)"/>
       <use xlink:href="#DejaVuSans-30" transform="translate(127.246094 0)"/>
       <use xlink:href="#DejaVuSans-30" transform="translate(190.869141 0)"/>
       <use xlink:href="#DejaVuSans-30" transform="translate(254.492188 0)"/>
      </g>
     </g>
    </g>
    <g id="ytick_5">
     <g id="line2d_10">
      <g>
       <use xlink:href="#m2bc7d41f82" x="72" y="123.704608" style="stroke: #000000; stroke-width: 0.8"/>
      </g>
     </g>
     <g id="text_5">
      <!-- 40000 -->
      <g transform="translate(33.1875 127.503827) scale(0.1 -0.1)">
       <defs>
        <path id="DejaVuSans-34" d="M 2419 4116 
L 825 1625 
L 2419 1625 
L 2419 4116 
z
M 2253 4666 
L 3047 4666 
L 3047 1625 
L 3713 1625 
L 3713 1100 
L 3047 1100 
L 3047 0 
L 2419 0 
L 2419 1100 
L 313 1100 
L 313 1709 
L 2253 4666 
z
" transform="scale(0.015625)"/>
       </defs>
       <use xlink:href="#DejaVuSans-34"/>
       <use xlink:href="#DejaVuSans-30" transform="translate(63.623047 0)"/>
       <use xlink:href="#DejaVuSans-30" transform="translate(127.246094 0)"/>
       <use xlink:href="#DejaVuSans-30" transform="translate(190.869141 0)"/>
       <use xlink:href="#DejaVuSans-30" transform="translate(254.492188 0)"/>
      </g>
     </g>
    </g>
    <g id="text_6">
     <!-- Intensitiy (a.u.) -->
     <g transform="translate(27.107812 334.453125) rotate(-90) scale(0.1 -0.1)">
      <defs>
       <path id="DejaVuSans-49" d="M 628 4666 
L 1259 4666 
L 1259 0 
L 628 0 
L 628 4666 
z
" transform="scale(0.015625)"/>
       <path id="DejaVuSans-6e" d="M 3513 2113 
L 3513 0 
L 2938 0 
L 2938 2094 
Q 2938 2591 2744 2837 
Q 2550 3084 2163 3084 
Q 1697 3084 1428 2787 
Q 1159 2491 1159 1978 
L 1159 0 
L 581 0 
L 581 3500 
L 1159 3500 
L 1159 2956 
Q 1366 3272 1645 3428 
Q 1925 3584 2291 3584 
Q 2894 3584 3203 3211 
Q 3513 2838 3513 2113 
z
" transform="scale(0.015625)"/>
       <path id="DejaVuSans-74" d="M 1172 4494 
L 1172 3500 
L 2356 3500 
L 2356 3053 
L 1172 3053 
L 1172 1153 
Q 1172 725 1289 603 
Q 1406 481 1766 481 
L 2356 481 
L 2356 0 
L 1766 0 
Q 1100 0 847 248 
Q 594 497 594 1153 
L 594 3053 
L 172 3053 
L 172 3500 
L 594 3500 
L 594 4494 
L 1172 4494 
z
" transform="scale(0.015625)"/>
       <path id="DejaVuSans-65" d="M 3597 1894 
L 3597 1613 
L 953 1613 
Q 991 1019 1311 708 
Q 1631 397 2203 397 
Q 2534 397 2845 478 
Q 3156 559 3463 722 
L 3463 178 
Q 3153 47 2828 -22 
Q 2503 -91 2169 -91 
Q 1331 -91 842 396 
Q 353 884 353 1716 
Q 353 2575 817 3079 
Q 1281 3584 2069 3584 
Q 2775 3584 3186 3129 
Q 3597 2675 3597 1894 
z
M 3022 2063 
Q 3016 2534 2758 2815 
Q 2500 3097 2075 3097 
Q 1594 3097 1305 2825 
Q 1016 2553 972 2059 
L 3022 2063 
z
" transform="scale(0.015625)"/>
       <path id="DejaVuSans-73" d="M 2834 3397 
L 2834 2853 
Q 2591 2978 2328 3040 
Q 2066 3103 1784 3103 
Q 1356 3103 1142 2972 
Q 928 2841 928 2578 
Q 928 2378 1081 2264 
Q 1234 2150 1697 2047 
L 1894 2003 
Q 2506 1872 2764 1633 
Q 3022 1394 3022 966 
Q 3022 478 2636 193 
Q 2250 -91 1575 -91 
Q 1294 -91 989 -36 
Q 684 19 347 128 
L 347 722 
Q 666 556 975 473 
Q 1284 391 1588 391 
Q 1994 391 2212 530 
Q 2431 669 2431 922 
Q 2431 1156 2273 1281 
Q 2116 1406 1581 1522 
L 1381 1569 
Q 847 1681 609 1914 
Q 372 2147 372 2553 
Q 372 3047 722 3315 
Q 1072 3584 1716 3584 
Q 2034 3584 2315 3537 
Q 2597 3491 2834 3397 
z
" transform="scale(0.015625)"/>
       <path id="DejaVuSans-69" d="M 603 3500 
L 1178 3500 
L 1178 0 
L 603 0 
L 603 3500 
z
M 603 4863 
L 1178 4863 
L 1178 4134 
L 603 4134 
L 603 4863 
z
" transform="scale(0.015625)"/>
       <path id="DejaVuSans-79" d="M 2059 -325 
Q 1816 -950 1584 -1140 
Q 1353 -1331 966 -1331 
L 506 -1331 
L 506 -850 
L 844 -850 
Q 1081 -850 1212 -737 
Q 1344 -625 1503 -206 
L 1606 56 
L 191 3500 
L 800 3500 
L 1894 763 
L 2988 3500 
L 3597 3500 
L 2059 -325 
z
" transform="scale(0.015625)"/>
       <path id="DejaVuSans-20" transform="scale(0.015625)"/>
       <path id="DejaVuSans-28" d="M 1984 4856 
Q 1566 4138 1362 3434 
Q 1159 2731 1159 2009 
Q 1159 1288 1364 580 
Q 1569 -128 1984 -844 
L 1484 -844 
Q 1016 -109 783 600 
Q 550 1309 550 2009 
Q 550 2706 781 3412 
Q 1013 4119 1484 4856 
L 1984 4856 
z
" transform="scale(0.015625)"/>
       <path id="DejaVuSans-61" d="M 2194 1759 
Q 1497 1759 1228 1600 
Q 959 1441 959 1056 
Q 959 750 1161 570 
Q 1363 391 1709 391 
Q 2188 391 2477 730 
Q 2766 1069 2766 1631 
L 2766 1759 
L 2194 1759 
z
M 3341 1997 
L 3341 0 
L 2766 0 
L 2766 531 
Q 2569 213 2275 61 
Q 1981 -91 1556 -91 
Q 1019 -91 701 211 
Q 384 513 384 1019 
Q 384 1609 779 1909 
Q 1175 2209 1959 2209 
L 2766 2209 
L 2766 2266 
Q 2766 2663 2505 2880 
Q 2244 3097 1772 3097 
Q 1472 3097 1187 3025 
Q 903 2953 641 2809 
L 641 3341 
Q 956 3463 1253 3523 
Q 1550 3584 1831 3584 
Q 2591 3584 2966 3190 
Q 3341 2797 3341 1997 
z
" transform="scale(0.015625)"/>
       <path id="DejaVuSans-2e" d="M 684 794 
L 1344 794 
L 1344 0 
L 684 0 
L 684 794 
z
" transform="scale(0.015625)"/>
       <path id="DejaVuSans-75" d="M 544 1381 
L 544 3500 
L 1119 3500 
L 1119 1403 
Q 1119 906 1312 657 
Q 1506 409 1894 409 
Q 2359 409 2629 706 
Q 2900 1003 2900 1516 
L 2900 3500 
L 3475 3500 
L 3475 0 
L 2900 0 
L 2900 538 
Q 2691 219 2414 64 
Q 2138 -91 1772 -91 
Q 1169 -91 856 284 
Q 544 659 544 1381 
z
M 1991 3584 
L 1991 3584 
z
" transform="scale(0.015625)"/>
       <path id="DejaVuSans-29" d="M 513 4856 
L 1013 4856 
Q 1481 4119 1714 3412 
Q 1947 2706 1947 2009 
Q 1947 1309 1714 600 
Q 1481 -109 1013 -844 
L 513 -844 
Q 928 -128 1133 580 
Q 1338 1288 1338 2009 
Q 1338 2731 1133 3434 
Q 928 4138 513 4856 
z
" transform="scale(0.015625)"/>
      </defs>
      <use xlink:href="#DejaVuSans-49"/>
      <use xlink:href="#DejaVuSans-6e" transform="translate(29.492188 0)"/>
      <use xlink:href="#DejaVuSans-74" transform="translate(92.871094 0)"/>
      <use xlink:href="#DejaVuSans-65" transform="translate(132.080078 0)"/>
      <use xlink:href="#DejaVuSans-6e" transform="translate(193.603516 0)"/>
      <use xlink:href="#DejaVuSans-73" transform="translate(256.982422 0)"/>
      <use xlink:href="#DejaVuSans-69" transform="translate(309.082031 0)"/>
      <use xlink:href="#DejaVuSans-74" transform="translate(336.865234 0)"/>
      <use xlink:href="#DejaVuSans-69" transform="translate(376.074219 0)"/>
      <use xlink:href="#DejaVuSans-79" transform="translate(403.857422 0)"/>
      <use xlink:href="#DejaVuSans-20" transform="translate(463.037109 0)"/>
      <use xlink:href="#DejaVuSans-28" transform="translate(494.824219 0)"/>
      <use xlink:href="#DejaVuSans-61" transform="translate(533.837891 0)"/>
      <use xlink:href="#DejaVuSans-2e" transform="translate(595.117188 0)"/>
      <use xlink:href="#DejaVuSans-75" transform="translate(626.904297 0)"/>
      <use xlink:href="#DejaVuSans-2e" transform="translate(690.283203 0)"/>
      <use xlink:href="#DejaVuSans-29" transform="translate(722.070312 0)"/>
     </g>
    </g>
   </g>
   <g id="line2d_11">
    <path d="M 518.29584 486.960397 
L 517.07568 487.219046 
L 516.4656 486.719002 
L 515.85552 486.544962 
L 515.24544 486.669759 
L 514.63536 486.061047 
L 514.03024 486.892203 
L 513.42016 485.93032 
L 512.81504 486.453582 
L 510.99968 486.257515 
L 509.7944 485.87326 
L 509.19424 486.14298 
L 508.58912 485.905567 
L 507.98896 485.867394 
L 507.3888 486.109947 
L 506.7936 485.365448 
L 506.19344 485.707614 
L 504.99808 485.341503 
L 504.40288 485.366736 
L 503.80768 485.011631 
L 503.21248 485.2542 
L 502.61728 485.143598 
L 502.02208 485.223165 
L 501.43184 484.895243 
L 500.83664 484.992922 
L 500.2464 484.918559 
L 499.65616 484.337078 
L 499.06592 484.67022 
L 498.47568 484.577746 
L 497.88544 484.802219 
L 497.30016 484.537703 
L 496.70992 483.974334 
L 496.12464 484.805554 
L 495.53936 484.323702 
L 494.95408 484.819862 
L 494.3688 484.238397 
L 493.78352 484.154995 
L 493.2032 483.62788 
L 492.61792 484.105929 
L 492.0376 483.642204 
L 491.45728 483.486372 
L 490.87696 483.593155 
L 490.29664 483.509768 
L 489.136 483.026047 
L 488.56064 483.178124 
L 487.98528 482.832139 
L 487.40496 483.002311 
L 486.8296 482.50238 
L 486.25424 482.319397 
L 485.67888 482.525808 
L 485.10848 482.306618 
L 484.53312 481.679908 
L 483.96272 482.56551 
L 483.38736 481.857298 
L 482.81696 480.913656 
L 482.24656 481.817369 
L 481.67616 481.408011 
L 481.11072 481.750289 
L 480.54032 481.042093 
L 479.96992 481.864306 
L 479.40448 480.830122 
L 478.83904 480.873563 
L 478.2736 480.038605 
L 477.70816 480.915167 
L 477.14272 479.808539 
L 476.57728 479.661811 
L 476.01184 479.904476 
L 475.45136 479.458928 
L 474.89088 480.091003 
L 474.32544 479.337546 
L 473.76496 479.734174 
L 473.20448 479.36107 
L 472.64896 479.395488 
L 472.08848 478.234541 
L 471.528 479.228844 
L 470.97248 478.321472 
L 470.41696 478.763395 
L 469.85648 477.49378 
L 469.30096 478.17115 
L 468.74544 477.345279 
L 468.19488 477.687606 
L 467.63936 477.051904 
L 467.08384 477.167823 
L 464.8816 475.603092 
L 464.33104 476.57026 
L 463.78048 476.731473 
L 462.68432 475.777066 
L 462.13376 474.51654 
L 461.58816 475.148663 
L 461.04256 475.282726 
L 460.49696 473.288706 
L 459.95136 475.333514 
L 458.86016 474.623627 
L 458.31952 473.634802 
L 457.77392 472.926687 
L 457.23328 473.640328 
L 456.69264 473.375957 
L 455.61136 472.077484 
L 455.07072 472.718679 
L 454.53008 471.956247 
L 453.9944 471.655669 
L 453.45376 471.635801 
L 452.91808 470.302877 
L 452.3824 470.672419 
L 451.84672 470.199784 
L 451.31104 469.989763 
L 450.77536 470.069523 
L 450.23968 469.560665 
L 449.70896 469.504607 
L 449.17328 469.249308 
L 448.64256 468.179015 
L 448.11184 467.525282 
L 447.57616 467.269983 
L 447.04544 467.150535 
L 446.51472 465.79046 
L 445.98896 466.875432 
L 445.45824 466.891819 
L 444.93248 466.20188 
L 444.40176 465.883207 
L 443.876 465.944888 
L 443.35024 466.242017 
L 442.82448 463.677555 
L 442.29872 464.327855 
L 441.77296 464.661206 
L 441.2472 464.034657 
L 440.72144 463.716 
L 440.20064 464.049367 
L 439.67984 461.575478 
L 438.63328 462.704036 
L 438.11248 462.222393 
L 437.07584 461.720963 
L 436.55504 459.67269 
L 436.03424 459.689109 
L 435.5184 459.107871 
L 435.00256 459.069972 
L 434.48176 459.367117 
L 433.96592 457.237359 
L 433.45008 457.715633 
L 432.93424 457.125339 
L 432.42336 456.335836 
L 431.90752 455.808931 
L 431.39664 456.712838 
L 430.8808 455.60637 
L 430.36992 455.160982 
L 429.85904 454.199422 
L 429.34816 452.594908 
L 428.83728 453.770485 
L 428.3264 453.714491 
L 427.81552 453.269104 
L 427.30464 451.673646 
L 426.79872 452.631903 
L 426.28784 452.7208 
L 425.78192 451.306472 
L 424.77008 449.573552 
L 424.26416 449.870745 
L 423.75824 448.746198 
L 423.25232 447.974823 
L 422.75136 448.226754 
L 422.24544 446.097028 
L 421.74448 445.289446 
L 421.24352 445.985104 
L 420.7376 446.064961 
L 420.23664 444.822707 
L 419.73568 445.056527 
L 418.73872 441.711746 
L 418.23776 441.628617 
L 417.74176 441.319113 
L 417.2408 440.574921 
L 416.7448 439.522852 
L 416.2488 439.638964 
L 415.74784 439.610169 
L 415.25184 438.739213 
L 414.7608 438.574616 
L 414.2648 436.82526 
L 413.7688 438.272555 
L 413.27776 436.405492 
L 412.78176 436.222767 
L 411.79968 433.874158 
L 411.30368 434.38872 
L 410.81264 434.097343 
L 410.3216 433.353183 
L 409.83552 431.911752 
L 409.34448 431.946379 
L 408.85344 430.450599 
L 407.39024 428.363041 
L 406.90416 429.656422 
L 406.41808 426.720806 
L 405.932 426.130609 
L 405.44592 424.589566 
L 404.95984 426.498732 
L 404.47872 424.260419 
L 403.99264 424.539565 
L 403.51152 423.034761 
L 403.02544 422.372118 
L 402.54432 422.551668 
L 402.0632 420.503524 
L 401.58208 420.9638 
L 401.10096 418.0282 
L 400.61984 417.754967 
L 400.13872 418.876306 
L 399.18144 415.721824 
L 398.70528 415.828945 
L 398.22416 415.456099 
L 397.748 413.507583 
L 397.27184 412.328799 
L 396.79568 411.82919 
L 395.84336 408.774336 
L 395.3672 411.208764 
L 394.896 407.313295 
L 394.41984 406.523905 
L 393.94864 406.766877 
L 393.47744 406.412175 
L 393.00128 404.907387 
L 392.53008 404.344405 
L 392.05888 403.491641 
L 391.58768 400.845855 
L 391.11648 400.083648 
L 390.65024 399.067898 
L 390.17904 399.328981 
L 389.7128 397.117884 
L 389.2416 397.867973 
L 388.77536 398.147184 
L 387.84288 394.893169 
L 387.37664 394.384537 
L 386.9104 393.586123 
L 386.44416 390.569071 
L 385.51168 388.24779 
L 385.0504 388.354959 
L 384.58416 387.284876 
L 384.12288 387.102264 
L 383.6616 385.33491 
L 383.20032 385.632248 
L 382.73904 384.489735 
L 382.27776 382.957828 
L 381.81648 384.088288 
L 380.4376 378.206679 
L 379.97632 380.604932 
L 379.52 375.659055 
L 378.60736 377.231776 
L 378.14608 375.853816 
L 377.68976 373.298635 
L 377.2384 372.065597 
L 376.32576 370.948785 
L 375.86944 369.380672 
L 375.41808 369.433539 
L 374.96176 367.892593 
L 374.5104 367.94546 
L 374.05904 363.361826 
L 373.60768 364.447039 
L 373.15632 363.25928 
L 372.70496 364.62522 
L 371.35088 358.010183 
L 370.90448 358.588295 
L 370.45312 355.933518 
L 370.00672 357.879036 
L 369.56032 356.066452 
L 369.11392 353.411691 
L 368.66256 351.879816 
L 368.21616 351.362193 
L 367.76976 351.26113 
L 367.32832 350.10057 
L 366.88192 349.474279 
L 366.43552 348.123534 
L 365.99408 344.916393 
L 365.54768 345.177557 
L 365.10624 344.80484 
L 364.65984 343.399761 
L 364.2184 340.835573 
L 363.77696 339.502956 
L 363.33552 338.623121 
L 362.89408 338.177959 
L 362.45264 338.710809 
L 362.01616 337.441598 
L 361.13328 337.45684 
L 360.6968 335.743901 
L 360.26032 334.728248 
L 359.81888 332.236505 
L 359.3824 335.006121 
L 358.94592 330.748539 
L 358.50944 332.096415 
L 358.07296 327.558108 
L 357.63648 325.274661 
L 357.2 325.879973 
L 356.76848 324.474942 
L 356.332 323.903017 
L 355.90048 325.341466 
L 355.03248 322.096716 
L 354.60096 318.056487 
L 354.16944 320.826119 
L 353.30144 315.063894 
L 352.44336 311.782954 
L 352.01184 308.050617 
L 351.58528 310.566706 
L 351.15376 310.873197 
L 350.7272 306.597536 
L 350.29568 308.796661 
L 349.86912 304.421388 
L 349.44256 305.877964 
L 349.016 302.335812 
L 348.58944 301.003243 
L 348.16288 302.631877 
L 347.73632 301.299308 
L 347.30976 299.323786 
L 346.8832 299.041675 
L 346.4616 297.908346 
L 346.03504 295.298928 
L 345.61344 295.931455 
L 345.19184 293.666168 
L 344.76528 292.35171 
L 344.34368 294.179585 
L 343.50048 290.681358 
L 343.07888 290.335873 
L 342.66224 287.137868 
L 342.24064 285.108029 
L 341.81904 287.596968 
L 341.4024 284.299351 
L 340.9808 283.084521 
L 340.56416 281.48937 
L 340.14256 283.072742 
L 338.89264 278.731016 
L 338.476 276.93664 
L 338.05936 277.32468 
L 337.64272 273.800672 
L 337.23104 274.713956 
L 336.8144 268.717751 
L 335.98608 266.659423 
L 335.5744 266.467916 
L 335.15776 263.333301 
L 334.74608 265.016318 
L 334.3344 262.388837 
L 333.92272 260.884258 
L 333.51104 260.004521 
L 332.68768 261.568476 
L 332.276 259.203609 
L 331.86928 259.673182 
L 331.4576 258.576109 
L 331.05088 256.935711 
L 330.6392 256.00164 
L 330.23248 250.322415 
L 329.82576 251.724722 
L 329.41408 252.348225 
L 329.00736 247.828125 
L 328.60064 250.235612 
L 328.19392 246.295075 
L 327.79216 246.212268 
L 327.38544 245.676662 
L 326.97872 246.526574 
L 326.57696 243.111281 
L 326.17024 243.245795 
L 325.36176 238.950781 
L 324.96 240.434606 
L 324.55824 240.288409 
L 323.74976 233.168028 
L 323.35296 233.764413 
L 322.9512 230.702291 
L 322.14768 227.412473 
L 321.74592 230.843266 
L 321.34912 225.644023 
L 320.94736 230.831616 
L 320.55056 228.457741 
L 320.15376 227.016601 
L 319.752 228.509481 
L 319.3552 228.76175 
L 318.9584 226.731991 
L 318.5616 223.416328 
L 318.1648 222.029521 
L 317.768 215.136869 
L 317.3712 217.843224 
L 316.97936 216.927328 
L 316.58256 213.276605 
L 316.18576 214.950614 
L 315.79392 210.765623 
L 315.40208 213.988167 
L 315.00528 211.107176 
L 314.61344 212.591032 
L 314.2216 210.959739 
L 313.82976 211.22108 
L 313.43792 211.790314 
L 313.04608 206.681644 
L 312.65424 205.919695 
L 312.2624 201.924872 
L 311.87056 199.895129 
L 311.48368 200.663604 
L 311.09184 197.827907 
L 310.7 197.084069 
L 309.92624 202.007838 
L 309.5344 200.421823 
L 309.14752 203.101043 
L 308.76064 200.383086 
L 308.37376 199.349483 
L 307.98688 199.293892 
L 307.6 197.79845 
L 306.8312 190.795921 
L 306.44432 190.803719 
L 306.05744 187.977094 
L 305.67552 186.354888 
L 305.28864 187.286365 
L 304.90672 186.515392 
L 304.5248 186.151925 
L 304.13792 186.79362 
L 303.756 183.405559 
L 303.37408 187.669538 
L 302.99216 189.60621 
L 302.61024 187.793835 
L 301.85136 183.091478 
L 301.46944 177.258387 
L 301.08752 176.505526 
L 300.71056 176.649192 
L 300.32864 174.47459 
L 299.95168 171.294826 
L 299.56976 172.651935 
L 299.1928 173.04916 
L 298.81584 172.43215 
L 298.43888 171.298967 
L 298.06192 173.163209 
L 297.68496 172.129638 
L 297.308 171.630352 
L 296.93104 169.654991 
L 296.55408 169.825824 
L 296.17712 170.376995 
L 295.80512 164.145487 
L 295.05616 159.597108 
L 294.6792 156.399233 
L 294.3072 157.131533 
L 293.93024 154.676222 
L 293.55824 158.179557 
L 293.18624 152.174441 
L 292.81424 151.883451 
L 292.44224 151.38418 
L 291.69824 157.919955 
L 291.32624 155.790664 
L 290.9592 155.363855 
L 290.5872 157.708064 
L 290.22016 153.776712 
L 289.84816 156.772929 
L 289.48112 154.208983 
L 289.10912 145.894671 
L 288.74208 147.441998 
L 288.37504 144.606381 
L 288.00304 144.043721 
L 287.636 145.446157 
L 287.26896 143.389328 
L 286.90192 144.112589 
L 286.53984 146.511164 
L 286.1728 146.546194 
L 285.43872 144.968123 
L 285.07664 148.308488 
L 284.7096 147.736788 
L 284.34752 148.079727 
L 283.98048 147.897421 
L 283.6184 139.872923 
L 283.25632 141.664769 
L 282.88928 136.519957 
L 282.5272 134.897816 
L 282.16512 132.062215 
L 281.80304 133.808783 
L 281.44096 130.212506 
L 281.07888 130.075495 
L 280.72176 135.109286 
L 280.35968 137.480694 
L 279.9976 134.889597 
L 279.64048 135.766836 
L 279.2784 136.290888 
L 278.92128 140.880951 
L 278.5592 137.719347 
L 278.20208 138.7777 
L 277.84496 136.829571 
L 277.48288 132.545064 
L 277.12576 132.489569 
L 276.76864 130.06149 
L 276.41152 123.268579 
L 276.0544 125.821117 
L 275.69728 123.076089 
L 275.34512 117.098204 
L 274.63088 121.38827 
L 274.27872 125.24484 
L 273.9216 122.680926 
L 273.56944 125.77682 
L 273.21232 127.921853 
L 272.86016 127.712428 
L 272.508 131.061881 
L 272.15088 127.755402 
L 271.79872 130.670183 
L 271.44656 128.812626 
L 271.0944 127.598023 
L 270.74224 126.863369 
L 270.39008 124.562086 
L 270.04288 119.299615 
L 269.69072 121.770668 
L 269.33856 119.795388 
L 268.99136 116.226327 
L 268.6392 115.428284 
L 268.28704 117.47372 
L 267.93984 116.458357 
L 267.59264 121.510292 
L 267.24048 117.524654 
L 266.89328 120.258337 
L 266.54608 126.840679 
L 266.19888 126.875774 
L 265.85168 127.254984 
L 265.50448 130.767455 
L 264.81008 123.294273 
L 264.46288 121.201285 
L 264.11568 122.332116 
L 263.77344 115.819979 
L 263.42624 112.595033 
L 263.084 114.069995 
L 262.7368 113.670417 
L 262.39456 107.855566 
L 262.04736 105.490909 
L 261.70512 111.883098 
L 261.36288 111.601261 
L 260.6784 118.445121 
L 260.33616 114.821742 
L 259.65168 127.135226 
L 259.30944 128.112127 
L 258.62496 121.508321 
L 258.28768 123.599084 
L 257.94544 122.022286 
L 257.6032 117.801233 
L 257.26592 115.590554 
L 256.92864 109.830053 
L 256.5864 107.655581 
L 256.24912 108.043879 
L 255.91184 109.229076 
L 255.5696 108.041671 
L 255.23232 108.493359 
L 254.89504 110.873903 
L 254.55776 117.392888 
L 254.22048 116.703561 
L 253.8832 119.038828 
L 253.55088 124.099866 
L 253.2136 122.649864 
L 252.87632 123.56339 
L 252.544 131.214349 
L 252.20672 124.358113 
L 251.53712 117.844912 
L 251.2048 117.05599 
L 250.5352 109.673445 
L 250.20288 109.989313 
L 249.87056 111.681643 
L 249.53328 110.69348 
L 248.86864 110.08459 
L 248.54128 113.877851 
L 248.20896 119.581842 
L 247.87664 121.554898 
L 247.54432 127.747895 
L 247.212 131.006856 
L 246.88464 130.63451 
L 246.55232 128.568738 
L 246.22496 130.170527 
L 245.89264 128.99221 
L 245.56528 120.841046 
L 245.23792 116.420816 
L 244.9056 116.347291 
L 244.57824 112.923185 
L 244.25088 113.338682 
L 243.92352 108.918453 
L 243.59616 112.756992 
L 243.2688 114.250114 
L 242.94144 120.914021 
L 242.61408 121.881914 
L 242.28672 131.045186 
L 241.63696 138.260442 
L 241.3096 136.122241 
L 240.9872 138.51189 
L 240.65984 139.407337 
L 240.33744 135.376517 
L 240.01008 133.546209 
L 239.68768 133.110489 
L 239.36528 125.113287 
L 239.03792 123.672372 
L 238.71552 119.578163 
L 238.39312 117.467145 
L 238.07072 121.903375 
L 237.74832 123.351234 
L 236.78112 132.765986 
L 236.45872 138.089671 
L 236.14128 140.379723 
L 235.81888 144.788786 
L 235.49648 145.49408 
L 235.17904 147.802244 
L 234.85664 145.175053 
L 234.5392 149.031736 
L 234.22176 141.586946 
L 233.89936 139.874377 
L 233.58192 139.656009 
L 233.26448 135.172423 
L 232.94704 134.302047 
L 232.62464 129.637331 
L 232.3072 133.050286 
L 231.67232 130.947308 
L 231.35984 131.978639 
L 231.0424 135.726654 
L 230.72496 136.223684 
L 230.40752 141.710387 
L 229.7776 148.454813 
L 229.46016 152.854836 
L 229.14768 160.279468 
L 228.83024 164.38971 
L 228.51776 160.304589 
L 228.20528 161.81587 
L 227.57536 161.478763 
L 227.26288 156.397518 
L 226.9504 155.282656 
L 226.63792 151.586928 
L 226.32544 152.500535 
L 226.01296 145.463266 
L 225.70048 144.23068 
L 225.388 148.594497 
L 225.07552 146.863849 
L 224.768 148.357035 
L 224.45552 149.252531 
L 224.14304 151.107927 
L 223.52304 161.755378 
L 223.21552 165.068753 
L 222.90304 171.125979 
L 222.59552 170.817087 
L 222.28304 177.897604 
L 221.97552 176.248473 
L 221.668 179.85163 
L 221.05296 177.160098 
L 220.74544 175.4023 
L 220.43792 171.416807 
L 220.1304 169.686175 
L 219.82288 169.413506 
L 219.51536 161.841968 
L 219.20784 158.345481 
L 218.90032 163.551491 
L 218.59776 160.806641 
L 217.68016 168.600589 
L 217.37264 172.149412 
L 217.07008 180.144583 
L 216.76752 182.878412 
L 216.46 184.507433 
L 216.15744 190.573747 
L 215.55232 197.95215 
L 214.94224 199.996748 
L 214.33712 197.269026 
L 214.03952 190.331418 
L 213.73696 190.294212 
L 213.4344 185.013775 
L 212.82928 182.095884 
L 212.22912 185.344918 
L 211.93152 183.080034 
L 211.62896 189.544798 
L 211.33136 187.651197 
L 211.0288 188.438057 
L 210.7312 192.973979 
L 210.4336 195.155428 
L 209.53584 210.80976 
L 209.23824 210.736348 
L 208.94064 217.020015 
L 208.64304 214.420071 
L 208.34544 217.633866 
L 208.04784 218.112849 
L 207.75024 217.13387 
L 207.45264 212.713738 
L 207.15504 210.53941 
L 206.8624 207.233141 
L 206.2672 198.184595 
L 205.97456 201.642909 
L 205.67696 203.118016 
L 205.38432 200.509033 
L 204.50144 208.004257 
L 203.32592 223.530907 
L 203.03328 230.385097 
L 202.74064 232.322059 
L 202.448 239.067581 
L 202.15536 235.498697 
L 201.86272 234.112229 
L 201.57008 229.130661 
L 201.2824 232.525601 
L 200.98976 229.80795 
L 200.69712 224.762992 
L 200.40944 225.079006 
L 200.1168 222.125907 
L 199.82416 222.106845 
L 199.53648 215.902778 
L 199.2488 216.925134 
L 198.95616 220.854343 
L 198.66848 219.984064 
L 198.3808 222.69983 
L 198.08816 227.498383 
L 197.80048 226.048541 
L 197.5128 232.884635 
L 197.22512 235.301564 
L 196.93744 239.774129 
L 196.64976 246.09405 
L 196.36208 244.8706 
L 196.0744 253.970612 
L 195.78672 254.839021 
L 195.49904 260.054151 
L 195.21136 259.582322 
L 194.92864 259.780628 
L 194.64096 263.438183 
L 193.50016 249.171799 
L 193.21248 248.890139 
L 192.92976 245.611069 
L 192.64208 244.532509 
L 192.35936 244.259921 
L 192.07664 244.186557 
L 191.79392 244.538809 
L 191.22352 253.873349 
L 190.9408 254.660274 
L 190.37536 265.914631 
L 189.80992 270.078401 
L 189.24944 278.434961 
L 188.96672 280.308566 
L 188.684 283.169238 
L 188.12352 280.459773 
L 187.8408 280.295852 
L 187.56304 278.855098 
L 187.00256 271.871357 
L 186.7248 269.01792 
L 186.44208 271.308085 
L 186.16432 264.587877 
L 185.88656 266.044937 
L 185.6088 265.645585 
L 185.32608 265.635611 
L 185.04832 267.672233 
L 184.77056 268.060725 
L 184.4928 276.02881 
L 184.21504 274.868782 
L 183.93728 277.113685 
L 183.38176 285.66043 
L 183.10896 289.245588 
L 182.8312 296.615999 
L 182.55344 299.413298 
L 182.27568 304.284345 
L 181.45232 300.414899 
L 181.17456 300.015547 
L 180.90176 292.978407 
L 180.624 296.789941 
L 180.3512 290.495365 
L 180.0784 287.868335 
L 179.80064 286.427582 
L 179.52784 287.350373 
L 179.25504 291.225313 
L 178.98224 289.639685 
L 178.70944 291.178262 
L 178.43664 296.909613 
L 178.16384 298.076908 
L 177.07264 317.543048 
L 176.79984 322.14244 
L 176.2592 323.861261 
L 175.9864 323.38948 
L 175.7136 324.402828 
L 175.44576 323.170387 
L 175.17296 317.419151 
L 174.90512 317.200945 
L 174.63232 314.98142 
L 174.36448 309.465648 
L 174.09168 309.78171 
L 173.556 307.669999 
L 173.28816 308.0223 
L 173.01536 308.800201 
L 171.67616 327.097354 
L 171.40832 335.817092 
L 171.14048 334.693319 
L 170.87264 337.934377 
L 170.6048 338.277623 
L 170.34192 343.076272 
L 170.07408 340.503592 
L 169.80624 335.531161 
L 169.54336 337.214661 
L 169.00768 334.043436 
L 168.7448 331.090435 
L 168.47696 330.863173 
L 168.21408 330.826096 
L 167.94624 327.610463 
L 167.68336 330.226697 
L 167.1576 329.083975 
L 166.88976 329.925282 
L 166.62688 334.533762 
L 166.364 335.193972 
L 166.10112 335.175006 
L 165.57536 345.188867 
L 164.78672 356.931505 
L 164.52384 358.279945 
L 164.26096 361.385185 
L 163.99808 359.872035 
L 163.74016 359.327856 
L 163.47728 355.433065 
L 163.2144 355.522768 
L 162.95648 352.642227 
L 162.6936 351.083798 
L 162.43072 348.465856 
L 162.1728 347.342115 
L 161.90992 347.422762 
L 161.652 345.293842 
L 161.39408 344.921722 
L 160.87328 346.34177 
L 160.61536 344.765245 
L 160.35248 351.148637 
L 160.09456 352.433704 
L 159.83664 355.185789 
L 159.57872 359.45017 
L 159.3208 360.03795 
L 158.80496 370.269179 
L 158.54704 370.66679 
L 158.0312 373.05581 
L 157.77328 375.835062 
L 157.52032 376.785085 
L 157.2624 375.317229 
L 157.00448 376.231014 
L 156.74656 373.622143 
L 156.4936 372.262971 
L 156.23568 372.515692 
L 155.98272 372.523926 
L 155.7248 366.971963 
L 155.47184 367.188477 
L 155.21392 365.276894 
L 154.96096 365.52963 
L 154.45008 363.970396 
L 154.19712 368.560797 
L 153.94416 368.659588 
L 153.68624 369.763541 
L 153.18032 372.922325 
L 152.92736 379.142747 
L 152.6744 380.799112 
L 152.42144 384.538281 
L 152.16848 385.080799 
L 151.91552 389.46292 
L 151.66256 389.779047 
L 151.15664 393.780008 
L 150.90864 393.480365 
L 150.65568 391.650298 
L 150.40272 394.474845 
L 149.90176 387.083792 
L 149.6488 387.734978 
L 149.4008 383.695345 
L 149.14784 385.4151 
L 148.64688 384.625629 
L 148.39888 381.745121 
L 148.15088 380.920249 
L 147.89792 384.360581 
L 147.64992 382.92898 
L 147.40192 385.816932 
L 147.14896 386.305116 
L 146.90096 387.535881 
L 146.15696 398.880215 
L 145.90896 399.132968 
L 145.66096 401.432302 
L 145.41296 404.908873 
L 145.16496 405.958524 
L 144.91696 408.583862 
L 144.42592 408.573211 
L 144.17792 405.620257 
L 143.92992 407.258527 
L 143.68192 404.658745 
L 143.43888 403.308661 
L 143.19088 400.708878 
L 142.94288 402.627874 
L 142.45184 400.724588 
L 142.2088 398.948888 
L 141.96576 400.74112 
L 141.71776 400.215086 
L 141.47472 401.853372 
L 141.22672 401.417894 
L 140.98368 402.630564 
L 140.4976 408.53328 
L 140.2496 407.762742 
L 140.00656 413.267799 
L 139.76352 414.851751 
L 139.52048 417.27788 
L 139.27744 417.40387 
L 139.0344 421.278906 
L 138.79136 420.626108 
L 138.54832 421.014712 
L 138.30528 422.598664 
L 138.06224 420.288679 
L 137.82416 419.119724 
L 137.58112 420.314283 
L 137.33808 416.836117 
L 137.09504 415.649035 
L 136.85696 417.332615 
L 136.37088 414.080051 
L 135.88976 415.319114 
L 135.65168 415.182506 
L 135.40864 416.087283 
L 135.17056 416.113676 
L 134.93248 417.172416 
L 134.68944 419.698157 
L 134.45136 420.104889 
L 134.21328 421.064016 
L 133.73216 426.631688 
L 133.256 430.225241 
L 132.77984 433.121508 
L 132.54176 432.984899 
L 132.30368 433.663301 
L 132.0656 432.738849 
L 131.82752 433.75231 
L 131.35136 430.66278 
L 131.11328 428.796539 
L 130.8752 429.746611 
L 130.63712 428.4871 
L 130.404 428.269006 
L 130.16592 426.828381 
L 129.92784 427.19889 
L 129.69472 426.944574 
L 129.45664 429.234884 
L 129.22352 429.632576 
L 128.98544 431.814219 
L 128.75232 432.918253 
L 127.80992 439.471494 
L 127.33872 441.217707 
L 127.1056 443.236363 
L 126.87248 442.483985 
L 126.63936 443.243904 
L 126.40624 442.971476 
L 126.16816 443.504987 
L 125.93504 440.805641 
L 125.4688 440.786015 
L 125.00256 438.529638 
L 124.76944 439.063165 
L 124.54128 437.695018 
L 124.30816 438.57266 
L 124.07504 438.3274 
L 123.84192 438.969595 
L 123.6088 440.36341 
L 123.38064 440.254001 
L 122.45312 447.730969 
L 122.22496 446.74316 
L 121.99184 449.875663 
L 121.76368 448.62524 
L 121.53056 450.345059 
L 121.3024 450.670322 
L 121.06928 450.579008 
L 120.84112 450.351875 
L 120.61296 449.391233 
L 120.37984 449.218417 
L 120.15168 448.773948 
L 119.92352 446.482123 
L 119.69536 446.644384 
L 119.4672 447.721267 
L 119.23904 447.032295 
L 119.00592 447.113038 
L 118.5496 447.546228 
L 118.32144 448.088826 
L 118.09328 449.935441 
L 117.64192 451.944333 
L 117.41376 450.594297 
L 117.1856 453.953208 
L 116.95744 454.595419 
L 116.72928 453.824946 
L 116.50608 455.879858 
L 116.27792 455.707059 
L 115.82656 457.824618 
L 115.5984 458.06838 
L 115.3752 459.090945 
L 115.14704 459.044926 
L 114.69568 457.069323 
L 114.47248 457.811163 
L 114.24432 457.113135 
L 114.02112 455.473334 
L 113.79792 455.372997 
L 113.56976 456.540436 
L 113.34656 455.389641 
L 113.12336 455.407027 
L 112.90016 455.714195 
L 112.672 455.749676 
L 112.4488 456.708852 
L 112.2256 456.834906 
L 111.3328 461.097225 
L 111.1096 461.24139 
L 110.6632 463.576302 
L 110.44 463.349185 
L 110.22176 465.24111 
L 109.99856 465.955783 
L 109.77536 465.366439 
L 109.55216 465.58305 
L 109.33392 465.419339 
L 109.11072 465.717451 
L 108.88752 465.508445 
L 108.66928 465.851851 
L 108.44608 464.936504 
L 108.22784 465.904751 
L 108.00464 463.703499 
L 107.7864 463.159449 
L 107.5632 464.245404 
L 107.12176 462.025331 
L 106.90352 462.993579 
L 106.68528 462.485752 
L 106.46208 464.033546 
L 106.24384 463.933225 
L 106.0256 465.001084 
L 105.80736 465.036598 
L 105.58416 466.077274 
L 105.36592 465.804895 
L 105.14768 467.660598 
L 104.49296 469.596384 
L 104.27472 470.21146 
L 104.05648 470.219807 
L 103.83824 471.604615 
L 103.62 471.730685 
L 103.40176 472.336705 
L 102.97024 471.031287 
L 102.752 471.084912 
L 102.31552 470.313762 
L 102.10224 469.398447 
L 101.884 470.656475 
L 101.66576 469.741144 
L 101.45248 470.618851 
L 101.23424 470.129135 
L 101.02096 469.956385 
L 100.80272 470.236401 
L 100.58944 468.478909 
L 100.3712 470.506669 
L 100.15792 471.221374 
L 99.94464 471.311238 
L 99.7264 471.12036 
L 98.86832 473.263765 
L 98.65504 473.226849 
L 98.44176 473.941554 
L 98.01024 474.383879 
L 97.79696 475.786815 
L 97.58368 476.075903 
L 97.3704 475.613371 
L 97.15712 477.034418 
L 96.94384 476.526608 
L 96.73056 476.571193 
L 96.51728 476.162995 
L 96.30896 477.022607 
L 96.09568 476.994747 
L 95.66912 475.544454 
L 95.45584 476.204824 
L 95.24752 475.615529 
L 95.03424 475.433723 
L 94.82096 476.18465 
L 94.61264 475.486687 
L 94.39936 475.648996 
L 94.18608 475.322299 
L 93.97776 476.091354 
L 93.76448 475.6741 
L 93.55616 476.180541 
L 93.13456 476.161059 
L 92.92624 477.48251 
L 92.71296 477.717264 
L 92.29632 478.530921 
L 92.08304 478.820009 
L 91.87472 479.335505 
L 91.6664 479.488775 
L 91.45808 480.592889 
L 91.2448 479.83152 
L 91.03648 480.73641 
L 90.82816 479.956946 
L 90.61984 481.18784 
L 90.2032 479.982082 
L 89.99488 480.959417 
L 89.78656 480.035063 
L 89.57824 479.735549 
L 89.36992 480.151432 
L 89.1616 479.942475 
L 88.95328 480.131967 
L 88.74496 479.44306 
L 88.5416 479.58729 
L 88.33328 479.957895 
L 88.12496 479.993441 
L 87.91664 479.784484 
L 87.50496 480.118206 
L 87.09328 481.239771 
L 86.88496 480.451251 
L 86.6816 480.649815 
L 86.47328 482.025599 
L 86.26992 481.762324 
L 86.0616 482.685326 
L 85.85824 482.132269 
L 85.44656 482.728606 
L 85.2432 483.724068 
L 85.03488 483.306831 
L 84.83152 483.668397 
L 84.62816 483.332676 
L 84.4248 483.32296 
L 84.21648 484.019569 
L 84.01312 483.176731 
L 83.80976 483.728466 
L 83.6064 483.374635 
L 83.40304 483.582254 
L 83.19968 483.174088 
L 82.99632 483.644322 
L 82.5896 483.054382 
L 82.38624 483.316336 
L 82.18288 483.252286 
L 81.97952 483.758742 
L 81.5728 482.562072 
L 81.17104 483.855728 
L 80.96768 483.619619 
L 80.76432 483.736682 
L 80.56592 484.098264 
L 80.36256 483.925546 
L 79.75744 485.028371 
L 79.55408 484.737929 
L 79.35568 484.782563 
L 78.75056 485.831054 
L 78.55216 485.785131 
L 78.35376 485.29548 
L 78.1504 485.801937 
L 77.952 485.837515 
L 77.55024 485.265703 
L 77.35184 485.844621 
L 77.15344 485.047077 
L 76.95504 485.580717 
L 76.75168 485.435166 
L 76.55328 485.977861 
L 76.35488 485.48821 
L 76.15648 485.605289 
L 75.75968 485.341386 
L 75.56128 485.431298 
L 75.16448 486.118239 
L 74.96608 485.972704 
L 74.76768 486.080727 
L 74.56928 486.52381 
L 74.37088 486.332997 
L 74.17744 487.056822 
L 73.97904 486.947509 
L 73.78064 487.309091 
L 73.58224 486.565882 
L 73.3888 486.963702 
L 72.79856 487.043286 
L 72.60016 486.906806 
L 72.40176 487.277444 
L 72.20832 487.195314 
L 72.00992 486.877721 
L 72.00992 486.877721 
" clip-path="url(#p7976473899)" style="fill: none; stroke-dasharray: 3.7,1.6; stroke-dashoffset: 0; stroke: #1fa187"/>
   </g>
   <g id="line2d_12">
    <path d="M 72.00992 476.427737 
L 76.481723 474.674249 
L 80.953526 472.650554 
L 84.530968 470.816316 
L 88.10841 468.772809 
L 91.685852 466.502917 
L 95.263295 463.989087 
L 98.840737 461.213467 
L 102.418179 458.158061 
L 105.995621 454.804903 
L 109.573064 451.136257 
L 113.150506 447.134842 
L 116.727948 442.784065 
L 120.30539 438.068285 
L 123.882833 432.973087 
L 127.460275 427.48557 
L 131.037717 421.594651 
L 134.615159 415.291367 
L 138.192602 408.569189 
L 141.770044 401.42433 
L 145.347486 393.856042 
L 149.819289 383.804514 
L 154.291092 373.108712 
L 158.762894 361.79119 
L 163.234697 349.884646 
L 168.600861 334.881025 
L 173.967024 319.187726 
L 180.227548 300.166298 
L 188.276793 274.936978 
L 205.269644 221.378325 
L 211.530168 202.549314 
L 216.00197 189.712836 
L 220.473773 177.533206 
L 224.051215 168.347532 
L 227.628658 159.725933 
L 231.2061 151.72849 
L 233.889182 146.174306 
L 236.572263 141.025738 
L 239.255345 136.303891 
L 241.938427 132.028312 
L 244.621508 128.216863 
L 247.30459 124.885589 
L 249.987672 122.048612 
L 251.776393 120.437962 
L 253.565114 119.055484 
L 255.353835 117.903818 
L 257.142556 116.985165 
L 258.931277 116.301287 
L 260.719998 115.853497 
L 262.50872 115.642655 
L 264.297441 115.669166 
L 266.086162 115.932979 
L 267.874883 116.433587 
L 269.663604 117.170029 
L 271.452325 118.140891 
L 273.241046 119.344313 
L 275.029767 120.777994 
L 276.818488 122.4392 
L 278.60721 124.32477 
L 281.290291 127.565878 
L 283.973373 131.289915 
L 286.656455 135.48118 
L 289.339536 140.122139 
L 292.022618 145.193544 
L 294.7057 150.67457 
L 298.283142 158.58112 
L 301.860584 167.119891 
L 305.438026 176.231221 
L 309.909829 188.330326 
L 314.381632 201.100431 
L 319.747795 217.128943 
L 326.90268 239.329583 
L 350.156055 312.328408 
L 356.416578 330.880026 
L 361.782742 346.072283 
L 366.254545 358.153504 
L 370.726347 369.658004 
L 375.19815 380.549831 
L 379.669953 390.80334 
L 384.141756 400.402615 
L 387.719198 407.606076 
L 391.29664 414.386563 
L 394.874083 420.747463 
L 398.451525 426.694942 
L 402.028967 432.237646 
L 405.606409 437.386383 
L 409.183852 442.153821 
L 412.761294 446.554181 
L 416.338736 450.602954 
L 419.916178 454.316615 
L 423.493621 457.712366 
L 427.071063 460.807893 
L 430.648505 463.621141 
L 434.225947 466.170116 
L 437.803389 468.472698 
L 441.380832 470.54649 
L 444.958274 472.408675 
L 449.430077 474.464143 
L 453.90188 476.246064 
L 458.373682 477.783802 
L 462.845485 479.104802 
L 468.211649 480.43957 
L 473.577812 481.538775 
L 479.838336 482.570939 
L 486.09886 483.380676 
L 493.253744 484.08788 
L 501.302989 484.667587 
L 511.140956 485.148637 
L 518.29584 485.385597 
L 518.29584 485.385597 
" clip-path="url(#p7976473899)" style="fill: none; stroke-dasharray: 3.7,1.6; stroke-dashoffset: 0; stroke: #46327e"/>
   </g>
   <g id="patch_3">
    <path d="M 72 506.4 
L 72 86.4 
" style="fill: none; stroke: #000000; stroke-width: 0.8; stroke-linejoin: miter; stroke-linecap: square"/>
   </g>
   <g id="patch_4">
    <path d="M 518.4 506.4 
L 518.4 86.4 
" style="fill: none; stroke: #000000; stroke-width: 0.8; stroke-linejoin: miter; stroke-linecap: square"/>
   </g>
   <g id="patch_5">
    <path d="M 72 506.4 
L 518.4 506.4 
" style="fill: none; stroke: #000000; stroke-width: 0.8; stroke-linejoin: miter; stroke-linecap: square"/>
   </g>
   <g id="patch_6">
    <path d="M 72 86.4 
L 518.4 86.4 
" style="fill: none; stroke: #000000; stroke-width: 0.8; stroke-linejoin: miter; stroke-linecap: square"/>
   </g>
   <g id="legend_1">
    <g id="patch_7">
     <path d="M 360.178125 123.75625 
L 511.4 123.75625 
Q 513.4 123.75625 513.4 121.75625 
L 513.4 93.4 
Q 513.4 91.4 511.4 91.4 
L 360.178125 91.4 
Q 358.178125 91.4 358.178125 93.4 
L 358.178125 121.75625 
Q 358.178125 123.75625 360.178125 123.75625 
z
" style="fill: #ffffff; opacity: 0.8; stroke: #cccccc; stroke-linejoin: miter"/>
    </g>
    <g id="line2d_13">
     <path d="M 362.178125 99.498437 
L 372.178125 99.498437 
L 382.178125 99.498437 
" style="fill: none; stroke-dasharray: 3.7,1.6; stroke-dashoffset: 0; stroke: #1fa187"/>
    </g>
    <g id="text_7">
     <!-- Baseline-corrected data -->
     <g transform="translate(390.178125 102.998437) scale(0.1 -0.1)">
      <defs>
       <path id="DejaVuSans-42" d="M 1259 2228 
L 1259 519 
L 2272 519 
Q 2781 519 3026 730 
Q 3272 941 3272 1375 
Q 3272 1813 3026 2020 
Q 2781 2228 2272 2228 
L 1259 2228 
z
M 1259 4147 
L 1259 2741 
L 2194 2741 
Q 2656 2741 2882 2914 
Q 3109 3088 3109 3444 
Q 3109 3797 2882 3972 
Q 2656 4147 2194 4147 
L 1259 4147 
z
M 628 4666 
L 2241 4666 
Q 2963 4666 3353 4366 
Q 3744 4066 3744 3513 
Q 3744 3084 3544 2831 
Q 3344 2578 2956 2516 
Q 3422 2416 3680 2098 
Q 3938 1781 3938 1306 
Q 3938 681 3513 340 
Q 3088 0 2303 0 
L 628 0 
L 628 4666 
z
" transform="scale(0.015625)"/>
       <path id="DejaVuSans-6c" d="M 603 4863 
L 1178 4863 
L 1178 0 
L 603 0 
L 603 4863 
z
" transform="scale(0.015625)"/>
       <path id="DejaVuSans-2d" d="M 313 2009 
L 1997 2009 
L 1997 1497 
L 313 1497 
L 313 2009 
z
" transform="scale(0.015625)"/>
       <path id="DejaVuSans-63" d="M 3122 3366 
L 3122 2828 
Q 2878 2963 2633 3030 
Q 2388 3097 2138 3097 
Q 1578 3097 1268 2742 
Q 959 2388 959 1747 
Q 959 1106 1268 751 
Q 1578 397 2138 397 
Q 2388 397 2633 464 
Q 2878 531 3122 666 
L 3122 134 
Q 2881 22 2623 -34 
Q 2366 -91 2075 -91 
Q 1284 -91 818 406 
Q 353 903 353 1747 
Q 353 2603 823 3093 
Q 1294 3584 2113 3584 
Q 2378 3584 2631 3529 
Q 2884 3475 3122 3366 
z
" transform="scale(0.015625)"/>
       <path id="DejaVuSans-6f" d="M 1959 3097 
Q 1497 3097 1228 2736 
Q 959 2375 959 1747 
Q 959 1119 1226 758 
Q 1494 397 1959 397 
Q 2419 397 2687 759 
Q 2956 1122 2956 1747 
Q 2956 2369 2687 2733 
Q 2419 3097 1959 3097 
z
M 1959 3584 
Q 2709 3584 3137 3096 
Q 3566 2609 3566 1747 
Q 3566 888 3137 398 
Q 2709 -91 1959 -91 
Q 1206 -91 779 398 
Q 353 888 353 1747 
Q 353 2609 779 3096 
Q 1206 3584 1959 3584 
z
" transform="scale(0.015625)"/>
       <path id="DejaVuSans-72" d="M 2631 2963 
Q 2534 3019 2420 3045 
Q 2306 3072 2169 3072 
Q 1681 3072 1420 2755 
Q 1159 2438 1159 1844 
L 1159 0 
L 581 0 
L 581 3500 
L 1159 3500 
L 1159 2956 
Q 1341 3275 1631 3429 
Q 1922 3584 2338 3584 
Q 2397 3584 2469 3576 
Q 2541 3569 2628 3553 
L 2631 2963 
z
" transform="scale(0.015625)"/>
       <path id="DejaVuSans-64" d="M 2906 2969 
L 2906 4863 
L 3481 4863 
L 3481 0 
L 2906 0 
L 2906 525 
Q 2725 213 2448 61 
Q 2172 -91 1784 -91 
Q 1150 -91 751 415 
Q 353 922 353 1747 
Q 353 2572 751 3078 
Q 1150 3584 1784 3584 
Q 2172 3584 2448 3432 
Q 2725 3281 2906 2969 
z
M 947 1747 
Q 947 1113 1208 752 
Q 1469 391 1925 391 
Q 2381 391 2643 752 
Q 2906 1113 2906 1747 
Q 2906 2381 2643 2742 
Q 2381 3103 1925 3103 
Q 1469 3103 1208 2742 
Q 947 2381 947 1747 
z
" transform="scale(0.015625)"/>
      </defs>
      <use xlink:href="#DejaVuSans-42"/>
      <use xlink:href="#DejaVuSans-61" transform="translate(68.603516 0)"/>
      <use xlink:href="#DejaVuSans-73" transform="translate(129.882812 0)"/>
      <use xlink:href="#DejaVuSans-65" transform="translate(181.982422 0)"/>
      <use xlink:href="#DejaVuSans-6c" transform="translate(243.505859 0)"/>
      <use xlink:href="#DejaVuSans-69" transform="translate(271.289062 0)"/>
      <use xlink:href="#DejaVuSans-6e" transform="translate(299.072266 0)"/>
      <use xlink:href="#DejaVuSans-65" transform="translate(362.451172 0)"/>
      <use xlink:href="#DejaVuSans-2d" transform="translate(423.974609 0)"/>
      <use xlink:href="#DejaVuSans-63" transform="translate(460.058594 0)"/>
      <use xlink:href="#DejaVuSans-6f" transform="translate(515.039062 0)"/>
      <use xlink:href="#DejaVuSans-72" transform="translate(576.220703 0)"/>
      <use xlink:href="#DejaVuSans-72" transform="translate(615.583984 0)"/>
      <use xlink:href="#DejaVuSans-65" transform="translate(654.447266 0)"/>
      <use xlink:href="#DejaVuSans-63" transform="translate(715.970703 0)"/>
      <use xlink:href="#DejaVuSans-74" transform="translate(770.951172 0)"/>
      <use xlink:href="#DejaVuSans-65" transform="translate(810.160156 0)"/>
      <use xlink:href="#DejaVuSans-64" transform="translate(871.683594 0)"/>
      <use xlink:href="#DejaVuSans-20" transform="translate(935.160156 0)"/>
      <use xlink:href="#DejaVuSans-64" transform="translate(966.947266 0)"/>
      <use xlink:href="#DejaVuSans-61" transform="translate(1030.423828 0)"/>
      <use xlink:href="#DejaVuSans-74" transform="translate(1091.703125 0)"/>
      <use xlink:href="#DejaVuSans-61" transform="translate(1130.912109 0)"/>
     </g>
    </g>
    <g id="line2d_14">
     <path d="M 362.178125 114.176562 
L 372.178125 114.176562 
L 382.178125 114.176562 
" style="fill: none; stroke-dasharray: 3.7,1.6; stroke-dashoffset: 0; stroke: #46327e"/>
    </g>
    <g id="text_8">
     <!-- Gaussian fit -->
     <g transform="translate(390.178125 117.676562) scale(0.1 -0.1)">
      <defs>
       <path id="DejaVuSans-47" d="M 3809 666 
L 3809 1919 
L 2778 1919 
L 2778 2438 
L 4434 2438 
L 4434 434 
Q 4069 175 3628 42 
Q 3188 -91 2688 -91 
Q 1594 -91 976 548 
Q 359 1188 359 2328 
Q 359 3472 976 4111 
Q 1594 4750 2688 4750 
Q 3144 4750 3555 4637 
Q 3966 4525 4313 4306 
L 4313 3634 
Q 3963 3931 3569 4081 
Q 3175 4231 2741 4231 
Q 1884 4231 1454 3753 
Q 1025 3275 1025 2328 
Q 1025 1384 1454 906 
Q 1884 428 2741 428 
Q 3075 428 3337 486 
Q 3600 544 3809 666 
z
" transform="scale(0.015625)"/>
       <path id="DejaVuSans-66" d="M 2375 4863 
L 2375 4384 
L 1825 4384 
Q 1516 4384 1395 4259 
Q 1275 4134 1275 3809 
L 1275 3500 
L 2222 3500 
L 2222 3053 
L 1275 3053 
L 1275 0 
L 697 0 
L 697 3053 
L 147 3053 
L 147 3500 
L 697 3500 
L 697 3744 
Q 697 4328 969 4595 
Q 1241 4863 1831 4863 
L 2375 4863 
z
" transform="scale(0.015625)"/>
      </defs>
      <use xlink:href="#DejaVuSans-47"/>
      <use xlink:href="#DejaVuSans-61" transform="translate(77.490234 0)"/>
      <use xlink:href="#DejaVuSans-75" transform="translate(138.769531 0)"/>
      <use xlink:href="#DejaVuSans-73" transform="translate(202.148438 0)"/>
      <use xlink:href="#DejaVuSans-73" transform="translate(254.248047 0)"/>
      <use xlink:href="#DejaVuSans-69" transform="translate(306.347656 0)"/>
      <use xlink:href="#DejaVuSans-61" transform="translate(334.130859 0)"/>
      <use xlink:href="#DejaVuSans-6e" transform="translate(395.410156 0)"/>
      <use xlink:href="#DejaVuSans-20" transform="translate(458.789062 0)"/>
      <use xlink:href="#DejaVuSans-66" transform="translate(490.576172 0)"/>
      <use xlink:href="#DejaVuSans-69" transform="translate(525.78125 0)"/>
      <use xlink:href="#DejaVuSans-74" transform="translate(553.564453 0)"/>
     </g>
    </g>
   </g>
  </g>
  <g id="axes_2">
   <g id="patch_8">
    <path d="M 72 640.8 
L 518.4 640.8 
L 518.4 556.8 
L 72 556.8 
z
" style="fill: #ffffff"/>
   </g>
   <g id="matplotlib.axis_3">
    <g id="xtick_6">
     <g id="line2d_15">
      <g>
       <use xlink:href="#m2ec392f9d0" x="72" y="640.8" style="stroke: #000000; stroke-width: 0.8"/>
      </g>
     </g>
     <g id="text_9">
      <!-- 1.2 -->
      <g transform="translate(64.048438 655.398437) scale(0.1 -0.1)">
       <use xlink:href="#DejaVuSans-31"/>
       <use xlink:href="#DejaVuSans-2e" transform="translate(63.623047 0)"/>
       <use xlink:href="#DejaVuSans-32" transform="translate(95.410156 0)"/>
      </g>
     </g>
    </g>
    <g id="xtick_7">
     <g id="line2d_16">
      <g>
       <use xlink:href="#m2ec392f9d0" x="171.2" y="640.8" style="stroke: #000000; stroke-width: 0.8"/>
      </g>
     </g>
     <g id="text_10">
      <!-- 1.4 -->
      <g transform="translate(163.248437 655.398437) scale(0.1 -0.1)">
       <use xlink:href="#DejaVuSans-31"/>
       <use xlink:href="#DejaVuSans-2e" transform="translate(63.623047 0)"/>
       <use xlink:href="#DejaVuSans-34" transform="translate(95.410156 0)"/>
      </g>
     </g>
    </g>
    <g id="xtick_8">
     <g id="line2d_17">
      <g>
       <use xlink:href="#m2ec392f9d0" x="270.4" y="640.8" style="stroke: #000000; stroke-width: 0.8"/>
      </g>
     </g>
     <g id="text_11">
      <!-- 1.6 -->
      <g transform="translate(262.448438 655.398437) scale(0.1 -0.1)">
       <defs>
        <path id="DejaVuSans-36" d="M 2113 2584 
Q 1688 2584 1439 2293 
Q 1191 2003 1191 1497 
Q 1191 994 1439 701 
Q 1688 409 2113 409 
Q 2538 409 2786 701 
Q 3034 994 3034 1497 
Q 3034 2003 2786 2293 
Q 2538 2584 2113 2584 
z
M 3366 4563 
L 3366 3988 
Q 3128 4100 2886 4159 
Q 2644 4219 2406 4219 
Q 1781 4219 1451 3797 
Q 1122 3375 1075 2522 
Q 1259 2794 1537 2939 
Q 1816 3084 2150 3084 
Q 2853 3084 3261 2657 
Q 3669 2231 3669 1497 
Q 3669 778 3244 343 
Q 2819 -91 2113 -91 
Q 1303 -91 875 529 
Q 447 1150 447 2328 
Q 447 3434 972 4092 
Q 1497 4750 2381 4750 
Q 2619 4750 2861 4703 
Q 3103 4656 3366 4563 
z
" transform="scale(0.015625)"/>
       </defs>
       <use xlink:href="#DejaVuSans-31"/>
       <use xlink:href="#DejaVuSans-2e" transform="translate(63.623047 0)"/>
       <use xlink:href="#DejaVuSans-36" transform="translate(95.410156 0)"/>
      </g>
     </g>
    </g>
    <g id="xtick_9">
     <g id="line2d_18">
      <g>
       <use xlink:href="#m2ec392f9d0" x="369.6" y="640.8" style="stroke: #000000; stroke-width: 0.8"/>
      </g>
     </g>
     <g id="text_12">
      <!-- 1.8 -->
      <g transform="translate(361.648438 655.398437) scale(0.1 -0.1)">
       <defs>
        <path id="DejaVuSans-38" d="M 2034 2216 
Q 1584 2216 1326 1975 
Q 1069 1734 1069 1313 
Q 1069 891 1326 650 
Q 1584 409 2034 409 
Q 2484 409 2743 651 
Q 3003 894 3003 1313 
Q 3003 1734 2745 1975 
Q 2488 2216 2034 2216 
z
M 1403 2484 
Q 997 2584 770 2862 
Q 544 3141 544 3541 
Q 544 4100 942 4425 
Q 1341 4750 2034 4750 
Q 2731 4750 3128 4425 
Q 3525 4100 3525 3541 
Q 3525 3141 3298 2862 
Q 3072 2584 2669 2484 
Q 3125 2378 3379 2068 
Q 3634 1759 3634 1313 
Q 3634 634 3220 271 
Q 2806 -91 2034 -91 
Q 1263 -91 848 271 
Q 434 634 434 1313 
Q 434 1759 690 2068 
Q 947 2378 1403 2484 
z
M 1172 3481 
Q 1172 3119 1398 2916 
Q 1625 2713 2034 2713 
Q 2441 2713 2670 2916 
Q 2900 3119 2900 3481 
Q 2900 3844 2670 4047 
Q 2441 4250 2034 4250 
Q 1625 4250 1398 4047 
Q 1172 3844 1172 3481 
z
" transform="scale(0.015625)"/>
       </defs>
       <use xlink:href="#DejaVuSans-31"/>
       <use xlink:href="#DejaVuSans-2e" transform="translate(63.623047 0)"/>
       <use xlink:href="#DejaVuSans-38" transform="translate(95.410156 0)"/>
      </g>
     </g>
    </g>
    <g id="xtick_10">
     <g id="line2d_19">
      <g>
       <use xlink:href="#m2ec392f9d0" x="468.8" y="640.8" style="stroke: #000000; stroke-width: 0.8"/>
      </g>
     </g>
     <g id="text_13">
      <!-- 2.0 -->
      <g transform="translate(460.848437 655.398437) scale(0.1 -0.1)">
       <use xlink:href="#DejaVuSans-32"/>
       <use xlink:href="#DejaVuSans-2e" transform="translate(63.623047 0)"/>
       <use xlink:href="#DejaVuSans-30" transform="translate(95.410156 0)"/>
      </g>
     </g>
    </g>
   </g>
   <g id="matplotlib.axis_4">
    <g id="ytick_6">
     <g id="line2d_20">
      <g>
       <use xlink:href="#m2bc7d41f82" x="72" y="622.8" style="stroke: #000000; stroke-width: 0.8"/>
      </g>
     </g>
     <g id="text_14">
      <!-- −20 -->
      <g transform="translate(43.895313 626.599219) scale(0.1 -0.1)">
       <defs>
        <path id="DejaVuSans-2212" d="M 678 2272 
L 4684 2272 
L 4684 1741 
L 678 1741 
L 678 2272 
z
" transform="scale(0.015625)"/>
       </defs>
       <use xlink:href="#DejaVuSans-2212"/>
       <use xlink:href="#DejaVuSans-32" transform="translate(83.789062 0)"/>
       <use xlink:href="#DejaVuSans-30" transform="translate(147.412109 0)"/>
      </g>
     </g>
    </g>
    <g id="ytick_7">
     <g id="line2d_21">
      <g>
       <use xlink:href="#m2bc7d41f82" x="72" y="598.8" style="stroke: #000000; stroke-width: 0.8"/>
      </g>
     </g>
     <g id="text_15">
      <!-- 0 -->
      <g transform="translate(58.6375 602.599219) scale(0.1 -0.1)">
       <use xlink:href="#DejaVuSans-30"/>
      </g>
     </g>
    </g>
    <g id="ytick_8">
     <g id="line2d_22">
      <g>
       <use xlink:href="#m2bc7d41f82" x="72" y="574.8" style="stroke: #000000; stroke-width: 0.8"/>
      </g>
     </g>
     <g id="text_16">
      <!-- 20 -->
      <g transform="translate(52.275 578.599219) scale(0.1 -0.1)">
       <use xlink:href="#DejaVuSans-32"/>
       <use xlink:href="#DejaVuSans-30" transform="translate(63.623047 0)"/>
      </g>
     </g>
    </g>
    <g id="text_17">
     <!-- Residuals -->
     <g transform="translate(37.815625 622.520312) rotate(-90) scale(0.1 -0.1)">
      <defs>
       <path id="DejaVuSans-52" d="M 2841 2188 
Q 3044 2119 3236 1894 
Q 3428 1669 3622 1275 
L 4263 0 
L 3584 0 
L 2988 1197 
Q 2756 1666 2539 1819 
Q 2322 1972 1947 1972 
L 1259 1972 
L 1259 0 
L 628 0 
L 628 4666 
L 2053 4666 
Q 2853 4666 3247 4331 
Q 3641 3997 3641 3322 
Q 3641 2881 3436 2590 
Q 3231 2300 2841 2188 
z
M 1259 4147 
L 1259 2491 
L 2053 2491 
Q 2509 2491 2742 2702 
Q 2975 2913 2975 3322 
Q 2975 3731 2742 3939 
Q 2509 4147 2053 4147 
L 1259 4147 
z
" transform="scale(0.015625)"/>
      </defs>
      <use xlink:href="#DejaVuSans-52"/>
      <use xlink:href="#DejaVuSans-65" transform="translate(64.982422 0)"/>
      <use xlink:href="#DejaVuSans-73" transform="translate(126.505859 0)"/>
      <use xlink:href="#DejaVuSans-69" transform="translate(178.605469 0)"/>
      <use xlink:href="#DejaVuSans-64" transform="translate(206.388672 0)"/>
      <use xlink:href="#DejaVuSans-75" transform="translate(269.865234 0)"/>
      <use xlink:href="#DejaVuSans-61" transform="translate(333.244141 0)"/>
      <use xlink:href="#DejaVuSans-6c" transform="translate(394.523438 0)"/>
      <use xlink:href="#DejaVuSans-73" transform="translate(422.306641 0)"/>
     </g>
    </g>
   </g>
   <g id="line2d_23">
    <path d="M 518.29584 625.682027 
L 517.68576 627.34977 
L 517.07568 629.718225 
L 516.4656 621.393532 
L 515.85552 618.556631 
L 515.24544 620.531461 
L 514.63536 611.040345 
L 514.03024 623.900703 
L 513.42016 609.324221 
L 512.81504 617.261634 
L 512.20992 616.749149 
L 511.6048 617.171521 
L 509.7944 609.534211 
L 509.19424 613.381797 
L 508.58912 610.337773 
L 507.98896 610.015857 
L 507.3888 613.358569 
L 506.7936 603.969768 
L 506.19344 608.576375 
L 505.59328 605.849789 
L 504.99808 604.539947 
L 504.40288 605.136421 
L 503.80768 601.194174 
L 503.21248 604.39109 
L 502.61728 603.418628 
L 502.02208 604.653037 
L 501.43184 601.274412 
L 500.83664 602.724213 
L 500.2464 602.258478 
L 499.65616 596.345186 
L 499.06592 600.334704 
L 498.47568 599.759955 
L 497.88544 602.490263 
L 497.30016 600.163336 
L 496.70992 594.905903 
L 496.12464 603.642666 
L 495.53936 599.29549 
L 494.95408 604.523801 
L 494.3688 599.352103 
L 493.78352 599.012364 
L 493.2032 594.572534 
L 492.61792 599.466373 
L 492.0376 595.732315 
L 491.45728 594.851938 
L 490.87696 596.316095 
L 490.29664 596.103072 
L 489.71632 594.898968 
L 489.136 593.049186 
L 488.56064 594.881909 
L 487.98528 592.577053 
L 487.40496 594.545292 
L 486.8296 591.092401 
L 486.25424 590.251384 
L 485.67888 592.490526 
L 485.10848 591.393553 
L 484.53312 587.234747 
L 483.96272 594.575142 
L 483.38736 589.900084 
L 482.81696 583.620881 
L 482.24656 590.905157 
L 481.67616 588.62059 
L 481.11072 591.715394 
L 480.54032 587.415665 
L 479.96992 593.793054 
L 479.40448 587.371957 
L 478.83904 588.37425 
L 478.2736 583.524524 
L 477.70816 590.049996 
L 477.14272 583.560586 
L 476.57728 583.39622 
L 476.01184 585.717233 
L 475.45136 583.68236 
L 474.89088 588.376113 
L 474.32544 584.510465 
L 473.76496 587.690589 
L 473.20448 586.215464 
L 472.64896 587.186506 
L 472.08848 581.185253 
L 471.528 587.760022 
L 470.97248 583.356664 
L 470.41696 586.667524 
L 469.85648 580.396396 
L 469.30096 584.990525 
L 468.74544 581.316806 
L 468.19488 584.017039 
L 467.63936 581.477411 
L 467.08384 582.962227 
L 466.53328 581.878714 
L 465.98272 581.160133 
L 465.43216 579.275449 
L 464.8816 578.494929 
L 464.33104 584.23127 
L 463.78048 585.893259 
L 463.22992 584.714963 
L 462.68432 583.003106 
L 462.13376 577.904282 
L 461.58816 581.831188 
L 461.04256 583.369975 
L 460.49696 575.08867 
L 459.95136 585.404165 
L 459.40576 584.900902 
L 458.86016 584.019576 
L 458.31952 580.566084 
L 457.77392 578.434979 
L 457.23328 582.498251 
L 456.69264 582.310717 
L 456.152 580.724753 
L 455.61136 578.770015 
L 455.07072 582.424933 
L 454.53008 580.263878 
L 453.9944 580.028178 
L 453.45376 580.949723 
L 452.91808 576.637411 
L 452.3824 579.129519 
L 451.84672 578.305408 
L 451.31104 578.526607 
L 450.77536 579.86578 
L 450.23968 578.968595 
L 449.70896 579.79022 
L 449.17328 579.882415 
L 448.64256 576.988138 
L 448.11184 575.679795 
L 447.57616 575.85665 
L 447.04544 576.520013 
L 446.51472 572.809244 
L 445.98896 577.719146 
L 445.45824 578.862836 
L 444.93248 577.569339 
L 444.40176 577.586799 
L 443.876 578.888421 
L 443.35024 580.965312 
L 442.82448 573.577615 
L 442.29872 576.850925 
L 441.77296 579.052733 
L 441.2472 578.150535 
L 440.72144 578.259196 
L 440.20064 580.423641 
L 439.67984 573.807366 
L 438.63328 579.601469 
L 438.11248 579.264024 
L 437.59168 579.574515 
L 437.07584 580.019092 
L 436.55504 575.106786 
L 436.03424 576.340645 
L 435.5184 575.823546 
L 435.00256 576.893111 
L 434.48176 578.925222 
L 433.96592 574.072139 
L 433.45008 576.620371 
L 432.93424 576.174598 
L 432.42336 575.192504 
L 431.90752 574.970554 
L 431.39664 578.624519 
L 430.8808 576.854416 
L 430.36992 576.875099 
L 429.85904 575.550769 
L 429.34816 572.58459 
L 428.83728 576.885104 
L 428.3264 577.965423 
L 427.81552 578.051178 
L 427.30464 575.246259 
L 426.79872 578.887077 
L 426.28784 580.335366 
L 425.78192 578.060081 
L 425.276 576.965316 
L 424.77008 576.320348 
L 424.26416 578.29094 
L 423.75824 576.85522 
L 423.25232 576.292831 
L 422.75136 578.142395 
L 422.24544 574.447643 
L 421.74448 573.866103 
L 421.24352 576.751231 
L 420.7376 578.219059 
L 420.23664 576.685946 
L 419.73568 578.492566 
L 419.23472 576.327168 
L 418.73872 573.658725 
L 418.23776 574.798168 
L 417.74176 575.430924 
L 417.2408 575.146356 
L 416.7448 574.210353 
L 415.74784 577.044517 
L 415.25184 576.536113 
L 414.7608 577.499247 
L 414.2648 575.217612 
L 413.7688 579.506129 
L 413.27776 577.020014 
L 412.78176 577.983591 
L 411.79968 575.955505 
L 411.30368 578.318781 
L 410.81264 579.075014 
L 410.3216 578.956567 
L 409.83552 577.498346 
L 409.34448 578.907787 
L 408.85344 577.408019 
L 407.39024 577.544222 
L 406.90416 581.278285 
L 406.41808 577.230232 
L 405.932 577.5162 
L 405.44592 576.094436 
L 404.95984 580.892673 
L 404.47872 578.237612 
L 403.99264 580.098641 
L 403.51152 578.799182 
L 403.02544 579.013642 
L 402.54432 580.683879 
L 402.0632 578.508942 
L 401.58208 580.665623 
L 401.10096 577.036951 
L 400.61984 577.962003 
L 400.13872 581.225476 
L 399.18144 578.716951 
L 398.70528 580.267371 
L 398.22416 581.040156 
L 397.748 579.243763 
L 397.27184 578.7235 
L 396.79568 579.310033 
L 396.31952 577.940207 
L 395.84336 577.244238 
L 395.3672 582.476987 
L 394.896 577.75233 
L 394.41984 577.935 
L 393.94864 579.705273 
L 393.47744 580.548631 
L 393.00128 579.654774 
L 392.53008 580.195227 
L 392.05888 580.304038 
L 391.58768 577.739543 
L 391.11648 578.018717 
L 390.65024 577.915806 
L 390.17904 579.716444 
L 389.7128 577.879858 
L 389.2416 580.391329 
L 388.77536 582.189291 
L 388.30912 581.039123 
L 387.84288 580.3134 
L 387.37664 580.994088 
L 386.9104 581.268515 
L 386.44416 578.438483 
L 385.97792 578.062994 
L 385.51168 578.053552 
L 385.0504 579.61226 
L 384.58416 579.564562 
L 384.12288 580.722049 
L 383.6616 579.728061 
L 383.20032 581.538214 
L 382.73904 581.407608 
L 382.27776 580.768786 
L 381.81648 583.676746 
L 381.3552 582.478094 
L 380.89392 580.672287 
L 380.4376 580.155848 
L 379.97632 584.686548 
L 379.52 579.684241 
L 378.60736 584.504839 
L 378.14608 584.156027 
L 377.68976 582.317018 
L 377.2384 582.152466 
L 376.32576 583.5626 
L 375.86944 583.019658 
L 375.41808 584.471425 
L 374.96176 583.979075 
L 374.5104 585.427458 
L 374.05904 581.245762 
L 373.60768 583.954942 
L 373.15632 583.915554 
L 372.70496 586.935632 
L 372.2536 585.615979 
L 371.80224 584.895412 
L 371.35088 583.251142 
L 370.90448 585.307328 
L 370.45312 583.596535 
L 370.00672 587.23249 
L 369.56032 586.50057 
L 369.11392 584.814498 
L 368.66256 584.451167 
L 368.21616 585.237744 
L 367.76976 586.495792 
L 367.32832 586.538453 
L 366.88192 587.202285 
L 366.43552 587.056818 
L 365.99408 584.838549 
L 365.54768 586.503075 
L 365.10624 587.444724 
L 364.65984 587.266129 
L 364.2184 585.813655 
L 363.77696 585.719624 
L 363.33552 586.122586 
L 362.89408 586.996388 
L 362.45264 588.917996 
L 362.01616 588.887445 
L 361.13328 591.579009 
L 360.6968 591.085422 
L 360.26032 591.333702 
L 359.81888 590.055924 
L 359.3824 594.259359 
L 358.94592 591.143595 
L 358.50944 593.848682 
L 358.07296 590.481366 
L 357.63648 589.456434 
L 357.2 591.391594 
L 356.76848 591.25805 
L 356.332 591.987878 
L 355.90048 594.727515 
L 355.464 594.500763 
L 355.03248 594.048073 
L 354.60096 591.303434 
L 354.16944 595.339245 
L 353.30144 592.22 
L 352.87488 592.055983 
L 352.44336 591.557784 
L 352.01184 589.208153 
L 351.58528 592.920764 
L 351.15376 594.489969 
L 350.7272 591.628757 
L 350.29568 595.011208 
L 349.86912 592.080646 
L 349.44256 594.721768 
L 349.016 592.609305 
L 348.58944 592.60146 
L 348.16288 595.382299 
L 347.73632 595.369975 
L 347.30976 594.759864 
L 346.8832 595.732677 
L 346.4616 595.89736 
L 346.03504 594.713465 
L 345.61344 596.511329 
L 345.19184 595.639627 
L 344.76528 595.659839 
L 344.34368 598.531563 
L 343.92208 597.955937 
L 343.50048 597.746777 
L 343.07888 598.627337 
L 342.66224 596.925065 
L 342.24064 596.296536 
L 341.81904 599.70957 
L 341.4024 597.936607 
L 340.9808 598.038531 
L 340.56416 597.790923 
L 340.14256 600.361942 
L 339.30928 600.275028 
L 338.89264 600.004254 
L 338.476 599.586372 
L 338.05936 601.065593 
L 337.64272 599.152581 
L 337.23104 601.064907 
L 336.8144 597.039684 
L 335.98608 597.53898 
L 335.5744 598.49386 
L 335.15776 596.957001 
L 334.74608 599.495874 
L 334.3344 598.380391 
L 333.92272 598.216877 
L 333.51104 598.578841 
L 332.68768 602.07004 
L 332.276 601.181507 
L 331.86928 602.637037 
L 331.4576 602.80049 
L 331.05088 602.501387 
L 330.6392 602.797594 
L 330.23248 599.184416 
L 329.82576 601.386423 
L 329.41408 602.952787 
L 329.00736 600.310097 
L 328.60064 603.305074 
L 328.19392 601.143084 
L 327.79216 602.094478 
L 327.38544 602.687654 
L 326.97872 604.389764 
L 326.57696 602.651701 
L 326.17024 603.770981 
L 325.36176 602.346776 
L 324.96 604.512439 
L 324.55824 605.37605 
L 324.15648 603.12442 
L 323.74976 601.721413 
L 323.35296 603.151962 
L 322.9512 601.71895 
L 322.14768 601.078449 
L 321.74592 604.706703 
L 321.34912 601.605285 
L 320.94736 606.571887 
L 320.55056 605.659457 
L 320.15376 605.4681 
L 319.752 607.543566 
L 319.3552 608.643952 
L 318.9584 607.989723 
L 318.5616 606.353538 
L 318.1648 606.192591 
L 317.768 601.84149 
L 317.3712 604.792888 
L 316.97936 604.97426 
L 316.58256 603.096105 
L 316.18576 605.239298 
L 315.79392 602.94982 
L 315.40208 606.231051 
L 315.00528 604.93148 
L 314.61344 606.888728 
L 314.2216 606.509428 
L 313.43792 608.789901 
L 313.04608 605.819112 
L 312.65424 606.076343 
L 312.2624 603.939319 
L 311.87056 603.257101 
L 311.48368 604.624599 
L 311.09184 603.344369 
L 310.7 603.600223 
L 309.92624 608.765298 
L 309.5344 608.384491 
L 309.14752 611.098387 
L 308.76064 609.874694 
L 308.37376 609.874172 
L 307.98688 610.578538 
L 307.6 610.235212 
L 306.8312 606.639326 
L 306.44432 607.374565 
L 306.05744 606.066916 
L 305.67552 605.614178 
L 305.28864 606.996717 
L 304.90672 607.144366 
L 304.5248 607.578303 
L 304.13792 608.731954 
L 303.756 607.001379 
L 303.37408 610.70849 
L 302.99216 612.748977 
L 302.61024 612.123454 
L 301.85136 610.095503 
L 301.46944 606.628244 
L 301.08752 606.743826 
L 300.71056 607.476592 
L 300.32864 606.583191 
L 299.95168 604.974692 
L 299.56976 606.550817 
L 299.1928 607.438636 
L 298.81584 607.611137 
L 298.43888 607.418498 
L 298.06192 609.309108 
L 297.68496 609.174479 
L 297.308 609.406502 
L 296.93104 608.609071 
L 296.55408 609.295753 
L 296.17712 610.238957 
L 295.80512 606.479816 
L 295.05616 604.438155 
L 294.6792 602.780875 
L 294.3072 603.818552 
L 293.93024 602.665685 
L 293.55824 605.592427 
L 293.18624 601.989481 
L 292.81424 602.301965 
L 292.44224 602.466043 
L 291.69824 607.919456 
L 291.32624 606.949798 
L 290.9592 607.130033 
L 290.5872 609.196288 
L 290.22016 606.981309 
L 289.84816 609.47557 
L 289.48112 608.181678 
L 289.10912 602.993831 
L 288.74208 604.481427 
L 288.37504 602.99602 
L 288.00304 603.049722 
L 287.636 604.418818 
L 287.26896 603.446342 
L 286.90192 604.343805 
L 286.53984 606.356925 
L 286.1728 606.776182 
L 285.43872 606.488671 
L 285.07664 609.103377 
L 284.7096 609.089701 
L 284.34752 609.678436 
L 283.98048 609.913803 
L 283.6184 604.890976 
L 283.25632 606.433499 
L 282.88928 603.337995 
L 282.5272 602.588544 
L 282.16512 601.024773 
L 281.80304 602.512564 
L 281.44096 600.432572 
L 281.07888 600.65294 
L 280.72176 604.303963 
L 280.35968 606.178174 
L 279.9976 604.746033 
L 279.2784 606.235932 
L 278.92128 609.549539 
L 278.5592 607.717256 
L 278.20208 608.674286 
L 277.84496 607.633138 
L 277.48288 605.043928 
L 277.12576 605.246446 
L 276.76864 603.873787 
L 276.41152 599.611225 
L 276.0544 601.521724 
L 275.69728 599.925807 
L 275.34512 596.188266 
L 274.63088 599.426492 
L 274.27872 602.160454 
L 273.9216 600.657386 
L 273.21232 604.463075 
L 272.86016 604.490775 
L 272.508 606.854907 
L 272.15088 604.83463 
L 271.79872 606.899509 
L 271.44656 605.819341 
L 271.0944 605.156604 
L 270.74224 604.803788 
L 270.39008 603.416018 
L 270.04288 600.076402 
L 269.69072 601.812644 
L 269.33856 600.62298 
L 268.99136 598.380331 
L 268.6392 597.952623 
L 268.28704 599.384831 
L 267.93984 598.801408 
L 267.59264 602.192089 
L 267.24048 599.649743 
L 266.89328 601.507411 
L 266.54608 605.882233 
L 266.19888 605.957937 
L 265.85168 606.253441 
L 265.50448 608.5969 
L 264.81008 603.763719 
L 264.46288 602.41602 
L 264.11568 603.175281 
L 263.77344 598.920031 
L 263.42624 596.813411 
L 263.084 597.780819 
L 262.7368 597.514017 
L 262.39456 593.692779 
L 262.04736 592.126355 
L 261.70512 596.293241 
L 261.36288 596.0806 
L 260.6784 600.493771 
L 260.33616 598.073694 
L 259.65168 606.040883 
L 259.30944 606.62054 
L 258.62496 602.1499 
L 258.28768 603.4444 
L 257.94544 602.325948 
L 257.6032 599.465972 
L 257.26592 597.920417 
L 256.92864 594.037956 
L 256.5864 592.50178 
L 256.24912 592.644358 
L 255.91184 593.305067 
L 255.5696 592.399414 
L 255.23232 592.567066 
L 254.89504 593.997652 
L 254.55776 598.145643 
L 254.22048 597.54788 
L 253.8832 598.934978 
L 253.55088 602.114405 
L 253.2136 601.000229 
L 252.87632 601.437047 
L 252.544 606.311599 
L 252.20672 601.617571 
L 251.53712 596.955677 
L 251.2048 596.244316 
L 250.5352 590.966665 
L 250.20288 590.966325 
L 249.87056 591.870817 
L 249.53328 590.994545 
L 248.86864 590.135792 
L 248.54128 592.415879 
L 248.20896 595.955836 
L 247.87664 597.0204 
L 247.54432 600.880481 
L 247.212 602.792099 
L 246.88464 602.293046 
L 246.55232 600.659465 
L 246.22496 601.461436 
L 245.89264 600.406043 
L 245.56528 594.707578 
L 245.23792 591.482395 
L 244.9056 591.140674 
L 244.57824 588.563888 
L 244.25088 588.540856 
L 243.92352 585.284521 
L 243.59616 587.536405 
L 243.2688 588.218492 
L 242.94144 592.355488 
L 242.61408 592.680513 
L 242.28672 598.490687 
L 241.63696 602.67328 
L 241.3096 600.902876 
L 240.9872 602.171951 
L 240.65984 602.428789 
L 240.33744 599.372947 
L 240.01008 597.784092 
L 239.68768 597.133373 
L 239.36528 591.379142 
L 239.03792 590.029681 
L 238.71552 586.887642 
L 238.39312 585.076479 
L 238.07072 587.686328 
L 237.74832 588.273137 
L 237.42592 590.052883 
L 237.10352 591.106726 
L 236.78112 593.454732 
L 236.45872 596.663591 
L 236.14128 597.817844 
L 235.81888 600.405432 
L 235.49648 600.471237 
L 235.17904 601.632043 
L 234.85664 599.417475 
L 234.5392 601.628861 
L 234.22176 596.11624 
L 233.89936 594.504072 
L 233.58192 593.914872 
L 233.26448 590.397279 
L 232.94704 589.347912 
L 232.62464 585.679734 
L 232.3072 587.560205 
L 231.67232 585.170758 
L 231.35984 585.410182 
L 231.0424 587.513715 
L 230.72496 587.371783 
L 230.40752 590.676536 
L 229.7776 594.372573 
L 229.46016 596.930229 
L 229.14768 601.598126 
L 228.83024 603.960524 
L 228.51776 600.628292 
L 228.20528 601.184845 
L 227.57536 599.937445 
L 227.26288 595.876134 
L 226.9504 594.578412 
L 226.63792 591.466021 
L 226.32544 591.576643 
L 226.01296 586.100191 
L 225.70048 584.689156 
L 225.388 587.211195 
L 225.07552 585.440544 
L 224.768 585.946173 
L 224.45552 586.01872 
L 224.14304 586.767241 
L 223.52304 593.18808 
L 223.21552 594.98304 
L 222.90304 598.72097 
L 222.59552 597.943347 
L 222.28304 602.417835 
L 221.97552 600.680889 
L 221.668 602.689282 
L 220.74544 597.785138 
L 220.43792 594.339325 
L 220.1304 592.503256 
L 219.82288 591.709482 
L 219.51536 585.648047 
L 219.20784 582.509885 
L 218.90032 585.652518 
L 218.59776 583.054762 
L 217.68016 586.835483 
L 217.37264 588.786536 
L 217.07008 593.992345 
L 216.76752 595.369335 
L 216.46 595.930029 
L 216.15744 599.748944 
L 215.55232 603.922227 
L 215.24976 603.967124 
L 214.94224 604.173186 
L 214.33712 600.902773 
L 214.03952 595.14506 
L 213.73696 594.469218 
L 213.4344 589.899471 
L 212.82928 586.399672 
L 212.53168 587.086148 
L 212.22912 587.484573 
L 211.93152 585.124684 
L 211.62896 589.280355 
L 211.33136 587.190586 
L 211.0288 587.09435 
L 210.7312 589.827418 
L 210.4336 590.793445 
L 210.13104 594.01822 
L 209.83344 595.921389 
L 209.53584 600.58483 
L 209.23824 599.857871 
L 208.94064 603.954954 
L 208.64304 601.306143 
L 208.34544 603.076894 
L 208.04784 602.764838 
L 207.75024 601.335803 
L 207.45264 597.2657 
L 207.15504 594.903149 
L 206.5648 587.242058 
L 206.2672 583.275955 
L 205.97456 585.229729 
L 205.67696 585.642744 
L 205.38432 582.903778 
L 205.09168 584.160239 
L 204.79408 584.766827 
L 204.2088 588.946234 
L 203.61856 594.463689 
L 203.32592 595.78206 
L 203.03328 600.447788 
L 202.74064 601.259163 
L 202.448 605.863613 
L 202.15536 602.337135 
L 201.86272 600.523959 
L 201.57008 595.853703 
L 201.2824 597.829844 
L 200.98976 594.937241 
L 200.69712 590.178461 
L 200.40944 589.694566 
L 200.1168 586.580467 
L 199.82416 585.805345 
L 199.53648 580.07396 
L 199.2488 580.133184 
L 198.95616 582.521203 
L 198.66848 581.055849 
L 198.3808 582.48495 
L 198.08816 585.593484 
L 197.80048 583.653263 
L 197.5128 588.445334 
L 197.22512 589.65352 
L 196.93744 592.544374 
L 196.64976 596.957215 
L 196.36208 595.203466 
L 196.0744 601.920925 
L 195.78672 601.890655 
L 195.49904 605.443721 
L 195.21136 604.312564 
L 194.92864 603.744299 
L 194.64096 606.029522 
L 193.50016 591.131327 
L 193.21248 590.113955 
L 192.92976 586.590402 
L 192.35936 583.874388 
L 192.07664 583.023456 
L 191.79392 582.529152 
L 191.22352 588.851812 
L 190.9408 588.736484 
L 190.37536 596.779147 
L 189.80992 598.803338 
L 189.24944 604.472449 
L 188.96672 605.328014 
L 188.684 607.041813 
L 188.12352 603.178068 
L 187.8408 602.264922 
L 187.56304 600.247444 
L 186.7248 589.287945 
L 186.44208 590.497536 
L 186.16432 583.77796 
L 185.88656 584.259539 
L 185.32608 582.265002 
L 185.04832 583.263795 
L 184.77056 582.797654 
L 184.4928 589.104618 
L 184.21504 587.263391 
L 183.93728 588.471402 
L 183.38176 594.563745 
L 183.10896 597.023484 
L 182.8312 602.909077 
L 182.55344 604.670701 
L 182.27568 608.32774 
L 181.45232 602.502104 
L 181.17456 601.352589 
L 180.90176 594.105694 
L 180.624 596.81671 
L 180.3512 590.214682 
L 179.80064 584.820359 
L 179.52784 584.865057 
L 179.25504 587.664611 
L 178.98224 585.372937 
L 178.70944 585.999318 
L 178.43664 590.567673 
L 178.16384 590.861652 
L 177.07264 606.123928 
L 176.79984 609.733038 
L 176.52704 609.685915 
L 176.2592 609.861742 
L 175.9864 608.64453 
L 175.7136 608.850873 
L 175.44576 606.908918 
L 175.17296 600.579128 
L 174.90512 599.593186 
L 174.63232 596.646614 
L 174.36448 590.494223 
L 174.09168 589.987465 
L 173.556 586.31121 
L 173.28816 585.845439 
L 173.01536 585.782962 
L 172.21184 594.66867 
L 171.944 598.232992 
L 171.67616 599.929351 
L 171.40832 607.862692 
L 171.14048 605.974101 
L 170.87264 608.461936 
L 170.6048 608.045869 
L 170.34192 612.140747 
L 170.07408 608.784433 
L 169.80624 602.978558 
L 169.54336 603.928583 
L 169.00768 599.136615 
L 168.7448 595.338624 
L 168.21408 593.485485 
L 167.94624 589.363588 
L 167.68336 591.273795 
L 167.1576 588.496579 
L 166.88976 588.558293 
L 166.62688 592.576304 
L 166.364 592.477746 
L 166.10112 591.666748 
L 165.57536 600.656227 
L 165.31248 603.865051 
L 165.0496 608.457794 
L 164.78672 610.839692 
L 164.52384 611.534792 
L 164.26096 614.115484 
L 163.74016 610.443488 
L 163.47728 605.49792 
L 163.2144 604.836958 
L 162.6936 598.504824 
L 162.43072 594.875166 
L 162.1728 592.876067 
L 161.90992 592.173131 
L 161.652 589.056243 
L 161.39408 587.860013 
L 160.87328 587.836103 
L 160.61536 585.296218 
L 160.35248 591.590973 
L 160.09456 592.24592 
L 159.83664 594.548418 
L 159.57872 598.562524 
L 159.3208 598.463396 
L 158.80496 608.514731 
L 158.54704 608.232649 
L 158.0312 609.488361 
L 157.77328 611.937087 
L 157.52032 612.317656 
L 157.2624 609.908487 
L 157.00448 610.234387 
L 156.4936 604.193688 
L 156.23568 603.744948 
L 155.98272 603.025391 
L 155.7248 595.790603 
L 155.47184 595.294103 
L 155.21392 592.281199 
L 154.96096 591.819705 
L 154.45008 588.434243 
L 154.19712 593.120358 
L 153.94416 592.482133 
L 153.68624 593.029149 
L 153.43328 594.52986 
L 153.18032 595.312226 
L 152.92736 602.059936 
L 152.6744 603.332304 
L 152.42144 607.138374 
L 152.16848 607.083464 
L 151.91552 611.71011 
L 151.66256 611.396071 
L 151.15664 614.910621 
L 150.90864 613.865054 
L 150.65568 610.910741 
L 150.40272 613.711886 
L 149.90176 603.12682 
L 149.6488 603.219997 
L 149.4008 597.449151 
L 149.14784 598.875195 
L 148.64688 596.426047 
L 148.39888 592.049445 
L 148.15088 590.264865 
L 147.89792 593.898396 
L 147.64992 591.337812 
L 147.40192 594.306785 
L 147.14896 594.193335 
L 146.90096 595.054694 
L 146.15696 607.645357 
L 145.90896 607.289771 
L 145.66096 609.61435 
L 145.41296 613.501063 
L 145.16496 614.21697 
L 144.91696 617.021008 
L 144.42592 615.70927 
L 144.17792 611.117159 
L 143.92992 612.636572 
L 143.19088 601.820074 
L 142.94288 603.720257 
L 142.45184 599.765933 
L 142.2088 596.657815 
L 141.96576 598.416685 
L 141.71776 596.992647 
L 141.47472 598.556569 
L 141.22672 597.255017 
L 140.98368 598.245148 
L 140.4976 605.096275 
L 140.2496 603.341978 
L 140.00656 610.390106 
L 139.76352 611.970549 
L 139.52048 614.750853 
L 139.27744 614.297286 
L 139.0344 619.162498 
L 138.79136 617.616791 
L 138.54832 617.550841 
L 138.30528 619.198573 
L 137.82416 612.971088 
L 137.58112 614.065483 
L 137.33808 608.397767 
L 137.09504 606.028386 
L 136.85696 607.846076 
L 136.37088 601.785576 
L 136.1328 602.202995 
L 135.88976 602.304846 
L 135.65168 601.458282 
L 135.40864 602.142433 
L 135.17056 601.538542 
L 134.93248 602.476301 
L 134.68944 605.60826 
L 134.45136 605.589661 
L 134.21328 606.406822 
L 133.73216 613.590084 
L 133.256 617.872407 
L 132.77984 621.147811 
L 132.54176 620.362399 
L 132.30368 620.834947 
L 132.0656 618.82724 
L 131.82752 619.824778 
L 131.35136 613.836577 
L 131.11328 610.313435 
L 130.8752 611.208038 
L 130.63712 608.618857 
L 130.404 607.679946 
L 130.16592 604.78085 
L 129.92784 604.755866 
L 129.69472 603.746362 
L 129.45664 606.806077 
L 129.22352 606.852351 
L 128.98544 609.77159 
L 128.75232 610.977973 
L 127.80992 619.39248 
L 127.33872 621.169344 
L 127.1056 623.974951 
L 126.87248 622.193672 
L 126.63936 622.926329 
L 126.40624 621.938904 
L 126.16816 622.289553 
L 125.93504 617.211707 
L 125.4688 616.084149 
L 125.00256 611.137147 
L 124.76944 611.487979 
L 124.54128 608.590584 
L 124.30816 609.533764 
L 124.07504 608.545337 
L 123.84192 609.091992 
L 123.6088 610.952484 
L 123.38064 610.216494 
L 123.14752 612.827671 
L 122.9144 614.059077 
L 122.68624 616.876708 
L 122.45312 621.208975 
L 122.22496 618.949947 
L 121.99184 623.999781 
L 121.76368 621.271594 
L 121.53056 623.837472 
L 121.3024 623.927724 
L 120.84112 622.354698 
L 120.61296 620.115566 
L 120.37984 619.287909 
L 120.15168 617.972278 
L 119.92352 613.265028 
L 119.69536 613.042033 
L 119.4672 614.507612 
L 119.23904 612.717228 
L 119.00592 612.33582 
L 118.5496 612.104467 
L 118.32144 612.603248 
L 118.09328 615.562059 
L 117.87008 616.587961 
L 117.64192 618.367128 
L 117.41376 615.307435 
L 117.1856 621.209612 
L 116.95744 621.956187 
L 116.72928 619.998545 
L 116.50608 623.48285 
L 116.27792 622.677702 
L 115.82656 625.861415 
L 115.5984 625.877412 
L 115.3752 627.431386 
L 115.14704 626.888729 
L 114.69568 622.084099 
L 114.47248 623.099744 
L 114.24432 621.247143 
L 114.02112 617.512962 
L 113.79792 616.842994 
L 113.56976 618.711269 
L 113.34656 615.925696 
L 113.12336 615.490032 
L 112.90016 615.642977 
L 112.672 615.2352 
L 112.4488 616.727762 
L 112.2256 616.522701 
L 111.3328 623.535679 
L 111.1096 623.401469 
L 110.6632 627.440729 
L 110.44 626.543125 
L 110.22176 630.136463 
L 109.99856 631.24734 
L 109.77536 629.589379 
L 109.55216 629.646076 
L 109.33392 628.898658 
L 109.11072 629.133924 
L 108.88752 628.277759 
L 108.66928 628.624835 
L 108.44608 626.229603 
L 108.22784 627.940947 
L 108.00464 622.715462 
L 107.7864 621.108024 
L 107.5632 623.077381 
L 107.12176 617.321172 
L 106.90352 619.052893 
L 106.68528 617.498686 
L 106.46208 620.538883 
L 106.24384 619.901551 
L 106.0256 621.901478 
L 105.80736 621.577405 
L 105.58416 623.531115 
L 105.36592 622.512604 
L 105.14768 626.36438 
L 104.7112 628.996323 
L 104.27472 630.749337 
L 104.05648 630.40392 
L 103.83824 633.277958 
L 103.62 633.22013 
L 103.40176 634.294732 
L 102.97024 630.510938 
L 102.752 630.279774 
L 102.31552 627.714516 
L 102.10224 625.156287 
L 101.884 627.819485 
L 101.66576 625.239974 
L 101.45248 627.0111 
L 101.02096 624.67159 
L 100.80272 624.990213 
L 100.58944 620.299865 
L 100.3712 624.933141 
L 100.15792 626.350628 
L 99.94464 626.22397 
L 99.7264 625.388844 
L 98.86832 629.407302 
L 98.65504 628.980303 
L 98.44176 630.471567 
L 98.22848 630.560335 
L 98.01024 630.947144 
L 97.79696 634.24429 
L 97.58368 634.682601 
L 97.3704 633.172925 
L 97.15712 636.567263 
L 96.94384 634.93951 
L 96.73056 634.753339 
L 96.51728 633.374516 
L 96.30896 635.348935 
L 96.09568 634.976572 
L 95.66912 630.501776 
L 95.45584 631.96142 
L 95.24752 630.075735 
L 95.03424 629.272764 
L 94.82096 630.995993 
L 94.61264 628.797367 
L 94.39936 628.927813 
L 94.18608 627.720877 
L 93.97776 629.529399 
L 93.76448 628.070403 
L 93.55616 629.169845 
L 93.13456 628.510614 
L 92.92624 631.912649 
L 92.71296 632.279876 
L 92.29632 634.016613 
L 92.08304 634.556446 
L 91.87472 635.754455 
L 91.6664 635.926485 
L 91.45808 638.832758 
L 91.2448 636.378599 
L 91.03648 638.735482 
L 90.82816 636.220892 
L 90.61984 639.548288 
L 90.2032 635.517041 
L 89.99488 638.137348 
L 89.78656 635.156618 
L 89.57824 634.010226 
L 89.36992 634.987896 
L 89.1616 634.107266 
L 88.95328 634.417434 
L 88.74496 632.08747 
L 88.5416 632.266085 
L 88.33328 633.12817 
L 88.12496 632.978898 
L 87.91664 632.083728 
L 87.50496 632.598599 
L 87.09328 635.570565 
L 86.88496 632.87589 
L 86.6816 633.250931 
L 86.47328 637.313291 
L 86.26992 636.258696 
L 86.0616 638.936839 
L 85.85824 636.966262 
L 85.44656 638.414358 
L 85.2432 641.384961 
L 85.03488 639.83325 
L 84.83152 640.789643 
L 84.62816 639.497101 
L 84.4248 639.256362 
L 84.21648 641.314527 
L 84.01312 638.354897 
L 83.80976 639.957636 
L 83.6064 638.587572 
L 83.40304 639.067611 
L 83.19968 637.507324 
L 82.99632 638.866192 
L 82.5896 636.479048 
L 82.38624 637.152508 
L 82.18288 636.729661 
L 81.97952 638.243067 
L 81.5728 633.749102 
L 81.17104 637.784123 
L 80.96768 636.769833 
L 80.76432 636.976075 
L 80.56592 638.042562 
L 80.36256 637.244997 
L 79.75744 640.565261 
L 79.55408 639.354343 
L 79.35568 639.334565 
L 79.15232 640.380621 
L 78.95392 640.660379 
L 78.75056 642.571005 
L 78.55216 642.241989 
L 78.35376 640.301553 
L 78.1504 641.973292 
L 77.952 641.941314 
L 77.55024 639.508616 
L 77.35184 641.481244 
L 77.15344 638.361237 
L 76.95504 640.178821 
L 76.75168 639.46779 
L 76.55328 641.340458 
L 76.35488 639.339422 
L 76.15648 639.61936 
L 75.75968 638.29287 
L 75.56128 638.472965 
L 75.36288 639.351153 
L 75.16448 640.795708 
L 74.96608 640.081541 
L 74.76768 640.347765 
L 74.56928 641.922971 
L 74.37088 641.032588 
L 74.17744 643.730785 
L 73.97904 643.164723 
L 73.78064 644.458153 
L 73.58224 641.37725 
L 73.3888 642.824521 
L 73.1904 642.795759 
L 72.992 642.550163 
L 72.79856 642.745482 
L 72.60016 642.061305 
L 72.40176 643.432299 
L 72.20832 642.97323 
L 72.00992 641.545762 
L 72.00992 641.545762 
" clip-path="url(#pe1ce42ee56)" style="fill: none; stroke-dasharray: 3.7,1.6; stroke-dashoffset: 0; stroke: #808080"/>
   </g>
   <g id="line2d_24">
    <path d="M 72 598.8 
L 518.4 598.8 
" clip-path="url(#pe1ce42ee56)" style="fill: none; stroke-dasharray: 5.55,2.4; stroke-dashoffset: 0; stroke: #000000; stroke-width: 1.5"/>
   </g>
   <g id="patch_9">
    <path d="M 72 640.8 
L 72 556.8 
" style="fill: none; stroke: #000000; stroke-width: 0.8; stroke-linejoin: miter; stroke-linecap: square"/>
   </g>
   <g id="patch_10">
    <path d="M 518.4 640.8 
L 518.4 556.8 
" style="fill: none; stroke: #000000; stroke-width: 0.8; stroke-linejoin: miter; stroke-linecap: square"/>
   </g>
   <g id="patch_11">
    <path d="M 72 640.8 
L 518.4 640.8 
" style="fill: none; stroke: #000000; stroke-width: 0.8; stroke-linejoin: miter; stroke-linecap: square"/>
   </g>
   <g id="patch_12">
    <path d="M 72 556.8 
L 518.4 556.8 
" style="fill: none; stroke: #000000; stroke-width: 0.8; stroke-linejoin: miter; stroke-linecap: square"/>
   </g>
  </g>
  <g id="text_18">
   <!-- Photon energy (eV) -->
   <g transform="translate(229.8825 710.304375) scale(0.12 -0.12)">
    <defs>
     <path id="DejaVuSans-50" d="M 1259 4147 
L 1259 2394 
L 2053 2394 
Q 2494 2394 2734 2622 
Q 2975 2850 2975 3272 
Q 2975 3691 2734 3919 
Q 2494 4147 2053 4147 
L 1259 4147 
z
M 628 4666 
L 2053 4666 
Q 2838 4666 3239 4311 
Q 3641 3956 3641 3272 
Q 3641 2581 3239 2228 
Q 2838 1875 2053 1875 
L 1259 1875 
L 1259 0 
L 628 0 
L 628 4666 
z
" transform="scale(0.015625)"/>
     <path id="DejaVuSans-68" d="M 3513 2113 
L 3513 0 
L 2938 0 
L 2938 2094 
Q 2938 2591 2744 2837 
Q 2550 3084 2163 3084 
Q 1697 3084 1428 2787 
Q 1159 2491 1159 1978 
L 1159 0 
L 581 0 
L 581 4863 
L 1159 4863 
L 1159 2956 
Q 1366 3272 1645 3428 
Q 1925 3584 2291 3584 
Q 2894 3584 3203 3211 
Q 3513 2838 3513 2113 
z
" transform="scale(0.015625)"/>
     <path id="DejaVuSans-67" d="M 2906 1791 
Q 2906 2416 2648 2759 
Q 2391 3103 1925 3103 
Q 1463 3103 1205 2759 
Q 947 2416 947 1791 
Q 947 1169 1205 825 
Q 1463 481 1925 481 
Q 2391 481 2648 825 
Q 2906 1169 2906 1791 
z
M 3481 434 
Q 3481 -459 3084 -895 
Q 2688 -1331 1869 -1331 
Q 1566 -1331 1297 -1286 
Q 1028 -1241 775 -1147 
L 775 -588 
Q 1028 -725 1275 -790 
Q 1522 -856 1778 -856 
Q 2344 -856 2625 -561 
Q 2906 -266 2906 331 
L 2906 616 
Q 2728 306 2450 153 
Q 2172 0 1784 0 
Q 1141 0 747 490 
Q 353 981 353 1791 
Q 353 2603 747 3093 
Q 1141 3584 1784 3584 
Q 2172 3584 2450 3431 
Q 2728 3278 2906 2969 
L 2906 3500 
L 3481 3500 
L 3481 434 
z
" transform="scale(0.015625)"/>
     <path id="DejaVuSans-56" d="M 1831 0 
L 50 4666 
L 709 4666 
L 2188 738 
L 3669 4666 
L 4325 4666 
L 2547 0 
L 1831 0 
z
" transform="scale(0.015625)"/>
    </defs>
    <use xlink:href="#DejaVuSans-50"/>
    <use xlink:href="#DejaVuSans-68" transform="translate(60.302734 0)"/>
    <use xlink:href="#DejaVuSans-6f" transform="translate(123.681641 0)"/>
    <use xlink:href="#DejaVuSans-74" transform="translate(184.863281 0)"/>
    <use xlink:href="#DejaVuSans-6f" transform="translate(224.072266 0)"/>
    <use xlink:href="#DejaVuSans-6e" transform="translate(285.253906 0)"/>
    <use xlink:href="#DejaVuSans-20" transform="translate(348.632812 0)"/>
    <use xlink:href="#DejaVuSans-65" transform="translate(380.419922 0)"/>
    <use xlink:href="#DejaVuSans-6e" transform="translate(441.943359 0)"/>
    <use xlink:href="#DejaVuSans-65" transform="translate(505.322266 0)"/>
    <use xlink:href="#DejaVuSans-72" transform="translate(566.845703 0)"/>
    <use xlink:href="#DejaVuSans-67" transform="translate(606.208984 0)"/>
    <use xlink:href="#DejaVuSans-79" transform="translate(669.685547 0)"/>
    <use xlink:href="#DejaVuSans-20" transform="translate(728.865234 0)"/>
    <use xlink:href="#DejaVuSans-28" transform="translate(760.652344 0)"/>
    <use xlink:href="#DejaVuSans-65" transform="translate(799.666016 0)"/>
    <use xlink:href="#DejaVuSans-56" transform="translate(861.189453 0)"/>
    <use xlink:href="#DejaVuSans-29" transform="translate(929.597656 0)"/>
   </g>
  </g>
  <g id="text_19">
   <!-- Excitation power 1.4 mW -->
   <g transform="translate(212.689687 23.518125) scale(0.12 -0.12)">
    <defs>
     <path id="DejaVuSans-45" d="M 628 4666 
L 3578 4666 
L 3578 4134 
L 1259 4134 
L 1259 2753 
L 3481 2753 
L 3481 2222 
L 1259 2222 
L 1259 531 
L 3634 531 
L 3634 0 
L 628 0 
L 628 4666 
z
" transform="scale(0.015625)"/>
     <path id="DejaVuSans-78" d="M 3513 3500 
L 2247 1797 
L 3578 0 
L 2900 0 
L 1881 1375 
L 863 0 
L 184 0 
L 1544 1831 
L 300 3500 
L 978 3500 
L 1906 2253 
L 2834 3500 
L 3513 3500 
z
" transform="scale(0.015625)"/>
     <path id="DejaVuSans-70" d="M 1159 525 
L 1159 -1331 
L 581 -1331 
L 581 3500 
L 1159 3500 
L 1159 2969 
Q 1341 3281 1617 3432 
Q 1894 3584 2278 3584 
Q 2916 3584 3314 3078 
Q 3713 2572 3713 1747 
Q 3713 922 3314 415 
Q 2916 -91 2278 -91 
Q 1894 -91 1617 61 
Q 1341 213 1159 525 
z
M 3116 1747 
Q 3116 2381 2855 2742 
Q 2594 3103 2138 3103 
Q 1681 3103 1420 2742 
Q 1159 2381 1159 1747 
Q 1159 1113 1420 752 
Q 1681 391 2138 391 
Q 2594 391 2855 752 
Q 3116 1113 3116 1747 
z
" transform="scale(0.015625)"/>
     <path id="DejaVuSans-77" d="M 269 3500 
L 844 3500 
L 1563 769 
L 2278 3500 
L 2956 3500 
L 3675 769 
L 4391 3500 
L 4966 3500 
L 4050 0 
L 3372 0 
L 2619 2869 
L 1863 0 
L 1184 0 
L 269 3500 
z
" transform="scale(0.015625)"/>
     <path id="DejaVuSans-6d" d="M 3328 2828 
Q 3544 3216 3844 3400 
Q 4144 3584 4550 3584 
Q 5097 3584 5394 3201 
Q 5691 2819 5691 2113 
L 5691 0 
L 5113 0 
L 5113 2094 
Q 5113 2597 4934 2840 
Q 4756 3084 4391 3084 
Q 3944 3084 3684 2787 
Q 3425 2491 3425 1978 
L 3425 0 
L 2847 0 
L 2847 2094 
Q 2847 2600 2669 2842 
Q 2491 3084 2119 3084 
Q 1678 3084 1418 2786 
Q 1159 2488 1159 1978 
L 1159 0 
L 581 0 
L 581 3500 
L 1159 3500 
L 1159 2956 
Q 1356 3278 1631 3431 
Q 1906 3584 2284 3584 
Q 2666 3584 2933 3390 
Q 3200 3197 3328 2828 
z
" transform="scale(0.015625)"/>
     <path id="DejaVuSans-57" d="M 213 4666 
L 850 4666 
L 1831 722 
L 2809 4666 
L 3519 4666 
L 4500 722 
L 5478 4666 
L 6119 4666 
L 4947 0 
L 4153 0 
L 3169 4050 
L 2175 0 
L 1381 0 
L 213 4666 
z
" transform="scale(0.015625)"/>
    </defs>
    <use xlink:href="#DejaVuSans-45"/>
    <use xlink:href="#DejaVuSans-78" transform="translate(63.183594 0)"/>
    <use xlink:href="#DejaVuSans-63" transform="translate(120.613281 0)"/>
    <use xlink:href="#DejaVuSans-69" transform="translate(175.59375 0)"/>
    <use xlink:href="#DejaVuSans-74" transform="translate(203.376953 0)"/>
    <use xlink:href="#DejaVuSans-61" transform="translate(242.585938 0)"/>
    <use xlink:href="#DejaVuSans-74" transform="translate(303.865234 0)"/>
    <use xlink:href="#DejaVuSans-69" transform="translate(343.074219 0)"/>
    <use xlink:href="#DejaVuSans-6f" transform="translate(370.857422 0)"/>
    <use xlink:href="#DejaVuSans-6e" transform="translate(432.039062 0)"/>
    <use xlink:href="#DejaVuSans-20" transform="translate(495.417969 0)"/>
    <use xlink:href="#DejaVuSans-70" transform="translate(527.205078 0)"/>
    <use xlink:href="#DejaVuSans-6f" transform="translate(590.681641 0)"/>
    <use xlink:href="#DejaVuSans-77" transform="translate(651.863281 0)"/>
    <use xlink:href="#DejaVuSans-65" transform="translate(733.650391 0)"/>
    <use xlink:href="#DejaVuSans-72" transform="translate(795.173828 0)"/>
    <use xlink:href="#DejaVuSans-20" transform="translate(836.287109 0)"/>
    <use xlink:href="#DejaVuSans-31" transform="translate(868.074219 0)"/>
    <use xlink:href="#DejaVuSans-2e" transform="translate(931.697266 0)"/>
    <use xlink:href="#DejaVuSans-34" transform="translate(963.484375 0)"/>
    <use xlink:href="#DejaVuSans-20" transform="translate(1027.107422 0)"/>
    <use xlink:href="#DejaVuSans-6d" transform="translate(1058.894531 0)"/>
    <use xlink:href="#DejaVuSans-57" transform="translate(1156.306641 0)"/>
   </g>
  </g>
 </g>
 <defs>
  <clipPath id="p7976473899">
   <rect x="72" y="86.4" width="446.4" height="420"/>
  </clipPath>
  <clipPath id="pe1ce42ee56">
   <rect x="72" y="556.8" width="446.4" height="84"/>
  </clipPath>
 </defs>
</svg>
