<?xml version="1.0" encoding="utf-8" standalone="no"?>
<!DOCTYPE svg PUBLIC "-//W3C//DTD SVG 1.1//EN"
  "http://www.w3.org/Graphics/SVG/1.1/DTD/svg11.dtd">
<svg xmlns:xlink="http://www.w3.org/1999/xlink" width="576pt" height="720pt" viewBox="0 0 576 720" xmlns="http://www.w3.org/2000/svg" version="1.1">
 <metadata>
  <rdf:RDF xmlns:dc="http://purl.org/dc/elements/1.1/" xmlns:cc="http://creativecommons.org/ns#" xmlns:rdf="http://www.w3.org/1999/02/22-rdf-syntax-ns#">
   <cc:Work>
    <dc:type rdf:resource="http://purl.org/dc/dcmitype/StillImage"/>
    <dc:date>2026-06-10T15:01:56.131098</dc:date>
    <dc:format>image/svg+xml</dc:format>
    <dc:creator>
     <cc:Agent>
      <dc:title>Matplotlib v3.10.0, https://matplotlib.org/</dc:title>
     </cc:Agent>
    </dc:creator>
   </cc:Work>
  </rdf:RDF>
 </metadata>
 <defs>
  <style type="text/css">*{stroke-linejoin: round; stroke-linecap: butt}</style>
 </defs>
 <g id="figure_1">
  <g id="patch_1">
   <path d="M 0 720 
L 576 720 
L 576 0 
L 0 0 
z
" style="fill: #ffffff"/>
  </g>
  <g id="axes_1">
   <g id="patch_2">
    <path d="M 72 506.4 
L 518.4 506.4 
L 518.4 86.4 
L 72 86.4 
z
" style="fill: #ffffff"/>
   </g>
   <g id="matplotlib.axis_1">
    <g id="xtick_1">
     <g id="line2d_1">
      <defs>
       <path id="md44cf1ef2a" d="M 0 0 
L 0 3.5 
" style="stroke: #000000; stroke-width: 0.8"/>
      </defs>
      <g>
       <use xlink:href="#md44cf1ef2a" x="72" y="506.4" style="stroke: #000000; stroke-width: 0.8"/>
      </g>
     </g>
    </g>
    <g id="xtick_2">
     <g id="line2d_2">
      <g>
       <use xlink:href="#md44cf1ef2a" x="171.2" y="506.4" style="stroke: #000000; stroke-width: 0.8"/>
      </g>
     </g>
    </g>
    <g id="xtick_3">
     <g id="line2d_3">
      <g>
       <use xlink:href="#md44cf1ef2a" x="270.4" y="506.4" style="stroke: #000000; stroke-width: 0.8"/>
      </g>
     </g>
    </g>
    <g id="xtick_4">
     <g id="line2d_4">
      <g>
       <use xlink:href="#md44cf1ef2a" x="369.6" y="506.4" style="stroke: #000000; stroke-width: 0.8"/>
      </g>
     </g>
    </g>
    <g id="xtick_5">
     <g id="line2d_5">
      <g>
       <use xlink:href="#md44cf1ef2a" x="468.8" y="506.4" style="stroke: #000000; stroke-width: 0.8"/>
      </g>
     </g>
    </g>
   </g>
   <g id="matplotlib.axis_2">
    <g id="ytick_1">
     <g id="line2d_6">
      <defs>
       <path id="m2c6f7f1967" d="M 0 0 
L -3.5 0 
" style="stroke: #000000; stroke-width: 0.8"/>
      </defs>
      <g>
       <use xlink:href="#m2c6f7f1967" x="72" y="485.835615" style="stroke: #000000; stroke-width: 0.8"/>
      </g>
     </g>
     <g id="text_1">
      <!-- 0 -->
      <g transform="translate(58.6375 489.634834) scale(0.1 -0.1)">
       <defs>
        <path id="DejaVuSans-30" d="M 2034 4250 
Q 1547 4250 1301 3770 
Q 1056 3291 1056 2328 
Q 1056 1369 1301 889 
Q 1547 409 2034 409 
Q 2525 409 2770 889 
Q 3016 1369 3016 2328 
Q 3016 3291 2770 3770 
Q 2525 4250 2034 4250 
z
M 2034 4750 
Q 2819 4750 3233 4129 
Q 3647 3509 3647 2328 
Q 3647 1150 3233 529 
Q 2819 -91 2034 -91 
Q 1250 -91 836 529 
Q 422 1150 422 2328 
Q 422 3509 836 4129 
Q 1250 4750 2034 4750 
z
" transform="scale(0.015625)"/>
       </defs>
       <use xlink:href="#DejaVuSans-30"/>
      </g>
     </g>
    </g>
    <g id="ytick_2">
     <g id="line2d_7">
      <g>
       <use xlink:href="#m2c6f7f1967" x="72" y="437.108146" style="stroke: #000000; stroke-width: 0.8"/>
      </g>
     </g>
     <g id="text_2">
      <!-- 5000 -->
      <g transform="translate(39.55 440.907365) scale(0.1 -0.1)">
       <defs>
        <path id="DejaVuSans-35" d="M 691 4666 
L 3169 4666 
L 3169 4134 
L 1269 4134 
L 1269 2991 
Q 1406 3038 1543 3061 
Q 1681 3084 1819 3084 
Q 2600 3084 3056 2656 
Q 3513 2228 3513 1497 
Q 3513 744 3044 326 
Q 2575 -91 1722 -91 
Q 1428 -91 1123 -41 
Q 819 9 494 109 
L 494 744 
Q 775 591 1075 516 
Q 1375 441 1709 441 
Q 2250 441 2565 725 
Q 2881 1009 2881 1497 
Q 2881 1984 2565 2268 
Q 2250 2553 1709 2553 
Q 1456 2553 1204 2497 
Q 953 2441 691 2322 
L 691 4666 
z
" transform="scale(0.015625)"/>
       </defs>
       <use xlink:href="#DejaVuSans-35"/>
       <use xlink:href="#DejaVuSans-30" transform="translate(63.623047 0)"/>
       <use xlink:href="#DejaVuSans-30" transform="translate(127.246094 0)"/>
       <use xlink:href="#DejaVuSans-30" transform="translate(190.869141 0)"/>
      </g>
     </g>
    </g>
    <g id="ytick_3">
     <g id="line2d_8">
      <g>
       <use xlink:href="#m2c6f7f1967" x="72" y="388.380677" style="stroke: #000000; stroke-width: 0.8"/>
      </g>
     </g>
     <g id="text_3">
      <!-- 10000 -->
      <g transform="translate(33.1875 392.179896) scale(0.1 -0.1)">
       <defs>
        <path id="DejaVuSans-31" d="M 794 531 
L 1825 531 
L 1825 4091 
L 703 3866 
L 703 4441 
L 1819 4666 
L 2450 4666 
L 2450 531 
L 3481 531 
L 3481 0 
L 794 0 
L 794 531 
z
" transform="scale(0.015625)"/>
       </defs>
       <use xlink:href="#DejaVuSans-31"/>
       <use xlink:href="#DejaVuSans-30" transform="translate(63.623047 0)"/>
       <use xlink:href="#DejaVuSans-30" transform="translate(127.246094 0)"/>
       <use xlink:href="#DejaVuSans-30" transform="translate(190.869141 0)"/>
       <use xlink:href="#DejaVuSans-30" transform="translate(254.492188 0)"/>
      </g>
     </g>
    </g>
    <g id="ytick_4">
     <g id="line2d_9">
      <g>
       <use xlink:href="#m2c6f7f1967" x="72" y="339.653208" style="stroke: #000000; stroke-width: 0.8"/>
      </g>
     </g>
     <g id="text_4">
      <!-- 15000 -->
      <g transform="translate(33.1875 343.452427) scale(0.1 -0.1)">
       <use xlink:href="#DejaVuSans-31"/>
       <use xlink:href="#DejaVuSans-35" transform="translate(63.623047 0)"/>
       <use xlink:href="#DejaVuSans-30" transform="translate(127.246094 0)"/>
       <use xlink:href="#DejaVuSans-30" transform="translate(190.869141 0)"/>
       <use xlink:href="#DejaVuSans-30" transform="translate(254.492188 0)"/>
      </g>
     </g>
    </g>
    <g id="ytick_5">
     <g id="line2d_10">
      <g>
       <use xlink:href="#m2c6f7f1967" x="72" y="290.925739" style="stroke: #000000; stroke-width: 0.8"/>
      </g>
     </g>
     <g id="text_5">
      <!-- 20000 -->
      <g transform="translate(33.1875 294.724958) scale(0.1 -0.1)">
       <defs>
        <path id="DejaVuSans-32" d="M 1228 531 
L 3431 531 
L 3431 0 
L 469 0 
L 469 531 
Q 828 903 1448 1529 
Q 2069 2156 2228 2338 
Q 2531 2678 2651 2914 
Q 2772 3150 2772 3378 
Q 2772 3750 2511 3984 
Q 2250 4219 1831 4219 
Q 1534 4219 1204 4116 
Q 875 4013 500 3803 
L 500 4441 
Q 881 4594 1212 4672 
Q 1544 4750 1819 4750 
Q 2544 4750 2975 4387 
Q 3406 4025 3406 3419 
Q 3406 3131 3298 2873 
Q 3191 2616 2906 2266 
Q 2828 2175 2409 1742 
Q 1991 1309 1228 531 
z
" transform="scale(0.015625)"/>
       </defs>
       <use xlink:href="#DejaVuSans-32"/>
       <use xlink:href="#DejaVuSans-30" transform="translate(63.623047 0)"/>
       <use xlink:href="#DejaVuSans-30" transform="translate(127.246094 0)"/>
       <use xlink:href="#DejaVuSans-30" transform="translate(190.869141 0)"/>
       <use xlink:href="#DejaVuSans-30" transform="translate(254.492188 0)"/>
      </g>
     </g>
    </g>
    <g id="ytick_6">
     <g id="line2d_11">
      <g>
       <use xlink:href="#m2c6f7f1967" x="72" y="242.19827" style="stroke: #000000; stroke-width: 0.8"/>
      </g>
     </g>
     <g id="text_6">
      <!-- 25000 -->
      <g transform="translate(33.1875 245.997489) scale(0.1 -0.1)">
       <use xlink:href="#DejaVuSans-32"/>
       <use xlink:href="#DejaVuSans-35" transform="translate(63.623047 0)"/>
       <use xlink:href="#DejaVuSans-30" transform="translate(127.246094 0)"/>
       <use xlink:href="#DejaVuSans-30" transform="translate(190.869141 0)"/>
       <use xlink:href="#DejaVuSans-30" transform="translate(254.492188 0)"/>
      </g>
     </g>
    </g>
    <g id="ytick_7">
     <g id="line2d_12">
      <g>
       <use xlink:href="#m2c6f7f1967" x="72" y="193.470801" style="stroke: #000000; stroke-width: 0.8"/>
      </g>
     </g>
     <g id="text_7">
      <!-- 30000 -->
      <g transform="translate(33.1875 197.27002) scale(0.1 -0.1)">
       <defs>
        <path id="DejaVuSans-33" d="M 2597 2516 
Q 3050 2419 3304 2112 
Q 3559 1806 3559 1356 
Q 3559 666 3084 287 
Q 2609 -91 1734 -91 
Q 1441 -91 1130 -33 
Q 819 25 488 141 
L 488 750 
Q 750 597 1062 519 
Q 1375 441 1716 441 
Q 2309 441 2620 675 
Q 2931 909 2931 1356 
Q 2931 1769 2642 2001 
Q 2353 2234 1838 2234 
L 1294 2234 
L 1294 2753 
L 1863 2753 
Q 2328 2753 2575 2939 
Q 2822 3125 2822 3475 
Q 2822 3834 2567 4026 
Q 2313 4219 1838 4219 
Q 1578 4219 1281 4162 
Q 984 4106 628 3988 
L 628 4550 
Q 988 4650 1302 4700 
Q 1616 4750 1894 4750 
Q 2613 4750 3031 4423 
Q 3450 4097 3450 3541 
Q 3450 3153 3228 2886 
Q 3006 2619 2597 2516 
z
" transform="scale(0.015625)"/>
       </defs>
       <use xlink:href="#DejaVuSans-33"/>
       <use xlink:href="#DejaVuSans-30" transform="translate(63.623047 0)"/>
       <use xlink:href="#DejaVuSans-30" transform="translate(127.246094 0)"/>
       <use xlink:href="#DejaVuSans-30" transform="translate(190.869141 0)"/>
       <use xlink:href="#DejaVuSans-30" transform="translate(254.492188 0)"/>
      </g>
     </g>
    </g>
    <g id="ytick_8">
     <g id="line2d_13">
      <g>
       <use xlink:href="#m2c6f7f1967" x="72" y="144.743332" style="stroke: #000000; stroke-width: 0.8"/>
      </g>
     </g>
     <g id="text_8">
      <!-- 35000 -->
      <g transform="translate(33.1875 148.542551) scale(0.1 -0.1)">
       <use xlink:href="#DejaVuSans-33"/>
       <use xlink:href="#DejaVuSans-35" transform="translate(63.623047 0)"/>
       <use xlink:href="#DejaVuSans-30" transform="translate(127.246094 0)"/>
       <use xlink:href="#DejaVuSans-30" transform="translate(190.869141 0)"/>
       <use xlink:href="#DejaVuSans-30" transform="translate(254.492188 0)"/>
      </g>
     </g>
    </g>
    <g id="ytick_9">
     <g id="line2d_14">
      <g>
       <use xlink:href="#m2c6f7f1967" x="72" y="96.015863" style="stroke: #000000; stroke-width: 0.8"/>
      </g>
     </g>
     <g id="text_9">
      <!-- 40000 -->
      <g transform="translate(33.1875 99.815082) scale(0.1 -0.1)">
       <defs>
        <path id="DejaVuSans-34" d="M 2419 4116 
L 825 1625 
L 2419 1625 
L 2419 4116 
z
M 2253 4666 
L 3047 4666 
L 3047 1625 
L 3713 1625 
L 3713 1100 
L 3047 1100 
L 3047 0 
L 2419 0 
L 2419 1100 
L 313 1100 
L 313 1709 
L 2253 4666 
z
" transform="scale(0.015625)"/>
       </defs>
       <use xlink:href="#DejaVuSans-34"/>
       <use xlink:href="#DejaVuSans-30" transform="translate(63.623047 0)"/>
       <use xlink:href="#DejaVuSans-30" transform="translate(127.246094 0)"/>
       <use xlink:href="#DejaVuSans-30" transform="translate(190.869141 0)"/>
       <use xlink:href="#DejaVuSans-30" transform="translate(254.492188 0)"/>
      </g>
     </g>
    </g>
    <g id="text_10">
     <!-- Intensitiy (a.u.) -->
     <g transform="translate(27.107812 334.453125) rotate(-90) scale(0.1 -0.1)">
      <defs>
       <path id="DejaVuSans-49" d="M 628 4666 
L 1259 4666 
L 1259 0 
L 628 0 
L 628 4666 
z
" transform="scale(0.015625)"/>
       <path id="DejaVuSans-6e" d="M 3513 2113 
L 3513 0 
L 2938 0 
L 2938 2094 
Q 2938 2591 2744 2837 
Q 2550 3084 2163 3084 
Q 1697 3084 1428 2787 
Q 1159 2491 1159 1978 
L 1159 0 
L 581 0 
L 581 3500 
L 1159 3500 
L 1159 2956 
Q 1366 3272 1645 3428 
Q 1925 3584 2291 3584 
Q 2894 3584 3203 3211 
Q 3513 2838 3513 2113 
z
" transform="scale(0.015625)"/>
       <path id="DejaVuSans-74" d="M 1172 4494 
L 1172 3500 
L 2356 3500 
L 2356 3053 
L 1172 3053 
L 1172 1153 
Q 1172 725 1289 603 
Q 1406 481 1766 481 
L 2356 481 
L 2356 0 
L 1766 0 
Q 1100 0 847 248 
Q 594 497 594 1153 
L 594 3053 
L 172 3053 
L 172 3500 
L 594 3500 
L 594 4494 
L 1172 4494 
z
" transform="scale(0.015625)"/>
       <path id="DejaVuSans-65" d="M 3597 1894 
L 3597 1613 
L 953 1613 
Q 991 1019 1311 708 
Q 1631 397 2203 397 
Q 2534 397 2845 478 
Q 3156 559 3463 722 
L 3463 178 
Q 3153 47 2828 -22 
Q 2503 -91 2169 -91 
Q 1331 -91 842 396 
Q 353 884 353 1716 
Q 353 2575 817 3079 
Q 1281 3584 2069 3584 
Q 2775 3584 3186 3129 
Q 3597 2675 3597 1894 
z
M 3022 2063 
Q 3016 2534 2758 2815 
Q 2500 3097 2075 3097 
Q 1594 3097 1305 2825 
Q 1016 2553 972 2059 
L 3022 2063 
z
" transform="scale(0.015625)"/>
       <path id="DejaVuSans-73" d="M 2834 3397 
L 2834 2853 
Q 2591 2978 2328 3040 
Q 2066 3103 1784 3103 
Q 1356 3103 1142 2972 
Q 928 2841 928 2578 
Q 928 2378 1081 2264 
Q 1234 2150 1697 2047 
L 1894 2003 
Q 2506 1872 2764 1633 
Q 3022 1394 3022 966 
Q 3022 478 2636 193 
Q 2250 -91 1575 -91 
Q 1294 -91 989 -36 
Q 684 19 347 128 
L 347 722 
Q 666 556 975 473 
Q 1284 391 1588 391 
Q 1994 391 2212 530 
Q 2431 669 2431 922 
Q 2431 1156 2273 1281 
Q 2116 1406 1581 1522 
L 1381 1569 
Q 847 1681 609 1914 
Q 372 2147 372 2553 
Q 372 3047 722 3315 
Q 1072 3584 1716 3584 
Q 2034 3584 2315 3537 
Q 2597 3491 2834 3397 
z
" transform="scale(0.015625)"/>
       <path id="DejaVuSans-69" d="M 603 3500 
L 1178 3500 
L 1178 0 
L 603 0 
L 603 3500 
z
M 603 4863 
L 1178 4863 
L 1178 4134 
L 603 4134 
L 603 4863 
z
" transform="scale(0.015625)"/>
       <path id="DejaVuSans-79" d="M 2059 -325 
Q 1816 -950 1584 -1140 
Q 1353 -1331 966 -1331 
L 506 -1331 
L 506 -850 
L 844 -850 
Q 1081 -850 1212 -737 
Q 1344 -625 1503 -206 
L 1606 56 
L 191 3500 
L 800 3500 
L 1894 763 
L 2988 3500 
L 3597 3500 
L 2059 -325 
z
" transform="scale(0.015625)"/>
       <path id="DejaVuSans-20" transform="scale(0.015625)"/>
       <path id="DejaVuSans-28" d="M 1984 4856 
Q 1566 4138 1362 3434 
Q 1159 2731 1159 2009 
Q 1159 1288 1364 580 
Q 1569 -128 1984 -844 
L 1484 -844 
Q 1016 -109 783 600 
Q 550 1309 550 2009 
Q 550 2706 781 3412 
Q 1013 4119 1484 4856 
L 1984 4856 
z
" transform="scale(0.015625)"/>
       <path id="DejaVuSans-61" d="M 2194 1759 
Q 1497 1759 1228 1600 
Q 959 1441 959 1056 
Q 959 750 1161 570 
Q 1363 391 1709 391 
Q 2188 391 2477 730 
Q 2766 1069 2766 1631 
L 2766 1759 
L 2194 1759 
z
M 3341 1997 
L 3341 0 
L 2766 0 
L 2766 531 
Q 2569 213 2275 61 
Q 1981 -91 1556 -91 
Q 1019 -91 701 211 
Q 384 513 384 1019 
Q 384 1609 779 1909 
Q 1175 2209 1959 2209 
L 2766 2209 
L 2766 2266 
Q 2766 2663 2505 2880 
Q 2244 3097 1772 3097 
Q 1472 3097 1187 3025 
Q 903 2953 641 2809 
L 641 3341 
Q 956 3463 1253 3523 
Q 1550 3584 1831 3584 
Q 2591 3584 2966 3190 
Q 3341 2797 3341 1997 
z
" transform="scale(0.015625)"/>
       <path id="DejaVuSans-2e" d="M 684 794 
L 1344 794 
L 1344 0 
L 684 0 
L 684 794 
z
" transform="scale(0.015625)"/>
       <path id="DejaVuSans-75" d="M 544 1381 
L 544 3500 
L 1119 3500 
L 1119 1403 
Q 1119 906 1312 657 
Q 1506 409 1894 409 
Q 2359 409 2629 706 
Q 2900 1003 2900 1516 
L 2900 3500 
L 3475 3500 
L 3475 0 
L 2900 0 
L 2900 538 
Q 2691 219 2414 64 
Q 2138 -91 1772 -91 
Q 1169 -91 856 284 
Q 544 659 544 1381 
z
M 1991 3584 
L 1991 3584 
z
" transform="scale(0.015625)"/>
       <path id="DejaVuSans-29" d="M 513 4856 
L 1013 4856 
Q 1481 4119 1714 3412 
Q 1947 2706 1947 2009 
Q 1947 1309 1714 600 
Q 1481 -109 1013 -844 
L 513 -844 
Q 928 -128 1133 580 
Q 1338 1288 1338 2009 
Q 1338 2731 1133 3434 
Q 928 4138 513 4856 
z
" transform="scale(0.015625)"/>
      </defs>
      <use xlink:href="#DejaVuSans-49"/>
      <use xlink:href="#DejaVuSans-6e" transform="translate(29.492188 0)"/>
      <use xlink:href="#DejaVuSans-74" transform="translate(92.871094 0)"/>
      <use xlink:href="#DejaVuSans-65" transform="translate(132.080078 0)"/>
      <use xlink:href="#DejaVuSans-6e" transform="translate(193.603516 0)"/>
      <use xlink:href="#DejaVuSans-73" transform="translate(256.982422 0)"/>
      <use xlink:href="#DejaVuSans-69" transform="translate(309.082031 0)"/>
      <use xlink:href="#DejaVuSans-74" transform="translate(336.865234 0)"/>
      <use xlink:href="#DejaVuSans-69" transform="translate(376.074219 0)"/>
      <use xlink:href="#DejaVuSans-79" transform="translate(403.857422 0)"/>
      <use xlink:href="#DejaVuSans-20" transform="translate(463.037109 0)"/>
      <use xlink:href="#DejaVuSans-28" transform="translate(494.824219 0)"/>
      <use xlink:href="#DejaVuSans-61" transform="translate(533.837891 0)"/>
      <use xlink:href="#DejaVuSans-2e" transform="translate(595.117188 0)"/>
      <use xlink:href="#DejaVuSans-75" transform="translate(626.904297 0)"/>
      <use xlink:href="#DejaVuSans-2e" transform="translate(690.283203 0)"/>
      <use xlink:href="#DejaVuSans-29" transform="translate(722.070312 0)"/>
     </g>
    </g>
   </g>
   <g id="line2d_15">
    <path d="M 518.29584 486.650191 
L 517.07568 486.628098 
L 516.4656 487.036108 
L 515.85552 486.537787 
L 515.24544 486.633941 
L 514.63536 486.613149 
L 514.03024 486.884733 
L 513.42016 486.269466 
L 512.20992 485.935539 
L 511.6048 486.207122 
L 510.99968 486.235068 
L 510.39952 485.882951 
L 509.7944 485.832933 
L 508.58912 486.35662 
L 507.98896 485.731628 
L 507.3888 485.340529 
L 506.7936 485.465951 
L 506.19344 485.376962 
L 505.59328 485.999394 
L 504.99808 485.189249 
L 504.40288 485.480344 
L 503.80768 485.401111 
L 503.21248 485.097732 
L 502.61728 484.930789 
L 502.02208 485.455777 
L 501.43184 485.064698 
L 500.2464 484.925734 
L 499.65616 484.710074 
L 499.06592 484.806271 
L 498.47568 485.26305 
L 497.88544 484.374952 
L 497.30016 484.49065 
L 496.70992 484.450409 
L 495.53936 484.69155 
L 494.95408 484.612338 
L 494.3688 484.026361 
L 493.78352 483.723002 
L 493.2032 484.61835 
L 492.61792 483.662044 
L 492.0376 483.582843 
L 491.45728 484.020152 
L 490.87696 483.278258 
L 490.29664 483.676585 
L 489.71632 483.188073 
L 489.136 482.933453 
L 488.56064 482.941972 
L 487.98528 483.116164 
L 487.40496 483.504746 
L 486.8296 482.782353 
L 486.25424 483.073491 
L 485.67888 482.672698 
L 485.10848 482.729955 
L 483.96272 482.201255 
L 483.38736 481.537335 
L 482.81696 482.003902 
L 481.67616 481.251067 
L 481.11072 482.126956 
L 480.54032 481.336354 
L 479.96992 480.955064 
L 479.40448 480.827167 
L 478.2736 481.087884 
L 477.70816 480.609149 
L 476.57728 480.509282 
L 476.01184 480.313167 
L 475.45136 480.282735 
L 474.89088 479.579864 
L 473.76496 479.713901 
L 473.20448 480.229217 
L 472.64896 479.136537 
L 472.08848 479.476434 
L 471.528 479.026946 
L 470.97248 479.162198 
L 470.41696 478.927122 
L 469.85648 477.639522 
L 469.30096 478.271794 
L 468.74544 478.533738 
L 467.08384 476.581096 
L 466.53328 477.310834 
L 465.98272 477.299915 
L 465.43216 476.704266 
L 464.8816 476.556909 
L 464.33104 475.815078 
L 463.78048 476.408379 
L 463.22992 476.212295 
L 462.68432 475.558184 
L 462.13376 475.449809 
L 461.58816 476.169812 
L 461.04256 476.558469 
L 460.49696 475.417083 
L 459.95136 475.094318 
L 459.40576 474.9957 
L 458.31952 474.203998 
L 457.77392 474.163853 
L 457.23328 473.383061 
L 456.69264 473.459872 
L 456.152 472.883735 
L 455.61136 472.473271 
L 455.07072 472.501355 
L 453.45376 471.913178 
L 452.91808 471.385779 
L 452.3824 470.244414 
L 451.84672 469.843706 
L 451.31104 471.177697 
L 450.77536 470.172768 
L 450.23968 470.717374 
L 449.70896 469.653983 
L 449.17328 469.477422 
L 448.64256 470.06102 
L 448.11184 468.032826 
L 447.57616 468.567686 
L 447.04544 467.60175 
L 446.51472 468.234076 
L 445.98896 467.424079 
L 445.45824 467.169564 
L 444.93248 465.989238 
L 444.40176 466.416908 
L 443.876 465.733603 
L 443.35024 466.024846 
L 442.82448 466.481763 
L 442.29872 465.14551 
L 441.77296 464.929988 
L 441.2472 464.470828 
L 440.72144 464.323525 
L 440.20064 463.484302 
L 439.67984 463.16159 
L 439.15408 463.589271 
L 438.63328 462.0971 
L 438.11248 462.076498 
L 437.59168 461.471167 
L 437.07584 462.064542 
L 436.55504 460.241024 
L 436.03424 460.152204 
L 435.5184 461.291327 
L 435.00256 460.24746 
L 434.48176 458.540888 
L 433.96592 460.196522 
L 433.45008 458.129377 
L 432.93424 457.787185 
L 432.42336 458.010242 
L 430.8808 455.999381 
L 430.36992 457.655025 
L 429.85904 455.948475 
L 429.34816 455.031309 
L 428.3264 454.873202 
L 427.81552 454.521275 
L 427.30464 453.584618 
L 426.79872 453.086519 
L 426.28784 452.364263 
L 425.78192 452.519113 
L 425.276 452.118469 
L 424.77008 451.318259 
L 424.26416 450.196449 
L 423.75824 449.766568 
L 423.25232 448.722722 
L 422.75136 448.936054 
L 422.24544 448.262536 
L 421.74448 447.969103 
L 421.24352 446.847303 
L 420.7376 447.148335 
L 420.23664 447.663778 
L 419.73568 446.064449 
L 419.23472 444.903667 
L 418.73872 445.565303 
L 418.23776 444.589685 
L 417.74176 442.970875 
L 417.2408 441.94653 
L 416.7448 442.198856 
L 416.2488 441.359686 
L 415.74784 441.046762 
L 415.25184 440.568175 
L 414.2648 438.003005 
L 413.7688 438.070166 
L 413.27776 437.874209 
L 412.78176 436.66471 
L 412.29072 438.008541 
L 411.79968 438.280368 
L 410.81264 433.8733 
L 410.3216 433.61887 
L 409.83552 433.003868 
L 409.34448 433.704496 
L 408.85344 433.839886 
L 408.36736 430.505891 
L 407.87632 431.752267 
L 407.39024 429.529258 
L 406.90416 429.869314 
L 406.41808 428.679327 
L 405.932 428.863455 
L 404.95984 426.200862 
L 403.99264 426.276764 
L 403.51152 423.839364 
L 403.02544 422.347267 
L 402.54432 425.347853 
L 402.0632 422.364706 
L 401.58208 421.36964 
L 401.10096 421.98258 
L 400.61984 420.129911 
L 400.13872 420.450486 
L 399.66256 418.812228 
L 399.18144 419.863715 
L 398.70528 417.630982 
L 398.22416 416.957517 
L 397.748 414.724783 
L 397.27184 414.002601 
L 396.79568 415.190536 
L 396.31952 413.055258 
L 395.84336 412.118675 
L 395.3672 411.796059 
L 394.896 409.992137 
L 394.41984 411.560147 
L 393.94864 410.33121 
L 393.47744 408.420088 
L 393.00128 406.986485 
L 392.05888 405.824762 
L 391.58768 405.170809 
L 391.11648 406.339264 
L 390.65024 400.939266 
L 390.17904 400.636151 
L 389.7128 398.588603 
L 389.2416 397.729995 
L 388.77536 401.75389 
L 388.30912 395.749671 
L 387.84288 396.879154 
L 387.37664 395.114226 
L 386.9104 395.610252 
L 386.44416 394.020742 
L 385.97792 394.078221 
L 385.51168 390.559103 
L 385.0504 390.499647 
L 384.58416 389.027083 
L 384.12288 390.176068 
L 383.6616 386.968817 
L 383.20032 389.219042 
L 382.73904 387.278705 
L 382.27776 387.326449 
L 381.3552 384.186433 
L 380.89392 384.243922 
L 380.4376 379.945187 
L 379.97632 382.507268 
L 379.52 380.294068 
L 378.60736 379.619683 
L 378.14608 378.273821 
L 377.68976 378.779614 
L 377.2384 377.999012 
L 376.78208 373.329947 
L 376.32576 371.555294 
L 375.86944 371.018319 
L 375.41808 369.828406 
L 374.96176 369.710487 
L 374.5104 368.501084 
L 374.05904 366.463313 
L 373.60768 367.193263 
L 373.15632 368.215577 
L 372.70496 365.534604 
L 372.2536 365.416695 
L 371.80224 362.375139 
L 371.35088 364.391494 
L 370.90448 362.071114 
L 370.45312 358.240173 
L 370.00672 357.800674 
L 369.56032 356.084515 
L 369.11392 356.512365 
L 368.66256 355.624562 
L 368.21616 356.890525 
L 367.76976 354.433708 
L 367.32832 352.970943 
L 366.88192 353.847086 
L 366.43552 351.400015 
L 365.99408 347.179275 
L 365.54768 346.710539 
L 365.10624 346.524434 
L 364.65984 345.305295 
L 364.2184 345.109444 
L 363.77696 342.603911 
L 363.33552 339.299247 
L 362.89408 339.269069 
L 362.45264 342.406177 
L 362.01616 339.998109 
L 361.57472 339.967931 
L 360.6968 338.99151 
L 360.26032 334.819508 
L 359.81888 336.192681 
L 359.3824 336.737498 
L 358.50944 330.625212 
L 358.07296 330.263698 
L 357.63648 329.02509 
L 357.2 329.131359 
L 356.76848 325.670789 
L 356.332 325.679604 
L 355.90048 326.370614 
L 355.464 326.486629 
L 355.03248 323.893407 
L 354.60096 324.389507 
L 353.73296 317.409883 
L 353.30144 319.250861 
L 352.87488 318.275402 
L 352.44336 315.126688 
L 352.01184 313.566489 
L 351.58528 313.097795 
L 350.7272 311.166358 
L 350.29568 308.709573 
L 349.86912 309.303139 
L 349.44256 304.702356 
L 349.016 309.476739 
L 348.16288 302.273 
L 347.73632 302.593691 
L 347.30976 301.540268 
L 346.4616 297.533062 
L 346.03504 295.485599 
L 345.61344 299.675262 
L 345.19184 295.65922 
L 344.76528 294.069794 
L 344.34368 295.043445 
L 343.92208 295.062037 
L 343.50048 294.281498 
L 343.07888 291.181532 
L 342.24064 290.731452 
L 341.81904 289.941168 
L 341.4024 286.899686 
L 340.9808 281.792148 
L 340.56416 282.804791 
L 340.14256 285.113574 
L 339.72592 284.060172 
L 339.30928 279.537375 
L 338.89264 280.842383 
L 338.476 277.859373 
L 338.05936 280.090203 
L 337.64272 280.917681 
L 337.23104 274.942816 
L 336.8144 271.569986 
L 336.39776 273.917762 
L 335.98608 269.775049 
L 335.5744 267.561944 
L 335.15776 267.872912 
L 334.74608 266.244537 
L 334.3344 266.877116 
L 333.92272 266.466927 
L 333.51104 260.579771 
L 333.09936 261.884789 
L 332.68768 265.986765 
L 332.276 260.275027 
L 331.86928 260.595761 
L 331.4576 262.738892 
L 331.05088 262.728279 
L 330.6392 255.964029 
L 330.23248 256.927965 
L 329.41408 252.608967 
L 329.00736 249.879361 
L 328.60064 248.864963 
L 328.19392 246.77856 
L 327.79216 251.133939 
L 327.38544 248.34586 
L 326.97872 246.454367 
L 326.57696 246.014963 
L 326.17024 245.819186 
L 325.76848 244.112868 
L 325.36176 243.80989 
L 324.96 240.222692 
L 324.55824 238.915939 
L 323.74976 235.171946 
L 323.35296 232.081778 
L 322.9512 231.934739 
L 322.54944 235.393532 
L 322.14768 227.48908 
L 321.74592 227.887789 
L 321.34912 229.251312 
L 320.94736 232.047412 
L 320.55056 231.081762 
L 320.15376 231.597427 
L 318.9584 225.932746 
L 318.5616 225.171752 
L 318.1648 222.69555 
L 317.768 221.476517 
L 317.3712 219.049043 
L 316.97936 214.000042 
L 316.58256 218.170267 
L 316.18576 218.832115 
L 315.79392 215.527557 
L 315.40208 213.597113 
L 315.00528 216.519915 
L 314.61344 215.544531 
L 313.82976 212.268374 
L 313.43792 206.693116 
L 313.04608 207.803266 
L 312.65424 206.223661 
L 312.2624 201.515752 
L 311.87056 200.754768 
L 311.48368 201.99162 
L 311.09184 202.848388 
L 310.7 198.959101 
L 310.31312 203.265784 
L 309.92624 201.033241 
L 309.5344 200.593858 
L 309.14752 201.684529 
L 308.76064 199.062166 
L 307.98688 202.783295 
L 307.6 198.933 
L 307.21312 198.620319 
L 306.05744 185.558893 
L 305.67552 187.935979 
L 305.28864 183.861538 
L 304.90672 186.560225 
L 304.5248 188.128435 
L 304.13792 187.114079 
L 303.756 183.975216 
L 303.37408 190.036098 
L 302.99216 187.316291 
L 301.85136 182.353402 
L 301.46944 179.838251 
L 301.08752 180.314965 
L 300.71056 171.777109 
L 300.32864 171.776295 
L 299.95168 177.281695 
L 299.56976 173.246246 
L 299.1928 174.190755 
L 298.81584 177.766548 
L 298.43888 172.912488 
L 298.06192 174.285799 
L 297.68496 175.025652 
L 297.308 170.814795 
L 296.93104 172.207597 
L 296.55408 169.858129 
L 296.17712 170.783147 
L 295.80512 167.118048 
L 295.42816 160.003034 
L 295.05616 162.068286 
L 294.6792 160.14762 
L 294.3072 155.917282 
L 293.93024 156.101643 
L 293.55824 154.43437 
L 293.18624 155.466599 
L 292.81424 150.037566 
L 292.44224 155.591704 
L 292.07024 154.733307 
L 291.69824 156.145611 
L 291.32624 153.659717 
L 290.9592 154.233918 
L 290.5872 157.312701 
L 290.22016 155.431038 
L 289.84816 156.063702 
L 289.48112 150.26435 
L 289.10912 147.320418 
L 288.74208 147.69971 
L 288.37504 141.578757 
L 287.636 140.388231 
L 287.26896 142.736112 
L 286.90192 143.904789 
L 286.53984 141.545607 
L 286.1728 143.71807 
L 285.80576 147.985813 
L 285.43872 145.344002 
L 285.07664 148.286369 
L 284.7096 149.718174 
L 284.34752 148.918271 
L 283.98048 143.323575 
L 283.6184 143.927024 
L 283.25632 140.096273 
L 282.88928 138.302319 
L 282.5272 137.765545 
L 281.80304 130.230734 
L 281.44096 134.888308 
L 280.72176 132.255491 
L 280.35968 139.135038 
L 279.9976 135.050904 
L 279.64048 142.291044 
L 279.2784 138.40182 
L 278.92128 143.147114 
L 278.5592 137.435483 
L 278.20208 137.52243 
L 277.84496 135.241223 
L 277.48288 134.684958 
L 277.12576 128.057261 
L 276.76864 127.364569 
L 275.69728 119.692581 
L 275.34512 122.371841 
L 274.988 120.675364 
L 274.63088 123.286395 
L 273.9216 126.218276 
L 273.56944 126.149306 
L 273.21232 128.156117 
L 272.86016 128.593913 
L 272.508 128.729599 
L 272.15088 129.225858 
L 271.79872 133.055086 
L 271.44656 131.475565 
L 271.0944 125.569045 
L 270.74224 126.513607 
L 270.39008 123.423534 
L 270.04288 117.13695 
L 269.69072 118.588278 
L 269.33856 115.663879 
L 268.99136 114.366988 
L 268.6392 115.253077 
L 268.28704 113.400682 
L 267.24048 123.514273 
L 266.89328 123.640224 
L 266.54608 126.153821 
L 266.19888 126.153081 
L 265.85168 128.929806 
L 265.50448 127.438006 
L 265.15728 124.46489 
L 264.81008 128.021254 
L 264.46288 122.670238 
L 264.11568 120.038214 
L 263.77344 115.262193 
L 263.42624 118.311792 
L 263.084 117.27804 
L 262.39456 108.846718 
L 262.04736 112.802648 
L 261.70512 109.313031 
L 260.6784 120.985943 
L 260.33616 118.24673 
L 259.99392 119.737061 
L 259.65168 124.170531 
L 259.30944 122.639758 
L 258.9672 125.894023 
L 258.62496 122.65779 
L 258.28768 123.777802 
L 257.94544 122.324994 
L 257.6032 118.59174 
L 257.26592 116.583449 
L 256.92864 115.959018 
L 256.5864 109.545754 
L 256.24912 105.490909 
L 255.91184 108.735439 
L 255.5696 106.444519 
L 255.23232 106.443799 
L 254.89504 109.064618 
L 254.55776 114.638321 
L 253.8832 120.69858 
L 253.55088 121.019473 
L 252.87632 126.894567 
L 252.544 125.773127 
L 252.20672 128.150308 
L 251.86944 123.130659 
L 251.53712 121.083397 
L 251.2048 115.605721 
L 250.5352 109.464632 
L 250.20288 110.779565 
L 249.53328 107.503651 
L 248.86864 115.357102 
L 248.54128 111.964972 
L 247.87664 124.593715 
L 247.212 132.710294 
L 246.88464 126.47248 
L 246.55232 126.43279 
L 246.22496 129.277776 
L 245.89264 126.197491 
L 245.56528 119.550366 
L 245.23792 118.838247 
L 244.57824 114.012821 
L 244.25088 113.573576 
L 243.92352 119.878212 
L 243.59616 115.024258 
L 243.2688 115.647272 
L 242.28672 129.405815 
L 241.95936 130.759741 
L 241.63696 139.227887 
L 241.3096 138.077221 
L 240.9872 143.767902 
L 240.65984 141.038466 
L 240.33744 136.934925 
L 240.01008 135.667313 
L 239.36528 127.021685 
L 239.03792 124.41894 
L 238.71552 122.878465 
L 238.39312 119.077035 
L 238.07072 119.700059 
L 237.74832 123.899679 
L 237.10352 128.780797 
L 236.78112 132.113068 
L 236.45872 132.814056 
L 235.81888 145.238196 
L 235.49648 148.823851 
L 235.17904 145.928762 
L 234.85664 145.811129 
L 234.5392 145.391396 
L 233.89936 140.809649 
L 233.58192 131.414316 
L 233.26448 137.319409 
L 232.62464 132.961809 
L 232.3072 130.193412 
L 231.98976 131.069829 
L 231.67232 133.739418 
L 231.35984 137.529748 
L 231.0424 137.801945 
L 230.40752 142.488174 
L 229.7776 154.308115 
L 229.46016 156.938721 
L 229.14768 161.947239 
L 228.83024 159.022914 
L 228.51776 163.524666 
L 228.20528 165.794699 
L 227.88784 164.683036 
L 227.57536 167.995838 
L 227.26288 160.27674 
L 226.9504 158.434176 
L 226.63792 153.278143 
L 226.32544 151.016522 
L 226.01296 147.887552 
L 225.388 146.794725 
L 225.07552 149.756688 
L 224.768 149.824251 
L 224.45552 152.230722 
L 224.14304 155.728688 
L 223.83552 157.76484 
L 223.21552 167.489521 
L 222.90304 167.713001 
L 222.59552 171.230469 
L 222.28304 178.421977 
L 221.97552 180.682275 
L 221.668 181.87057 
L 221.36048 180.076743 
L 221.05296 182.142132 
L 220.1304 165.806718 
L 219.82288 166.342064 
L 219.51536 165.444823 
L 219.20784 164.937401 
L 218.90032 164.644381 
L 218.59776 161.944234 
L 217.98272 174.076062 
L 217.68016 170.800931 
L 216.46 189.811788 
L 216.15744 191.409404 
L 215.24976 202.49784 
L 214.94224 203.978499 
L 214.33712 198.432023 
L 214.03952 197.885641 
L 213.73696 188.850923 
L 213.4344 193.810734 
L 212.82928 184.102932 
L 212.53168 185.320484 
L 212.22912 180.827166 
L 211.62896 191.731094 
L 211.33136 186.662803 
L 211.0288 189.995117 
L 210.7312 195.919742 
L 210.4336 195.67547 
L 210.13104 200.752227 
L 209.83344 203.032038 
L 208.64304 223.085726 
L 208.34544 220.19068 
L 208.04784 221.973471 
L 207.75024 221.466071 
L 207.45264 212.733474 
L 207.15504 212.547675 
L 206.8624 210.344569 
L 206.5648 206.582174 
L 206.2672 200.860934 
L 205.97456 205.18731 
L 205.67696 205.664204 
L 205.38432 202.242912 
L 205.09168 206.783688 
L 204.79408 206.744072 
L 204.50144 207.893416 
L 204.2088 213.018922 
L 203.9112 220.97061 
L 203.61856 221.964026 
L 203.32592 230.178854 
L 203.03328 235.109449 
L 202.74064 234.572823 
L 202.15536 242.543389 
L 201.57008 233.956361 
L 201.2824 234.657423 
L 200.69712 226.976726 
L 200.40944 226.674002 
L 200.1168 222.931109 
L 199.82416 222.696593 
L 199.2488 221.350488 
L 198.95616 224.809514 
L 198.66848 222.304309 
L 198.3808 228.297174 
L 198.08816 229.027462 
L 197.22512 240.223194 
L 196.93744 243.769941 
L 196.64976 245.455298 
L 196.0744 256.427497 
L 195.78672 258.42471 
L 195.21136 267.165191 
L 194.92864 263.802392 
L 194.64096 262.983158 
L 194.35328 265.438409 
L 194.07056 257.777848 
L 193.78288 257.455633 
L 193.50016 253.849197 
L 193.21248 252.065159 
L 192.92976 247.581629 
L 192.64208 246.937813 
L 192.35936 245.007602 
L 192.07664 245.971803 
L 191.79392 249.528305 
L 191.5112 249.732358 
L 191.22352 251.096114 
L 190.9408 260.26602 
L 190.37536 265.186289 
L 189.80992 276.967385 
L 189.24944 282.306721 
L 188.96672 282.247645 
L 188.684 288.854487 
L 188.40624 283.727765 
L 188.12352 283.366579 
L 187.8408 284.067652 
L 187.56304 284.339933 
L 187.28032 278.345852 
L 187.00256 275.168228 
L 186.7248 274.719343 
L 185.88656 267.808001 
L 185.6088 273.099212 
L 185.32608 268.450008 
L 185.04832 269.648112 
L 184.4928 275.143386 
L 184.21504 277.501203 
L 183.93728 285.014386 
L 183.38176 290.20755 
L 183.10896 297.701253 
L 182.55344 304.716824 
L 182.00288 308.301992 
L 181.45232 302.209884 
L 181.17456 302.033873 
L 180.624 297.734936 
L 180.3512 295.931438 
L 180.0784 293.065681 
L 179.52784 290.140859 
L 179.25504 292.225813 
L 178.98224 292.351923 
L 178.70944 293.374618 
L 178.43664 300.078936 
L 178.16384 303.684187 
L 177.89104 305.350085 
L 177.07264 320.258945 
L 176.79984 319.283814 
L 176.52704 325.198747 
L 176.2592 323.249077 
L 175.9864 325.109885 
L 175.7136 331.15151 
L 175.17296 321.063771 
L 174.90512 318.256497 
L 174.63232 318.226679 
L 174.36448 309.922947 
L 174.09168 314.463766 
L 173.82384 310.720925 
L 173.556 312.80589 
L 173.28816 311.596877 
L 173.01536 315.202128 
L 172.74752 314.636318 
L 171.944 328.609643 
L 171.67616 328.599327 
L 171.14048 341.218599 
L 170.87264 340.769735 
L 170.6048 345.271582 
L 170.34192 342.09399 
L 170.07408 346.147545 
L 169.80624 342.43394 
L 169.27552 341.360804 
L 169.00768 335.668865 
L 168.7448 334.050552 
L 168.47696 333.679653 
L 168.21408 331.291446 
L 167.94624 331.904841 
L 167.68336 330.364492 
L 167.42048 331.085098 
L 167.1576 331.016319 
L 166.62688 333.159196 
L 166.364 337.97291 
L 166.10112 340.662106 
L 165.57536 348.817963 
L 165.31248 351.283012 
L 165.0496 356.447563 
L 164.26096 361.74743 
L 163.99808 362.097708 
L 163.74016 362.964507 
L 163.47728 360.400881 
L 162.95648 358.02187 
L 162.43072 351.656942 
L 162.1728 350.048385 
L 161.90992 350.262226 
L 161.652 346.724061 
L 161.39408 348.896756 
L 161.1312 349.763545 
L 160.87328 351.897258 
L 160.61536 351.068341 
L 160.35248 351.779202 
L 159.57872 364.36873 
L 159.3208 363.062284 
L 159.06288 369.074703 
L 158.80496 372.105002 
L 158.28912 374.14071 
L 158.0312 377.999376 
L 157.77328 377.930607 
L 157.52032 379.206728 
L 157.2624 379.430324 
L 157.00448 379.371301 
L 156.4936 377.226203 
L 156.23568 372.73298 
L 155.98272 374.087065 
L 155.7248 370.217554 
L 155.47184 370.928435 
L 155.21392 368.15042 
L 154.96096 367.477441 
L 154.70304 367.65231 
L 154.19712 370.935463 
L 153.94416 370.262484 
L 153.18032 377.940305 
L 152.92736 378.251621 
L 152.42144 388.220182 
L 152.16848 389.63274 
L 151.91552 392.029592 
L 151.66256 392.165489 
L 151.4096 394.981398 
L 151.15664 394.980858 
L 150.90864 393.791379 
L 150.65568 394.706916 
L 150.40272 393.907246 
L 150.15472 395.202868 
L 149.90176 392.307917 
L 149.6488 388.077833 
L 149.4008 388.759489 
L 149.14784 387.667454 
L 148.89984 387.588962 
L 148.64688 386.087616 
L 148.39888 385.794723 
L 147.89792 387.655044 
L 147.64992 386.767675 
L 147.40192 387.83915 
L 147.14896 390.333457 
L 146.90096 393.938761 
L 146.65296 394.37678 
L 146.40496 396.305859 
L 145.90896 402.512681 
L 145.66096 403.506192 
L 145.41296 406.99455 
L 144.91696 409.868413 
L 144.66896 409.000535 
L 144.42592 410.33515 
L 144.17792 408.297813 
L 143.92992 407.673572 
L 143.68192 406.688749 
L 143.43888 405.128951 
L 143.19088 402.575103 
L 142.94288 404.611383 
L 142.69984 403.412169 
L 142.45184 400.926539 
L 142.2088 402.495045 
L 141.96576 402.192417 
L 141.71776 402.737635 
L 141.47472 402.113406 
L 141.22672 405.04627 
L 140.98368 406.497831 
L 140.74064 406.54604 
L 140.2496 413.99055 
L 140.00656 414.740435 
L 139.76352 415.119991 
L 139.52048 419.543927 
L 138.79136 423.177441 
L 138.54832 423.644707 
L 138.30528 423.507752 
L 138.06224 422.883522 
L 137.82416 420.456386 
L 137.58112 422.726568 
L 137.09504 418.622679 
L 136.85696 418.183624 
L 136.61392 415.951388 
L 136.37088 417.422439 
L 136.1328 415.872398 
L 135.88976 415.706206 
L 135.65168 416.358646 
L 135.40864 418.200027 
L 135.17056 418.647812 
L 134.93248 422.106954 
L 134.68944 421.356033 
L 134.45136 421.667381 
L 134.21328 423.060479 
L 133.256 432.26793 
L 133.01792 432.988588 
L 132.77984 436.476968 
L 132.54176 434.556598 
L 132.30368 433.66925 
L 132.0656 436.387735 
L 131.35136 433.131217 
L 131.11328 432.750635 
L 130.8752 430.888738 
L 130.63712 430.430192 
L 130.404 430.605114 
L 130.16592 429.035582 
L 129.92784 429.395658 
L 129.69472 431.207822 
L 129.45664 431.538662 
L 129.22352 432.200858 
L 128.75232 435.084519 
L 128.51424 437.647077 
L 128.28112 437.324978 
L 128.04304 438.942223 
L 127.80992 439.682383 
L 127.5768 442.459352 
L 127.33872 441.903351 
L 127.1056 444.504901 
L 126.87248 443.968401 
L 126.63936 444.123832 
L 126.40624 444.91272 
L 126.16816 443.38217 
L 125.93504 444.005384 
L 125.70192 443.322703 
L 125.4688 440.379067 
L 125.23568 441.489556 
L 124.76944 438.828042 
L 124.54128 439.821596 
L 124.30816 439.762626 
L 124.07504 439.840092 
L 123.84192 439.644685 
L 123.6088 442.597073 
L 123.38064 441.651274 
L 123.14752 444.028677 
L 122.9144 443.979452 
L 122.45312 448.529614 
L 122.22496 448.811747 
L 121.76368 451.139937 
L 121.53056 451.811879 
L 121.3024 451.372845 
L 121.06928 452.40537 
L 120.84112 450.933314 
L 120.61296 451.673485 
L 120.37984 448.486212 
L 120.15168 448.661144 
L 119.92352 447.861527 
L 119.69536 448.591953 
L 119.4672 449.760925 
L 119.23904 448.542252 
L 119.00592 448.025244 
L 118.77776 449.125998 
L 118.5496 450.96741 
L 118.32144 450.518631 
L 118.09328 450.479162 
L 117.87008 451.219344 
L 117.64192 453.080247 
L 117.41376 453.264924 
L 117.1856 454.901681 
L 116.95744 454.141046 
L 116.72928 456.71337 
L 116.50608 456.147655 
L 116.27792 457.784412 
L 116.04976 457.920362 
L 115.82656 459.849494 
L 115.3752 460.618425 
L 115.14704 459.545935 
L 114.92384 459.067929 
L 114.69568 459.174643 
L 114.47248 457.907253 
L 114.24432 460.167721 
L 114.02112 456.493194 
L 113.56976 455.449464 
L 113.34656 456.881576 
L 113.12336 457.037028 
L 112.90016 456.831896 
L 112.672 457.347921 
L 112.4488 457.035589 
L 112.0024 458.847299 
L 111.7792 459.67519 
L 111.556 462.033124 
L 111.3328 461.993666 
L 111.1096 463.162649 
L 110.8864 462.645662 
L 110.6632 463.50279 
L 110.44 465.646322 
L 110.22176 465.0124 
L 109.99856 466.005964 
L 109.77536 466.034725 
L 109.55216 466.375341 
L 109.11072 465.526542 
L 108.88752 465.896395 
L 108.66928 466.773024 
L 108.44608 465.72978 
L 108.22784 466.197098 
L 108.00464 464.647089 
L 107.5632 464.1004 
L 107.12176 464.352842 
L 106.90352 463.446045 
L 106.24384 465.851776 
L 106.0256 464.711087 
L 105.80736 464.97375 
L 104.7112 470.282707 
L 104.49296 469.736494 
L 104.27472 470.194067 
L 104.05648 472.269392 
L 103.83824 472.395618 
L 103.62 472.024824 
L 103.40176 471.1765 
L 103.18352 472.618368 
L 102.752 470.902241 
L 102.53376 470.550938 
L 102.31552 471.320367 
L 101.884 470.744462 
L 101.66576 471.591855 
L 101.45248 469.973648 
L 101.23424 470.138856 
L 101.02096 470.723131 
L 100.80272 470.888339 
L 100.58944 469.611225 
L 100.3712 472.086115 
L 100.15792 470.331471 
L 99.94464 471.334802 
L 99.7264 471.704666 
L 99.51312 472.610542 
L 99.29984 471.723247 
L 99.0816 474.354065 
L 98.86832 473.573971 
L 98.65504 473.524788 
L 98.44176 474.956921 
L 98.22848 474.381482 
L 98.01024 475.511494 
L 97.79696 475.306384 
L 97.58368 476.60208 
L 97.3704 476.426206 
L 97.15712 476.425752 
L 96.94384 477.331628 
L 96.73056 477.292191 
L 96.30896 476.696817 
L 96.09568 477.1544 
L 95.8824 475.964995 
L 95.66912 476.091232 
L 95.45584 476.353905 
L 95.24752 476.83099 
L 95.03424 476.966973 
L 94.61264 475.387304 
L 94.18608 476.312216 
L 93.97776 476.146098 
L 93.55616 476.476546 
L 93.34288 476.203218 
L 93.13456 476.270992 
L 92.71296 478.365374 
L 92.29632 478.842015 
L 92.08304 478.909778 
L 91.6664 479.483874 
L 91.45808 479.424957 
L 91.03648 480.593517 
L 90.82816 481.129075 
L 90.61984 480.61212 
L 90.41152 481.079459 
L 90.2032 480.396831 
L 89.99488 481.16628 
L 89.78656 479.976886 
L 89.36992 480.550982 
L 88.95328 479.585289 
L 88.74496 480.598376 
L 88.33328 479.515749 
L 88.12496 480.665273 
L 87.91664 480.606356 
L 87.71328 480.303812 
L 87.50496 481.151226 
L 87.29664 481.053326 
L 86.88496 481.578705 
L 86.6816 480.925324 
L 86.47328 481.811719 
L 86.26992 482.074414 
L 86.0616 482.629463 
L 85.85824 482.278192 
L 85.64992 482.930695 
L 85.44656 483.115426 
L 85.2432 482.705682 
L 85.03488 483.358186 
L 84.83152 483.464952 
L 84.4248 483.317903 
L 84.21648 483.570841 
L 84.01312 483.248806 
L 83.80976 484.105976 
L 83.6064 483.579286 
L 83.40304 483.92969 
L 82.99632 483.246638 
L 82.79296 483.860171 
L 82.5896 483.684318 
L 82.38624 483.108901 
L 82.18288 483.75167 
L 81.77616 483.390219 
L 81.5728 482.970729 
L 81.3744 483.710964 
L 81.17104 483.086818 
L 80.96768 484.080425 
L 80.76432 483.621953 
L 80.56592 484.040586 
L 80.36256 484.166844 
L 80.1592 484.088447 
L 79.9608 484.711735 
L 79.55408 484.574431 
L 79.35568 484.963828 
L 79.15232 484.953649 
L 78.95392 485.352791 
L 78.75056 485.225666 
L 78.55216 485.995137 
L 78.35376 486.004459 
L 78.1504 485.487514 
L 77.952 485.574801 
L 77.7536 486.071398 
L 77.55024 485.271834 
L 77.35184 485.787922 
L 77.15344 485.358697 
L 76.95504 485.436238 
L 76.75168 485.689187 
L 76.55328 484.889634 
L 75.95808 485.560804 
L 75.75968 485.570126 
L 75.56128 485.784104 
L 75.36288 485.715462 
L 75.16448 486.095114 
L 74.76768 486.04554 
L 74.56928 486.581119 
L 74.37088 486.65866 
L 74.17744 486.599775 
L 73.97904 486.258259 
L 73.58224 487.183235 
L 73.3888 486.637075 
L 73.1904 487.309091 
L 72.992 486.85063 
L 72.79856 486.976909 
L 72.40176 486.898099 
L 72.20832 486.683285 
L 72.00992 487.043445 
L 72.00992 487.043445 
" clip-path="url(#pb2ac2bec2e)" style="fill: none; stroke-dasharray: 3.7,1.6; stroke-dashoffset: 0; stroke: #1fa187"/>
   </g>
   <g id="line2d_16">
    <path d="M 72.00992 476.993721 
L 76.481723 475.328656 
L 80.953526 473.400892 
L 85.425328 471.179378 
L 89.002771 469.1687 
L 92.580213 466.931626 
L 96.157655 464.450226 
L 99.735097 461.706226 
L 103.31254 458.681166 
L 106.889982 455.356587 
L 110.467424 451.714225 
L 114.044866 447.736245 
L 117.622309 443.405486 
L 121.199751 438.70573 
L 124.777193 433.621985 
L 128.354635 428.140789 
L 131.932078 422.25052 
L 135.50952 415.941718 
L 139.086962 409.207409 
L 142.664404 402.043425 
L 146.241847 394.448725 
L 150.713649 384.353638 
L 155.185452 373.602442 
L 159.657255 362.217854 
L 164.129058 350.23308 
L 169.495221 335.122108 
L 174.861385 319.308921 
L 181.121908 300.135921 
L 189.171154 274.703039 
L 206.164004 220.756399 
L 211.530168 204.47452 
L 216.00197 191.469565 
L 220.473773 179.118013 
L 224.051215 169.794821 
L 227.628658 161.037826 
L 231.2061 152.909044 
L 233.889182 147.260159 
L 236.572263 142.021014 
L 239.255345 137.213455 
L 241.938427 132.857733 
L 244.621508 128.972365 
L 247.30459 125.574002 
L 249.093311 123.586312 
L 250.882032 121.825462 
L 252.670753 120.29486 
L 254.459474 118.997476 
L 256.248196 117.935836 
L 258.036917 117.112011 
L 259.825638 116.527609 
L 261.614359 116.183773 
L 263.40308 116.081177 
L 265.191801 116.220022 
L 266.980522 116.600036 
L 268.769243 117.220475 
L 270.557965 118.080125 
L 272.346686 119.177308 
L 274.135407 120.509884 
L 275.924128 122.075261 
L 277.712849 123.870401 
L 279.50157 125.891834 
L 282.184652 129.339644 
L 284.867734 133.27288 
L 287.550815 137.674698 
L 290.233897 142.526402 
L 292.916979 147.807574 
L 295.60006 153.496217 
L 299.177503 161.674249 
L 302.754945 170.475944 
L 306.332387 179.839066 
L 310.80419 192.233573 
L 315.275993 205.273568 
L 320.642156 221.586962 
L 327.79704 244.092697 
L 347.472973 306.510186 
L 353.733497 325.447281 
L 359.09966 341.004316 
L 364.465823 355.818838 
L 368.937626 367.532303 
L 373.409429 378.628966 
L 377.881232 389.080521 
L 382.353035 398.86886 
L 385.930477 406.215928 
L 389.507919 413.13248 
L 393.085361 419.621391 
L 396.662804 425.688484 
L 400.240246 431.342201 
L 403.817688 436.593285 
L 407.39513 441.454455 
L 410.972573 445.940091 
L 414.550015 450.065925 
L 418.127457 453.848752 
L 421.704899 457.306151 
L 425.282342 460.456233 
L 428.859784 463.317401 
L 432.437226 465.908138 
L 436.014668 468.246817 
L 439.592111 470.351532 
L 443.169553 472.239955 
L 447.641356 474.322353 
L 452.113158 476.125513 
L 456.584961 477.679629 
L 461.056764 479.012912 
L 466.422927 480.357987 
L 471.789091 481.463658 
L 478.049615 482.499712 
L 484.310139 483.310527 
L 491.465023 484.016716 
L 499.514268 484.593655 
L 509.352234 485.070399 
L 518.29584 485.351291 
L 518.29584 485.351291 
" clip-path="url(#pb2ac2bec2e)" style="fill: none; stroke-dasharray: 3.7,1.6; stroke-dashoffset: 0; stroke: #46327e"/>
   </g>
   <g id="patch_3">
    <path d="M 72 506.4 
L 72 86.4 
" style="fill: none; stroke: #000000; stroke-width: 0.8; stroke-linejoin: miter; stroke-linecap: square"/>
   </g>
   <g id="patch_4">
    <path d="M 518.4 506.4 
L 518.4 86.4 
" style="fill: none; stroke: #000000; stroke-width: 0.8; stroke-linejoin: miter; stroke-linecap: square"/>
   </g>
   <g id="patch_5">
    <path d="M 72 506.4 
L 518.4 506.4 
" style="fill: none; stroke: #000000; stroke-width: 0.8; stroke-linejoin: miter; stroke-linecap: square"/>
   </g>
   <g id="patch_6">
    <path d="M 72 86.4 
L 518.4 86.4 
" style="fill: none; stroke: #000000; stroke-width: 0.8; stroke-linejoin: miter; stroke-linecap: square"/>
   </g>
   <g id="legend_1">
    <g id="patch_7">
     <path d="M 360.178125 123.75625 
L 511.4 123.75625 
Q 513.4 123.75625 513.4 121.75625 
L 513.4 93.4 
Q 513.4 91.4 511.4 91.4 
L 360.178125 91.4 
Q 358.178125 91.4 358.178125 93.4 
L 358.178125 121.75625 
Q 358.178125 123.75625 360.178125 123.75625 
z
" style="fill: #ffffff; opacity: 0.8; stroke: #cccccc; stroke-linejoin: miter"/>
    </g>
    <g id="line2d_17">
     <path d="M 362.178125 99.498437 
L 372.178125 99.498437 
L 382.178125 99.498437 
" style="fill: none; stroke-dasharray: 3.7,1.6; stroke-dashoffset: 0; stroke: #1fa187"/>
    </g>
    <g id="text_11">
     <!-- Baseline-corrected data -->
     <g transform="translate(390.178125 102.998437) scale(0.1 -0.1)">
      <defs>
       <path id="DejaVuSans-42" d="M 1259 2228 
L 1259 519 
L 2272 519 
Q 2781 519 3026 730 
Q 3272 941 3272 1375 
Q 3272 1813 3026 2020 
Q 2781 2228 2272 2228 
L 1259 2228 
z
M 1259 4147 
L 1259 2741 
L 2194 2741 
Q 2656 2741 2882 2914 
Q 3109 3088 3109 3444 
Q 3109 3797 2882 3972 
Q 2656 4147 2194 4147 
L 1259 4147 
z
M 628 4666 
L 2241 4666 
Q 2963 4666 3353 4366 
Q 3744 4066 3744 3513 
Q 3744 3084 3544 2831 
Q 3344 2578 2956 2516 
Q 3422 2416 3680 2098 
Q 3938 1781 3938 1306 
Q 3938 681 3513 340 
Q 3088 0 2303 0 
L 628 0 
L 628 4666 
z
" transform="scale(0.015625)"/>
       <path id="DejaVuSans-6c" d="M 603 4863 
L 1178 4863 
L 1178 0 
L 603 0 
L 603 4863 
z
" transform="scale(0.015625)"/>
       <path id="DejaVuSans-2d" d="M 313 2009 
L 1997 2009 
L 1997 1497 
L 313 1497 
L 313 2009 
z
" transform="scale(0.015625)"/>
       <path id="DejaVuSans-63" d="M 3122 3366 
L 3122 2828 
Q 2878 2963 2633 3030 
Q 2388 3097 2138 3097 
Q 1578 3097 1268 2742 
Q 959 2388 959 1747 
Q 959 1106 1268 751 
Q 1578 397 2138 397 
Q 2388 397 2633 464 
Q 2878 531 3122 666 
L 3122 134 
Q 2881 22 2623 -34 
Q 2366 -91 2075 -91 
Q 1284 -91 818 406 
Q 353 903 353 1747 
Q 353 2603 823 3093 
Q 1294 3584 2113 3584 
Q 2378 3584 2631 3529 
Q 2884 3475 3122 3366 
z
" transform="scale(0.015625)"/>
       <path id="DejaVuSans-6f" d="M 1959 3097 
Q 1497 3097 1228 2736 
Q 959 2375 959 1747 
Q 959 1119 1226 758 
Q 1494 397 1959 397 
Q 2419 397 2687 759 
Q 2956 1122 2956 1747 
Q 2956 2369 2687 2733 
Q 2419 3097 1959 3097 
z
M 1959 3584 
Q 2709 3584 3137 3096 
Q 3566 2609 3566 1747 
Q 3566 888 3137 398 
Q 2709 -91 1959 -91 
Q 1206 -91 779 398 
Q 353 888 353 1747 
Q 353 2609 779 3096 
Q 1206 3584 1959 3584 
z
" transform="scale(0.015625)"/>
       <path id="DejaVuSans-72" d="M 2631 2963 
Q 2534 3019 2420 3045 
Q 2306 3072 2169 3072 
Q 1681 3072 1420 2755 
Q 1159 2438 1159 1844 
L 1159 0 
L 581 0 
L 581 3500 
L 1159 3500 
L 1159 2956 
Q 1341 3275 1631 3429 
Q 1922 3584 2338 3584 
Q 2397 3584 2469 3576 
Q 2541 3569 2628 3553 
L 2631 2963 
z
" transform="scale(0.015625)"/>
       <path id="DejaVuSans-64" d="M 2906 2969 
L 2906 4863 
L 3481 4863 
L 3481 0 
L 2906 0 
L 2906 525 
Q 2725 213 2448 61 
Q 2172 -91 1784 -91 
Q 1150 -91 751 415 
Q 353 922 353 1747 
Q 353 2572 751 3078 
Q 1150 3584 1784 3584 
Q 2172 3584 2448 3432 
Q 2725 3281 2906 2969 
z
M 947 1747 
Q 947 1113 1208 752 
Q 1469 391 1925 391 
Q 2381 391 2643 752 
Q 2906 1113 2906 1747 
Q 2906 2381 2643 2742 
Q 2381 3103 1925 3103 
Q 1469 3103 1208 2742 
Q 947 2381 947 1747 
z
" transform="scale(0.015625)"/>
      </defs>
      <use xlink:href="#DejaVuSans-42"/>
      <use xlink:href="#DejaVuSans-61" transform="translate(68.603516 0)"/>
      <use xlink:href="#DejaVuSans-73" transform="translate(129.882812 0)"/>
      <use xlink:href="#DejaVuSans-65" transform="translate(181.982422 0)"/>
      <use xlink:href="#DejaVuSans-6c" transform="translate(243.505859 0)"/>
      <use xlink:href="#DejaVuSans-69" transform="translate(271.289062 0)"/>
      <use xlink:href="#DejaVuSans-6e" transform="translate(299.072266 0)"/>
      <use xlink:href="#DejaVuSans-65" transform="translate(362.451172 0)"/>
      <use xlink:href="#DejaVuSans-2d" transform="translate(423.974609 0)"/>
      <use xlink:href="#DejaVuSans-63" transform="translate(460.058594 0)"/>
      <use xlink:href="#DejaVuSans-6f" transform="translate(515.039062 0)"/>
      <use xlink:href="#DejaVuSans-72" transform="translate(576.220703 0)"/>
      <use xlink:href="#DejaVuSans-72" transform="translate(615.583984 0)"/>
      <use xlink:href="#DejaVuSans-65" transform="translate(654.447266 0)"/>
      <use xlink:href="#DejaVuSans-63" transform="translate(715.970703 0)"/>
      <use xlink:href="#DejaVuSans-74" transform="translate(770.951172 0)"/>
      <use xlink:href="#DejaVuSans-65" transform="translate(810.160156 0)"/>
      <use xlink:href="#DejaVuSans-64" transform="translate(871.683594 0)"/>
      <use xlink:href="#DejaVuSans-20" transform="translate(935.160156 0)"/>
      <use xlink:href="#DejaVuSans-64" transform="translate(966.947266 0)"/>
      <use xlink:href="#DejaVuSans-61" transform="translate(1030.423828 0)"/>
      <use xlink:href="#DejaVuSans-74" transform="translate(1091.703125 0)"/>
      <use xlink:href="#DejaVuSans-61" transform="translate(1130.912109 0)"/>
     </g>
    </g>
    <g id="line2d_18">
     <path d="M 362.178125 114.176562 
L 372.178125 114.176562 
L 382.178125 114.176562 
" style="fill: none; stroke-dasharray: 3.7,1.6; stroke-dashoffset: 0; stroke: #46327e"/>
    </g>
    <g id="text_12">
     <!-- Gaussian fit -->
     <g transform="translate(390.178125 117.676562) scale(0.1 -0.1)">
      <defs>
       <path id="DejaVuSans-47" d="M 3809 666 
L 3809 1919 
L 2778 1919 
L 2778 2438 
L 4434 2438 
L 4434 434 
Q 4069 175 3628 42 
Q 3188 -91 2688 -91 
Q 1594 -91 976 548 
Q 359 1188 359 2328 
Q 359 3472 976 4111 
Q 1594 4750 2688 4750 
Q 3144 4750 3555 4637 
Q 3966 4525 4313 4306 
L 4313 3634 
Q 3963 3931 3569 4081 
Q 3175 4231 2741 4231 
Q 1884 4231 1454 3753 
Q 1025 3275 1025 2328 
Q 1025 1384 1454 906 
Q 1884 428 2741 428 
Q 3075 428 3337 486 
Q 3600 544 3809 666 
z
" transform="scale(0.015625)"/>
       <path id="DejaVuSans-66" d="M 2375 4863 
L 2375 4384 
L 1825 4384 
Q 1516 4384 1395 4259 
Q 1275 4134 1275 3809 
L 1275 3500 
L 2222 3500 
L 2222 3053 
L 1275 3053 
L 1275 0 
L 697 0 
L 697 3053 
L 147 3053 
L 147 3500 
L 697 3500 
L 697 3744 
Q 697 4328 969 4595 
Q 1241 4863 1831 4863 
L 2375 4863 
z
" transform="scale(0.015625)"/>
      </defs>
      <use xlink:href="#DejaVuSans-47"/>
      <use xlink:href="#DejaVuSans-61" transform="translate(77.490234 0)"/>
      <use xlink:href="#DejaVuSans-75" transform="translate(138.769531 0)"/>
      <use xlink:href="#DejaVuSans-73" transform="translate(202.148438 0)"/>
      <use xlink:href="#DejaVuSans-73" transform="translate(254.248047 0)"/>
      <use xlink:href="#DejaVuSans-69" transform="translate(306.347656 0)"/>
      <use xlink:href="#DejaVuSans-61" transform="translate(334.130859 0)"/>
      <use xlink:href="#DejaVuSans-6e" transform="translate(395.410156 0)"/>
      <use xlink:href="#DejaVuSans-20" transform="translate(458.789062 0)"/>
      <use xlink:href="#DejaVuSans-66" transform="translate(490.576172 0)"/>
      <use xlink:href="#DejaVuSans-69" transform="translate(525.78125 0)"/>
      <use xlink:href="#DejaVuSans-74" transform="translate(553.564453 0)"/>
     </g>
    </g>
   </g>
  </g>
  <g id="axes_2">
   <g id="patch_8">
    <path d="M 72 640.8 
L 518.4 640.8 
L 518.4 556.8 
L 72 556.8 
z
" style="fill: #ffffff"/>
   </g>
   <g id="matplotlib.axis_3">
    <g id="xtick_6">
     <g id="line2d_19">
      <g>
       <use xlink:href="#md44cf1ef2a" x="72" y="640.8" style="stroke: #000000; stroke-width: 0.8"/>
      </g>
     </g>
     <g id="text_13">
      <!-- 1.2 -->
      <g transform="translate(64.048438 655.398437) scale(0.1 -0.1)">
       <use xlink:href="#DejaVuSans-31"/>
       <use xlink:href="#DejaVuSans-2e" transform="translate(63.623047 0)"/>
       <use xlink:href="#DejaVuSans-32" transform="translate(95.410156 0)"/>
      </g>
     </g>
    </g>
    <g id="xtick_7">
     <g id="line2d_20">
      <g>
       <use xlink:href="#md44cf1ef2a" x="171.2" y="640.8" style="stroke: #000000; stroke-width: 0.8"/>
      </g>
     </g>
     <g id="text_14">
      <!-- 1.4 -->
      <g transform="translate(163.248437 655.398437) scale(0.1 -0.1)">
       <use xlink:href="#DejaVuSans-31"/>
       <use xlink:href="#DejaVuSans-2e" transform="translate(63.623047 0)"/>
       <use xlink:href="#DejaVuSans-34" transform="translate(95.410156 0)"/>
      </g>
     </g>
    </g>
    <g id="xtick_8">
     <g id="line2d_21">
      <g>
       <use xlink:href="#md44cf1ef2a" x="270.4" y="640.8" style="stroke: #000000; stroke-width: 0.8"/>
      </g>
     </g>
     <g id="text_15">
      <!-- 1.6 -->
      <g transform="translate(262.448438 655.398437) scale(0.1 -0.1)">
       <defs>
        <path id="DejaVuSans-36" d="M 2113 2584 
Q 1688 2584 1439 2293 
Q 1191 2003 1191 1497 
Q 1191 994 1439 701 
Q 1688 409 2113 409 
Q 2538 409 2786 701 
Q 3034 994 3034 1497 
Q 3034 2003 2786 2293 
Q 2538 2584 2113 2584 
z
M 3366 4563 
L 3366 3988 
Q 3128 4100 2886 4159 
Q 2644 4219 2406 4219 
Q 1781 4219 1451 3797 
Q 1122 3375 1075 2522 
Q 1259 2794 1537 2939 
Q 1816 3084 2150 3084 
Q 2853 3084 3261 2657 
Q 3669 2231 3669 1497 
Q 3669 778 3244 343 
Q 2819 -91 2113 -91 
Q 1303 -91 875 529 
Q 447 1150 447 2328 
Q 447 3434 972 4092 
Q 1497 4750 2381 4750 
Q 2619 4750 2861 4703 
Q 3103 4656 3366 4563 
z
" transform="scale(0.015625)"/>
       </defs>
       <use xlink:href="#DejaVuSans-31"/>
       <use xlink:href="#DejaVuSans-2e" transform="translate(63.623047 0)"/>
       <use xlink:href="#DejaVuSans-36" transform="translate(95.410156 0)"/>
      </g>
     </g>
    </g>
    <g id="xtick_9">
     <g id="line2d_22">
      <g>
       <use xlink:href="#md44cf1ef2a" x="369.6" y="640.8" style="stroke: #000000; stroke-width: 0.8"/>
      </g>
     </g>
     <g id="text_16">
      <!-- 1.8 -->
      <g transform="translate(361.648438 655.398437) scale(0.1 -0.1)">
       <defs>
        <path id="DejaVuSans-38" d="M 2034 2216 
Q 1584 2216 1326 1975 
Q 1069 1734 1069 1313 
Q 1069 891 1326 650 
Q 1584 409 2034 409 
Q 2484 409 2743 651 
Q 3003 894 3003 1313 
Q 3003 1734 2745 1975 
Q 2488 2216 2034 2216 
z
M 1403 2484 
Q 997 2584 770 2862 
Q 544 3141 544 3541 
Q 544 4100 942 4425 
Q 1341 4750 2034 4750 
Q 2731 4750 3128 4425 
Q 3525 4100 3525 3541 
Q 3525 3141 3298 2862 
Q 3072 2584 2669 2484 
Q 3125 2378 3379 2068 
Q 3634 1759 3634 1313 
Q 3634 634 3220 271 
Q 2806 -91 2034 -91 
Q 1263 -91 848 271 
Q 434 634 434 1313 
Q 434 1759 690 2068 
Q 947 2378 1403 2484 
z
M 1172 3481 
Q 1172 3119 1398 2916 
Q 1625 2713 2034 2713 
Q 2441 2713 2670 2916 
Q 2900 3119 2900 3481 
Q 2900 3844 2670 4047 
Q 2441 4250 2034 4250 
Q 1625 4250 1398 4047 
Q 1172 3844 1172 3481 
z
" transform="scale(0.015625)"/>
       </defs>
       <use xlink:href="#DejaVuSans-31"/>
       <use xlink:href="#DejaVuSans-2e" transform="translate(63.623047 0)"/>
       <use xlink:href="#DejaVuSans-38" transform="translate(95.410156 0)"/>
      </g>
     </g>
    </g>
    <g id="xtick_10">
     <g id="line2d_23">
      <g>
       <use xlink:href="#md44cf1ef2a" x="468.8" y="640.8" style="stroke: #000000; stroke-width: 0.8"/>
      </g>
     </g>
     <g id="text_17">
      <!-- 2.0 -->
      <g transform="translate(460.848437 655.398437) scale(0.1 -0.1)">
       <use xlink:href="#DejaVuSans-32"/>
       <use xlink:href="#DejaVuSans-2e" transform="translate(63.623047 0)"/>
       <use xlink:href="#DejaVuSans-30" transform="translate(95.410156 0)"/>
      </g>
     </g>
    </g>
   </g>
   <g id="matplotlib.axis_4">
    <g id="ytick_10">
     <g id="line2d_24">
      <g>
       <use xlink:href="#m2c6f7f1967" x="72" y="622.8" style="stroke: #000000; stroke-width: 0.8"/>
      </g>
     </g>
     <g id="text_18">
      <!-- −20 -->
      <g transform="translate(43.895313 626.599219) scale(0.1 -0.1)">
       <defs>
        <path id="DejaVuSans-2212" d="M 678 2272 
L 4684 2272 
L 4684 1741 
L 678 1741 
L 678 2272 
z
" transform="scale(0.015625)"/>
       </defs>
       <use xlink:href="#DejaVuSans-2212"/>
       <use xlink:href="#DejaVuSans-32" transform="translate(83.789062 0)"/>
       <use xlink:href="#DejaVuSans-30" transform="translate(147.412109 0)"/>
      </g>
     </g>
    </g>
    <g id="ytick_11">
     <g id="line2d_25">
      <g>
       <use xlink:href="#m2c6f7f1967" x="72" y="598.8" style="stroke: #000000; stroke-width: 0.8"/>
      </g>
     </g>
     <g id="text_19">
      <!-- 0 -->
      <g transform="translate(58.6375 602.599219) scale(0.1 -0.1)">
       <use xlink:href="#DejaVuSans-30"/>
      </g>
     </g>
    </g>
    <g id="ytick_12">
     <g id="line2d_26">
      <g>
       <use xlink:href="#m2c6f7f1967" x="72" y="574.8" style="stroke: #000000; stroke-width: 0.8"/>
      </g>
     </g>
     <g id="text_20">
      <!-- 20 -->
      <g transform="translate(52.275 578.599219) scale(0.1 -0.1)">
       <use xlink:href="#DejaVuSans-32"/>
       <use xlink:href="#DejaVuSans-30" transform="translate(63.623047 0)"/>
      </g>
     </g>
    </g>
    <g id="text_21">
     <!-- Residuals -->
     <g transform="translate(37.815625 622.520312) rotate(-90) scale(0.1 -0.1)">
      <defs>
       <path id="DejaVuSans-52" d="M 2841 2188 
Q 3044 2119 3236 1894 
Q 3428 1669 3622 1275 
L 4263 0 
L 3584 0 
L 2988 1197 
Q 2756 1666 2539 1819 
Q 2322 1972 1947 1972 
L 1259 1972 
L 1259 0 
L 628 0 
L 628 4666 
L 2053 4666 
Q 2853 4666 3247 4331 
Q 3641 3997 3641 3322 
Q 3641 2881 3436 2590 
Q 3231 2300 2841 2188 
z
M 1259 4147 
L 1259 2491 
L 2053 2491 
Q 2509 2491 2742 2702 
Q 2975 2913 2975 3322 
Q 2975 3731 2742 3939 
Q 2509 4147 2053 4147 
L 1259 4147 
z
" transform="scale(0.015625)"/>
      </defs>
      <use xlink:href="#DejaVuSans-52"/>
      <use xlink:href="#DejaVuSans-65" transform="translate(64.982422 0)"/>
      <use xlink:href="#DejaVuSans-73" transform="translate(126.505859 0)"/>
      <use xlink:href="#DejaVuSans-69" transform="translate(178.605469 0)"/>
      <use xlink:href="#DejaVuSans-64" transform="translate(206.388672 0)"/>
      <use xlink:href="#DejaVuSans-75" transform="translate(269.865234 0)"/>
      <use xlink:href="#DejaVuSans-61" transform="translate(333.244141 0)"/>
      <use xlink:href="#DejaVuSans-6c" transform="translate(394.523438 0)"/>
      <use xlink:href="#DejaVuSans-73" transform="translate(422.306641 0)"/>
     </g>
    </g>
   </g>
   <g id="line2d_27">
    <path d="M 518.29584 621.487526 
L 517.68576 622.046696 
L 517.07568 620.942272 
L 516.4656 627.667401 
L 515.85552 619.324926 
L 515.24544 620.840201 
L 514.63536 620.45404 
L 514.03024 624.658385 
L 513.42016 615.075454 
L 512.81504 613.033269 
L 512.20992 610.185302 
L 511.6048 614.310236 
L 510.99968 614.787038 
L 510.39952 609.832105 
L 509.7944 609.278162 
L 509.19424 612.388315 
L 508.58912 616.741435 
L 507.98896 608.406234 
L 507.3888 603.418741 
L 506.7936 605.316621 
L 506.19344 604.415161 
L 505.59328 612.550061 
L 504.99808 602.591463 
L 504.40288 606.46057 
L 503.80768 605.741798 
L 503.21248 602.377151 
L 502.61728 600.722627 
L 502.02208 607.145003 
L 501.43184 602.923851 
L 500.83664 603.004631 
L 500.2464 602.007725 
L 499.65616 599.981477 
L 499.06592 601.386806 
L 498.47568 606.598295 
L 497.88544 597.566689 
L 497.30016 599.174878 
L 496.70992 599.161557 
L 496.12464 601.017791 
L 495.53936 602.349642 
L 494.95408 601.9388 
L 494.3688 596.659842 
L 493.78352 594.224769 
L 493.2032 603.114765 
L 492.61792 594.633377 
L 492.0376 594.399093 
L 491.45728 598.83688 
L 490.87696 592.683097 
L 490.29664 596.706473 
L 489.71632 592.958879 
L 489.136 591.319621 
L 488.56064 591.948256 
L 487.98528 593.95022 
L 487.40496 597.675616 
L 486.8296 592.312511 
L 486.25424 595.202783 
L 485.67888 592.57059 
L 485.10848 593.580918 
L 483.96272 590.683214 
L 483.38736 586.317194 
L 482.81696 590.431956 
L 482.24656 588.54808 
L 481.67616 586.232678 
L 481.11072 593.142699 
L 480.54032 588.180759 
L 479.96992 586.197767 
L 479.40448 586.008853 
L 478.2736 589.139353 
L 477.70816 586.643436 
L 477.14272 586.95627 
L 476.57728 587.400661 
L 476.01184 586.855199 
L 475.45136 587.372302 
L 474.89088 583.712424 
L 473.76496 586.040445 
L 473.20448 589.86669 
L 472.64896 584.088612 
L 472.08848 586.849159 
L 471.528 584.994771 
L 470.97248 586.532144 
L 470.41696 585.956431 
L 469.85648 579.541552 
L 469.30096 583.872239 
L 468.74544 586.098411 
L 468.19488 583.396535 
L 467.63936 581.504744 
L 467.08384 578.131582 
L 466.53328 582.807289 
L 465.98272 583.579987 
L 465.43216 581.374389 
L 464.8816 581.488443 
L 464.33104 578.657543 
L 463.78048 582.472012 
L 463.22992 582.377036 
L 462.68432 580.088134 
L 462.13376 580.468411 
L 461.58816 584.743995 
L 461.04256 587.399167 
L 460.49696 582.970347 
L 459.95136 582.378358 
L 459.40576 582.823172 
L 458.31952 581.101783 
L 457.77392 581.845362 
L 457.23328 579.386712 
L 456.69264 580.653328 
L 456.152 579.152688 
L 455.61136 578.390691 
L 455.07072 579.471953 
L 454.53008 579.589697 
L 453.45376 579.971784 
L 452.91808 578.843154 
L 452.3824 575.345436 
L 451.84672 574.809327 
L 451.31104 580.963136 
L 450.77536 578.114413 
L 450.23968 581.170259 
L 449.70896 578.180268 
L 449.17328 578.5454 
L 448.64256 581.684437 
L 448.11184 575.336217 
L 447.57616 578.310645 
L 447.04544 575.915342 
L 446.51472 579.188788 
L 445.98896 577.394343 
L 445.45824 577.570425 
L 444.93248 574.59569 
L 444.40176 577.127213 
L 443.876 575.9049 
L 443.35024 577.945005 
L 442.82448 580.504165 
L 442.29872 577.211722 
L 441.77296 577.598945 
L 441.2472 577.218808 
L 440.72144 577.844597 
L 440.20064 576.302792 
L 439.67984 576.403148 
L 439.15408 578.827449 
L 438.63328 575.382246 
L 438.11248 576.443058 
L 437.59168 575.756958 
L 437.07584 578.628212 
L 436.55504 574.400488 
L 436.03424 575.295138 
L 435.5184 579.706256 
L 435.00256 577.837484 
L 434.48176 574.158605 
L 433.96592 579.951555 
L 433.45008 575.339764 
L 432.93424 575.562853 
L 432.42336 577.324884 
L 431.90752 576.74172 
L 431.39664 576.40741 
L 430.8808 575.433538 
L 430.36992 580.960484 
L 429.85904 577.647033 
L 429.34816 576.444519 
L 428.83728 577.299039 
L 428.3264 578.401363 
L 427.81552 578.690408 
L 427.30464 577.530335 
L 426.79872 577.478418 
L 426.28784 576.903857 
L 425.78192 578.476152 
L 425.276 578.696783 
L 424.77008 577.972463 
L 424.26416 576.51178 
L 423.75824 576.718175 
L 423.25232 575.503125 
L 422.75136 577.220598 
L 422.24544 576.900683 
L 421.74448 577.454098 
L 421.24352 576.141872 
L 420.7376 578.065559 
L 420.23664 580.437418 
L 419.73568 578.122962 
L 419.23472 576.818903 
L 418.73872 579.49236 
L 418.23776 578.625128 
L 417.74176 576.399411 
L 417.2408 575.495099 
L 416.7448 577.291436 
L 416.2488 576.79645 
L 415.74784 577.425528 
L 415.25184 577.706164 
L 414.7608 576.533203 
L 414.2648 575.029932 
L 413.7688 576.459975 
L 413.27776 577.345146 
L 412.78176 576.23884 
L 412.29072 580.162939 
L 411.79968 581.953402 
L 410.81264 576.003403 
L 410.3216 576.822482 
L 409.83552 576.947824 
L 409.34448 579.568757 
L 408.85344 581.111206 
L 408.36736 576.209869 
L 407.87632 579.822638 
L 407.39024 577.053883 
L 406.90416 578.980689 
L 406.41808 578.141206 
L 405.932 579.780786 
L 405.44592 578.558634 
L 404.95984 577.692662 
L 403.99264 580.455896 
L 403.51152 577.552184 
L 403.02544 576.333769 
L 402.54432 582.773304 
L 402.0632 579.028504 
L 401.58208 578.682897 
L 401.10096 581.03442 
L 400.61984 579.285008 
L 400.13872 581.14495 
L 399.66256 579.779094 
L 399.18144 582.821489 
L 398.70528 580.528394 
L 398.22416 580.787997 
L 397.748 578.561984 
L 397.27184 578.764118 
L 396.79568 581.974763 
L 396.31952 579.971293 
L 395.84336 579.863316 
L 395.3672 580.713979 
L 394.896 579.284466 
L 394.41984 583.02603 
L 393.94864 582.491552 
L 393.47744 580.950581 
L 393.00128 580.166805 
L 392.53008 580.517188 
L 392.05888 581.147234 
L 391.58768 581.537918 
L 391.11648 584.587613 
L 390.65024 578.093476 
L 390.17904 579.032718 
L 389.7128 577.463529 
L 389.2416 577.627622 
L 388.77536 584.681275 
L 388.30912 577.583426 
L 387.84288 580.53548 
L 387.37664 579.447613 
L 386.9104 581.501079 
L 386.44416 580.68129 
L 385.97792 582.126249 
L 385.51168 578.717624 
L 385.0504 580.005151 
L 384.58416 579.409368 
L 384.12288 582.307576 
L 383.6616 579.412881 
L 383.20032 583.748032 
L 382.73904 582.556016 
L 382.27776 583.975862 
L 381.81648 583.420479 
L 381.3552 582.629603 
L 380.89392 584.06592 
L 380.4376 579.932478 
L 379.97632 584.558818 
L 379.52 583.113064 
L 378.60736 584.970781 
L 378.14608 584.662068 
L 377.68976 586.633913 
L 377.2384 587.001095 
L 376.78208 582.64312 
L 376.32576 581.852243 
L 375.86944 582.572279 
L 375.41808 582.494056 
L 374.96176 583.720452 
L 374.5104 583.630107 
L 374.05904 582.568962 
L 373.15632 587.324736 
L 372.70496 585.535072 
L 372.2536 586.741407 
L 371.80224 584.5719 
L 371.35088 588.234905 
L 370.90448 586.903 
L 370.45312 583.889915 
L 370.00672 584.733044 
L 369.56032 584.138652 
L 369.11392 585.957655 
L 368.66256 586.314843 
L 368.21616 589.049192 
L 367.76976 587.655536 
L 367.32832 587.358912 
L 366.88192 589.643485 
L 366.43552 588.296874 
L 365.99408 585.033383 
L 365.54768 585.866314 
L 365.10624 586.986321 
L 364.65984 587.013466 
L 364.2184 588.119822 
L 363.77696 586.77726 
L 363.33552 584.610595 
L 362.89408 585.904187 
L 362.45264 590.499648 
L 362.01616 589.279934 
L 361.57472 590.55253 
L 360.6968 592.126103 
L 360.26032 589.139741 
L 359.81888 591.839693 
L 359.3824 593.668029 
L 358.94592 592.114503 
L 358.50944 590.060366 
L 358.07296 590.981381 
L 357.63648 591.025985 
L 357.2 592.40855 
L 356.76848 590.247308 
L 356.332 591.534919 
L 355.90048 593.470102 
L 355.464 594.847267 
L 355.03248 593.571218 
L 354.60096 595.298739 
L 354.16944 593.560287 
L 353.73296 591.087053 
L 353.30144 594.101404 
L 352.87488 594.399558 
L 352.44336 592.651872 
L 352.01184 592.422395 
L 351.58528 593.21127 
L 350.7272 593.866879 
L 350.29568 592.815727 
L 349.86912 594.588917 
L 349.44256 591.555377 
L 349.016 597.172334 
L 348.16288 592.992649 
L 347.73632 594.49885 
L 347.30976 594.751153 
L 346.8832 594.344128 
L 346.03504 592.903287 
L 345.61344 597.838382 
L 345.19184 595.434984 
L 344.76528 595.217512 
L 344.34368 597.255861 
L 343.92208 598.44067 
L 343.50048 598.917654 
L 343.07888 597.363868 
L 342.24064 599.276487 
L 341.81904 599.742858 
L 341.4024 598.250944 
L 340.9808 595.00651 
L 340.56416 597.019375 
L 340.14256 600.141574 
L 339.72592 600.367078 
L 339.30928 597.646401 
L 338.89264 599.876905 
L 338.476 598.476473 
L 338.05936 601.470682 
L 337.64272 603.270348 
L 337.23104 599.361686 
L 336.8144 597.659036 
L 336.39776 600.718624 
L 335.98608 598.372999 
L 335.5744 597.634931 
L 335.15776 598.991978 
L 334.74608 598.737008 
L 334.3344 600.333266 
L 333.92272 601.069788 
L 333.51104 597.348509 
L 333.09936 599.480273 
L 332.68768 603.860569 
L 332.276 600.305068 
L 331.86928 601.605679 
L 331.4576 604.371806 
L 331.05088 605.388228 
L 330.6392 601.028949 
L 330.23248 602.822693 
L 329.41408 601.45437 
L 329.00736 600.319401 
L 328.60064 600.53801 
L 328.19392 599.914331 
L 327.79216 604.316901 
L 327.38544 603.137564 
L 326.97872 602.660722 
L 326.17024 604.134332 
L 325.76848 603.786182 
L 325.36176 604.53053 
L 324.96 602.736761 
L 324.55824 602.69686 
L 323.74976 601.763735 
L 323.35296 600.354824 
L 322.9512 601.194274 
L 322.54944 604.755055 
L 322.14768 599.723394 
L 321.74592 600.963669 
L 321.34912 602.909093 
L 320.94736 605.927979 
L 320.55056 606.107995 
L 320.15376 607.389708 
L 319.752 606.905563 
L 319.3552 606.786523 
L 318.9584 605.857519 
L 318.5616 606.176167 
L 318.1648 605.226542 
L 317.768 605.203512 
L 317.3712 604.291131 
L 316.97936 601.449318 
L 316.58256 605.3657 
L 316.18576 606.704051 
L 315.79392 605.136998 
L 315.40208 604.571693 
L 315.00528 607.533535 
L 314.61344 607.650713 
L 314.2216 607.138592 
L 313.82976 606.920441 
L 313.43792 603.723082 
L 313.04608 605.331276 
L 312.65424 605.004282 
L 312.2624 602.440147 
L 311.87056 602.697475 
L 311.09184 605.757755 
L 310.7 603.77911 
L 310.31312 607.595192 
L 309.92624 606.774253 
L 309.5344 607.226917 
L 309.14752 608.741678 
L 308.76064 607.638781 
L 307.98688 611.710657 
L 307.6 609.739379 
L 307.21312 610.239175 
L 306.8312 607.6159 
L 306.44432 605.745434 
L 306.05744 603.282174 
L 305.67552 605.62882 
L 305.28864 603.509801 
L 304.90672 606.062449 
L 304.5248 607.823324 
L 304.13792 607.805326 
L 303.756 606.314369 
L 303.37408 611.137074 
L 302.99216 609.924391 
L 302.61024 609.397946 
L 302.22832 609.20835 
L 301.85136 608.455076 
L 301.46944 607.376151 
L 301.08752 608.330534 
L 300.71056 603.148414 
L 300.32864 603.77347 
L 299.95168 608.112307 
L 299.56976 605.99143 
L 299.1928 607.226418 
L 298.81584 610.227596 
L 298.43888 607.539844 
L 297.68496 610.110525 
L 297.308 607.851086 
L 296.93104 609.346043 
L 296.55408 608.329068 
L 296.17712 609.497454 
L 295.80512 607.588216 
L 295.42816 603.386945 
L 295.05616 605.294328 
L 294.6792 604.549342 
L 294.3072 602.260535 
L 293.93024 602.906928 
L 293.55824 602.31325 
L 293.18624 603.502114 
L 292.81424 600.412625 
L 292.44224 604.576129 
L 292.07024 604.496295 
L 291.69824 605.907327 
L 291.32624 604.744858 
L 290.9592 605.585028 
L 290.5872 608.069191 
L 290.22016 607.282785 
L 289.84816 608.146552 
L 289.48112 604.786293 
L 289.10912 603.300875 
L 288.74208 603.978644 
L 288.37504 600.406326 
L 288.00304 600.374956 
L 287.636 600.472207 
L 287.26896 602.410051 
L 286.90192 603.571968 
L 286.53984 602.42844 
L 286.1728 604.22918 
L 285.80576 607.380638 
L 285.43872 606.042447 
L 285.07664 608.312739 
L 284.7096 609.601245 
L 284.34752 609.434259 
L 283.98048 606.168674 
L 283.6184 606.899697 
L 283.25632 604.7633 
L 282.88928 603.942134 
L 282.5272 603.921924 
L 281.80304 599.708029 
L 281.44096 603.013297 
L 280.72176 601.918382 
L 280.35968 606.624404 
L 279.9976 604.288384 
L 279.64048 609.202977 
L 279.2784 606.981701 
L 278.92128 610.280708 
L 278.5592 606.884139 
L 278.20208 607.189713 
L 277.84496 605.975966 
L 277.48288 605.862859 
L 277.12576 601.864967 
L 276.76864 601.65225 
L 275.69728 597.416501 
L 275.34512 599.327713 
L 274.988 598.448727 
L 274.63088 600.305619 
L 273.9216 602.538636 
L 273.56944 602.668406 
L 273.21232 604.113543 
L 272.86016 604.553021 
L 272.508 604.794678 
L 272.15088 605.261386 
L 271.79872 607.834718 
L 271.44656 606.969935 
L 271.0944 603.35606 
L 270.74224 604.081746 
L 270.39008 602.244162 
L 270.04288 598.374708 
L 269.69072 599.404804 
L 269.33856 597.657244 
L 268.99136 596.933766 
L 268.6392 597.588144 
L 268.28704 596.503014 
L 267.24048 603.126761 
L 266.89328 603.268718 
L 266.54608 604.915148 
L 266.19888 604.965393 
L 265.85168 606.766346 
L 265.50448 605.862276 
L 265.15728 604.016105 
L 264.81008 606.29263 
L 264.46288 602.932013 
L 264.11568 601.284865 
L 263.77344 598.276624 
L 263.42624 600.20993 
L 263.084 599.556217 
L 262.39456 594.208734 
L 262.04736 596.69215 
L 261.70512 594.463064 
L 260.6784 601.741982 
L 260.33616 599.964827 
L 259.99392 600.856928 
L 259.65168 603.605442 
L 259.30944 602.575805 
L 258.9672 604.568096 
L 258.62496 602.447985 
L 258.28768 603.080149 
L 257.94544 602.07717 
L 257.6032 599.624355 
L 257.26592 598.258906 
L 256.92864 597.764115 
L 256.5864 593.594363 
L 256.24912 590.913403 
L 255.91184 592.85278 
L 255.5696 591.276032 
L 255.23232 591.147311 
L 254.89504 592.676244 
L 254.55776 596.074573 
L 253.8832 599.631059 
L 253.55088 599.684394 
L 252.87632 603.09743 
L 252.544 602.219383 
L 252.20672 603.558549 
L 251.86944 600.186491 
L 251.53712 598.701567 
L 251.2048 595.02566 
L 250.5352 590.71492 
L 250.20288 591.347049 
L 249.53328 588.824903 
L 248.86864 593.390947 
L 248.54128 590.995029 
L 247.87664 598.59515 
L 247.212 603.301159 
L 246.88464 599.055926 
L 246.55232 598.771777 
L 246.22496 600.337173 
L 245.89264 598.091769 
L 245.56528 593.551847 
L 245.23792 592.816379 
L 244.57824 589.135324 
L 244.25088 588.557115 
L 243.92352 592.318774 
L 243.59616 588.885963 
L 243.2688 588.977593 
L 242.61408 594.209283 
L 242.28672 596.911776 
L 241.95936 597.463461 
L 241.63696 602.622348 
L 241.3096 601.547228 
L 240.9872 604.906925 
L 240.65984 602.798689 
L 240.33744 599.795834 
L 240.01008 598.621684 
L 239.36528 592.288644 
L 238.39312 585.990761 
L 238.07072 586.013872 
L 237.74832 588.370075 
L 237.10352 590.778593 
L 236.78112 592.563878 
L 236.45872 592.622595 
L 235.81888 599.975087 
L 235.49648 601.925135 
L 235.17904 599.615931 
L 234.85664 599.121791 
L 234.5392 598.430083 
L 233.89936 594.552446 
L 233.58192 587.907927 
L 233.26448 591.373657 
L 232.62464 587.584888 
L 232.3072 585.291207 
L 231.98976 585.411144 
L 231.67232 586.720339 
L 231.35984 588.782073 
L 231.0424 588.492005 
L 230.40752 590.665586 
L 229.7776 597.61676 
L 229.46016 598.897005 
L 229.14768 601.779381 
L 228.83024 599.329497 
L 228.51776 601.871289 
L 228.20528 602.913311 
L 227.88784 601.667893 
L 227.57536 603.408986 
L 227.26288 597.700036 
L 226.9504 595.948262 
L 226.63792 591.946147 
L 225.70048 586.398469 
L 225.388 585.428877 
L 225.07552 586.902715 
L 224.768 586.41218 
L 224.45552 587.505372 
L 224.14304 589.344241 
L 223.83552 590.193026 
L 223.52304 593.61648 
L 223.21552 595.757318 
L 222.90304 595.354581 
L 222.59552 597.222562 
L 222.28304 601.614092 
L 221.97552 602.622461 
L 221.668 602.890537 
L 221.36048 601.094757 
L 221.05296 601.963501 
L 220.1304 588.905856 
L 219.82288 588.687397 
L 219.20784 586.513133 
L 218.90032 585.703724 
L 218.59776 583.214586 
L 218.29024 586.259405 
L 217.98272 590.493719 
L 217.68016 587.58929 
L 217.07008 591.754303 
L 216.76752 594.01929 
L 216.46 598.545224 
L 216.15744 599.069725 
L 215.24976 605.116465 
L 214.94224 605.552157 
L 214.33712 600.364342 
L 214.03952 599.359072 
L 213.73696 592.256963 
L 213.4344 595.173097 
L 212.82928 586.899063 
L 212.53168 587.12765 
L 212.22912 583.220813 
L 211.93152 585.94961 
L 211.62896 589.782414 
L 211.33136 585.44967 
L 211.0288 587.194248 
L 210.7312 590.840367 
L 210.4336 589.999759 
L 210.13104 593.028701 
L 209.83344 594.031524 
L 209.53584 597.391786 
L 209.23824 602.112931 
L 208.64304 606.10956 
L 208.34544 603.319174 
L 208.04784 603.973089 
L 207.75024 602.933512 
L 207.45264 595.793557 
L 207.15504 594.972678 
L 206.8624 592.659113 
L 206.5648 589.163385 
L 206.2672 584.192695 
L 205.97456 586.725413 
L 205.67696 586.371568 
L 205.38432 583.103418 
L 205.09168 585.804914 
L 204.79408 585.055257 
L 204.50144 585.210324 
L 204.2088 588.36808 
L 203.9112 593.662482 
L 203.61856 593.712277 
L 203.32592 599.245011 
L 203.03328 602.298258 
L 202.74064 601.195038 
L 202.15536 605.891509 
L 201.57008 597.908197 
L 201.2824 597.746792 
L 200.69712 590.38426 
L 200.40944 589.429715 
L 200.1168 585.792887 
L 199.53648 583.658 
L 199.2488 582.339361 
L 198.95616 584.281438 
L 198.66848 581.578043 
L 198.3808 585.523514 
L 198.08816 585.338658 
L 197.5128 590.644835 
L 197.22512 591.927307 
L 196.93744 593.993237 
L 196.64976 594.591124 
L 196.0744 601.843422 
L 195.78672 602.708216 
L 195.21136 608.24774 
L 194.92864 604.842157 
L 194.64096 603.455085 
L 194.35328 604.699981 
L 194.07056 597.797673 
L 193.78288 596.789601 
L 193.50016 593.128809 
L 193.21248 590.919872 
L 192.92976 586.518486 
L 192.64208 585.216514 
L 192.35936 582.871582 
L 192.07664 582.886821 
L 191.79392 585.028957 
L 191.5112 584.423888 
L 191.22352 584.758208 
L 190.9408 591.55228 
L 190.37536 594.101043 
L 189.80992 602.384271 
L 189.24944 605.366268 
L 188.96672 604.574476 
L 188.684 609.376816 
L 188.40624 604.33985 
L 188.12352 603.287199 
L 187.8408 603.128146 
L 187.56304 602.618937 
L 187.00256 593.317376 
L 186.7248 592.170335 
L 185.88656 583.913455 
L 185.6088 587.674141 
L 185.32608 582.870537 
L 185.04832 583.11124 
L 184.77056 585.125407 
L 184.21504 587.547131 
L 183.93728 593.307136 
L 183.65952 594.496853 
L 183.38176 596.298513 
L 183.10896 602.116292 
L 182.55344 606.779506 
L 182.00288 608.464802 
L 181.45232 601.560792 
L 181.17456 600.638455 
L 180.624 595.262135 
L 179.52784 585.292412 
L 179.25504 586.387017 
L 178.98224 585.708454 
L 178.70944 585.84414 
L 178.43664 591.166986 
L 178.16384 593.681071 
L 177.89104 594.42988 
L 177.07264 605.858962 
L 176.79984 604.20406 
L 176.52704 608.936791 
L 176.2592 606.390982 
L 175.9864 607.373876 
L 175.7136 612.271097 
L 175.17296 601.328809 
L 174.90512 597.93281 
L 174.63232 597.129194 
L 174.36448 588.5083 
L 174.09168 592.015752 
L 173.82384 587.679565 
L 173.556 588.878696 
L 173.28816 586.937587 
L 173.01536 589.58551 
L 172.74752 588.257132 
L 172.47968 591.53028 
L 171.944 599.403086 
L 171.67616 598.630953 
L 171.14048 609.401479 
L 170.87264 608.225012 
L 170.6048 611.894741 
L 170.34192 608.055406 
L 170.07408 611.305128 
L 169.80624 606.90529 
L 169.27552 604.362003 
L 169.00768 597.947671 
L 168.7448 595.579211 
L 168.47696 594.433274 
L 168.21408 591.275383 
L 167.94624 591.105203 
L 167.68336 588.78034 
L 167.42048 588.729405 
L 167.1576 587.880493 
L 166.88976 588.320585 
L 166.62688 588.481946 
L 166.364 592.615283 
L 166.10112 594.597711 
L 165.57536 601.456934 
L 165.31248 603.252755 
L 165.0496 607.851902 
L 164.26096 611.181017 
L 163.99808 610.826105 
L 163.74016 611.026248 
L 163.2144 605.483797 
L 162.95648 603.649315 
L 162.43072 595.405543 
L 162.1728 592.943992 
L 161.90992 592.402758 
L 161.652 587.858019 
L 161.39408 589.421981 
L 161.1312 589.576035 
L 160.87328 591.115326 
L 160.61536 589.458526 
L 160.35248 589.451281 
L 159.83664 596.278907 
L 159.57872 600.92894 
L 159.3208 598.763247 
L 159.06288 604.640184 
L 158.80496 607.261682 
L 158.54704 607.581903 
L 158.28912 608.089928 
L 158.0312 611.671026 
L 157.77328 610.893235 
L 157.52032 611.631252 
L 157.2624 611.181524 
L 157.00448 610.413696 
L 156.4936 606.592915 
L 156.23568 600.783154 
L 155.98272 601.607985 
L 155.7248 596.467641 
L 155.47184 596.554056 
L 155.21392 592.627127 
L 154.96096 591.116206 
L 154.70304 590.562614 
L 154.19712 592.88536 
L 153.94416 591.367588 
L 153.18032 598.139614 
L 152.92736 597.78737 
L 152.42144 608.144107 
L 152.16848 609.131863 
L 151.91552 611.299272 
L 151.66256 610.782897 
L 151.4096 613.474208 
L 151.15664 612.802317 
L 150.90864 610.710786 
L 150.65568 611.138079 
L 150.40272 609.493298 
L 150.15472 610.399487 
L 149.6488 600.339368 
L 149.4008 600.482437 
L 149.14784 598.435682 
L 148.89984 597.642427 
L 148.64688 595.074571 
L 148.39888 594.006237 
L 147.89792 594.894151 
L 147.64992 593.080211 
L 147.40192 593.714893 
L 147.14896 596.131629 
L 146.90096 599.981068 
L 146.65296 599.848142 
L 146.40496 601.609325 
L 145.90896 608.169373 
L 145.66096 608.781057 
L 145.41296 612.603043 
L 145.16496 614.253719 
L 144.91696 615.022976 
L 144.66896 613.261143 
L 144.42592 614.366754 
L 144.17792 611.073182 
L 143.68192 607.667766 
L 143.43888 604.973323 
L 143.19088 600.940485 
L 142.94288 602.960361 
L 142.69984 600.713865 
L 142.45184 596.73018 
L 142.2088 598.152733 
L 141.96576 597.08025 
L 141.71776 597.129402 
L 141.47472 595.619297 
L 141.22672 598.897381 
L 140.98368 600.203382 
L 140.74064 599.611453 
L 140.2496 608.466608 
L 140.00656 608.865826 
L 139.76352 608.760325 
L 139.52048 614.242294 
L 139.27744 615.467646 
L 139.0344 617.542854 
L 138.79136 617.473784 
L 138.54832 617.529626 
L 138.30528 616.741111 
L 138.06224 615.264893 
L 137.82416 611.2504 
L 137.58112 613.85052 
L 137.09504 606.794941 
L 136.85696 605.555533 
L 136.61392 601.72817 
L 136.37088 603.204093 
L 136.1328 600.347817 
L 135.88976 599.46547 
L 135.65168 599.781626 
L 135.40864 601.820413 
L 135.17056 601.852569 
L 134.93248 606.299282 
L 134.68944 604.576854 
L 134.45136 604.425146 
L 134.21328 605.875033 
L 133.256 617.226461 
L 133.01792 617.743685 
L 132.77984 622.438544 
L 132.30368 617.084712 
L 132.0656 620.659174 
L 131.35136 614.004178 
L 131.11328 612.849329 
L 130.8752 609.39935 
L 130.63712 608.106839 
L 130.404 607.80679 
L 130.16592 604.771978 
L 129.92784 604.742546 
L 129.69472 607.009643 
L 129.45664 606.946872 
L 129.22352 607.422668 
L 128.75232 610.861395 
L 128.51424 614.385449 
L 128.28112 613.325692 
L 128.04304 615.36712 
L 127.80992 616.021914 
L 127.5768 619.978434 
L 127.33872 618.543195 
L 127.1056 622.253725 
L 126.87248 620.865025 
L 126.63936 620.603942 
L 126.40624 621.385376 
L 126.16816 618.337553 
L 125.93504 618.848045 
L 125.70192 617.196217 
L 125.4688 611.769724 
L 125.23568 613.086326 
L 124.76944 607.539533 
L 124.54128 608.677808 
L 123.84192 606.736691 
L 123.6088 611.237205 
L 123.38064 609.092444 
L 123.14752 612.64622 
L 122.9144 612.034749 
L 122.45312 618.902616 
L 122.22496 618.903191 
L 121.76368 621.999616 
L 121.53056 622.695024 
L 121.3024 621.443919 
L 121.06928 622.787251 
L 120.84112 619.694734 
L 120.61296 620.534901 
L 120.37984 614.335517 
L 120.15168 614.152653 
L 119.92352 612.21331 
L 119.69536 613.032912 
L 119.4672 614.657107 
L 119.00592 610.488136 
L 118.77776 612.003396 
L 118.5496 614.894911 
L 118.32144 613.578967 
L 118.09328 613.015333 
L 117.87008 613.910874 
L 117.64192 616.895271 
L 117.41376 616.764902 
L 117.1856 619.363788 
L 116.95744 617.464718 
L 116.72928 621.858472 
L 116.50608 620.340169 
L 116.27792 622.997635 
L 116.04976 622.808721 
L 115.82656 626.068307 
L 115.3752 626.689784 
L 114.92384 622.822995 
L 114.69568 622.58854 
L 114.47248 619.676197 
L 114.24432 623.66311 
L 114.02112 615.997364 
L 113.56976 613.012884 
L 113.34656 615.4036 
L 113.12336 615.26349 
L 112.90016 614.402381 
L 112.672 614.978235 
L 112.4488 613.899101 
L 112.0024 616.677029 
L 111.7792 617.925352 
L 111.556 622.315482 
L 111.3328 621.81641 
L 111.1096 623.806163 
L 110.8864 622.326673 
L 110.6632 623.69022 
L 110.44 627.74395 
L 110.22176 626.034922 
L 109.99856 627.719314 
L 109.77536 627.388468 
L 109.55216 627.716146 
L 109.11072 625.142213 
L 108.88752 625.535334 
L 108.66928 627.027203 
L 108.44608 624.39934 
L 108.22784 625.020373 
L 108.00464 621.275791 
L 107.5632 619.285892 
L 107.34496 619.311318 
L 107.12176 619.031039 
L 106.90352 616.636557 
L 106.46208 618.514283 
L 106.24384 620.761395 
L 106.0256 617.826911 
L 105.80736 618.018218 
L 105.36592 622.471273 
L 105.14768 625.799817 
L 104.92944 625.83269 
L 104.7112 628.134881 
L 104.49296 626.530801 
L 104.27472 627.222881 
L 104.05648 631.650554 
L 103.83824 631.604225 
L 103.62 630.406321 
L 103.40176 628.089921 
L 103.18352 631.112941 
L 102.752 626.409292 
L 102.53376 625.22914 
L 102.31552 626.70027 
L 101.884 624.639092 
L 101.66576 626.317914 
L 101.45248 622.089042 
L 101.23424 622.128787 
L 101.02096 623.194426 
L 100.80272 623.243238 
L 100.58944 619.783984 
L 100.3712 625.480825 
L 100.15792 620.835862 
L 99.94464 622.961194 
L 99.7264 623.528461 
L 99.51312 625.441377 
L 99.29984 622.900455 
L 99.0816 629.137197 
L 98.86832 626.864815 
L 98.65504 626.420087 
L 98.44176 629.72039 
L 98.22848 627.951631 
L 98.01024 630.509175 
L 97.79696 629.681562 
L 97.58368 632.700774 
L 97.3704 631.954795 
L 97.15712 631.65893 
L 96.94384 633.713812 
L 96.73056 633.32509 
L 96.30896 631.198175 
L 96.09568 632.110369 
L 95.8824 628.681776 
L 95.66912 628.717552 
L 95.45584 629.118751 
L 95.24752 630.104324 
L 95.03424 630.178384 
L 94.61264 625.343618 
L 94.18608 627.249386 
L 93.97776 626.507644 
L 93.76448 626.823338 
L 93.55616 626.828935 
L 93.34288 625.781221 
L 93.13456 625.679381 
L 92.71296 630.93675 
L 92.29632 631.740828 
L 92.08304 631.663142 
L 91.87472 632.062171 
L 91.6664 632.770674 
L 91.45808 632.347159 
L 91.2448 634.398628 
L 91.03648 635.18568 
L 90.82816 636.486211 
L 90.61984 634.752867 
L 90.41152 635.867241 
L 90.2032 633.639857 
L 89.99488 635.646164 
L 89.78656 631.917375 
L 89.36992 633.117816 
L 88.95328 629.755332 
L 88.74496 632.532942 
L 88.33328 628.793972 
L 88.12496 632.017516 
L 87.91664 631.59859 
L 87.71328 630.441953 
L 87.50496 632.789696 
L 87.29664 632.255187 
L 86.88496 633.415854 
L 86.6816 631.164852 
L 86.47328 633.690579 
L 86.26992 634.292102 
L 86.0616 635.812318 
L 85.85824 634.495665 
L 85.64992 636.339995 
L 85.44656 636.720341 
L 85.2432 635.211481 
L 85.03488 637.084885 
L 84.83152 637.227479 
L 84.62816 636.901977 
L 84.4248 636.355244 
L 84.21648 636.971686 
L 84.01312 635.726174 
L 83.80976 638.329256 
L 83.6064 636.411296 
L 83.40304 637.370401 
L 82.99632 634.722055 
L 82.79296 636.567619 
L 82.5896 635.788906 
L 82.38624 633.664813 
L 82.18288 635.631117 
L 81.77616 634.022218 
L 81.5728 632.397628 
L 81.3744 634.734127 
L 81.17104 632.400907 
L 80.96768 635.626928 
L 80.76432 633.855973 
L 80.56592 635.123516 
L 80.36256 635.37872 
L 80.1592 634.921581 
L 79.9608 636.931216 
L 79.75744 636.342531 
L 79.55408 636.095883 
L 79.35568 637.307107 
L 79.15232 637.100379 
L 78.95392 638.362677 
L 78.75056 637.741643 
L 78.55216 640.354471 
L 78.35376 640.237299 
L 78.1504 638.205023 
L 77.952 638.366348 
L 77.7536 640.028755 
L 77.55024 636.938735 
L 77.35184 638.683524 
L 77.15344 636.943073 
L 76.95504 637.074382 
L 76.75168 637.858812 
L 76.55328 634.713065 
L 75.95808 636.769126 
L 75.75968 636.652859 
L 75.56128 637.318341 
L 75.36288 636.907668 
L 75.16448 638.219425 
L 74.76768 637.743078 
L 74.56928 639.684285 
L 74.37088 639.853253 
L 74.17744 639.493539 
L 73.97904 638.017171 
L 73.78064 639.302349 
L 73.58224 641.41034 
L 73.3888 639.117426 
L 73.1904 641.671957 
L 72.992 639.713843 
L 72.79856 640.099313 
L 72.60016 639.93462 
L 72.40176 639.532879 
L 72.20832 638.537346 
L 72.00992 639.882874 
L 72.00992 639.882874 
" clip-path="url(#pef1020e809)" style="fill: none; stroke-dasharray: 3.7,1.6; stroke-dashoffset: 0; stroke: #808080"/>
   </g>
   <g id="line2d_28">
    <path d="M 72 598.8 
L 518.4 598.8 
" clip-path="url(#pef1020e809)" style="fill: none; stroke-dasharray: 5.55,2.4; stroke-dashoffset: 0; stroke: #000000; stroke-width: 1.5"/>
   </g>
   <g id="patch_9">
    <path d="M 72 640.8 
L 72 556.8 
" style="fill: none; stroke: #000000; stroke-width: 0.8; stroke-linejoin: miter; stroke-linecap: square"/>
   </g>
   <g id="patch_10">
    <path d="M 518.4 640.8 
L 518.4 556.8 
" style="fill: none; stroke: #000000; stroke-width: 0.8; stroke-linejoin: miter; stroke-linecap: square"/>
   </g>
   <g id="patch_11">
    <path d="M 72 640.8 
L 518.4 640.8 
" style="fill: none; stroke: #000000; stroke-width: 0.8; stroke-linejoin: miter; stroke-linecap: square"/>
   </g>
   <g id="patch_12">
    <path d="M 72 556.8 
L 518.4 556.8 
" style="fill: none; stroke: #000000; stroke-width: 0.8; stroke-linejoin: miter; stroke-linecap: square"/>
   </g>
  </g>
  <g id="text_22">
   <!-- Photon energy (eV) -->
   <g transform="translate(229.8825 710.304375) scale(0.12 -0.12)">
    <defs>
     <path id="DejaVuSans-50" d="M 1259 4147 
L 1259 2394 
L 2053 2394 
Q 2494 2394 2734 2622 
Q 2975 2850 2975 3272 
Q 2975 3691 2734 3919 
Q 2494 4147 2053 4147 
L 1259 4147 
z
M 628 4666 
L 2053 4666 
Q 2838 4666 3239 4311 
Q 3641 3956 3641 3272 
Q 3641 2581 3239 2228 
Q 2838 1875 2053 1875 
L 1259 1875 
L 1259 0 
L 628 0 
L 628 4666 
z
" transform="scale(0.015625)"/>
     <path id="DejaVuSans-68" d="M 3513 2113 
L 3513 0 
L 2938 0 
L 2938 2094 
Q 2938 2591 2744 2837 
Q 2550 3084 2163 3084 
Q 1697 3084 1428 2787 
Q 1159 2491 1159 1978 
L 1159 0 
L 581 0 
L 581 4863 
L 1159 4863 
L 1159 2956 
Q 1366 3272 1645 3428 
Q 1925 3584 2291 3584 
Q 2894 3584 3203 3211 
Q 3513 2838 3513 2113 
z
" transform="scale(0.015625)"/>
     <path id="DejaVuSans-67" d="M 2906 1791 
Q 2906 2416 2648 2759 
Q 2391 3103 1925 3103 
Q 1463 3103 1205 2759 
Q 947 2416 947 1791 
Q 947 1169 1205 825 
Q 1463 481 1925 481 
Q 2391 481 2648 825 
Q 2906 1169 2906 1791 
z
M 3481 434 
Q 3481 -459 3084 -895 
Q 2688 -1331 1869 -1331 
Q 1566 -1331 1297 -1286 
Q 1028 -1241 775 -1147 
L 775 -588 
Q 1028 -725 1275 -790 
Q 1522 -856 1778 -856 
Q 2344 -856 2625 -561 
Q 2906 -266 2906 331 
L 2906 616 
Q 2728 306 2450 153 
Q 2172 0 1784 0 
Q 1141 0 747 490 
Q 353 981 353 1791 
Q 353 2603 747 3093 
Q 1141 3584 1784 3584 
Q 2172 3584 2450 3431 
Q 2728 3278 2906 2969 
L 2906 3500 
L 3481 3500 
L 3481 434 
z
" transform="scale(0.015625)"/>
     <path id="DejaVuSans-56" d="M 1831 0 
L 50 4666 
L 709 4666 
L 2188 738 
L 3669 4666 
L 4325 4666 
L 2547 0 
L 1831 0 
z
" transform="scale(0.015625)"/>
    </defs>
    <use xlink:href="#DejaVuSans-50"/>
    <use xlink:href="#DejaVuSans-68" transform="translate(60.302734 0)"/>
    <use xlink:href="#DejaVuSans-6f" transform="translate(123.681641 0)"/>
    <use xlink:href="#DejaVuSans-74" transform="translate(184.863281 0)"/>
    <use xlink:href="#DejaVuSans-6f" transform="translate(224.072266 0)"/>
    <use xlink:href="#DejaVuSans-6e" transform="translate(285.253906 0)"/>
    <use xlink:href="#DejaVuSans-20" transform="translate(348.632812 0)"/>
    <use xlink:href="#DejaVuSans-65" transform="translate(380.419922 0)"/>
    <use xlink:href="#DejaVuSans-6e" transform="translate(441.943359 0)"/>
    <use xlink:href="#DejaVuSans-65" transform="translate(505.322266 0)"/>
    <use xlink:href="#DejaVuSans-72" transform="translate(566.845703 0)"/>
    <use xlink:href="#DejaVuSans-67" transform="translate(606.208984 0)"/>
    <use xlink:href="#DejaVuSans-79" transform="translate(669.685547 0)"/>
    <use xlink:href="#DejaVuSans-20" transform="translate(728.865234 0)"/>
    <use xlink:href="#DejaVuSans-28" transform="translate(760.652344 0)"/>
    <use xlink:href="#DejaVuSans-65" transform="translate(799.666016 0)"/>
    <use xlink:href="#DejaVuSans-56" transform="translate(861.189453 0)"/>
    <use xlink:href="#DejaVuSans-29" transform="translate(929.597656 0)"/>
   </g>
  </g>
  <g id="text_23">
   <!-- Excitation power 1.0 mW -->
   <g transform="translate(212.689687 23.518125) scale(0.12 -0.12)">
    <defs>
     <path id="DejaVuSans-45" d="M 628 4666 
L 3578 4666 
L 3578 4134 
L 1259 4134 
L 1259 2753 
L 3481 2753 
L 3481 2222 
L 1259 2222 
L 1259 531 
L 3634 531 
L 3634 0 
L 628 0 
L 628 4666 
z
" transform="scale(0.015625)"/>
     <path id="DejaVuSans-78" d="M 3513 3500 
L 2247 1797 
L 3578 0 
L 2900 0 
L 1881 1375 
L 863 0 
L 184 0 
L 1544 1831 
L 300 3500 
L 978 3500 
L 1906 2253 
L 2834 3500 
L 3513 3500 
z
" transform="scale(0.015625)"/>
     <path id="DejaVuSans-70" d="M 1159 525 
L 1159 -1331 
L 581 -1331 
L 581 3500 
L 1159 3500 
L 1159 2969 
Q 1341 3281 1617 3432 
Q 1894 3584 2278 3584 
Q 2916 3584 3314 3078 
Q 3713 2572 3713 1747 
Q 3713 922 3314 415 
Q 2916 -91 2278 -91 
Q 1894 -91 1617 61 
Q 1341 213 1159 525 
z
M 3116 1747 
Q 3116 2381 2855 2742 
Q 2594 3103 2138 3103 
Q 1681 3103 1420 2742 
Q 1159 2381 1159 1747 
Q 1159 1113 1420 752 
Q 1681 391 2138 391 
Q 2594 391 2855 752 
Q 3116 1113 3116 1747 
z
" transform="scale(0.015625)"/>
     <path id="DejaVuSans-77" d="M 269 3500 
L 844 3500 
L 1563 769 
L 2278 3500 
L 2956 3500 
L 3675 769 
L 4391 3500 
L 4966 3500 
L 4050 0 
L 3372 0 
L 2619 2869 
L 1863 0 
L 1184 0 
L 269 3500 
z
" transform="scale(0.015625)"/>
     <path id="DejaVuSans-6d" d="M 3328 2828 
Q 3544 3216 3844 3400 
Q 4144 3584 4550 3584 
Q 5097 3584 5394 3201 
Q 5691 2819 5691 2113 
L 5691 0 
L 5113 0 
L 5113 2094 
Q 5113 2597 4934 2840 
Q 4756 3084 4391 3084 
Q 3944 3084 3684 2787 
Q 3425 2491 3425 1978 
L 3425 0 
L 2847 0 
L 2847 2094 
Q 2847 2600 2669 2842 
Q 2491 3084 2119 3084 
Q 1678 3084 1418 2786 
Q 1159 2488 1159 1978 
L 1159 0 
L 581 0 
L 581 3500 
L 1159 3500 
L 1159 2956 
Q 1356 3278 1631 3431 
Q 1906 3584 2284 3584 
Q 2666 3584 2933 3390 
Q 3200 3197 3328 2828 
z
" transform="scale(0.015625)"/>
     <path id="DejaVuSans-57" d="M 213 4666 
L 850 4666 
L 1831 722 
L 2809 4666 
L 3519 4666 
L 4500 722 
L 5478 4666 
L 6119 4666 
L 4947 0 
L 4153 0 
L 3169 4050 
L 2175 0 
L 1381 0 
L 213 4666 
z
" transform="scale(0.015625)"/>
    </defs>
    <use xlink:href="#DejaVuSans-45"/>
    <use xlink:href="#DejaVuSans-78" transform="translate(63.183594 0)"/>
    <use xlink:href="#DejaVuSans-63" transform="translate(120.613281 0)"/>
    <use xlink:href="#DejaVuSans-69" transform="translate(175.59375 0)"/>
    <use xlink:href="#DejaVuSans-74" transform="translate(203.376953 0)"/>
    <use xlink:href="#DejaVuSans-61" transform="translate(242.585938 0)"/>
    <use xlink:href="#DejaVuSans-74" transform="translate(303.865234 0)"/>
    <use xlink:href="#DejaVuSans-69" transform="translate(343.074219 0)"/>
    <use xlink:href="#DejaVuSans-6f" transform="translate(370.857422 0)"/>
    <use xlink:href="#DejaVuSans-6e" transform="translate(432.039062 0)"/>
    <use xlink:href="#DejaVuSans-20" transform="translate(495.417969 0)"/>
    <use xlink:href="#DejaVuSans-70" transform="translate(527.205078 0)"/>
    <use xlink:href="#DejaVuSans-6f" transform="translate(590.681641 0)"/>
    <use xlink:href="#DejaVuSans-77" transform="translate(651.863281 0)"/>
    <use xlink:href="#DejaVuSans-65" transform="translate(733.650391 0)"/>
    <use xlink:href="#DejaVuSans-72" transform="translate(795.173828 0)"/>
    <use xlink:href="#DejaVuSans-20" transform="translate(836.287109 0)"/>
    <use xlink:href="#DejaVuSans-31" transform="translate(868.074219 0)"/>
    <use xlink:href="#DejaVuSans-2e" transform="translate(931.697266 0)"/>
    <use xlink:href="#DejaVuSans-30" transform="translate(963.484375 0)"/>
    <use xlink:href="#DejaVuSans-20" transform="translate(1027.107422 0)"/>
    <use xlink:href="#DejaVuSans-6d" transform="translate(1058.894531 0)"/>
    <use xlink:href="#DejaVuSans-57" transform="translate(1156.306641 0)"/>
   </g>
  </g>
 </g>
 <defs>
  <clipPath id="pb2ac2bec2e">
   <rect x="72" y="86.4" width="446.4" height="420"/>
  </clipPath>
  <clipPath id="pef1020e809">
   <rect x="72" y="556.8" width="446.4" height="84"/>
  </clipPath>
 </defs>
</svg>
